<svg width="354" height="93" viewBox="0 0 354 93" fill="none" xmlns="http://www.w3.org/2000/svg">
<path d="M354 76.9033H190.012L176.452 92.7246L162.893 76.9033H0V25.665H354V76.9033Z" fill="#004E88" fill-opacity="0.1"/>
<path d="M82.844 59.5331C82.6627 59.3838 82.4387 59.2185 82.172 59.0371C81.916 58.8558 81.6813 58.7331 81.468 58.6691C81.6067 58.5518 81.74 58.4291 81.868 58.3011C81.996 58.1838 82.1133 58.0611 82.22 57.9331C81.708 58.0078 81.1267 58.0825 80.476 58.1571C79.836 58.2318 79.212 58.2958 78.604 58.3491C78.0067 58.4025 77.5 58.4451 77.084 58.4771L76.86 57.0531C77.116 57.0318 77.4733 57.0051 77.932 56.9731C78.3907 56.9411 78.8813 56.9038 79.404 56.8611V56.0931H77.196V54.7971H79.404V54.1731H77.068V49.3091H79.404V48.7011H76.94V47.4211H79.404V46.7651C79.0413 46.8078 78.6893 46.8451 78.348 46.8771C78.0173 46.8985 77.7133 46.9198 77.436 46.9411C77.4147 46.7491 77.3667 46.5145 77.292 46.2371C77.228 45.9491 77.1587 45.7198 77.084 45.5491C77.4253 45.5278 77.8413 45.4958 78.332 45.4531C78.8333 45.3998 79.356 45.3358 79.9 45.2611C80.444 45.1865 80.9453 45.1065 81.404 45.0211C81.8627 44.9251 82.22 44.8291 82.476 44.7331L83.244 46.0931C82.6147 46.2851 81.82 46.4451 80.86 46.5731V47.4211H83.276V48.5251H84.076V44.7491H85.644V48.5251H87.852V51.1491C87.852 52.4825 87.8307 53.6451 87.788 54.6371C87.7453 55.6185 87.6867 56.3971 87.612 56.9731C87.5373 57.6131 87.404 58.0878 87.212 58.3971C87.0307 58.7065 86.7747 58.9091 86.444 59.0051C86.1133 59.1011 85.692 59.1491 85.18 59.1491H84.508C84.4973 58.9571 84.46 58.7171 84.396 58.4291C84.3427 58.1411 84.2787 57.8958 84.204 57.6931C83.8307 58.3331 83.3773 58.9465 82.844 59.5331ZM74.78 59.2771V50.9251C74.652 51.1385 74.524 51.3411 74.396 51.5331C74.2787 51.7251 74.1613 51.8958 74.044 52.0451C73.9693 51.9385 73.8573 51.7998 73.708 51.6291C73.5587 51.4585 73.3987 51.2878 73.228 51.1171C73.068 50.9465 72.9293 50.8238 72.812 50.7491C73.1213 50.3758 73.42 49.9278 73.708 49.4051C74.0067 48.8718 74.2787 48.3118 74.524 47.7251C74.7693 47.1385 74.9773 46.5731 75.148 46.0291C75.3293 45.4851 75.4573 45.0105 75.532 44.6051L77.228 44.9891C77.1427 45.3411 77.0307 45.7251 76.892 46.1411C76.764 46.5465 76.6093 46.9678 76.428 47.4051V59.2771H74.78ZM80.86 56.7331C81.2973 56.6905 81.708 56.6531 82.092 56.6211C82.4867 56.5785 82.8013 56.5411 83.036 56.5091V56.7331C83.4093 56.0398 83.676 55.2291 83.836 54.3011C83.996 53.3625 84.076 52.2318 84.076 50.9091V50.0931H83.164V54.1731H80.86V54.7971H82.956V56.0931H80.86V56.7331ZM84.284 57.5651H85.036C85.4093 57.5651 85.66 57.5011 85.788 57.3731C85.916 57.2451 86.0173 56.9518 86.092 56.4931C86.156 56.0878 86.2147 55.4478 86.268 54.5731C86.3213 53.6878 86.348 52.5465 86.348 51.1491V50.0931H85.644V50.9091C85.644 52.3385 85.5373 53.5865 85.324 54.6531C85.1213 55.7198 84.7747 56.6905 84.284 57.5651ZM80.86 49.3091H83.068V48.7011H80.86V49.3091ZM78.556 53.0691H79.404V52.2851H78.556V53.0691ZM78.556 51.1971H79.404V50.4131H78.556V51.1971ZM80.86 53.0691H81.692V52.2851H80.86V53.0691ZM80.86 51.1971H81.692V50.4131H80.86V51.1971ZM99.9 58.9891C98.5987 59.0531 97.4573 58.9891 96.476 58.7971C95.4947 58.6158 94.732 58.2745 94.188 57.7731C93.6547 57.2611 93.388 56.5625 93.388 55.6771C93.388 55.1651 93.5267 54.7171 93.804 54.3331C94.0813 53.9385 94.46 53.6185 94.94 53.3731C95.42 53.1278 95.9693 52.9625 96.588 52.8771C97.2173 52.7918 97.8787 52.7918 98.572 52.8771C98.4013 52.6531 98.236 52.4185 98.076 52.1731C97.916 51.9278 97.7613 51.6771 97.612 51.4211C96.6093 51.5918 95.628 51.7305 94.668 51.8371C93.7187 51.9331 92.9027 51.9758 92.22 51.9651L91.852 50.2691C92.4493 50.2905 93.1853 50.2638 94.06 50.1891C94.9347 50.1038 95.836 49.9865 96.764 49.8371C96.54 49.3785 96.3373 48.9251 96.156 48.4771C95.516 48.5625 94.892 48.6318 94.284 48.6851C93.6867 48.7385 93.164 48.7705 92.716 48.7811L92.348 47.1171C92.7853 47.1278 93.2813 47.1171 93.836 47.0851C94.4013 47.0425 94.9773 46.9838 95.564 46.9091C95.3293 46.2158 95.1693 45.6185 95.084 45.1171L96.972 44.8931C97.0253 45.3731 97.164 45.9545 97.388 46.6371C97.9853 46.5305 98.5507 46.4131 99.084 46.2851C99.628 46.1465 100.081 46.0078 100.444 45.8691L100.924 47.5011C100.572 47.6291 100.14 47.7518 99.628 47.8691C99.116 47.9865 98.5667 48.0985 97.98 48.2051C98.0653 48.4185 98.156 48.6371 98.252 48.8611C98.3587 49.0745 98.4653 49.2878 98.572 49.5011C99.3507 49.3411 100.06 49.1705 100.7 48.9891C101.351 48.7971 101.863 48.6051 102.236 48.4131L102.86 49.9971C102.465 50.1891 101.969 50.3758 101.372 50.5571C100.785 50.7385 100.145 50.9038 99.452 51.0531C99.7933 51.6078 100.151 52.1251 100.524 52.6051C100.908 53.0745 101.297 53.4691 101.692 53.7891L100.508 55.0531C99.9 54.7118 99.292 54.4931 98.684 54.3971C98.0867 54.2905 97.5373 54.2745 97.036 54.3491C96.5347 54.4238 96.1293 54.5678 95.82 54.7811C95.5213 54.9945 95.372 55.2505 95.372 55.5491C95.372 56.0398 95.596 56.4078 96.044 56.6531C96.5027 56.8985 97.1213 57.0478 97.9 57.1011C98.6787 57.1545 99.5587 57.1491 100.54 57.0851C100.433 57.2451 100.332 57.4478 100.236 57.6931C100.151 57.9278 100.076 58.1625 100.012 58.3971C99.948 58.6318 99.9107 58.8291 99.9 58.9891ZM107.9 59.3251C107.825 59.1758 107.724 58.9998 107.596 58.7971C107.468 58.5945 107.329 58.3918 107.18 58.1891C107.031 57.9865 106.881 57.8265 106.732 57.7091C108.609 57.0051 110.039 55.9331 111.02 54.4931C112.012 53.0531 112.545 51.1865 112.62 48.8931H106.94V47.1171H113.02V44.6851H115.116V47.1171H121.244V48.8931H114.652C114.641 49.1811 114.625 49.4638 114.604 49.7411C114.583 50.0185 114.556 50.2958 114.524 50.5731H119.66C119.649 51.0958 119.617 51.6665 119.564 52.2851C119.521 52.9038 119.457 53.5225 119.372 54.1411C119.297 54.7491 119.212 55.3145 119.116 55.8371C119.02 56.3491 118.919 56.7651 118.812 57.0851C118.631 57.6398 118.412 58.0665 118.156 58.3651C117.9 58.6638 117.58 58.8665 117.196 58.9731C116.823 59.0905 116.359 59.1491 115.804 59.1491H114.22C114.209 58.9678 114.177 58.7438 114.124 58.4771C114.081 58.2211 114.028 57.9705 113.964 57.7251C113.911 57.4691 113.852 57.2718 113.788 57.1331H115.404C115.841 57.1331 116.167 57.0691 116.38 56.9411C116.593 56.8025 116.753 56.5625 116.86 56.2211C116.956 55.9438 117.047 55.5758 117.132 55.1171C117.217 54.6478 117.292 54.1678 117.356 53.6771C117.42 53.1758 117.452 52.7438 117.452 52.3811H114.156C113.729 53.9705 113.004 55.3411 111.98 56.4931C110.967 57.6451 109.607 58.5891 107.9 59.3251ZM132.492 58.9891C131.297 58.9891 130.332 58.6585 129.596 57.9971C128.871 57.3358 128.503 56.3811 128.492 55.1331C128.492 54.9838 128.497 54.8025 128.508 54.5891C128.529 54.3758 128.551 54.1358 128.572 53.8691C127.889 53.7838 127.249 53.6825 126.652 53.5651C126.065 53.4478 125.591 53.3198 125.228 53.1811L125.532 51.4051C125.852 51.5438 126.3 51.6718 126.876 51.7891C127.463 51.8958 128.081 51.9918 128.732 52.0771C128.775 51.7038 128.817 51.3251 128.86 50.9411C128.903 50.5571 128.945 50.1678 128.988 49.7731C128.401 49.6878 127.852 49.5971 127.34 49.5011C126.828 49.4051 126.433 49.3198 126.156 49.2451L126.476 47.4371C126.732 47.5331 127.105 47.6345 127.596 47.7411C128.087 47.8371 128.615 47.9278 129.18 48.0131C129.265 47.3198 129.335 46.6958 129.388 46.1411C129.452 45.5865 129.495 45.1758 129.516 44.9091L131.516 45.1811C131.452 45.4691 131.377 45.8851 131.292 46.4291C131.207 46.9625 131.121 47.5651 131.036 48.2371C131.42 48.2798 131.777 48.3118 132.108 48.3331C132.439 48.3545 132.711 48.3598 132.924 48.3491L132.652 50.1571C132.449 50.1571 132.188 50.1465 131.868 50.1251C131.548 50.0931 131.196 50.0558 130.812 50.0131C130.769 50.3971 130.727 50.7758 130.684 51.1491C130.652 51.5225 130.62 51.8958 130.588 52.2691C131.015 52.2905 131.409 52.3065 131.772 52.3171C132.145 52.3171 132.465 52.3065 132.732 52.2851L132.508 54.0771C132.22 54.0878 131.9 54.0931 131.548 54.0931C131.207 54.0825 130.844 54.0665 130.46 54.0451C130.449 54.2265 130.439 54.4025 130.428 54.5731C130.428 54.7331 130.428 54.8878 130.428 55.0371C130.439 55.7198 130.604 56.2265 130.924 56.5571C131.244 56.8878 131.767 57.0531 132.492 57.0531C133.207 57.0531 133.767 56.8931 134.172 56.5731C134.588 56.2425 134.796 55.7625 134.796 55.1331C134.796 54.5998 134.631 54.0291 134.3 53.4211C133.969 52.8131 133.463 52.2905 132.78 51.8531C133.079 51.8105 133.393 51.7198 133.724 51.5811C134.055 51.4318 134.3 51.2931 134.46 51.1651C135.207 51.7305 135.777 52.3705 136.172 53.0851C136.567 53.7998 136.764 54.5091 136.764 55.2131C136.764 55.9918 136.577 56.6638 136.204 57.2291C135.841 57.7945 135.34 58.2265 134.7 58.5251C134.06 58.8345 133.324 58.9891 132.492 58.9891ZM143.82 59.0051C143.617 58.6638 143.345 58.2958 143.004 57.9011C142.673 57.5065 142.321 57.1331 141.948 56.7811C141.585 56.4185 141.239 56.1198 140.908 55.8851L142.124 54.7811C142.369 54.9411 142.636 55.1491 142.924 55.4051C143.212 55.6505 143.505 55.9171 143.804 56.2051C144.103 56.4825 144.375 56.7545 144.62 57.0211C144.876 57.2878 145.084 57.5225 145.244 57.7251L143.82 59.0051ZM165.74 59.0531C165.697 58.8398 165.607 58.5678 165.468 58.2371C165.329 57.9065 165.169 57.6345 164.988 57.4211C166.332 57.2398 167.335 56.8505 167.996 56.2531C168.657 55.6451 168.988 54.8985 168.988 54.0131C168.988 53.4798 168.855 53.0265 168.588 52.6531C168.332 52.2691 167.969 51.9705 167.5 51.7571C166.668 53.2825 165.735 54.5571 164.7 55.5811C164.764 55.7838 164.828 55.9811 164.892 56.1731C164.967 56.3545 165.041 56.5358 165.116 56.7171C164.945 56.7598 164.753 56.8291 164.54 56.9251C164.327 57.0211 164.119 57.1225 163.916 57.2291C163.713 57.3251 163.553 57.4158 163.436 57.5011C163.393 57.3945 163.351 57.2878 163.308 57.1811C163.265 57.0638 163.223 56.9518 163.18 56.8451C162.604 57.2398 162.033 57.5278 161.468 57.7091C160.903 57.8798 160.364 57.9278 159.852 57.8531C159.5 57.7998 159.164 57.6131 158.844 57.2931C158.535 56.9625 158.38 56.4558 158.38 55.7731C158.38 54.9945 158.551 54.2691 158.892 53.5971C159.233 52.9251 159.697 52.3278 160.284 51.8051C160.881 51.2718 161.559 50.8451 162.316 50.5251C162.316 50.2051 162.321 49.8905 162.332 49.5811C162.353 49.2611 162.369 48.9465 162.38 48.6371C161.74 48.6798 161.143 48.7065 160.588 48.7171C160.044 48.7278 159.591 48.7118 159.228 48.6691L159.084 46.9411C159.5 46.9838 160.007 47.0105 160.604 47.0211C161.201 47.0318 161.841 47.0158 162.524 46.9731C162.577 46.5891 162.625 46.2211 162.668 45.8691C162.721 45.5171 162.78 45.1865 162.844 44.8771L164.62 45.2131C164.513 45.7038 164.417 46.2425 164.332 46.8291C165.121 46.7438 165.873 46.6318 166.588 46.4931C167.313 46.3545 167.927 46.1998 168.428 46.0291L168.588 47.7091C168.055 47.8691 167.393 48.0185 166.604 48.1571C165.815 48.2958 164.993 48.4078 164.14 48.4931C164.119 48.7385 164.103 48.9891 164.092 49.2451C164.081 49.5011 164.071 49.7571 164.06 50.0131C164.54 49.9171 165.036 49.8691 165.548 49.8691C165.708 49.8691 165.863 49.8745 166.012 49.8851C166.172 49.8958 166.327 49.9118 166.476 49.9331C166.561 49.7305 166.641 49.5278 166.716 49.3251C166.791 49.1118 166.86 48.8985 166.924 48.6851L168.668 49.1651C168.593 49.3678 168.519 49.5651 168.444 49.7571C168.369 49.9491 168.289 50.1411 168.204 50.3331C169.047 50.6638 169.708 51.1491 170.188 51.7891C170.679 52.4185 170.924 53.1651 170.924 54.0291C170.924 54.9358 170.711 55.7411 170.284 56.4451C169.868 57.1385 169.271 57.7038 168.492 58.1411C167.724 58.5891 166.807 58.8931 165.74 59.0531ZM161.068 56.0131C161.281 55.9598 161.527 55.8531 161.804 55.6931C162.092 55.5331 162.391 55.3251 162.7 55.0691C162.615 54.6211 162.54 54.1571 162.476 53.6771C162.423 53.1971 162.385 52.7118 162.364 52.2211C161.703 52.6051 161.169 53.0798 160.764 53.6451C160.369 54.2105 160.172 54.8025 160.172 55.4211C160.172 55.7518 160.252 55.9545 160.412 56.0291C160.572 56.0931 160.791 56.0878 161.068 56.0131ZM164.268 53.5491C164.524 53.2398 164.78 52.9038 165.036 52.5411C165.292 52.1785 165.532 51.7945 165.756 51.3891H165.548C165.292 51.3891 165.041 51.4051 164.796 51.4371C164.551 51.4585 164.311 51.4958 164.076 51.5491C164.108 52.2211 164.172 52.8878 164.268 53.5491ZM180.988 59.0531C180.167 59.0105 179.521 58.7545 179.052 58.2851C178.583 57.8158 178.353 57.2451 178.364 56.5731C178.375 55.9438 178.647 55.4158 179.18 54.9891C179.724 54.5625 180.481 54.3651 181.452 54.3971C181.601 54.4078 181.751 54.4185 181.9 54.4291C182.049 54.4291 182.193 54.4398 182.332 54.4611V50.8291H184.156V54.8931C184.764 55.0958 185.34 55.3571 185.884 55.6771C186.439 55.9971 186.972 56.3598 187.484 56.7651C187.292 56.9358 187.084 57.1811 186.86 57.5011C186.647 57.8211 186.487 58.1038 186.38 58.3491C186.039 58.0398 185.681 57.7518 185.308 57.4851C184.935 57.2078 184.545 56.9678 184.14 56.7651C184.033 58.3865 182.983 59.1491 180.988 59.0531ZM176.572 56.2531C176.401 56.1038 176.156 55.9331 175.836 55.7411C175.516 55.5491 175.223 55.4051 174.956 55.3091C175.617 54.5518 176.209 53.6665 176.732 52.6531C177.255 51.6291 177.687 50.5678 178.028 49.4691C177.495 49.5438 176.999 49.6078 176.54 49.6611C176.081 49.7145 175.713 49.7518 175.436 49.7731L175.196 47.9971C175.569 47.9971 176.049 47.9705 176.636 47.9171C177.233 47.8638 177.857 47.7891 178.508 47.6931C178.625 47.1918 178.716 46.7011 178.78 46.2211C178.844 45.7305 178.887 45.2558 178.908 44.7971L180.684 45.0531C180.599 45.8531 180.487 46.6318 180.348 47.3891C180.721 47.3145 181.079 47.2398 181.42 47.1651C181.772 47.0798 182.087 46.9998 182.364 46.9251L182.604 48.6051C182.273 48.7011 181.873 48.7971 181.404 48.8931C180.945 48.9891 180.455 49.0798 179.932 49.1651C179.569 50.5091 179.1 51.7785 178.524 52.9731C177.948 54.1678 177.297 55.2611 176.572 56.2531ZM186.732 51.1491C186.561 50.9678 186.332 50.7651 186.044 50.5411C185.756 50.3171 185.447 50.0931 185.116 49.8691C184.785 49.6451 184.455 49.4425 184.124 49.2611C183.804 49.0798 183.521 48.9465 183.276 48.8611L184.22 47.4531C184.476 47.5598 184.775 47.7038 185.116 47.8851C185.457 48.0558 185.804 48.2531 186.156 48.4771C186.508 48.6905 186.833 48.9038 187.132 49.1171C187.431 49.3305 187.676 49.5278 187.868 49.7091L186.732 51.1491ZM181.132 57.4531C181.537 57.4531 181.836 57.3625 182.028 57.1811C182.231 56.9891 182.332 56.6585 182.332 56.1891V56.0771C182.001 56.0025 181.66 55.9545 181.308 55.9331C180.945 55.9225 180.652 55.9811 180.428 56.1091C180.215 56.2371 180.103 56.4185 180.092 56.6531C180.081 56.8878 180.167 57.0798 180.348 57.2291C180.529 57.3785 180.791 57.4531 181.132 57.4531ZM193.5 58.8131C193.265 58.6638 192.961 58.5091 192.588 58.3491C192.215 58.1998 191.889 58.0931 191.612 58.0291C191.889 57.6345 192.177 57.1331 192.476 56.5251C192.775 55.9065 193.073 55.2238 193.372 54.4771C193.671 53.7198 193.959 52.9358 194.236 52.1251C194.513 51.3038 194.764 50.4985 194.988 49.7091C194.38 49.7625 193.804 49.7998 193.26 49.8211C192.727 49.8425 192.284 49.8425 191.932 49.8211L191.756 47.9011C192.193 47.9438 192.743 47.9598 193.404 47.9491C194.076 47.9385 194.769 47.9011 195.484 47.8371C195.623 47.2825 195.729 46.7705 195.804 46.3011C195.889 45.8318 195.943 45.4158 195.964 45.0531L197.964 45.3251C197.921 45.6345 197.857 45.9811 197.772 46.3651C197.687 46.7385 197.591 47.1438 197.484 47.5811C197.921 47.5065 198.332 47.4265 198.716 47.3411C199.1 47.2451 199.425 47.1491 199.692 47.0531L199.98 48.8451C199.649 48.9518 199.217 49.0638 198.684 49.1811C198.161 49.2878 197.591 49.3838 196.972 49.4691C196.737 50.3118 196.476 51.1811 196.188 52.0771C195.9 52.9625 195.601 53.8265 195.292 54.6691C194.983 55.5118 194.673 56.2905 194.364 57.0051C194.065 57.7091 193.777 58.3118 193.5 58.8131ZM204.348 58.1411C203.196 58.3225 202.108 58.3651 201.084 58.2691C200.071 58.1731 199.185 57.9651 198.428 57.6451C197.681 57.3251 197.121 56.9251 196.748 56.4451L197.724 55.0051C198.097 55.3891 198.62 55.7038 199.292 55.9491C199.975 56.1838 200.769 56.3225 201.676 56.3651C202.593 56.3971 203.591 56.3118 204.668 56.1091C204.561 56.3758 204.476 56.7118 204.412 57.1171C204.359 57.5225 204.337 57.8638 204.348 58.1411ZM203.868 52.4771C203.516 52.3598 203.111 52.2585 202.652 52.1731C202.193 52.0771 201.708 52.0025 201.196 51.9491C200.695 51.8958 200.199 51.8638 199.708 51.8531C199.228 51.8318 198.791 51.8318 198.396 51.8531L198.636 49.9811C199.02 49.9598 199.468 49.9651 199.98 49.9971C200.503 50.0185 201.041 50.0558 201.596 50.1091C202.161 50.1625 202.695 50.2318 203.196 50.3171C203.708 50.3918 204.145 50.4718 204.508 50.5571L203.868 52.4771ZM209.5 58.1891C209.425 57.7518 209.367 57.2185 209.324 56.5891C209.281 55.9491 209.249 55.2558 209.228 54.5091C209.217 53.7518 209.217 52.9731 209.228 52.1731C209.249 51.3731 209.281 50.5945 209.324 49.8371C209.377 49.0691 209.441 48.3598 209.516 47.7091C209.601 47.0585 209.697 46.5038 209.804 46.0451L211.676 46.4291C211.559 46.8131 211.457 47.3145 211.372 47.9331C211.287 48.5411 211.217 49.2131 211.164 49.9491C211.111 50.6745 211.073 51.4211 211.052 52.1891C211.041 52.9571 211.047 53.7038 211.068 54.4291C211.089 55.1545 211.127 55.8105 211.18 56.3971C211.233 56.9838 211.303 57.4585 211.388 57.8211L209.5 58.1891ZM216.3 57.3251C214.455 57.2718 213.409 56.6691 213.164 55.5171C213.1 55.2291 213.079 54.9091 213.1 54.5571C213.121 54.2051 213.201 53.8158 213.34 53.3891L215.02 53.8051C214.945 54.0078 214.903 54.1891 214.892 54.3491C214.892 54.5091 214.913 54.6531 214.956 54.7811C215.095 55.1651 215.66 55.3731 216.652 55.4051C217.132 55.4158 217.644 55.3998 218.188 55.3571C218.743 55.3038 219.281 55.2291 219.804 55.1331C220.337 55.0371 220.801 54.9305 221.196 54.8131C221.175 54.9625 221.148 55.1651 221.116 55.4211C221.095 55.6771 221.079 55.9385 221.068 56.2051C221.057 56.4611 221.057 56.6745 221.068 56.8451C220.567 56.9731 220.028 57.0745 219.452 57.1491C218.887 57.2238 218.327 57.2771 217.772 57.3091C217.228 57.3305 216.737 57.3358 216.3 57.3251ZM213.9 49.5171L213.788 47.5491C214.193 47.6025 214.689 47.6345 215.276 47.6451C215.863 47.6558 216.471 47.6505 217.1 47.6291C217.74 47.5971 218.348 47.5491 218.924 47.4851C219.511 47.4105 219.996 47.3198 220.38 47.2131L220.3 49.1491C219.873 49.2238 219.377 49.2931 218.812 49.3571C218.247 49.4105 217.66 49.4531 217.052 49.4851C216.455 49.5171 215.879 49.5385 215.324 49.5491C214.78 49.5491 214.305 49.5385 213.9 49.5171ZM225.196 52.1411C225.057 51.8638 224.881 51.5811 224.668 51.2931C224.455 50.9945 224.241 50.7545 224.028 50.5731C224.721 50.2851 225.415 49.9225 226.108 49.4851C226.812 49.0371 227.479 48.5465 228.108 48.0131C228.748 47.4691 229.319 46.9038 229.82 46.3171C230.332 45.7198 230.748 45.1278 231.068 44.5411L232.844 44.7811C233.185 45.3251 233.612 45.8638 234.124 46.3971C234.636 46.9305 235.201 47.4371 235.82 47.9171C236.439 48.3971 237.084 48.8345 237.756 49.2291C238.428 49.6131 239.095 49.9331 239.756 50.1891C239.66 50.3171 239.537 50.4931 239.388 50.7171C239.249 50.9305 239.111 51.1491 238.972 51.3731C238.833 51.5971 238.721 51.7998 238.636 51.9811C238.199 51.7678 237.751 51.5278 237.292 51.2611C236.833 50.9838 236.38 50.6905 235.932 50.3811V51.6611H227.836V50.4931C227.399 50.8131 226.956 51.1171 226.508 51.4051C226.06 51.6825 225.623 51.9278 225.196 52.1411ZM227.18 59.1331V53.0051H236.62V59.1331H227.18ZM229.148 57.4371H234.62V54.7171H229.148V57.4371ZM228.588 49.9171H235.308C234.625 49.4051 233.985 48.8558 233.388 48.2691C232.801 47.6718 232.305 47.0638 231.9 46.4451C231.537 47.0211 231.063 47.6078 230.476 48.2051C229.9 48.8025 229.271 49.3731 228.588 49.9171ZM245.372 58.7971V54.2211C244.593 54.9678 243.937 55.6825 243.404 56.3651L241.948 55.0211C242.396 54.6585 242.913 54.2158 243.5 53.6931C244.087 53.1598 244.711 52.6318 245.372 52.1091V49.9491C244.892 50.0558 244.423 50.1571 243.964 50.2531C243.505 50.3385 243.137 50.4078 242.86 50.4611L242.46 48.7171C242.748 48.7065 243.164 48.6585 243.708 48.5731C244.263 48.4771 244.817 48.3758 245.372 48.2691V45.2771H247.164V47.8051C247.303 47.7731 247.404 47.7358 247.468 47.6931L248.492 48.4611L247.404 50.6371C248.023 50.2638 248.647 49.9545 249.276 49.7091C249.905 49.4638 250.513 49.3411 251.1 49.3411C251.943 49.3411 252.689 49.5011 253.34 49.8211C253.991 50.1305 254.497 50.5785 254.86 51.1651C255.233 51.7411 255.42 52.4398 255.42 53.2611C255.42 54.4878 254.972 55.5331 254.076 56.3971C253.18 57.2611 251.857 57.8531 250.108 58.1731C250.065 58.0025 249.985 57.7998 249.868 57.5651C249.761 57.3305 249.639 57.0958 249.5 56.8611C249.361 56.6265 249.223 56.4345 249.084 56.2851C249.927 56.1785 250.679 56.0078 251.34 55.7731C252.001 55.5278 252.524 55.2025 252.908 54.7971C253.292 54.3811 253.484 53.8691 253.484 53.2611C253.484 52.5038 253.276 51.9438 252.86 51.5811C252.444 51.2078 251.857 51.0211 251.1 51.0211C250.513 51.0211 249.879 51.1811 249.196 51.5011C248.513 51.8211 247.836 52.2318 247.164 52.7331V58.7971H245.372ZM265.676 58.2211C264.705 58.2211 263.948 58.1411 263.404 57.9811C262.871 57.8105 262.492 57.5278 262.268 57.1331C262.055 56.7278 261.948 56.1678 261.948 55.4531V51.3571C261.265 51.4318 260.631 51.5171 260.044 51.6131C259.468 51.6985 258.977 51.7891 258.572 51.8851L258.396 49.9971C258.801 49.9438 259.313 49.8851 259.932 49.8211C260.551 49.7465 261.223 49.6771 261.948 49.6131V46.1731H263.772V49.4531C264.337 49.3998 264.908 49.3518 265.484 49.3091C266.071 49.2665 266.641 49.2238 267.196 49.1811V45.6771H269.052V49.0691C269.756 49.0265 270.396 48.9945 270.972 48.9731C271.559 48.9518 272.049 48.9411 272.444 48.9411V50.8611C272.028 50.8291 271.527 50.8131 270.94 50.8131C270.364 50.8025 269.735 50.8078 269.052 50.8291V51.8531C269.052 52.4291 268.961 52.9038 268.78 53.2771C268.599 53.6505 268.289 53.9438 267.852 54.1571C267.425 54.3598 266.833 54.4931 266.076 54.5571C266.033 54.2798 265.948 53.9758 265.82 53.6451C265.692 53.3038 265.548 53.0318 265.388 52.8291C266.049 52.8185 266.513 52.7385 266.78 52.5891C267.057 52.4398 267.196 52.1945 267.196 51.8531V50.9091C266.641 50.9411 266.071 50.9785 265.484 51.0211C264.908 51.0638 264.337 51.1118 263.772 51.1651V55.1971C263.772 55.5171 263.825 55.7678 263.932 55.9491C264.049 56.1198 264.252 56.2371 264.54 56.3011C264.828 56.3651 265.233 56.3971 265.756 56.3971C266.151 56.3971 266.62 56.3758 267.164 56.3331C267.708 56.2905 268.257 56.2318 268.812 56.1571C269.367 56.0825 269.847 55.9918 270.252 55.8851C270.188 56.0665 270.129 56.2851 270.076 56.5411C270.033 56.7971 270.001 57.0478 269.98 57.2931C269.959 57.5385 269.953 57.7358 269.964 57.8851C269.313 57.9918 268.599 58.0718 267.82 58.1251C267.052 58.1891 266.337 58.2211 265.676 58.2211ZM286.092 58.7011C284.983 58.5731 284.001 58.2531 283.148 57.7411C282.295 57.2185 281.628 56.5411 281.148 55.7091C280.668 54.8665 280.428 53.9118 280.428 52.8451C280.428 52.0771 280.615 51.2985 280.988 50.5091C281.361 49.7091 281.911 48.9998 282.636 48.3811C281.783 48.5198 280.935 48.6691 280.092 48.8291C279.249 48.9785 278.481 49.1225 277.788 49.2611C277.105 49.3998 276.577 49.5225 276.204 49.6291L275.772 47.5491C276.124 47.5278 276.609 47.4798 277.228 47.4051C277.857 47.3305 278.561 47.2398 279.34 47.1331C280.129 47.0158 280.94 46.8931 281.772 46.7651C282.615 46.6265 283.425 46.4878 284.204 46.3491C284.993 46.2105 285.697 46.0771 286.316 45.9491C286.945 45.8105 287.436 45.6878 287.788 45.5811L288.3 47.5331C288.14 47.5438 287.937 47.5705 287.692 47.6131C287.457 47.6451 287.185 47.6825 286.876 47.7251C286.3 47.7998 285.74 47.9811 285.196 48.2691C284.663 48.5571 284.183 48.9305 283.756 49.3891C283.34 49.8371 283.009 50.3545 282.764 50.9411C282.519 51.5278 282.396 52.1625 282.396 52.8451C282.396 53.6558 282.604 54.3331 283.02 54.8771C283.436 55.4211 284.001 55.8478 284.716 56.1571C285.441 56.4558 286.252 56.6585 287.148 56.7651C286.988 56.9358 286.833 57.1438 286.684 57.3891C286.535 57.6238 286.407 57.8585 286.3 58.0931C286.193 58.3385 286.124 58.5411 286.092 58.7011Z" fill="#004E88"/>
<path d="M137.751 6.80448V9.79751H141.528V11.3425H137.751V14.3953H142.543V16H135.736V5.20721H142.543V6.80448H137.751ZM146.341 9.2825C146.496 9.12824 146.657 8.98643 146.826 8.85706C147.001 8.72271 147.182 8.61075 147.371 8.52118C147.565 8.42664 147.772 8.35449 147.991 8.30473C148.21 8.24999 148.449 8.22262 148.707 8.22262C149.125 8.22262 149.496 8.29478 149.819 8.43908C150.143 8.5784 150.412 8.77744 150.626 9.03619C150.845 9.28996 151.009 9.59598 151.118 9.95425C151.233 10.3075 151.29 10.6981 151.29 11.1261V16H149.446V11.1261C149.446 10.6583 149.339 10.2976 149.125 10.0438C148.911 9.78507 148.585 9.65569 148.148 9.65569C147.829 9.65569 147.531 9.72784 147.252 9.87214C146.973 10.0164 146.71 10.213 146.461 10.4618V16H144.617V8.34205H145.744C145.983 8.34205 146.14 8.454 146.214 8.67792L146.341 9.2825ZM160.519 8.34205L157.481 16H155.809L152.771 8.34205H154.294C154.433 8.34205 154.548 8.37439 154.637 8.43908C154.732 8.50376 154.794 8.58587 154.824 8.68539L156.302 12.7756C156.381 13.0144 156.451 13.2483 156.511 13.4772C156.57 13.7061 156.623 13.935 156.667 14.1639C156.717 13.935 156.772 13.7061 156.832 13.4772C156.891 13.2483 156.963 13.0144 157.048 12.7756L158.556 8.68539C158.591 8.58587 158.653 8.50376 158.742 8.43908C158.832 8.37439 158.939 8.34205 159.063 8.34205H160.519ZM164.158 8.34205V16H162.307V8.34205H164.158ZM164.412 6.11034C164.412 6.26957 164.38 6.41885 164.315 6.55818C164.25 6.6975 164.163 6.81941 164.054 6.92391C163.949 7.0284 163.825 7.11299 163.681 7.17768C163.536 7.23739 163.382 7.26725 163.218 7.26725C163.059 7.26725 162.907 7.23739 162.763 7.17768C162.623 7.11299 162.501 7.0284 162.397 6.92391C162.292 6.81941 162.208 6.6975 162.143 6.55818C162.083 6.41885 162.054 6.26957 162.054 6.11034C162.054 5.94614 162.083 5.79188 162.143 5.64758C162.208 5.50328 162.292 5.37888 162.397 5.27439C162.501 5.16989 162.623 5.08779 162.763 5.02808C162.907 4.96339 163.059 4.93105 163.218 4.93105C163.382 4.93105 163.536 4.96339 163.681 5.02808C163.825 5.08779 163.949 5.16989 164.054 5.27439C164.163 5.37888 164.25 5.50328 164.315 5.64758C164.38 5.79188 164.412 5.94614 164.412 6.11034ZM168.523 9.67062C168.762 9.21283 169.046 8.85457 169.374 8.59582C169.703 8.33209 170.091 8.20023 170.539 8.20023C170.892 8.20023 171.176 8.27736 171.39 8.43161L171.27 9.81243C171.245 9.902 171.208 9.96669 171.158 10.0065C171.113 10.0413 171.051 10.0587 170.972 10.0587C170.897 10.0587 170.785 10.0463 170.636 10.0214C170.491 9.99654 170.35 9.9841 170.21 9.9841C170.006 9.9841 169.825 10.014 169.665 10.0737C169.506 10.1334 169.362 10.2205 169.232 10.3349C169.108 10.4444 168.996 10.5787 168.897 10.738C168.802 10.8972 168.713 11.0788 168.628 11.2828V16H166.784V8.34205H167.867C168.056 8.34205 168.188 8.37688 168.262 8.44654C168.337 8.51123 168.387 8.63065 168.411 8.80481L168.523 9.67062ZM176.269 8.22262C176.837 8.22262 177.352 8.31468 177.814 8.49879C178.282 8.6829 178.68 8.94413 179.009 9.2825C179.342 9.62086 179.598 10.0339 179.777 10.5215C179.957 11.0091 180.046 11.554 180.046 12.1561C180.046 12.7632 179.957 13.3105 179.777 13.7982C179.598 14.2858 179.342 14.7013 179.009 15.0446C178.68 15.388 178.282 15.6517 177.814 15.8358C177.352 16.0199 176.837 16.112 176.269 16.112C175.697 16.112 175.177 16.0199 174.709 15.8358C174.242 15.6517 173.841 15.388 173.508 15.0446C173.179 14.7013 172.923 14.2858 172.739 13.7982C172.56 13.3105 172.47 12.7632 172.47 12.1561C172.47 11.554 172.56 11.0091 172.739 10.5215C172.923 10.0339 173.179 9.62086 173.508 9.2825C173.841 8.94413 174.242 8.6829 174.709 8.49879C175.177 8.31468 175.697 8.22262 176.269 8.22262ZM176.269 14.6938C176.906 14.6938 177.377 14.4799 177.68 14.0519C177.989 13.624 178.143 12.997 178.143 12.171C178.143 11.345 177.989 10.7156 177.68 10.2827C177.377 9.84975 176.906 9.6333 176.269 9.6333C175.623 9.6333 175.142 9.85224 174.829 10.2901C174.52 10.723 174.366 11.35 174.366 12.171C174.366 12.9921 174.52 13.619 174.829 14.0519C175.142 14.4799 175.623 14.6938 176.269 14.6938ZM182.199 16V8.34205H183.326C183.565 8.34205 183.722 8.454 183.796 8.67792L183.916 9.24518C184.05 9.0959 184.189 8.95906 184.334 8.83466C184.483 8.71027 184.64 8.60328 184.804 8.51372C184.973 8.42415 185.152 8.35449 185.341 8.30473C185.535 8.24999 185.747 8.22262 185.976 8.22262C186.458 8.22262 186.854 8.35449 187.163 8.61821C187.476 8.87696 187.71 9.22279 187.864 9.65569C187.984 9.40192 188.133 9.18547 188.312 9.00633C188.491 8.82222 188.688 8.67295 188.902 8.5585C189.116 8.44405 189.342 8.35946 189.581 8.30473C189.825 8.24999 190.068 8.22262 190.312 8.22262C190.735 8.22262 191.111 8.28731 191.439 8.41669C191.768 8.54606 192.044 8.73514 192.268 8.98394C192.492 9.23274 192.661 9.53627 192.775 9.89454C192.895 10.2528 192.954 10.6633 192.954 11.1261V16H191.111V11.1261C191.111 10.6384 191.004 10.2727 190.79 10.0289C190.576 9.78009 190.263 9.65569 189.85 9.65569C189.66 9.65569 189.484 9.68804 189.32 9.75272C189.16 9.81741 189.019 9.91195 188.894 10.0364C188.775 10.1558 188.68 10.3075 188.611 10.4916C188.541 10.6758 188.506 10.8872 188.506 11.1261V16H186.655V11.1261C186.655 10.6136 186.55 10.2404 186.341 10.0065C186.137 9.77263 185.836 9.65569 185.438 9.65569C185.17 9.65569 184.918 9.72287 184.684 9.85722C184.456 9.98659 184.242 10.1657 184.043 10.3946V16H182.199ZM200.387 11.2903C200.387 11.0514 200.352 10.8275 200.282 10.6185C200.218 10.4046 200.118 10.218 199.984 10.0587C199.849 9.89951 199.678 9.77511 199.469 9.68555C199.265 9.591 199.026 9.54373 198.752 9.54373C198.22 9.54373 197.799 9.6955 197.491 9.99903C197.187 10.3026 196.993 10.733 196.909 11.2903H200.387ZM196.871 12.4024C196.901 12.7955 196.971 13.1364 197.08 13.425C197.19 13.7086 197.334 13.9449 197.513 14.134C197.692 14.3181 197.904 14.4575 198.148 14.552C198.397 14.6416 198.67 14.6864 198.969 14.6864C199.267 14.6864 199.524 14.6515 199.738 14.5819C199.956 14.5122 200.146 14.4351 200.305 14.3505C200.469 14.2659 200.611 14.1888 200.73 14.1191C200.855 14.0494 200.974 14.0146 201.088 14.0146C201.243 14.0146 201.357 14.0718 201.432 14.1863L201.962 14.858C201.758 15.0969 201.529 15.2984 201.275 15.4626C201.021 15.6218 200.755 15.7512 200.476 15.8507C200.203 15.9453 199.922 16.0124 199.633 16.0522C199.349 16.0921 199.073 16.112 198.805 16.112C198.272 16.112 197.777 16.0249 197.319 15.8507C196.861 15.6716 196.463 15.4104 196.125 15.067C195.787 14.7187 195.52 14.2908 195.326 13.7832C195.132 13.2707 195.035 12.6786 195.035 12.0068C195.035 11.4843 195.12 10.9942 195.289 10.5364C195.458 10.0737 195.7 9.67311 196.013 9.33474C196.332 8.9914 196.717 8.72022 197.17 8.52118C197.628 8.32214 198.143 8.22262 198.715 8.22262C199.198 8.22262 199.643 8.29975 200.051 8.454C200.459 8.60826 200.81 8.83466 201.103 9.13322C201.397 9.4268 201.626 9.79004 201.79 10.2229C201.959 10.6509 202.044 11.141 202.044 11.6933C202.044 11.972 202.014 12.1611 201.954 12.2606C201.895 12.3551 201.78 12.4024 201.611 12.4024H196.871ZM205.898 9.2825C206.052 9.12824 206.214 8.98643 206.383 8.85706C206.557 8.72271 206.739 8.61075 206.928 8.52118C207.122 8.42664 207.329 8.35449 207.547 8.30473C207.766 8.24999 208.005 8.22262 208.264 8.22262C208.682 8.22262 209.053 8.29478 209.376 8.43908C209.7 8.5784 209.968 8.77744 210.182 9.03619C210.401 9.28996 210.565 9.59598 210.675 9.95425C210.789 10.3075 210.846 10.6981 210.846 11.1261V16H209.003V11.1261C209.003 10.6583 208.896 10.2976 208.682 10.0438C208.468 9.78507 208.142 9.65569 207.704 9.65569C207.386 9.65569 207.087 9.72784 206.809 9.87214C206.53 10.0164 206.266 10.213 206.017 10.4618V16H204.174V8.34205H205.301C205.54 8.34205 205.696 8.454 205.771 8.67792L205.898 9.2825ZM215.797 16.1194C215.13 16.1194 214.618 15.9328 214.259 15.5596C213.906 15.1815 213.729 14.6615 213.729 13.9997V9.72287H212.946C212.846 9.72287 212.761 9.69052 212.692 9.62584C212.622 9.56115 212.587 9.46412 212.587 9.33474V8.60328L213.819 8.40176L214.207 6.31187C214.232 6.21235 214.279 6.13522 214.349 6.08049C214.418 6.02575 214.508 5.99838 214.618 5.99838H215.573V8.40922H217.618V9.72287H215.573V13.8728C215.573 14.1116 215.63 14.2982 215.745 14.4326C215.864 14.5669 216.026 14.6341 216.23 14.6341C216.344 14.6341 216.439 14.6217 216.513 14.5968C216.593 14.5669 216.66 14.5371 216.715 14.5072C216.775 14.4774 216.827 14.45 216.872 14.4251C216.916 14.3953 216.961 14.3803 217.006 14.3803C217.061 14.3803 217.105 14.3953 217.14 14.4251C217.175 14.45 217.212 14.4898 217.252 14.5445L217.805 15.4402C217.536 15.6641 217.227 15.8333 216.879 15.9478C216.531 16.0622 216.17 16.1194 215.797 16.1194Z" fill="#004E88"/>
<path d="M123.332 3.95996L132.704 20.7317" stroke="#004E88" stroke-width="1.00682"/>
<path d="M228.402 3.95996L219.03 20.7317" stroke="#004E88" stroke-width="1.00682"/>
</svg>
