<svg width="361" height="149" viewBox="0 0 361 149" fill="none" xmlns="http://www.w3.org/2000/svg">
<path d="M223.734 68.078C223.958 68.12 224.084 68.246 224.098 68.456C224.126 68.68 224.084 68.792 223.986 68.806C223.888 68.82 223.664 68.806 223.328 68.792C222.992 68.778 222.418 68.82 221.606 68.918C220.808 69.016 220.052 69.128 219.31 69.268C219.408 70.696 219.366 71.746 219.184 72.432C219.002 73.118 218.848 73.58 218.722 73.79C218.596 74 218.484 74.168 218.4 74.294C218.302 74.434 218.19 74.49 218.064 74.504C217.168 74.378 216.398 74.056 215.782 73.552C215.698 73.398 215.782 73.37 216.034 73.454C216.496 73.804 217.07 73.972 217.756 73.958C218.148 73.552 218.414 73.02 218.568 72.32C218.708 71.634 218.722 70.668 218.61 69.422C216.3 69.786 214.438 70.066 213.038 70.262C212.912 70.29 212.786 70.234 212.646 70.094C212.52 69.94 212.492 69.842 212.576 69.772C214.088 69.506 216.048 69.156 218.47 68.736C218.316 67.784 218.12 67.238 217.84 67.07C217.574 66.902 217.588 66.706 217.868 66.468C218.148 66.23 218.792 65.474 219.786 64.2C218.708 64.382 217.77 64.564 216.986 64.732C216.202 64.9 215.656 65.026 215.376 65.11C215.082 65.194 214.844 65.068 214.648 64.718C214.62 64.494 214.704 64.382 214.886 64.396C215.068 64.424 215.334 64.396 215.698 64.326C216.062 64.256 216.804 64.116 217.91 63.906C219.03 63.696 219.786 63.556 220.192 63.5C220.598 63.458 220.78 63.598 220.738 63.92C219.758 65.306 219.058 66.244 218.652 66.762C218.806 67.126 218.96 67.714 219.142 68.554C220.318 68.442 221.858 68.274 223.734 68.078ZM235.718 62.646C235.872 62.59 236.026 62.604 236.166 62.688C236.306 62.772 236.432 63.01 236.558 63.402C236.684 63.78 236.838 64.088 237.048 64.326C237.258 64.55 237.314 64.704 237.216 64.774C237.118 64.858 236.992 64.844 236.824 64.76C236.11 64.27 235.746 63.57 235.718 62.646ZM233.982 64.144C233.926 63.92 233.926 63.78 233.996 63.724C234.052 63.668 234.164 63.654 234.318 63.696C234.472 63.724 234.584 63.892 234.654 64.2C234.738 64.508 234.92 64.802 235.228 65.096C235.508 65.334 235.522 65.544 235.284 65.754C234.892 65.67 234.612 65.46 234.416 65.138C234.22 64.816 234.08 64.48 233.982 64.144ZM228.648 73.328C228.27 72.964 228.116 72.516 228.214 71.998C228.312 71.466 228.578 70.794 229.012 69.982L228.732 69.436C228.144 67.812 228.018 66.216 228.368 64.662C228.438 64.494 228.55 64.438 228.69 64.522C228.83 64.592 228.928 64.774 228.956 65.04C228.634 66.468 228.774 67.924 229.39 69.436C230.734 68.036 232.12 66.818 233.562 65.768C233.8 65.684 233.968 65.656 234.038 65.726C234.108 65.782 234.122 65.908 234.08 66.104C234.024 66.286 233.59 66.706 232.75 67.364C231.91 68.008 230.874 69.072 229.614 70.542C229.194 71.158 228.998 71.718 229.04 72.208C229.096 72.684 229.614 72.88 230.622 72.796C231.616 72.698 233.002 72.264 234.766 71.508C234.822 71.466 234.92 71.522 235.06 71.662C235.186 71.802 235.256 71.914 235.256 71.97C235.256 72.026 235.214 72.096 235.13 72.194C235.06 72.278 234.934 72.334 234.752 72.376C234.57 72.404 234.038 72.6 233.17 72.936C232.302 73.272 231.462 73.454 230.664 73.496C229.852 73.524 229.18 73.482 228.648 73.328ZM244.216 63.766C244.244 63.556 244.37 63.458 244.58 63.486C244.762 63.57 244.902 63.71 245.014 63.92C244.748 64.368 244.426 65.096 244.034 66.118C244.482 66.342 244.832 66.538 245.084 66.664C245.336 66.804 245.504 66.944 245.602 67.084C245.7 67.238 245.742 67.378 245.742 67.504C245.742 67.616 245.686 67.7 245.602 67.742C245.322 67.518 245.042 67.322 244.762 67.168C244.496 67 244.202 66.86 243.894 66.72C243.614 67.378 243.376 68.064 243.208 68.792C243.544 68.946 243.88 69.058 244.23 69.128C244.58 69.212 244.86 69.282 245.084 69.366C245.308 69.45 245.434 69.534 245.448 69.632C245.462 69.73 245.42 69.8 245.308 69.842C245.196 69.884 245.028 69.898 244.776 69.87C244.524 69.828 243.936 69.688 243.012 69.422L242.438 70.934C242.214 71.844 242.2 72.53 242.424 72.992C242.634 73.454 242.9 73.706 243.208 73.748C243.53 73.804 243.852 73.762 244.188 73.65C244.958 73.272 245.588 72.754 246.078 72.11C246.176 72.138 246.246 72.194 246.288 72.306C246.33 72.432 246.302 72.586 246.218 72.796C245.392 73.664 244.706 74.154 244.174 74.28C243.642 74.406 243.166 74.392 242.746 74.238C242.326 74.084 241.99 73.664 241.71 72.978C241.598 71.956 241.78 70.71 242.242 69.212C241.948 69.156 241.668 69.058 241.43 68.932C241.192 68.806 241.052 68.666 240.996 68.526C240.94 68.4 240.954 68.274 241.01 68.162C241.248 68.148 241.724 68.316 242.452 68.666C242.732 67.91 242.97 67.168 243.18 66.44C242.816 66.23 242.438 66.09 242.06 66.034C241.682 65.922 241.486 65.698 241.458 65.348C241.556 65.222 241.724 65.208 241.948 65.292C242.172 65.376 242.648 65.544 243.376 65.796L244.216 63.766ZM261.002 63.234C261.072 63.458 261.212 63.654 261.436 63.836C261.646 64.018 261.786 64.13 261.856 64.186C261.94 64.242 261.954 64.298 261.912 64.382C261.884 64.466 261.814 64.536 261.73 64.592C261.632 64.662 261.436 64.578 261.114 64.354C260.806 64.13 260.54 63.766 260.33 63.248C260.358 63.15 260.442 63.094 260.596 63.108C260.764 63.122 260.89 63.164 261.002 63.234ZM259.602 64.466C259.616 64.368 259.658 64.298 259.714 64.27C259.77 64.228 259.854 64.228 259.98 64.256C260.246 64.312 260.47 64.494 260.652 64.774C260.834 65.054 261.058 65.292 261.31 65.488C261.324 65.628 261.296 65.726 261.24 65.768C261.184 65.81 261.03 65.796 260.764 65.726C260.344 65.278 259.966 64.858 259.602 64.466ZM252.364 73.468C252.098 73.426 251.916 73.286 251.832 73.048C252.826 70.906 253.722 68.806 254.52 66.72C254.002 66.748 253.582 66.818 253.288 66.916C252.994 67.014 252.77 67.028 252.644 66.944C252.504 66.846 252.434 66.748 252.434 66.608C252.434 66.482 252.616 66.37 252.98 66.286C253.33 66.202 253.932 66.076 254.758 65.908C254.968 65.026 255.108 64.578 255.206 64.536C255.304 64.494 255.416 64.508 255.556 64.578C255.682 64.648 255.668 65.11 255.486 65.964C256.662 65.712 257.32 65.824 257.502 66.3C257.67 66.762 257.614 67.462 257.306 68.4C257.012 69.324 256.634 70.248 256.172 71.172C255.71 72.096 255.416 72.6 255.262 72.698C255.108 72.796 254.926 72.684 254.716 72.39C254.506 72.082 254.422 71.844 254.464 71.662C254.506 71.494 254.576 71.424 254.702 71.48C254.814 71.536 254.94 71.662 255.066 71.844C256.116 70.15 256.774 68.414 257.04 66.636C256.522 66.454 255.962 66.44 255.332 66.622C255.15 67.014 254.898 67.546 254.576 68.204C253.918 69.996 253.176 71.76 252.364 73.468ZM261.842 68.638C261.884 68.792 261.87 68.904 261.8 68.974C261.73 69.03 261.618 69.016 261.464 68.918C260.204 67.504 259.028 66.328 257.95 65.418C257.908 65.278 257.964 65.18 258.09 65.138C258.216 65.096 258.356 65.11 258.51 65.166C258.86 65.376 259.308 65.74 259.84 66.258C260.386 66.776 261.058 67.574 261.842 68.638ZM269.192 63.598C269.276 63.71 269.318 63.85 269.346 64.004C269.36 64.158 269.388 64.382 269.402 64.662C269.43 64.942 269.472 65.894 269.542 67.518C269.612 69.142 269.64 70.346 269.64 71.13C269.64 71.914 269.64 72.572 269.654 73.09C269.668 73.608 269.668 73.916 269.654 74C269.64 74.098 269.612 74.168 269.57 74.21C269.514 74.266 269.416 74.308 269.262 74.336C269.108 74.364 268.94 74.336 268.744 74.252C268.548 74.154 268.226 74.042 267.806 73.916C267.386 73.79 267.134 73.664 267.05 73.552C266.966 73.44 266.924 73.342 266.924 73.258C266.91 73.174 267.134 73.188 267.596 73.328C268.044 73.454 268.45 73.622 268.828 73.818C268.898 73.356 268.926 72.992 268.94 72.726C268.954 72.446 268.954 71.816 268.94 70.808C268.926 69.814 268.898 68.82 268.856 67.826C268.814 66.832 268.772 66.076 268.758 65.53C268.744 64.97 268.702 64.606 268.66 64.424C268.618 64.242 268.618 64.046 268.66 63.836C268.702 63.626 268.884 63.556 269.192 63.598ZM266.35 67.448C266.42 67.518 266.476 67.602 266.518 67.672C266.56 67.742 266.588 67.84 266.574 67.952C266.574 68.078 266.532 68.19 266.462 68.288C266.392 68.4 266.322 68.526 266.252 68.68C266.196 68.82 266.028 69.198 265.776 69.786C265.524 70.374 265.342 70.766 265.258 70.976C265.16 71.186 265.062 71.354 264.964 71.452C264.852 71.564 264.74 71.662 264.628 71.718C264.502 71.788 264.376 71.83 264.264 71.844C264.138 71.858 264.054 71.872 263.984 71.872C263.914 71.872 263.886 71.872 263.886 71.872C263.886 71.872 263.9 71.872 263.9 71.844C263.9 71.816 263.928 71.76 263.956 71.662C263.998 71.578 264.11 71.41 264.292 71.158C264.474 70.906 264.698 70.5 264.978 69.912C265.244 69.338 265.482 68.778 265.692 68.218C265.888 67.658 266 67.378 266.028 67.35C266.042 67.336 266.07 67.336 266.126 67.35C266.168 67.364 266.238 67.392 266.35 67.448ZM271.18 67.084C271.278 67.042 271.404 67.084 271.558 67.21C271.712 67.35 271.908 67.56 272.146 67.84C272.384 68.134 272.608 68.428 272.818 68.736C273.028 69.03 273.322 69.492 273.714 70.08C274.092 70.682 274.302 71.018 274.344 71.088C274.372 71.172 274.372 71.242 274.316 71.312C274.26 71.368 274.218 71.396 274.176 71.382C274.134 71.382 274.078 71.34 274.05 71.284C274.008 71.214 273.798 70.99 273.434 70.612C273.056 70.234 272.832 69.996 272.734 69.912C272.636 69.814 272.37 69.422 271.922 68.736C271.488 68.05 271.222 67.63 271.152 67.476C271.096 67.322 271.096 67.196 271.18 67.084ZM278.558 66.902C278.516 66.622 278.642 66.496 278.936 66.524C279.146 66.636 279.412 66.664 279.72 66.608C280.28 66.468 280.868 66.286 281.456 66.062C281.176 65.376 280.896 64.746 280.602 64.158C280.63 63.976 280.728 63.878 280.896 63.878C281.064 63.878 281.204 64.004 281.33 64.242C281.442 64.48 281.68 65.012 282.03 65.824C282.716 65.6 283.374 65.39 283.99 65.194C284.354 65.236 284.508 65.348 284.466 65.544C284.41 65.726 284.27 65.852 284.032 65.894C283.458 66.09 282.842 66.286 282.17 66.51C282.436 67.56 282.646 68.596 282.772 69.618C282.772 69.786 282.688 69.912 282.548 69.968C282.408 70.038 282.296 70.024 282.212 69.912C282.142 69.786 282.114 69.674 282.17 69.576C282.058 68.61 281.89 67.686 281.68 66.79C280.406 67.182 279.678 67.378 279.482 67.35C279.286 67.322 279.118 67.294 278.978 67.266C278.838 67.224 278.698 67.098 278.558 66.902ZM278.642 70.612C278.726 70.43 278.852 70.36 279.02 70.402C279.174 70.43 279.286 70.57 279.342 70.822C279.146 71.634 279.16 72.264 279.384 72.712C279.608 73.174 279.944 73.384 280.406 73.342C280.854 73.3 281.204 73.23 281.442 73.132C281.694 73.034 282.002 72.922 282.38 72.768C282.758 72.628 282.996 72.6 283.094 72.698C283.178 72.796 283.206 72.936 283.15 73.118C283.08 73.314 282.772 73.454 282.226 73.58C281.666 73.692 281.176 73.804 280.742 73.888C280.308 73.972 279.972 74 279.734 73.972C279.51 73.93 279.202 73.692 278.824 73.258C278.446 72.81 278.39 71.928 278.642 70.612ZM297.262 67.448C297.682 68.33 297.99 68.876 298.172 69.114C298.354 69.352 298.396 69.576 298.298 69.786C298.2 69.996 298.032 69.996 297.794 69.772C297.416 69.226 297.122 68.68 296.898 68.148C296.604 67.644 296.394 67.252 296.254 67C295.834 66.762 295.652 66.566 295.75 66.412C295.764 66.286 295.806 66.216 295.89 66.188C295.974 66.16 296.086 66.188 296.212 66.258C296.604 66.44 296.954 66.832 297.262 67.448ZM290.682 66.874L290.598 66.93C290.444 67.182 290.388 67.448 290.402 67.742C290.416 68.036 290.472 68.456 290.57 69.044C290.682 69.618 290.948 70.29 291.382 71.088C291.872 71.13 292.53 70.444 293.342 69.058C293.622 68.932 293.734 69.002 293.706 69.268C293.37 70.262 292.796 71.172 291.984 71.998C291.452 71.998 291.032 71.774 290.738 71.312C290.43 70.85 290.22 70.346 290.122 69.772C289.73 68.568 289.618 67.406 289.744 66.258C289.898 66.076 290.052 66.09 290.234 66.272C290.444 66.454 290.598 66.664 290.682 66.874ZM302.764 73.468C302.498 73.426 302.316 73.286 302.232 73.048C303.226 70.906 304.122 68.806 304.92 66.72C304.402 66.748 303.982 66.818 303.688 66.916C303.394 67.014 303.17 67.028 303.044 66.944C302.904 66.846 302.834 66.748 302.834 66.608C302.834 66.482 303.016 66.356 303.38 66.258C303.73 66.16 304.332 66.02 305.158 65.852C305.368 65.012 305.508 64.578 305.606 64.536C305.704 64.494 305.816 64.508 305.942 64.578C306.054 64.648 306.04 65.082 305.886 65.852C307.062 65.656 307.72 65.81 307.902 66.286C308.07 66.762 308.014 67.462 307.706 68.4C307.412 69.324 307.034 70.248 306.572 71.172C306.11 72.096 305.816 72.6 305.662 72.698C305.508 72.796 305.326 72.684 305.116 72.39C304.906 72.082 304.822 71.844 304.864 71.662C304.906 71.494 304.976 71.424 305.102 71.48C305.214 71.536 305.34 71.662 305.466 71.844C306.516 70.15 307.174 68.386 307.44 66.58C306.922 66.398 306.32 66.342 305.634 66.426C305.438 66.804 305.186 67.406 304.864 68.232C304.276 70.01 303.576 71.76 302.764 73.468ZM312.116 69.282C312.088 69.45 312.032 69.562 311.948 69.618C311.878 69.66 311.766 69.604 311.626 69.464C310.842 67.77 310.058 66.314 309.274 65.124C309.274 64.984 309.344 64.914 309.484 64.914C309.624 64.914 309.75 64.956 309.876 65.04C310.156 65.348 310.478 65.824 310.842 66.468C311.22 67.126 311.64 68.064 312.116 69.282ZM318.934 66.104C319.088 66.006 319.228 65.936 319.382 65.894C319.536 65.852 319.704 65.726 319.914 65.53C319.284 65.124 318.57 64.746 317.772 64.368C317.702 64.27 317.702 64.13 317.772 63.976C317.884 63.92 318.094 63.962 318.388 64.116C319.564 64.578 320.278 64.998 320.53 65.362C320.782 65.726 320.824 65.964 320.642 66.104C320.46 66.23 320.04 66.37 319.41 66.552C319.214 66.524 319.074 66.468 319.004 66.412C318.92 66.342 318.906 66.23 318.934 66.104ZM322.098 69.086C322.588 69.59 322.784 70.108 322.686 70.626C322.574 71.158 322.238 71.718 321.678 72.32C321.104 72.922 320.516 73.496 319.914 74.056C319.494 74.042 319.326 73.944 319.382 73.748C319.774 73.356 320.32 72.768 321.02 71.984C321.706 71.2 322.014 70.612 321.93 70.206C321.846 69.814 321.482 69.618 320.81 69.618C320.138 69.632 319.298 69.954 318.29 70.584C317.268 71.228 316.666 71.648 316.47 71.886C316.26 72.11 316.078 72.208 315.896 72.18C315.714 72.152 315.602 72.026 315.56 71.816C315.77 69.94 316.134 68.106 316.638 66.328C316.764 66.23 316.904 66.202 317.03 66.258C317.17 66.314 317.226 66.426 317.226 66.58C317.226 66.748 317.184 66.944 317.114 67.21C317.03 67.462 316.918 67.868 316.792 68.428C316.652 68.974 316.568 69.73 316.526 70.682C317.534 69.996 318.626 69.464 319.802 69.086C320.46 68.806 321.23 68.806 322.098 69.086ZM220.542 87.732L221.718 87.662C221.928 87.676 222.054 87.76 222.11 87.956C221.928 90.616 220.752 92.982 218.582 95.04C218.078 95.544 217.56 95.95 217.028 96.258C216.608 96.23 216.468 96.09 216.594 95.866C219.072 93.948 220.696 91.512 221.508 88.544C221.312 88.432 220.654 88.418 219.534 88.502C218.4 88.586 216.916 88.712 215.054 88.866C214.956 88.782 214.872 88.67 214.816 88.544C214.76 88.404 214.802 88.25 214.956 88.096C216.37 88.054 218.232 87.928 220.542 87.732ZM236.432 92.884C236.558 93.122 236.572 93.318 236.432 93.472C236.306 93.612 235.396 94.102 233.716 94.914C233.52 95.222 233.044 95.418 232.274 95.516C231.868 95.25 231.714 94.872 231.812 94.41C231.91 93.934 231.952 93.5 231.952 93.108C231.882 91.47 231.84 89.86 231.812 88.278C231.98 88.11 232.12 88.082 232.218 88.18C232.316 88.278 232.414 88.502 232.498 88.852C232.554 90.7 232.554 92.562 232.498 94.424C232.792 94.48 233.17 94.382 233.632 94.13C234.08 93.892 234.934 93.486 236.166 92.94L236.432 92.884ZM228.172 95.684C227.92 95.782 227.752 95.67 227.682 95.348C227.92 94.62 228.158 93.892 228.382 93.192C228.816 91.694 228.83 90.224 228.41 88.754C228.368 88.586 228.382 88.432 228.466 88.32C228.97 88.544 229.25 88.95 229.32 89.524C229.39 90.098 229.432 90.686 229.432 91.316C229.222 92.786 228.802 94.242 228.172 95.684ZM243.348 86.71C243.516 86.71 243.628 86.78 243.67 86.906C243.726 87.046 243.754 87.172 243.754 87.298C243.754 87.41 243.46 87.858 242.886 88.642C242.298 89.426 241.71 90.252 241.108 91.106C240.506 91.96 240.128 92.38 239.974 92.352C239.82 92.324 239.736 92.268 239.736 92.184C239.722 92.1 239.75 91.974 239.82 91.82C239.904 91.68 239.974 91.54 240.044 91.414C240.1 91.274 240.45 90.784 241.08 89.902C241.696 89.034 242.466 87.956 243.348 86.71ZM241.486 96.664C241.668 96.3 242.004 95.824 242.508 95.236C243.012 94.634 243.502 93.808 243.978 92.744C243.124 92.212 242.592 91.75 242.382 91.358C242.172 90.966 242.116 90.742 242.228 90.672C242.326 90.616 242.466 90.644 242.62 90.756C242.774 90.868 242.956 91.092 243.18 91.4C243.404 91.722 243.754 92.058 244.216 92.436C244.888 91.316 245.63 90.196 246.414 89.104C245.49 88.936 244.636 88.936 243.838 89.118C243.544 89.062 243.362 88.978 243.306 88.866C243.264 88.768 243.306 88.614 243.46 88.418C244.65 88.334 245.84 88.348 247.058 88.446C247.198 88.53 247.324 88.684 247.45 88.908C247.114 89.496 246.722 90.098 246.26 90.686C245.014 92.744 243.642 94.872 242.13 97.056C242.046 97.14 241.934 97.182 241.78 97.154C241.64 97.126 241.542 96.958 241.486 96.664ZM257.474 88.67L258.622 87.144C258.79 87.158 258.902 87.214 258.986 87.312C259.056 87.41 259.098 87.564 259.098 87.76C258.272 88.838 257.656 89.636 257.236 90.168C257.432 90.476 257.502 90.756 257.474 90.994C257.502 92.87 257.474 94.774 257.362 96.734C257.32 96.762 257.18 96.762 256.956 96.72C256.732 96.678 256.634 96.468 256.662 96.076C256.676 95.684 256.69 95.39 256.69 95.166C256.788 93.598 256.816 91.988 256.76 90.336C255.71 91.61 254.758 92.548 253.932 93.164C253.806 93.206 253.666 93.192 253.526 93.108C253.372 93.024 253.302 92.926 253.302 92.814C253.302 92.702 253.358 92.618 253.484 92.59C254.45 91.862 255.78 90.56 257.474 88.67ZM264.992 95.152C264.712 95.082 264.614 94.928 264.698 94.69C265.104 93.864 265.538 93.094 266 92.352C266.728 90.882 267.386 89.37 267.974 87.802C268.1 87.774 268.212 87.816 268.324 87.942C268.436 88.068 268.52 88.208 268.604 88.362C267.736 90.476 266.77 92.478 265.692 94.382C266.364 94.452 267.176 94.354 268.128 94.102C269.08 93.864 270.102 93.542 271.222 93.164C270.914 92.576 270.69 92.142 270.536 91.876C270.368 91.61 270.228 91.372 270.102 91.162C269.976 90.952 270.018 90.784 270.228 90.672C270.368 90.616 270.494 90.644 270.62 90.742C270.732 90.84 270.97 91.316 271.32 92.17C271.656 93.024 272.202 94.256 272.944 95.866C273 96.062 272.916 96.16 272.678 96.16C272.356 95.74 272.076 95.306 271.852 94.858C271.628 94.424 271.446 94.074 271.292 93.808C270.97 94.018 270.69 94.158 270.466 94.228C270.242 94.312 269.654 94.466 268.716 94.69C267.764 94.914 266.532 95.068 264.992 95.152ZM286.384 93.5C286.468 93.766 286.468 93.906 286.384 93.934C286.3 93.962 286.174 93.948 286.006 93.906C285.838 93.85 285.586 93.752 285.264 93.598C284.956 93.444 284.606 93.36 284.242 93.346C284.102 94.158 283.948 94.746 283.766 95.152C283.598 95.544 283.43 95.922 283.276 96.272C283.122 96.622 282.87 96.86 282.52 96.986C282.17 96.986 281.876 96.902 281.638 96.72C281.4 96.552 281.176 96.202 280.98 95.67C280.77 95.152 280.882 94.452 281.302 93.598C281.82 92.8 282.604 92.45 283.626 92.576C283.724 91.526 283.752 90.616 283.696 89.846C282.38 89.818 281.4 89.916 280.784 90.154C280.644 90.098 280.518 90.014 280.42 89.916C280.322 89.818 280.252 89.734 280.21 89.664C280.35 89.524 280.532 89.454 280.756 89.426C280.98 89.398 281.246 89.384 281.568 89.37C281.89 89.356 282.576 89.272 283.626 89.118C283.57 88.236 283.528 87.55 283.528 87.074C283.64 86.976 283.78 86.948 283.962 87.004C284.144 87.06 284.242 87.298 284.284 87.704C284.312 88.11 284.326 88.586 284.34 89.118C285.236 89.048 285.782 89.076 285.95 89.202C286.132 89.328 286.174 89.468 286.09 89.622C286.02 89.762 285.866 89.818 285.614 89.79C285.376 89.762 284.984 89.748 284.424 89.776C284.354 90.952 284.326 91.89 284.326 92.604C285.04 92.772 285.726 93.066 286.384 93.5ZM282.226 96.398C282.996 95.46 283.416 94.382 283.458 93.178L282.772 93.262C281.988 93.598 281.568 94.228 281.512 95.124C281.568 95.348 281.624 95.586 281.694 95.838C281.75 96.09 281.932 96.286 282.226 96.398ZM277.858 96.328L277.62 96.02C277.27 93.43 277.312 90.896 277.732 88.432C277.858 88.306 277.984 88.292 278.138 88.404C278.278 88.516 278.376 88.67 278.418 88.866C277.886 91.092 277.844 93.388 278.306 95.754C278.418 95.796 278.46 95.922 278.446 96.118C278.418 96.314 278.348 96.426 278.236 96.468C278.124 96.51 277.998 96.454 277.858 96.328ZM289.408 88.418C289.394 88.32 289.408 88.25 289.478 88.194C289.534 88.124 289.632 88.082 289.772 88.026C289.898 87.984 290.668 87.872 292.082 87.676C293.496 87.48 294.826 87.312 296.058 87.172C297.304 87.032 298.004 86.976 298.158 86.99C298.312 87.004 298.452 87.018 298.564 87.046C298.676 87.074 298.76 87.102 298.816 87.144C298.872 87.186 298.928 87.228 298.956 87.298C298.984 87.354 299.012 87.41 299.026 87.438C299.04 87.48 299.012 87.508 298.956 87.522C298.914 87.55 298.27 87.606 297.038 87.69C295.82 87.788 295.064 87.872 294.798 87.942C294.728 88.096 294.658 88.236 294.588 88.348C294.518 88.46 294.406 88.614 294.266 88.81C294.126 89.006 294.028 89.16 293.958 89.272C294.126 89.398 294.224 89.496 294.252 89.538C294.28 89.594 294.294 89.706 294.294 89.888C294.294 90.056 294.28 90.49 294.266 91.162C294.378 91.05 294.462 90.98 294.49 90.98C294.532 90.966 294.588 90.98 294.658 90.994C294.742 91.022 295.33 91.344 296.45 91.988C297.556 92.618 298.2 93.01 298.382 93.136C298.564 93.276 298.69 93.374 298.746 93.444C298.802 93.5 298.816 93.57 298.816 93.64C298.802 93.696 298.774 93.766 298.732 93.808C298.69 93.864 298.62 93.906 298.55 93.92C298.48 93.934 298.41 93.92 298.326 93.906C298.256 93.878 297.836 93.626 297.094 93.15C296.352 92.66 295.848 92.352 295.596 92.212C295.33 92.072 295.092 91.96 294.882 91.862C294.672 91.764 294.462 91.666 294.252 91.554C294.224 92.086 294.21 92.814 294.21 93.724C294.196 94.634 294.182 95.306 294.182 95.726C294.168 96.16 294.182 96.552 294.21 96.93C294.238 97.294 294.154 97.476 293.986 97.462C293.818 97.448 293.692 97.392 293.636 97.294C293.58 97.196 293.524 97.084 293.496 96.944C293.454 96.804 293.468 95.726 293.538 93.682C293.608 91.638 293.65 90.35 293.664 89.818C293.496 90.056 293.328 90.294 293.146 90.532C292.978 90.756 292.488 91.302 291.676 92.17C290.864 93.024 290.374 93.528 290.192 93.654C290.01 93.78 289.8 93.892 289.59 93.99C289.38 94.088 289.212 94.13 289.1 94.144C289.002 94.158 288.918 94.172 288.848 94.158C288.792 94.144 288.764 94.13 288.75 94.088C288.736 94.046 288.75 93.99 288.792 93.92C288.834 93.836 288.89 93.78 288.946 93.724C289.002 93.682 289.184 93.542 289.492 93.304C289.814 93.08 290.276 92.646 290.892 92.016C291.508 91.386 291.928 90.924 292.166 90.616C292.404 90.322 292.684 89.958 293.006 89.51C293.314 89.062 293.538 88.754 293.65 88.6C293.762 88.446 293.916 88.264 294.126 88.054C293.608 88.152 292.754 88.264 291.592 88.418C290.43 88.572 289.814 88.642 289.73 88.642C289.66 88.642 289.59 88.6 289.52 88.544C289.436 88.488 289.408 88.446 289.408 88.418ZM309.862 89.972C310.226 89.356 310.576 88.726 310.912 88.082C310.016 88.082 309.274 88.124 308.686 88.194C308.112 88.25 307.398 88.334 306.544 88.418C305.704 88.502 304.388 88.824 302.638 89.384C302.82 90.014 302.876 90.42 302.792 90.588C302.596 90.714 302.372 90.448 302.12 89.776C301.798 89.006 301.588 88.222 301.49 87.438C301.448 87.312 301.476 87.256 301.588 87.256C302.036 87.34 302.246 87.494 302.246 87.718C302.246 87.942 302.302 88.25 302.428 88.67C302.778 88.558 303.394 88.404 304.29 88.208C305.186 87.998 305.886 87.83 306.404 87.704C306.194 87.326 305.984 87.032 305.788 86.808C305.606 86.584 305.522 86.332 305.55 86.066C305.648 85.996 305.83 86.01 306.096 86.136C306.334 86.5 306.586 86.892 306.852 87.298L307.034 87.62C308.63 87.452 310.114 87.368 311.514 87.368C311.696 87.466 311.836 87.564 311.892 87.662C311.962 87.774 311.962 87.914 311.906 88.082C311.654 88.432 311.388 88.796 311.108 89.174C310.828 89.566 310.45 89.958 309.988 90.35C309.876 90.392 309.778 90.392 309.722 90.336C309.666 90.28 309.708 90.168 309.862 89.972ZM301.392 93.164C301.112 93.136 301.042 93.01 301.182 92.772C301.308 92.534 301.56 92.394 301.938 92.352C302.316 92.31 302.764 92.24 303.282 92.17C303.8 92.1 304.472 92.002 305.312 91.862C305.62 91.246 305.844 90.728 305.956 90.336C306.082 89.944 306.25 89.762 306.488 89.818C306.726 89.86 306.782 90.07 306.656 90.406C306.544 90.756 306.306 91.218 305.942 91.806C307.888 91.554 309.316 91.4 310.254 91.344C311.178 91.288 311.752 91.26 311.99 91.274C312.214 91.274 312.34 91.372 312.34 91.54C312.354 91.722 312.326 91.848 312.256 91.946C312.186 92.03 312.032 92.058 311.808 92.03C311.584 92.002 311.262 91.988 310.87 92.016C310.478 92.03 309.792 92.086 308.826 92.184C308.252 93.556 307.706 94.606 307.202 95.362C308.518 96.174 309.624 96.734 310.52 97.042C310.534 97.294 310.464 97.448 310.296 97.532C310.142 97.602 310.016 97.56 309.918 97.406C309.12 97.098 308.084 96.65 306.838 96.076C306.474 96.44 305.998 96.818 305.396 97.21C304.794 97.588 304.402 97.812 304.206 97.868C304.01 97.924 303.884 97.966 303.786 97.966C303.702 97.966 303.576 97.924 303.408 97.84C303.254 97.756 303.198 97.616 303.282 97.448C303.352 97.266 303.464 97.238 303.618 97.364C304.57 97.098 305.466 96.552 306.306 95.726C305.396 95.46 304.738 95.264 304.318 95.18C303.912 95.082 303.702 94.942 303.716 94.774C303.73 94.606 303.814 94.466 303.982 94.34C304.136 94.2 304.262 94.032 304.388 93.808C304.514 93.598 304.724 93.22 305.004 92.702C304.682 92.786 304.164 92.842 303.436 92.912C302.722 92.968 302.26 93.01 302.05 93.066C301.84 93.108 301.616 93.136 301.392 93.164ZM305.774 92.59C305.256 93.458 304.864 94.102 304.612 94.522L306.614 95.152C307.146 94.438 307.636 93.486 308.084 92.268L305.774 92.59Z" fill="black"/>
<rect x="206.4" y="71" width="126" height="6" fill="#004E88" fill-opacity="0.1"/>
<rect x="206.4" y="94" width="113" height="6" fill="#004E88" fill-opacity="0.1"/>
<rect x="15" y="60" width="143" height="6" fill="#004E88" fill-opacity="0.1"/>
<rect x="15" y="83" width="141" height="6" fill="#004E88" fill-opacity="0.1"/>
<rect x="15.4004" y="106" width="82" height="6" fill="#004E88" fill-opacity="0.1"/>
<path d="M24.404 57.386C24.306 57.302 24.236 57.232 24.208 57.176C24.18 57.12 24.166 57.078 24.18 57.05C24.194 57.008 24.222 56.98 24.25 56.952C24.292 56.924 24.39 56.896 24.544 56.854C24.712 56.798 25.328 56.686 26.42 56.49C27.512 56.294 28.366 56.196 28.954 56.182C29.556 56.154 29.892 56.182 29.962 56.252C30.032 56.322 30.074 56.378 30.088 56.406C30.088 56.448 30.06 56.476 30.018 56.518C29.976 56.546 29.892 56.574 29.78 56.588C29.668 56.588 29.374 56.644 28.898 56.728C28.408 56.812 28.086 56.854 27.918 56.868C27.75 56.896 27.554 56.91 27.344 56.924C27.344 57.022 27.344 57.092 27.344 57.162C27.344 57.218 27.288 57.652 27.176 58.478C28.66 58.226 29.472 58.1 29.626 58.128C29.766 58.156 29.892 58.198 29.976 58.24C30.06 58.282 30.116 58.324 30.13 58.352C30.158 58.38 30.172 58.408 30.186 58.422C30.186 58.45 30.2 58.492 30.214 58.548C30.228 58.604 30.242 58.786 30.27 59.066C30.284 59.346 30.298 59.794 30.326 60.396C30.34 60.998 30.34 61.53 30.34 61.992C30.34 62.454 30.312 62.832 30.256 63.14C30.214 63.448 30.186 63.616 30.2 63.644C30.214 63.672 30.228 63.714 30.228 63.77C30.242 63.826 30.228 63.868 30.214 63.91C30.2 63.966 30.172 63.994 30.116 64.022C30.074 64.05 30.018 64.064 29.948 64.05C29.892 64.05 29.836 64.036 29.794 64.022C29.752 64.008 29.612 63.952 29.388 63.854C29.15 63.756 28.982 63.686 28.87 63.616C28.744 63.546 28.646 63.476 28.562 63.406C28.478 63.322 28.422 63.28 28.394 63.252C28.366 63.224 28.352 63.21 28.366 63.196C28.38 63.168 28.422 63.168 28.464 63.168C28.52 63.168 28.618 63.168 28.758 63.196C28.912 63.21 29.094 63.252 29.318 63.308C29.542 63.378 29.682 63.224 29.724 62.86C29.78 62.482 29.794 61.908 29.766 61.096C29.738 60.298 29.724 59.766 29.71 59.514C29.682 59.262 29.668 59.024 29.668 58.828C29.514 58.856 29.136 58.898 28.534 58.954C27.918 59.01 27.554 59.052 27.428 59.094C27.302 59.136 27.19 59.164 27.064 59.178C26.994 59.458 26.91 59.752 26.84 60.06C26.924 60.06 27.008 60.074 27.092 60.102C27.176 60.13 27.26 60.172 27.372 60.214C27.47 60.27 27.666 60.396 27.974 60.606C28.282 60.816 28.506 60.97 28.632 61.068C28.772 61.166 28.884 61.264 28.982 61.334C29.066 61.418 29.164 61.516 29.234 61.656C29.318 61.782 29.374 61.866 29.388 61.908C29.402 61.936 29.402 61.978 29.374 62.034C29.36 62.076 29.332 62.104 29.304 62.118C29.276 62.132 29.234 62.132 29.192 62.132C29.136 62.132 29.066 62.104 28.982 62.076C28.912 62.048 28.576 61.838 28.002 61.432C27.428 61.04 26.994 60.718 26.7 60.466C26.602 60.704 26.504 60.956 26.392 61.208C26.28 61.46 26.168 61.656 26.056 61.81C25.944 61.95 25.818 62.076 25.692 62.174C25.566 62.286 25.454 62.37 25.356 62.412C25.272 62.454 25.202 62.482 25.16 62.496C25.118 62.51 25.09 62.496 25.076 62.468C25.048 62.454 25.034 62.412 25.02 62.356C25.006 62.3 25.02 62.244 25.034 62.202C25.062 62.146 25.16 62.006 25.342 61.768C25.51 61.53 25.65 61.278 25.762 61.026C25.86 60.76 25.972 60.508 26.084 60.242C26.196 59.976 26.294 59.654 26.406 59.29C25.314 59.5 24.726 59.612 24.656 59.626C24.6 59.654 24.516 59.668 24.404 59.668C24.376 59.962 24.362 60.312 24.362 60.69C24.362 61.068 24.348 61.446 24.334 61.81C24.32 62.174 24.348 62.524 24.39 62.874C24.432 63.224 24.446 63.434 24.446 63.518C24.432 63.602 24.418 63.672 24.39 63.714C24.362 63.756 24.334 63.784 24.306 63.812C24.292 63.826 24.25 63.826 24.194 63.826C24.124 63.812 24.096 63.77 24.082 63.7C24.082 63.63 24.04 63.518 23.97 63.35C23.914 63.182 23.858 63.014 23.83 62.86C23.788 62.692 23.76 62.51 23.76 62.314C23.746 62.104 23.76 61.67 23.788 61.026C23.83 60.368 23.844 59.934 23.844 59.724C23.844 59.5 23.844 59.346 23.844 59.262C23.844 59.178 23.844 59.094 23.872 59.024C23.886 58.954 23.914 58.912 23.942 58.912C23.97 58.898 24.138 58.968 24.432 59.122C24.74 58.982 25.426 58.8 26.504 58.576C26.532 58.478 26.574 58.226 26.63 57.82C26.686 57.414 26.714 57.148 26.714 57.036C25.398 57.33 24.712 57.47 24.656 57.456C24.6 57.456 24.516 57.428 24.404 57.386ZM22.612 55.412C22.752 55.286 22.752 55.146 22.612 55.02C22.458 54.88 22.43 54.768 22.528 54.698C23.494 54.656 24.768 54.516 26.336 54.292C26.476 54.068 26.518 53.69 26.448 53.158C26.168 52.696 26.028 52.29 26.014 51.926C26.112 51.842 26.238 51.884 26.364 52.038C27.05 52.836 27.218 53.578 26.854 54.25C27.792 54.138 28.744 54.054 29.71 53.998C29.934 54.11 30.06 54.208 30.088 54.292C30.116 54.39 30.074 54.46 29.976 54.544C29.08 54.614 28.142 54.698 27.176 54.796C26.224 54.88 24.992 55.062 23.508 55.314L23.144 55.328C23.942 58.058 23.27 60.97 21.1 64.064C20.89 64.12 20.736 64.078 20.638 63.924C20.54 63.784 20.694 63.42 21.1 62.86C21.506 62.286 21.758 61.824 21.87 61.474C22.906 59.514 23.144 57.498 22.612 55.412ZM20.722 57.54C20.526 57.596 20.386 57.54 20.274 57.344C20.162 57.162 20.106 57.022 20.12 56.952C20.12 56.868 20.148 56.812 20.19 56.756C20.456 56.784 20.764 56.868 21.086 56.98C21.422 57.106 21.618 57.176 21.688 57.218C21.758 57.26 21.898 57.33 22.136 57.456C22.318 57.722 22.262 57.918 21.982 58.044C21.786 57.848 21.366 57.68 20.722 57.54ZM19.854 61.012C20.232 60.48 20.96 59.934 22.038 59.36C22.22 59.402 22.248 59.556 22.122 59.822C21.912 60.018 21.604 60.284 21.198 60.634C20.792 60.984 20.54 61.292 20.456 61.544C20.176 61.6 19.994 61.572 19.924 61.474C19.868 61.362 19.84 61.208 19.854 61.012ZM43.2131 54.67C43.5631 54.67 43.7731 54.726 43.8571 54.838C43.9411 54.95 43.9691 55.062 43.9271 55.174C43.8991 55.3 43.8291 55.58 43.7451 56.042C43.6471 56.49 43.5491 56.896 43.4651 57.218C43.3811 57.554 43.2411 57.82 43.0311 58.002C43.3111 58.254 43.4231 58.45 43.3811 58.562C43.3251 58.674 43.2131 58.758 43.0311 58.8C42.8351 58.842 42.7231 58.842 42.6671 58.772C42.6251 58.716 42.5271 58.674 42.3871 58.674C42.2611 58.674 42.1211 58.688 41.9671 58.716L41.1971 58.814L41.0571 59.234C41.3231 59.388 41.8411 59.738 42.5971 60.312C43.3531 60.886 43.8851 61.264 44.2071 61.46C44.5291 61.656 44.7531 61.782 44.8651 61.852C44.9911 61.922 45.0611 61.978 45.1171 62.034C45.1591 62.09 45.1871 62.16 45.1871 62.258C45.1871 62.356 45.1871 62.426 45.1591 62.468C45.1451 62.51 45.1031 62.538 45.0471 62.552C44.9911 62.566 44.9071 62.58 44.7951 62.58C44.6831 62.58 44.5151 62.51 44.2911 62.398C44.0671 62.286 43.8151 62.118 43.5631 61.908C43.2971 61.698 42.8911 61.376 42.3171 60.956C41.7431 60.536 41.3231 60.228 41.0571 60.06C41.0291 60.522 41.0151 61.138 41.0011 61.88C40.9731 62.636 40.9871 63.182 41.0151 63.532C41.0431 63.868 40.9311 64.05 40.7071 64.078C40.4691 64.092 40.3571 64.022 40.3431 63.868C40.3291 63.714 40.3291 63.532 40.3431 63.336C40.3571 63.154 40.3571 62.846 40.3571 62.426C40.3571 62.006 40.3991 61.138 40.4831 59.808C40.1471 60.298 39.7551 60.788 39.2931 61.292C38.8311 61.81 38.5231 62.146 38.3551 62.314C38.2011 62.482 38.0611 62.594 37.9631 62.678C37.8651 62.748 37.7531 62.804 37.6271 62.832C37.4871 62.874 37.3751 62.902 37.2631 62.902C37.1511 62.916 37.0531 62.916 36.9971 62.902C36.9271 62.888 36.8991 62.888 36.9131 62.888C36.9131 62.902 36.9271 62.902 36.9271 62.902C36.9271 62.888 36.9551 62.86 36.9971 62.79C37.0531 62.72 37.1791 62.594 37.3751 62.398C37.5851 62.202 38.0051 61.768 38.6211 61.096C39.2511 60.438 39.7411 59.738 40.0911 59.01C39.5731 59.304 39.2651 59.472 39.1951 59.5C39.1251 59.542 39.0411 59.584 38.9711 59.598C38.9011 59.626 38.7891 59.57 38.6351 59.43C38.4951 59.29 38.3831 58.94 38.2991 58.38C38.2011 57.708 38.0891 57.078 38.0051 56.476C37.8651 56.056 37.7671 55.79 37.6971 55.692C37.6271 55.58 37.6411 55.468 37.7391 55.37C37.8371 55.258 37.9351 55.216 38.0191 55.23C38.1171 55.244 38.2711 55.384 38.4811 55.664C38.7611 55.608 39.4191 55.468 40.4691 55.202C40.4691 54.782 40.4691 54.404 40.4551 54.054C39.7271 54.208 39.2371 54.306 38.9991 54.362C38.7471 54.418 38.5231 54.46 38.2991 54.502C38.0891 54.53 37.9211 54.516 37.8091 54.446C37.2771 54.572 36.7731 54.712 36.2971 54.824L36.2131 56.602C37.0811 57.946 37.5571 58.716 37.6551 58.884C37.6691 58.996 37.5851 59.094 37.3611 59.178C37.1651 59.304 36.7311 58.8 36.0451 57.68L36.0171 63.672C36.0451 63.826 35.8771 63.882 35.5271 63.854C35.3451 63.49 35.2611 63.042 35.2751 62.51C35.2751 61.978 35.3031 61.376 35.3591 60.704C35.4151 60.046 35.4011 59.094 35.3451 57.876C34.5331 59.64 33.7211 60.816 32.9371 61.39C32.6851 61.18 32.7131 60.886 33.0071 60.494C33.3011 60.088 34.0011 58.94 35.1211 57.036L35.4711 55.972L35.4991 55.174C34.6591 55.37 34.0991 55.482 33.8331 55.524C33.5531 55.566 33.3851 55.51 33.3011 55.37C33.2311 55.23 33.2031 55.104 33.2451 55.02C33.2871 54.936 34.0571 54.698 35.5691 54.32C35.6111 53.984 35.6251 53.592 35.5831 53.13C35.5411 52.682 35.5551 52.36 35.6251 52.178C35.6951 51.996 35.7511 51.912 35.8211 51.926C36.2271 51.94 36.3811 52.668 36.2971 54.096C37.0391 53.844 37.4731 53.746 37.6271 53.788C37.7811 53.83 37.9071 53.886 38.0191 53.956C38.1311 53.9 38.2431 53.858 38.3551 53.83C38.9291 53.676 39.6291 53.564 40.4551 53.452C40.4551 52.892 40.4551 52.486 40.4551 52.248C40.4551 52.01 40.4971 51.87 40.5811 51.814C40.6651 51.744 40.7631 51.744 40.8891 51.814C41.0011 51.87 41.0571 52.374 41.0571 53.326C42.8071 52.976 43.7311 52.906 43.8151 53.13C43.9131 53.354 43.6051 53.508 42.9051 53.634C42.2051 53.746 41.6031 53.858 41.1131 53.956V55.006C41.3651 54.908 41.6171 54.852 41.8551 54.838C42.0931 54.838 42.5411 54.782 43.2131 54.67ZM42.7791 55.468C42.3451 55.538 42.0231 55.608 41.8131 55.65C41.6031 55.706 41.3511 55.762 41.0851 55.818V56.7C41.4911 56.602 41.7851 56.546 41.9671 56.532C42.1351 56.518 42.2611 56.546 42.3171 56.588C42.3871 56.616 42.4151 56.686 42.3871 56.798C42.3591 56.896 42.2891 56.98 42.1491 57.064C42.0091 57.134 41.6451 57.246 41.0571 57.386L41.0711 58.268L42.6111 57.918C42.8771 56.994 43.0591 56.182 43.1571 55.482L42.7791 55.468ZM38.5931 56.336L38.7611 57.204C39.4471 57.12 39.9931 56.98 40.4131 56.798L40.4551 55.902L38.5931 56.336ZM38.8451 57.974L39.0831 58.884C39.6011 58.758 40.0491 58.604 40.4271 58.436L40.4691 57.54C39.9511 57.666 39.4191 57.82 38.8451 57.974ZM55.4282 60.956C55.7362 61.068 55.8762 61.292 55.8202 61.6C54.7842 62.118 53.8742 62.496 53.1182 62.706C52.3622 62.916 51.7462 62.958 51.2702 62.832C50.7802 62.706 50.4722 62.538 50.3182 62.314C50.1782 62.104 50.1362 61.852 50.1782 61.572C50.6262 60.186 51.3682 59.01 52.4182 58.044C52.3202 57.792 52.0962 57.68 51.7742 57.708C51.4522 57.736 51.0602 57.918 50.6122 58.254C50.1502 58.576 49.7442 58.926 49.3662 59.262C49.0582 59.304 48.9182 59.15 48.9602 58.8C49.4222 57.484 49.9962 56.168 50.6542 54.866C50.2342 54.936 49.9122 55.02 49.6742 55.132C49.4362 55.258 49.2542 55.3 49.1002 55.258C48.9602 55.216 48.7922 55.076 48.5822 54.852C48.5542 54.684 48.7222 54.558 49.0862 54.474C49.4502 54.39 50.1502 54.25 51.1862 54.068L51.5502 53.242C51.6062 53.032 51.6762 52.962 51.7742 53.032C51.8582 53.088 51.9282 53.144 51.9842 53.214C52.0402 53.27 52.0682 53.48 52.0682 53.816C52.4602 53.802 52.8802 53.76 53.3282 53.662C53.7762 53.564 54.0982 53.592 54.2802 53.732C54.4762 53.872 54.5602 53.998 54.5322 54.096C54.4902 54.194 54.2382 54.25 53.7342 54.264C53.2442 54.292 52.5722 54.404 51.7322 54.6C51.1162 55.468 50.6122 56.462 50.2202 57.582C50.5842 57.414 50.9202 57.274 51.2282 57.162C51.5362 57.036 51.7882 56.994 51.9982 57.008C52.2082 57.022 52.4742 57.218 52.8102 57.596C53.3702 57.204 53.8182 56.882 54.1402 56.63C54.4622 56.392 54.7562 56.336 54.9942 56.476C55.2322 56.616 55.3162 56.784 55.2322 56.98C55.1342 57.022 54.9102 57.12 54.5742 57.26C54.2522 57.414 53.7622 57.778 53.1322 58.338C53.0342 59.136 52.9782 59.962 52.9782 60.802C52.8242 60.928 52.6702 60.928 52.5022 60.802C52.3902 60.382 52.3342 59.864 52.3342 59.234C51.6062 59.99 51.1722 60.592 51.0322 61.068C50.8782 61.53 50.8642 61.866 50.9902 62.062C51.1022 62.244 51.5502 62.286 52.2922 62.188C53.0482 62.076 54.0842 61.67 55.4282 60.956ZM61.7773 51.674C61.9313 51.716 62.0433 51.856 62.1413 52.108C62.2393 52.36 62.2953 52.598 62.3233 52.794C62.3513 53.004 62.3933 53.228 62.4353 53.438C63.2613 53.298 63.8493 53.186 64.1853 53.116C64.5213 53.06 64.7313 53.032 64.8153 53.06C64.9133 53.074 64.9693 53.172 64.9973 53.326C65.0253 53.48 64.9553 53.578 64.7873 53.634C64.6333 53.676 64.4793 53.718 64.3113 53.746C64.1573 53.788 63.8773 53.83 63.4853 53.9C63.0793 53.956 62.3933 54.096 61.4133 54.292C60.4193 54.488 59.8873 54.586 59.7893 54.558C59.6913 54.544 59.6353 54.516 59.6213 54.46C59.5513 54.18 59.7053 54.012 60.0833 53.942C60.4613 53.872 61.0773 53.76 61.9033 53.578L61.6373 52.388C61.5113 52.08 61.5533 51.842 61.7773 51.674ZM60.6573 55.02C60.7133 55.048 60.7553 55.132 60.7833 55.258C60.8113 55.384 60.8253 55.482 60.8253 55.58C60.8393 55.678 60.8113 55.916 60.7413 56.28C60.6853 56.644 60.6573 56.952 60.6713 57.176C60.6853 57.4 60.6433 57.638 60.5733 57.89C60.8393 57.82 61.0353 57.75 61.1753 57.708C61.3153 57.652 62.0573 57.484 63.3873 57.19L62.3933 56.532L61.9173 56.924C61.6933 57.022 61.6093 56.98 61.6373 56.798L62.0153 55.958C61.8193 55.762 61.6933 55.636 61.6373 55.552C61.5813 55.482 61.5393 55.412 61.5393 55.342C61.5253 55.286 61.5393 55.244 61.5953 55.244L62.3233 55.44L62.7013 54.782C62.9393 54.726 63.0513 54.768 63.0373 54.936C63.0933 55.174 63.0653 55.412 62.9253 55.65L62.8133 55.916C63.0373 56.126 63.2893 56.364 63.5553 56.63C63.7093 56.77 63.8493 56.924 63.9613 57.078C64.0453 57.022 64.1573 56.98 64.2833 56.938C64.2553 56.728 64.2273 56.49 64.1993 56.252C64.1713 56 64.1573 55.72 64.1713 55.412C64.1853 55.104 64.1993 54.908 64.2133 54.824C64.2273 54.726 64.2553 54.656 64.2973 54.6C64.3253 54.544 64.4093 54.502 64.5073 54.474C64.6333 54.474 64.7033 54.516 64.7453 54.572C64.7733 54.642 64.7873 54.74 64.7873 54.852C64.7873 54.964 64.7873 55.216 64.8013 55.594C64.8153 55.972 64.8433 56.448 64.8993 57.008C65.1653 56.56 65.4313 56.07 65.7253 55.51C66.0053 54.95 66.2293 54.446 66.3833 53.984C66.5373 53.522 66.7333 52.892 66.9433 52.094C66.9853 51.968 67.1113 51.94 67.2933 51.982C67.4753 52.024 67.5873 52.164 67.6293 52.402C67.6153 52.584 67.5453 52.85 67.4193 53.2C67.2933 53.55 67.1393 53.928 66.9573 54.32C66.7613 54.712 66.5933 55.076 66.4253 55.398L66.8033 55.342C67.4753 55.076 68.2453 54.81 69.1273 54.53C68.7073 54.292 68.5113 54.026 68.5393 53.718C68.5533 53.41 68.5393 53.172 68.5113 53.004C68.4693 52.836 68.4413 52.682 68.4133 52.542C68.3993 52.416 68.4133 52.318 68.4833 52.262C68.5953 52.234 68.7353 52.304 68.8893 52.5C69.0433 52.696 69.1273 52.85 69.1413 52.976C69.1553 53.088 69.1553 53.256 69.1413 53.452C69.1413 53.648 69.1273 53.998 69.1273 54.53C69.8413 54.348 70.2613 54.236 70.3873 54.222C70.5273 54.208 70.6813 54.208 70.8353 54.25C70.9893 54.292 71.1013 54.334 71.1433 54.404C71.1853 54.474 71.1993 54.586 71.1713 54.726C71.1573 54.866 70.9893 54.964 70.6953 55.048C70.4433 54.978 70.0093 55.062 69.3793 55.286C69.3093 55.888 69.2813 56.588 69.3093 57.428C70.0653 57.26 70.5273 57.176 70.6813 57.162C70.8353 57.162 70.9333 57.246 70.9753 57.456C70.9193 57.694 70.7793 57.862 70.5413 57.974C70.0793 58.058 69.6873 58.156 69.3513 58.268C69.2953 58.66 69.2673 59.164 69.2953 59.78L70.3453 59.528C70.5553 59.514 70.6813 59.584 70.7093 59.766C70.7513 59.948 70.7093 60.06 70.5973 60.13C70.4993 60.186 70.0653 60.34 69.2953 60.578C69.2533 60.9 69.2393 61.208 69.2393 61.488C69.2533 61.782 69.2533 62.118 69.2393 62.496C69.8973 62.384 70.3313 62.314 70.5413 62.3C70.7373 62.286 70.9613 62.272 71.1993 62.258C71.4513 62.244 71.6333 62.272 71.7593 62.328C71.8853 62.398 71.9413 62.496 71.9133 62.622C71.8993 62.762 71.8153 62.832 71.6753 62.86C71.5353 62.874 71.2693 62.902 70.8773 62.944C70.4993 62.986 69.2253 63.182 67.0553 63.56C66.8733 63.728 66.6773 63.77 66.4673 63.7C66.2433 63.63 66.0893 63.504 65.9913 63.35C65.8933 63.196 65.8653 62.272 65.9213 60.606C65.9913 58.94 66.0333 57.834 66.0473 57.288C66.0753 56.756 66.1033 56.364 66.1453 56.126C65.8793 56.392 65.6553 56.658 65.5013 56.91C65.2633 57.204 65.0813 57.372 64.9413 57.428C64.9413 57.652 64.9413 57.764 64.8993 57.778C64.8713 57.792 64.8293 57.806 64.7733 57.82C64.7313 57.834 64.6753 57.82 64.6333 57.806C64.5773 57.792 64.5493 57.764 64.5213 57.75C64.5073 57.75 64.4653 57.666 64.4233 57.526C63.9893 57.652 63.6533 57.736 63.4153 57.778C63.1773 57.834 62.9253 57.904 62.6733 57.988C62.7013 58.114 62.7013 58.212 62.6593 58.296C62.6173 58.366 62.5893 58.45 62.5753 58.548C62.5613 58.646 62.5193 58.856 62.4493 59.206C62.8413 59.136 63.2473 59.08 63.6813 59.038C64.1153 58.996 64.3673 58.982 64.4373 58.982C64.5073 58.982 64.5913 58.996 64.7033 59.038C64.8013 59.08 64.8713 59.206 64.9133 59.416C64.9413 59.612 64.9833 59.794 65.0253 59.948C65.0533 60.088 65.0813 60.242 65.1093 60.382C65.1373 60.522 65.1513 60.69 65.1653 60.9C65.1793 61.096 65.1793 61.334 65.1793 61.614C65.1793 61.908 65.1653 62.202 65.1093 62.524C65.0673 62.846 64.9973 63.168 64.8993 63.49C64.8013 63.812 64.7313 64.008 64.6753 64.064C64.6053 64.134 64.5493 64.176 64.4793 64.19C64.4233 64.218 64.3673 64.218 64.2973 64.176C64.2413 64.148 64.1993 64.12 64.1573 64.106C64.1153 64.092 64.1013 64.064 64.0873 64.05C64.0733 64.022 64.0733 63.994 64.0873 63.966C64.0873 63.938 64.1293 63.854 64.1993 63.686C64.2693 63.518 64.3393 63.21 64.4233 62.762C64.4933 62.314 64.5353 61.95 64.5353 61.642C64.5353 61.348 64.5353 60.998 64.5073 60.606C64.4793 60.2 64.4373 59.85 64.3813 59.556C64.1153 59.612 63.8213 59.668 63.4573 59.71C63.1073 59.766 62.7153 59.808 62.2953 59.864C62.2393 60.144 62.1833 60.382 62.1273 60.578C62.0853 60.774 62.0433 60.942 62.0153 61.04C61.9733 61.152 61.9173 61.32 61.8193 61.53C62.3933 61.376 62.8133 61.278 63.0793 61.222C63.0373 61.068 63.0093 60.956 63.0233 60.872C63.0373 60.788 63.0513 60.704 63.0653 60.648C63.0933 60.578 63.1213 60.522 63.1773 60.466C63.2053 60.466 63.2333 60.466 63.2473 60.48C63.2613 60.508 63.2893 60.536 63.3173 60.564C63.3593 60.606 63.4433 60.718 63.5693 60.914C63.6813 61.096 63.7793 61.264 63.8633 61.418C63.9473 61.558 63.9893 61.684 64.0173 61.796C64.0313 61.908 64.0453 61.992 64.0313 62.076C64.0313 62.146 64.0173 62.188 64.0173 62.202C64.0033 62.216 63.9893 62.216 63.9473 62.216C63.9193 62.216 63.8773 62.188 63.8213 62.132C63.7653 62.09 63.6953 62.034 63.6113 61.978C63.5413 61.908 63.4013 61.768 63.2193 61.544C62.9953 61.698 62.7153 61.852 62.3513 62.02C62.0013 62.174 61.7773 62.272 61.6793 62.3C61.5953 62.328 61.4973 62.342 61.4133 62.356C61.3293 62.356 61.2453 62.342 61.1893 62.328C61.1193 62.314 61.0633 62.272 61.0213 62.202C60.9793 62.146 60.9653 62.02 60.9653 61.852C60.9653 61.768 60.9653 61.698 60.9933 61.628C61.0213 61.572 61.0773 61.446 61.2033 61.25C61.3153 61.054 61.3853 60.886 61.4273 60.76C61.4553 60.634 61.5393 60.382 61.6373 60.032C61.3853 60.074 61.1893 60.102 61.0633 60.13C60.9373 60.158 60.7693 60.2 60.5313 60.284C60.5313 60.536 60.5173 60.886 60.4893 61.348C60.4753 61.81 60.4613 62.356 60.4613 62.986C60.4613 63.616 60.4333 63.938 60.3773 63.952C60.3213 63.966 60.2793 63.966 60.2513 63.98C60.2093 63.98 60.1673 63.966 60.1253 63.952C60.0833 63.924 60.0413 63.882 59.9993 63.84C59.9573 63.784 59.9153 63.56 59.8593 63.154C59.8173 62.762 59.8033 62.356 59.8173 61.95C59.8453 61.544 59.8733 61.166 59.9013 60.816C59.9433 60.452 59.9713 60.242 59.9853 60.144C59.9993 60.06 60.0413 59.99 60.1113 59.948C60.2233 59.808 60.3213 59.724 60.4053 59.668C60.4893 59.612 60.6013 59.556 60.7413 59.5C60.8813 59.458 61.2173 59.402 61.7633 59.318C61.8333 59.038 61.9033 58.646 61.9873 58.156C61.7073 58.212 61.4553 58.254 61.2313 58.324C61.0073 58.38 60.8533 58.422 60.7553 58.45C60.6713 58.492 60.5873 58.506 60.5313 58.492C60.4753 58.492 60.3913 58.478 60.3073 58.45C60.2093 58.422 60.1533 58.352 60.1253 58.226C60.1113 58.114 60.0973 57.918 60.0833 57.652C60.0833 57.372 60.0833 57.106 60.0973 56.854C60.1113 56.588 60.1533 56.224 60.2233 55.748C60.2793 55.286 60.3353 55.048 60.3773 55.02C60.4053 54.992 60.5033 54.992 60.6573 55.02ZM68.7073 55.51C67.9373 55.692 67.2653 55.944 66.7193 56.294C66.6773 56.952 66.6353 57.596 66.6073 58.212C67.3913 58.016 68.0773 57.806 68.6513 57.582C68.7073 56.784 68.7353 56.098 68.7073 55.51ZM67.8253 58.59C67.5733 58.646 67.1673 58.814 66.6213 59.094C66.5793 59.626 66.5373 60.732 66.4673 62.384C66.5513 62.734 66.7473 62.93 67.0693 62.944L68.5113 62.664C68.5813 61.796 68.5953 61.152 68.5533 60.732C67.9373 60.816 67.5453 60.872 67.4053 60.886C67.2793 60.9 67.1953 60.844 67.1673 60.704C67.1393 60.578 67.1953 60.466 67.3493 60.368C67.4893 60.256 67.9093 60.102 68.6093 59.864V58.422L67.8253 58.59ZM76.5124 62.86C76.3584 62.916 76.2324 62.944 76.1484 62.944C76.0644 62.944 75.9944 62.888 75.9384 62.776C75.8824 62.678 75.8684 62.51 75.8684 62.286C75.8684 62.062 75.8684 61.866 75.8684 61.698C75.3224 62.118 74.9304 62.286 74.6644 62.174C74.4124 62.076 74.2444 61.782 74.1464 61.306C74.0484 60.816 73.9504 60.214 73.8384 59.472C73.7264 58.73 73.6424 57.834 73.5864 56.784C73.9364 56.7 74.1604 56.84 74.2444 57.19C74.3844 58.59 74.5944 60.018 74.8744 61.488C75.2244 60.984 75.5464 60.536 75.8404 60.102C76.0084 57.792 76.0504 55.496 75.9804 53.242C76.1204 53.088 76.2744 53.074 76.4424 53.172C76.6244 53.27 76.7224 53.438 76.7644 53.662L76.7504 54.67C76.7364 56.056 76.6944 57.498 76.6384 59.038C77.4504 57.526 78.6124 56.294 80.1104 55.342C80.2924 55.314 80.4044 55.328 80.4884 55.398C80.5724 55.454 80.6284 55.58 80.6844 55.748C80.4604 57.456 80.5304 59.052 80.9084 60.536C81.1184 60.956 81.3284 61.194 81.5384 61.25C81.7484 61.32 81.9584 61.334 82.1684 61.306C82.3644 61.278 82.5184 61.208 82.6304 61.082C82.7424 60.956 82.8684 60.942 82.9944 61.04C83.1204 61.152 83.2044 61.236 83.2464 61.32C83.2744 61.418 83.2884 61.488 83.2604 61.572C83.2324 61.642 82.9804 61.754 82.5044 61.894C82.0144 62.034 81.5664 62.006 81.1464 61.81C80.6144 61.628 80.2504 60.928 80.0824 59.71C79.9004 58.478 79.8724 57.4 79.9844 56.462C78.7104 57.33 77.7584 58.366 77.1284 59.556C76.6944 59.934 76.4844 60.396 76.4984 60.956C76.5264 61.502 76.5264 62.146 76.5124 62.86ZM88.3496 56.364C88.2516 56.42 88.1256 56.406 87.9716 56.336C87.8176 56.28 87.7056 56.182 87.6496 56.056C87.5936 55.944 87.5796 55.832 87.6356 55.748C87.7336 55.622 87.8596 55.566 88.0416 55.58C88.2096 55.608 88.3916 55.594 88.6156 55.552C90.8556 54.936 93.0116 54.208 95.0836 53.368C95.3356 53.368 95.4756 53.452 95.5036 53.62C95.5316 53.788 95.5036 53.942 95.4056 54.054C95.3076 54.166 95.2096 54.25 95.1116 54.306C93.7676 55.398 92.8576 56.63 92.3816 57.988C91.8916 59.346 91.7936 60.27 92.0596 60.76C92.3396 61.25 92.5076 61.558 92.5916 61.67C92.6756 61.796 92.7876 61.824 92.9276 61.768C93.0536 61.698 93.1936 61.698 93.3196 61.768C93.4456 61.824 93.4036 62.062 93.1796 62.482C92.8436 62.538 92.4096 62.342 91.8776 61.852C91.3596 61.376 91.1916 60.382 91.4016 58.87C91.5556 57.918 91.8356 57.162 92.2416 56.574C92.6616 55.986 92.9696 55.608 93.1516 55.44C93.3476 55.286 93.4456 55.076 93.4456 54.796C91.6676 55.272 89.9736 55.79 88.3496 56.364ZM101.895 60.424C101.867 58.002 102.035 55.622 102.399 53.284C102.511 53.088 102.651 53.018 102.847 53.088C103.043 53.158 103.127 53.34 103.127 53.648C102.763 56.042 102.609 58.45 102.679 60.914C102.749 61.348 102.889 61.642 103.099 61.796C103.309 61.936 103.575 62.048 103.897 62.118C104.219 62.188 104.667 62.006 105.255 61.572C105.843 61.138 106.473 60.774 107.145 60.466C107.299 60.592 107.369 60.732 107.355 60.914C107.341 61.082 107.257 61.236 107.089 61.39C106.459 61.614 105.871 61.936 105.339 62.37C104.793 62.79 104.205 62.916 103.547 62.748C103.001 62.594 102.609 62.342 102.371 62.02C102.133 61.684 101.979 61.152 101.895 60.424ZM121.936 55.804C122.188 55.888 122.37 56.014 122.482 56.196C122.594 56.364 122.538 56.504 122.342 56.616C121.558 56.546 120.928 56.546 120.452 56.644C120.508 57.512 120.466 58.38 120.368 59.234C120.984 59.57 121.488 59.906 121.866 60.27C122.258 60.634 122.58 61.082 122.818 61.6C122.706 61.796 122.552 61.796 122.384 61.586C121.824 60.928 121.166 60.438 120.382 60.116C120.144 60.662 119.934 61.194 119.752 61.726C119.57 62.258 119.374 62.594 119.164 62.734C118.94 62.888 118.688 62.958 118.38 62.972C118.086 62.986 117.764 62.832 117.386 62.538C117.022 62.23 116.896 61.726 117.008 60.998C117.162 60.284 117.54 59.738 118.142 59.36C118.548 59.164 119.08 59.094 119.752 59.164C119.822 58.38 119.85 57.54 119.822 56.644L119.136 56.686C118.436 56.672 117.764 56.714 117.148 56.812C116.966 56.728 116.812 56.63 116.686 56.532C116.56 56.42 116.546 56.294 116.672 56.168C117.596 56.014 118.632 55.93 119.78 55.916C119.696 55.076 119.57 54.264 119.374 53.48C119.528 53.382 119.682 53.41 119.836 53.55C120.004 53.704 120.116 53.9 120.186 54.138C120.298 54.712 120.368 55.328 120.41 56C120.872 55.86 121.376 55.79 121.936 55.804ZM118.604 62.328C119.164 61.726 119.472 60.914 119.528 59.892C118.912 59.794 118.464 59.934 118.184 60.298C117.764 60.816 117.624 61.432 117.75 62.132C118.016 62.426 118.296 62.482 118.604 62.328ZM114.516 54.18C114.852 54.278 115.02 54.53 115.02 54.908C114.558 57.4 114.376 59.36 114.502 60.76C114.628 62.16 114.614 62.874 114.46 62.902C114.306 62.916 114.18 62.888 114.068 62.818C113.97 62.734 113.914 62.58 113.886 62.328C113.732 59.878 113.83 57.302 114.208 54.6C114.194 54.32 114.306 54.18 114.516 54.18ZM123.112 51.604C123.168 51.814 123.322 52.052 123.56 52.318C123.812 52.598 123.966 52.766 124.05 52.822C124.12 52.892 124.148 52.962 124.106 53.032C124.078 53.102 124.008 53.172 123.91 53.242C123.798 53.298 123.602 53.214 123.294 52.99C122.986 52.752 122.706 52.29 122.44 51.59C122.482 51.478 122.566 51.436 122.72 51.45C122.874 51.464 123 51.52 123.112 51.604ZM121.138 53.116C121.166 53.018 121.194 52.948 121.25 52.906C121.306 52.878 121.39 52.878 121.516 52.92C121.796 52.99 122.09 53.214 122.398 53.592C122.692 53.97 122.972 54.25 123.224 54.446C123.224 54.6 123.196 54.698 123.14 54.74C123.07 54.782 122.916 54.754 122.65 54.656C121.978 54.04 121.474 53.522 121.138 53.116ZM130.623 55.104C130.777 55.006 130.917 54.936 131.071 54.894C131.225 54.852 131.393 54.726 131.603 54.53C130.973 54.124 130.259 53.746 129.461 53.368C129.391 53.27 129.391 53.13 129.461 52.976C129.573 52.92 129.783 52.962 130.077 53.116C131.253 53.578 131.967 53.998 132.219 54.362C132.471 54.726 132.513 54.964 132.331 55.104C132.149 55.23 131.729 55.37 131.099 55.552C130.903 55.524 130.763 55.468 130.693 55.412C130.609 55.342 130.595 55.23 130.623 55.104ZM133.787 58.086C134.277 58.59 134.473 59.108 134.375 59.626C134.263 60.158 133.927 60.718 133.367 61.32C132.793 61.922 132.205 62.496 131.603 63.056C131.183 63.042 131.015 62.944 131.071 62.748C131.463 62.356 132.009 61.768 132.709 60.984C133.395 60.2 133.703 59.612 133.619 59.206C133.535 58.814 133.171 58.618 132.499 58.618C131.827 58.632 130.987 58.954 129.979 59.584C128.957 60.228 128.355 60.648 128.159 60.886C127.949 61.11 127.767 61.208 127.585 61.18C127.403 61.152 127.291 61.026 127.249 60.816C127.459 58.94 127.823 57.106 128.327 55.328C128.453 55.23 128.593 55.202 128.719 55.258C128.859 55.314 128.915 55.426 128.915 55.58C128.915 55.748 128.873 55.944 128.803 56.21C128.719 56.462 128.607 56.868 128.481 57.428C128.341 57.974 128.257 58.73 128.215 59.682C129.223 58.996 130.315 58.464 131.491 58.086C132.149 57.806 132.919 57.806 133.787 58.086ZM143.16 60.27L140.99 58.478C140.934 58.352 140.962 58.254 141.088 58.184C141.214 58.1 141.354 58.086 141.508 58.128C143.132 56.868 144.364 55.314 145.218 53.452C145.302 53.368 145.428 53.326 145.582 53.326C145.736 53.326 145.806 53.494 145.792 53.844C145.456 54.572 145.022 55.328 144.462 56.112C143.748 57.036 142.964 57.848 142.11 58.59C143.23 59.556 144.532 60.564 146.03 61.6C146.24 61.488 146.394 61.516 146.492 61.684C146.59 61.866 146.646 62.034 146.66 62.188C146.674 62.356 146.632 62.468 146.534 62.51C146.436 62.566 146.268 62.524 146.016 62.398C145.75 62.258 144.812 61.544 143.16 60.27ZM25.174 80.61C25.944 80.176 26.644 79.56 27.274 78.762C26.658 78.398 26.21 78.146 25.944 78.006C25.664 77.88 25.524 77.754 25.496 77.642C25.468 77.53 25.482 77.418 25.538 77.32C25.608 77.222 25.846 77.278 26.266 77.502C26.686 77.726 27.176 77.95 27.75 78.174C28.282 77.572 28.814 76.844 29.36 75.99C28.772 76.046 28.198 76.102 27.638 76.158C27.078 76.228 26.672 76.298 26.42 76.396C26.168 76.494 25.986 76.438 25.874 76.242C25.762 76.032 25.734 75.92 25.79 75.878C25.846 75.836 25.944 75.808 26.098 75.808C26.238 75.808 26.448 75.78 26.728 75.696C27.008 75.612 27.484 75.514 28.156 75.416C28.828 75.318 29.262 75.276 29.472 75.276C29.668 75.276 29.822 75.402 29.934 75.626C30.046 75.864 30.018 76.116 29.85 76.396C29.696 76.69 29.206 77.376 28.38 78.468C29.822 79.42 31.026 80.036 31.992 80.316C32.174 80.4 32.23 80.526 32.146 80.708C32.076 80.876 31.838 80.89 31.446 80.75C31.054 80.596 29.85 80.022 27.862 79.028C27.246 79.91 26.714 80.442 26.294 80.624C25.86 80.806 25.58 80.904 25.426 80.904C25.286 80.918 25.202 80.82 25.174 80.61ZM28.464 84.614C30.004 84.46 31.208 84.544 32.09 84.88C32.272 84.936 32.384 85.048 32.412 85.216C32.44 85.398 32.398 85.496 32.272 85.524C32.146 85.552 32.034 85.552 31.95 85.524C31.866 85.51 31.768 85.468 31.656 85.412C31.544 85.37 30.816 85.328 29.5 85.286C28.184 85.244 26.546 85.44 24.6 85.888C24.502 85.93 24.404 85.874 24.306 85.706C24.208 85.538 24.222 85.412 24.334 85.356C24.46 85.286 24.656 85.216 24.936 85.146C25.216 85.076 26.112 84.908 27.638 84.642C27.764 83.928 27.806 83.284 27.75 82.738C27.12 82.78 26.658 82.836 26.35 82.892C26.042 82.948 25.902 82.85 25.902 82.598C25.916 82.346 26.056 82.192 26.322 82.164C26.602 82.122 27.106 82.066 27.848 81.982C27.904 81.408 27.876 80.974 27.75 80.68C27.624 80.386 27.638 80.218 27.806 80.176C27.974 80.148 28.1 80.19 28.212 80.316C28.324 80.456 28.408 80.652 28.464 80.904C28.534 81.17 28.548 81.492 28.534 81.898C29.052 81.884 29.57 81.87 30.06 81.842C30.536 81.814 30.788 81.898 30.774 82.108C30.774 82.304 30.578 82.43 30.172 82.472C29.78 82.5 29.192 82.612 28.422 82.794C28.408 83.34 28.422 83.956 28.464 84.614ZM24.432 82.864C24.726 83.326 24.88 83.634 24.908 83.816C24.936 83.984 24.922 84.096 24.88 84.166C24.838 84.222 24.712 84.208 24.502 84.138C24.292 84.068 24.124 83.802 23.956 83.354V82.794C23.914 82.724 23.956 82.654 24.096 82.598L24.432 82.864ZM24.656 81.94L24.25 81.492C23.438 81.898 22.822 82.22 22.388 82.472C21.954 82.71 21.548 82.864 21.156 82.948C21.002 82.864 20.876 82.794 20.778 82.738C20.694 82.682 20.666 82.486 20.68 82.164C21.044 81.506 21.548 80.736 22.206 79.868C21.632 80.092 21.184 80.12 20.876 79.938C20.638 79.518 20.596 79.126 20.736 78.734C20.876 78.342 21.114 77.95 21.408 77.544C21.716 77.152 22.164 76.354 22.766 75.15C22.864 75.094 22.976 75.108 23.088 75.192C23.2 75.262 23.256 75.388 23.27 75.57C23.284 75.766 23.074 76.172 22.64 76.816C22.234 77.474 21.758 78.3 21.184 79.294L21.674 79.224C22.43 79.014 22.962 78.776 23.242 78.482C23.69 78.538 23.872 78.664 23.774 78.846L23.382 79.266C22.892 79.784 22.262 80.764 21.506 82.192C22.332 81.8 23.116 81.422 23.858 81.058L23.9 80.456C23.928 80.372 24.04 80.358 24.264 80.4C24.432 80.68 24.642 81.002 24.852 81.352C25.076 81.716 25.02 81.912 24.656 81.94ZM21.8 86.21C21.926 86.294 21.982 86.406 21.954 86.532C21.926 86.658 21.842 86.756 21.688 86.826C21.478 86.672 21.31 86.476 21.212 86.252C21.114 86.028 20.988 85.664 20.848 85.132C20.708 84.614 20.568 83.956 20.428 83.172C20.47 83.032 20.61 82.99 20.806 83.046C21.114 83.41 21.254 83.858 21.226 84.39C21.366 84.992 21.562 85.608 21.8 86.21ZM23.368 85.398C22.766 84.782 22.388 84.096 22.206 83.34C22.318 83.2 22.43 83.144 22.528 83.158C22.626 83.186 22.724 83.27 22.794 83.396C22.878 83.536 22.948 83.69 22.99 83.872C23.116 84.348 23.326 84.768 23.634 85.16C23.592 85.398 23.508 85.482 23.368 85.398ZM38.7051 85.09C38.6491 84.656 38.7751 84.32 39.1111 84.068C39.4331 83.83 39.6851 83.536 39.8951 83.214C41.0431 81.884 41.7291 80.372 41.9671 78.678C41.9671 78.496 41.9111 78.342 41.7991 78.188C41.6871 78.048 41.5331 77.922 41.3511 77.81C39.1811 77.656 37.2211 78.286 35.4711 79.7C35.2611 79.784 35.1071 79.742 35.0091 79.574C34.8831 79.434 34.8411 79.294 34.8831 79.154C34.9251 79.014 35.0091 78.916 35.1631 78.874C37.0251 77.572 39.1251 77.04 41.4631 77.292C41.8971 77.432 42.2051 77.642 42.3591 77.95C42.8911 79.126 42.5131 80.638 41.2251 82.472C40.8891 83.032 40.5391 83.508 40.2171 83.928C39.8811 84.348 39.6151 84.684 39.4191 84.95C39.2231 85.216 39.0831 85.356 38.9851 85.356C38.8871 85.356 38.7891 85.272 38.7051 85.09ZM57.4302 77.866C57.4022 78.034 57.2062 78.16 56.8422 78.244C56.4642 78.328 55.8482 78.454 54.9662 78.636C54.9942 79.364 54.8962 80.19 54.7142 81.114C54.5042 82.528 54.2662 83.606 53.9862 84.348C53.7202 85.09 53.5382 85.524 53.4402 85.678C53.3422 85.832 53.2022 85.93 53.0482 86C52.8802 86.056 52.7682 86 52.6982 85.818C53.6362 83.55 54.1682 81.17 54.2662 78.706L51.9422 79.294C51.3682 79.168 51.2142 78.944 51.5082 78.622L54.2662 78.034C54.1402 77.614 54.0282 77.25 53.9442 76.928C53.8462 76.606 53.7622 76.298 53.7062 75.99C53.7482 75.878 53.8182 75.85 53.9302 75.892C54.0422 75.948 54.1542 76.032 54.2662 76.186C54.5602 76.648 54.7842 77.208 54.9382 77.866C55.8762 77.754 56.4642 77.656 56.7302 77.558C56.9822 77.474 57.2202 77.572 57.4302 77.866ZM48.7082 83.368C48.4282 81.156 48.4282 79.168 48.7362 77.404C48.8202 77.236 48.9322 77.208 49.0582 77.334C49.1982 77.446 49.3242 77.572 49.4222 77.712C49.0302 79.826 49.1142 82.08 49.6322 84.502C49.8562 84.39 49.9962 84.362 50.0382 84.404C50.0942 84.432 50.1222 84.544 50.1502 84.712C50.1782 84.88 50.1222 84.964 49.9822 84.978C49.8562 84.992 49.7162 84.992 49.5622 84.95C49.4082 84.922 49.2542 84.726 49.1142 84.376C48.9742 84.026 48.8342 83.69 48.7082 83.368ZM70.0513 74.646C70.2053 74.59 70.3593 74.604 70.4993 74.688C70.6393 74.772 70.7653 75.01 70.8913 75.402C71.0173 75.78 71.1713 76.088 71.3813 76.326C71.5913 76.55 71.6473 76.704 71.5493 76.774C71.4513 76.858 71.3253 76.844 71.1573 76.76C70.4433 76.27 70.0793 75.57 70.0513 74.646ZM68.3153 76.144C68.2593 75.92 68.2593 75.78 68.3293 75.724C68.3853 75.668 68.4973 75.654 68.6513 75.696C68.8053 75.724 68.9173 75.892 68.9873 76.2C69.0713 76.508 69.2533 76.802 69.5613 77.096C69.8413 77.334 69.8553 77.544 69.6173 77.754C69.2253 77.67 68.9453 77.46 68.7493 77.138C68.5533 76.816 68.4133 76.48 68.3153 76.144ZM62.9813 85.328C62.6033 84.964 62.4493 84.516 62.5473 83.998C62.6453 83.466 62.9113 82.794 63.3453 81.982L63.0653 81.436C62.4773 79.812 62.3513 78.216 62.7013 76.662C62.7713 76.494 62.8833 76.438 63.0233 76.522C63.1633 76.592 63.2613 76.774 63.2893 77.04C62.9673 78.468 63.1073 79.924 63.7233 81.436C65.0673 80.036 66.4533 78.818 67.8953 77.768C68.1333 77.684 68.3013 77.656 68.3713 77.726C68.4413 77.782 68.4553 77.908 68.4133 78.104C68.3573 78.286 67.9233 78.706 67.0833 79.364C66.2433 80.008 65.2073 81.072 63.9473 82.542C63.5273 83.158 63.3313 83.718 63.3733 84.208C63.4293 84.684 63.9473 84.88 64.9553 84.796C65.9493 84.698 67.3353 84.264 69.0993 83.508C69.1553 83.466 69.2533 83.522 69.3933 83.662C69.5193 83.802 69.5893 83.914 69.5893 83.97C69.5893 84.026 69.5473 84.096 69.4633 84.194C69.3933 84.278 69.2673 84.334 69.0853 84.376C68.9033 84.404 68.3713 84.6 67.5033 84.936C66.6353 85.272 65.7953 85.454 64.9973 85.496C64.1853 85.524 63.5133 85.482 62.9813 85.328ZM75.6724 87.022C75.1824 86.784 74.8604 86.546 74.7204 86.294C74.5804 86.056 74.3844 85.846 74.1324 85.692C74.0064 85.524 73.8524 85.328 73.6984 85.118C73.5444 84.922 73.5164 84.67 73.6284 84.376C73.9924 84.558 74.3704 84.838 74.7624 85.23C75.1404 85.622 75.4484 85.972 75.6864 86.28C75.9104 86.588 75.9104 86.84 75.6724 87.022ZM88.1116 77.418C89.2036 77.25 90.4356 77.18 91.8216 77.194C91.7656 76.998 91.7236 76.76 91.6536 76.452C91.5976 76.158 91.6536 75.962 91.8216 75.85C92.1716 75.794 92.3816 76.27 92.4376 77.264C92.8716 77.264 93.3336 77.292 93.8096 77.334C94.2716 77.376 94.6496 77.558 94.9436 77.894C94.8036 78.09 94.6076 78.174 94.3556 78.118C94.0896 78.076 93.9776 78.02 94.0196 77.964C93.8936 77.866 93.4316 77.838 92.6336 77.88C92.5356 78.664 92.4936 79.238 92.5216 79.602C92.9836 79.616 93.4596 79.616 93.9776 79.574C94.1456 79.686 94.2716 79.798 94.3416 79.91C94.4116 80.008 94.3976 80.148 94.2996 80.33C93.7396 80.274 93.1516 80.26 92.5216 80.316L92.4516 81.688C93.4456 81.982 94.3136 82.318 95.0276 82.682C95.2236 82.808 95.3216 82.934 95.3076 83.074C95.2936 83.2 95.1956 83.284 95.0276 83.326C94.2436 83.004 93.3756 82.724 92.4096 82.5L92.1856 83.844C92.1016 84.474 91.7796 85.006 91.2336 85.44C90.4636 85.902 89.7216 85.944 88.9936 85.566C88.4756 85.132 88.2796 84.6 88.4056 83.956C88.7976 82.822 89.5956 82.108 90.7856 81.828L91.6676 81.702C91.7516 81.03 91.8076 80.582 91.8076 80.358C90.6596 80.386 89.5956 80.4 88.6296 80.4C88.5176 80.288 88.4476 80.204 88.4056 80.106C88.3776 80.022 88.3916 79.91 88.4616 79.812C88.6996 79.742 89.0916 79.714 89.6656 79.7C90.2396 79.7 90.9536 79.686 91.7936 79.672C91.8636 79.266 91.8636 78.664 91.8216 77.88C90.7436 77.782 89.9736 77.782 89.4976 77.852C89.0076 77.936 88.6156 77.936 88.3216 77.866C88.0136 77.796 87.9436 77.642 88.1116 77.418ZM90.4356 85.09C91.3036 84.46 91.7236 83.62 91.6956 82.542C91.3876 82.542 91.1076 82.57 90.8696 82.626C89.9876 82.892 89.3996 83.438 89.1196 84.236C88.9796 84.558 89.0496 84.894 89.3296 85.216C89.4696 85.356 89.6516 85.37 89.8476 85.258C90.0436 85.146 90.2396 85.09 90.4356 85.09ZM101.447 77.978C101.489 77.852 101.573 77.782 101.713 77.782C101.853 77.782 102.203 77.754 102.749 77.712C103.085 77.236 103.337 76.844 103.477 76.536C103.701 76.424 103.827 76.732 103.883 77.474C104.555 77.348 104.975 77.306 105.143 77.362C105.325 77.432 105.381 77.516 105.325 77.628C105.283 77.74 105.101 77.838 104.807 77.908C104.499 77.992 104.317 78.034 104.233 78.062C104.163 78.09 103.883 78.132 103.421 78.202C102.763 80.638 102.329 83.088 102.105 85.566C101.993 85.594 101.853 85.552 101.685 85.412C101.517 85.272 101.433 85.118 101.447 84.936C101.671 82.738 102.049 80.568 102.595 78.412C102.049 78.482 101.727 78.468 101.601 78.398C101.489 78.328 101.433 78.188 101.447 77.978ZM108.923 79.35C108.615 79.966 108.377 80.414 108.195 80.694C108.027 80.974 107.873 81.114 107.761 81.086C107.635 81.058 107.565 81.002 107.537 80.89C107.509 80.778 107.523 80.666 107.565 80.54C107.593 80.414 107.691 80.12 107.845 79.644C107.607 79.7 107.215 79.868 106.669 80.134C106.109 80.386 105.591 80.82 105.115 81.422C104.933 81.478 104.765 81.422 104.611 81.282C104.443 81.128 104.443 80.96 104.611 80.792C104.765 80.624 105.129 80.33 105.689 79.924C106.249 79.532 107.117 79.168 108.307 78.846C108.559 78.846 108.769 79.014 108.923 79.35ZM109.973 84.544C109.847 84.712 109.455 84.866 108.797 84.992C108.153 85.118 107.551 85.244 107.005 85.37C106.459 85.482 106.081 85.538 105.871 85.538C105.661 85.524 105.451 85.44 105.255 85.272C105.045 85.118 104.919 84.81 104.877 84.362C104.835 83.928 104.807 83.62 104.779 83.452C104.765 83.284 104.835 83.186 104.989 83.144C105.367 83.228 105.549 83.466 105.521 83.83C105.493 84.208 105.591 84.558 105.787 84.908C107.005 84.796 108.181 84.516 109.343 84.054C109.581 84.11 109.791 84.264 109.973 84.544ZM120.102 80.778C120.494 80.89 120.69 81.184 120.704 81.66C120.718 82.136 120.704 82.64 120.648 83.144C120.592 83.662 120.606 84.334 120.69 85.174C120.774 86 120.704 86.532 120.466 86.756C117.512 87.232 115.972 87.4 115.874 87.232C115.762 87.078 115.762 86.896 115.846 86.686C115.846 85.58 115.86 84.586 115.888 83.704C115.902 82.822 115.958 82.08 116.042 81.492C115.734 81.926 115.496 82.29 115.328 82.57C114.978 83.046 114.684 83.424 114.446 83.704C114.208 83.984 113.984 84.222 113.802 84.404C113.606 84.586 113.424 84.74 113.27 84.866C113.102 84.992 112.962 85.09 112.822 85.146C112.696 85.202 112.626 85.23 112.584 85.23C112.542 85.23 112.528 85.23 112.514 85.216C112.5 85.202 112.5 85.174 112.514 85.118C112.528 85.076 112.78 84.74 113.27 84.124C113.774 83.508 114.25 82.878 114.698 82.248C115.16 81.618 115.58 80.96 115.972 80.288C115.342 80.386 114.74 80.484 114.194 80.582C113.648 80.68 113.228 80.736 112.92 80.75C112.626 80.778 112.472 80.722 112.486 80.568C112.486 80.414 112.556 80.302 112.682 80.232C112.808 80.162 112.934 80.12 113.074 80.078C113.214 80.05 114.278 79.882 116.266 79.588C116.448 79.182 116.686 78.832 116.938 78.524C116.63 78.552 116.364 78.58 116.126 78.622C115.888 78.664 115.706 78.706 115.566 78.72C115.426 78.748 115.314 78.776 115.23 78.776C115.146 78.776 115.076 78.776 115.034 78.748C114.978 78.734 114.95 78.664 114.922 78.538C114.894 78.412 114.894 78.328 114.922 78.3C114.964 78.258 115.146 78.202 115.496 78.104C115.846 78.006 116.406 77.88 117.162 77.726C117.302 77.292 117.512 76.774 117.778 76.186C117.204 76.424 116.728 76.62 116.35 76.76C115.986 76.9 115.72 76.998 115.566 77.04C115.426 77.082 115.3 77.096 115.23 77.11C115.146 77.11 115.076 77.082 114.992 77.026C114.908 76.97 114.852 76.9 114.838 76.802C114.81 76.704 114.824 76.648 114.866 76.634C114.894 76.606 115.678 76.256 117.176 75.57C118.674 74.884 119.486 74.52 119.584 74.478C119.682 74.436 119.752 74.422 119.808 74.422C119.864 74.422 119.92 74.422 119.976 74.436C120.046 74.45 120.102 74.492 120.158 74.576C120.2 74.604 120.228 74.632 120.242 74.674C120.256 74.73 120.256 74.772 120.242 74.842C120.228 74.898 119.584 75.234 118.296 75.85C118.338 75.962 118.366 76.074 118.352 76.172C118.338 76.284 118.184 76.76 117.918 77.586C118.24 77.544 118.632 77.488 119.08 77.432C119.528 77.376 119.808 77.348 119.878 77.348C119.962 77.348 120.032 77.348 120.074 77.362C120.116 77.376 120.158 77.404 120.172 77.446C120.186 77.474 120.186 77.53 120.172 77.586C120.158 77.642 120.144 77.712 120.116 77.81C120.088 77.894 119.78 77.978 119.178 78.076C118.576 78.174 118.072 78.258 117.624 78.314C117.414 78.748 117.232 79.126 117.05 79.448C120.676 79.112 122.552 78.958 122.678 78.986C122.818 79.014 122.902 79.042 122.958 79.07C123.014 79.098 123.042 79.126 123.056 79.154C123.07 79.196 123.07 79.224 123.056 79.28C123.042 79.336 123.014 79.378 122.972 79.406C122.916 79.434 122.734 79.476 122.412 79.518C122.076 79.56 121.222 79.672 119.822 79.826C118.408 79.98 117.4 80.092 116.798 80.162C116.672 80.358 116.476 80.694 116.196 81.142C116.462 81.156 116.728 81.212 116.98 81.31C117.694 81.086 118.73 80.904 120.102 80.778ZM120.074 81.408C118.576 81.604 117.708 81.744 117.456 81.814C117.204 81.884 116.91 81.996 116.56 82.15L116.532 83.032C117.764 82.794 118.94 82.626 120.074 82.57V81.408ZM119.304 83.172C117.834 83.34 116.882 83.508 116.462 83.648L116.504 84.81C117.302 84.502 118.492 84.278 120.088 84.138L120.046 83.13L119.304 83.172ZM117.862 85.118L116.49 85.286C116.434 85.524 116.42 85.944 116.462 86.532L120.032 86.21L120.06 84.712L117.862 85.118ZM127.991 77.334C127.529 77.166 127.291 76.886 127.291 76.508C127.291 76.116 127.249 75.836 127.151 75.682C127.053 75.514 127.011 75.402 127.039 75.36C127.053 75.318 127.109 75.304 127.221 75.332C127.319 75.36 127.473 75.514 127.683 75.78C127.893 76.032 128.005 76.326 128.033 76.648C128.075 76.97 128.075 77.166 128.061 77.25C128.047 77.334 128.019 77.362 127.991 77.334ZM128.341 78.3C127.193 78.58 126.381 78.762 125.919 78.874C125.443 78.972 125.121 78.986 124.967 78.916C124.813 78.832 124.715 78.762 124.659 78.678C124.617 78.608 124.603 78.524 124.645 78.454C124.687 78.384 124.827 78.342 125.065 78.342C125.317 78.342 125.555 78.342 125.793 78.328C126.899 78.006 127.753 77.796 128.327 77.684C128.915 77.572 129.265 77.53 129.377 77.572C129.489 77.628 129.601 77.74 129.727 77.908C129.839 78.076 129.881 78.188 129.867 78.23C129.853 78.272 129.811 78.286 129.727 78.258C129.629 78.244 129.489 78.216 129.307 78.202C129.111 78.174 128.789 78.216 128.341 78.3ZM126.451 80.666C126.283 80.666 126.143 80.638 126.045 80.568C125.947 80.498 125.877 80.428 125.835 80.358C125.793 80.274 125.947 80.176 126.311 80.05C126.661 79.924 127.403 79.756 128.537 79.56C128.677 79.546 128.803 79.588 128.915 79.714C129.041 79.826 129.111 79.924 129.125 80.008C129.139 80.092 129.139 80.148 129.125 80.176C129.097 80.204 129.013 80.19 128.887 80.162C128.747 80.12 128.509 80.148 128.159 80.274C127.795 80.386 127.235 80.526 126.451 80.666ZM126.521 82.234C126.395 82.304 126.255 82.276 126.101 82.136C125.933 82.01 125.877 81.912 125.905 81.842C126.591 81.492 127.557 81.226 128.789 81.03C128.901 81.03 129.027 81.072 129.139 81.156C129.265 81.254 129.335 81.338 129.335 81.394C129.335 81.464 129.307 81.52 129.279 81.562C129.237 81.604 129.139 81.618 128.985 81.618C128.831 81.618 128.579 81.688 128.243 81.8C127.907 81.912 127.319 82.052 126.521 82.234ZM126.647 86.77C126.171 86.742 125.877 86.28 125.779 85.398C125.709 84.684 125.821 83.97 126.101 83.298C126.171 83.214 126.269 83.2 126.381 83.242C126.493 83.284 126.619 83.368 126.745 83.494C127.543 83.284 128.159 83.102 128.551 82.976C128.957 82.836 129.251 82.962 129.433 83.354C129.615 84.306 129.573 85.258 129.307 86.196C129.293 86.266 128.943 86.336 128.257 86.406C127.557 86.476 127.025 86.588 126.647 86.77ZM126.647 84.11C126.367 84.838 126.367 85.538 126.633 86.196C127.515 86.014 128.229 85.874 128.775 85.762C128.971 85.062 128.971 84.362 128.789 83.662C128.271 83.816 127.641 84.012 126.899 84.264C126.815 84.278 126.731 84.236 126.647 84.11ZM134.697 74.548C134.935 74.562 135.005 74.87 134.921 75.486C135.803 75.29 136.279 75.234 136.363 75.304C136.433 75.388 136.475 75.5 136.503 75.654C136.531 75.822 136.419 75.906 136.181 75.934C135.957 75.948 135.663 75.99 135.299 76.06C134.949 76.13 134.739 76.2 134.683 76.298C134.543 76.564 134.431 76.788 134.361 76.956C134.277 77.11 134.193 77.236 134.109 77.334L134.249 78.076L135.411 77.978C135.831 77.88 136.055 77.936 136.097 78.132C136.125 78.342 136.027 78.482 135.817 78.524C135.593 78.58 135.369 78.608 135.131 78.636C134.907 78.65 134.585 78.706 134.193 78.79V79.308C134.697 79.238 135.075 79.182 135.313 79.14C135.551 79.098 135.705 79.154 135.775 79.308C135.845 79.476 135.831 79.574 135.733 79.644C135.635 79.7 135.425 79.756 135.103 79.798C134.781 79.826 134.459 79.896 134.123 79.98L134.095 80.652L135.551 80.428C135.985 80.442 136.153 80.554 136.041 80.764C135.929 80.974 135.691 81.1 135.355 81.128C135.005 81.156 134.781 81.184 134.683 81.198C134.585 81.212 134.375 81.24 134.095 81.296V81.87C135.187 81.772 135.831 81.716 135.985 81.702C136.153 81.702 136.293 81.786 136.433 81.954C136.559 82.136 136.545 82.248 136.405 82.276C136.265 82.318 135.985 82.374 135.579 82.444C135.173 82.5 134.837 82.556 134.557 82.57C134.277 82.584 133.801 82.654 133.129 82.766C132.457 82.864 132.009 82.934 131.785 82.962C131.575 82.99 131.365 83.004 131.169 83.018C130.973 83.018 130.847 82.962 130.777 82.864C130.721 82.752 130.735 82.626 130.847 82.472L130.721 80.596C130.847 80.274 130.791 80.232 130.567 80.47C130.329 80.722 130.133 80.848 129.951 80.848C129.769 80.848 129.713 80.75 129.755 80.554C129.811 80.372 129.867 80.204 129.951 80.078C130.021 79.952 130.091 79.812 130.147 79.644C130.217 79.476 130.287 79.322 130.357 79.182C130.441 79.042 130.511 78.902 130.581 78.748C130.651 78.594 130.679 78.412 130.665 78.202C130.665 77.992 130.735 77.838 130.889 77.768C131.043 77.698 131.211 77.74 131.393 77.88L131.281 78.636C132.135 78.608 132.975 78.454 133.815 78.188C133.647 77.978 133.521 77.782 133.479 77.586C133.465 77.558 133.465 77.544 133.465 77.516C133.451 77.502 133.535 77.32 133.703 76.956C133.885 76.592 133.969 76.354 133.969 76.242L132.149 76.662C132.065 76.774 132.065 77.012 132.149 77.362C132.233 77.712 132.163 77.894 131.939 77.908C131.715 77.922 131.575 77.768 131.505 77.474C131.449 77.166 131.421 76.914 131.421 76.704C131.253 76.802 131.043 76.858 130.763 76.886C130.483 76.914 130.301 76.942 130.217 76.984C130.133 77.04 129.965 76.984 129.713 76.844C129.461 76.704 129.391 76.578 129.503 76.48C129.615 76.382 129.769 76.34 129.951 76.368C130.133 76.396 130.371 76.368 130.637 76.284C130.903 76.214 131.113 76.172 131.267 76.172C131.295 76.046 131.281 75.878 131.197 75.654C131.127 75.444 131.197 75.332 131.407 75.304C131.603 75.29 131.729 75.388 131.771 75.584C131.827 75.794 131.855 75.948 131.883 76.06L134.305 75.528C134.277 75.01 134.403 74.674 134.697 74.548ZM133.521 78.888L130.973 79.364C131.239 79.476 131.351 79.644 131.309 79.868L133.521 79.476V78.888ZM133.479 80.05C132.765 80.19 132.051 80.344 131.323 80.512V81.128L133.465 80.806L133.479 80.05ZM133.493 81.422L131.323 81.8L131.295 82.346L133.423 82.01L133.493 81.422ZM134.921 83.004C135.005 82.99 135.243 83.074 135.621 83.284C135.649 83.382 135.565 83.606 135.369 83.956C135.159 84.292 134.991 84.544 134.851 84.698C134.711 84.866 134.389 85.104 133.899 85.426C134.431 85.482 134.893 85.594 135.313 85.748C135.733 85.916 136.125 86.07 136.503 86.21C136.881 86.35 137.119 86.49 137.245 86.602C137.357 86.728 137.385 86.84 137.329 86.91C137.287 86.994 137.077 86.994 136.713 86.91C136.335 86.826 135.943 86.714 135.523 86.602C135.103 86.49 134.487 86.252 133.689 85.902C133.535 85.972 133.129 86.224 132.443 86.658C131.771 87.106 131.295 87.33 131.001 87.344C130.707 87.344 130.595 87.302 130.637 87.19C130.693 87.078 130.819 86.952 131.015 86.784C131.197 86.63 131.799 86.238 132.807 85.622C132.233 85.412 131.855 85.258 131.673 85.174C131.491 85.104 131.393 85.006 131.351 84.894C131.309 84.796 131.379 84.74 131.561 84.712C131.743 84.698 131.967 84.74 132.261 84.838C132.541 84.95 132.835 85.034 133.157 85.118C133.773 84.782 134.291 84.306 134.697 83.676C133.899 83.788 133.227 83.914 132.695 84.026C132.149 84.138 131.757 84.152 131.505 84.054C131.253 83.97 131.113 83.872 131.113 83.788C131.099 83.69 131.337 83.592 131.813 83.494C132.303 83.382 133.339 83.228 134.921 83.004ZM140.542 84.04C139.996 83.214 139.884 82.304 140.206 81.324C140.542 80.33 141.172 79.392 142.11 78.524C143.048 77.656 144.126 77.096 145.344 76.858C146.086 76.788 146.772 77.082 147.388 77.712C147.99 78.636 148.298 79.56 148.298 80.47C148.298 81.38 148.228 82.178 148.102 82.822C147.934 83.802 147.472 84.586 146.702 85.16C146.366 85.132 146.24 84.964 146.352 84.67C146.73 84.264 147.052 83.76 147.318 83.172C147.738 81.744 147.738 80.288 147.318 78.832C147.08 78.314 146.828 77.964 146.604 77.824C146.366 77.67 146.128 77.572 145.904 77.544C145.68 77.53 145.288 77.6 144.714 77.796C144.742 78.048 144.742 78.342 144.7 78.664C144.672 78.972 144.532 79.56 144.28 80.386C144.014 81.226 143.58 81.968 142.978 82.626C142.362 83.284 141.9 83.732 141.578 83.942C141.256 84.152 140.906 84.194 140.542 84.04ZM141.466 80.456C140.794 81.366 140.57 82.332 140.794 83.354C141.774 82.696 142.6 81.856 143.23 80.848C143.818 80.022 144.112 79.098 144.112 78.09C143.37 78.398 142.796 78.776 142.362 79.224C141.942 79.658 141.648 80.064 141.466 80.456ZM31.208 107.236C31.376 107.348 31.488 107.474 31.544 107.586C31.6 107.712 31.586 107.838 31.502 107.964C31.32 108.09 31.152 108.118 30.956 108.048C30.774 107.978 30.48 107.978 30.06 108.034C29.64 108.09 29.136 108.146 28.548 108.202C27.946 108.272 27.484 108.328 27.134 108.398C26.784 108.454 26.42 108.51 26.042 108.594C25.664 108.664 25.412 108.678 25.286 108.636C25.146 108.594 25.09 108.51 25.09 108.384C25.09 108.244 25.118 108.118 25.174 108.02C25.23 107.908 26.112 107.74 27.82 107.544C27.848 106.802 27.834 105.472 27.764 103.54C25.804 103.89 24.74 104.016 24.586 103.904C24.432 103.806 24.362 103.666 24.362 103.498C24.362 103.344 24.418 103.26 24.53 103.26C24.628 103.274 25.748 103.106 27.876 102.77C27.764 100.698 27.708 99.606 27.708 99.494C27.708 99.382 27.708 99.34 27.708 99.34C27.708 99.34 27.848 99.396 28.142 99.48C28.422 99.578 28.59 100.614 28.632 102.588C30.214 102.308 31.278 102.168 31.838 102.154C32.16 102.378 32.272 102.56 32.188 102.7C32.118 102.84 31.992 102.896 31.838 102.882C31.684 102.882 30.606 103.036 28.632 103.358C28.632 104.632 28.632 105.99 28.632 107.432C29.57 107.278 30.424 107.222 31.208 107.236ZM20.988 104.394C20.792 104.744 20.61 104.968 20.442 105.052C20.274 105.136 20.12 105.094 19.994 104.926C21.016 102.854 22.066 100.586 23.186 98.108C23.466 97.94 23.704 97.996 23.886 98.262C23.648 98.85 23.41 99.354 23.172 99.774C22.92 100.376 22.71 101.006 22.528 101.65C22.724 101.72 22.878 101.818 22.99 101.93C23.06 105.164 23.074 107.74 23.004 109.7C22.808 109.91 22.584 109.854 22.304 109.518L22.318 109.182C22.346 107.334 22.332 105.094 22.276 102.434V102.042C21.814 102.882 21.38 103.666 20.988 104.394ZM36.15 100.572L38.194 100.208C38.18 99.914 38.166 99.648 38.166 99.424C35.786 99.746 34.484 99.914 34.274 99.928C34.064 99.942 33.938 99.928 33.91 99.9C33.868 99.858 33.826 99.802 33.784 99.718C33.756 99.662 33.728 99.606 33.714 99.564C33.714 99.508 33.714 99.48 33.714 99.452C33.728 99.438 33.742 99.424 33.784 99.41C33.812 99.396 35.268 99.186 38.138 98.794C38.11 98.528 38.11 98.318 38.124 98.136C38.124 97.954 38.138 97.814 38.138 97.702C38.152 97.604 38.152 97.52 38.166 97.45C38.18 97.394 38.208 97.352 38.222 97.338C38.25 97.338 38.306 97.352 38.376 97.394C38.432 97.408 38.488 97.45 38.572 97.534C38.656 97.618 38.712 97.744 38.726 97.912C38.754 98.08 38.754 98.318 38.754 98.626C41.288 98.388 42.59 98.262 42.66 98.262C42.73 98.262 42.8 98.276 42.87 98.304C42.926 98.332 42.982 98.388 43.038 98.444C43.094 98.514 43.136 98.57 43.164 98.626C43.192 98.696 43.206 98.738 43.192 98.78C43.178 98.808 43.164 98.836 43.108 98.85C43.066 98.864 41.624 99.018 38.796 99.34L38.838 100.096C40.42 99.886 41.316 99.774 41.512 99.802C41.708 99.816 41.806 99.956 41.778 100.222C41.75 100.474 41.708 100.74 41.652 101.02C41.582 101.286 41.526 101.566 41.456 101.846C41.4 102.126 41.162 102.308 40.77 102.364C40.378 102.434 40.028 102.49 39.692 102.518C39.37 102.56 39.104 102.574 38.922 102.588C38.922 102.742 38.922 102.952 38.922 103.232C39.496 103.12 40.014 103.036 40.476 102.966C40.952 102.896 41.26 102.854 41.4 102.84C41.554 102.812 41.708 102.798 41.89 102.798C42.072 102.784 42.198 102.868 42.268 103.064C42.338 103.26 42.352 103.666 42.31 104.296C43.402 104.128 43.976 104.03 44.046 104.03C44.116 104.016 44.186 104.03 44.27 104.044C44.34 104.072 44.41 104.128 44.452 104.198C44.508 104.268 44.55 104.338 44.564 104.394C44.592 104.464 44.592 104.52 44.564 104.548C44.55 104.576 44.508 104.604 44.452 104.618C44.41 104.618 43.654 104.744 42.212 104.996C42.198 105.262 42.184 105.514 42.17 105.724C42.156 105.934 42.156 106.116 42.17 106.27C42.184 106.438 42.17 106.536 42.142 106.564C42.114 106.606 42.086 106.634 42.072 106.648C42.044 106.662 42.002 106.662 41.932 106.662C41.932 106.732 41.932 106.788 41.904 106.816C41.89 106.844 41.848 106.858 41.764 106.886C41.694 106.914 41.484 106.928 41.162 106.956C40.826 106.97 40.504 106.998 40.196 107.04C39.888 107.082 39.454 107.152 38.894 107.25C38.88 107.418 38.88 107.74 38.894 108.216C38.922 108.706 38.922 109.112 38.922 109.462C38.922 109.798 38.908 110.036 38.894 110.176C38.866 110.33 38.824 110.414 38.796 110.47C38.768 110.526 38.726 110.554 38.67 110.568C38.628 110.582 38.544 110.582 38.446 110.568C38.348 110.554 38.264 110.526 38.194 110.498C38.11 110.47 38.04 110.414 37.956 110.358C37.872 110.302 37.746 110.176 37.55 109.966C37.368 109.77 37.186 109.588 37.004 109.42C36.822 109.266 36.71 109.14 36.696 109.056C36.668 108.972 36.654 108.916 36.654 108.874C36.654 108.832 36.668 108.804 36.682 108.804C36.71 108.804 36.766 108.818 36.864 108.874C36.962 108.93 37.41 109.154 38.208 109.532C38.306 108.454 38.306 107.726 38.236 107.334C37.9 107.404 37.438 107.474 36.85 107.544C36.248 107.614 35.884 107.656 35.744 107.67C35.618 107.684 35.52 107.684 35.464 107.656C35.408 107.642 35.324 107.572 35.226 107.46C35.198 107.404 35.184 107.362 35.156 107.306C35.128 107.264 35.114 107.222 35.1 107.194C35.1 107.152 35.114 107.138 35.128 107.124C35.142 107.11 35.296 107.068 35.562 106.984C35.828 106.914 36.738 106.788 38.306 106.62C38.306 106.396 38.292 106.06 38.264 105.626C35.1 106.074 33.462 106.312 33.35 106.326C33.238 106.326 33.14 106.326 33.056 106.298C32.986 106.27 32.888 106.2 32.776 106.088C32.734 105.962 32.706 105.878 32.72 105.85C32.734 105.822 32.762 105.794 32.804 105.78C32.846 105.752 34.666 105.472 38.278 104.94C38.278 104.59 38.278 104.296 38.278 104.058C36.192 104.408 35.128 104.59 35.072 104.59C35.016 104.59 34.96 104.562 34.918 104.52C34.862 104.464 34.778 104.394 34.652 104.282C34.596 104.17 34.582 104.1 34.596 104.072C34.61 104.044 34.652 104.016 34.708 103.988C34.764 103.96 35.282 103.862 36.248 103.708C37.2 103.554 37.858 103.456 38.222 103.4L38.208 102.658C37.802 102.686 37.298 102.784 36.696 102.91C36.094 103.036 35.758 103.05 35.66 102.938C35.576 102.826 35.52 102.658 35.52 102.434C35.408 101.972 35.352 101.608 35.324 101.342C35.296 101.062 35.338 100.88 35.436 100.754C35.548 100.642 35.786 100.572 36.15 100.572ZM41.078 100.404C40.35 100.46 39.622 100.572 38.866 100.74C38.88 101.16 38.894 101.552 38.908 101.902C39.118 101.874 39.426 101.832 39.832 101.776C40.238 101.734 40.574 101.692 40.812 101.664C41.008 101.23 41.092 100.81 41.078 100.404ZM35.982 101.23L36.066 102.322C37.256 102.126 37.984 102.014 38.25 101.986C38.236 101.538 38.222 101.16 38.222 100.852L35.982 101.23ZM41.652 103.512C41.162 103.54 40.252 103.666 38.922 103.932C38.922 104.24 38.908 104.548 38.908 104.814C40 104.674 40.882 104.548 41.568 104.408C41.596 104.338 41.61 104.226 41.624 104.072C41.624 103.918 41.638 103.736 41.652 103.512ZM41.498 106.13L41.54 105.15C40.84 105.248 39.958 105.388 38.894 105.528C38.908 105.85 38.922 106.144 38.922 106.382C39.832 106.312 40.686 106.214 41.498 106.13ZM56.002 98.234C56.072 98.458 56.212 98.654 56.436 98.836C56.646 99.018 56.786 99.13 56.856 99.186C56.94 99.242 56.954 99.298 56.912 99.382C56.884 99.466 56.814 99.536 56.73 99.592C56.632 99.662 56.436 99.578 56.114 99.354C55.806 99.13 55.54 98.766 55.33 98.248C55.358 98.15 55.442 98.094 55.596 98.108C55.764 98.122 55.89 98.164 56.002 98.234ZM54.602 99.466C54.616 99.368 54.658 99.298 54.714 99.27C54.77 99.228 54.854 99.228 54.98 99.256C55.246 99.312 55.47 99.494 55.652 99.774C55.834 100.054 56.058 100.292 56.31 100.488C56.324 100.628 56.296 100.726 56.24 100.768C56.184 100.81 56.03 100.796 55.764 100.726C55.344 100.278 54.966 99.858 54.602 99.466ZM47.364 108.468C47.098 108.426 46.916 108.286 46.832 108.048C47.826 105.906 48.722 103.806 49.52 101.72C49.002 101.748 48.582 101.818 48.288 101.916C47.994 102.014 47.77 102.028 47.644 101.944C47.504 101.846 47.434 101.748 47.434 101.608C47.434 101.482 47.616 101.37 47.98 101.286C48.33 101.202 48.932 101.076 49.758 100.908C49.968 100.026 50.108 99.578 50.206 99.536C50.304 99.494 50.416 99.508 50.556 99.578C50.682 99.648 50.668 100.11 50.486 100.964C51.662 100.712 52.32 100.824 52.502 101.3C52.67 101.762 52.614 102.462 52.306 103.4C52.012 104.324 51.634 105.248 51.172 106.172C50.71 107.096 50.416 107.6 50.262 107.698C50.108 107.796 49.926 107.684 49.716 107.39C49.506 107.082 49.422 106.844 49.464 106.662C49.506 106.494 49.576 106.424 49.702 106.48C49.814 106.536 49.94 106.662 50.066 106.844C51.116 105.15 51.774 103.414 52.04 101.636C51.522 101.454 50.962 101.44 50.332 101.622C50.15 102.014 49.898 102.546 49.576 103.204C48.918 104.996 48.176 106.76 47.364 108.468ZM56.842 103.638C56.884 103.792 56.87 103.904 56.8 103.974C56.73 104.03 56.618 104.016 56.464 103.918C55.204 102.504 54.028 101.328 52.95 100.418C52.908 100.278 52.964 100.18 53.09 100.138C53.216 100.096 53.356 100.11 53.51 100.166C53.86 100.376 54.308 100.74 54.84 101.258C55.386 101.776 56.058 102.574 56.842 103.638ZM61.028 106.424C61 104.002 61.168 101.622 61.532 99.284C61.644 99.088 61.784 99.018 61.98 99.088C62.176 99.158 62.26 99.34 62.26 99.648C61.896 102.042 61.742 104.45 61.812 106.914C61.882 107.348 62.022 107.642 62.232 107.796C62.442 107.936 62.708 108.048 63.03 108.118C63.352 108.188 63.8 108.006 64.388 107.572C64.976 107.138 65.606 106.774 66.278 106.466C66.432 106.592 66.502 106.732 66.488 106.914C66.474 107.082 66.39 107.236 66.222 107.39C65.592 107.614 65.004 107.936 64.472 108.37C63.926 108.79 63.338 108.916 62.68 108.748C62.134 108.594 61.742 108.342 61.504 108.02C61.266 107.684 61.112 107.152 61.028 106.424ZM73.18 100.978C73.222 100.852 73.306 100.782 73.446 100.782C73.586 100.782 73.936 100.754 74.482 100.712C74.818 100.236 75.07 99.844 75.21 99.536C75.434 99.424 75.56 99.732 75.616 100.474C76.288 100.348 76.708 100.306 76.876 100.362C77.058 100.432 77.114 100.516 77.058 100.628C77.016 100.74 76.834 100.838 76.54 100.908C76.232 100.992 76.05 101.034 75.966 101.062C75.896 101.09 75.616 101.132 75.154 101.202C74.496 103.638 74.062 106.088 73.838 108.566C73.726 108.594 73.586 108.552 73.418 108.412C73.25 108.272 73.166 108.118 73.18 107.936C73.404 105.738 73.782 103.568 74.328 101.412C73.782 101.482 73.46 101.468 73.334 101.398C73.222 101.328 73.166 101.188 73.18 100.978ZM80.656 102.35C80.348 102.966 80.11 103.414 79.928 103.694C79.76 103.974 79.606 104.114 79.494 104.086C79.368 104.058 79.298 104.002 79.27 103.89C79.242 103.778 79.256 103.666 79.298 103.54C79.326 103.414 79.424 103.12 79.578 102.644C79.34 102.7 78.948 102.868 78.402 103.134C77.842 103.386 77.324 103.82 76.848 104.422C76.666 104.478 76.498 104.422 76.344 104.282C76.176 104.128 76.176 103.96 76.344 103.792C76.498 103.624 76.862 103.33 77.422 102.924C77.982 102.532 78.85 102.168 80.04 101.846C80.292 101.846 80.502 102.014 80.656 102.35ZM81.706 107.544C81.58 107.712 81.188 107.866 80.53 107.992C79.886 108.118 79.284 108.244 78.738 108.37C78.192 108.482 77.814 108.538 77.604 108.538C77.394 108.524 77.184 108.44 76.988 108.272C76.778 108.118 76.652 107.81 76.61 107.362C76.568 106.928 76.54 106.62 76.512 106.452C76.498 106.284 76.568 106.186 76.722 106.144C77.1 106.228 77.282 106.466 77.254 106.83C77.226 107.208 77.324 107.558 77.52 107.908C78.738 107.796 79.914 107.516 81.076 107.054C81.314 107.11 81.524 107.264 81.706 107.544ZM92.262 102.448C92.682 103.33 92.99 103.876 93.172 104.114C93.354 104.352 93.396 104.576 93.298 104.786C93.2 104.996 93.032 104.996 92.794 104.772C92.416 104.226 92.122 103.68 91.898 103.148C91.604 102.644 91.394 102.252 91.254 102C90.834 101.762 90.652 101.566 90.75 101.412C90.764 101.286 90.806 101.216 90.89 101.188C90.974 101.16 91.086 101.188 91.212 101.258C91.604 101.44 91.954 101.832 92.262 102.448ZM85.682 101.874L85.598 101.93C85.444 102.182 85.388 102.448 85.402 102.742C85.416 103.036 85.472 103.456 85.57 104.044C85.682 104.618 85.948 105.29 86.382 106.088C86.872 106.13 87.53 105.444 88.342 104.058C88.622 103.932 88.734 104.002 88.706 104.268C88.37 105.262 87.796 106.172 86.984 106.998C86.452 106.998 86.032 106.774 85.738 106.312C85.43 105.85 85.22 105.346 85.122 104.772C84.73 103.568 84.618 102.406 84.744 101.258C84.898 101.076 85.052 101.09 85.234 101.272C85.444 101.454 85.598 101.664 85.682 101.874Z" fill="black"/>
<mask id="path-8-inside-1_1874_350" fill="white">
<path d="M162.4 28C166.819 28 170.4 31.5817 170.4 36V123.811C170.4 128.229 166.819 131.811 162.4 131.811H96.9287L85.2002 149L73.4717 131.811H8C3.58182 131.811 0.000164922 128.229 0 123.811V36C0 31.5817 3.58172 28 8 28H162.4Z"/>
</mask>
<path d="M162.4 28L162.4 27H162.4V28ZM170.4 123.811L171.4 123.811V123.811H170.4ZM96.9287 131.811V130.811H96.4004L96.1027 131.247L96.9287 131.811ZM85.2002 149L84.3742 149.564L85.2002 150.774L86.0262 149.564L85.2002 149ZM73.4717 131.811L74.2977 131.247L74 130.811H73.4717V131.811ZM8 131.811L8 132.811H8V131.811ZM0 123.811L-1 123.811L-1 123.811L0 123.811ZM162.4 28L162.4 29C166.266 29 169.4 32.134 169.4 36H170.4H171.4C171.4 31.0294 167.371 27 162.4 27L162.4 28ZM170.4 36H169.4V123.811H170.4H171.4V36H170.4ZM170.4 123.811L169.4 123.811C169.4 127.676 166.266 130.811 162.4 130.811V131.811V132.811C167.371 132.811 171.4 128.781 171.4 123.811L170.4 123.811ZM162.4 131.811V130.811H96.9287V131.811V132.811H162.4V131.811ZM96.9287 131.811L96.1027 131.247L84.3742 148.436L85.2002 149L86.0262 149.564L97.7547 132.374L96.9287 131.811ZM85.2002 149L86.0262 148.436L74.2977 131.247L73.4717 131.811L72.6456 132.374L84.3742 149.564L85.2002 149ZM73.4717 131.811V130.811H8V131.811V132.811H73.4717V131.811ZM8 131.811L8 130.811C4.13415 130.811 1.00014 127.676 1 123.811L0 123.811L-1 123.811C-0.999814 128.781 3.0295 132.811 8 132.811L8 131.811ZM0 123.811H1V36H0H-1V123.811H0ZM0 36H1C1 32.134 4.13401 29 8 29V28V27C3.02944 27 -1 31.0294 -1 36H0ZM8 28V29H162.4V28V27H8V28Z" fill="#004E88" mask="url(#path-8-inside-1_1874_350)"/>
<mask id="path-10-inside-2_1874_350" fill="white">
<path d="M347 28C351.418 28 355 31.5817 355 36V124C355 128.418 351.418 132 347 132H281.109L269.2 149L257.291 132H192.4C187.982 132 184.4 128.418 184.4 124V36C184.4 31.5817 187.982 28 192.4 28H347Z"/>
</mask>
<path d="M355 36L356 36V36L355 36ZM347 132L347 133L347 132ZM281.109 132V131H280.589L280.29 131.426L281.109 132ZM269.2 149L268.381 149.574L269.2 150.743L270.019 149.574L269.2 149ZM257.291 132L258.11 131.426L257.811 131H257.291V132ZM184.4 124L183.4 124V124L184.4 124ZM192.4 28L192.4 27L192.4 28ZM347 28V29C350.866 29 354 32.134 354 36L355 36L356 36C356 31.0294 351.971 27 347 27V28ZM355 36H354V124H355H356V36H355ZM355 124H354C354 127.866 350.866 131 347 131L347 132L347 133C351.971 133 356 128.971 356 124H355ZM347 132V131H281.109V132V133H347V132ZM281.109 132L280.29 131.426L268.381 148.426L269.2 149L270.019 149.574L281.928 132.574L281.109 132ZM269.2 149L270.019 148.426L258.11 131.426L257.291 132L256.472 132.574L268.381 149.574L269.2 149ZM257.291 132V131H192.4V132V133H257.291V132ZM192.4 132V131C188.534 131 185.4 127.866 185.4 124L184.4 124L183.4 124C183.4 128.971 187.43 133 192.4 133V132ZM184.4 124H185.4V36H184.4H183.4V124H184.4ZM184.4 36H185.4C185.4 32.134 188.534 29 192.4 29L192.4 28L192.4 27C187.43 27 183.4 31.0294 183.4 36H184.4ZM192.4 28V29H347V28V27H192.4V28Z" fill="#004E88" mask="url(#path-10-inside-2_1874_350)"/>
<rect x="303.143" y="9.25684" width="57.8571" height="41.6571" fill="white"/>
<g clip-path="url(#clip0_1874_350)">
<path d="M335.671 34.3398C329.187 30.6702 326.874 22.4505 330.515 16.0167C334.157 9.58293 342.394 7.33401 348.878 11.0037C355.362 14.6733 357.675 22.8932 354.034 29.327C350.392 35.7608 342.155 38.0095 335.671 34.3398ZM348.293 12.0365C342.379 8.68925 334.867 10.7368 331.548 16.6011C328.229 22.4654 330.341 29.9598 336.255 33.307C342.17 36.6545 349.682 34.6069 353.001 28.7426C356.32 22.8783 354.208 15.384 348.293 12.0365Z" fill="#004E88"/>
<path d="M331.909 38.4235C326.031 35.097 323.496 28.4212 326.258 23.542C329.019 18.6629 336.047 17.3996 341.925 20.7261C347.803 24.0527 350.338 30.7285 347.576 35.6076C344.815 40.4868 337.787 41.75 331.909 38.4235ZM341.34 21.759C336.032 18.7547 329.729 19.8167 327.29 24.1264C324.851 28.4361 327.185 34.3864 332.494 37.3907C337.802 40.395 344.105 39.3329 346.544 35.0232C348.983 30.7135 346.649 24.7633 341.34 21.759Z" fill="#004E88"/>
<path d="M328.039 33.3899C327.148 32.8858 326.37 32.2149 325.75 31.3794C322.683 27.2478 324.599 20.6113 330.022 16.5854C332.624 14.6538 335.642 13.5974 338.521 13.6112C341.465 13.6254 343.913 14.7498 345.419 16.7776C348.486 20.9092 346.57 27.5458 341.147 31.5716C336.821 34.7826 331.551 35.3773 328.039 33.3899ZM342.526 15.7819C341.402 15.1456 340.038 14.8052 338.515 14.798C335.891 14.7853 333.126 15.7587 330.729 17.5383C325.832 21.174 324.025 27.0658 326.702 30.672C329.379 34.2778 335.542 34.2544 340.439 30.6187C345.337 26.983 347.143 21.0912 344.466 17.485C343.948 16.7874 343.293 16.2159 342.526 15.7819Z" fill="#004E88"/>
<path d="M321.704 37.7618C319.764 36.6639 318.185 34.991 317.143 32.8934C315.729 30.0479 315.473 26.7602 316.422 23.6361C317.37 20.5118 319.411 17.9217 322.168 16.3427C324.937 14.7573 328.096 14.3802 331.062 15.2808C337.171 17.1361 340.547 23.903 338.585 30.3657C336.623 36.8283 330.055 40.5764 323.945 38.7209C323.156 38.4815 322.406 38.1594 321.704 37.7618ZM332.698 17.2648C332.082 16.9158 331.42 16.6297 330.717 16.4163C328.067 15.6116 325.24 15.9511 322.758 17.3725C320.264 18.8004 318.417 21.1474 317.557 23.9808C316.696 26.8142 316.927 29.792 318.206 32.3653C319.479 34.927 321.64 36.7812 324.289 37.5854C329.774 39.2507 335.677 35.8572 337.45 30.021C338.995 24.9323 336.897 19.6408 332.698 17.2648Z" fill="#004E88"/>
<path d="M325.159 45.56C324.021 44.916 323.054 44.0704 322.34 43.0801C321.184 41.4779 320.824 39.6891 321.323 38.0431C321.823 36.3968 323.118 35.1106 324.969 34.4213C326.764 33.7533 328.878 33.7273 330.924 34.3485C332.97 34.9695 334.713 36.1672 335.833 37.7201C336.988 39.3223 337.349 41.111 336.849 42.7571C335.836 46.094 331.529 47.7514 327.249 46.4517C326.508 46.2267 325.806 45.9259 325.159 45.56ZM332.431 36.2738C331.86 35.9504 331.238 35.684 330.579 35.484C328.781 34.9379 326.935 34.9555 325.383 35.5336C323.887 36.0905 322.848 37.1042 322.459 38.3877C322.069 39.6713 322.369 41.0912 323.302 42.3859C324.271 43.7297 325.796 44.7705 327.594 45.3162C331.248 46.4259 334.891 45.1231 335.714 42.4124C336.104 41.1288 335.804 39.709 334.87 38.4144C334.256 37.5629 333.419 36.833 332.431 36.2738Z" fill="#004E88"/>
</g>
<rect x="128.4" width="53" height="52" fill="white"/>
<g clip-path="url(#clip1_1874_350)">
<path d="M160.96 34.9763C154.356 31.2387 152.001 22.8668 155.71 16.3139C159.418 9.76092 167.808 7.47035 174.412 11.208C181.016 14.9456 183.372 23.3177 179.663 29.8706C175.955 36.4235 167.564 38.7139 160.96 34.9763ZM173.817 12.2599C167.793 8.85068 160.142 10.9362 156.761 16.9091C153.381 22.882 155.532 30.5151 161.556 33.9243C167.58 37.3338 175.231 35.2483 178.612 29.2754C181.992 23.3025 179.841 15.6694 173.817 12.2599Z" fill="#004E88"/>
<path d="M157.128 39.1344C151.142 35.7463 148.559 28.9469 151.372 23.9774C154.184 19.0079 161.343 17.7212 167.329 21.1093C173.316 24.4975 175.898 31.2969 173.086 36.2664C170.273 41.2359 163.115 42.5226 157.128 39.1344ZM166.734 22.1613C161.327 19.1014 154.908 20.1831 152.424 24.5726C149.939 28.9621 152.317 35.0225 157.723 38.0825C163.13 41.1424 169.55 40.0607 172.034 35.6712C174.518 31.2817 172.141 25.2213 166.734 22.1613Z" fill="#004E88"/>
<path d="M153.187 34.008C152.279 33.4946 151.487 32.8112 150.855 31.9603C147.731 27.7522 149.683 20.9927 155.206 16.8924C157.856 14.925 160.931 13.849 163.863 13.863C166.861 13.8776 169.355 15.0227 170.889 17.0881C174.012 21.2962 172.061 28.0557 166.537 32.156C162.131 35.4265 156.764 36.0323 153.187 34.008ZM167.942 16.0739C166.797 15.4258 165.408 15.0791 163.857 15.0718C161.185 15.0589 158.368 16.0503 155.927 17.8629C150.939 21.5659 149.099 27.5668 151.825 31.2397C154.551 34.9123 160.829 34.8885 165.817 31.1855C170.805 27.4825 172.645 21.4816 169.918 17.8086C169.391 17.0981 168.723 16.5159 167.942 16.0739Z" fill="#004E88"/>
<path d="M146.735 38.4613C144.759 37.3431 143.151 35.6391 142.089 33.5027C140.649 30.6045 140.388 27.256 141.355 24.074C142.321 20.8918 144.399 18.2537 147.208 16.6454C150.028 15.0307 153.245 14.6466 156.266 15.5639C162.489 17.4536 165.927 24.3458 163.929 30.9281C161.93 37.5104 155.241 41.328 149.017 39.4381C148.214 39.1942 147.45 38.8662 146.735 38.4613ZM157.933 17.5846C157.305 17.2292 156.631 16.9378 155.915 16.7204C153.215 15.9008 150.336 16.2467 147.808 17.6944C145.268 19.1487 143.387 21.5391 142.511 24.425C141.635 27.3109 141.869 30.3438 143.172 32.9648C144.468 35.5739 146.67 37.4624 149.368 38.2815C154.954 39.9777 160.967 36.5213 162.772 30.5771C164.346 25.3942 162.209 20.0047 157.933 17.5846Z" fill="#004E88"/>
<path d="M150.253 46.4037C149.094 45.7478 148.109 44.8865 147.382 43.8779C146.205 42.246 145.837 40.4241 146.346 38.7476C146.855 37.0709 148.174 35.7608 150.059 35.0588C151.887 34.3784 154.041 34.3519 156.125 34.9846C158.208 35.6171 159.984 36.837 161.124 38.4186C162.301 40.0505 162.669 41.8724 162.16 43.5489C161.128 46.9476 156.741 48.6357 152.381 47.312C151.626 47.0828 150.912 46.7764 150.253 46.4037ZM157.66 36.9456C157.078 36.6162 156.444 36.3448 155.773 36.1411C153.942 35.585 152.062 35.6029 150.481 36.1917C148.957 36.7589 147.9 37.7913 147.503 39.0986C147.106 40.406 147.411 41.8521 148.362 43.1708C149.349 44.5395 150.902 45.5996 152.733 46.1554C156.455 47.2857 160.165 45.9588 161.003 43.1978C161.4 41.8905 161.095 40.4444 160.144 39.1258C159.519 38.2585 158.666 37.5152 157.66 36.9456Z" fill="#004E88"/>
</g>
<defs>
<clipPath id="clip0_1874_350">
<rect width="35.8536" height="41.7569" fill="white" transform="translate(329.436) rotate(29.5081)"/>
</clipPath>
<clipPath id="clip1_1874_350">
<rect width="36.5176" height="42.5301" fill="white" transform="translate(154.609) rotate(29.5081)"/>
</clipPath>
</defs>
</svg>
