<svg width="356" height="93" viewBox="0 0 356 93" fill="none" xmlns="http://www.w3.org/2000/svg">
<path d="M355.18 75.1182H191.736L177.037 92.9893L162.338 75.1182H0V23.7354H355.18V75.1182Z" fill="#004E88" fill-opacity="0.1"/>
<path d="M31.072 56.8747C31.0293 56.5974 30.944 56.2827 30.816 55.9307C30.6987 55.5894 30.56 55.2961 30.4 55.0507C32.6827 54.9121 34.544 54.4321 35.984 53.6107C35.3013 53.3334 34.64 53.0881 34 52.8747C33.36 52.6507 32.7733 52.4747 32.24 52.3467C32.4213 52.0801 32.6293 51.7547 32.864 51.3707C33.0987 50.9867 33.344 50.5654 33.6 50.1067H29.968V48.4267H34.496C34.7733 47.9041 35.024 47.4027 35.248 46.9227C35.472 46.4427 35.648 46.0321 35.776 45.6907L37.76 46.2667C37.6213 46.5761 37.4613 46.9174 37.28 47.2907C37.1093 47.6641 36.9227 48.0427 36.72 48.4267H44.496V50.1067H41.168C40.752 51.2801 40.224 52.2774 39.584 53.0987C40.32 53.4294 41.04 53.7707 41.744 54.1227C42.4587 54.4747 43.1093 54.8267 43.696 55.1787C43.4933 55.3601 43.2747 55.6161 43.04 55.9467C42.8053 56.2881 42.6187 56.5974 42.48 56.8747C41.8613 56.4801 41.1733 56.0801 40.416 55.6747C39.6693 55.2801 38.9013 54.9014 38.112 54.5387C37.2587 55.1787 36.2507 55.6801 35.088 56.0427C33.936 56.4054 32.5973 56.6827 31.072 56.8747ZM30.448 47.4507V43.9307H36.08V42.1067H38.24V43.9307H43.936V47.4347H41.984V45.5787H32.432V47.4507H30.448ZM37.664 52.2987C38.2507 51.6694 38.6987 50.9387 39.008 50.1067H35.84C35.6907 50.3734 35.552 50.6187 35.424 50.8427C35.296 51.0667 35.184 51.2534 35.088 51.4027C35.4613 51.5094 35.8667 51.6427 36.304 51.8027C36.7413 51.9521 37.1947 52.1174 37.664 52.2987ZM53.328 56.3947C52.6453 56.3947 52.1653 56.2881 51.888 56.0747C51.6107 55.8721 51.472 55.5254 51.472 55.0347V46.5067H53.456V54.0587C53.456 54.2294 53.4987 54.3521 53.584 54.4267C53.6693 54.4907 53.8347 54.5227 54.08 54.5227H56.112C56.5493 54.5227 56.848 54.3841 57.008 54.1067C57.1787 53.8294 57.296 53.3121 57.36 52.5547C57.5093 52.6294 57.696 52.7147 57.92 52.8107C58.144 52.8961 58.3733 52.9761 58.608 53.0507C58.8533 53.1254 59.0667 53.1841 59.248 53.2267C59.12 54.1014 58.96 54.7681 58.768 55.2267C58.576 55.6747 58.3147 55.9787 57.984 56.1387C57.6533 56.3094 57.2107 56.3947 56.656 56.3947H53.328ZM47.856 53.5147C47.6427 53.3654 47.3653 53.2001 47.024 53.0187C46.6827 52.8374 46.384 52.7041 46.128 52.6187C46.352 52.3414 46.592 51.9947 46.848 51.5787C47.104 51.1521 47.344 50.7041 47.568 50.2347C47.8027 49.7547 48.0107 49.2907 48.192 48.8427C48.3733 48.3841 48.5067 47.9841 48.592 47.6427L50.448 48.2987C50.3413 48.6934 50.192 49.1254 50 49.5947C49.808 50.0641 49.5947 50.5441 49.36 51.0347C49.1253 51.5147 48.8747 51.9734 48.608 52.4107C48.352 52.8374 48.1013 53.2054 47.856 53.5147ZM60.048 52.5707C59.632 51.7601 59.12 50.9761 58.512 50.2187C57.904 49.4614 57.2747 48.8054 56.624 48.2507L58.016 47.0667C58.432 47.3974 58.8747 47.8134 59.344 48.3147C59.8133 48.8161 60.256 49.3387 60.672 49.8827C61.088 50.4267 61.4293 50.9281 61.696 51.3867C61.5467 51.4507 61.36 51.5627 61.136 51.7227C60.912 51.8721 60.6987 52.0267 60.496 52.1867C60.2933 52.3467 60.144 52.4747 60.048 52.5707ZM55.712 46.2187C55.3493 45.9094 54.928 45.6001 54.448 45.2907C53.9787 44.9707 53.504 44.6721 53.024 44.3947C52.544 44.1174 52.1067 43.8934 51.712 43.7227L52.672 42.2027C53.0987 42.3841 53.5733 42.6241 54.096 42.9227C54.6293 43.2107 55.1413 43.5094 55.632 43.8187C56.1227 44.1281 56.5227 44.4107 56.832 44.6667C56.7147 44.7947 56.576 44.9601 56.416 45.1627C56.2667 45.3547 56.128 45.5467 56 45.7387C55.872 45.9307 55.776 46.0907 55.712 46.2187ZM75.536 55.7227C74.5333 55.8934 73.5573 56.0107 72.608 56.0747C71.6587 56.1387 70.7733 56.1281 69.952 56.0427C69.1307 55.9574 68.4107 55.7867 67.792 55.5307C67.1733 55.2641 66.688 54.9014 66.336 54.4427C65.9947 53.9734 65.824 53.3921 65.824 52.6987C65.824 51.7814 66.144 51.0027 66.784 50.3627C67.4347 49.7121 68.304 49.1521 69.392 48.6827C69.2213 48.2241 69.072 47.6747 68.944 47.0347C68.8267 46.3841 68.7467 45.6801 68.704 44.9227C68.6613 44.1547 68.656 43.3707 68.688 42.5707H70.752C70.688 43.1574 70.6667 43.7921 70.688 44.4747C70.7093 45.1467 70.7573 45.7921 70.832 46.4107C70.9173 47.0294 71.024 47.5627 71.152 48.0107C71.6853 47.8401 72.2453 47.6747 72.832 47.5147C73.4293 47.3547 74.0373 47.1947 74.656 47.0347L75.04 49.0347C74.1013 49.1414 73.2 49.3121 72.336 49.5467C71.472 49.7707 70.6987 50.0427 70.016 50.3627C69.3333 50.6721 68.7893 51.0187 68.384 51.4027C67.9893 51.7761 67.792 52.1707 67.792 52.5867C67.792 53.0347 68.0053 53.3921 68.432 53.6587C68.8587 53.9254 69.4453 54.1067 70.192 54.2027C70.9387 54.2881 71.792 54.2881 72.752 54.2027C73.7227 54.1067 74.7467 53.9201 75.824 53.6427C75.7173 53.9094 75.6373 54.2507 75.584 54.6667C75.5413 55.0827 75.5253 55.4347 75.536 55.7227ZM81.008 56.7627C80.9973 56.5921 80.9707 56.3894 80.928 56.1547C80.8853 55.9307 80.8373 55.7067 80.784 55.4827C80.7307 55.2587 80.672 55.0774 80.608 54.9387H81.552C81.7653 54.9387 81.9147 54.9067 82 54.8427C82.096 54.7787 82.144 54.6454 82.144 54.4427V51.2587C81.8133 51.3974 81.5147 51.5147 81.248 51.6107C80.9813 51.7067 80.7787 51.7761 80.64 51.8187L80.208 49.9147C80.4427 49.8614 80.7307 49.7814 81.072 49.6747C81.4133 49.5681 81.7707 49.4507 82.144 49.3227V46.7947H80.368V45.1147H82.144V42.2347H83.904V45.1147H85.104L86.544 44.6187C86.6933 44.9174 86.8533 45.3014 87.024 45.7707C87.1947 46.2294 87.344 46.6667 87.472 47.0827V42.3307H89.12V50.3627C89.12 51.4721 88.9867 52.4161 88.72 53.1947C88.464 53.9734 88.064 54.6401 87.52 55.1947C86.9867 55.7494 86.2987 56.2507 85.456 56.6987C85.3813 56.5707 85.2747 56.4161 85.136 56.2347C84.9973 56.0641 84.848 55.8934 84.688 55.7227C84.528 55.5627 84.3787 55.4401 84.24 55.3547C85.168 54.9281 85.8933 54.4267 86.416 53.8507C86.9387 53.2641 87.2693 52.4641 87.408 51.4507C87.0773 51.6534 86.6987 51.8721 86.272 52.1067C85.856 52.3414 85.4613 52.5494 85.088 52.7307L84.416 51.0187C84.64 50.9334 84.9387 50.8054 85.312 50.6347C85.6853 50.4641 86.0693 50.2827 86.464 50.0907C86.8587 49.8881 87.1947 49.7121 87.472 49.5627V47.9947C87.2373 48.0694 86.9707 48.1547 86.672 48.2507C86.3733 48.3467 86.1547 48.4214 86.016 48.4747C85.9733 48.2507 85.8987 47.9627 85.792 47.6107C85.696 47.2481 85.5893 46.8801 85.472 46.5067C85.3547 46.1334 85.2427 45.8134 85.136 45.5467V46.7947H83.904V48.6827C84.5227 48.4481 84.9813 48.2561 85.28 48.1067V49.8507C85.1413 49.9254 84.9493 50.0214 84.704 50.1387C84.4587 50.2561 84.192 50.3787 83.904 50.5067V55.1787C83.904 55.7334 83.7387 56.1334 83.408 56.3787C83.0773 56.6347 82.592 56.7627 81.952 56.7627H81.008ZM91.392 56.4747C90.816 56.4747 90.4107 56.3947 90.176 56.2347C89.9413 56.0747 89.824 55.7867 89.824 55.3707V42.3307H91.52V46.6187C91.7227 46.3841 91.936 46.1227 92.16 45.8347C92.384 45.5361 92.592 45.2481 92.784 44.9707C92.976 44.6827 93.12 44.4374 93.216 44.2347L94.704 45.1627C94.576 45.3654 94.4107 45.6107 94.208 45.8987C94.016 46.1761 93.808 46.4641 93.584 46.7627C93.36 47.0614 93.136 47.3387 92.912 47.5947C92.6987 47.8401 92.5067 48.0427 92.336 48.2027C92.2507 48.0854 92.128 47.9574 91.968 47.8187C91.8187 47.6694 91.6693 47.5307 91.52 47.4027V49.3227L92.352 48.6187C92.512 48.7574 92.7093 48.9441 92.944 49.1787C93.1787 49.4134 93.424 49.6694 93.68 49.9467C93.936 50.2241 94.1707 50.4961 94.384 50.7627C94.608 51.0187 94.784 51.2427 94.912 51.4347C94.7413 51.5627 94.512 51.7494 94.224 51.9947C93.936 52.2401 93.7013 52.4534 93.52 52.6347C93.4027 52.4427 93.2267 52.1974 92.992 51.8987C92.768 51.5894 92.5227 51.2747 92.256 50.9547C91.9893 50.6241 91.744 50.3361 91.52 50.0907V54.2987C91.52 54.4374 91.552 54.5387 91.616 54.6027C91.6907 54.6667 91.8347 54.6987 92.048 54.6987H92.624C92.8373 54.6987 93.0027 54.6667 93.12 54.6027C93.2373 54.5281 93.328 54.3894 93.392 54.1867C93.456 53.9841 93.504 53.6801 93.536 53.2747C93.6533 53.3387 93.8133 53.4134 94.016 53.4987C94.2293 53.5734 94.4427 53.6481 94.656 53.7227C94.88 53.7867 95.0667 53.8401 95.216 53.8827C95.1093 54.6187 94.9653 55.1734 94.784 55.5467C94.6133 55.9201 94.384 56.1654 94.096 56.2827C93.808 56.4107 93.4293 56.4747 92.96 56.4747H91.392ZM100.48 56.8907V54.1707H97.088V52.6187H100.48V51.7067H97.744V45.7387H103.568L102.24 45.3227C102.357 45.1201 102.485 44.8321 102.624 44.4587C102.773 44.0747 102.912 43.6801 103.04 43.2747C103.168 42.8694 103.264 42.5227 103.328 42.2347L105.04 42.6987C104.869 43.2214 104.677 43.7601 104.464 44.3147C104.251 44.8587 104.037 45.3334 103.824 45.7387H104.784V46.8747L106 46.7787C105.957 46.1174 105.925 45.4081 105.904 44.6507C105.883 43.8934 105.872 43.0881 105.872 42.2347H107.6C107.589 43.0561 107.589 43.8347 107.6 44.5707C107.611 45.2961 107.637 45.9841 107.68 46.6347L111.456 46.2987L111.616 47.8987L107.824 48.2347C107.877 48.7147 107.936 49.1734 108 49.6107C108.075 50.0481 108.155 50.4587 108.24 50.8427C108.464 50.4694 108.661 50.1014 108.832 49.7387C109.003 49.3654 109.141 48.9974 109.248 48.6347L110.896 49.2427C110.629 49.8934 110.331 50.5281 110 51.1467C109.669 51.7547 109.301 52.3361 108.896 52.8907C109.195 53.5947 109.557 54.1867 109.984 54.6667C110.091 54.3894 110.181 54.0961 110.256 53.7867C110.341 53.4774 110.4 53.2054 110.432 52.9707C110.539 53.0454 110.688 53.1307 110.88 53.2267C111.072 53.3227 111.269 53.4187 111.472 53.5147C111.675 53.6107 111.845 53.6907 111.984 53.7547C111.888 54.1387 111.76 54.5761 111.6 55.0667C111.451 55.5574 111.291 55.9734 111.12 56.3147C110.917 56.7414 110.629 56.9601 110.256 56.9707C109.883 56.9814 109.525 56.8107 109.184 56.4587C108.896 56.1601 108.624 55.8401 108.368 55.4987C108.112 55.1574 107.877 54.7841 107.664 54.3787C107.216 54.8481 106.731 55.2907 106.208 55.7067C105.685 56.1334 105.115 56.5281 104.496 56.8907C104.421 56.7627 104.309 56.6134 104.16 56.4427C104.021 56.2721 103.872 56.1067 103.712 55.9467C103.563 55.7867 103.424 55.6587 103.296 55.5627C103.669 55.3814 104.032 55.1734 104.384 54.9387C104.736 54.6934 105.077 54.4374 105.408 54.1707H102.08V56.8907H100.48ZM105.424 54.1547C105.701 53.9201 105.968 53.6747 106.224 53.4187C106.48 53.1627 106.725 52.9014 106.96 52.6347C106.779 52.0587 106.619 51.4187 106.48 50.7147C106.341 50.0107 106.229 49.2321 106.144 48.3787L104.784 48.4907V51.7067H102.08V52.6187H105.424V54.1547ZM100.368 45.4027C100.315 45.1574 100.235 44.8694 100.128 44.5387C100.032 44.1974 99.9253 43.8667 99.808 43.5467C99.7013 43.2267 99.5947 42.9761 99.488 42.7947L101.008 42.3147C101.115 42.5174 101.227 42.7787 101.344 43.0987C101.461 43.4081 101.573 43.7281 101.68 44.0587C101.787 44.3894 101.872 44.6987 101.936 44.9867C101.691 45.0081 101.413 45.0614 101.104 45.1467C100.805 45.2321 100.56 45.3174 100.368 45.4027ZM109.6 46.1067C109.387 45.7227 109.131 45.3227 108.832 44.9067C108.544 44.4801 108.261 44.1281 107.984 43.8507L109.296 43.0027C109.488 43.1947 109.691 43.4241 109.904 43.6907C110.128 43.9467 110.336 44.2027 110.528 44.4587C110.731 44.7147 110.885 44.9441 110.992 45.1467C110.779 45.2747 110.539 45.4294 110.272 45.6107C110.005 45.7814 109.781 45.9467 109.6 46.1067ZM98.016 45.6107C97.9413 45.3654 97.84 45.0881 97.712 44.7787C97.584 44.4694 97.4507 44.1707 97.312 43.8827C97.184 43.5947 97.056 43.3601 96.928 43.1787L98.4 42.5547C98.592 42.8641 98.7947 43.2481 99.008 43.7067C99.2213 44.1654 99.3973 44.5974 99.536 45.0027C99.3227 45.0561 99.056 45.1521 98.736 45.2907C98.4267 45.4187 98.1867 45.5254 98.016 45.6107ZM99.36 50.3467H100.48V49.3067H99.36V50.3467ZM99.36 48.1227H100.48V47.0987H99.36V48.1227ZM102.08 50.3467H103.152V49.3067H102.08V50.3467ZM102.08 48.1227H103.152V47.0987H102.08V48.1227ZM122.432 55.7387C122.389 55.5681 122.309 55.3654 122.192 55.1307C122.075 54.8961 121.936 54.6721 121.776 54.4587C121.627 54.2347 121.477 54.0534 121.328 53.9147C122.789 53.6907 123.899 53.2161 124.656 52.4907C125.424 51.7547 125.829 50.8907 125.872 49.8987C125.915 49.1094 125.771 48.4054 125.44 47.7867C125.109 47.1681 124.656 46.6667 124.08 46.2827C123.515 45.8987 122.891 45.6694 122.208 45.5947C122.123 46.5867 121.963 47.6001 121.728 48.6347C121.493 49.6694 121.173 50.6401 120.768 51.5467C120.373 52.4534 119.888 53.2214 119.312 53.8507C118.875 54.3201 118.448 54.5921 118.032 54.6667C117.627 54.7414 117.195 54.6827 116.736 54.4907C116.288 54.2987 115.893 53.9947 115.552 53.5787C115.211 53.1627 114.949 52.6721 114.768 52.1067C114.587 51.5307 114.512 50.9174 114.544 50.2667C114.597 49.2961 114.827 48.4107 115.232 47.6107C115.637 46.8001 116.181 46.1014 116.864 45.5147C117.547 44.9281 118.331 44.4854 119.216 44.1867C120.101 43.8881 121.045 43.7654 122.048 43.8187C122.859 43.8614 123.621 44.0427 124.336 44.3627C125.051 44.6827 125.675 45.1254 126.208 45.6907C126.752 46.2454 127.168 46.8907 127.456 47.6267C127.755 48.3627 127.877 49.1681 127.824 50.0427C127.749 51.5041 127.237 52.7307 126.288 53.7227C125.339 54.7041 124.053 55.3761 122.432 55.7387ZM117.232 52.5067C117.349 52.5921 117.472 52.6347 117.6 52.6347C117.728 52.6347 117.856 52.5707 117.984 52.4427C118.368 52.0587 118.72 51.5147 119.04 50.8107C119.371 50.1067 119.643 49.3121 119.856 48.4267C120.08 47.5414 120.224 46.6401 120.288 45.7227C119.552 45.8934 118.896 46.2027 118.32 46.6507C117.755 47.0987 117.307 47.6427 116.976 48.2827C116.645 48.9121 116.459 49.6054 116.416 50.3627C116.395 50.8641 116.459 51.3014 116.608 51.6747C116.768 52.0374 116.976 52.3147 117.232 52.5067ZM136.256 56.3787C136.117 56.1547 135.925 55.8934 135.68 55.5947C135.435 55.2961 135.189 55.0614 134.944 54.8907C136.405 54.2827 137.488 53.4667 138.192 52.4427C138.907 51.4081 139.28 50.0747 139.312 48.4427H136.512V51.6267H134.592V48.4587C134.069 48.4587 133.563 48.4641 133.072 48.4747C132.592 48.4747 132.165 48.4801 131.792 48.4907C131.429 48.4907 131.168 48.4961 131.008 48.5067V46.5867C131.125 46.5867 131.36 46.5921 131.712 46.6027C132.075 46.6134 132.507 46.6241 133.008 46.6347C133.52 46.6347 134.048 46.6401 134.592 46.6507C134.592 46.1601 134.587 45.6854 134.576 45.2267C134.576 44.7681 134.571 44.3627 134.56 44.0107C134.549 43.6481 134.533 43.3867 134.512 43.2267H136.576C136.565 43.3867 136.555 43.6481 136.544 44.0107C136.533 44.3734 136.523 44.7894 136.512 45.2587C136.512 45.7174 136.512 46.1867 136.512 46.6667H139.312C139.312 46.2934 139.307 45.8667 139.296 45.3867C139.285 44.9067 139.275 44.4427 139.264 43.9947C139.253 43.5361 139.243 43.1734 139.232 42.9067H141.232V46.6507C141.755 46.6401 142.256 46.6347 142.736 46.6347C143.227 46.6241 143.659 46.6187 144.032 46.6187C144.416 46.6081 144.699 46.5974 144.88 46.5867V48.5067C144.709 48.4961 144.432 48.4907 144.048 48.4907C143.675 48.4801 143.243 48.4747 142.752 48.4747C142.261 48.4641 141.755 48.4587 141.232 48.4587C141.2 50.4214 140.768 52.0374 139.936 53.3067C139.104 54.5654 137.877 55.5894 136.256 56.3787ZM154.544 55.8507V48.9227C153.733 49.4774 152.901 49.9947 152.048 50.4747C151.205 50.9441 150.379 51.3547 149.568 51.7067C149.483 51.5467 149.365 51.3601 149.216 51.1467C149.067 50.9334 148.907 50.7254 148.736 50.5227C148.576 50.3201 148.416 50.1601 148.256 50.0427C149.184 49.7121 150.144 49.2801 151.136 48.7467C152.128 48.2134 153.083 47.6214 154 46.9707C154.928 46.3201 155.776 45.6374 156.544 44.9227C157.312 44.2081 157.936 43.4987 158.416 42.7947L160.08 43.9307C159.621 44.5387 159.088 45.1414 158.48 45.7387C157.883 46.3254 157.237 46.8961 156.544 47.4507V55.8507H154.544ZM167.168 56.2027C167.093 56.0427 166.981 55.8561 166.832 55.6427C166.683 55.4294 166.523 55.2214 166.352 55.0187C166.192 54.8054 166.043 54.6401 165.904 54.5227C167.195 54.0321 168.395 53.4081 169.504 52.6507C170.624 51.8827 171.616 51.0134 172.48 50.0427C173.355 49.0721 174.059 48.0374 174.592 46.9387C174.144 46.9601 173.664 46.9867 173.152 47.0187C172.651 47.0401 172.192 47.0614 171.776 47.0827C171.36 47.0934 171.051 47.0987 170.848 47.0987C170.325 47.7814 169.749 48.4214 169.12 49.0187C168.501 49.6054 167.845 50.1334 167.152 50.6027C167.056 50.4854 166.917 50.3414 166.736 50.1707C166.565 50.0001 166.384 49.8294 166.192 49.6587C166.011 49.4881 165.84 49.3547 165.68 49.2587C166.469 48.8001 167.216 48.2294 167.92 47.5467C168.624 46.8534 169.248 46.1067 169.792 45.3067C170.336 44.4961 170.752 43.6961 171.04 42.9067L172.896 43.5627C172.768 43.8614 172.635 44.1547 172.496 44.4427C172.357 44.7307 172.208 45.0134 172.048 45.2907C172.507 45.2801 173.003 45.2694 173.536 45.2587C174.08 45.2374 174.576 45.2161 175.024 45.1947C175.472 45.1627 175.792 45.1307 175.984 45.0987L177.184 45.7867C176.683 47.3014 175.941 48.7254 174.96 50.0587C173.989 51.3921 172.837 52.5814 171.504 53.6267C170.181 54.6721 168.736 55.5307 167.168 56.2027ZM189.264 54.6667L188.224 53.8347C188.245 53.6641 188.256 53.3121 188.256 52.7787C188.267 52.2454 188.272 51.6107 188.272 50.8747C188.283 50.1387 188.288 49.3921 188.288 48.6347C188.288 47.6961 188.283 46.8801 188.272 46.1867C188.261 45.4934 188.245 44.9494 188.224 44.5547H190.272C190.251 44.7467 190.235 45.0561 190.224 45.4827C190.213 45.8987 190.203 46.3787 190.192 46.9227C190.192 47.4667 190.192 48.0107 190.192 48.5547V52.0427C190.651 51.8507 191.141 51.6161 191.664 51.3387C192.197 51.0614 192.72 50.7681 193.232 50.4587C193.755 50.1494 194.229 49.8454 194.656 49.5467C195.083 49.2481 195.419 48.9761 195.664 48.7307C195.664 48.9334 195.68 49.1841 195.712 49.4827C195.755 49.7814 195.797 50.0694 195.84 50.3467C195.893 50.6134 195.936 50.8054 195.968 50.9227C195.616 51.2214 195.152 51.5521 194.576 51.9147C194.011 52.2774 193.403 52.6347 192.752 52.9867C192.101 53.3387 191.467 53.6641 190.848 53.9627C190.24 54.2614 189.712 54.4961 189.264 54.6667ZM182.336 55.0347C182.197 54.8001 181.989 54.5334 181.712 54.2347C181.435 53.9361 181.179 53.6961 180.944 53.5147C181.829 53.0454 182.539 52.5334 183.072 51.9787C183.616 51.4241 184.011 50.8107 184.256 50.1387C184.501 49.4561 184.635 48.6987 184.656 47.8667C184.677 47.0347 184.619 46.1121 184.48 45.0987L186.352 44.9387C186.576 46.5387 186.597 47.9681 186.416 49.2267C186.245 50.4747 185.829 51.5734 185.168 52.5227C184.507 53.4721 183.563 54.3094 182.336 55.0347ZM199.776 56.0107C199.68 55.9147 199.531 55.7974 199.328 55.6587C199.125 55.5201 198.917 55.3921 198.704 55.2747C198.491 55.1574 198.309 55.0774 198.16 55.0347C198.608 54.5547 199.04 53.9734 199.456 53.2907C199.872 52.5974 200.267 51.8454 200.64 51.0347C201.013 50.2241 201.344 49.3921 201.632 48.5387C201.088 48.6027 200.56 48.6774 200.048 48.7627C199.547 48.8481 199.131 48.9334 198.8 49.0187C198.789 48.8801 198.763 48.6934 198.72 48.4587C198.677 48.2241 198.629 47.9947 198.576 47.7707C198.523 47.5361 198.469 47.3654 198.416 47.2587C198.661 47.2374 198.981 47.2107 199.376 47.1787C199.771 47.1361 200.208 47.0934 200.688 47.0507C201.168 46.9974 201.648 46.9547 202.128 46.9227C202.32 46.2507 202.475 45.5947 202.592 44.9547C202.72 44.3041 202.805 43.7014 202.848 43.1467L204.736 43.4827C204.683 43.9734 204.597 44.5014 204.48 45.0667C204.363 45.6214 204.219 46.1921 204.048 46.7787C204.261 46.7681 204.453 46.7627 204.624 46.7627C204.795 46.7521 204.944 46.7467 205.072 46.7467C205.499 46.7467 205.877 46.8161 206.208 46.9547C206.549 47.0827 206.821 47.3174 207.024 47.6587C207.227 47.9894 207.344 48.4534 207.376 49.0507C207.408 49.6374 207.339 50.3894 207.168 51.3067C206.955 52.4587 206.709 53.3601 206.432 54.0107C206.165 54.6614 205.829 55.1201 205.424 55.3867C205.019 55.6534 204.501 55.7867 203.872 55.7867C203.232 55.7867 202.672 55.6694 202.192 55.4347C202.203 55.1787 202.203 54.8694 202.192 54.5067C202.181 54.1441 202.149 53.8454 202.096 53.6107C202.629 53.8454 203.152 53.9627 203.664 53.9627C203.92 53.9627 204.139 53.8934 204.32 53.7547C204.512 53.6054 204.693 53.3174 204.864 52.8907C205.035 52.4534 205.205 51.8134 205.376 50.9707C205.536 50.1921 205.6 49.6161 205.568 49.2427C205.536 48.8587 205.435 48.6081 205.264 48.4907C205.093 48.3734 204.88 48.3147 204.624 48.3147C204.325 48.3147 203.968 48.3307 203.552 48.3627C203.221 49.3547 202.843 50.3307 202.416 51.2907C202 52.2507 201.563 53.1414 201.104 53.9627C200.656 54.7734 200.213 55.4561 199.776 56.0107ZM211.44 51.8507C211.269 51.5627 211.035 51.2214 210.736 50.8267C210.437 50.4321 210.112 50.0374 209.76 49.6427C209.408 49.2374 209.067 48.8694 208.736 48.5387C208.405 48.1974 208.117 47.9414 207.872 47.7707L209.28 46.5867C209.536 46.7787 209.835 47.0401 210.176 47.3707C210.517 47.6907 210.869 48.0427 211.232 48.4267C211.595 48.8107 211.931 49.1894 212.24 49.5627C212.549 49.9361 212.789 50.2614 212.96 50.5387L211.44 51.8507ZM212.16 45.2587C211.872 44.9921 211.515 44.7254 211.088 44.4587C210.672 44.1814 210.304 43.9734 209.984 43.8347L210.656 42.9227C210.837 43.0081 211.067 43.1361 211.344 43.3067C211.632 43.4774 211.915 43.6587 212.192 43.8507C212.48 44.0321 212.704 44.1921 212.864 44.3307L212.16 45.2587ZM211.072 46.7947C210.795 46.5281 210.443 46.2561 210.016 45.9787C209.6 45.7014 209.232 45.4881 208.912 45.3387L209.584 44.4427C209.765 44.5281 209.995 44.6614 210.272 44.8427C210.56 45.0134 210.843 45.1947 211.12 45.3867C211.397 45.5681 211.616 45.7281 211.776 45.8667L211.072 46.7947ZM221.008 56.6827C220.891 56.4694 220.725 56.2187 220.512 55.9307C220.309 55.6534 220.117 55.4241 219.936 55.2427C220.651 54.9014 221.307 54.5014 221.904 54.0427C222.501 53.5841 223.045 53.0827 223.536 52.5387C223.184 51.7921 222.88 50.9334 222.624 49.9627C222.368 48.9814 222.171 47.8614 222.032 46.6027H217.808V48.1547H221.504C221.504 48.7201 221.493 49.2961 221.472 49.8827C221.451 50.4587 221.413 51.0027 221.36 51.5147C221.317 52.0267 221.259 52.4641 221.184 52.8267C221.045 53.5734 220.773 54.0907 220.368 54.3787C219.963 54.6667 219.397 54.8107 218.672 54.8107H217.824C217.813 54.6401 217.787 54.4374 217.744 54.2027C217.701 53.9574 217.653 53.7227 217.6 53.4987C217.557 53.2641 217.504 53.0827 217.44 52.9547H218.336C218.731 52.9547 218.992 52.8961 219.12 52.7787C219.248 52.6614 219.344 52.4534 219.408 52.1547C219.472 51.8667 219.52 51.5147 219.552 51.0987C219.584 50.6721 219.6 50.2454 219.6 49.8187H217.744C217.691 50.8747 217.584 51.8081 217.424 52.6187C217.275 53.4187 217.072 54.1334 216.816 54.7627C216.56 55.3814 216.24 55.9521 215.856 56.4747C215.728 56.3787 215.541 56.2667 215.296 56.1387C215.061 56.0107 214.832 55.8934 214.608 55.7867C214.384 55.6907 214.224 55.6267 214.128 55.5947C214.555 55.0614 214.891 54.4321 215.136 53.7067C215.381 52.9707 215.557 52.1067 215.664 51.1147C215.771 50.1227 215.824 48.9601 215.824 47.6267V44.8267H221.888C221.867 44.4214 221.845 44.0001 221.824 43.5627C221.813 43.1147 221.808 42.6561 221.808 42.1867H223.712C223.712 42.6454 223.717 43.0987 223.728 43.5467C223.749 43.9841 223.771 44.4107 223.792 44.8267H226.16C225.904 44.5494 225.632 44.2881 225.344 44.0427C225.067 43.7974 224.805 43.5894 224.56 43.4187L225.744 42.2027C225.989 42.3521 226.261 42.5547 226.56 42.8107C226.859 43.0561 227.141 43.3067 227.408 43.5627C227.675 43.8187 227.883 44.0427 228.032 44.2347C227.936 44.2881 227.824 44.3734 227.696 44.4907C227.568 44.5974 227.435 44.7094 227.296 44.8267H228.912V46.6027H223.952C224.123 48.1921 224.427 49.5574 224.864 50.6987C225.451 49.6961 225.899 48.5974 226.208 47.4027L228.016 47.9627C227.525 49.7014 226.795 51.2587 225.824 52.6347C226.293 53.3601 226.869 53.9414 227.552 54.3787C227.648 54.0694 227.733 53.7494 227.808 53.4187C227.893 53.0881 227.952 52.7947 227.984 52.5387C228.101 52.6241 228.267 52.7201 228.48 52.8267C228.704 52.9227 228.928 53.0134 229.152 53.0987C229.376 53.1734 229.563 53.2321 229.712 53.2747C229.627 53.7654 229.499 54.2774 229.328 54.8107C229.157 55.3441 228.981 55.7761 228.8 56.1067C228.64 56.4161 228.405 56.6081 228.096 56.6827C227.797 56.7681 227.477 56.7094 227.136 56.5067C226.656 56.2294 226.192 55.9041 225.744 55.5307C225.307 55.1574 224.896 54.7094 224.512 54.1867C224.021 54.6881 223.483 55.1521 222.896 55.5787C222.309 55.9947 221.68 56.3627 221.008 56.6827ZM245.072 56.8907C244.027 56.6454 243.045 56.2667 242.128 55.7547C241.221 55.2534 240.421 54.6187 239.728 53.8507C239.035 53.0827 238.485 52.1761 238.08 51.1307H236.32V54.4267C236.981 54.2987 237.6 54.1761 238.176 54.0587C238.763 53.9307 239.216 53.8187 239.536 53.7227V55.3067C239.237 55.4027 238.843 55.5094 238.352 55.6267C237.872 55.7441 237.344 55.8667 236.768 55.9947C236.203 56.1227 235.637 56.2401 235.072 56.3467C234.507 56.4641 233.989 56.5654 233.52 56.6507C233.051 56.7361 232.677 56.7947 232.4 56.8267L231.84 55.1147C232.085 55.0934 232.437 55.0507 232.896 54.9867C233.365 54.9227 233.877 54.8481 234.432 54.7627V51.1307H231.488V49.5947H234.432V42.5707H244.416V44.0907H236.32V45.0027H243.664V46.3947H236.32V47.2907H243.648V48.6827H236.32V49.5947H246.08V51.1307H243.712L244.768 52.1227C244.48 52.3787 244.117 52.6721 243.68 53.0027C243.243 53.3227 242.821 53.6107 242.416 53.8667C242.96 54.2081 243.541 54.4907 244.16 54.7147C244.789 54.9281 245.429 55.0881 246.08 55.1947C245.963 55.3227 245.835 55.4881 245.696 55.6907C245.568 55.9041 245.445 56.1174 245.328 56.3307C245.211 56.5441 245.125 56.7307 245.072 56.8907ZM241.088 52.8107C241.301 52.6721 241.541 52.5067 241.808 52.3147C242.075 52.1121 242.341 51.9094 242.608 51.7067C242.875 51.4934 243.104 51.3014 243.296 51.1307H239.856C240.187 51.7601 240.597 52.3201 241.088 52.8107ZM250 55.7067C249.925 55.2694 249.867 54.7361 249.824 54.1067C249.781 53.4667 249.749 52.7734 249.728 52.0267C249.717 51.2694 249.717 50.4907 249.728 49.6907C249.749 48.8907 249.781 48.1121 249.824 47.3547C249.877 46.5867 249.941 45.8774 250.016 45.2267C250.101 44.5761 250.197 44.0214 250.304 43.5627L252.176 43.9467C252.059 44.3307 251.957 44.8321 251.872 45.4507C251.787 46.0587 251.717 46.7307 251.664 47.4667C251.611 48.1921 251.573 48.9387 251.552 49.7067C251.541 50.4747 251.547 51.2214 251.568 51.9467C251.589 52.6721 251.627 53.3281 251.68 53.9147C251.733 54.5014 251.803 54.9761 251.888 55.3387L250 55.7067ZM256.8 54.8427C254.955 54.7894 253.909 54.1867 253.664 53.0347C253.6 52.7467 253.579 52.4267 253.6 52.0747C253.621 51.7227 253.701 51.3334 253.84 50.9067L255.52 51.3227C255.445 51.5254 255.403 51.7067 255.392 51.8667C255.392 52.0267 255.413 52.1707 255.456 52.2987C255.595 52.6827 256.16 52.8907 257.152 52.9227C257.632 52.9334 258.144 52.9174 258.688 52.8747C259.243 52.8214 259.781 52.7467 260.304 52.6507C260.837 52.5547 261.301 52.4481 261.696 52.3307C261.675 52.4801 261.648 52.6827 261.616 52.9387C261.595 53.1947 261.579 53.4561 261.568 53.7227C261.557 53.9787 261.557 54.1921 261.568 54.3627C261.067 54.4907 260.528 54.5921 259.952 54.6667C259.387 54.7414 258.827 54.7947 258.272 54.8267C257.728 54.8481 257.237 54.8534 256.8 54.8427ZM254.4 47.0347L254.288 45.0667C254.693 45.1201 255.189 45.1521 255.776 45.1627C256.363 45.1734 256.971 45.1681 257.6 45.1467C258.24 45.1147 258.848 45.0667 259.424 45.0027C260.011 44.9281 260.496 44.8374 260.88 44.7307L260.8 46.6667C260.373 46.7414 259.877 46.8107 259.312 46.8747C258.747 46.9281 258.16 46.9707 257.552 47.0027C256.955 47.0347 256.379 47.0561 255.824 47.0667C255.28 47.0667 254.805 47.0561 254.4 47.0347ZM271.184 54.8107C271.152 54.6187 271.077 54.3947 270.96 54.1387C270.843 53.8827 270.709 53.6321 270.56 53.3867C270.421 53.1414 270.283 52.9441 270.144 52.7947C271.541 52.6881 272.747 52.4961 273.76 52.2187C274.784 51.9307 275.568 51.5467 276.112 51.0667C276.667 50.5867 276.928 49.9947 276.896 49.2907C276.832 47.7867 275.723 47.0827 273.568 47.1787C273.237 47.1894 272.832 47.2321 272.352 47.3067C271.872 47.3707 271.349 47.4561 270.784 47.5627C270.229 47.6694 269.669 47.7974 269.104 47.9467C268.549 48.0854 268.027 48.2347 267.536 48.3947C267.045 48.5441 266.629 48.6934 266.288 48.8427C266.288 48.8321 266.24 48.7254 266.144 48.5227C266.059 48.3094 265.957 48.0694 265.84 47.8027C265.733 47.5254 265.637 47.2854 265.552 47.0827C265.467 46.8694 265.419 46.7574 265.408 46.7467C265.739 46.6827 266.165 46.5974 266.688 46.4907C267.211 46.3734 267.781 46.2507 268.4 46.1227C269.029 45.9947 269.659 45.8774 270.288 45.7707C270.917 45.6534 271.509 45.5574 272.064 45.4827C272.629 45.3974 273.109 45.3494 273.504 45.3387C274.731 45.2854 275.739 45.4187 276.528 45.7387C277.317 46.0481 277.909 46.5014 278.304 47.0987C278.709 47.6961 278.928 48.4001 278.96 49.2107C278.992 50.0747 278.821 50.8267 278.448 51.4667C278.085 52.0961 277.557 52.6347 276.864 53.0827C276.171 53.5201 275.339 53.8827 274.368 54.1707C273.408 54.4481 272.347 54.6614 271.184 54.8107ZM288.688 56.5707C287.867 56.5281 287.221 56.2721 286.752 55.8027C286.283 55.3334 286.053 54.7627 286.064 54.0907C286.075 53.4614 286.347 52.9334 286.88 52.5067C287.424 52.0801 288.181 51.8827 289.152 51.9147C289.301 51.9254 289.451 51.9361 289.6 51.9467C289.749 51.9467 289.893 51.9574 290.032 51.9787V48.3467H291.856V52.4107C292.464 52.6134 293.04 52.8747 293.584 53.1947C294.139 53.5147 294.672 53.8774 295.184 54.2827C294.992 54.4534 294.784 54.6987 294.56 55.0187C294.347 55.3387 294.187 55.6214 294.08 55.8667C293.739 55.5574 293.381 55.2694 293.008 55.0027C292.635 54.7254 292.245 54.4854 291.84 54.2827C291.733 55.9041 290.683 56.6667 288.688 56.5707ZM284.272 53.7707C284.101 53.6214 283.856 53.4507 283.536 53.2587C283.216 53.0667 282.923 52.9227 282.656 52.8267C283.317 52.0694 283.909 51.1841 284.432 50.1707C284.955 49.1467 285.387 48.0854 285.728 46.9867C285.195 47.0614 284.699 47.1254 284.24 47.1787C283.781 47.2321 283.413 47.2694 283.136 47.2907L282.896 45.5147C283.269 45.5147 283.749 45.4881 284.336 45.4347C284.933 45.3814 285.557 45.3067 286.208 45.2107C286.325 44.7094 286.416 44.2187 286.48 43.7387C286.544 43.2481 286.587 42.7734 286.608 42.3147L288.384 42.5707C288.299 43.3707 288.187 44.1494 288.048 44.9067C288.421 44.8321 288.779 44.7574 289.12 44.6827C289.472 44.5974 289.787 44.5174 290.064 44.4427L290.304 46.1227C289.973 46.2187 289.573 46.3147 289.104 46.4107C288.645 46.5067 288.155 46.5974 287.632 46.6827C287.269 48.0267 286.8 49.2961 286.224 50.4907C285.648 51.6854 284.997 52.7787 284.272 53.7707ZM294.432 48.6667C294.261 48.4854 294.032 48.2827 293.744 48.0587C293.456 47.8347 293.147 47.6107 292.816 47.3867C292.485 47.1627 292.155 46.9601 291.824 46.7787C291.504 46.5974 291.221 46.4641 290.976 46.3787L291.92 44.9707C292.176 45.0774 292.475 45.2214 292.816 45.4027C293.157 45.5734 293.504 45.7707 293.856 45.9947C294.208 46.2081 294.533 46.4214 294.832 46.6347C295.131 46.8481 295.376 47.0454 295.568 47.2267L294.432 48.6667ZM288.832 54.9707C289.237 54.9707 289.536 54.8801 289.728 54.6987C289.931 54.5067 290.032 54.1761 290.032 53.7067V53.5947C289.701 53.5201 289.36 53.4721 289.008 53.4507C288.645 53.4401 288.352 53.4987 288.128 53.6267C287.915 53.7547 287.803 53.9361 287.792 54.1707C287.781 54.4054 287.867 54.5974 288.048 54.7467C288.229 54.8961 288.491 54.9707 288.832 54.9707ZM300.576 56.0107C300.48 55.9147 300.331 55.7974 300.128 55.6587C299.925 55.5201 299.717 55.3921 299.504 55.2747C299.291 55.1574 299.109 55.0774 298.96 55.0347C299.408 54.5547 299.84 53.9734 300.256 53.2907C300.672 52.5974 301.067 51.8454 301.44 51.0347C301.813 50.2241 302.144 49.3921 302.432 48.5387C301.888 48.6027 301.36 48.6774 300.848 48.7627C300.347 48.8481 299.931 48.9334 299.6 49.0187C299.589 48.8801 299.563 48.6934 299.52 48.4587C299.477 48.2241 299.429 47.9947 299.376 47.7707C299.323 47.5361 299.269 47.3654 299.216 47.2587C299.461 47.2374 299.781 47.2107 300.176 47.1787C300.571 47.1361 301.008 47.0934 301.488 47.0507C301.968 46.9974 302.448 46.9547 302.928 46.9227C303.12 46.2507 303.275 45.5947 303.392 44.9547C303.52 44.3041 303.605 43.7014 303.648 43.1467L305.536 43.4827C305.483 43.9734 305.397 44.5014 305.28 45.0667C305.163 45.6214 305.019 46.1921 304.848 46.7787C305.061 46.7681 305.253 46.7627 305.424 46.7627C305.595 46.7521 305.744 46.7467 305.872 46.7467C306.299 46.7467 306.677 46.8161 307.008 46.9547C307.349 47.0827 307.621 47.3174 307.824 47.6587C308.027 47.9894 308.144 48.4534 308.176 49.0507C308.208 49.6374 308.139 50.3894 307.968 51.3067C307.755 52.4587 307.509 53.3601 307.232 54.0107C306.965 54.6614 306.629 55.1201 306.224 55.3867C305.819 55.6534 305.301 55.7867 304.672 55.7867C304.032 55.7867 303.472 55.6694 302.992 55.4347C303.003 55.1787 303.003 54.8694 302.992 54.5067C302.981 54.1441 302.949 53.8454 302.896 53.6107C303.429 53.8454 303.952 53.9627 304.464 53.9627C304.72 53.9627 304.939 53.8934 305.12 53.7547C305.312 53.6054 305.493 53.3174 305.664 52.8907C305.835 52.4534 306.005 51.8134 306.176 50.9707C306.336 50.1921 306.4 49.6161 306.368 49.2427C306.336 48.8587 306.235 48.6081 306.064 48.4907C305.893 48.3734 305.68 48.3147 305.424 48.3147C305.125 48.3147 304.768 48.3307 304.352 48.3627C304.021 49.3547 303.643 50.3307 303.216 51.2907C302.8 52.2507 302.363 53.1414 301.904 53.9627C301.456 54.7734 301.013 55.4561 300.576 56.0107ZM312.24 51.8507C312.069 51.5627 311.835 51.2214 311.536 50.8267C311.237 50.4321 310.912 50.0374 310.56 49.6427C310.208 49.2374 309.867 48.8694 309.536 48.5387C309.205 48.1974 308.917 47.9414 308.672 47.7707L310.08 46.5867C310.336 46.7787 310.635 47.0401 310.976 47.3707C311.317 47.6907 311.669 48.0427 312.032 48.4267C312.395 48.8107 312.731 49.1894 313.04 49.5627C313.349 49.9361 313.589 50.2614 313.76 50.5387L312.24 51.8507ZM312.96 45.2587C312.672 44.9921 312.315 44.7254 311.888 44.4587C311.472 44.1814 311.104 43.9734 310.784 43.8347L311.456 42.9227C311.637 43.0081 311.867 43.1361 312.144 43.3067C312.432 43.4774 312.715 43.6587 312.992 43.8507C313.28 44.0321 313.504 44.1921 313.664 44.3307L312.96 45.2587ZM311.872 46.7947C311.595 46.5281 311.243 46.2561 310.816 45.9787C310.4 45.7014 310.032 45.4881 309.712 45.3387L310.384 44.4427C310.565 44.5281 310.795 44.6614 311.072 44.8427C311.36 45.0134 311.643 45.1947 311.92 45.3867C312.197 45.5681 312.416 45.7281 312.576 45.8667L311.872 46.7947ZM323.232 56.1067C321.952 56.1067 321.008 55.8667 320.4 55.3867C319.792 54.8961 319.488 54.2987 319.488 53.5947C319.488 53.1361 319.6 52.7467 319.824 52.4267C320.048 52.1067 320.341 51.8614 320.704 51.6907C321.067 51.5094 321.456 51.4187 321.872 51.4187C322.661 51.4187 323.296 51.6641 323.776 52.1547C324.267 52.6454 324.581 53.2534 324.72 53.9787C325.115 53.7974 325.435 53.5201 325.68 53.1467C325.936 52.7734 326.064 52.3254 326.064 51.8027C326.064 51.3547 325.957 50.9547 325.744 50.6027C325.531 50.2507 325.227 49.9734 324.832 49.7707C324.448 49.5574 324 49.4507 323.488 49.4507C322.773 49.4507 322.149 49.5361 321.616 49.7067C321.093 49.8774 320.619 50.1494 320.192 50.5227C320 50.6934 319.744 50.9121 319.424 51.1787C319.115 51.4454 318.821 51.6854 318.544 51.8987L317.232 50.4907C317.712 50.2134 318.224 49.8614 318.768 49.4347C319.312 49.0081 319.861 48.5334 320.416 48.0107C320.971 47.4881 321.499 46.9494 322 46.3947C322.501 45.8294 322.949 45.2747 323.344 44.7307C322.885 44.8374 322.384 44.9387 321.84 45.0347C321.307 45.1307 320.789 45.2107 320.288 45.2747C319.797 45.3387 319.381 45.3814 319.04 45.4027L318.688 43.5787C318.976 43.6001 319.333 43.6001 319.76 43.5787C320.197 43.5467 320.667 43.5094 321.168 43.4667C321.669 43.4134 322.155 43.3494 322.624 43.2747C323.104 43.2001 323.531 43.1254 323.904 43.0507C324.288 42.9654 324.571 42.8801 324.752 42.7947L326.192 43.7547C325.829 44.4694 325.328 45.2214 324.688 46.0107C324.059 46.7894 323.381 47.5414 322.656 48.2667C322.837 48.1814 323.04 48.1174 323.264 48.0747C323.488 48.0214 323.707 47.9947 323.92 47.9947C324.763 47.9947 325.493 48.1547 326.112 48.4747C326.731 48.7947 327.211 49.2427 327.552 49.8187C327.904 50.3841 328.08 51.0454 328.08 51.8027C328.08 52.6027 327.877 53.3281 327.472 53.9787C327.077 54.6294 326.517 55.1467 325.792 55.5307C325.067 55.9147 324.213 56.1067 323.232 56.1067ZM323.024 54.3467C322.971 53.9414 322.843 53.6161 322.64 53.3707C322.448 53.1254 322.192 53.0027 321.872 53.0027C321.701 53.0027 321.557 53.0454 321.44 53.1307C321.323 53.2161 321.264 53.3441 321.264 53.5147C321.264 53.7387 321.381 53.9254 321.616 54.0747C321.861 54.2241 322.267 54.3094 322.832 54.3307C322.864 54.3414 322.896 54.3467 322.928 54.3467C322.96 54.3467 322.992 54.3467 323.024 54.3467Z" fill="#004E88"/>
<path d="M150.593 12.613C150.696 12.613 150.787 12.6527 150.866 12.732L151.608 13.537C151.198 14.0457 150.691 14.4353 150.089 14.706C149.492 14.9767 148.773 15.112 147.933 15.112C147.182 15.112 146.505 14.9837 145.903 14.727C145.306 14.4703 144.795 14.1133 144.37 13.656C143.946 13.1987 143.619 12.6527 143.39 12.018C143.166 11.3833 143.054 10.6903 143.054 9.939C143.054 9.17833 143.176 8.483 143.418 7.853C143.661 7.21833 144.002 6.67233 144.44 6.215C144.884 5.75767 145.411 5.403 146.022 5.151C146.634 4.89433 147.31 4.766 148.052 4.766C148.79 4.766 149.443 4.88733 150.012 5.13C150.586 5.37267 151.074 5.69 151.475 6.082L150.845 6.957C150.808 7.013 150.759 7.062 150.698 7.104C150.642 7.146 150.563 7.167 150.46 7.167C150.39 7.167 150.318 7.14833 150.243 7.111C150.169 7.069 150.087 7.02 149.998 6.964C149.91 6.90333 149.807 6.838 149.69 6.768C149.574 6.698 149.438 6.635 149.284 6.579C149.13 6.51833 148.951 6.46933 148.745 6.432C148.545 6.39 148.311 6.369 148.045 6.369C147.593 6.369 147.177 6.45067 146.799 6.614C146.426 6.77267 146.104 7.006 145.833 7.314C145.563 7.61733 145.353 7.99067 145.203 8.434C145.054 8.87267 144.979 9.37433 144.979 9.939C144.979 10.5083 145.059 11.0147 145.217 11.458C145.381 11.9013 145.6 12.2747 145.875 12.578C146.151 12.8813 146.475 13.1147 146.848 13.278C147.222 13.4367 147.623 13.516 148.052 13.516C148.309 13.516 148.54 13.502 148.745 13.474C148.955 13.446 149.147 13.4017 149.319 13.341C149.497 13.2803 149.662 13.2033 149.816 13.11C149.975 13.012 150.131 12.893 150.285 12.753C150.332 12.711 150.381 12.6783 150.432 12.655C150.484 12.627 150.537 12.613 150.593 12.613ZM155.054 8.588C155.334 8.32667 155.642 8.11433 155.978 7.951C156.314 7.78767 156.709 7.706 157.161 7.706C157.553 7.706 157.901 7.77367 158.204 7.909C158.508 8.03967 158.76 8.22633 158.96 8.469C159.166 8.707 159.32 8.994 159.422 9.33C159.53 9.66133 159.583 10.0277 159.583 10.429V15H157.854V10.429C157.854 9.99033 157.754 9.652 157.553 9.414C157.353 9.17133 157.047 9.05 156.636 9.05C156.338 9.05 156.058 9.11767 155.796 9.253C155.535 9.38833 155.288 9.57267 155.054 9.806V15H153.325V4.598H155.054V8.588ZM165.722 11.934C165.222 11.9573 164.802 12.0017 164.462 12.067C164.121 12.1277 163.848 12.207 163.643 12.305C163.437 12.403 163.29 12.5173 163.202 12.648C163.113 12.7787 163.069 12.921 163.069 13.075C163.069 13.3783 163.157 13.5953 163.335 13.726C163.517 13.8567 163.752 13.922 164.042 13.922C164.396 13.922 164.702 13.859 164.959 13.733C165.22 13.6023 165.474 13.4063 165.722 13.145V11.934ZM161.76 8.819C162.586 8.063 163.58 7.685 164.742 7.685C165.162 7.685 165.537 7.755 165.869 7.895C166.2 8.03033 166.48 8.22167 166.709 8.469C166.937 8.71167 167.11 9.00333 167.227 9.344C167.348 9.68467 167.409 10.058 167.409 10.464V15H166.625C166.461 15 166.335 14.9767 166.247 14.93C166.158 14.8787 166.088 14.7783 166.037 14.629L165.883 14.111C165.701 14.2743 165.523 14.419 165.351 14.545C165.178 14.6663 164.998 14.769 164.812 14.853C164.625 14.937 164.424 15 164.21 15.042C164 15.0887 163.766 15.112 163.51 15.112C163.206 15.112 162.926 15.0723 162.67 14.993C162.413 14.909 162.191 14.7853 162.005 14.622C161.818 14.4587 161.673 14.2557 161.571 14.013C161.468 13.7703 161.417 13.488 161.417 13.166C161.417 12.984 161.447 12.8043 161.508 12.627C161.568 12.445 161.666 12.2723 161.802 12.109C161.942 11.9457 162.121 11.7917 162.341 11.647C162.56 11.5023 162.828 11.3763 163.146 11.269C163.468 11.1617 163.841 11.0753 164.266 11.01C164.69 10.94 165.176 10.898 165.722 10.884V10.464C165.722 9.98333 165.619 9.62867 165.414 9.4C165.208 9.16667 164.912 9.05 164.525 9.05C164.245 9.05 164.011 9.08267 163.825 9.148C163.643 9.21333 163.482 9.288 163.342 9.372C163.202 9.45133 163.073 9.52367 162.957 9.589C162.845 9.65433 162.719 9.687 162.579 9.687C162.457 9.687 162.355 9.65667 162.271 9.596C162.187 9.53067 162.119 9.456 162.068 9.372L161.76 8.819ZM171.487 4.598V15H169.758V4.598H171.487ZM175.66 4.598V15H173.931V4.598H175.66ZM182.709 10.583C182.709 10.359 182.677 10.149 182.611 9.953C182.551 9.75233 182.457 9.57733 182.331 9.428C182.205 9.27867 182.044 9.162 181.848 9.078C181.657 8.98933 181.433 8.945 181.176 8.945C180.677 8.945 180.283 9.08733 179.993 9.372C179.709 9.65667 179.527 10.0603 179.447 10.583H182.709ZM179.412 11.626C179.44 11.9947 179.506 12.3143 179.608 12.585C179.711 12.851 179.846 13.0727 180.014 13.25C180.182 13.4227 180.381 13.5533 180.609 13.642C180.843 13.726 181.099 13.768 181.379 13.768C181.659 13.768 181.9 13.7353 182.1 13.67C182.306 13.6047 182.483 13.5323 182.632 13.453C182.786 13.3737 182.919 13.3013 183.031 13.236C183.148 13.1707 183.26 13.138 183.367 13.138C183.512 13.138 183.619 13.1917 183.689 13.299L184.186 13.929C183.995 14.153 183.78 14.342 183.542 14.496C183.304 14.6453 183.055 14.7667 182.793 14.86C182.537 14.9487 182.273 15.0117 182.002 15.049C181.736 15.0863 181.477 15.105 181.225 15.105C180.726 15.105 180.262 15.0233 179.832 14.86C179.403 14.692 179.03 14.447 178.712 14.125C178.395 13.7983 178.145 13.397 177.963 12.921C177.781 12.4403 177.69 11.885 177.69 11.255C177.69 10.765 177.77 10.3053 177.928 9.876C178.087 9.442 178.313 9.06633 178.607 8.749C178.906 8.427 179.268 8.17267 179.692 7.986C180.122 7.79933 180.605 7.706 181.141 7.706C181.594 7.706 182.012 7.77833 182.394 7.923C182.777 8.06767 183.106 8.28 183.381 8.56C183.657 8.83533 183.871 9.176 184.025 9.582C184.184 9.98333 184.263 10.443 184.263 10.961C184.263 11.2223 184.235 11.3997 184.179 11.493C184.123 11.5817 184.016 11.626 183.857 11.626H179.412ZM187.878 8.7C188.023 8.55533 188.174 8.42233 188.333 8.301C188.496 8.175 188.667 8.07 188.844 7.986C189.026 7.89733 189.22 7.82967 189.425 7.783C189.63 7.73167 189.854 7.706 190.097 7.706C190.489 7.706 190.837 7.77367 191.14 7.909C191.443 8.03967 191.695 8.22633 191.896 8.469C192.101 8.707 192.255 8.994 192.358 9.33C192.465 9.66133 192.519 10.0277 192.519 10.429V15H190.79V10.429C190.79 9.99033 190.69 9.652 190.489 9.414C190.288 9.17133 189.983 9.05 189.572 9.05C189.273 9.05 188.993 9.11767 188.732 9.253C188.471 9.38833 188.223 9.57267 187.99 9.806V15H186.261V7.818H187.318C187.542 7.818 187.689 7.923 187.759 8.133L187.878 8.7ZM197.488 11.234C197.703 11.234 197.89 11.206 198.048 11.15C198.207 11.0893 198.338 11.0077 198.44 10.905C198.548 10.8023 198.627 10.6787 198.678 10.534C198.734 10.3893 198.762 10.2307 198.762 10.058C198.762 9.70333 198.655 9.42333 198.44 9.218C198.23 9.008 197.913 8.903 197.488 8.903C197.064 8.903 196.744 9.008 196.529 9.218C196.319 9.42333 196.214 9.70333 196.214 10.058C196.214 10.226 196.24 10.3823 196.291 10.527C196.347 10.6717 196.427 10.7977 196.529 10.905C196.637 11.0077 196.77 11.0893 196.928 11.15C197.092 11.206 197.278 11.234 197.488 11.234ZM199.441 15.322C199.441 15.182 199.399 15.0677 199.315 14.979C199.231 14.8903 199.117 14.8227 198.972 14.776C198.828 14.7247 198.657 14.6873 198.461 14.664C198.27 14.6407 198.065 14.6243 197.845 14.615C197.631 14.601 197.407 14.5893 197.173 14.58C196.945 14.5707 196.721 14.552 196.501 14.524C196.31 14.6313 196.154 14.7573 196.032 14.902C195.916 15.0467 195.857 15.2147 195.857 15.406C195.857 15.532 195.888 15.6487 195.948 15.756C196.014 15.868 196.114 15.9637 196.249 16.043C196.389 16.1223 196.569 16.183 196.788 16.225C197.008 16.2717 197.276 16.295 197.593 16.295C197.915 16.295 198.193 16.2693 198.426 16.218C198.66 16.1713 198.851 16.1037 199 16.015C199.154 15.931 199.266 15.8283 199.336 15.707C199.406 15.5903 199.441 15.462 199.441 15.322ZM201.163 8.063V8.707C201.163 8.91233 201.04 9.03833 200.792 9.085L200.148 9.204C200.246 9.45133 200.295 9.722 200.295 10.016C200.295 10.3707 200.223 10.6927 200.078 10.982C199.938 11.2667 199.742 11.5093 199.49 11.71C199.238 11.9107 198.94 12.067 198.594 12.179C198.254 12.2863 197.885 12.34 197.488 12.34C197.348 12.34 197.213 12.333 197.082 12.319C196.952 12.305 196.823 12.2863 196.697 12.263C196.473 12.3983 196.361 12.55 196.361 12.718C196.361 12.8627 196.427 12.97 196.557 13.04C196.693 13.1053 196.87 13.152 197.089 13.18C197.309 13.208 197.558 13.2267 197.838 13.236C198.118 13.2407 198.405 13.2547 198.699 13.278C198.993 13.3013 199.28 13.3433 199.56 13.404C199.84 13.46 200.09 13.551 200.309 13.677C200.529 13.803 200.704 13.9757 200.834 14.195C200.97 14.4097 201.037 14.6873 201.037 15.028C201.037 15.3453 200.958 15.6533 200.799 15.952C200.645 16.2507 200.419 16.5167 200.12 16.75C199.826 16.9833 199.462 17.17 199.028 17.31C198.599 17.4547 198.109 17.527 197.558 17.527C197.017 17.527 196.546 17.4733 196.144 17.366C195.743 17.2633 195.409 17.1233 195.143 16.946C194.877 16.7733 194.679 16.5727 194.548 16.344C194.418 16.1153 194.352 15.8773 194.352 15.63C194.352 15.294 194.453 15.014 194.653 14.79C194.859 14.5613 195.139 14.3793 195.493 14.244C195.302 14.146 195.15 14.0153 195.038 13.852C194.926 13.6887 194.87 13.474 194.87 13.208C194.87 13.1007 194.889 12.991 194.926 12.879C194.968 12.7623 195.027 12.648 195.101 12.536C195.181 12.424 195.279 12.319 195.395 12.221C195.512 12.1183 195.65 12.0273 195.808 11.948C195.444 11.752 195.157 11.4907 194.947 11.164C194.742 10.8373 194.639 10.4547 194.639 10.016C194.639 9.66133 194.709 9.34167 194.849 9.057C194.994 8.76767 195.192 8.52267 195.444 8.322C195.701 8.11667 196.002 7.96033 196.347 7.853C196.697 7.74567 197.078 7.692 197.488 7.692C197.796 7.692 198.086 7.72467 198.356 7.79C198.627 7.85067 198.874 7.94167 199.098 8.063H201.163ZM207.464 10.583C207.464 10.359 207.431 10.149 207.366 9.953C207.305 9.75233 207.212 9.57733 207.086 9.428C206.96 9.27867 206.799 9.162 206.603 9.078C206.411 8.98933 206.187 8.945 205.931 8.945C205.431 8.945 205.037 9.08733 204.748 9.372C204.463 9.65667 204.281 10.0603 204.202 10.583H207.464ZM204.167 11.626C204.195 11.9947 204.26 12.3143 204.363 12.585C204.465 12.851 204.601 13.0727 204.769 13.25C204.937 13.4227 205.135 13.5533 205.364 13.642C205.597 13.726 205.854 13.768 206.134 13.768C206.414 13.768 206.654 13.7353 206.855 13.67C207.06 13.6047 207.237 13.5323 207.387 13.453C207.541 13.3737 207.674 13.3013 207.786 13.236C207.902 13.1707 208.014 13.138 208.122 13.138C208.266 13.138 208.374 13.1917 208.444 13.299L208.941 13.929C208.749 14.153 208.535 14.342 208.297 14.496C208.059 14.6453 207.809 14.7667 207.548 14.86C207.291 14.9487 207.027 15.0117 206.757 15.049C206.491 15.0863 206.232 15.105 205.98 15.105C205.48 15.105 205.016 15.0233 204.587 14.86C204.157 14.692 203.784 14.447 203.467 14.125C203.149 13.7983 202.9 13.397 202.718 12.921C202.536 12.4403 202.445 11.885 202.445 11.255C202.445 10.765 202.524 10.3053 202.683 9.876C202.841 9.442 203.068 9.06633 203.362 8.749C203.66 8.427 204.022 8.17267 204.447 7.986C204.876 7.79933 205.359 7.706 205.896 7.706C206.348 7.706 206.766 7.77833 207.149 7.923C207.531 8.06767 207.86 8.28 208.136 8.56C208.411 8.83533 208.626 9.176 208.78 9.582C208.938 9.98333 209.018 10.443 209.018 10.961C209.018 11.2223 208.99 11.3997 208.934 11.493C208.878 11.5817 208.77 11.626 208.612 11.626H204.167Z" fill="#004E88"/>
<path d="M122.678 1.96973L132.077 18.7888" stroke="#004E88" stroke-width="0.989359"/>
<path d="M228.047 1.96973L218.648 18.7888" stroke="#004E88" stroke-width="0.989359"/>
</svg>
