<svg width="9" height="14" viewBox="0 0 9 14" fill="none" xmlns="http://www.w3.org/2000/svg">
<path d="M0.840542 0.23427C1.0066 -0.00130399 1.35504 -0.0701887 1.61397 0.0780213L8.54063 6.1063C8.70123 6.19939 8.80037 6.36073 8.80039 6.53403C8.80039 6.70735 8.70126 6.86865 8.54063 6.96176L1.26143 13.1209L1.18917 13.1551C1.11545 13.1849 1.03776 13.2 0.960657 13.2L0.891322 13.1961C0.754333 13.1806 0.624335 13.119 0.530976 13.0184L0.488008 12.9646C0.322024 12.729 0.398771 12.415 0.65988 12.2645L7.19885 6.53403L1.01339 0.934461C0.752314 0.784005 0.674805 0.469935 0.840542 0.23427Z" fill="white"/>
</svg>
