<svg width="9" height="14" viewBox="0 0 9 14" fill="none" xmlns="http://www.w3.org/2000/svg">
<path d="M0.440151 0.23427C0.606214 -0.00130399 0.954654 -0.0701887 1.21358 0.0780213L8.14024 6.1063C8.30084 6.19939 8.39998 6.36073 8.4 6.53403C8.4 6.70735 8.30087 6.86865 8.14024 6.96176L0.861044 13.1209L0.788779 13.1551C0.71506 13.1849 0.637373 13.2 0.560267 13.2L0.490932 13.1961C0.353943 13.1806 0.223945 13.119 0.130585 13.0184L0.0876171 12.9646C-0.0783667 12.729 -0.00162006 12.415 0.25949 12.2645L6.79846 6.53403L0.613 0.934461C0.351923 0.784005 0.274414 0.469935 0.440151 0.23427Z" fill="#06C755"/>
</svg>
