<svg width="11" height="16" viewBox="0 0 11 16" fill="none" xmlns="http://www.w3.org/2000/svg">
<mask id="path-1-inside-1_1686_2469" fill="white">
<path d="M0.979202 15.6311C0.788706 15.3607 0.877691 15.0007 1.17729 14.828L8.677 8.25508L1.58232 1.8321C1.28272 1.65944 1.19373 1.29937 1.38423 1.02903C1.5748 0.758686 1.97458 0.680318 2.27161 0.850684L10.2161 7.76437C10.4003 7.87115 10.5131 8.05629 10.5131 8.25508C10.5131 8.45387 10.4004 8.63899 10.2161 8.74579L1.86657 15.8094C1.75879 15.8707 1.63973 15.9003 1.52193 15.9003C1.31013 15.9003 1.10209 15.8049 0.979202 15.6311Z"/>
</mask>
<path d="M0.979202 15.6311L-1.66316 17.4929L-1.66002 17.4974L0.979202 15.6311ZM1.17729 14.828L2.79119 17.6287L3.06776 17.4693L3.30783 17.2589L1.17729 14.828ZM8.677 8.25508L10.8075 10.686L13.5365 8.29423L10.8464 5.85879L8.677 8.25508ZM1.58232 1.8321L3.75174 -0.564187L3.49563 -0.796052L3.1963 -0.968552L1.58232 1.8321ZM1.38423 1.02903L-1.25774 -0.833377L-1.25809 -0.832875L1.38423 1.02903ZM2.27161 0.850684L4.3936 -1.5877L4.15465 -1.79565L3.87987 -1.95325L2.27161 0.850684ZM10.2161 7.76437L8.09413 10.2028L8.32748 10.4058L8.59511 10.561L10.2161 7.76437ZM10.2161 8.74579L8.59507 5.94923L8.34716 6.09293L8.1284 6.278L10.2161 8.74579ZM1.86657 15.8094L3.46526 18.6188L3.7256 18.4707L3.95428 18.2772L1.86657 15.8094ZM0.979202 15.6311L3.62156 13.7692C4.61674 15.1816 3.99956 16.9324 2.79119 17.6287L1.17729 14.828L-0.436596 12.0273C-2.24417 13.0689 -3.03933 15.5398 -1.66316 17.4929L0.979202 15.6311ZM1.17729 14.828L3.30783 17.2589L10.8075 10.686L8.677 8.25508L6.54647 5.82415L-0.953235 12.3971L1.17729 14.828ZM8.677 8.25508L10.8464 5.85879L3.75174 -0.564187L1.58232 1.8321L-0.587094 4.22839L6.50758 10.6514L8.677 8.25508ZM1.58232 1.8321L3.1963 -0.968552C4.40454 -0.272257 5.02182 1.4785 4.02656 2.89093L1.38423 1.02903L-1.25809 -0.832875C-2.63435 1.12024 -1.83911 3.59115 -0.0316499 4.63275L1.58232 1.8321ZM1.38423 1.02903L4.0262 2.89143C3.1852 4.08446 1.70556 4.25241 0.66334 3.65462L2.27161 0.850684L3.87987 -1.95325C2.24361 -2.89177 -0.0355912 -2.56709 -1.25774 -0.833377L1.38423 1.02903ZM2.27161 0.850684L0.149613 3.28907L8.09413 10.2028L10.2161 7.76437L12.3381 5.32599L4.3936 -1.5877L2.27161 0.850684ZM10.2161 7.76437L8.59511 10.561C7.88003 10.1465 7.28072 9.31823 7.28072 8.25508H10.5131H13.7456C13.7456 6.79435 12.9206 5.59583 11.8371 4.96778L10.2161 7.76437ZM10.5131 8.25508H7.28072C7.28072 7.19193 7.88004 6.3637 8.59507 5.94923L10.2161 8.74579L11.8372 11.5423C12.9207 10.9143 13.7456 9.71581 13.7456 8.25508H10.5131ZM10.2161 8.74579L8.1284 6.278L-0.221154 13.3416L1.86657 15.8094L3.95428 18.2772L12.3038 11.2136L10.2161 8.74579ZM1.86657 15.8094L0.267872 13C0.665191 12.7739 1.10011 12.6678 1.52193 12.6678V15.9003V19.1327C2.17934 19.1327 2.85239 18.9676 3.46526 18.6188L1.86657 15.8094ZM1.52193 15.9003V12.6678C2.23237 12.6678 3.06562 12.983 3.61842 13.7648L0.979202 15.6311L-1.66002 17.4974C-0.861436 18.6267 0.387887 19.1327 1.52193 19.1327V15.9003Z" fill="black" mask="url(#path-1-inside-1_1686_2469)"/>
</svg>
