<svg width="56" height="56" viewBox="0 0 56 56" fill="none" xmlns="http://www.w3.org/2000/svg">
<g clip-path="url(#clip0_2112_19)">
<path d="M52.7959 33.3475C52.7959 29.8259 50.3781 26.7088 46.6684 24.8051C46.4876 24.7133 46.2713 24.8244 46.2402 25.0244C46.1543 25.5918 46.0328 26.1533 45.8743 26.7088C45.5439 27.8689 45.0521 29.0067 44.4135 30.0897C43.7987 31.1326 43.0416 32.1356 42.1631 33.0675C41.3083 33.9757 40.332 34.826 39.2594 35.595C38.2016 36.355 37.04 37.0424 35.8089 37.6394C34.5778 38.2365 33.2637 38.7491 31.9036 39.1609C30.5614 39.5684 29.1792 39.8795 27.7688 40.0943C27.508 40.1343 27.4236 40.4676 27.6354 40.6247C30.2962 42.6084 34.0326 43.8425 38.1719 43.8425C38.4401 43.8425 38.7068 43.8366 38.9705 43.8277C42.6179 48.3093 45.9158 48.1108 47.0432 47.8708C47.2328 47.8308 47.3306 47.6233 47.2447 47.45C46.7899 46.5285 46.3247 44.0277 46.0284 42.201C50.0981 40.3373 52.7959 37.0691 52.7959 33.3475Z" fill="white"/>
<path d="M42.9926 23.439C42.9926 27.0839 40.9888 30.5289 37.3523 33.1391C33.6352 35.8064 28.6768 37.2745 23.3959 37.2745C23.0381 37.2745 22.6736 37.2678 22.3125 37.2543C22.0605 37.2442 21.8203 37.3534 21.6608 37.5483C19.2454 40.5146 16.5865 42.3589 13.9712 42.8829C12.9802 43.0811 12.174 43.0509 11.6617 42.9887C11.6902 42.9098 11.7221 42.8275 11.7507 42.7418C11.9321 42.2245 12.1202 41.5425 12.3134 40.7128C12.609 39.4429 12.9164 37.8271 13.2271 35.9139C13.2842 35.5579 13.0978 35.2085 12.7702 35.059C7.15342 32.4857 3.80078 28.1404 3.80078 23.439C3.80078 19.7941 5.80296 16.3491 9.43945 13.7389C13.1566 11.0716 18.115 9.60352 23.3959 9.60352C28.6768 9.60352 33.6352 11.0732 37.3523 13.7389C40.9888 16.3491 42.9926 19.7941 42.9926 23.439Z" fill="#004E88"/>
<path d="M14.8064 26.7183C16.3154 26.7183 17.5386 25.4951 17.5386 23.9861C17.5386 22.4772 16.3154 21.2539 14.8064 21.2539C13.2975 21.2539 12.0742 22.4772 12.0742 23.9861C12.0742 25.4951 13.2975 26.7183 14.8064 26.7183Z" fill="white"/>
<path d="M23.7674 26.7183C25.2763 26.7183 26.4996 25.4951 26.4996 23.9861C26.4996 22.4772 25.2763 21.2539 23.7674 21.2539C22.2584 21.2539 21.0352 22.4772 21.0352 23.9861C21.0352 25.4951 22.2584 26.7183 23.7674 26.7183Z" fill="white"/>
<path d="M32.7244 26.7183C34.2333 26.7183 35.4566 25.4951 35.4566 23.9861C35.4566 22.4772 34.2333 21.2539 32.7244 21.2539C31.2154 21.2539 29.9922 22.4772 29.9922 23.9861C29.9922 25.4951 31.2154 26.7183 32.7244 26.7183Z" fill="white"/>
</g>
<defs>
<clipPath id="clip0_2112_19">
<rect width="50.5948" height="39.974" fill="white" transform="translate(2.20312 8)"/>
</clipPath>
</defs>
</svg>
