<svg width="273" height="116" viewBox="0 0 273 116" fill="none" xmlns="http://www.w3.org/2000/svg">
<path d="M0 115H270" stroke="black" stroke-width="1.03773"/>
<g clip-path="url(#clip0_1793_2)">
<path d="M9.90235 3.24237H2.22266V5.79112H9.90235V3.24237Z" fill="#004E88"/>
<path d="M9.90201 14.5906H2.19727V17.0809H9.90201V14.5906Z" fill="black"/>
<path d="M9.90201 10.8217H2.19727V13.312H9.90201V10.8217Z" fill="black"/>
<path d="M17.7501 10.8969V10.1198H25.1874V7.28691H19.4047V2.4986H16.2208V7.2869H11.6748V10.1198H14.6163V10.8969C14.6163 13.2201 14.4826 15.2256 14.1985 16.9221C13.9227 18.6184 13.4631 20.0892 12.8113 21.351C12.1595 22.6045 11.2821 23.7661 10.1706 24.819V18.4179H2.08984V26.131H10.1706V25.3789C10.5467 25.5962 10.9227 25.8469 11.2988 26.1393C11.6748 26.4318 12.0007 26.7076 12.2849 26.9583C13.7138 25.638 14.8587 24.0335 15.7278 22.1365C16.5885 20.248 17.1735 18.0168 17.4827 15.4513H20.608C20.608 17.0725 20.5495 18.4596 20.4409 19.6128C20.3239 20.7661 20.1651 21.6936 19.9729 22.404C19.9061 22.6547 19.8225 22.8636 19.7222 23.0391L21.7779 25.7466C22.2543 25.2535 22.6052 24.5349 22.8309 23.5822C23.115 22.3872 23.3155 20.8998 23.4242 19.1031C23.5328 17.3064 23.5829 15.1505 23.5829 12.61H17.725C17.725 12.3426 17.725 12.0669 17.7333 11.766C17.7417 11.4735 17.7501 11.1894 17.7501 10.8969Z" fill="black"/>
<path d="M7.44624 20.8831H4.82227V23.6659H7.44624V20.8831Z" fill="white"/>
<path d="M11.0049 7.06964H0.910156V9.53484H11.0049V7.06964Z" fill="black"/>
<path d="M21.7778 25.7466C21.6691 25.8636 21.5438 25.9722 21.4184 26.0642C20.7582 26.5322 19.8474 26.7745 18.6858 26.7745H16.6217C16.6051 26.4987 16.5633 26.1728 16.4881 25.78C16.4212 25.3873 16.346 25.0029 16.2624 24.6185C16.1789 24.2341 16.0953 23.9416 16.0117 23.7494H18.151C18.7694 23.7494 19.2039 23.6408 19.4296 23.4235C19.5382 23.3232 19.6385 23.1979 19.722 23.0391L21.7778 25.7466Z" fill="#FFA300"/>
<path d="M35.8418 5.35654V6.77716H31.4463V5.35654H35.8418V3.16711H28.3711V26.7995H31.4463V12.2674H38.8335V5.35654H35.8418ZM35.8418 10.0947H31.4463V8.62399H35.8418V10.0947ZM34.6051 14.4067V22.3538H44.6998V14.4067H34.6051ZM41.6497 19.9722H37.6636V16.8134H41.6497V19.9722ZM40.7137 3.16712V12.2674H48.126V22.3538L50.9673 25.4625C51.1428 25.0864 51.2263 24.6184 51.2263 24.0669V3.16712H40.7137ZM48.126 10.0947H43.7054V8.62399H48.126V10.0947ZM48.126 6.77716H43.7054V5.35654H48.126V6.77716Z" fill="black"/>
<path d="M50.966 25.4625C50.849 25.7216 50.6902 25.9388 50.4897 26.1143C49.9966 26.5489 49.2028 26.7745 48.0997 26.7745H45.9855C45.9604 26.482 45.9187 26.1478 45.8518 25.7633C45.7766 25.379 45.693 25.0113 45.6094 24.6436C45.5175 24.2759 45.4172 23.9751 45.3086 23.7494H47.1053C47.4646 23.7494 47.7237 23.6825 47.8824 23.5572C48.0412 23.4319 48.1248 23.223 48.1248 22.9138V22.3539L50.966 25.4625Z" fill="#004E88"/>
<path d="M64.823 13.5795H78.5779V11.0641H66.0597C66.1433 10.8301 66.2352 10.5962 66.3271 10.3621C66.4107 10.1366 66.4943 9.90254 66.5611 9.66858H76.6559V7.15325H67.1795C67.2129 6.90256 67.2547 6.65182 67.2965 6.39277C67.3466 6.13372 67.3801 5.86631 67.3968 5.59889C69.1934 5.44016 70.9065 5.25629 72.5193 5.03901C72.5611 5.03065 72.6112 5.03065 72.6531 5.02233L71.7088 2.66577C70.823 2.79109 69.8452 2.92483 68.784 3.04178C67.4636 3.20055 66.0848 3.32592 64.6391 3.41783C63.1934 3.51811 61.7477 3.59333 60.302 3.63511C58.8564 3.67688 57.5026 3.69361 56.2324 3.67688C56.341 3.90253 56.4831 4.27022 56.6502 4.75492C56.8173 5.24793 56.9343 5.69085 57.0095 6.08359C57.9538 6.10032 59.0569 6.08359 60.3187 6.02508C61.5722 5.97494 62.8842 5.91645 64.263 5.84126C64.2296 6.05854 64.1878 6.27582 64.1377 6.49305C64.0959 6.71869 64.0541 6.93597 64.0207 7.15325H56.3159V9.66859H63.3522C63.277 9.90255 63.1934 10.1366 63.1015 10.3622C63.0012 10.5962 62.9093 10.8301 62.8174 11.0641H54.444V13.5795H61.3967C60.5611 14.7911 59.4998 15.8942 58.2296 16.8803C56.951 17.8747 55.3883 18.7605 53.5332 19.546C53.8508 19.78 54.2101 20.131 54.6028 20.6157C54.9956 21.1004 55.2797 21.5099 55.4552 21.8441C56.3995 21.3678 57.302 20.8413 58.1627 20.2814C59.0151 19.7215 59.8173 19.1199 60.5694 18.4764V26.8497H72.2686V24.6519H63.8034V23.3149H72.2686V24.6519H75.4776V14.858H63.9706C64.1126 14.6658 64.2547 14.4569 64.4134 14.248C64.5639 14.0307 64.6976 13.8051 64.823 13.5795ZM72.2686 21.4681H63.8034V20.2396H72.2686V21.4681ZM72.2686 17.0558V18.3678H63.8034V17.0558H72.2686Z" fill="black"/>
<path d="M75.4765 24.6519H72.2676V26.8497H75.4765V24.6519Z" fill="#FFA300"/>
<path d="M76.4118 4.34538C75.4508 4.58776 74.2056 4.80504 72.6513 5.02232L71.707 2.66575C71.9243 2.63229 72.1332 2.59888 72.3421 2.56548C73.395 2.38997 74.2224 2.21447 74.8324 2.01392L76.4118 4.34538Z" fill="#004E88"/>
<path d="M114.034 9.83568C113.432 9.95268 112.855 10.0697 112.312 10.1783C111.167 10.4123 110.273 10.6045 109.655 10.7633L108.928 7.31202C109.521 7.27856 110.332 7.19502 111.376 7.06965C111.936 7.00283 112.529 6.9276 113.156 6.84406L114.034 9.83568Z" fill="#FFA300"/>
<path d="M120.627 12.9861C120.218 13.9722 120.009 15.0335 120.009 16.17C120.009 17.5488 120.36 18.6853 121.053 19.5962C121.747 20.5071 122.699 21.2173 123.903 21.7271C125.106 22.2369 126.46 22.5795 127.956 22.755C127.688 23.0224 127.429 23.3566 127.179 23.7578C126.928 24.1589 126.719 24.56 126.535 24.9611C126.36 25.3622 126.243 25.6965 126.193 25.9639C124.337 25.755 122.691 25.2118 121.271 24.3344C119.842 23.4569 118.73 22.3288 117.936 20.9332C117.142 19.546 116.741 17.9583 116.741 16.17C116.741 14.8915 117.05 13.5795 117.669 12.234C118.287 10.897 119.206 9.71037 120.435 8.68248C119.006 8.90812 117.585 9.15881 116.165 9.42622C115.421 9.56827 114.702 9.702 114.034 9.83568L113.156 6.84406C113.716 6.76883 114.301 6.69365 114.911 6.60169C116.223 6.41787 117.577 6.20895 118.981 5.99168C120.376 5.76603 121.738 5.54044 123.05 5.30643C124.354 5.07247 125.532 4.84682 126.577 4.62118C127.621 4.4039 128.44 4.20335 129.025 4.01953L129.886 7.28693C129.602 7.30366 129.259 7.33707 128.858 7.39556C128.449 7.4457 127.998 7.51256 127.504 7.57943C126.518 7.70475 125.582 8.00558 124.688 8.49028C123.803 8.97497 123 9.59335 122.298 10.3621C121.588 11.131 121.036 12.0084 120.627 12.9861Z" fill="black"/>
<path d="M128.44 15.7172C128.101 15.1463 127.655 14.5489 127.102 13.9242C126.549 13.2995 126.041 12.7911 125.576 12.3986L127.048 11.221C127.316 11.4352 127.637 11.7474 128.012 12.1579C128.387 12.5683 128.756 12.9874 129.123 13.4154C129.488 13.8439 129.769 14.2009 129.966 14.4861L128.44 15.7172Z" fill="black"/>
<path d="M130.848 13.6831C130.508 13.1302 130.058 12.5414 129.496 11.9167C128.934 11.2924 128.421 10.7926 127.957 10.418L129.402 9.21387C129.67 9.42768 129.996 9.74023 130.379 10.1503C130.763 10.5612 131.142 10.9758 131.517 11.3948C131.891 11.8143 132.176 12.1758 132.373 12.479L130.848 13.6831Z" fill="#004E88"/>
<path d="M22.1706 49.0949C21.4436 48.3929 20.7751 47.574 20.1734 46.6464C19.4297 45.5266 18.9116 44.2731 18.6024 42.9026L15.4436 43.9222C16.0202 45.6687 16.4129 47.3818 16.6219 49.0614C16.8391 50.7328 16.881 52.3038 16.7556 53.7662C16.6302 55.2286 16.3378 56.5155 15.8782 57.6186C15.4102 58.73 14.7751 59.5908 13.9728 60.2175C13.1706 60.8442 12.2012 61.1534 11.0564 61.1534C9.86141 61.1534 8.91711 60.8275 8.23187 60.1757C7.54662 59.5239 7.20403 58.5211 7.20403 57.1673C7.20403 55.8804 7.43799 54.5517 7.89764 53.1812C8.36561 51.8024 9.0174 50.4403 9.85306 49.0698C10.6887 47.7077 11.6664 46.4292 12.7695 45.2342L10.1706 43.1701C9.90319 43.5127 9.46031 43.8386 8.83357 44.1645C8.21514 44.4821 7.50485 44.7745 6.71097 45.0419C6.53551 45.1004 6.35164 45.1589 6.17614 45.2091L6.48538 48.0503C6.86975 47.9082 7.26253 47.7578 7.65527 47.5824C7.02852 48.5433 6.46029 49.5294 5.95891 50.5489C5.64971 51.1422 5.37394 51.7523 5.11488 52.379C4.42127 54.0503 4.07031 55.7217 4.07031 57.3846C4.07031 59.6493 4.68033 61.3958 5.90877 62.6242C7.1288 63.861 8.84189 64.471 11.0564 64.471C12.6776 64.471 14.0647 64.12 15.218 63.418C16.3712 62.7161 17.2904 61.73 17.9923 60.4598C18.686 59.1896 19.1539 57.6938 19.4046 55.964C19.6553 54.2342 19.672 52.3539 19.4631 50.3149C19.9562 50.9835 20.4492 51.5935 20.9506 52.1283L22.1706 49.0949Z" fill="black"/>
<path d="M6.48542 48.0504C6.16787 48.1673 5.85868 48.2676 5.54943 48.3595C5.38234 48.4013 5.22357 48.4515 5.06479 48.4932C4.20403 48.7272 3.44361 48.886 2.79177 48.9779L2.08984 46.0615C2.75 46.0113 3.48538 45.8943 4.29594 45.7105C4.53831 45.6603 4.78064 45.6019 5.01465 45.5434C5.39902 45.4431 5.7918 45.3345 6.17617 45.2091L6.48542 48.0504Z" fill="#FFA300"/>
<path d="M25.2445 51.5517C25.0105 51.7439 24.7681 52.003 24.5342 52.3373C24.2919 52.6631 24.0746 53.0141 23.874 53.3651C23.6818 53.7244 23.5397 54.0336 23.4478 54.301C22.8378 53.9083 22.1943 53.3818 21.5091 52.7133C21.3169 52.5294 21.133 52.3373 20.9492 52.1283L22.1692 49.0949C22.328 49.262 22.4868 49.4125 22.6539 49.5629C23.5732 50.3902 24.4339 51.0503 25.2445 51.5517Z" fill="#004E88"/>
<path d="M48.459 53.7997C47.8741 52.8303 47.0551 52.0865 45.9938 51.5601C44.9325 51.0336 43.6791 50.8164 42.2334 50.9083C41.8407 50.925 41.4145 50.9835 40.9465 51.0754C40.4869 51.1757 40.0607 51.3261 39.6679 51.5183C40.4534 50.7161 41.2139 49.8804 41.966 49.0029C42.7181 48.1339 43.4033 47.2732 44.0301 46.4208C44.6484 45.5768 45.1666 44.7913 45.5844 44.081L43.2278 42.3428C42.8518 42.5183 42.3253 42.6771 41.6568 42.8191C40.9883 42.9695 40.2445 43.0949 39.4256 43.2118C38.6067 43.3288 37.771 43.4291 36.9186 43.521C36.7598 43.5378 36.6011 43.5545 36.4506 43.5629L36.5676 46.5378C36.7097 46.5211 36.8601 46.496 37.0022 46.4793C37.6874 46.379 38.3559 46.2787 38.9994 46.1701C39.6429 46.0615 40.2111 45.9528 40.7125 45.8442C40.0857 46.7216 39.3086 47.6492 38.381 48.6269C37.4534 49.613 36.459 50.574 35.3977 51.5183C34.3364 52.4626 33.2835 53.3317 32.2556 54.1172C31.2194 54.9027 30.2835 55.5378 29.4395 56.0141L31.5787 58.613C32.0968 58.2036 32.5564 57.8359 32.9492 57.5016C33.342 57.1757 33.8518 56.7495 34.4701 56.2314C35.5815 55.3205 36.7515 54.6353 37.9799 54.1674C39.2083 53.7077 40.5955 53.4738 42.1247 53.4738C43.3448 53.4738 44.2807 53.808 44.9409 54.4765C45.6011 55.1451 45.927 56.0309 45.927 57.1423C45.927 58.1367 45.5593 58.964 44.8156 59.5991C44.0886 60.2342 43.0774 60.7105 41.7738 61.0281L43.1443 64.0365C44.4646 63.6521 45.5927 63.1423 46.5203 62.5239C48.3922 61.2537 49.3281 59.457 49.3281 57.1423C49.3281 55.8721 49.0356 54.7606 48.459 53.7997Z" fill="black"/>
<path d="M43.1456 64.0365C41.8001 64.4208 40.2625 64.6883 38.516 64.822C38.4073 64.3206 38.2319 63.7691 37.9812 63.159C37.7305 62.5573 37.4296 62.0392 37.0703 61.613C38.8335 61.5545 40.3878 61.3707 41.7166 61.0448C41.7333 61.0364 41.7583 61.0364 41.7751 61.0281L43.1456 64.0365Z" fill="#004E88"/>
<path d="M36.5691 46.5378C36.0427 46.6046 35.5412 46.6715 35.0649 46.73C34.4549 46.8052 33.9452 46.8554 33.5357 46.8888L32.6582 43.7634C33.1513 43.7634 33.778 43.7383 34.5301 43.7049C35.1318 43.6798 35.7752 43.6297 36.4521 43.5629L36.5691 46.5378Z" fill="#FFA300"/>
<path d="M78.243 44.0642C77.775 43.7551 77.2987 43.4542 76.8307 43.1701C76.3544 42.886 75.97 42.6687 75.6608 42.5266L74.541 44.0559C75.0758 44.2899 75.6942 44.6325 76.3962 45.0837C77.1064 45.5434 77.6998 45.9863 78.1761 46.4375L79.3544 44.8832C79.0869 44.6492 78.7193 44.3818 78.243 44.0642Z" fill="black"/>
<path d="M76.4377 46.6381C75.9781 46.3205 75.5102 46.0197 75.0338 45.7272C74.5575 45.4347 74.1731 45.2174 73.8723 45.067L72.7441 46.5712C73.279 46.8219 73.8973 47.1728 74.6076 47.6409C75.3096 48.1005 75.8946 48.5601 76.3626 49.0029L77.5324 47.4486C77.265 47.223 76.9057 46.9472 76.4377 46.6381Z" fill="#004E88"/>
<path d="M78.3095 53.6325C77.7914 53.0141 77.2315 52.379 76.6299 51.7356C76.0198 51.0921 75.4265 50.4988 74.8582 49.9556C74.29 49.4125 73.7886 48.9779 73.3624 48.6603L71.0059 50.6408C71.4153 50.925 71.9 51.3428 72.4516 51.9111C73.0031 52.4709 73.5797 53.0893 74.1647 53.7578C74.7496 54.4264 75.2928 55.0866 75.7942 55.7467C76.2956 56.4069 76.6883 56.9835 76.9725 57.4598L79.5128 55.2704C79.2287 54.8024 78.8276 54.2593 78.3095 53.6325Z" fill="black"/>
<path d="M70.1777 52.7634C70.1192 51.7773 69.927 51.0002 69.5843 50.4403C69.2501 49.872 68.7988 49.4793 68.2389 49.262C67.6707 49.0364 67.0356 48.9278 66.3253 48.9278C66.108 48.9278 65.8573 48.9278 65.5732 48.9361C65.2891 48.9445 64.9632 48.9612 64.6122 48.9779C64.8963 48.0002 65.1387 47.0392 65.3309 46.1032C65.5314 45.1673 65.6735 44.2899 65.7571 43.4626L62.5982 42.9026C62.5314 43.8302 62.3893 44.833 62.1888 45.9111C61.9799 46.9974 61.7208 48.0921 61.3949 49.2202C60.5927 49.2704 59.7905 49.3372 58.9882 49.4208C58.9548 49.4208 58.9214 49.4291 58.8879 49.4291L59.1303 52.1116C59.5983 52.0447 60.0829 51.9779 60.5676 51.9194C60.2166 52.964 59.8239 53.9918 59.3977 54.9946C59.2389 55.3623 59.0718 55.73 58.9047 56.0977C58.2863 57.4515 57.6261 58.705 56.9241 59.8582C56.2305 61.0114 55.5119 61.9891 54.7598 62.7913C55.0105 62.8582 55.3113 62.9919 55.6707 63.1924C56.03 63.3846 56.3726 63.6019 56.7152 63.8276C57.0495 64.0615 57.3002 64.2621 57.459 64.4208C58.1943 63.4933 58.9381 62.3484 59.6985 60.9779C60.459 59.6158 61.186 58.1284 61.8963 56.5239C62.5982 54.9194 63.225 53.2899 63.7765 51.6269C64.4785 51.5768 65.0718 51.5517 65.5732 51.5517C65.9994 51.5517 66.3587 51.6436 66.6428 51.8442C66.9269 52.0364 67.0941 52.4542 67.1526 53.0893C67.2027 53.7161 67.0941 54.6854 66.8267 55.9891C66.5426 57.4013 66.2584 58.4626 65.9743 59.1896C65.6902 59.9083 65.3894 60.3929 65.0802 60.6353C64.7626 60.8776 64.3949 60.9947 63.9687 60.9947C63.108 60.9947 62.2389 60.8025 61.3448 60.4097C61.4284 60.8025 61.4868 61.2955 61.5035 61.9055C61.5203 62.5156 61.5203 63.0253 61.5035 63.4599C62.3058 63.8526 63.2417 64.0448 64.3113 64.0448C65.3643 64.0448 66.2334 63.8192 66.9103 63.3763C67.5871 62.9334 68.1554 62.1645 68.6066 61.0782C69.0662 59.9835 69.4674 58.4793 69.8267 56.549C70.1108 55.0197 70.2278 53.7578 70.1777 52.7634Z" fill="black"/>
<path d="M59.1318 52.1116C58.7307 52.1701 58.3296 52.2286 57.9368 52.2954C57.0845 52.4375 56.3825 52.5796 55.831 52.7216C55.8142 52.496 55.7725 52.1785 55.6972 51.7857C55.6304 51.393 55.5468 51.0085 55.4549 50.6241C55.3714 50.2398 55.2794 49.9556 55.1875 49.7801C55.597 49.7467 56.1318 49.6965 56.7919 49.6381C57.4271 49.5712 58.1207 49.5044 58.8895 49.4291L59.1318 52.1116Z" fill="#FFA300"/>
<path d="M101.266 54.0504C100.681 53.0977 99.8785 52.3539 98.8423 51.8108C97.8061 51.276 96.5861 51.0086 95.1738 51.0086C94.8145 51.0086 94.4551 51.0503 94.0791 51.1339C93.7031 51.2091 93.3604 51.3261 93.0596 51.4682C94.2713 50.2564 95.4078 48.9946 96.4691 47.6826C97.5304 46.3707 98.366 45.1172 98.9761 43.9222L96.561 42.3177C96.2602 42.4598 95.7922 42.5935 95.1571 42.7272C94.5304 42.8609 93.8117 42.9946 93.0178 43.1199C92.3242 43.2286 91.6139 43.3205 90.8869 43.3874L90.2936 46.2954C90.7532 46.2202 91.2212 46.145 91.7058 46.0615C92.6084 45.9027 93.444 45.7272 94.2128 45.5517C93.5527 46.4626 92.8006 47.3818 91.9649 48.3261C91.1209 49.262 90.2434 50.1645 89.3159 51.042C88.3883 51.9111 87.4691 52.705 86.5582 53.4236C85.6473 54.1339 84.7866 54.7272 83.9844 55.1868L86.1822 57.5434C86.6418 57.1841 87.1431 56.7829 87.6696 56.3401C88.1961 55.8888 88.6139 55.5294 88.9398 55.237C89.6501 54.6186 90.4524 54.159 91.3298 53.8749C92.2156 53.5908 93.2518 53.4487 94.4551 53.4487C95.3075 53.4487 96.0596 53.6242 96.7114 53.9668C97.3633 54.3178 97.8646 54.7858 98.224 55.3707C98.5833 55.964 98.7588 56.6325 98.7588 57.3846C98.7588 58.2537 98.5499 59.0058 98.1321 59.6326C97.7142 60.2509 97.171 60.7189 96.5109 61.0197L95.3577 61.6382H93.5109C93.4607 61.6382 93.4106 61.6298 93.3521 61.6131C92.4078 61.5713 91.7309 61.4292 91.3298 61.1785C90.9287 60.9362 90.7282 60.6186 90.7282 60.2426C90.7282 59.9585 90.8284 59.7495 91.029 59.5991C91.2212 59.457 91.4635 59.3902 91.7476 59.3902C92.1153 59.3902 92.4413 59.4821 92.7087 59.691L94.639 57.6938C93.8702 57.0587 92.9092 56.7412 91.7476 56.7412C91.054 56.7412 90.4022 56.8833 89.7922 57.1841C89.1905 57.4765 88.6975 57.886 88.3215 58.4292C87.9454 58.964 87.7615 59.6158 87.7615 60.3763C87.7615 61.5546 88.2713 62.549 89.2824 63.3596C90.302 64.1785 91.8814 64.5796 94.0207 64.5796C95.6669 64.5796 97.0875 64.2621 98.3075 63.6187C99.5192 62.9752 100.455 62.1061 101.132 61.0197C101.801 59.9334 102.135 58.7217 102.135 57.3846C102.135 56.1144 101.842 55.003 101.266 54.0504Z" fill="black"/>
<path d="M90.8863 43.3873L90.2929 46.2954C89.8918 46.3539 89.499 46.4124 89.1146 46.4625C88.279 46.5712 87.577 46.638 87.0088 46.6798L86.4238 43.6297C86.9002 43.6631 87.5018 43.6548 88.2288 43.613C88.9475 43.5712 89.7331 43.5043 90.5687 43.4207C90.6773 43.4124 90.7859 43.4041 90.8863 43.3873Z" fill="#FFA300"/>
<path d="M113.238 65.2768C112.899 64.7055 112.448 64.0902 111.887 63.4304C111.325 62.7702 110.735 62.1414 110.12 61.5433C109.505 60.9459 108.92 60.4505 108.367 60.058L110.402 58.2112C110.811 58.4789 111.258 58.8229 111.739 59.2419C112.221 59.6614 112.712 60.1074 113.211 60.5799C113.711 61.0528 114.17 61.5127 114.59 61.9582C115.008 62.4046 115.353 62.7972 115.62 63.1358L113.238 65.2768Z" fill="black"/>
<path d="M11.2974 91.1786H25.0523V88.6633H12.5258C12.6177 88.4293 12.7096 88.1953 12.7932 87.9697C12.8852 87.7357 12.9687 87.5017 13.0356 87.2677H23.122V84.7524H13.6539C13.6874 84.5017 13.7292 84.251 13.7709 83.992C13.8127 83.7329 13.8462 83.4738 13.8629 83.2064C15.4172 83.0644 16.8879 82.9056 18.3002 82.7301L17.64 80.3401C16.9047 80.4487 16.1108 80.549 15.2584 80.6493C13.9381 80.7997 12.5509 80.9251 11.1052 81.0253C9.66788 81.1173 8.22216 81.1925 6.77649 81.2342C5.33082 81.2844 3.96869 81.2928 2.70684 81.2761C2.81547 81.51 2.94916 81.8694 3.12467 82.3624C3.29181 82.8471 3.40876 83.29 3.48399 83.6827C4.42828 83.6995 5.53136 83.6827 6.78485 83.6326C8.0467 83.5741 9.35869 83.5156 10.7375 83.4404C10.6957 83.6577 10.6623 83.875 10.6122 84.1006C10.5704 84.3262 10.5286 84.5435 10.4952 84.7524H2.79039V87.2677H9.82666C9.75143 87.5017 9.66788 87.7357 9.56761 87.9697C9.47564 88.1953 9.37537 88.4293 9.29182 88.6633H0.910156V91.1786H7.8712C7.03555 92.3903 5.97424 93.4934 4.70408 94.4795C4.35307 94.7552 3.97705 95.0142 3.58427 95.2734L5.289 97.4377C5.90742 97.0031 6.48403 96.5519 7.04391 96.0756V104.449H21.952V92.4655H10.4367C10.5871 92.265 10.7291 92.0644 10.8796 91.8471C11.03 91.6299 11.1721 91.4126 11.2974 91.1786ZM18.7347 102.259H10.2779V100.922H18.7347V102.259ZM18.7347 99.0756H10.2779V97.8388H18.7347V99.0756ZM18.7347 94.6549V95.9669H10.2779V94.6549H18.7347Z" fill="black"/>
<path d="M5.28968 97.4377C5.08077 97.5881 4.86354 97.7385 4.63789 97.8806C3.77714 98.4405 2.87466 98.967 1.93037 99.4517C1.75486 99.109 1.4624 98.6996 1.07798 98.2149C0.685248 97.7385 0.325873 97.3792 0 97.1452C1.3454 96.577 2.54038 95.9503 3.58496 95.2734L5.28968 97.4377Z" fill="#FFA300"/>
<path d="M22.8885 81.9446C21.9025 82.1953 20.6072 82.4293 18.9944 82.6382C18.7687 82.6716 18.5348 82.6967 18.3008 82.7301L17.6406 80.3401C18.0501 80.2817 18.4429 80.2232 18.8189 80.1647C19.8718 79.9975 20.6991 79.8137 21.3092 79.6131L22.8885 81.9446Z" fill="#004E88"/>
<path d="M77.0147 89.1982C76.5217 87.9697 75.8281 86.8834 74.9255 85.9474C74.023 85.0115 72.9784 84.2761 71.7835 83.7413C70.5885 83.2065 69.3099 82.8973 67.9562 82.8304C66.2765 82.7385 64.6971 82.9474 63.218 83.4405C61.7389 83.9418 60.4269 84.6856 59.2821 85.6633C58.1455 86.6494 57.2347 87.8109 56.5578 89.1564C55.8726 90.5018 55.4965 91.9892 55.4046 93.6104C55.3461 94.7051 55.4715 95.7246 55.7806 96.6773C56.0815 97.6299 56.516 98.4572 57.0926 99.1508C57.6609 99.8528 58.321 100.354 59.0731 100.68C59.8336 100.998 60.5606 101.098 61.2542 100.973C61.9395 100.847 62.6497 100.396 63.3768 99.6104C64.3461 98.5575 65.1567 97.2706 65.8252 95.758C66.4938 94.2371 67.0286 92.616 67.4214 90.8862C67.8141 89.1564 68.0815 87.46 68.2236 85.797C69.3601 85.9224 70.413 86.3068 71.3656 86.9502C72.3183 87.5937 73.0788 88.4294 73.6303 89.4656C74.1818 90.5018 74.4242 91.68 74.3489 93.0004C74.2821 94.655 73.6052 96.1007 72.335 97.3207C72.0509 97.5965 71.7333 97.8472 71.3907 98.0645L72.7445 101.181C73.6136 100.68 74.3824 100.078 75.0509 99.3848C76.6386 97.7302 77.491 95.6829 77.6164 93.2427C77.7083 91.772 77.5078 90.4265 77.0147 89.1982ZM64.3044 90.5352C63.9367 92.0143 63.477 93.343 62.9339 94.5213C62.3907 95.6995 61.7974 96.6104 61.1539 97.2539C60.945 97.4711 60.7277 97.5715 60.5188 97.5715C60.3015 97.5715 60.0926 97.5046 59.9004 97.3625C59.4742 97.0366 59.1233 96.5687 58.8726 95.9586C58.6135 95.3402 58.4965 94.6132 58.5383 93.7775C58.6052 92.5073 58.9144 91.3458 59.4742 90.2845C60.0258 89.2232 60.7779 88.3124 61.7305 87.5686C62.6832 86.8165 63.7779 86.2984 65.0147 86.0143C64.906 87.5436 64.6637 89.0561 64.3044 90.5352Z" fill="black"/>
<path d="M72.7436 101.181C71.5486 101.892 70.1698 102.418 68.5987 102.769C68.5235 102.485 68.3898 102.142 68.1976 101.75C67.9971 101.357 67.7714 100.981 67.5124 100.613C67.2533 100.246 67.0026 99.9447 66.752 99.719C68.6489 99.4266 70.1949 98.8751 71.3898 98.0645L72.7436 101.181Z" fill="#FFA300"/>
<path d="M98.064 91.6299C97.3454 91.187 96.6935 90.7441 96.1086 90.2929H99.3509V88.07H97.5292C97.7799 87.6605 98.039 87.2176 98.3063 86.7329C98.5737 86.2566 98.7827 85.8471 98.9498 85.5045L96.727 84.7023C96.6016 85.0366 96.4345 85.4293 96.2172 85.8639C96 86.3067 95.7827 86.7162 95.557 87.109C95.3397 87.5017 95.1476 87.8277 94.9888 88.07H94.5877V84.836H91.9637V88.07H90.4094C90.6016 87.9279 90.7938 87.8026 90.986 87.6856C91.1698 87.5686 91.3119 87.485 91.3955 87.4349C91.1698 87.0421 90.8439 86.5825 90.4344 86.0644C90.025 85.5463 89.6406 85.1118 89.2812 84.7524L87.4679 85.9307C87.7102 86.1981 87.9943 86.5324 88.3035 86.9335C88.6211 87.3346 88.8885 87.719 89.1225 88.07H87.2256V90.2928H90.6517C90.0751 90.7942 89.415 91.2956 88.6545 91.8054C87.8941 92.3151 87.2172 92.6995 86.6071 92.967C86.8746 93.1508 87.1837 93.4349 87.5348 93.8277C87.8774 94.2204 88.1364 94.5714 88.2952 94.8722C88.9386 94.5129 89.5738 94.0951 90.1921 93.6021C90.8189 93.109 91.4039 92.5909 91.9637 92.031V93.9363H94.5877V91.8472C95.1559 92.3987 95.7743 92.9251 96.4428 93.4098C97.1114 93.9029 97.7465 94.3207 98.3565 94.655C98.4651 94.4795 98.6072 94.2622 98.7994 94.0032C98.9833 93.7441 99.1838 93.4851 99.4011 93.2427C99.6183 92.992 99.8022 92.7998 99.961 92.6745C99.4094 92.4238 98.7744 92.0812 98.064 91.6299ZM98.064 91.6299C97.3454 91.187 96.6935 90.7441 96.1086 90.2929H99.3509V88.07H97.5292C97.7799 87.6605 98.039 87.2176 98.3063 86.7329C98.5737 86.2566 98.7827 85.8471 98.9498 85.5045L96.727 84.7023C96.6016 85.0366 96.4345 85.4293 96.2172 85.8639C96 86.3067 95.7827 86.7162 95.557 87.109C95.3397 87.5017 95.1476 87.8277 94.9888 88.07H94.5877V84.836H91.9637V88.07H90.4094C90.6016 87.9279 90.7938 87.8026 90.986 87.6856C91.1698 87.5686 91.3119 87.485 91.3955 87.4349C91.1698 87.0421 90.8439 86.5825 90.4344 86.0644C90.025 85.5463 89.6406 85.1118 89.2812 84.7524L87.4679 85.9307C87.7102 86.1981 87.9943 86.5324 88.3035 86.9335C88.6211 87.3346 88.8885 87.719 89.1225 88.07H87.2256V90.2928H90.6517C90.0751 90.7942 89.415 91.2956 88.6545 91.8054C87.8941 92.3151 87.2172 92.6995 86.6071 92.967C86.8746 93.1508 87.1837 93.4349 87.5348 93.8277C87.8774 94.2204 88.1364 94.5714 88.2952 94.8722C88.9386 94.5129 89.5738 94.0951 90.1921 93.6021C90.8189 93.109 91.4039 92.5909 91.9637 92.031V93.9363H94.5877V91.8472C95.1559 92.3987 95.7743 92.9251 96.4428 93.4098C97.1114 93.9029 97.7465 94.3207 98.3565 94.655C98.4651 94.4795 98.6072 94.2622 98.7994 94.0032C98.9833 93.7441 99.1838 93.4851 99.4011 93.2427C99.6183 92.992 99.8022 92.7998 99.961 92.6745C99.4094 92.4238 98.7744 92.0812 98.064 91.6299ZM105.56 95.8333H103.095V81.836H83.5069V95.8333H81.0918V98.4322H90.4094C89.6406 99.5018 88.4957 100.329 86.9665 100.922C85.4456 101.507 83.4818 101.9 81.0918 102.101C81.2338 102.293 81.3926 102.56 81.5598 102.903C81.7353 103.237 81.8857 103.58 82.0361 103.931C82.1781 104.282 82.2784 104.566 82.3536 104.8C85.2283 104.499 87.5514 103.881 89.3397 102.953C91.1197 102.025 92.4818 100.722 93.4094 99.0422C94.5125 100.78 96.0166 102.117 97.9303 103.078C98.6824 103.454 99.4595 103.772 100.27 104.031L101.95 101.39C101.39 101.248 100.847 101.081 100.32 100.889C98.7242 100.321 97.4039 99.5018 96.3509 98.4322H105.56L105.56 95.8333ZM100.095 95.8333H94.5877L94.8216 94.5463L91.7464 94.279C91.7297 94.5714 91.7047 94.8388 91.6629 95.0895C91.6294 95.3318 91.5877 95.5826 91.5292 95.8333H86.4985V84.2761H100.095V95.8333ZM86.6071 92.967C86.8746 93.1508 87.1837 93.4349 87.5348 93.8277C87.8774 94.2204 88.1364 94.5714 88.2952 94.8722C88.9386 94.5129 89.5738 94.0951 90.1921 93.6021C90.8189 93.109 91.4039 92.5909 91.9637 92.031V93.9363H94.5877V91.8472C95.1559 92.3987 95.7743 92.9251 96.4428 93.4098C97.1114 93.9029 97.7465 94.3207 98.3565 94.655C98.4651 94.4795 98.6072 94.2622 98.7994 94.0032C98.9833 93.7441 99.1838 93.4851 99.4011 93.2427C99.6183 92.992 99.8022 92.7998 99.961 92.6745C99.4094 92.4238 98.7744 92.0812 98.064 91.6299C97.3454 91.187 96.6935 90.7441 96.1086 90.2929H99.3509V88.07H97.5292C97.7799 87.6605 98.039 87.2176 98.3063 86.7329C98.5737 86.2566 98.7827 85.8471 98.9498 85.5045L96.727 84.7023C96.6016 85.0366 96.4345 85.4293 96.2172 85.8639C96 86.3067 95.7827 86.7162 95.557 87.109C95.3397 87.5017 95.1476 87.8277 94.9888 88.07H94.5877V84.836H91.9637V88.07H90.4094C90.6016 87.9279 90.7938 87.8026 90.986 87.6856C91.1698 87.5686 91.3119 87.485 91.3955 87.4349C91.1698 87.0421 90.8439 86.5825 90.4344 86.0644C90.025 85.5463 89.6406 85.1118 89.2812 84.7524L87.4679 85.9307C87.7102 86.1981 87.9943 86.5324 88.3035 86.9335C88.6211 87.3346 88.8885 87.719 89.1225 88.07H87.2256V90.2928H90.6517C90.0751 90.7942 89.415 91.2956 88.6545 91.8054C87.8941 92.3151 87.2172 92.6995 86.6071 92.967ZM98.064 91.6299C97.3454 91.187 96.6935 90.7441 96.1086 90.2929H99.3509V88.07H97.5292C97.7799 87.6605 98.039 87.2176 98.3063 86.7329C98.5737 86.2566 98.7827 85.8471 98.9498 85.5045L96.727 84.7023C96.6016 85.0366 96.4345 85.4293 96.2172 85.8639C96 86.3067 95.7827 86.7162 95.557 87.109C95.3397 87.5017 95.1476 87.8277 94.9888 88.07H94.5877V84.836H91.9637V88.07H90.4094C90.6016 87.9279 90.7938 87.8026 90.986 87.6856C91.1698 87.5686 91.3119 87.485 91.3955 87.4349C91.1698 87.0421 90.8439 86.5825 90.4344 86.0644C90.025 85.5463 89.6406 85.1118 89.2812 84.7524L87.4679 85.9307C87.7102 86.1981 87.9943 86.5324 88.3035 86.9335C88.6211 87.3346 88.8885 87.719 89.1225 88.07H87.2256V90.2928H90.6517C90.0751 90.7942 89.415 91.2956 88.6545 91.8054C87.8941 92.3151 87.2172 92.6995 86.6071 92.967C86.8746 93.1508 87.1837 93.4349 87.5348 93.8277C87.8774 94.2204 88.1364 94.5714 88.2952 94.8722C88.9386 94.5129 89.5738 94.0951 90.1921 93.6021C90.8189 93.109 91.4039 92.5909 91.9637 92.031V93.9363H94.5877V91.8472C95.1559 92.3987 95.7743 92.9251 96.4428 93.4098C97.1114 93.9029 97.7465 94.3207 98.3565 94.655C98.4651 94.4795 98.6072 94.2622 98.7994 94.0032C98.9833 93.7441 99.1838 93.4851 99.4011 93.2427C99.6183 92.992 99.8022 92.7998 99.961 92.6745C99.4094 92.4238 98.7744 92.0812 98.064 91.6299ZM98.064 91.6299C97.3454 91.187 96.6935 90.7441 96.1086 90.2929H99.3509V88.07H97.5292C97.7799 87.6605 98.039 87.2176 98.3063 86.7329C98.5737 86.2566 98.7827 85.8471 98.9498 85.5045L96.727 84.7023C96.6016 85.0366 96.4345 85.4293 96.2172 85.8639C96 86.3067 95.7827 86.7162 95.557 87.109C95.3397 87.5017 95.1476 87.8277 94.9888 88.07H94.5877V84.836H91.9637V88.07H90.4094C90.6016 87.9279 90.7938 87.8026 90.986 87.6856C91.1698 87.5686 91.3119 87.485 91.3955 87.4349C91.1698 87.0421 90.8439 86.5825 90.4344 86.0644C90.025 85.5463 89.6406 85.1118 89.2812 84.7524L87.4679 85.9307C87.7102 86.1981 87.9943 86.5324 88.3035 86.9335C88.6211 87.3346 88.8885 87.719 89.1225 88.07H87.2256V90.2928H90.6517C90.0751 90.7942 89.415 91.2956 88.6545 91.8054C87.8941 92.3151 87.2172 92.6995 86.6071 92.967C86.8746 93.1508 87.1837 93.4349 87.5348 93.8277C87.8774 94.2204 88.1364 94.5714 88.2952 94.8722C88.9386 94.5129 89.5738 94.0951 90.1921 93.6021C90.8189 93.109 91.4039 92.5909 91.9637 92.031V93.9363H94.5877V91.8472C95.1559 92.3987 95.7743 92.9251 96.4428 93.4098C97.1114 93.9029 97.7465 94.3207 98.3565 94.655C98.4651 94.4795 98.6072 94.2622 98.7994 94.0032C98.9833 93.7441 99.1838 93.4851 99.4011 93.2427C99.6183 92.992 99.8022 92.7998 99.961 92.6745C99.4094 92.4238 98.7744 92.0812 98.064 91.6299Z" fill="black"/>
<path d="M95.9747 79.0198C95.8996 79.212 94.1864 81.485 94.0527 81.836H90.543C90.685 81.5017 92.4817 79.2538 92.5486 79.0198H95.9747Z" fill="#FFA300"/>
<path d="M105.661 102.017C105.394 102.36 105.118 102.803 104.834 103.371C104.55 103.931 104.333 104.415 104.191 104.825C102.82 104.7 101.508 104.432 100.271 104.031L101.951 101.39C103.104 101.691 104.341 101.9 105.661 102.017Z" fill="#004E88"/>
<path d="M111.66 92.0611C111.338 91.7759 110.897 91.4368 110.336 91.0443C109.773 90.6522 109.188 90.2727 108.582 89.9067C107.975 89.5415 107.44 89.2604 106.977 89.0637L108.556 86.4947C109.34 86.8693 110.197 87.3201 111.125 87.8461C112.053 88.3725 112.82 88.8943 113.426 89.4117C113.283 89.5721 113.091 89.8267 112.851 90.1744C112.61 90.5224 112.378 90.875 112.155 91.2316C111.932 91.5886 111.767 91.8653 111.66 92.0611Z" fill="black"/>
<path d="M112.229 100.655C111.928 101.273 111.619 101.867 111.309 102.435C110.917 103.154 110.541 103.78 110.19 104.315L107.457 102.368C107.866 101.833 108.284 101.198 108.711 100.463C109.145 99.7358 109.555 98.967 109.956 98.1731C109.972 98.148 109.981 98.1146 109.997 98.0895L112.229 100.655Z" fill="#FFA300"/>
<path d="M114.36 95.6745C114.168 96.3012 113.901 97.0032 113.575 97.772C113.24 98.5491 112.881 99.343 112.488 100.145C112.405 100.321 112.321 100.488 112.229 100.655L109.998 98.0895C110.382 97.3207 110.733 96.577 111.059 95.8333C111.385 95.0645 111.644 94.3792 111.82 93.7775C111.962 93.9363 112.187 94.1369 112.505 94.3875C112.814 94.6383 113.148 94.8806 113.491 95.1146C113.842 95.3402 114.135 95.5324 114.36 95.6745Z" fill="black"/>
<path d="M112.943 85.9324C112.622 85.6472 112.18 85.3081 111.619 84.9155C111.056 84.523 110.472 84.1484 109.866 83.7914C109.259 83.4348 108.723 83.1581 108.26 82.9619L109.866 80.4459C110.347 80.6426 110.905 80.9188 111.538 81.2759C112.171 81.6329 112.778 81.9981 113.358 82.3731C113.938 82.7477 114.397 83.0782 114.736 83.3634C114.593 83.5237 114.397 83.7739 114.148 84.1125C113.897 84.4516 113.661 84.7907 113.439 85.1298C113.215 85.4688 113.05 85.7365 112.943 85.9324Z" fill="black"/>
<path d="M121.696 104.452V98.5113C120.768 99.4927 119.764 100.394 118.685 101.214C117.605 102.035 116.513 102.73 115.406 103.302C115.193 102.981 114.898 102.579 114.523 102.098C114.149 101.616 113.782 101.232 113.426 100.946C114.265 100.554 115.153 100.059 116.089 99.4612C117.025 98.8635 117.922 98.1992 118.778 97.4672C119.635 96.736 120.366 95.9954 120.974 95.2462H114.764V92.6234H121.696V90.0005H123.944C123.801 89.7153 123.729 89.3673 123.729 88.9568V84.2999H126.701V87.4046C126.701 87.6364 126.763 87.8016 126.888 87.8996C127.013 87.9979 127.244 88.0469 127.584 88.0469H128.172C128.511 88.0469 128.765 88.0159 128.935 87.953C129.105 87.891 129.234 87.7392 129.324 87.4981C129.413 87.2573 129.484 86.8783 129.537 86.3609C129.876 86.5212 130.332 86.6865 130.902 86.8558C131.473 87.0256 131.955 87.1635 132.347 87.2708C132.187 88.2701 131.973 89.0282 131.705 89.5456C131.437 90.0634 131.077 90.4065 130.621 90.5759C130.167 90.7456 129.573 90.8301 128.841 90.8301H126.272C125.665 90.8301 125.149 90.7591 124.72 90.6159V92.6234H131.893V95.2463H125.63C126.183 95.9244 126.861 96.6156 127.664 97.3203C128.467 98.0254 129.328 98.6676 130.247 99.247C131.166 99.8273 132.071 100.304 132.963 100.679C132.767 100.876 132.548 101.13 132.307 101.442C132.066 101.754 131.835 102.071 131.612 102.392C131.388 102.713 131.215 102.998 131.09 103.248C129.894 102.624 128.765 101.901 127.704 101.08C126.642 100.26 125.647 99.3233 124.72 98.2702V104.452L121.696 104.452Z" fill="black"/>
<path d="M115.915 91.5796C115.755 91.223 115.544 90.808 115.286 90.3351C115.027 89.8626 114.773 89.4652 114.523 89.1441C116.271 88.7874 117.57 88.1942 118.418 87.3642C119.265 86.5347 119.778 85.415 119.956 84.0057L122.713 84.5141C122.445 86.3874 121.745 87.882 120.612 88.9968C119.479 90.1123 117.913 90.9733 115.915 91.5796Z" fill="black"/>
<path d="M131.675 80.9V83.4989H117.844V86.3903H114.895V80.9H131.675Z" fill="black"/>
<path d="M151.095 91.3541C150.284 90.3262 149.599 89.2399 149.048 88.1034C150.36 87.9697 151.596 87.8276 152.75 87.6772L152.056 84.836C150.786 85.0282 149.432 85.1786 148.003 85.3207C147.811 84.5853 147.652 83.8415 147.552 83.0811C147.443 82.3207 147.393 81.5686 147.418 80.8248H144.201C144.201 82.3541 144.435 83.9418 144.894 85.5881C143.256 85.6884 141.685 85.7552 140.173 85.7719C138.669 85.7886 137.424 85.7552 136.438 85.6633L136.839 88.797C137.967 88.8137 139.329 88.7803 140.942 88.7051C142.546 88.6215 144.201 88.5213 145.914 88.3959C146.24 89.1062 146.591 89.7998 146.983 90.4683C147.376 91.1369 147.794 91.7886 148.245 92.407C146.599 92.2148 145.103 92.2984 143.75 92.6661C142.387 93.0255 141.309 93.6271 140.507 94.4544C139.705 95.2901 139.304 96.3096 139.304 97.5212C139.304 98.7664 139.621 99.8193 140.256 100.663C140.892 101.516 141.752 102.184 142.839 102.686C143.708 103.087 144.669 103.379 145.738 103.571L148.212 100.546C147.919 100.53 147.635 100.513 147.351 100.48C145.872 100.329 144.711 100.012 143.841 99.5436C142.972 99.0672 142.546 98.3987 142.546 97.5212C142.546 96.9363 142.747 96.4433 143.148 96.0505C143.549 95.6577 144.084 95.3653 144.761 95.1647C145.446 94.9725 146.198 94.8722 147.025 94.8806C147.853 94.8973 148.697 95.0143 149.557 95.2483C150.41 95.4739 151.22 95.8165 151.989 96.2594L153.919 94.07C152.85 93.2845 151.906 92.382 151.095 91.3541Z" fill="black"/>
<path d="M156.778 87.0338C155.942 87.2093 154.839 87.3931 153.477 87.577C153.235 87.6104 152.993 87.6438 152.75 87.6772L152.057 84.836C152.307 84.8026 152.558 84.7692 152.809 84.7273C154.296 84.4934 155.475 84.2343 156.327 83.9502L156.778 87.0338Z" fill="#FFA300"/>
<path d="M152.231 100.546C152.031 100.814 151.847 101.156 151.655 101.574C151.471 101.992 151.312 102.41 151.178 102.819C151.045 103.229 150.953 103.58 150.919 103.864C149.407 103.939 147.953 103.881 146.557 103.705C146.273 103.672 146.006 103.622 145.738 103.571L148.212 100.546C149.449 100.638 150.794 100.638 152.231 100.546Z" fill="#004E88"/>
<path d="M166.483 95.2997C165.662 95.2997 164.966 95.0145 164.395 94.4432C163.825 93.8724 163.539 93.1767 163.539 92.3557C163.539 91.5352 163.825 90.8395 164.395 90.2682C164.966 89.6974 165.662 89.4117 166.483 89.4117C167.304 89.4117 168 89.6974 168.571 90.2682C169.141 90.8395 169.427 91.5352 169.427 92.3557C169.427 93.1767 169.141 93.8724 168.571 94.4432C168 95.0145 167.304 95.2997 166.483 95.2997Z" fill="black"/>
<path d="M188.468 84.0839C188.025 84.2427 187.473 84.4015 186.838 84.5519C186.195 84.7023 185.509 84.8443 184.774 84.9697C184.95 84.2343 185.117 83.5574 185.259 82.9223C185.401 82.2872 185.509 81.7106 185.576 81.1925L182.234 80.7413C182.192 81.3513 182.108 82.0449 181.975 82.8304C181.841 83.6159 181.657 84.4683 181.431 85.3959C180.587 85.4711 179.768 85.5212 178.966 85.5547L179.083 88.6466C179.576 88.6132 180.078 88.5797 180.596 88.5296C180.228 89.8499 179.802 91.1954 179.342 92.5575C178.874 93.9196 178.398 95.2316 177.897 96.4934C177.395 97.7469 176.894 98.8917 176.401 99.9196C175.899 100.939 175.415 101.783 174.955 102.443C175.415 102.552 175.958 102.736 176.585 102.995C177.211 103.254 177.721 103.505 178.114 103.755C178.573 102.92 179.058 101.908 179.568 100.722C180.078 99.5352 180.587 98.2316 181.106 96.8277C181.624 95.4154 182.125 93.9697 182.61 92.4739C183.086 90.9865 183.529 89.5407 183.922 88.1285C184.95 87.9864 185.911 87.8193 186.796 87.6355C187.674 87.4432 188.392 87.2594 188.952 87.0839L188.468 84.0839ZM191.802 99.6522C190.273 99.5853 188.944 99.3513 187.807 98.9502C186.679 98.5491 185.802 98.031 185.175 97.3876L183.546 99.7943C184.164 100.597 185.108 101.265 186.37 101.8C187.624 102.335 189.103 102.686 190.807 102.844C191.083 102.869 191.367 102.895 191.652 102.903L192.696 99.6606C192.387 99.6689 192.094 99.6606 191.802 99.6522ZM194.342 89.5324C193.49 89.3987 192.604 89.29 191.668 89.1981C190.732 89.1062 189.83 89.0394 188.961 88.9976C188.1 88.9558 187.34 88.9474 186.704 88.9809L186.303 92.1146C186.963 92.0812 187.699 92.0728 188.509 92.0978C189.32 92.1313 190.147 92.1898 191 92.2733C191.844 92.3653 192.654 92.4823 193.415 92.6327C194.184 92.7914 194.86 92.9586 195.454 93.1591L196.523 89.9502C195.913 89.8081 195.186 89.6661 194.342 89.5324Z" fill="black"/>
<path d="M196.792 99.2344C196.616 99.6772 196.474 100.245 196.374 100.922C196.282 101.599 196.24 102.168 196.257 102.636C194.644 102.886 193.106 102.978 191.652 102.903L192.697 99.6606C193.967 99.6522 195.338 99.5101 196.792 99.2344Z" fill="#004E88"/>
<path d="M179.084 88.6465C178.616 88.6716 178.164 88.6967 177.722 88.7134C176.819 88.7552 176.075 88.7552 175.49 88.7134L175.189 85.5045C175.925 85.5797 176.844 85.6048 177.964 85.5881C178.29 85.5797 178.624 85.5713 178.967 85.5547L179.084 88.6465Z" fill="#FFA300"/>
<path d="M223.672 89.1982C223.187 87.9697 222.485 86.8834 221.591 85.9474C220.688 85.0115 219.635 84.2761 218.44 83.7413C217.245 83.2065 215.975 82.8973 214.613 82.8304C212.942 82.7385 211.362 82.9474 209.875 83.4405C208.396 83.9418 207.084 84.6856 205.947 85.6633C204.802 86.6494 203.892 87.8109 203.215 89.1564C202.538 90.5018 202.153 91.9892 202.062 93.6104C202.011 94.7051 202.137 95.7246 202.438 96.6773C202.738 97.6299 203.181 98.4572 203.75 99.1508C204.318 99.8528 204.978 100.354 205.73 100.68C206.499 100.998 207.226 101.098 207.911 100.973C208.596 100.847 209.307 100.396 210.042 99.6104C211.003 98.5575 211.822 97.2706 212.491 95.758C213.159 94.2371 213.686 92.616 214.078 90.8862C214.471 89.1564 214.738 87.46 214.88 85.797C216.025 85.9224 217.07 86.3068 218.031 86.9502C218.984 87.5937 219.736 88.4294 220.287 89.4656C220.839 90.5018 221.081 91.68 221.014 93.0004C220.939 94.655 220.27 96.1007 218.992 97.3207C218.733 97.5631 218.449 97.797 218.148 97.9976L220.204 100.663C220.755 100.287 221.257 99.8528 221.708 99.3848C223.296 97.7302 224.148 95.6829 224.282 93.2427C224.365 91.772 224.165 90.4265 223.672 89.1982ZM210.961 90.5352C210.594 92.0143 210.142 93.343 209.599 94.5213C209.056 95.6995 208.463 96.6104 207.819 97.2539C207.602 97.4711 207.393 97.5715 207.176 97.5715C206.958 97.5715 206.758 97.5046 206.557 97.3625C206.131 97.0366 205.789 96.5687 205.53 95.9586C205.27 95.3402 205.162 94.6132 205.195 93.7775C205.27 92.5073 205.58 91.3458 206.131 90.2845C206.683 89.2232 207.435 88.3124 208.396 87.5686C209.348 86.8165 210.443 86.2984 211.672 86.0143C211.563 87.5436 211.329 89.0561 210.961 90.5352Z" fill="black"/>
<path d="M220.204 100.663C218.842 101.633 217.196 102.335 215.257 102.769C215.19 102.485 215.056 102.142 214.856 101.75C214.664 101.357 214.43 100.981 214.179 100.613C213.912 100.245 213.661 99.9447 213.41 99.719C215.366 99.4182 216.945 98.8499 218.148 97.9976L220.204 100.663Z" fill="#FFA300"/>
<path d="M247.514 99.2177C247.43 98.7998 247.355 98.3569 247.296 97.8806C247.229 97.4127 247.196 97.0031 247.171 96.6605C246.034 97.6466 244.681 98.4655 243.118 99.1257C241.555 99.7859 239.901 100.12 238.154 100.12C237.068 100.12 236.307 99.9781 235.865 99.6856C235.43 99.4015 235.213 98.8667 235.213 98.0812V89.8416C235.213 88.8973 235.213 88.0282 235.229 87.2427C235.238 86.4571 235.246 85.7385 235.263 85.0783L231.945 84.6855V98.7246C231.945 99.8862 232.146 100.805 232.547 101.482C232.948 102.159 233.592 102.644 234.477 102.928C235.363 103.212 236.516 103.354 237.945 103.354C239.759 103.354 241.522 103.062 243.227 102.468C244.931 101.883 246.427 101.123 247.714 100.195C247.656 99.9698 247.589 99.6439 247.514 99.2177Z" fill="black"/>
<path d="M235.455 81.251C235.413 81.5519 235.38 82.0616 235.346 82.7719C235.313 83.4906 235.28 84.2594 235.263 85.0784L231.945 84.6856V81.0338L235.455 81.251Z" fill="#004E88"/>
<path d="M266.693 91.3541C265.874 90.3262 265.197 89.2399 264.645 88.1034C266.024 87.9614 267.311 87.8109 268.523 87.6521L267.737 84.8277C266.434 85.0198 265.063 85.1786 263.601 85.3207C263.4 84.5853 263.25 83.8415 263.141 83.0811C263.032 82.3207 262.991 81.5686 263.007 80.8248H259.798C259.798 82.3541 260.032 83.9418 260.492 85.5881C258.854 85.6884 257.275 85.7552 255.771 85.7719C254.258 85.7886 253.021 85.7552 252.035 85.6633L252.436 88.797C253.564 88.8137 254.927 88.7803 256.531 88.7051C258.135 88.6215 259.798 88.5213 261.512 88.3959C261.829 89.1062 262.188 89.7998 262.581 90.4683C262.974 91.1369 263.392 91.7886 263.843 92.407C262.197 92.2148 260.701 92.2984 259.339 92.6661C257.985 93.0255 256.907 93.6271 256.105 94.4544C255.303 95.2901 254.901 96.3096 254.901 97.5212C254.901 98.7664 255.219 99.8193 255.846 100.663C256.481 101.516 257.342 102.184 258.436 102.686C259.473 103.162 260.651 103.496 261.98 103.68L262.932 100.48C261.461 100.329 260.3 100.012 259.439 99.5436C258.57 99.0672 258.135 98.3987 258.135 97.5212C258.135 96.9363 258.336 96.4433 258.737 96.0505C259.138 95.6577 259.681 95.3653 260.358 95.1647C261.035 94.9725 261.796 94.8722 262.623 94.8806C263.45 94.8973 264.294 95.0143 265.147 95.2483C266.007 95.4739 266.818 95.8165 267.587 96.2594L269.509 94.07C268.439 93.2845 267.503 92.382 266.693 91.3541Z" fill="black"/>
<path d="M272.374 87.0338C271.539 87.2093 270.436 87.3931 269.073 87.577C268.89 87.602 268.706 87.6271 268.522 87.6522L267.736 84.8277C267.962 84.7942 268.188 84.7608 268.405 84.7274C269.892 84.4934 271.062 84.2343 271.923 83.9502L272.374 87.0338Z" fill="#FFA300"/>
<path d="M267.828 100.546C267.628 100.814 267.435 101.156 267.252 101.574C267.059 101.992 266.901 102.41 266.767 102.819C266.633 103.229 266.55 103.58 266.516 103.864C264.995 103.939 263.541 103.881 262.154 103.705C262.095 103.697 262.037 103.688 261.979 103.68L262.931 100.479H262.939C264.41 100.63 266.04 100.655 267.828 100.546Z" fill="#004E88"/>
<path d="M38.8335 3.16711H35.8418V6.77716H38.8335V3.16711Z" fill="#FFA300"/>
<path d="M90.1954 7.15289H80.8555V9.56153H90.1954V7.15289Z" fill="black"/>
<path d="M81.8438 18.3093V26.2898H89.4983V18.3093H81.8438ZM86.958 23.8831H84.3841V20.7243H86.958V23.8831Z" fill="black"/>
<path d="M100.555 7.3705H101.917V5.92478H105.368V3.86073H101.917V2.47351H99.1844V3.86073H96.4852V2.47351H93.7526V3.86073H90.3598V5.92478H93.7526V6.8858L92.6078 6.50975C92.4239 7.06126 92.1565 7.67968 91.7971 8.35657C91.4462 9.03345 91.0451 9.70197 90.5938 10.3621C90.1509 11.0223 89.708 11.6072 89.2568 12.1003V10.8468H81.9531V13.2535H89.2568V13.0947C89.5242 13.2702 89.7916 13.4624 90.059 13.6713C90.3264 13.8719 90.5604 14.0724 90.7609 14.273C90.903 14.1309 91.0534 13.9722 91.2122 13.7883C91.371 13.6128 91.5297 13.4206 91.6969 13.2284V17.3733H105.184V15.7187H100.229V14.7243H104.215V13.312H100.229V12.3426H104.215V10.9304H100.229V9.96102H104.942V8.27298H100.095C100.187 8.13093 100.271 7.98051 100.338 7.80501C100.413 7.63787 100.48 7.49581 100.555 7.3705ZM97.371 15.7187H94.4545V14.7243H97.371V15.7187ZM97.371 13.312H94.4545V12.3426H97.371V13.312ZM97.371 10.9304H94.4545V9.96102H97.371V10.9304ZM99.1844 6.66852L98.0395 6.4262C97.9643 6.66016 97.864 6.95266 97.7387 7.30363C97.6133 7.64622 97.4796 7.97215 97.3376 8.27297H94.7721C94.9141 7.95542 95.0395 7.65459 95.1481 7.37049H96.4852V5.92477H99.1844L99.1844 6.66852Z" fill="black"/>
<path d="M89.2575 14.5665H81.9512V16.9751H89.2575V14.5665Z" fill="black"/>
<path d="M89.2579 3.40631H81.9785V5.8684H89.2579V3.40631Z" fill="#FFA300"/>
<path d="M102.786 21.2842C103.454 20.5739 104.048 19.8302 104.566 19.0614L103.68 18.2341H90.7857V20.2647H93.1674C93.861 21.3928 94.6716 22.3622 95.5991 23.1811C94.7802 23.5237 93.8861 23.8163 92.9251 24.0502C91.9641 24.2926 90.9278 24.4597 89.8164 24.5516C90.0337 24.8692 90.2259 25.2619 90.393 25.7132C90.5685 26.1645 90.7106 26.599 90.8359 27.0085C92.1897 26.833 93.4599 26.5572 94.6548 26.1979C95.8331 25.8302 96.9446 25.3873 97.9808 24.8692C98.9919 25.4374 100.095 25.8887 101.307 26.2396L102.853 24.0001C102.042 23.8079 101.282 23.5655 100.555 23.2647C101.374 22.6547 102.117 21.9945 102.786 21.2842ZM98.0058 21.9778C97.6131 21.7104 97.2538 21.4346 96.9111 21.1505C96.5769 20.8664 96.276 20.5739 96.0337 20.2647H100.204C99.6354 20.8747 98.9 21.443 98.0058 21.9778Z" fill="black"/>
<path d="M106.17 24.5182C106.062 24.6854 105.945 24.911 105.811 25.2202C105.677 25.521 105.552 25.8302 105.435 26.1561C105.318 26.4737 105.234 26.7495 105.184 26.9834C103.83 26.8414 102.543 26.599 101.332 26.248C101.323 26.248 101.315 26.2397 101.307 26.2397L102.853 24.0001C102.978 24.0336 103.103 24.067 103.229 24.092C104.173 24.3093 105.159 24.4514 106.17 24.5182Z" fill="#004E88"/>
<path d="M96.5093 61.0197C96.2968 61.2006 95.9104 61.4806 95.3561 61.6382C94.5985 61.8534 93.9592 61.7171 93.6764 61.6382C93.5845 60.9612 93.3755 60.4181 93.0413 60.0086C92.941 59.8833 92.8323 59.7746 92.707 59.6911L94.6374 57.6938C94.746 57.7774 94.8463 57.8694 94.9466 57.9696C95.7572 58.7886 96.2752 59.8081 96.5093 61.0197Z" fill="#004E88"/>
<path d="M36.9044 85.7765H27.5645V88.1851H36.9044V85.7765Z" fill="black"/>
<path d="M28.5547 96.9329V104.913H36.2093V96.9329H28.5547ZM33.6689 102.507H31.0951V99.3479H33.6689V102.507Z" fill="black"/>
<path d="M47.2638 85.9941H48.6259V84.5484H52.0772V82.4843H48.6259V81.0971H45.8934V82.4843H43.1942V81.0971H40.4616V82.4843H37.0688V84.5484H40.4616V85.5094L39.3167 85.1333C39.1329 85.6849 38.8655 86.3033 38.5061 86.9802C38.1552 87.657 37.7541 88.3256 37.3028 88.9857C36.8599 89.6459 36.417 90.2308 35.9658 90.7239V89.4704H28.6621V91.8771H35.9658V91.7183C36.2332 91.8938 36.5006 92.086 36.7679 92.2949C37.0354 92.4955 37.2694 92.696 37.4699 92.8966C37.612 92.7545 37.7624 92.5958 37.9212 92.4119C38.0799 92.2364 38.2387 92.0442 38.4059 91.852V95.9969H51.8934V94.3423H46.9379V93.3479H50.924V91.9356H46.9379V90.9662H50.924V89.554H46.9379V88.5846H51.651V86.8966H46.8042C46.8961 86.7545 46.9797 86.6041 47.0466 86.4286C47.1218 86.2615 47.1886 86.1194 47.2638 85.9941ZM44.08 94.3423H41.1635V93.3479H44.08V94.3423ZM44.08 91.9356H41.1635V90.9662H44.08V91.9356ZM44.08 89.554H41.1635V88.5846H44.08V89.554ZM45.8934 85.2921L44.7485 85.0498C44.6733 85.2838 44.573 85.5763 44.4477 85.9272C44.3223 86.2698 44.1886 86.5957 44.0466 86.8966H41.4811C41.6231 86.579 41.7485 86.2782 41.8571 85.9941H43.1942V84.5484H45.8934L45.8934 85.2921Z" fill="black"/>
<path d="M35.9664 93.1901H28.6602V95.5987H35.9664V93.1901Z" fill="black"/>
<path d="M35.9669 82.0299H28.6875V84.492H35.9669V82.0299Z" fill="#FFA300"/>
<path d="M49.4948 99.9078C50.1633 99.1975 50.7567 98.4537 51.2748 97.685L50.389 96.8577H37.4947V98.8883H39.8764C40.57 100.016 41.3806 100.986 42.3081 101.805C41.4892 102.147 40.595 102.44 39.6341 102.674C38.673 102.916 37.6368 103.083 36.5254 103.175C36.7427 103.493 36.9349 103.886 37.102 104.337C37.2775 104.788 37.4195 105.223 37.5449 105.632C38.8987 105.457 40.1688 105.181 41.3638 104.821C42.5421 104.454 43.6536 104.011 44.6898 103.493C45.7009 104.061 46.804 104.512 48.0157 104.863L49.5616 102.624C48.7511 102.431 47.9906 102.189 47.2636 101.888C48.0826 101.278 48.8263 100.618 49.4948 99.9078ZM44.7148 100.601C44.3221 100.334 43.9628 100.058 43.6201 99.7741C43.2859 99.4899 42.985 99.1975 42.7427 98.8883H46.9126C46.3444 99.4983 45.609 100.067 44.7148 100.601Z" fill="black"/>
<path d="M52.8792 103.142C52.7705 103.309 52.6535 103.535 52.5198 103.844C52.3861 104.145 52.2608 104.454 52.1438 104.78C52.0268 105.097 51.9432 105.373 51.8931 105.607C50.5393 105.465 49.2524 105.223 48.0407 104.872C48.0324 104.872 48.024 104.863 48.0156 104.863L49.5616 102.624C49.6869 102.657 49.8123 102.691 49.9376 102.716C50.8819 102.933 51.868 103.075 52.8792 103.142Z" fill="#004E88"/>
<path d="M131.674 80.9009H128.758V86.2566H131.674V80.9009Z" fill="#004E88"/>
<path d="M1.67188 71.8666H115.321" stroke="black" stroke-width="1.03773"/>
<path d="M1.67188 35.0977H130.781" stroke="black" stroke-width="1.03773"/>
</g>
<defs>
<clipPath id="clip0_1793_2">
<rect width="272.374" height="106.914" fill="white"/>
</clipPath>
</defs>
</svg>
