<svg width="356" height="60" viewBox="0 0 356 60" fill="none" xmlns="http://www.w3.org/2000/svg">
<path d="M127.238 42.9827C127.228 42.8001 127.195 42.5799 127.142 42.3222C127.099 42.0752 127.045 41.8282 126.981 41.5812C126.927 41.3342 126.868 41.1409 126.803 41.0012H128.479C128.704 41.0012 128.865 40.9637 128.962 40.8885C129.069 40.8133 129.123 40.6683 129.123 40.4535V28.7584H131.169V41.2429C131.169 42.4027 130.476 42.9827 129.091 42.9827H127.238ZM136.066 39.3903C135.755 39.0037 135.433 38.5204 135.1 37.9405C134.767 37.3499 134.439 36.7216 134.117 36.0558C133.805 35.3792 133.521 34.708 133.263 34.0421C133.005 33.3763 132.796 32.7803 132.635 32.254L134.391 31.5936C134.541 32.1198 134.745 32.6943 135.003 33.3172C135.271 33.9294 135.567 34.5415 135.889 35.1537C136.222 35.7658 136.555 36.335 136.888 36.8612C137.221 37.3874 137.532 37.8224 137.822 38.166C137.629 38.2627 137.414 38.3862 137.178 38.5366C136.952 38.6869 136.737 38.8373 136.533 38.9876C136.34 39.138 136.184 39.2722 136.066 39.3903ZM124.29 39.487C124.022 39.3152 123.71 39.138 123.356 38.9554C123.002 38.7621 122.706 38.6278 122.47 38.5527C122.814 38.1446 123.147 37.672 123.469 37.1351C123.802 36.5874 124.108 36.0074 124.387 35.3953C124.666 34.7831 124.903 34.171 125.096 33.5589C125.3 32.9467 125.45 32.3614 125.547 31.803L127.464 32.3185C127.357 32.8769 127.19 33.4837 126.965 34.1388C126.739 34.7939 126.476 35.449 126.175 36.1041C125.885 36.7592 125.574 37.3821 125.241 37.9727C124.919 38.5527 124.602 39.0574 124.29 39.487ZM143.396 36.2169V29.0161H151.321V36.2169L143.396 36.2169ZM147.777 42.9665C147.144 42.9665 146.693 42.8699 146.424 42.6766C146.167 42.4833 146.038 42.1557 146.038 41.6939V36.9257H147.971V40.7113C147.971 40.8724 148.003 40.9851 148.067 41.0496C148.143 41.114 148.298 41.1462 148.535 41.1462H150.274C150.554 41.1462 150.774 41.0979 150.935 41.0012C151.096 40.9046 151.219 40.722 151.305 40.4535C151.391 40.185 151.456 39.7984 151.499 39.2937C151.638 39.3581 151.815 39.4333 152.03 39.5192C152.256 39.6051 152.487 39.6857 152.723 39.7608C152.959 39.8253 153.158 39.879 153.319 39.9219C153.201 40.7596 153.05 41.3986 152.868 41.8389C152.685 42.2792 152.438 42.5746 152.127 42.7249C151.826 42.886 151.413 42.9665 150.886 42.9665H147.777ZM139.159 43.3048C139.105 43.1008 139.009 42.8162 138.869 42.4511C138.74 42.0967 138.601 41.8013 138.45 41.5651C139.954 41.4791 141.081 41.0603 141.833 40.3086C142.596 39.5568 142.977 38.4292 142.977 36.9257H144.862C144.862 38.848 144.384 40.33 143.428 41.3717C142.483 42.4135 141.06 43.0578 139.159 43.3048ZM139.787 36.7485V28.7906H141.72V36.7485H139.787ZM145.297 34.5093H149.437V33.3172H145.297V34.5093ZM145.297 31.8352H149.437V30.7076H145.297V31.8352ZM162.582 42.145C162.539 41.9732 162.458 41.7691 162.34 41.5328C162.222 41.2966 162.082 41.071 161.921 40.8563C161.771 40.6307 161.62 40.4482 161.47 40.3086C162.941 40.083 164.058 39.6051 164.821 38.8748C165.594 38.1338 166.002 37.2639 166.045 36.2652C166.088 35.4705 165.943 34.7617 165.61 34.1388C165.277 33.5159 164.821 33.0112 164.241 32.6245C163.672 32.2379 163.043 32.007 162.356 31.9318C162.27 32.9306 162.109 33.9508 161.873 34.9926C161.637 36.0343 161.314 37.0116 160.906 37.9244C160.509 38.8373 160.02 39.6105 159.44 40.2441C159 40.7166 158.57 40.9905 158.152 41.0657C157.744 41.1409 157.309 41.0818 156.847 40.8885C156.396 40.6952 155.998 40.3891 155.655 39.9703C155.311 39.5514 155.048 39.0574 154.865 38.4882C154.683 37.9083 154.608 37.2908 154.64 36.6357C154.694 35.6584 154.924 34.767 155.333 33.9616C155.741 33.1454 156.288 32.442 156.976 31.8513C157.663 31.2606 158.452 30.815 159.344 30.5142C160.235 30.2135 161.186 30.09 162.195 30.1437C163.011 30.1867 163.779 30.3693 164.499 30.6915C165.218 31.0136 165.846 31.4593 166.383 32.0285C166.931 32.5869 167.35 33.2367 167.64 33.9777C167.941 34.7187 168.064 35.5295 168.01 36.4102C167.935 37.8815 167.42 39.1165 166.464 40.1152C165.508 41.1033 164.214 41.7798 162.582 42.145ZM157.346 38.891C157.464 38.9769 157.588 39.0198 157.717 39.0198C157.846 39.0198 157.974 38.9554 158.103 38.8265C158.49 38.4399 158.844 37.8922 159.167 37.1834C159.499 36.4746 159.773 35.6745 159.988 34.7831C160.214 33.8918 160.359 32.9843 160.423 32.0607C159.682 32.2325 159.022 32.544 158.442 32.995C157.872 33.4461 157.421 33.9938 157.088 34.6382C156.756 35.2718 156.568 35.9698 156.525 36.7323C156.503 37.2371 156.568 37.6774 156.718 38.0533C156.879 38.4184 157.088 38.6976 157.346 38.891ZM176.532 43.2243C176.36 43.0739 176.162 42.9075 175.936 42.7249C175.71 42.5531 175.485 42.4027 175.259 42.2739V42.7249H170.395V38.0855H175.259V41.9356C175.925 41.3019 176.452 40.6093 176.838 39.8575C177.235 39.095 177.515 38.2036 177.676 37.1834C177.848 36.1632 177.934 34.955 177.934 33.5589V33.0917H176.162V31.3841H178.9V28.5006L180.817 28.5006V31.3841L184.297 31.3841V33.0917L179.818 33.0917V33.5589C179.818 33.7307 179.813 33.9079 179.802 34.0905C179.802 34.2623 179.802 34.4287 179.802 34.5898L183.33 34.5898C183.33 36.1148 183.298 37.4197 183.233 38.5043C183.169 39.5783 183.051 40.475 182.879 41.1945C182.707 41.9033 182.423 42.3974 182.025 42.6766C181.628 42.9665 181.08 43.1115 180.382 43.1115H179.142C179.131 42.9504 179.104 42.7518 179.061 42.5155C179.018 42.2792 178.97 42.0483 178.916 41.8228C178.873 41.5865 178.825 41.4093 178.771 41.2912H180.06C180.436 41.2912 180.694 41.2268 180.833 41.0979C180.973 40.969 181.08 40.765 181.155 40.4857C181.273 40.0562 181.365 39.4977 181.429 38.8104C181.504 38.1124 181.542 37.2747 181.542 36.2974H179.657C179.475 37.8439 179.12 39.1863 178.594 40.3247C178.079 41.463 177.391 42.4296 176.532 43.2243ZM169.686 32.7373V31.2553H175.759V32.7373H169.686ZM170.475 30.482V28.9517H175.098V30.482H170.475ZM170.459 37.28V35.7819H175.098V37.28H170.459ZM170.459 35.0087V33.5105H175.098V35.0087H170.459ZM172.038 41.2429H173.616V39.5675H172.038V41.2429ZM196.33 43.1115C196.319 42.9397 196.292 42.7356 196.25 42.4994C196.207 42.2739 196.158 42.0537 196.105 41.8389C196.051 41.6134 195.992 41.4308 195.927 41.2912H197.007C197.221 41.2912 197.377 41.2536 197.474 41.1784C197.57 41.1033 197.619 40.9744 197.619 40.7918V34.3804H193.157V28.9033L199.487 28.9033V41.4845C199.487 42.043 199.337 42.4511 199.036 42.7088C198.746 42.9773 198.269 43.1115 197.603 43.1115H196.33ZM185.73 43.1276V28.9033H192.029V34.3804H187.583V43.1276H185.73ZM189.484 40.4535V35.6691H195.557V40.4535H189.484ZM191.32 39.0198H193.72V37.119H191.32V39.0198ZM194.961 33.0756H197.619V32.1896H194.961V33.0756ZM187.583 33.0756H190.225V32.1896H187.583V33.0756ZM194.961 31.0781H197.619V30.2243L194.961 30.2243V31.0781ZM187.583 31.0781H190.225V30.2243H187.583V31.0781ZM204.626 43.1599V38.1177C204.175 38.5043 203.692 38.8695 203.176 39.2131C202.661 39.5461 202.119 39.8575 201.549 40.1475C201.442 39.9434 201.27 39.6964 201.034 39.4064C200.798 39.1165 200.583 38.9017 200.39 38.7621C201.506 38.2895 202.446 37.758 203.209 37.1673C203.982 36.5659 204.621 35.9 205.126 35.1698H200.937V33.6555H205.979C206.033 33.5159 206.087 33.3763 206.14 33.2367C206.205 33.0971 206.259 32.9575 206.302 32.8178H202.065V31.3036H206.704C206.726 31.1747 206.747 31.0458 206.769 30.917C206.801 30.7774 206.828 30.6431 206.849 30.5142C206.022 30.5572 205.228 30.5948 204.465 30.627C203.713 30.6592 203.053 30.67 202.484 30.6592C202.441 30.423 202.366 30.1599 202.258 29.8699C202.162 29.5692 202.081 29.349 202.017 29.2094C202.779 29.2202 203.595 29.2148 204.465 29.1933C205.335 29.1611 206.205 29.1181 207.075 29.0644C207.945 29 208.777 28.9248 209.572 28.8389C210.366 28.7423 211.081 28.6456 211.714 28.5489C212.348 28.4416 212.847 28.3288 213.212 28.2107L214.163 29.6121C213.572 29.7625 212.788 29.9021 211.811 30.031C210.844 30.1599 209.819 30.2726 208.734 30.3693C208.723 30.5304 208.702 30.6915 208.67 30.8525C208.648 31.0029 208.627 31.1532 208.605 31.3036H214.308V32.8178H208.235C208.192 32.9575 208.143 33.0971 208.09 33.2367C208.036 33.3763 207.982 33.5159 207.929 33.6555H215.468V35.1698H207.188C207.112 35.3094 207.026 35.4436 206.93 35.5725C206.844 35.7014 206.758 35.8249 206.672 35.943H213.599V43.1599H204.626ZM206.575 41.8389H211.666V41.0335H206.575V41.8389ZM206.575 38.0533H211.666V37.2639H206.575V38.0533ZM206.575 39.9219H211.666V39.1809H206.575V39.9219ZM222.878 37.4572V34.9603C222.781 35.0785 222.684 35.1912 222.588 35.2986C222.491 35.406 222.4 35.5027 222.314 35.5886C222.196 35.4705 222.056 35.3523 221.895 35.2342C221.734 35.1053 221.573 34.9872 221.412 34.8798V34.9765H217.014V33.5266H221.412V34.2838C221.68 33.9831 221.949 33.634 222.217 33.2367C222.486 32.8393 222.727 32.4366 222.942 32.0285C223.157 31.6204 223.318 31.2499 223.425 30.917L224.118 31.1425V30.5626H222.072V29.3222H224.118V28.4845L225.761 28.4845V29.3222H227.388V28.4845H229.031V29.3222H231.109V30.5626H229.031V31.4325H228.21C228.167 31.5076 228.124 31.5989 228.081 31.7063C228.038 31.803 227.99 31.8943 227.936 31.9802H230.852V32.995H228.017V33.575H230.417V34.4287H228.017V35.0087H230.417V35.8625H228.017V36.4585H230.997V37.4572H222.878ZM222.362 43.2565C222.287 43.0095 222.196 42.7464 222.088 42.4672C221.992 42.1987 221.879 41.9678 221.75 41.7745C222.416 41.7208 223.039 41.6241 223.619 41.4845C224.199 41.3342 224.736 41.157 225.23 40.9529C224.671 40.4589 224.183 39.8736 223.764 39.197H222.33V37.9727H230.095L230.626 38.4721C230.315 38.9339 229.955 39.3796 229.547 39.8092C229.15 40.2387 228.704 40.6361 228.21 41.0012C228.715 41.2053 229.252 41.3717 229.821 41.5006C230.39 41.6295 230.981 41.7154 231.593 41.7584C231.528 41.855 231.453 41.9946 231.367 42.1772C231.292 42.3598 231.217 42.5477 231.142 42.741C231.077 42.9343 231.029 43.1008 230.997 43.2404C230.181 43.1545 229.407 43.0041 228.677 42.7893C227.947 42.5853 227.276 42.3114 226.663 41.9678C226.041 42.2792 225.369 42.5423 224.65 42.7571C223.941 42.9827 223.178 43.1491 222.362 43.2565ZM216.95 42.8216V38.0211H221.557V42.8216H216.95ZM216.354 32.7534V31.3036H221.976V32.7534H216.354ZM217.03 30.5304V29.0483H221.412V30.5304H217.03ZM217.014 37.2156V35.7658H221.412V37.2156H217.014ZM218.48 41.3717H220.026V39.4709H218.48V41.3717ZM224.73 31.9802H226.277C226.363 31.7976 226.443 31.6043 226.518 31.4002C226.594 31.1855 226.653 31.0083 226.696 30.8686L227.388 31.0136V30.5626H225.761V31.4325H224.956C224.891 31.6043 224.816 31.7869 224.73 31.9802ZM226.68 40.228C227.216 39.9058 227.657 39.5622 228 39.197H225.487C225.638 39.3796 225.815 39.5568 226.019 39.7286C226.223 39.9005 226.443 40.0669 226.68 40.228ZM224.537 36.4585H226.293V35.8625H224.537V36.4585ZM224.537 35.0087H226.293V34.4287H224.537V35.0087ZM224.537 33.575H226.293V32.995H224.537V33.575Z" fill="white"/>
<path d="M160.962 17.12C160.322 17.12 159.822 16.96 159.462 16.64C159.102 16.32 158.846 15.84 158.694 15.2C158.55 14.56 158.478 13.76 158.478 12.8C158.478 11.84 158.55 11.04 158.694 10.4C158.846 9.752 159.102 9.268 159.462 8.948C159.822 8.628 160.322 8.468 160.962 8.468C161.602 8.468 162.098 8.628 162.45 8.948C162.81 9.268 163.062 9.752 163.206 10.4C163.358 11.04 163.434 11.84 163.434 12.8C163.434 13.76 163.358 14.56 163.206 15.2C163.062 15.84 162.81 16.32 162.45 16.64C162.098 16.96 161.602 17.12 160.962 17.12ZM160.962 15.896C161.258 15.896 161.49 15.804 161.658 15.62C161.834 15.428 161.962 15.108 162.042 14.66C162.122 14.212 162.162 13.592 162.162 12.8C162.162 12 162.122 11.376 162.042 10.928C161.962 10.48 161.834 10.164 161.658 9.98C161.49 9.788 161.258 9.692 160.962 9.692C160.666 9.692 160.43 9.788 160.254 9.98C160.078 10.164 159.95 10.48 159.87 10.928C159.798 11.376 159.762 12 159.762 12.8C159.762 13.592 159.798 14.212 159.87 14.66C159.95 15.108 160.078 15.428 160.254 15.62C160.43 15.804 160.666 15.896 160.962 15.896ZM169.577 17.96C169.473 17.792 169.329 17.6 169.145 17.384C168.961 17.168 168.801 17.016 168.665 16.928C169.169 16.736 169.637 16.496 170.069 16.208C170.501 15.92 170.893 15.592 171.245 15.224C171.021 14.744 170.825 14.224 170.657 13.664C170.497 13.104 170.373 12.52 170.285 11.912H166.157V12.896C166.157 13.328 166.137 13.74 166.097 14.132C166.065 14.516 166.017 14.892 165.953 15.26C166.137 15.028 166.317 14.768 166.493 14.48C166.677 14.184 166.809 13.924 166.889 13.7L167.801 14.132C167.745 14.3 167.657 14.496 167.537 14.72C167.417 14.944 167.289 15.16 167.153 15.368C167.017 15.576 166.889 15.748 166.769 15.884C166.681 15.804 166.549 15.716 166.373 15.62C166.197 15.516 166.049 15.44 165.929 15.392C165.833 15.84 165.705 16.268 165.545 16.676C165.393 17.084 165.205 17.484 164.981 17.876C164.901 17.82 164.785 17.752 164.633 17.672C164.481 17.6 164.329 17.528 164.177 17.456C164.025 17.392 163.905 17.352 163.817 17.336C164.217 16.696 164.497 16.032 164.657 15.344C164.825 14.648 164.909 13.852 164.909 12.956V10.868H170.165C170.157 10.756 170.149 10.64 170.141 10.52C170.141 10.4 170.137 10.28 170.129 10.16H164.225V9.08H166.205V7.292L167.597 7.292V9.08H168.929V6.848H170.297V7.544L173.501 7.544V8.504H170.297V9.08L174.977 9.08V10.16L173.249 10.16C173.337 10.24 173.425 10.32 173.513 10.4C173.609 10.48 173.701 10.564 173.789 10.652L173.573 10.868L174.653 10.868V11.912L171.581 11.912C171.701 12.72 171.877 13.452 172.109 14.108C172.317 13.796 172.493 13.472 172.637 13.136C172.789 12.792 172.913 12.444 173.009 12.092L174.233 12.596C174.065 13.108 173.857 13.6 173.609 14.072C173.361 14.536 173.073 14.98 172.745 15.404C173.041 15.86 173.373 16.2 173.741 16.424C173.789 16.344 173.841 16.22 173.897 16.052C173.961 15.876 174.021 15.692 174.077 15.5C174.133 15.3 174.173 15.128 174.197 14.984C174.333 15.064 174.517 15.148 174.749 15.236C174.989 15.324 175.185 15.384 175.337 15.416C175.249 15.872 175.137 16.292 175.001 16.676C174.873 17.052 174.749 17.344 174.629 17.552C174.509 17.752 174.341 17.872 174.125 17.912C173.917 17.96 173.689 17.928 173.441 17.816C173.153 17.68 172.877 17.488 172.613 17.24C172.357 16.992 172.113 16.7 171.881 16.364C171.553 16.676 171.197 16.964 170.813 17.228C170.437 17.5 170.025 17.744 169.577 17.96ZM167.141 17.156C167.133 16.996 167.109 16.804 167.069 16.58C167.037 16.356 166.997 16.18 166.949 16.052H167.465C167.601 16.052 167.693 16.028 167.741 15.98C167.789 15.932 167.813 15.848 167.813 15.728V13.436H166.553V12.416H170.141V13.436H168.941V16.136C168.941 16.48 168.849 16.736 168.665 16.904C168.481 17.072 168.181 17.156 167.765 17.156H167.141ZM169.817 15.872C169.777 15.712 169.705 15.52 169.601 15.296C169.497 15.064 169.385 14.836 169.265 14.612C169.153 14.388 169.049 14.212 168.953 14.084L169.841 13.676C169.945 13.796 170.057 13.96 170.177 14.168C170.305 14.376 170.425 14.588 170.537 14.804C170.649 15.02 170.733 15.204 170.789 15.356C170.661 15.396 170.501 15.468 170.309 15.572C170.117 15.668 169.953 15.768 169.817 15.872ZM171.461 10.868H172.361C172.273 10.78 172.185 10.7 172.097 10.628C172.009 10.548 171.925 10.48 171.845 10.424L172.145 10.16H171.437C171.437 10.28 171.437 10.4 171.437 10.52C171.445 10.64 171.453 10.756 171.461 10.868ZM177.173 17.3C177.101 17.228 176.989 17.14 176.837 17.036C176.685 16.94 176.529 16.848 176.369 16.76C176.209 16.672 176.073 16.612 175.961 16.58C176.297 16.22 176.621 15.784 176.933 15.272C177.245 14.752 177.541 14.188 177.821 13.58C178.101 12.972 178.349 12.348 178.565 11.708C178.157 11.756 177.761 11.812 177.377 11.876C177.001 11.94 176.689 12.004 176.441 12.068C176.433 11.964 176.413 11.824 176.381 11.648C176.349 11.472 176.313 11.3 176.273 11.132C176.233 10.956 176.193 10.824 176.153 10.736C176.337 10.72 176.577 10.7 176.873 10.676C177.169 10.652 177.497 10.624 177.857 10.592C178.217 10.552 178.577 10.52 178.937 10.496C179.081 9.992 179.197 9.5 179.285 9.02C179.381 8.532 179.445 8.08 179.477 7.664L180.893 7.916C180.853 8.284 180.789 8.68 180.701 9.104C180.613 9.52 180.505 9.948 180.377 10.388C180.537 10.38 180.681 10.376 180.809 10.376C180.937 10.368 181.049 10.364 181.145 10.364C181.465 10.364 181.749 10.416 181.997 10.52C182.253 10.616 182.457 10.792 182.609 11.048C182.761 11.296 182.849 11.644 182.873 12.092C182.897 12.532 182.845 13.096 182.717 13.784C182.557 14.648 182.373 15.324 182.165 15.812C181.965 16.3 181.713 16.644 181.409 16.844C181.105 17.044 180.717 17.144 180.245 17.144C180.021 17.144 179.801 17.12 179.585 17.072C179.369 17.032 179.169 16.964 178.985 16.868C178.993 16.684 178.993 16.456 178.985 16.184C178.977 15.912 178.953 15.688 178.913 15.512C179.313 15.688 179.705 15.776 180.089 15.776C180.281 15.776 180.445 15.724 180.581 15.62C180.725 15.508 180.861 15.292 180.989 14.972C181.117 14.644 181.245 14.164 181.373 13.532C181.493 12.948 181.541 12.516 181.517 12.236C181.493 11.948 181.417 11.76 181.289 11.672C181.161 11.584 181.001 11.54 180.809 11.54C180.585 11.54 180.317 11.552 180.005 11.576C179.757 12.32 179.473 13.052 179.153 13.772C178.841 14.492 178.513 15.156 178.169 15.764C177.833 16.372 177.501 16.884 177.173 17.3ZM185.921 14.192C185.793 13.976 185.617 13.72 185.393 13.424C185.169 13.128 184.925 12.832 184.661 12.536C184.397 12.232 184.141 11.956 183.893 11.708C183.645 11.452 183.429 11.26 183.245 11.132L184.301 10.244C184.493 10.388 184.717 10.584 184.973 10.832C185.229 11.072 185.493 11.336 185.765 11.624C186.037 11.912 186.289 12.196 186.521 12.476C186.753 12.756 186.933 13 187.061 13.208L185.921 14.192ZM191.957 17.636C191.933 17.516 191.885 17.364 191.813 17.18C191.749 16.996 191.669 16.812 191.573 16.628C191.477 16.444 191.381 16.3 191.285 16.196C192.565 16.228 193.541 16.076 194.213 15.74C194.893 15.404 195.233 14.928 195.233 14.312C195.233 13.952 195.089 13.672 194.801 13.472C194.513 13.272 194.137 13.172 193.673 13.172C193.313 13.172 192.929 13.228 192.521 13.34C192.113 13.444 191.725 13.62 191.357 13.868C190.997 14.108 190.693 14.432 190.445 14.84L189.161 14.276C189.321 13.996 189.457 13.648 189.569 13.232C189.689 12.808 189.785 12.368 189.857 11.912C189.929 11.456 189.981 11.024 190.013 10.616C190.045 10.208 190.049 9.872 190.025 9.608L191.525 9.788C191.533 10.18 191.501 10.644 191.429 11.18C191.357 11.708 191.245 12.232 191.093 12.752C191.517 12.472 191.961 12.256 192.425 12.104C192.889 11.952 193.325 11.876 193.733 11.876C194.357 11.876 194.897 11.984 195.353 12.2C195.817 12.408 196.177 12.7 196.433 13.076C196.689 13.444 196.817 13.868 196.817 14.348C196.817 14.956 196.641 15.504 196.289 15.992C195.945 16.472 195.413 16.856 194.693 17.144C193.981 17.432 193.069 17.596 191.957 17.636ZM193.949 9.944C193.749 9.784 193.509 9.624 193.229 9.464C192.957 9.304 192.669 9.152 192.365 9.008C192.061 8.864 191.761 8.74 191.465 8.636C191.177 8.524 190.921 8.448 190.697 8.408L191.417 7.16C191.625 7.216 191.873 7.304 192.161 7.424C192.449 7.536 192.749 7.664 193.061 7.808C193.381 7.952 193.681 8.096 193.961 8.24C194.249 8.384 194.485 8.516 194.669 8.636L193.949 9.944Z" fill="#FFB300"/>
<path d="M219.933 13H355V59H1V13H140.7" stroke="white"/>
<path d="M146.869 4.90723L151.861 19.5956" stroke="#FFB300"/>
<path d="M209.348 4.90723L204.355 19.5956" stroke="#FFB300"/>
</svg>
