<svg width="113" height="73" viewBox="0 0 113 73" fill="none" xmlns="http://www.w3.org/2000/svg">
<path d="M112.857 33.8601C112.177 34.7001 111.357 35.58 110.397 36.5C109.477 37.38 108.457 38.2 107.337 38.96C106.257 39.68 105.117 40.28 103.917 40.76C102.757 41.2 101.597 41.42 100.437 41.42C98.5572 41.42 97.6172 40.5801 97.6172 38.9001C97.6172 37.7801 97.8972 36.58 98.4572 35.3C99.0572 33.98 99.8172 32.7801 100.737 31.7001C101.657 30.5801 102.657 29.6601 103.737 28.9401C104.857 28.18 105.917 27.8 106.917 27.8C107.477 27.8 107.857 27.9 108.057 28.1C108.297 28.3 108.417 28.5601 108.417 28.8801C108.417 29.3601 108.257 29.8801 107.937 30.4401C107.657 31.0001 107.217 31.54 106.617 32.06C106.017 32.54 105.257 32.96 104.337 33.32C103.417 33.64 102.317 33.8001 101.037 33.8001C100.837 34.1601 100.617 34.7401 100.377 35.5401C100.137 36.3001 100.017 37.0801 100.017 37.8801C100.017 39.5201 100.757 40.34 102.237 40.34C103.157 40.34 104.097 40.12 105.057 39.68C106.057 39.24 107.017 38.7001 107.937 38.0601C108.857 37.3801 109.697 36.6601 110.457 35.9001C111.257 35.1001 111.917 34.3601 112.437 33.68C112.517 33.6 112.597 33.58 112.677 33.62C112.797 33.66 112.857 33.74 112.857 33.8601ZM106.557 29.18C106.557 28.66 106.297 28.4001 105.777 28.4001C105.377 28.4001 104.957 28.5601 104.517 28.8801C104.117 29.1601 103.717 29.5401 103.317 30.0201C102.917 30.5001 102.537 31.02 102.177 31.58C101.817 32.14 101.517 32.6801 101.277 33.2001C101.357 33.2401 101.497 33.28 101.697 33.32C101.897 33.32 102.057 33.32 102.177 33.32C103.337 33.32 104.357 32.92 105.237 32.12C106.117 31.28 106.557 30.3 106.557 29.18Z" fill="white"/>
<path d="M100.553 32.9601C99.9531 33.7201 99.2731 34.5 98.5131 35.3C97.7531 36.06 96.9731 36.8001 96.1731 37.5201C95.3731 38.2 94.5531 38.8201 93.7131 39.3801C92.8731 39.9401 92.0731 40.3801 91.3131 40.7001C90.7131 40.9401 90.1531 41.1 89.6331 41.18C89.1531 41.3 88.6931 41.3601 88.2531 41.3601C86.0531 41.3601 84.9531 40.44 84.9531 38.6C84.9531 37.88 85.1131 37.12 85.4331 36.32C86.1931 34.44 87.2531 32.78 88.6131 31.34C90.0131 29.8601 91.5131 28.78 93.1131 28.1C93.5931 27.9 93.9931 27.8 94.3131 27.8C95.7931 27.8 96.5331 28.3801 96.5331 29.5401C96.5331 30.1401 96.3931 30.6 96.1131 30.92C95.8731 31.16 95.4731 31.5001 94.9131 31.9401L94.7331 31.8801C94.8531 31.5601 94.9131 31.2201 94.9131 30.8601C94.9131 30.4601 94.7531 30.08 94.4331 29.72C94.1531 29.36 93.6931 29.18 93.0531 29.18C92.2931 29.18 91.5531 29.4401 90.8331 29.9601C90.1531 30.4401 89.5331 31.1001 88.9731 31.9401C88.4531 32.7401 88.0331 33.68 87.7131 34.76C87.3931 35.8 87.2331 36.88 87.2331 38C87.2331 38.84 87.4531 39.48 87.8931 39.92C88.3731 40.32 88.9531 40.5201 89.6331 40.5201C90.7531 40.5201 92.2531 39.88 94.1331 38.6C96.0531 37.28 98.0931 35.3 100.253 32.66C100.453 32.46 100.593 32.4201 100.673 32.5401C100.793 32.6201 100.753 32.7601 100.553 32.9601Z" fill="white"/>
<path d="M88.077 33.2599C87.357 34.2599 86.517 35.2799 85.557 36.3199C84.637 37.3199 83.637 38.2199 82.557 39.0199C81.517 39.8199 80.437 40.4799 79.317 40.9999C78.237 41.5199 77.177 41.7799 76.137 41.7799C75.657 41.7799 75.217 41.6999 74.817 41.5399C74.417 41.4199 74.217 41.0799 74.217 40.5199C74.217 39.9599 74.417 39.2599 74.817 38.4199C75.217 37.5399 75.677 36.6199 76.197 35.6599C76.757 34.6999 77.317 33.7199 77.877 32.7199C78.477 31.7199 78.957 30.7999 79.317 29.9599C79.397 29.7599 79.397 29.5999 79.317 29.4799C79.277 29.3199 79.157 29.2999 78.957 29.4199C78.517 29.6999 77.997 30.0799 77.397 30.5599C76.797 31.0399 76.177 31.5599 75.537 32.1199C74.937 32.6399 74.337 33.1799 73.737 33.7399C73.177 34.2999 72.717 34.7999 72.357 35.2399C71.717 36.2399 71.157 37.1599 70.677 37.9999C70.237 38.8399 69.677 39.7799 68.997 40.8199C68.837 41.0599 68.717 41.1799 68.637 41.1799C68.437 41.1799 68.257 40.9599 68.097 40.5199C67.977 40.0799 67.917 39.7999 67.917 39.6799C67.917 39.3199 68.157 38.8399 68.637 38.2399C69.157 37.5999 69.717 36.8999 70.317 36.1399C70.957 34.8599 71.617 33.5199 72.297 32.1199C72.977 30.6799 73.557 29.3999 74.037 28.2799C74.157 28.0799 74.337 27.9799 74.577 27.9799C74.817 27.9799 75.037 28.0799 75.237 28.2799C75.437 28.4799 75.537 28.6999 75.537 28.9399C75.537 29.0999 75.237 29.6599 74.637 30.6199C74.077 31.5399 73.517 32.6199 72.957 33.8599C73.717 33.1799 74.537 32.4599 75.417 31.6999C76.337 30.9399 77.197 30.2399 77.997 29.5999C78.837 28.9599 79.557 28.4399 80.157 28.0399C80.797 27.5999 81.237 27.3799 81.477 27.3799C81.637 27.3799 81.777 27.4799 81.897 27.6799C82.057 27.8399 82.137 27.9999 82.137 28.1599C82.137 28.3199 82.037 28.5599 81.837 28.8799C81.397 29.5199 80.857 30.3399 80.217 31.3399C79.577 32.3399 78.957 33.3799 78.357 34.4599C77.797 35.4999 77.317 36.4999 76.917 37.4599C76.517 38.4199 76.317 39.1799 76.317 39.7399C76.317 40.2199 76.417 40.5599 76.617 40.7599C76.817 40.9199 77.137 40.9999 77.577 40.9999C78.257 40.9999 79.057 40.7399 79.977 40.2199C80.897 39.6999 81.837 39.0599 82.797 38.2999C83.797 37.4999 84.737 36.6199 85.617 35.6599C86.497 34.6999 87.217 33.7799 87.777 32.8999C87.857 32.7799 87.977 32.7599 88.137 32.8399C88.297 32.8799 88.277 33.0199 88.077 33.2599Z" fill="white"/>
<path d="M72.7675 32.7801C71.8475 33.9001 70.8275 35.0401 69.7075 36.2001C68.6275 37.3201 67.5275 38.3401 66.4075 39.2601C65.2875 40.1801 64.1675 40.9201 63.0475 41.4801C61.9675 42.0401 60.9675 42.3201 60.0475 42.3201C59.2475 42.3201 58.6875 42.1201 58.3675 41.7201C58.0475 41.3201 57.8875 40.8201 57.8875 40.2201C57.8875 39.6601 58.0475 38.9201 58.3675 38.0001C58.7275 37.0401 59.2475 36.0201 59.9275 34.9401C59.4075 35.6201 58.8075 36.3401 58.1275 37.1001C57.4475 37.8601 56.7475 38.5601 56.0275 39.2001C55.3075 39.8001 54.5875 40.3201 53.8675 40.7601C53.1475 41.1601 52.5075 41.3601 51.9475 41.3601C51.1075 41.3601 50.6875 40.9401 50.6875 40.1001C50.6875 39.1801 51.0475 38.0201 51.7675 36.6201C52.4875 35.2201 53.4475 33.8801 54.6475 32.6001C55.8875 31.2801 57.2875 30.1601 58.8475 29.2401C60.4075 28.2801 62.0275 27.8001 63.7075 27.8001C63.9075 27.4001 64.0875 27.1201 64.2475 26.9601C64.4075 26.8001 64.5675 26.6801 64.7275 26.6001L66.4075 26.1201L66.5275 26.1801C66.3275 26.3801 66.1275 26.6401 65.9275 26.9601C65.7675 27.2401 65.5875 27.5401 65.3875 27.8601C65.5875 27.8601 65.8875 27.8801 66.2875 27.9201C66.6875 27.9601 66.9875 28.0001 67.1875 28.0401C67.3875 28.1201 67.4875 28.2201 67.4875 28.3401C67.4875 28.4601 67.4275 28.5201 67.3075 28.5201C67.0675 28.4401 66.7075 28.3801 66.2275 28.3401C65.7475 28.3001 65.3875 28.2801 65.1475 28.2801C63.3075 31.5201 61.9475 34.1001 61.0675 36.0201C60.2275 37.9001 59.8075 39.3001 59.8075 40.2201C59.8075 40.5801 59.8875 40.8801 60.0475 41.1201C60.2475 41.3601 60.6275 41.4801 61.1875 41.4801C61.8275 41.4801 62.5875 41.2601 63.4675 40.8201C64.3475 40.3401 65.2875 39.7001 66.2875 38.9001C67.2875 38.0601 68.3075 37.1001 69.3475 36.0201C70.4275 34.9401 71.4475 33.8001 72.4075 32.6001C72.4875 32.4801 72.5675 32.4601 72.6475 32.5401C72.7275 32.5801 72.7675 32.6601 72.7675 32.7801ZM63.4075 28.2201C62.0475 28.2201 60.7475 28.7001 59.5075 29.6601C58.2675 30.6201 57.1675 31.7601 56.2075 33.0801C55.2475 34.3601 54.4675 35.6401 53.8675 36.9201C53.3075 38.2001 53.0275 39.1401 53.0275 39.7401C53.0275 40.0601 53.1475 40.2201 53.3875 40.2201C53.6275 40.2201 53.9875 40.0601 54.4675 39.7401C54.9875 39.4201 55.5675 39.0001 56.2075 38.4801C56.8475 37.9201 57.4875 37.2801 58.1275 36.5601C58.8075 35.8401 59.4275 35.0601 59.9875 34.2201C60.6275 33.2601 61.2475 32.2401 61.8475 31.1601C62.4475 30.0801 62.9875 29.1201 63.4675 28.2801L63.4075 28.2201Z" fill="white"/>
<path d="M52.1968 24.9799C52.1968 25.3399 52.0968 25.6999 51.8968 26.0599C49.8968 29.7799 48.0968 33.0799 46.4968 35.9599C44.8968 38.7999 43.3768 41.4199 41.9368 43.8199C40.4968 46.2599 39.0768 48.5999 37.6768 50.8399C36.2768 53.1199 34.7968 55.5399 33.2368 58.0999C31.9568 60.1399 30.5768 62.0399 29.0968 63.7999C27.5768 65.5999 25.9168 67.1399 24.1168 68.4199C22.2768 69.7399 20.2968 70.7599 18.1768 71.4799C16.0168 72.2399 13.6568 72.6199 11.0968 72.6199C9.21676 72.6199 7.67676 72.3599 6.47676 71.8399C5.23676 71.3599 4.27676 70.6999 3.59676 69.8599C2.87676 69.0199 2.37676 68.0599 2.09676 66.9799C1.81676 65.8999 1.67676 64.7799 1.67676 63.6199C1.67676 63.1399 1.71676 62.6199 1.79676 62.0599C1.87676 61.5399 1.97676 61.1199 2.09676 60.7999C2.13676 60.6399 2.21676 60.5599 2.33676 60.5599C2.45676 60.5599 2.51676 60.6599 2.51676 60.8599C2.43676 61.1399 2.35676 61.4599 2.27676 61.8199C2.19676 62.2199 2.15676 62.6399 2.15676 63.0799C2.15676 64.4799 2.45676 65.6799 3.05676 66.6799C3.65676 67.7199 4.49676 68.5599 5.57676 69.1999C6.61676 69.8799 7.85676 70.3799 9.29676 70.6999C10.7368 71.0599 12.2768 71.2399 13.9168 71.2399C15.6368 71.2399 17.3768 70.9599 19.1368 70.3999C20.8568 69.8399 22.5768 68.8999 24.2968 67.5799C26.0168 66.2999 27.7168 64.6199 29.3968 62.5399C31.0368 60.4599 32.6568 57.8999 34.2568 54.8599C35.2968 52.9399 36.3968 50.8999 37.5568 48.7399C38.7168 46.5799 39.8368 44.4999 40.9168 42.4999C41.9968 40.5399 42.9568 38.7799 43.7968 37.2199C44.6768 35.6199 45.3168 34.4599 45.7168 33.7399C44.9168 34.8199 44.1368 35.8399 43.3768 36.7999C42.6168 37.7599 41.8968 38.5999 41.2168 39.3199C40.5768 40.0399 39.9568 40.5999 39.3568 40.9999C38.7568 41.4399 38.2168 41.6599 37.7368 41.6599C37.3768 41.6599 37.0768 41.5399 36.8368 41.2999C36.5968 41.0599 36.4768 40.6799 36.4768 40.1599C36.4768 39.5599 36.7168 38.7199 37.1968 37.6399C37.7168 36.5199 38.3768 35.3599 39.1768 34.1599C40.0168 32.9599 40.9568 31.8199 41.9968 30.7399C43.0368 29.6599 44.0968 28.8599 45.1768 28.3399C46.1368 27.8599 47.0968 27.6199 48.0568 27.6199C48.3368 27.6199 48.5568 27.6399 48.7168 27.6799C49.0368 27.1199 49.3568 26.5599 49.6768 25.9999C50.0368 25.4399 50.3968 24.8399 50.7568 24.1999C51.0368 23.6799 51.2968 23.4199 51.5368 23.4199C51.6968 23.4199 51.8368 23.5999 51.9568 23.9599C52.1168 24.3199 52.1968 24.6599 52.1968 24.9799ZM48.3568 28.5199C48.2368 28.4799 48.0768 28.4599 47.8768 28.4599C47.7168 28.4599 47.5768 28.4599 47.4568 28.4599C46.8968 28.4599 46.3568 28.5199 45.8368 28.6399C45.3568 28.7199 44.9368 28.9199 44.5768 29.2399C43.5768 30.0799 42.7168 31.0199 41.9968 32.0599C41.2768 33.0999 40.6768 34.1199 40.1968 35.1199C39.7168 36.1199 39.3568 37.0399 39.1168 37.8799C38.9168 38.6799 38.8168 39.2599 38.8168 39.6199C38.8168 40.0599 38.9368 40.2799 39.1768 40.2799C39.4168 40.2799 39.8968 39.9399 40.6168 39.2599C41.3368 38.5799 42.1368 37.6799 43.0168 36.5599C43.9368 35.4399 44.8768 34.1799 45.8368 32.7799C46.7968 31.3799 47.6368 29.9599 48.3568 28.5199Z" fill="white"/>
<path d="M40.5525 33.8601C39.8725 34.7001 39.0525 35.58 38.0925 36.5C37.1725 37.38 36.1525 38.2 35.0325 38.96C33.9525 39.68 32.8125 40.28 31.6125 40.76C30.4525 41.2 29.2925 41.42 28.1325 41.42C26.2525 41.42 25.3125 40.5801 25.3125 38.9001C25.3125 37.7801 25.5925 36.58 26.1525 35.3C26.7525 33.98 27.5125 32.7801 28.4325 31.7001C29.3525 30.5801 30.3525 29.6601 31.4325 28.9401C32.5525 28.18 33.6125 27.8 34.6125 27.8C35.1725 27.8 35.5525 27.9 35.7525 28.1C35.9925 28.3 36.1125 28.5601 36.1125 28.8801C36.1125 29.3601 35.9525 29.8801 35.6325 30.4401C35.3525 31.0001 34.9125 31.54 34.3125 32.06C33.7125 32.54 32.9525 32.96 32.0325 33.32C31.1125 33.64 30.0125 33.8001 28.7325 33.8001C28.5325 34.1601 28.3125 34.7401 28.0725 35.5401C27.8325 36.3001 27.7125 37.0801 27.7125 37.8801C27.7125 39.5201 28.4525 40.34 29.9325 40.34C30.8525 40.34 31.7925 40.12 32.7525 39.68C33.7525 39.24 34.7125 38.7001 35.6325 38.0601C36.5525 37.3801 37.3925 36.6601 38.1525 35.9001C38.9525 35.1001 39.6125 34.3601 40.1325 33.68C40.2125 33.6 40.2925 33.58 40.3725 33.62C40.4925 33.66 40.5525 33.74 40.5525 33.8601ZM34.2525 29.18C34.2525 28.66 33.9925 28.4001 33.4725 28.4001C33.0725 28.4001 32.6525 28.5601 32.2125 28.8801C31.8125 29.1601 31.4125 29.5401 31.0125 30.0201C30.6125 30.5001 30.2325 31.02 29.8725 31.58C29.5125 32.14 29.2125 32.6801 28.9725 33.2001C29.0525 33.2401 29.1925 33.28 29.3925 33.32C29.5925 33.32 29.7525 33.32 29.8725 33.32C31.0325 33.32 32.0525 32.92 32.9325 32.12C33.8125 31.28 34.2525 30.3 34.2525 29.18Z" fill="white"/>
<path d="M41.6851 1.88005C41.6851 2.44005 41.4651 3.26005 41.0251 4.34005C40.5851 5.42005 39.9451 6.68005 39.1051 8.12005C38.3051 9.52005 37.3051 11.04 36.1051 12.68C34.9451 14.28 33.6051 15.88 32.0851 17.48C30.6051 19.08 28.9651 20.62 27.1651 22.1C25.3651 23.54 23.4451 24.82 21.4051 25.94C21.0451 26.58 20.5451 27.44 19.9051 28.52C19.2651 29.6 18.6251 30.74 17.9851 31.94C17.3851 33.14 16.8451 34.32 16.3651 35.48C15.9251 36.64 15.7051 37.6201 15.7051 38.4201C15.7051 39.7001 16.2851 40.34 17.4451 40.34C18.4451 40.34 19.4851 40.06 20.5651 39.5C21.6451 38.94 22.6651 38.26 23.6251 37.46C24.6251 36.66 25.5451 35.82 26.3851 34.94C27.2651 34.02 28.0051 33.2 28.6051 32.48C28.8851 32.2 29.0451 32.14 29.0851 32.3C29.1251 32.42 29.0651 32.56 28.9051 32.72C28.1851 33.6 27.3251 34.54 26.3251 35.54C25.3651 36.54 24.3251 37.46 23.2051 38.3C22.1251 39.14 20.9851 39.84 19.7851 40.4C18.5851 40.96 17.3851 41.2401 16.1851 41.2401C15.1451 41.2401 14.3851 41.0001 13.9051 40.5201C13.4651 40.0001 13.2451 39.38 13.2451 38.66C13.2451 37.94 13.5451 36.92 14.1451 35.6C14.7851 34.24 15.5251 32.82 16.3651 31.34C17.2051 29.86 18.0451 28.46 18.8851 27.14C19.7251 25.82 20.3451 24.82 20.7451 24.14C21.4251 22.98 22.1251 21.78 22.8451 20.54C23.6051 19.26 24.3451 18.02 25.0651 16.82C25.7851 15.62 26.4651 14.48 27.1051 13.4C27.7851 12.28 28.4051 11.3 28.9651 10.46C29.6451 9.42005 30.3451 8.44005 31.0651 7.52005C31.7851 6.60005 32.7051 5.68005 33.8251 4.76005C35.3451 3.48005 36.7451 2.50005 38.0251 1.82005C39.3051 1.14005 40.1651 0.800049 40.6051 0.800049C40.9251 0.800049 41.1851 0.900049 41.3851 1.10005C41.5851 1.26005 41.6851 1.52005 41.6851 1.88005ZM38.9851 3.44005C38.9851 2.80005 38.7251 2.48005 38.2051 2.48005C38.0051 2.48005 37.7851 2.54005 37.5451 2.66005C37.3051 2.78005 36.9851 3.04005 36.5851 3.44005C36.2251 3.80005 35.7651 4.32005 35.2051 5.00005C34.6851 5.68005 34.0051 6.56005 33.1651 7.64005C32.8451 8.08005 32.3851 8.72005 31.7851 9.56005C31.2251 10.4 30.4851 11.52 29.5651 12.92C28.6851 14.28 27.6051 15.98 26.3251 18.02C25.0851 20.02 23.6051 22.4 21.8851 25.16C24.2851 23.8 26.5251 22.16 28.6051 20.24C30.7251 18.28 32.5451 16.28 34.0651 14.24C35.5851 12.2 36.7851 10.22 37.6651 8.30005C38.5451 6.38005 38.9851 4.76005 38.9851 3.44005Z" fill="white"/>
<path d="M16.0603 33.8601C15.3803 34.7001 14.5603 35.58 13.6003 36.5C12.6803 37.38 11.6603 38.2 10.5403 38.96C9.46031 39.68 8.32031 40.28 7.12031 40.76C5.96031 41.2 4.80031 41.42 3.64031 41.42C1.76031 41.42 0.820312 40.5801 0.820312 38.9001C0.820312 37.7801 1.10031 36.58 1.66031 35.3C2.26031 33.98 3.02031 32.7801 3.94031 31.7001C4.86031 30.5801 5.86031 29.6601 6.94031 28.9401C8.06031 28.18 9.12031 27.8 10.1203 27.8C10.6803 27.8 11.0603 27.9 11.2603 28.1C11.5003 28.3 11.6203 28.5601 11.6203 28.8801C11.6203 29.3601 11.4603 29.8801 11.1403 30.4401C10.8603 31.0001 10.4203 31.54 9.82031 32.06C9.22031 32.54 8.46031 32.96 7.54031 33.32C6.62031 33.64 5.52031 33.8001 4.24031 33.8001C4.04031 34.1601 3.82031 34.7401 3.58031 35.5401C3.34031 36.3001 3.22031 37.0801 3.22031 37.8801C3.22031 39.5201 3.96031 40.34 5.44031 40.34C6.36031 40.34 7.30031 40.12 8.26031 39.68C9.26031 39.24 10.2203 38.7001 11.1403 38.0601C12.0603 37.3801 12.9003 36.6601 13.6603 35.9001C14.4603 35.1001 15.1203 34.3601 15.6403 33.68C15.7203 33.6 15.8003 33.58 15.8803 33.62C16.0003 33.66 16.0603 33.74 16.0603 33.8601ZM9.76031 29.18C9.76031 28.66 9.50031 28.4001 8.98031 28.4001C8.58031 28.4001 8.16031 28.5601 7.72031 28.8801C7.32031 29.1601 6.92031 29.5401 6.52031 30.0201C6.12031 30.5001 5.74031 31.02 5.38031 31.58C5.02031 32.14 4.72031 32.6801 4.48031 33.2001C4.56031 33.2401 4.70031 33.28 4.90031 33.32C5.10031 33.32 5.26031 33.32 5.38031 33.32C6.54031 33.32 7.56031 32.92 8.44031 32.12C9.32031 31.28 9.76031 30.3 9.76031 29.18Z" fill="white"/>
</svg>
