<svg width="113" height="73" viewBox="0 0 113 73" fill="none" xmlns="http://www.w3.org/2000/svg">
<path d="M112.857 34.0383C112.177 34.8783 111.357 35.7583 110.397 36.6783C109.477 37.5583 108.457 38.3783 107.337 39.1383C106.257 39.8583 105.117 40.4583 103.917 40.9383C102.757 41.3783 101.597 41.5983 100.437 41.5983C98.5568 41.5983 97.6168 40.7583 97.6168 39.0783C97.6168 37.9583 97.8968 36.7583 98.4568 35.4783C99.0568 34.1583 99.8168 32.9583 100.737 31.8783C101.657 30.7583 102.657 29.8383 103.737 29.1183C104.857 28.3583 105.917 27.9783 106.917 27.9783C107.477 27.9783 107.857 28.0783 108.057 28.2783C108.297 28.4783 108.417 28.7383 108.417 29.0583C108.417 29.5383 108.257 30.0583 107.937 30.6183C107.657 31.1783 107.217 31.7183 106.617 32.2383C106.017 32.7183 105.257 33.1383 104.337 33.4983C103.417 33.8183 102.317 33.9783 101.037 33.9783C100.837 34.3383 100.617 34.9183 100.377 35.7183C100.137 36.4783 100.017 37.2583 100.017 38.0583C100.017 39.6983 100.757 40.5183 102.237 40.5183C103.157 40.5183 104.097 40.2983 105.057 39.8583C106.057 39.4183 107.017 38.8783 107.937 38.2383C108.857 37.5583 109.697 36.8383 110.457 36.0783C111.257 35.2783 111.917 34.5383 112.437 33.8583C112.517 33.7783 112.597 33.7583 112.677 33.7983C112.797 33.8383 112.857 33.9183 112.857 34.0383ZM106.557 29.3583C106.557 28.8383 106.297 28.5783 105.777 28.5783C105.377 28.5783 104.957 28.7383 104.517 29.0583C104.117 29.3383 103.717 29.7183 103.317 30.1983C102.917 30.6783 102.537 31.1983 102.177 31.7583C101.817 32.3183 101.517 32.8583 101.277 33.3783C101.357 33.4183 101.497 33.4583 101.697 33.4983C101.897 33.4983 102.057 33.4983 102.177 33.4983C103.337 33.4983 104.357 33.0983 105.237 32.2983C106.117 31.4583 106.557 30.4783 106.557 29.3583Z" fill="black"/>
<path d="M100.553 33.1383C99.9531 33.8983 99.2731 34.6783 98.5131 35.4783C97.7531 36.2383 96.9731 36.9783 96.1731 37.6983C95.3731 38.3783 94.5531 38.9983 93.7131 39.5583C92.8731 40.1183 92.0731 40.5583 91.3131 40.8783C90.7131 41.1183 90.1531 41.2783 89.6331 41.3583C89.1531 41.4783 88.6931 41.5383 88.2531 41.5383C86.0531 41.5383 84.9531 40.6183 84.9531 38.7783C84.9531 38.0583 85.1131 37.2983 85.4331 36.4983C86.1931 34.6183 87.2531 32.9583 88.6131 31.5183C90.0131 30.0383 91.5131 28.9583 93.1131 28.2783C93.5931 28.0783 93.9931 27.9783 94.3131 27.9783C95.7931 27.9783 96.5331 28.5583 96.5331 29.7183C96.5331 30.3183 96.3931 30.7783 96.1131 31.0983C95.8731 31.3383 95.4731 31.6783 94.9131 32.1183L94.7331 32.0583C94.8531 31.7383 94.9131 31.3983 94.9131 31.0383C94.9131 30.6383 94.7531 30.2583 94.4331 29.8983C94.1531 29.5383 93.6931 29.3583 93.0531 29.3583C92.2931 29.3583 91.5531 29.6183 90.8331 30.1383C90.1531 30.6183 89.5331 31.2783 88.9731 32.1183C88.4531 32.9183 88.0331 33.8583 87.7131 34.9383C87.3931 35.9783 87.2331 37.0583 87.2331 38.1783C87.2331 39.0183 87.4531 39.6583 87.8931 40.0983C88.3731 40.4983 88.9531 40.6983 89.6331 40.6983C90.7531 40.6983 92.2531 40.0583 94.1331 38.7783C96.0531 37.4583 98.0931 35.4783 100.253 32.8383C100.453 32.6383 100.593 32.5983 100.673 32.7183C100.793 32.7983 100.753 32.9383 100.553 33.1383Z" fill="black"/>
<path d="M88.0769 33.4381C87.3569 34.4381 86.5169 35.4581 85.5569 36.4981C84.6369 37.4981 83.6369 38.3981 82.5569 39.1981C81.5169 39.9981 80.4369 40.6581 79.3169 41.1781C78.2369 41.6981 77.1769 41.9581 76.1369 41.9581C75.6569 41.9581 75.2169 41.8781 74.8169 41.7181C74.4169 41.5981 74.2169 41.2581 74.2169 40.6981C74.2169 40.1381 74.4169 39.4381 74.8169 38.5981C75.2169 37.7181 75.6769 36.7981 76.1969 35.8381C76.7569 34.8781 77.3169 33.8981 77.8769 32.8981C78.4769 31.8981 78.9569 30.9781 79.3169 30.1381C79.3969 29.9381 79.3969 29.7781 79.3169 29.6581C79.2769 29.4981 79.1569 29.4781 78.9569 29.5981C78.5169 29.8781 77.9969 30.2581 77.3969 30.7381C76.7969 31.2181 76.1769 31.7381 75.5369 32.2981C74.9369 32.8181 74.3369 33.3581 73.7369 33.9181C73.1769 34.4781 72.7169 34.9781 72.3569 35.4181C71.7169 36.4181 71.1569 37.3381 70.6769 38.1781C70.2369 39.0181 69.6769 39.9581 68.9969 40.9981C68.8369 41.2381 68.7169 41.3581 68.6369 41.3581C68.4369 41.3581 68.2569 41.1381 68.0969 40.6981C67.9769 40.2581 67.9169 39.9781 67.9169 39.8581C67.9169 39.4981 68.1569 39.0181 68.6369 38.4181C69.1569 37.7781 69.7169 37.0781 70.3169 36.3181C70.9569 35.0381 71.6169 33.6981 72.2969 32.2981C72.9769 30.8581 73.5569 29.5781 74.0369 28.4581C74.1569 28.2581 74.3369 28.1581 74.5769 28.1581C74.8169 28.1581 75.0369 28.2581 75.2369 28.4581C75.4369 28.6581 75.5369 28.8781 75.5369 29.1181C75.5369 29.2781 75.2369 29.8381 74.6369 30.7981C74.0769 31.7181 73.5169 32.7981 72.9569 34.0381C73.7169 33.3581 74.5369 32.6381 75.4169 31.8781C76.3369 31.1181 77.1969 30.4181 77.9969 29.7781C78.8369 29.1381 79.5569 28.6181 80.1569 28.2181C80.7969 27.7781 81.2369 27.5581 81.4769 27.5581C81.6369 27.5581 81.7769 27.6581 81.8969 27.8581C82.0569 28.0181 82.1369 28.1781 82.1369 28.3381C82.1369 28.4981 82.0369 28.7381 81.8369 29.0581C81.3969 29.6981 80.8569 30.5181 80.2169 31.5181C79.5769 32.5181 78.9569 33.5581 78.3569 34.6381C77.7969 35.6781 77.3169 36.6781 76.9169 37.6381C76.5169 38.5981 76.3169 39.3581 76.3169 39.9181C76.3169 40.3981 76.4169 40.7381 76.6169 40.9381C76.8169 41.0981 77.1369 41.1781 77.5769 41.1781C78.2569 41.1781 79.0569 40.9181 79.9769 40.3981C80.8969 39.8781 81.8369 39.2381 82.7969 38.4781C83.7969 37.6781 84.7369 36.7981 85.6169 35.8381C86.4969 34.8781 87.2169 33.9581 87.7769 33.0781C87.8569 32.9581 87.9769 32.9381 88.1369 33.0181C88.2969 33.0581 88.2769 33.1981 88.0769 33.4381Z" fill="black"/>
<path d="M72.7675 32.9583C71.8475 34.0783 70.8275 35.2183 69.7075 36.3783C68.6275 37.4983 67.5275 38.5183 66.4075 39.4383C65.2875 40.3583 64.1675 41.0983 63.0475 41.6583C61.9675 42.2183 60.9675 42.4983 60.0475 42.4983C59.2475 42.4983 58.6875 42.2983 58.3675 41.8983C58.0475 41.4983 57.8875 40.9983 57.8875 40.3983C57.8875 39.8383 58.0475 39.0983 58.3675 38.1783C58.7275 37.2183 59.2475 36.1983 59.9275 35.1183C59.4075 35.7983 58.8075 36.5183 58.1275 37.2783C57.4475 38.0383 56.7475 38.7383 56.0275 39.3783C55.3075 39.9783 54.5875 40.4983 53.8675 40.9383C53.1475 41.3383 52.5075 41.5383 51.9475 41.5383C51.1075 41.5383 50.6875 41.1183 50.6875 40.2783C50.6875 39.3583 51.0475 38.1983 51.7675 36.7983C52.4875 35.3983 53.4475 34.0583 54.6475 32.7783C55.8875 31.4583 57.2875 30.3383 58.8475 29.4183C60.4075 28.4583 62.0275 27.9783 63.7075 27.9783C63.9075 27.5783 64.0875 27.2983 64.2475 27.1383C64.4075 26.9783 64.5675 26.8583 64.7275 26.7783L66.4075 26.2983L66.5275 26.3583C66.3275 26.5583 66.1275 26.8183 65.9275 27.1383C65.7675 27.4183 65.5875 27.7183 65.3875 28.0383C65.5875 28.0383 65.8875 28.0583 66.2875 28.0983C66.6875 28.1383 66.9875 28.1783 67.1875 28.2183C67.3875 28.2983 67.4875 28.3983 67.4875 28.5183C67.4875 28.6383 67.4275 28.6983 67.3075 28.6983C67.0675 28.6183 66.7075 28.5583 66.2275 28.5183C65.7475 28.4783 65.3875 28.4583 65.1475 28.4583C63.3075 31.6983 61.9475 34.2783 61.0675 36.1983C60.2275 38.0783 59.8075 39.4783 59.8075 40.3983C59.8075 40.7583 59.8875 41.0583 60.0475 41.2983C60.2475 41.5383 60.6275 41.6583 61.1875 41.6583C61.8275 41.6583 62.5875 41.4383 63.4675 40.9983C64.3475 40.5183 65.2875 39.8783 66.2875 39.0783C67.2875 38.2383 68.3075 37.2783 69.3475 36.1983C70.4275 35.1183 71.4475 33.9783 72.4075 32.7783C72.4875 32.6583 72.5675 32.6383 72.6475 32.7183C72.7275 32.7583 72.7675 32.8383 72.7675 32.9583ZM63.4075 28.3983C62.0475 28.3983 60.7475 28.8783 59.5075 29.8383C58.2675 30.7983 57.1675 31.9383 56.2075 33.2583C55.2475 34.5383 54.4675 35.8183 53.8675 37.0983C53.3075 38.3783 53.0275 39.3183 53.0275 39.9183C53.0275 40.2383 53.1475 40.3983 53.3875 40.3983C53.6275 40.3983 53.9875 40.2383 54.4675 39.9183C54.9875 39.5983 55.5675 39.1783 56.2075 38.6583C56.8475 38.0983 57.4875 37.4583 58.1275 36.7383C58.8075 36.0183 59.4275 35.2383 59.9875 34.3983C60.6275 33.4383 61.2475 32.4183 61.8475 31.3383C62.4475 30.2583 62.9875 29.2983 63.4675 28.4583L63.4075 28.3983Z" fill="black"/>
<path d="M52.1969 25.1581C52.1969 25.5181 52.0969 25.8781 51.8969 26.2381C49.8969 29.9581 48.0969 33.2581 46.4969 36.1381C44.8969 38.9781 43.3769 41.5981 41.9369 43.9981C40.4969 46.4381 39.0769 48.7781 37.6769 51.0181C36.2769 53.2981 34.7969 55.7181 33.2369 58.2781C31.9569 60.3181 30.5769 62.2181 29.0969 63.9781C27.5769 65.7781 25.9169 67.3181 24.1169 68.5981C22.2769 69.9181 20.2969 70.9381 18.1769 71.6581C16.0169 72.4181 13.6569 72.7981 11.0969 72.7981C9.21688 72.7981 7.67688 72.5381 6.47688 72.0181C5.23688 71.5381 4.27688 70.8781 3.59688 70.0381C2.87688 69.1981 2.37688 68.2381 2.09688 67.1581C1.81688 66.0781 1.67688 64.9581 1.67688 63.7981C1.67688 63.3181 1.71688 62.7981 1.79688 62.2381C1.87688 61.7181 1.97688 61.2981 2.09688 60.9781C2.13688 60.8181 2.21688 60.7381 2.33688 60.7381C2.45688 60.7381 2.51688 60.8381 2.51688 61.0381C2.43688 61.3181 2.35688 61.6381 2.27688 61.9981C2.19688 62.3981 2.15688 62.8181 2.15688 63.2581C2.15688 64.6581 2.45688 65.8581 3.05688 66.8581C3.65688 67.8981 4.49688 68.7381 5.57688 69.3781C6.61688 70.0581 7.85688 70.5581 9.29688 70.8781C10.7369 71.2381 12.2769 71.4181 13.9169 71.4181C15.6369 71.4181 17.3769 71.1381 19.1369 70.5781C20.8569 70.0181 22.5769 69.0781 24.2969 67.7581C26.0169 66.4781 27.7169 64.7981 29.3969 62.7181C31.0369 60.6381 32.6569 58.0781 34.2569 55.0381C35.2969 53.1181 36.3969 51.0781 37.5569 48.9181C38.7169 46.7581 39.8369 44.6781 40.9169 42.6781C41.9969 40.7181 42.9569 38.9581 43.7969 37.3981C44.6769 35.7981 45.3169 34.6381 45.7169 33.9181C44.9169 34.9981 44.1369 36.0181 43.3769 36.9781C42.6169 37.9381 41.8969 38.7781 41.2169 39.4981C40.5769 40.2181 39.9569 40.7781 39.3569 41.1781C38.7569 41.6181 38.2169 41.8381 37.7369 41.8381C37.3769 41.8381 37.0769 41.7181 36.8369 41.4781C36.5969 41.2381 36.4769 40.8581 36.4769 40.3381C36.4769 39.7381 36.7169 38.8981 37.1969 37.8181C37.7169 36.6981 38.3769 35.5381 39.1769 34.3381C40.0169 33.1381 40.9569 31.9981 41.9969 30.9181C43.0369 29.8381 44.0969 29.0381 45.1769 28.5181C46.1369 28.0381 47.0969 27.7981 48.0569 27.7981C48.3369 27.7981 48.5569 27.8181 48.7169 27.8581C49.0369 27.2981 49.3569 26.7381 49.6769 26.1781C50.0369 25.6181 50.3969 25.0181 50.7569 24.3781C51.0369 23.8581 51.2969 23.5981 51.5369 23.5981C51.6969 23.5981 51.8369 23.7781 51.9569 24.1381C52.1169 24.4981 52.1969 24.8381 52.1969 25.1581ZM48.3569 28.6981C48.2369 28.6581 48.0769 28.6381 47.8769 28.6381C47.7169 28.6381 47.5769 28.6381 47.4569 28.6381C46.8969 28.6381 46.3569 28.6981 45.8369 28.8181C45.3569 28.8981 44.9369 29.0981 44.5769 29.4181C43.5769 30.2581 42.7169 31.1981 41.9969 32.2381C41.2769 33.2781 40.6769 34.2981 40.1969 35.2981C39.7169 36.2981 39.3569 37.2181 39.1169 38.0581C38.9169 38.8581 38.8169 39.4381 38.8169 39.7981C38.8169 40.2381 38.9369 40.4581 39.1769 40.4581C39.4169 40.4581 39.8969 40.1181 40.6169 39.4381C41.3369 38.7581 42.1369 37.8581 43.0169 36.7381C43.9369 35.6181 44.8769 34.3581 45.8369 32.9581C46.7969 31.5581 47.6369 30.1381 48.3569 28.6981Z" fill="black"/>
<path d="M40.5521 34.0383C39.8721 34.8783 39.0521 35.7583 38.0921 36.6783C37.1721 37.5583 36.1521 38.3783 35.0321 39.1383C33.9521 39.8583 32.8121 40.4583 31.6121 40.9383C30.4521 41.3783 29.2921 41.5983 28.1321 41.5983C26.2521 41.5983 25.3121 40.7583 25.3121 39.0783C25.3121 37.9583 25.5921 36.7583 26.1521 35.4783C26.7521 34.1583 27.5121 32.9583 28.4321 31.8783C29.3521 30.7583 30.3521 29.8383 31.4321 29.1183C32.5521 28.3583 33.6121 27.9783 34.6121 27.9783C35.1721 27.9783 35.5521 28.0783 35.7521 28.2783C35.9921 28.4783 36.1121 28.7383 36.1121 29.0583C36.1121 29.5383 35.9521 30.0583 35.6321 30.6183C35.3521 31.1783 34.9121 31.7183 34.3121 32.2383C33.7121 32.7183 32.9521 33.1383 32.0321 33.4983C31.1121 33.8183 30.0121 33.9783 28.7321 33.9783C28.5321 34.3383 28.3121 34.9183 28.0721 35.7183C27.8321 36.4783 27.7121 37.2583 27.7121 38.0583C27.7121 39.6983 28.4521 40.5183 29.9321 40.5183C30.8521 40.5183 31.7921 40.2983 32.7521 39.8583C33.7521 39.4183 34.7121 38.8783 35.6321 38.2383C36.5521 37.5583 37.3921 36.8383 38.1521 36.0783C38.9521 35.2783 39.6121 34.5383 40.1321 33.8583C40.2121 33.7783 40.2921 33.7583 40.3721 33.7983C40.4921 33.8383 40.5521 33.9183 40.5521 34.0383ZM34.2521 29.3583C34.2521 28.8383 33.9921 28.5783 33.4721 28.5783C33.0721 28.5783 32.6521 28.7383 32.2121 29.0583C31.8121 29.3383 31.4121 29.7183 31.0121 30.1983C30.6121 30.6783 30.2321 31.1983 29.8721 31.7583C29.5121 32.3183 29.2121 32.8583 28.9721 33.3783C29.0521 33.4183 29.1921 33.4583 29.3921 33.4983C29.5921 33.4983 29.7521 33.4983 29.8721 33.4983C31.0321 33.4983 32.0521 33.0983 32.9321 32.2983C33.8121 31.4583 34.2521 30.4783 34.2521 29.3583Z" fill="black"/>
<path d="M41.6846 2.05827C41.6846 2.61827 41.4646 3.43827 41.0246 4.51827C40.5846 5.59827 39.9446 6.85827 39.1046 8.29827C38.3046 9.69827 37.3046 11.2183 36.1046 12.8583C34.9446 14.4583 33.6046 16.0583 32.0846 17.6583C30.6046 19.2583 28.9646 20.7983 27.1646 22.2783C25.3646 23.7183 23.4446 24.9983 21.4046 26.1183C21.0446 26.7583 20.5446 27.6183 19.9046 28.6983C19.2646 29.7783 18.6246 30.9183 17.9846 32.1183C17.3846 33.3183 16.8446 34.4983 16.3646 35.6583C15.9246 36.8183 15.7046 37.7983 15.7046 38.5983C15.7046 39.8783 16.2846 40.5183 17.4446 40.5183C18.4446 40.5183 19.4846 40.2383 20.5646 39.6783C21.6446 39.1183 22.6646 38.4383 23.6246 37.6383C24.6246 36.8383 25.5446 35.9983 26.3846 35.1183C27.2646 34.1983 28.0046 33.3783 28.6046 32.6583C28.8846 32.3783 29.0446 32.3183 29.0846 32.4783C29.1246 32.5983 29.0646 32.7383 28.9046 32.8983C28.1846 33.7783 27.3246 34.7183 26.3246 35.7183C25.3646 36.7183 24.3246 37.6383 23.2046 38.4783C22.1246 39.3183 20.9846 40.0183 19.7846 40.5783C18.5846 41.1383 17.3846 41.4183 16.1846 41.4183C15.1446 41.4183 14.3846 41.1783 13.9046 40.6983C13.4646 40.1783 13.2446 39.5583 13.2446 38.8383C13.2446 38.1183 13.5446 37.0983 14.1446 35.7783C14.7846 34.4183 15.5246 32.9983 16.3646 31.5183C17.2046 30.0383 18.0446 28.6383 18.8846 27.3183C19.7246 25.9983 20.3446 24.9983 20.7446 24.3183C21.4246 23.1583 22.1246 21.9583 22.8446 20.7183C23.6046 19.4383 24.3446 18.1983 25.0646 16.9983C25.7846 15.7983 26.4646 14.6583 27.1046 13.5783C27.7846 12.4583 28.4046 11.4783 28.9646 10.6383C29.6446 9.59827 30.3446 8.61827 31.0646 7.69827C31.7846 6.77827 32.7046 5.85827 33.8246 4.93827C35.3446 3.65827 36.7446 2.67827 38.0246 1.99827C39.3046 1.31827 40.1646 0.978271 40.6046 0.978271C40.9246 0.978271 41.1846 1.07827 41.3846 1.27827C41.5846 1.43827 41.6846 1.69827 41.6846 2.05827ZM38.9846 3.61827C38.9846 2.97827 38.7246 2.65827 38.2046 2.65827C38.0046 2.65827 37.7846 2.71827 37.5446 2.83827C37.3046 2.95827 36.9846 3.21827 36.5846 3.61827C36.2246 3.97827 35.7646 4.49827 35.2046 5.17827C34.6846 5.85827 34.0046 6.73827 33.1646 7.81827C32.8446 8.25827 32.3846 8.89827 31.7846 9.73827C31.2246 10.5783 30.4846 11.6983 29.5646 13.0983C28.6846 14.4583 27.6046 16.1583 26.3246 18.1983C25.0846 20.1983 23.6046 22.5783 21.8846 25.3383C24.2846 23.9783 26.5246 22.3383 28.6046 20.4183C30.7246 18.4583 32.5446 16.4583 34.0646 14.4183C35.5846 12.3783 36.7846 10.3983 37.6646 8.47827C38.5446 6.55827 38.9846 4.93827 38.9846 3.61827Z" fill="black"/>
<path d="M16.0599 34.0383C15.3799 34.8783 14.5599 35.7583 13.5999 36.6783C12.6799 37.5583 11.6599 38.3783 10.5399 39.1383C9.45995 39.8583 8.31995 40.4583 7.11995 40.9383C5.95995 41.3783 4.79995 41.5983 3.63995 41.5983C1.75995 41.5983 0.819946 40.7583 0.819946 39.0783C0.819946 37.9583 1.09995 36.7583 1.65995 35.4783C2.25995 34.1583 3.01995 32.9583 3.93995 31.8783C4.85995 30.7583 5.85995 29.8383 6.93995 29.1183C8.05995 28.3583 9.11995 27.9783 10.1199 27.9783C10.6799 27.9783 11.0599 28.0783 11.2599 28.2783C11.4999 28.4783 11.6199 28.7383 11.6199 29.0583C11.6199 29.5383 11.4599 30.0583 11.1399 30.6183C10.8599 31.1783 10.4199 31.7183 9.81995 32.2383C9.21995 32.7183 8.45995 33.1383 7.53995 33.4983C6.61995 33.8183 5.51995 33.9783 4.23995 33.9783C4.03995 34.3383 3.81995 34.9183 3.57995 35.7183C3.33995 36.4783 3.21995 37.2583 3.21995 38.0583C3.21995 39.6983 3.95995 40.5183 5.43995 40.5183C6.35995 40.5183 7.29995 40.2983 8.25995 39.8583C9.25995 39.4183 10.2199 38.8783 11.1399 38.2383C12.0599 37.5583 12.8999 36.8383 13.6599 36.0783C14.4599 35.2783 15.1199 34.5383 15.6399 33.8583C15.7199 33.7783 15.7999 33.7583 15.8799 33.7983C15.9999 33.8383 16.0599 33.9183 16.0599 34.0383ZM9.75995 29.3583C9.75995 28.8383 9.49995 28.5783 8.97995 28.5783C8.57995 28.5783 8.15995 28.7383 7.71995 29.0583C7.31995 29.3383 6.91995 29.7183 6.51995 30.1983C6.11995 30.6783 5.73995 31.1983 5.37995 31.7583C5.01995 32.3183 4.71995 32.8583 4.47995 33.3783C4.55995 33.4183 4.69995 33.4583 4.89995 33.4983C5.09995 33.4983 5.25995 33.4983 5.37995 33.4983C6.53995 33.4983 7.55995 33.0983 8.43995 32.2983C9.31995 31.4583 9.75995 30.4783 9.75995 29.3583Z" fill="black"/>
</svg>
