<svg width="351" height="16" viewBox="0 0 351 16" fill="none" xmlns="http://www.w3.org/2000/svg">
<path d="M199.973 13.684C199.077 13.684 198.353 13.436 197.801 12.94C197.257 12.444 196.981 11.728 196.973 10.792C196.973 10.68 196.977 10.544 196.985 10.384C197.001 10.224 197.017 10.044 197.033 9.84402C196.521 9.78002 196.041 9.70402 195.593 9.61602C195.153 9.52802 194.797 9.43202 194.525 9.32802L194.753 7.99602C194.993 8.10002 195.329 8.19602 195.761 8.28402C196.201 8.36402 196.665 8.43602 197.153 8.50002C197.185 8.22002 197.217 7.93602 197.249 7.64802C197.281 7.36002 197.313 7.06802 197.345 6.77202C196.905 6.70802 196.493 6.64002 196.109 6.56802C195.725 6.49602 195.429 6.43202 195.221 6.37602L195.461 5.02002C195.653 5.09202 195.933 5.16802 196.301 5.24802C196.669 5.32002 197.065 5.38802 197.489 5.45202C197.553 4.93202 197.605 4.46402 197.645 4.04802C197.693 3.63202 197.725 3.32402 197.741 3.12402L199.241 3.32802C199.193 3.54402 199.137 3.85602 199.073 4.26402C199.009 4.66402 198.945 5.11602 198.881 5.62002C199.169 5.65202 199.437 5.67602 199.685 5.69202C199.933 5.70802 200.137 5.71202 200.297 5.70402L200.093 7.06002C199.941 7.06002 199.745 7.05202 199.505 7.03602C199.265 7.01202 199.001 6.98402 198.713 6.95202C198.681 7.24002 198.649 7.52402 198.617 7.80402C198.593 8.08402 198.569 8.36402 198.545 8.64402C198.865 8.66002 199.161 8.67202 199.433 8.68002C199.713 8.68002 199.953 8.67202 200.153 8.65602L199.985 10C199.769 10.008 199.529 10.012 199.265 10.012C199.009 10.004 198.737 9.99202 198.449 9.97602C198.441 10.112 198.433 10.244 198.425 10.372C198.425 10.492 198.425 10.608 198.425 10.72C198.433 11.232 198.557 11.612 198.797 11.86C199.037 12.108 199.429 12.232 199.973 12.232C200.509 12.232 200.929 12.112 201.233 11.872C201.545 11.624 201.701 11.264 201.701 10.792C201.701 10.392 201.577 9.96402 201.329 9.50802C201.081 9.05202 200.701 8.66002 200.189 8.33202C200.413 8.30002 200.649 8.23202 200.897 8.12802C201.145 8.01602 201.329 7.91202 201.449 7.81602C202.009 8.24002 202.437 8.72002 202.733 9.25602C203.029 9.79202 203.177 10.324 203.177 10.852C203.177 11.436 203.037 11.94 202.757 12.364C202.485 12.788 202.109 13.112 201.629 13.336C201.149 13.568 200.597 13.684 199.973 13.684Z" fill="#FFB300"/>
<path d="M183.089 13.0841C183.033 12.7561 182.989 12.3561 182.957 11.8841C182.925 11.4041 182.901 10.8841 182.885 10.3241C182.877 9.75607 182.877 9.17207 182.885 8.57207C182.901 7.97207 182.925 7.38807 182.957 6.82007C182.997 6.24407 183.045 5.71207 183.101 5.22407C183.165 4.73607 183.237 4.32007 183.317 3.97607L184.721 4.26407C184.633 4.55207 184.557 4.92807 184.493 5.39207C184.429 5.84807 184.377 6.35207 184.337 6.90407C184.297 7.44807 184.269 8.00807 184.253 8.58407C184.245 9.16007 184.249 9.72007 184.265 10.2641C184.281 10.8081 184.309 11.3001 184.349 11.7401C184.389 12.1801 184.441 12.5361 184.505 12.8081L183.089 13.0841ZM188.189 12.4361C186.805 12.3961 186.021 11.9441 185.837 11.0801C185.789 10.8641 185.773 10.6241 185.789 10.3601C185.805 10.0961 185.865 9.80407 185.969 9.48407L187.229 9.79607C187.173 9.94807 187.141 10.0841 187.133 10.2041C187.133 10.3241 187.149 10.4321 187.181 10.5281C187.285 10.8161 187.709 10.9721 188.453 10.9961C188.813 11.0041 189.197 10.9921 189.605 10.9601C190.021 10.9201 190.425 10.8641 190.817 10.7921C191.217 10.7201 191.565 10.6401 191.861 10.5521C191.845 10.6641 191.825 10.8161 191.801 11.0081C191.785 11.2001 191.773 11.3961 191.765 11.5961C191.757 11.7881 191.757 11.9481 191.765 12.0761C191.389 12.1721 190.985 12.2481 190.553 12.3041C190.129 12.3601 189.709 12.4001 189.293 12.4241C188.885 12.4401 188.517 12.4441 188.189 12.4361ZM186.389 6.58007L186.305 5.10407C186.609 5.14407 186.981 5.16807 187.421 5.17607C187.861 5.18407 188.317 5.18007 188.789 5.16407C189.269 5.14007 189.725 5.10407 190.157 5.05607C190.597 5.00007 190.961 4.93207 191.249 4.85207L191.189 6.30407C190.869 6.36007 190.497 6.41207 190.073 6.46007C189.649 6.50007 189.209 6.53207 188.753 6.55607C188.305 6.58007 187.873 6.59607 187.457 6.60407C187.049 6.60407 186.693 6.59607 186.389 6.58007Z" fill="#FFB300"/>
<path d="M175.516 13.6959C175.052 13.6959 174.72 13.6239 174.52 13.4799C174.328 13.3359 174.232 13.0919 174.232 12.7479V8.35592L173.26 8.63192L172.936 7.28792L174.232 6.91592V3.83192H175.624V6.51992L176.584 6.25592V2.96792L177.916 2.96792V5.87192L179.728 5.35592L180.4 5.59592V9.69992C180.4 10.3239 180.032 10.7119 179.296 10.8639C179.184 10.8879 179.048 10.9119 178.888 10.9359C178.736 10.9519 178.592 10.9679 178.456 10.9839C178.424 10.7119 178.364 10.4479 178.276 10.1919C178.188 9.93592 178.116 9.75592 178.06 9.65192H178.624C178.76 9.65192 178.856 9.62792 178.912 9.57992C178.976 9.53192 179.008 9.44392 179.008 9.31592V7.01192L177.916 7.32392V11.3679H176.584V7.69592L175.624 7.95992V12.0639C175.624 12.1839 175.652 12.2679 175.708 12.3159C175.772 12.3639 175.892 12.3879 176.068 12.3879H178.912C179.12 12.3879 179.28 12.3559 179.392 12.2919C179.512 12.2199 179.6 12.0879 179.656 11.8959C179.72 11.6959 179.768 11.4079 179.8 11.0319C179.904 11.0799 180.04 11.1359 180.208 11.1999C180.376 11.2639 180.552 11.3239 180.736 11.3799C180.92 11.4279 181.08 11.4679 181.216 11.4999C181.128 12.1239 181.016 12.5959 180.88 12.9159C180.744 13.2279 180.56 13.4359 180.328 13.5399C180.096 13.6439 179.788 13.6959 179.404 13.6959H175.516ZM171.58 13.9119V8.00792C171.332 8.36792 171.088 8.69192 170.848 8.97992C170.696 8.84392 170.516 8.70792 170.308 8.57192C170.108 8.42792 169.916 8.30392 169.732 8.19992C170.036 7.88792 170.332 7.50392 170.62 7.04792C170.908 6.58392 171.176 6.09992 171.424 5.59592C171.672 5.08392 171.884 4.59592 172.06 4.13192C172.236 3.65992 172.36 3.25592 172.432 2.91992L173.8 3.25592C173.568 4.05592 173.272 4.84392 172.912 5.61992V13.9119H171.58Z" fill="#FFB300"/>
<path d="M164.933 13.1078C164.901 12.9798 164.841 12.8278 164.753 12.6518C164.665 12.4758 164.561 12.3078 164.441 12.1478C164.329 11.9798 164.217 11.8438 164.105 11.7398C165.201 11.5718 166.033 11.2158 166.601 10.6718C167.177 10.1198 167.481 9.47178 167.513 8.72778C167.545 8.13578 167.437 7.60778 167.189 7.14378C166.941 6.67978 166.601 6.30378 166.169 6.01578C165.745 5.72778 165.277 5.55578 164.765 5.49978C164.701 6.24378 164.581 7.00378 164.405 7.77978C164.229 8.55578 163.989 9.28378 163.685 9.96378C163.389 10.6438 163.025 11.2198 162.593 11.6918C162.265 12.0438 161.945 12.2478 161.633 12.3038C161.329 12.3598 161.005 12.3158 160.661 12.1718C160.325 12.0278 160.029 11.7998 159.773 11.4878C159.517 11.1758 159.321 10.8078 159.185 10.3838C159.049 9.95178 158.993 9.49178 159.017 9.00378C159.057 8.27578 159.229 7.61178 159.533 7.01178C159.837 6.40378 160.245 5.87978 160.757 5.43978C161.269 4.99978 161.857 4.66778 162.521 4.44378C163.185 4.21978 163.893 4.12778 164.645 4.16778C165.253 4.19978 165.825 4.33578 166.361 4.57578C166.897 4.81578 167.365 5.14778 167.765 5.57178C168.173 5.98778 168.485 6.47178 168.701 7.02378C168.925 7.57578 169.017 8.17978 168.977 8.83578C168.921 9.93178 168.537 10.8518 167.825 11.5958C167.113 12.3318 166.149 12.8358 164.933 13.1078ZM161.033 10.6838C161.121 10.7478 161.213 10.7798 161.309 10.7798C161.405 10.7798 161.501 10.7318 161.597 10.6358C161.885 10.3478 162.149 9.93978 162.389 9.41178C162.637 8.88378 162.841 8.28778 163.001 7.62378C163.169 6.95978 163.277 6.28378 163.325 5.59578C162.773 5.72378 162.281 5.95578 161.849 6.29178C161.425 6.62778 161.089 7.03578 160.841 7.51578C160.593 7.98778 160.453 8.50778 160.421 9.07578C160.405 9.45178 160.453 9.77978 160.565 10.0598C160.685 10.3318 160.841 10.5398 161.033 10.6838Z" fill="#FFB300"/>
<path d="M155.452 13.6601C154.62 13.7001 153.88 13.6081 153.232 13.3841C152.592 13.1681 152.088 12.8401 151.72 12.4001C151.36 11.9601 151.18 11.4241 151.18 10.7921C151.18 10.3841 151.264 10.0081 151.432 9.66408C151.6 9.32008 151.832 9.01208 152.128 8.74008C151.592 8.85208 151.068 8.97208 150.556 9.10008C150.044 9.22808 149.58 9.35608 149.164 9.48408C148.756 9.61208 148.428 9.73608 148.18 9.85608L147.652 8.51208C147.748 8.49608 147.892 8.46808 148.084 8.42808C148.276 8.38808 148.54 8.33208 148.876 8.26008C149.18 8.19608 149.516 8.03608 149.884 7.78008C150.252 7.52408 150.624 7.22008 151 6.86808C151.384 6.50808 151.74 6.13608 152.068 5.75208C152.396 5.36008 152.668 4.99608 152.884 4.66008C152.572 4.73208 152.232 4.80408 151.864 4.87608C151.504 4.94808 151.156 5.00808 150.82 5.05608C150.492 5.10408 150.216 5.13608 149.992 5.15208L149.572 3.82008C149.868 3.82008 150.216 3.80408 150.616 3.77208C151.016 3.73208 151.42 3.68408 151.828 3.62808C152.236 3.57208 152.612 3.50408 152.956 3.42408C153.3 3.34408 153.568 3.26408 153.76 3.18408L154.96 3.95208C154.792 4.29608 154.552 4.68808 154.24 5.12808C153.928 5.56808 153.564 6.00808 153.148 6.44808C152.74 6.88808 152.292 7.29608 151.804 7.67208C152.436 7.54408 153.056 7.41608 153.664 7.28808C154.28 7.16008 154.824 7.04808 155.296 6.95208C155.776 6.84808 156.128 6.77608 156.352 6.73608L156.58 8.12808C156.428 8.12808 156.244 8.13608 156.028 8.15208C155.812 8.16808 155.576 8.19608 155.32 8.23608C154.856 8.29208 154.42 8.42408 154.012 8.63208C153.612 8.83208 153.284 9.10808 153.028 9.46008C152.78 9.81208 152.656 10.2361 152.656 10.7321C152.656 11.0921 152.796 11.3881 153.076 11.6201C153.356 11.8521 153.744 12.0161 154.24 12.1121C154.736 12.2001 155.3 12.2201 155.932 12.1721C155.804 12.3721 155.696 12.6201 155.608 12.9161C155.52 13.2121 155.468 13.4601 155.452 13.6601Z" fill="#FFB300"/>
<path d="M135.974 0.746248L140.877 15.4349L139.93 15.757L135.027 1.06836L135.974 0.746248Z" fill="#FFB300"/>
<path d="M214.213 0.746248L209.31 15.4349L210.257 15.757L215.16 1.06836L214.213 0.746248Z" fill="#FFB300"/>
<path d="M128 8.5V9.5H0V8.5H128Z" fill="white"/>
<path d="M350.5 8.5V9.5H222.5V8.5H350.5Z" fill="white"/>
</svg>
