<svg width="25" height="25" viewBox="0 0 25 25" fill="none" xmlns="http://www.w3.org/2000/svg">
<path d="M24.8489 11.8663C22.4952 7.27386 17.8355 4.16666 12.5 4.16666C7.16447 4.16666 2.50345 7.27603 0.151018 11.8667C0.0517306 12.0631 0 12.2801 0 12.5002C0 12.7203 0.0517306 12.9373 0.151018 13.1337C2.50475 17.7261 7.16447 20.8333 12.5 20.8333C17.8355 20.8333 22.4965 17.7239 24.8489 13.1332C24.9482 12.9368 25 12.7198 25 12.4998C25 12.2797 24.9482 12.0627 24.8489 11.8663ZM12.5 18.75C11.2638 18.75 10.0555 18.3834 9.02766 17.6967C7.99985 17.0099 7.19878 16.0338 6.72573 14.8918C6.25268 13.7497 6.12891 12.4931 6.37007 11.2807C6.61123 10.0683 7.20648 8.95465 8.08056 8.08057C8.95464 7.20649 10.0683 6.61124 11.2807 6.37008C12.493 6.12892 13.7497 6.2527 14.8917 6.72574C16.0338 7.19879 17.0099 7.99987 17.6967 9.02768C18.3834 10.0555 18.75 11.2639 18.75 12.5C18.7504 13.3209 18.589 14.1338 18.275 14.8922C17.9611 15.6507 17.5007 16.3399 16.9203 16.9203C16.3398 17.5007 15.6507 17.9611 14.8922 18.2751C14.1338 18.589 13.3208 18.7504 12.5 18.75ZM12.5 8.33332C12.1281 8.33852 11.7586 8.39385 11.4015 8.49782C11.6958 8.89785 11.8371 9.39013 11.7996 9.88538C11.7621 10.3806 11.5484 10.8461 11.1972 11.1973C10.846 11.5485 10.3806 11.7622 9.88537 11.7996C9.39012 11.8371 8.89784 11.6958 8.49781 11.4015C8.27001 12.2407 8.31113 13.1302 8.61538 13.9449C8.91962 14.7595 9.47167 15.4582 10.1938 15.9427C10.916 16.4271 11.7719 16.6729 12.641 16.6455C13.5102 16.618 14.3489 16.3187 15.039 15.7896C15.7291 15.2606 16.236 14.5284 16.4882 13.6962C16.7404 12.8639 16.7253 11.9736 16.445 11.1504C16.1647 10.3272 15.6333 9.61268 14.9256 9.10733C14.2179 8.60198 13.3696 8.33128 12.5 8.33332Z" fill="black"/>
</svg>
