<?xml version="1.0" encoding="UTF-8"?><svg id="_レイヤー_2" xmlns="http://www.w3.org/2000/svg" viewBox="0 0 42.0657 56.04262"><defs><style>.cls-1{fill:#d4eef4;}.cls-2{fill:#29aac6;}.cls-3{fill:#dff2f6;}.cls-4{fill:#fff;}.cls-5{fill:#ffc7c1;}</style></defs><g id="_レイヤー_1-2"><path class="cls-2" d="M41.97226,15.88283c.36508-1.58045-.3571-3.09876-1.86018-3.48479-1.40751-.36266-3.34285-.86115-5.55-1.42951.52771-1.15162.78327-2.4243.67391-3.71978-.29027-3.43939-2.7129-5.99081-5.98148-6.89014-2.95509-.81308-6.47451-.2701-8.70991,1.90138-1.11934,1.08733-1.95492,2.65724-2.23237,4.19812-.01938.10747-.03026.2111-.04558.31671-2.07526-.53361-3.89252-1.00057-5.2316-1.3441-1.49994-.3853-2.70628.33918-3.12266,1.91393-.65782,2.48738-1.7153,6.58976-2.91527,11.25997C4.52044,28.26557,1.44604,40.36909.1094,45.6514c-.42611,1.68424.41457,3.02362,2.13718,3.48198,6.07822,1.62578,20.40879,5.3187,26.36834,6.79444,1.63674.40484,2.98413-.41415,3.4457-2.12285,1.49521-5.56013,4.94606-18.42554,7.26978-27.3237.31828-1.21991.61483-2.36283.88371-3.40377.47732-1.84307,1.23617-4.93134,1.75814-7.19467ZM29.59343,8.34974c-.00047.00471-.00096.00941-.00143.01412-.00887-.05621-.01523-.11045-.02481-.16729.00876.05105.01752.1021.02624.15317Z"/><path class="cls-1" d="M27.89441,2.14664c-2.92949-.70113-6.35249,1.20317-6.94087,4.26012-.5903,3.06686,1.12038,6.18943,4.2601,6.94087,2.92949.70113,6.35247-1.20317,6.94087-4.2601.5903-3.06689-1.12037-6.18945-4.26009-6.9409Z"/><path class="cls-3" d="M39.38388,26.49404c-2.32373,8.89819-5.77458,21.7636-7.26979,27.32373-.46157,1.7087-1.80893,2.5277-3.44566,2.12283-5.95956-1.47568-20.29012-5.16864-26.36837-6.79445-1.72262-.45834-2.5633-1.79771-2.13716-3.48198,1.33661-5.28232,4.41101-17.38581,6.88769-27.04676,1.731.36826,3.4556.79086,5.17394,1.21201,9.05391,2.22281,18.1047,4.44489,27.15935,6.66461Z"/><path class="cls-4" d="M36.07766,25.6832c-2.04447,7.89524-5.07357,19.31239-6.38574,24.24669-.40491,1.5164-1.50294,2.26592-2.80857,1.94179-4.75391-1.18153-16.18246-4.15018-21.02864-5.46172-1.37346-.36958-2.02129-1.53401-1.64532-3.02818,1.17929-4.68604,3.89087-15.42357,6.07346-23.99467,1.38202.28993,2.75783.62796,4.12863.96479,7.22267,1.77821,14.44287,3.55584,21.66619,5.33131Z"/><path class="cls-4" d="M28.91943,7.39155l-1.22334-.29279.29279-1.22334c.11686-.48826-.20053-1.05876-.71002-1.15682-.51116-.09838-1.03158.18672-1.15682.71002l-.29279,1.22334-1.22334-.29279c-.48823-.11685-1.05872.20052-1.15679.71-.09841.51116.18672,1.03158.71,1.15682l1.22334.29279-.29279,1.22334c-.11685.48823.20054,1.05873.71002,1.15682.51116.09838,1.03159-.18675,1.15682-.71002l.29279-1.22334,1.22334.29279c.48823.11685,1.05873-.20054,1.1568-.71003.09841-.51116-.18673-1.03155-.71-1.15679Z"/><path class="cls-5" d="M19.86753,29.57834c4.10807.9832,8.21617,1.96641,12.32426,2.94961.6006.14374.82501-.78944.2234-.93342-4.1081-.98321-8.21619-1.96641-12.32426-2.94961-.60062-.14375-.82499.78944-.2234.93342h0Z"/><path class="cls-5" d="M19.10427,32.76748c4.10807.9832,8.21617,1.96641,12.32426,2.94961.6006.14374.825-.78941.22339-.9334-4.1081-.98321-8.21619-1.96641-12.32426-2.94961-.60062-.14375-.82499.78941-.22339.9334h0Z"/><path class="cls-5" d="M18.26665,36.26725c4.10807.9832,8.21617,1.96641,12.32426,2.94961.6006.14374.82501-.78944.2234-.93342-4.1081-.98321-8.21619-1.96641-12.32426-2.94961-.60062-.14375-.82499.78944-.2234.93342h0Z"/><path class="cls-5" d="M17.46601,39.61253c4.10807.9832,8.21617,1.96641,12.32426,2.94961.6006.14374.82501-.78944.2234-.93342-4.1081-.98321-8.21619-1.96641-12.32426-2.94961-.60062-.14375-.82499.78944-.2234.93342h0Z"/><path class="cls-5" d="M16.62841,43.11227c4.10807.9832,8.21617,1.96641,12.32426,2.94961.6006.14374.82501-.78944.2234-.93342l-12.32426-2.94961c-.60062-.14375-.82499.78944-.2234.93342h0Z"/><path class="cls-5" d="M20.74251,25.92246c4.10807.9832,8.21617,1.96641,12.32426,2.94961.6006.14374.82501-.78944.2234-.93342-4.1081-.98321-8.21619-1.96641-12.32426-2.94961-.60062-.14375-.82499.78944-.2234.93342h0Z"/><path class="cls-5" d="M11.50269,24.20451c1.20121.28749,1.65-1.57888.4468-1.86685-1.2012-.28749-1.65001,1.57888-.4468,1.86685h0Z"/><path class="cls-5" d="M14.61407,24.94917c1.20122.28749,1.65-1.57888.4468-1.86685-1.20121-.28749-1.65,1.57888-.4468,1.86685h0Z"/><path class="cls-5" d="M17.72545,25.69382c1.20122.28749,1.65001-1.57888.4468-1.86685-1.20122-.28749-1.65,1.57888-.4468,1.86685h0Z"/><path class="cls-5" d="M10.62773,27.86036c1.20121.28749,1.64999-1.57885.44679-1.86682-1.2012-.28749-1.65,1.57885-.44679,1.86682h0Z"/><path class="cls-5" d="M13.7391,28.60502c1.20122.28749,1.64999-1.57885.44679-1.86682-1.20121-.28749-1.64999,1.57885-.44679,1.86682h0Z"/><path class="cls-5" d="M16.85048,29.34968c1.20122.28749,1.65-1.57885.44679-1.86682-1.20122-.28749-1.64999,1.57885-.44679,1.86682h0Z"/><path class="cls-5" d="M9.86445,31.04953c1.20121.28749,1.64999-1.57885.44679-1.86682-1.2012-.28749-1.65,1.57885-.44679,1.86682h0Z"/><path class="cls-5" d="M12.97583,31.79418c1.20122.28749,1.64999-1.57885.44679-1.86682-1.20121-.28749-1.64999,1.57885-.44679,1.86682h0Z"/><path class="cls-5" d="M16.08721,32.53884c1.20122.28749,1.65-1.57885.44679-1.86682-1.20122-.28749-1.64999,1.57885-.44679,1.86682h0Z"/><path class="cls-5" d="M8.84847,38.04351c1.20122.28749,1.65-1.57885.44679-1.86682-1.20122-.28749-1.64999,1.57885-.44679,1.86682h0Z"/><path class="cls-5" d="M11.95986,38.78816c1.20122.28749,1.64999-1.57885.44679-1.86682-1.20122-.28749-1.64999,1.57885-.44679,1.86682h0Z"/><path class="cls-5" d="M15.07124,39.53282c1.20122.28749,1.64999-1.57885.44679-1.86682-1.20122-.28749-1.64999,1.57885-.44679,1.86682h0Z"/></g></svg>