<svg width="322" height="265" viewBox="0 0 322 265" fill="none" xmlns="http://www.w3.org/2000/svg">
<rect x="62" y="67" width="260" height="40" rx="20" fill="white"/>
<path d="M152.984 88.672L154.296 88.064V86.4L154.152 86.56C153.848 86.208 153.144 85.504 152.728 85.216C152.904 85.04 153.08 84.848 153.24 84.64H150.184C150.168 85.216 150.152 85.792 150.136 86.352H153.016V87.072L152.984 88.672ZM156.888 93.76H159.352C159.976 93.76 160.104 93.488 160.2 92.08C160.584 92.352 161.272 92.624 161.736 92.736C161.528 94.736 161.048 95.344 159.496 95.344H156.696C154.808 95.344 154.296 94.832 154.296 93.008V89.936L153.64 90.24L152.984 88.688C152.92 92.608 152.808 94.144 152.44 94.656C152.152 95.072 151.848 95.232 151.416 95.312C151.016 95.408 150.408 95.392 149.768 95.392C149.736 94.864 149.56 94.16 149.304 93.696C149.8 93.76 150.248 93.76 150.456 93.76C150.664 93.76 150.792 93.712 150.92 93.504C151.128 93.184 151.224 91.84 151.288 88.08H150.04C149.816 90.96 149.304 93.552 147.976 95.376C147.672 94.928 147.08 94.352 146.616 94.048C148.2 91.856 148.344 88.336 148.392 84.64H146.856V82.88H149.304V80.464H151.128V82.88H153.624V84.08C154.28 83.04 154.76 81.76 155.048 80.448L156.92 80.8C156.792 81.36 156.616 81.92 156.44 82.464H161.464V84.192H155.72C155.448 84.752 155.144 85.28 154.808 85.744H155.976V87.28L156.84 86.88V84.592H158.424V86.144L159.576 85.616L159.64 85.568L159.928 85.36L161.112 85.776L161.048 86.032C161.032 88.304 161.032 89.936 160.984 90.416C160.952 90.992 160.728 91.344 160.296 91.52C159.912 91.68 159.4 91.696 158.984 91.696C158.936 91.264 158.808 90.656 158.632 90.304C158.824 90.32 159.048 90.32 159.176 90.32C159.304 90.32 159.384 90.288 159.4 90.08C159.432 89.936 159.432 89.056 159.448 87.536L158.424 88.016V92.48H156.84V88.752L155.976 89.152V93.008C155.976 93.664 156.088 93.76 156.888 93.76ZM169.976 80.944V82.384H165.144V80.944H169.976ZM170.584 83.088V84.592H164.328V83.088H170.584ZM170.008 87.504V88.928H165.08V87.504H170.008ZM176.12 89.024H173.064C173.448 89.824 173.976 90.544 174.616 91.184C175.24 90.56 175.736 89.84 176.12 89.024ZM168.344 93.056V91.216H166.648V93.056H168.344ZM177.32 87.232L178.568 87.696C178.056 89.632 177.208 91.152 176.104 92.352C177.048 92.96 178.168 93.424 179.4 93.728C178.984 94.128 178.44 94.88 178.168 95.376C176.824 94.976 175.656 94.384 174.648 93.632C173.576 94.384 172.344 94.96 170.984 95.376C170.792 94.912 170.344 94.16 169.992 93.728V94.544H166.648V95.168H165.032V89.712H169.992V93.696C171.192 93.392 172.28 92.944 173.224 92.32C172.488 91.52 171.88 90.592 171.384 89.552L173.016 89.024H170.792V87.312H171.336C171.064 86.992 170.392 86.416 170.008 86.16V86.768H165.08V85.312H170.008V86.08C171.384 85.136 171.56 83.872 171.56 82.8V80.896H176.92V84.48C176.92 84.928 176.952 84.976 177.128 84.976H177.528C177.736 84.976 177.8 84.768 177.816 83.376C178.168 83.648 178.904 83.92 179.368 84.048C179.208 86.032 178.792 86.592 177.72 86.592H176.792C175.512 86.592 175.144 86.096 175.144 84.512V82.576H173.352V82.848C173.352 84.352 173.032 86.176 171.368 87.312H177L177.32 87.232ZM186.056 87.68V88.672H192.744V87.68H186.056ZM186.056 85.136V86.128H192.744V85.136H186.056ZM186.056 82.608V83.6H192.744V82.608H186.056ZM192.776 93.456H194.44C194.984 93.456 195.08 93.184 195.16 91.328C195.56 91.632 196.408 91.952 196.904 92.08C196.696 94.608 196.2 95.264 194.616 95.264H192.504C190.6 95.264 190.152 94.688 190.152 92.896V90.336H188.216C187.88 92.88 186.936 94.56 182.984 95.456C182.808 94.944 182.296 94.16 181.928 93.76C185.208 93.152 185.896 92.08 186.168 90.336H184.216V80.944H194.68V90.336H192.072V92.88C192.072 93.392 192.168 93.456 192.776 93.456ZM201.896 84.656V86.864H200.104V82.976H202.28C201.992 82.448 201.56 81.824 201.176 81.328L202.792 80.608C203.352 81.232 203.992 82.08 204.248 82.704L203.672 82.976H206.184C205.96 82.352 205.56 81.584 205.176 80.976L206.856 80.368C207.368 81.056 207.896 82.032 208.104 82.672L207.336 82.976H209.752C210.28 82.224 210.824 81.296 211.128 80.544L213.192 81.168C212.76 81.792 212.296 82.416 211.848 82.976H213.976V86.864H212.104V84.656H201.896ZM214.136 89.456V91.216H207.976V93.344C207.976 94.336 207.768 94.832 206.984 95.104C206.232 95.376 205.24 95.408 203.88 95.408C203.752 94.864 203.384 94.064 203.096 93.552C204.12 93.6 205.304 93.6 205.624 93.584C205.96 93.584 206.04 93.52 206.04 93.296V91.216H199.896V89.456H206.04V88.416H206.952C207.368 88.16 207.8 87.856 208.184 87.536H202.76V85.888H209.944L210.36 85.792L211.56 86.72C210.664 87.696 209.416 88.704 208.12 89.456H214.136ZM221.656 85.248H227.656C226.424 84.32 225.32 83.28 224.584 82.288C223.896 83.264 222.872 84.304 221.656 85.248ZM220.872 86.992V85.824C220.024 86.432 219.096 86.976 218.168 87.424C217.944 86.96 217.448 86.24 217.048 85.824C219.784 84.624 222.312 82.352 223.512 80.464H225.496C227.192 82.816 229.736 84.64 232.264 85.536C231.784 86.032 231.368 86.72 231.032 87.28C230.152 86.864 229.224 86.336 228.344 85.728V86.992H220.872ZM218.04 90.08V88.32H231.272V90.08H224.104C223.64 91.024 223.112 92.016 222.632 92.912C224.168 92.864 225.816 92.8 227.448 92.736C226.952 92.16 226.408 91.584 225.88 91.104L227.56 90.224C228.984 91.472 230.472 93.136 231.224 94.336L229.448 95.408C229.288 95.104 229.064 94.768 228.808 94.416C225.048 94.624 221.096 94.784 218.376 94.912L218.12 93.056L220.536 92.976C220.968 92.08 221.416 91.024 221.752 90.08H218.04ZM239.72 81.616C239.72 82.0096 239.394 82.336 239 82.336C238.606 82.336 238.28 82.0096 238.28 81.616C238.28 81.2224 238.606 80.896 239 80.896C239.394 80.896 239.72 81.2224 239.72 81.616ZM235.832 80.9056L239 84.0736L242.168 80.9056L242.446 81.184L239.278 84.352L242.446 87.52L242.168 87.7984L239 84.6304L235.822 87.808L235.544 87.5296L238.722 84.352L235.554 81.184L235.832 80.9056ZM236.264 83.632C236.658 83.632 236.984 83.9584 236.984 84.352C236.984 84.7456 236.658 85.072 236.264 85.072C235.87 85.072 235.544 84.7456 235.544 84.352C235.544 83.9584 235.87 83.632 236.264 83.632ZM241.736 85.072C241.342 85.072 241.016 84.7456 241.016 84.352C241.016 83.9584 241.342 83.632 241.736 83.632C242.13 83.632 242.456 83.9584 242.456 84.352C242.456 84.7456 242.13 85.072 241.736 85.072ZM238.28 87.088C238.28 86.6944 238.606 86.368 239 86.368C239.394 86.368 239.72 86.6944 239.72 87.088C239.72 87.4816 239.394 87.808 239 87.808C238.606 87.808 238.28 87.4816 238.28 87.088Z" fill="#AA5A00"/>
<rect x="62" y="152" width="260" height="40" rx="20" fill="white"/>
<path d="M172.46 167.832V167.176H165.676V167.832H172.46ZM172.46 169.656V168.984H165.676V169.656H172.46ZM174.364 165.96V170.872H163.852V165.96H174.364ZM173.452 175.016H171.292C171.564 175.592 171.932 176.12 172.364 176.584C172.796 176.12 173.164 175.592 173.452 175.016ZM164.972 176.92V177.704C165.644 177.656 166.348 177.608 167.052 177.544V176.92H164.972ZM164.972 174.936V175.608H167.052V174.936H164.972ZM167.052 172.968H164.972V173.608H167.052V172.968ZM174.572 173.496L175.74 173.944C175.308 175.448 174.62 176.696 173.724 177.704C174.524 178.232 175.484 178.632 176.54 178.888C176.172 179.24 175.676 179.928 175.42 180.376C174.284 180.04 173.292 179.544 172.444 178.888C171.628 179.512 170.716 180.008 169.724 180.376C169.548 180.008 169.196 179.48 168.876 179.096V180.392H167.052V179.096C165.212 179.272 163.388 179.432 161.98 179.56L161.836 177.928C162.252 177.896 162.732 177.88 163.228 177.832V172.968H161.98V171.464H176.204V172.968H168.876V178.824C169.692 178.552 170.476 178.168 171.148 177.672C170.572 176.984 170.076 176.184 169.692 175.304L170.748 175.016H169.276V173.56H174.252L174.572 173.496ZM179.836 174.808L181.404 175.08C181.244 176.584 180.908 178.184 180.444 179.208C180.108 179 179.404 178.664 178.988 178.52C179.452 177.576 179.708 176.152 179.836 174.808ZM183.308 175.096L184.652 174.68C185.052 175.592 185.468 176.76 185.644 177.56L184.236 178.072C184.092 177.272 183.676 176.04 183.308 175.096ZM185.916 177.992L187.02 176.648C189.084 177.208 191.564 178.248 193.036 179.048L191.932 180.536C190.54 179.656 187.996 178.584 185.916 177.992ZM187.644 175.144L188.716 173.944C189.868 174.392 191.244 175.112 192.028 175.688L190.924 177.016C190.172 176.408 188.78 175.592 187.644 175.144ZM190.988 168.6H188.204C188.588 169.224 189.052 169.832 189.596 170.408C190.14 169.848 190.604 169.24 190.988 168.6ZM192.284 166.904L193.468 167.56C192.86 169.096 191.964 170.424 190.892 171.56C191.948 172.376 193.164 173.032 194.444 173.448C194.044 173.832 193.5 174.536 193.244 175C191.916 174.472 190.7 173.704 189.612 172.744C188.492 173.672 187.26 174.392 186.012 174.92C185.9 174.68 185.692 174.36 185.452 174.056L184.284 174.584C184.236 174.344 184.172 174.088 184.092 173.8L183.276 173.864V180.408H181.628V173.976L179.308 174.12L179.148 172.472L180.3 172.424C180.54 172.12 180.796 171.768 181.052 171.4C180.588 170.712 179.82 169.864 179.164 169.224L180.076 167.928C180.188 168.024 180.316 168.136 180.444 168.248C180.892 167.368 181.34 166.312 181.612 165.464L183.26 166.072C182.684 167.16 182.044 168.408 181.468 169.288C181.66 169.512 181.852 169.72 182.012 169.928C182.556 169.032 183.068 168.12 183.436 167.336L184.988 168.056C184.108 169.448 183.004 171.064 181.996 172.36L183.532 172.296C183.356 171.896 183.164 171.496 182.972 171.144L184.236 170.616C184.684 171.416 185.132 172.376 185.404 173.192C186.46 172.76 187.468 172.184 188.364 171.496C187.916 171 187.516 170.456 187.148 169.896C186.716 170.376 186.252 170.84 185.724 171.272C185.436 170.872 184.828 170.28 184.412 170.04C186.156 168.712 187.292 166.952 187.884 165.448L189.74 165.752C189.564 166.152 189.372 166.568 189.148 166.968H191.996L192.284 166.904ZM208.86 177.832V171.352H207.132V177.832H208.86ZM199.628 171.352V177.832H201.26V171.352H199.628ZM205.42 172.456V171.352H202.972V172.456H205.42ZM202.972 176.648V177.832H205.42V176.648H202.972ZM205.42 175.16V173.944H202.972V175.16H205.42ZM211.532 168.152H205.148C205.004 168.648 204.844 169.128 204.716 169.592H210.796V180.392H208.86V179.576H199.628V180.392H197.788V169.592H202.716C202.812 169.128 202.908 168.632 202.972 168.152H197.132V166.36H211.532V168.152ZM225.724 168.568H223.02C223.26 169.24 223.468 170.04 223.5 170.568L223.436 170.584H225.116C225.34 170.008 225.58 169.208 225.724 168.568ZM225.676 174.952H223.356C223.164 175.352 222.956 175.752 222.764 176.136C223.388 176.328 224.06 176.568 224.748 176.824C225.164 176.328 225.468 175.704 225.676 174.952ZM229.292 172.2H224.652C224.492 172.568 224.316 172.968 224.124 173.352H229.276V174.952H227.548C227.292 175.992 226.924 176.84 226.412 177.528C227.468 178.008 228.428 178.504 229.1 178.968L227.9 180.392C227.228 179.896 226.204 179.336 225.084 178.792C223.836 179.624 222.092 180.104 219.676 180.424C219.532 179.896 219.244 179.24 218.972 178.888C220.812 178.728 222.188 178.456 223.212 177.976C222.812 177.816 222.412 177.656 222.028 177.528L221.868 177.816L220.236 177.288C220.588 176.648 221.004 175.816 221.404 174.952H219.484V174.088C219.084 174.2 218.684 174.328 218.284 174.44V178.248C218.284 179.192 218.124 179.704 217.612 179.992C217.084 180.312 216.332 180.376 215.228 180.376C215.18 179.864 214.94 179.048 214.7 178.52C215.324 178.552 215.98 178.552 216.188 178.536C216.38 178.536 216.46 178.472 216.46 178.232V174.952L214.684 175.432L214.284 173.592C214.892 173.464 215.644 173.288 216.46 173.096V170.216H214.604V168.472H216.46V165.464H218.284V168.472H219.516V170.216H218.284V172.648L219.5 172.328L219.628 173.352H222.124C222.3 172.952 222.46 172.568 222.604 172.2H219.356V170.584H221.756C221.676 169.992 221.5 169.224 221.292 168.632L221.612 168.568H219.836V166.968H223.404V165.448H225.34V166.968H228.908V168.568H227.596C227.34 169.304 227.068 170.008 226.828 170.584H229.292V172.2Z" fill="#AA5A00"/>
<rect x="62" y="221" width="260" height="40" rx="20" fill="#FA961E"/>
<path d="M181.56 238.96V244.864C184.584 243.296 185.128 240.928 185.208 238.96H181.56ZM192.792 237.104V247.216C192.792 248.24 192.584 248.768 191.912 249.072C191.256 249.376 190.232 249.408 188.808 249.408C188.744 248.864 188.456 248.016 188.184 247.52C189.128 247.568 190.2 247.552 190.504 247.552C190.808 247.536 190.904 247.456 190.904 247.168V238.96H187.176C187.144 239.552 187.08 240.144 186.952 240.768C188.312 242 190.04 243.648 190.904 244.752L189.336 245.984C188.696 245.104 187.496 243.808 186.328 242.64C185.704 243.984 184.632 245.296 182.888 246.32C182.616 245.936 182.024 245.264 181.56 244.912V249.424H179.656V237.104H185.224V234.448H187.192V237.104H192.792ZM198.84 237.872V240.064H196.968V236.064H202.776V234.464H204.792V236.064H210.648V240.064H208.68V237.872H198.84ZM204.776 244.848V247.232C205.352 247.296 205.96 247.328 206.6 247.328C207.464 247.328 210.104 247.328 211.176 247.28C210.904 247.744 210.6 248.656 210.504 249.216H206.504C203.544 249.216 201.352 248.736 199.912 246.448C199.384 247.68 198.68 248.704 197.768 249.488C197.448 249.152 196.648 248.48 196.2 248.192C197.928 246.912 198.712 244.704 199 241.968L200.984 242.16C200.888 242.88 200.776 243.552 200.632 244.192C201.112 245.472 201.864 246.24 202.808 246.704V241.056H199.4V239.248H208.2V241.056H204.776V243.056H209.176V244.848H204.776Z" fill="white"/>
<path d="M202.142 51.071L195.071 58.1421L188 51.071" stroke="#D9D9D9" stroke-width="2"/>
<path d="M202.142 51.071L195.071 58.1421L188 51.071" stroke="#D9D9D9" stroke-width="2"/>
<path d="M202.142 203.071L195.071 210.142L188 203.071" stroke="#D9D9D9" stroke-width="2"/>
<path d="M202.142 140.071L195.071 147.142L188 140.071" stroke="#D9D9D9" stroke-width="2"/>
<rect x="62" y="3" width="260" height="40" rx="20" fill="white"/>
<path d="M161.372 27.488H165.612C166.188 27.488 166.7 27.424 167.1 27.36V29.68C166.652 29.616 165.98 29.6 165.612 29.6H155.068C154.588 29.6 154.028 29.616 153.5 29.68V27.36C153.996 27.456 154.572 27.488 155.068 27.488H159.132V20.96H156.044C155.612 20.96 154.924 20.992 154.524 21.024V18.832C154.94 18.896 155.596 18.928 156.044 18.928H164.748C165.228 18.928 165.788 18.88 166.252 18.832V21.024C165.772 20.992 165.212 20.96 164.748 20.96H161.372V27.488ZM173.756 17.84C174.876 18.592 176.956 20.256 177.884 21.216L176.252 22.896C175.42 22 173.42 20.256 172.252 19.44L173.756 17.84ZM171.756 28.496C174.252 28.144 176.332 27.328 177.884 26.4C180.604 24.784 182.7 22.336 183.708 20.176L184.956 22.432C183.74 24.592 181.612 26.8 179.036 28.352C177.42 29.328 175.356 30.224 173.1 30.608L171.756 28.496ZM201.404 24.112L200.492 26.32C198.844 25.456 196.444 24.528 194.716 23.936V28.464C194.716 28.928 194.796 30.048 194.86 30.688H192.364C192.46 30.064 192.524 29.104 192.524 28.464V19.28C192.524 18.704 192.476 17.904 192.364 17.344H194.86C194.796 17.904 194.716 18.608 194.716 19.28V21.632C196.86 22.256 199.932 23.392 201.404 24.112ZM208.22 17.728H210.572C210.54 18.08 210.524 18.432 210.524 18.944V24.352C210.524 24.752 210.54 25.376 210.572 25.744H208.204C208.22 25.44 208.284 24.816 208.284 24.336V18.944C208.284 18.64 208.268 18.08 208.22 17.728ZM215.58 17.584H217.948C217.916 18.032 217.884 18.544 217.884 19.184V22.352C217.884 25.792 217.212 27.264 216.028 28.576C214.972 29.744 213.308 30.528 212.14 30.896L210.46 29.136C212.06 28.768 213.404 28.16 214.38 27.12C215.468 25.92 215.676 24.72 215.676 22.224V19.184C215.676 18.544 215.644 18.032 215.58 17.584ZM224.172 25.104V22.592C224.748 22.64 225.916 22.688 226.748 22.688H235.34C236.076 22.688 236.796 22.624 237.212 22.592V25.104C236.828 25.088 236.012 25.024 235.34 25.024H226.748C225.836 25.024 224.764 25.056 224.172 25.104Z" fill="#AA5A00"/>
<path d="M74.9977 116.02C74.9977 116.512 74.5897 116.92 74.0977 116.92C73.6057 116.92 73.1977 116.512 73.1977 116.02C73.1977 115.528 73.6057 115.12 74.0977 115.12C74.5897 115.12 74.9977 115.528 74.9977 116.02ZM70.1377 115.132L74.0977 119.092L78.0577 115.132L78.4057 115.48L74.4457 119.44L78.4057 123.4L78.0577 123.748L74.0977 119.788L70.1257 123.76L69.7777 123.412L73.7497 119.44L69.7897 115.48L70.1377 115.132ZM70.6777 118.54C71.1697 118.54 71.5777 118.948 71.5777 119.44C71.5777 119.932 71.1697 120.34 70.6777 120.34C70.1857 120.34 69.7777 119.932 69.7777 119.44C69.7777 118.948 70.1857 118.54 70.6777 118.54ZM77.5177 120.34C77.0257 120.34 76.6177 119.932 76.6177 119.44C76.6177 118.948 77.0257 118.54 77.5177 118.54C78.0097 118.54 78.4177 118.948 78.4177 119.44C78.4177 119.932 78.0097 120.34 77.5177 120.34ZM73.1977 122.86C73.1977 122.368 73.6057 121.96 74.0977 121.96C74.5897 121.96 74.9977 122.368 74.9977 122.86C74.9977 123.352 74.5897 123.76 74.0977 123.76C73.6057 123.76 73.1977 123.352 73.1977 122.86ZM91.3417 116.272V117.1H83.6977V116.272H86.9017V115.564H84.3337V114.748H86.9017V113.932H87.9937V114.748H90.6337V115.564H87.9937V116.272H91.3417ZM85.6417 118.432V119.44H89.3137V118.432H85.6417ZM90.0817 120.208H88.0417C88.2577 120.532 88.5457 120.82 88.8937 121.084C89.2777 120.832 89.7217 120.496 90.0817 120.208ZM86.8897 123.268V121.168C86.1217 121.852 85.1977 122.404 84.2737 122.8C84.1297 122.584 83.8177 122.14 83.6017 121.948C84.6937 121.552 85.8097 120.952 86.5297 120.208H84.6217V117.652H90.3937V119.944L90.4057 119.932L91.2337 120.46C90.6937 120.844 90.0937 121.24 89.5657 121.528C90.1297 121.84 90.7657 122.08 91.4497 122.224C91.2097 122.428 90.9457 122.8 90.8137 123.076C89.6857 122.764 88.7017 122.188 87.9577 121.408V123.268H86.8897ZM83.5057 116.152L82.6057 116.86C82.2697 116.26 81.4657 115.432 80.7577 114.856L81.6097 114.232C82.3057 114.772 83.1457 115.564 83.5057 116.152ZM83.1817 118.588V122.428C83.6977 123.256 84.6457 123.628 85.9777 123.688C87.3337 123.748 90.1177 123.712 91.6417 123.604C91.5097 123.856 91.3417 124.372 91.2817 124.696C89.9017 124.756 87.3577 124.78 85.9657 124.732C84.4777 124.672 83.4457 124.276 82.7137 123.352C82.2097 123.844 81.6817 124.324 81.0937 124.84L80.5417 123.736C81.0217 123.412 81.6097 122.956 82.1137 122.512V119.62H80.6737V118.588H83.1817ZM103.438 116.992H97.5457C97.5097 117.58 97.4617 118.18 97.3897 118.768H102.07C102.07 118.768 102.058 119.116 102.034 119.284C101.818 122.62 101.566 123.952 101.098 124.444C100.786 124.78 100.462 124.864 99.9697 124.9C99.5377 124.936 98.7457 124.924 97.9417 124.888C97.9297 124.564 97.7737 124.108 97.5577 123.796C98.3857 123.868 99.2257 123.88 99.5617 123.88C99.8257 123.88 99.9817 123.856 100.138 123.724C100.462 123.448 100.69 122.32 100.858 119.824H97.2097C96.7777 121.9 95.8057 123.82 93.3937 125.008C93.2257 124.708 92.8897 124.3 92.5897 124.084C95.8537 122.584 96.1777 119.656 96.3097 116.992H92.7577V115.924H97.4737V113.884H98.6137V115.924H103.438V116.992ZM107.362 122.104C107.878 122.104 108.454 121.336 109.006 119.5C109.306 118.564 109.534 117.484 109.654 116.44C107.518 116.788 106.27 118.648 106.27 120.112C106.27 121.48 106.882 122.104 107.362 122.104ZM110.554 124.396L109.846 123.268C110.266 123.232 110.614 123.172 110.902 123.1C112.426 122.752 113.782 121.648 113.782 119.728C113.782 118 112.75 116.644 110.926 116.416C110.758 117.484 110.542 118.636 110.218 119.752C109.498 122.176 108.514 123.532 107.326 123.532C106.15 123.532 105.07 122.2 105.07 120.22C105.07 117.58 107.41 115.288 110.386 115.288C113.242 115.288 115.054 117.28 115.054 119.776C115.054 122.26 113.458 123.988 110.554 124.396ZM127.438 116.992H121.546C121.51 117.58 121.462 118.18 121.39 118.768H126.07C126.07 118.768 126.058 119.116 126.034 119.284C125.818 122.62 125.566 123.952 125.098 124.444C124.786 124.78 124.462 124.864 123.97 124.9C123.538 124.936 122.746 124.924 121.942 124.888C121.93 124.564 121.774 124.108 121.558 123.796C122.386 123.868 123.226 123.88 123.562 123.88C123.826 123.88 123.982 123.856 124.138 123.724C124.462 123.448 124.69 122.32 124.858 119.824H121.21C120.778 121.9 119.806 123.82 117.394 125.008C117.226 124.708 116.89 124.3 116.59 124.084C119.854 122.584 120.178 119.656 120.31 116.992H116.758V115.924H121.474V113.884H122.614V115.924H127.438V116.992ZM130.03 114.712L131.338 114.832C131.254 115.036 131.146 115.528 131.098 115.744C130.882 116.704 130.522 119.176 130.522 120.448C130.522 120.868 130.546 121.264 130.606 121.696C130.774 121.204 131.026 120.628 131.206 120.196L131.818 120.676C131.506 121.564 131.098 122.776 130.966 123.388C130.93 123.544 130.906 123.784 130.906 123.928C130.918 124.048 130.918 124.228 130.93 124.372L129.874 124.444C129.634 123.616 129.406 122.284 129.406 120.676C129.406 118.9 129.79 116.644 129.934 115.696C129.97 115.396 130.018 115.024 130.03 114.712ZM136.054 122.092V121.768C135.694 121.672 135.334 121.612 134.95 121.612C134.158 121.612 133.618 121.96 133.618 122.452C133.618 123.004 134.146 123.28 134.902 123.28C135.778 123.28 136.054 122.836 136.054 122.092ZM139.522 122.632L138.886 123.616C138.334 123.1 137.794 122.656 137.242 122.32V122.356C137.242 123.46 136.714 124.396 135.058 124.396C133.45 124.396 132.514 123.724 132.514 122.584C132.514 121.492 133.462 120.676 135.046 120.676C135.382 120.676 135.706 120.7 136.006 120.748C135.97 119.92 135.922 118.9 135.898 117.976C135.562 117.988 135.226 118 134.89 118C134.206 118 133.558 117.964 132.862 117.928L132.85 116.8C133.534 116.86 134.194 116.896 134.902 116.896C135.238 116.896 135.562 116.884 135.898 116.872C135.898 116.284 135.886 115.78 135.886 115.48C135.886 115.276 135.862 114.952 135.814 114.724H137.17C137.134 114.964 137.11 115.216 137.098 115.456C137.086 115.756 137.074 116.26 137.062 116.8C137.758 116.74 138.418 116.656 139.03 116.536V117.7C138.418 117.796 137.746 117.868 137.062 117.916C137.086 119.104 137.158 120.172 137.194 121.084C138.178 121.48 138.922 122.092 139.522 122.632ZM148.09 116.644H149.806C150.154 116.644 150.67 116.596 150.922 116.56V117.82C150.598 117.808 150.166 117.796 149.866 117.796H148.114C148.15 119.572 148.198 121.792 148.21 123.34C148.21 124.036 147.802 124.42 146.998 124.42C146.338 124.42 145.642 124.384 145.006 124.348L144.91 123.112C145.462 123.196 146.134 123.244 146.554 123.244C146.878 123.244 146.998 123.088 146.998 122.764C146.998 121.864 146.986 120.352 146.962 118.9C145.93 120.304 143.902 122.116 141.862 123.196L140.998 122.212C143.386 121.06 145.45 119.212 146.41 117.796H142.75C142.33 117.796 141.922 117.808 141.526 117.832V116.56C141.862 116.608 142.342 116.644 142.726 116.644H146.914C146.902 116.248 146.89 115.9 146.878 115.612C146.866 115.288 146.842 114.892 146.77 114.508H148.138C148.09 114.856 148.066 115.252 148.078 115.612L148.09 116.644ZM154.894 115.06C155.746 115.624 157.294 116.872 157.966 117.568L157.018 118.54C156.394 117.904 154.906 116.608 154.018 115.996L154.894 115.06ZM153.658 123.088C155.662 122.788 157.222 122.116 158.374 121.408C160.306 120.22 161.806 118.42 162.538 116.884L163.27 118.192C162.406 119.74 160.93 121.384 159.058 122.536C157.846 123.28 156.322 123.988 154.462 124.324L153.658 123.088ZM173.926 117.724L174.766 118.252C174.706 118.384 174.61 118.564 174.586 118.66C174.238 119.836 173.71 121.048 172.822 122.032C171.586 123.4 170.062 124.156 168.526 124.588L167.59 123.508C169.33 123.148 170.806 122.368 171.79 121.348C172.474 120.64 172.906 119.74 173.122 118.948H167.014C166.726 118.948 166.198 118.96 165.742 118.996V117.748C166.21 117.796 166.666 117.832 167.014 117.832H173.158C173.482 117.832 173.77 117.784 173.926 117.724ZM166.834 116.188V114.952C167.158 114.988 167.59 115.012 167.974 115.012H172.654C173.038 115.012 173.53 114.988 173.83 114.952V116.188C173.53 116.164 173.05 116.152 172.642 116.152H167.974C167.602 116.152 167.17 116.164 166.834 116.188ZM183.358 117.988V123.028C183.358 123.52 183.382 124.18 183.442 124.444H181.954C181.99 124.18 182.026 123.52 182.026 123.028V118.756C180.766 119.428 179.17 120.1 177.682 120.52L176.998 119.356C179.05 118.888 181.078 118 182.41 117.172C183.622 116.416 184.87 115.348 185.542 114.484L186.562 115.408C185.698 116.272 184.57 117.208 183.358 117.988ZM190.894 115.06C191.746 115.624 193.294 116.872 193.966 117.568L193.018 118.54C192.394 117.904 190.906 116.608 190.018 115.996L190.894 115.06ZM189.658 123.088C191.662 122.788 193.222 122.116 194.374 121.408C196.306 120.22 197.806 118.42 198.538 116.884L199.27 118.192C198.406 119.74 196.93 121.384 195.058 122.536C193.846 123.28 192.322 123.988 190.462 124.324L189.658 123.088ZM205.534 115.792C206.89 115.996 209.278 115.948 210.514 115.78V117.004C209.158 117.136 206.914 117.148 205.534 117.004V115.792ZM205.126 120.64L206.206 120.736C206.11 121.144 206.062 121.468 206.062 121.792C206.062 122.332 206.458 122.752 207.898 122.752C208.966 122.752 209.866 122.656 210.862 122.44L210.886 123.712C210.142 123.856 209.158 123.952 207.874 123.952C205.858 123.952 204.922 123.256 204.922 122.104C204.922 121.636 205.018 121.156 205.126 120.64ZM202.138 114.82L203.47 114.928C203.386 115.156 203.266 115.624 203.218 115.84C203.014 116.812 202.63 119.044 202.63 120.316C202.63 120.736 202.654 121.132 202.714 121.564C202.894 121.084 203.134 120.508 203.314 120.076L203.938 120.556C203.614 121.456 203.194 122.728 203.086 123.328C203.05 123.484 203.014 123.736 203.026 123.868C203.026 123.988 203.038 124.168 203.05 124.312L201.97 124.384C201.73 123.556 201.514 122.152 201.514 120.544C201.514 118.768 201.898 116.752 202.03 115.804C202.078 115.504 202.126 115.132 202.138 114.82ZM213.094 115.912C213.562 115.9 213.97 115.876 214.198 115.852C215.074 115.78 217.186 115.576 219.37 115.384C220.642 115.288 221.83 115.216 222.646 115.192V116.392C221.986 116.392 220.966 116.404 220.342 116.572C218.758 117.04 217.714 118.732 217.714 120.136C217.714 122.296 219.73 123.016 221.698 123.1L221.266 124.384C218.938 124.264 216.49 123.016 216.49 120.388C216.49 118.6 217.534 117.16 218.506 116.536C217.462 116.656 214.546 116.944 213.226 117.22L213.094 115.912ZM226.15 117.22H229.486V116.368H230.614V117.22H233.986V116.032H226.15V117.22ZM235.354 121.912H231.19C232.03 123.052 233.482 123.736 235.498 124C235.258 124.216 234.982 124.672 234.826 124.972C232.486 124.576 230.962 123.64 230.038 121.984C229.39 123.136 228.07 124.18 225.43 124.936C225.31 124.708 224.986 124.276 224.746 124.048C226.954 123.484 228.142 122.728 228.778 121.912H224.914V120.94H229.294C229.39 120.616 229.45 120.304 229.474 119.98H226.27V119.056H229.486V118.144H226.078V117.448H225.058V115.048H229.51V113.944H230.662V115.048H235.126V117.448H234.202V118.144H230.614V119.056H234.01V119.98H230.602C230.578 120.304 230.53 120.628 230.458 120.94H235.354V121.912ZM243.97 123.952H246.07C246.574 123.952 246.67 123.736 246.73 122.632C246.97 122.8 247.366 122.968 247.654 123.028C247.522 124.48 247.21 124.9 246.142 124.9H243.874C242.578 124.9 242.242 124.588 242.242 123.388V120.736L241.618 121.036L241.21 120.112L242.242 119.632V117.928C242.122 118.096 242.002 118.252 241.87 118.396C241.702 118.204 241.27 117.796 241.03 117.616C241.246 117.388 241.438 117.136 241.618 116.848H238.942C238.93 117.352 238.918 117.844 238.906 118.336H241.102C241.102 118.336 241.102 118.66 241.09 118.804C241.018 122.692 240.958 124.06 240.646 124.468C240.454 124.768 240.238 124.864 239.926 124.9C239.626 124.948 239.158 124.948 238.678 124.936C238.654 124.636 238.546 124.204 238.39 123.94C238.834 123.976 239.218 123.976 239.398 123.976C239.554 123.988 239.662 123.952 239.758 123.808C239.938 123.568 240.01 122.452 240.058 119.356H238.846C238.69 121.576 238.318 123.58 237.322 124.936C237.142 124.684 236.794 124.348 236.506 124.18C237.706 122.536 237.838 119.716 237.886 116.848H236.65V115.816H238.642V113.944H239.71V115.816H241.69V116.728C242.17 115.936 242.542 114.952 242.77 113.92L243.874 114.148C243.754 114.616 243.622 115.084 243.466 115.528H247.498V116.548H243.046C242.83 117.016 242.578 117.436 242.314 117.82H243.238V119.164L244.15 118.744V116.932H245.098V118.3L246.166 117.808L246.262 117.736L246.454 117.604L247.138 117.856L247.09 118.012C247.09 119.716 247.09 121.096 247.042 121.432C247.018 121.852 246.826 122.056 246.514 122.164C246.25 122.26 245.866 122.272 245.578 122.26C245.554 121.996 245.47 121.636 245.362 121.42C245.554 121.432 245.794 121.432 245.89 121.432C246.01 121.432 246.07 121.396 246.106 121.228C246.13 121.084 246.142 120.208 246.142 118.9L245.098 119.392V122.86H244.15V119.836L243.238 120.268V123.4C243.238 123.868 243.334 123.952 243.97 123.952ZM253.798 118.504H251.038V120.904H253.798V118.504ZM254.902 121.96H251.038V122.896H249.958V117.448H254.902V121.96ZM259.438 114.76V115.876H258.01V123.46C258.01 124.18 257.83 124.552 257.326 124.72C256.81 124.924 255.97 124.936 254.77 124.936C254.71 124.612 254.482 124.06 254.302 123.736C255.214 123.784 256.21 123.772 256.498 123.772C256.762 123.76 256.846 123.688 256.846 123.436V115.876H248.782V114.76H259.438ZM270.118 119.2H268.258C266.998 119.2 266.686 118.888 266.686 117.748V113.956H267.802V115.828C268.726 115.504 269.662 115.108 270.298 114.772L271.018 115.576C270.094 115.996 268.894 116.416 267.802 116.74V117.736C267.802 118.132 267.886 118.204 268.39 118.204H270.022C270.454 118.204 270.526 118.012 270.574 116.896C270.814 117.076 271.27 117.244 271.582 117.304C271.462 118.804 271.138 119.2 270.118 119.2ZM262.342 121.732H264.55V120.82H262.342V121.732ZM264.55 119.116H262.342V119.968H264.55V119.116ZM265.654 118.18V123.736C265.654 124.264 265.546 124.552 265.198 124.732C264.826 124.9 264.298 124.912 263.566 124.912C263.506 124.624 263.35 124.192 263.194 123.904C263.698 123.928 264.19 123.928 264.358 123.916C264.514 123.916 264.55 123.868 264.55 123.724V122.584H262.342V124.924H261.298V118.18H265.654ZM264.034 115.108L264.97 114.748C265.582 115.576 266.23 116.692 266.47 117.448L265.474 117.856C265.414 117.664 265.318 117.436 265.21 117.184C263.566 117.28 261.91 117.388 260.686 117.46L260.59 116.392C260.866 116.38 261.166 116.368 261.502 116.356C261.886 115.6 262.282 114.628 262.498 113.896L263.662 114.16C263.362 114.88 263.002 115.648 262.666 116.308L264.718 116.212C264.502 115.828 264.274 115.444 264.034 115.108ZM268.414 123.868H270.106C270.574 123.868 270.658 123.64 270.706 122.356C270.958 122.524 271.402 122.704 271.702 122.776C271.57 124.408 271.258 124.84 270.202 124.84H268.27C267.01 124.84 266.686 124.516 266.686 123.4V119.5H267.79V121.276C268.774 120.928 269.77 120.496 270.418 120.076L271.138 120.892C270.226 121.42 268.942 121.852 267.79 122.2V123.388C267.79 123.796 267.886 123.868 268.414 123.868ZM280.918 117.76C281.206 118.18 281.65 118.912 281.902 119.416L281.158 119.752C280.87 119.14 280.558 118.588 280.198 118.072L280.918 117.76ZM282.25 117.244C282.538 117.652 283.006 118.372 283.27 118.864L282.538 119.224C282.226 118.612 281.914 118.084 281.53 117.568L282.25 117.244ZM273.046 115.972C273.502 115.96 273.91 115.936 274.15 115.912C275.014 115.828 277.138 115.624 279.322 115.444C280.582 115.336 281.782 115.264 282.586 115.24L282.598 116.452C281.938 116.452 280.906 116.464 280.282 116.62C278.71 117.1 277.666 118.78 277.666 120.184C277.666 122.356 279.682 123.064 281.638 123.16L281.206 124.432C278.878 124.312 276.442 123.064 276.442 120.448C276.442 118.648 277.486 117.208 278.446 116.596C277.414 116.704 274.498 116.992 273.166 117.28L273.046 115.972ZM288.778 120.028C288.778 120.688 289.282 121.084 289.858 121.084C290.47 121.084 290.926 120.592 290.77 119.464C290.578 119.08 290.242 118.912 289.846 118.912C289.306 118.912 288.778 119.32 288.778 120.028ZM295.222 115.912L295.21 117.04C294.502 117.004 293.386 116.98 291.658 116.98C291.67 117.616 291.67 118.312 291.67 118.84C291.946 119.272 292.09 119.812 292.09 120.424C292.09 122.008 291.25 123.868 288.43 124.684L287.41 123.676C288.802 123.364 289.894 122.848 290.47 121.96C290.23 122.068 289.954 122.128 289.642 122.128C288.682 122.128 287.638 121.408 287.638 120.052C287.638 118.804 288.658 117.916 289.858 117.916C290.098 117.916 290.314 117.94 290.518 118L290.506 116.992C288.706 117.016 286.762 117.088 285.286 117.184L285.25 116.032C286.594 116.02 288.802 115.948 290.494 115.924C290.482 115.672 290.482 115.456 290.47 115.324C290.446 115.024 290.41 114.628 290.374 114.46H291.742C291.718 114.616 291.682 115.156 291.682 115.324C291.67 115.468 291.67 115.672 291.67 115.912H295.222ZM297.23 121.048C298.274 121.048 299.102 121.9 299.102 122.932C299.102 123.964 298.274 124.804 297.23 124.804C296.198 124.804 295.358 123.964 295.358 122.932C295.358 121.9 296.198 121.048 297.23 121.048ZM297.23 124.084C297.866 124.084 298.382 123.568 298.382 122.932C298.382 122.296 297.866 121.78 297.23 121.78C296.594 121.78 296.078 122.296 296.078 122.932C296.078 123.568 296.594 124.084 297.23 124.084Z" fill="#42210B"/>
<path d="M51.2136 23.2507L44.6514 19.4358C42.856 9.07613 33.888 1.19336 23.0887 1.19336C10.9968 1.19336 1.18494 11.0739 1.18494 23.2507C1.18494 35.4274 10.9878 45.308 23.0887 45.308C33.888 45.308 42.856 37.4342 44.6514 27.0745L51.2136 23.2597V23.2507Z" stroke="#F7931E" stroke-width="1.99" stroke-linecap="round" stroke-linejoin="round"/>
<path d="M21.4908 23.4767C21.4908 29.0633 19.8031 31.3414 16.742 31.3414C13.6809 31.3414 12.056 29.1085 12.056 23.5219C12.056 17.9352 13.7617 15.7385 16.7869 15.7385C19.8121 15.7385 21.4908 17.9081 21.4908 23.4857V23.4767ZM14.5875 23.4947C14.5875 27.9424 15.198 29.3797 16.742 29.3797C18.286 29.3797 18.9593 27.9152 18.9593 23.4947C18.9593 19.0742 18.3489 17.6911 16.7779 17.6911C15.2069 17.6911 14.5786 19.0381 14.5786 23.4947H14.5875Z" stroke="#F7931E" stroke-width="3.31" stroke-linecap="round" stroke-linejoin="round"/>
<path d="M31.3925 29.1446H34.1933V31.061H26.114V29.1446H29.0584V18.3961C28.3134 18.9114 27.3708 19.3815 26.2935 19.7431L25.8986 17.6729C27.1912 17.2933 28.3493 16.6695 29.3906 15.8921H31.3925V29.1446Z" stroke="#F7931E" stroke-width="3.31" stroke-linecap="round" stroke-linejoin="round"/>
<path d="M21.4908 23.4767C21.4908 29.0633 19.8031 31.3414 16.742 31.3414C13.6809 31.3414 12.056 29.1085 12.056 23.5219C12.056 17.9352 13.7617 15.7385 16.7869 15.7385C19.8121 15.7385 21.4908 17.9081 21.4908 23.4857V23.4767ZM14.5875 23.4947C14.5875 27.9424 15.198 29.3797 16.742 29.3797C18.286 29.3797 18.9593 27.9152 18.9593 23.4947C18.9593 19.0742 18.3489 17.6911 16.7779 17.6911C15.2069 17.6911 14.5786 19.0381 14.5786 23.4947H14.5875Z" fill="#FAF5E7"/>
<path d="M31.3925 29.1446H34.1933V31.061H26.114V29.1446H29.0584V18.3961C28.3134 18.9114 27.3708 19.3815 26.2935 19.7431L25.8986 17.6729C27.1912 17.2933 28.3493 16.6695 29.3906 15.8921H31.3925V29.1446Z" fill="#FAF5E7"/>
<path d="M51.2136 87.0483L44.6514 83.2334C42.856 72.8737 33.888 65 23.0887 65C10.9968 65 1.18494 74.8715 1.18494 87.0573C1.18494 99.2431 10.9878 109.115 23.0887 109.115C33.888 109.115 42.856 101.241 44.6514 90.8812L51.2136 87.0663V87.0483Z" stroke="#F7931E" stroke-width="1.99" stroke-linecap="round" stroke-linejoin="round"/>
<path d="M21.4908 87.2743C21.4908 92.8609 19.8031 95.139 16.742 95.139C13.6809 95.139 12.056 92.9061 12.056 87.3195C12.056 81.7328 13.7617 79.5361 16.7869 79.5361C19.8121 79.5361 21.4908 81.7057 21.4908 87.2833V87.2743ZM14.5875 87.2923C14.5875 91.74 15.198 93.1773 16.742 93.1773C18.286 93.1773 18.9593 91.7128 18.9593 87.2923C18.9593 82.8718 18.3489 81.4887 16.7779 81.4887C15.2069 81.4887 14.5786 82.8357 14.5786 87.2923H14.5875Z" stroke="#F7931E" stroke-width="3.31" stroke-linecap="round" stroke-linejoin="round"/>
<path d="M25.3869 83.6945C25.719 80.9916 27.5413 79.5271 30.001 79.5271C32.6851 79.5271 34.4715 80.9916 34.4715 83.595C34.4715 85.2765 33.7444 86.542 31.4553 88.6935C29.3996 90.5467 28.4121 91.6586 27.8106 92.879H34.5344V94.8587H25.2522V93.105C26.1319 91.2518 27.3887 89.5885 29.5252 87.5184C31.4822 85.62 31.9221 84.8335 31.9221 83.586C31.9221 82.2662 31.159 81.4888 29.9651 81.4888C28.7712 81.4888 27.9632 82.4199 27.8465 84.2188L25.3958 83.7035L25.3869 83.6945Z" stroke="#F7931E" stroke-width="3.31" stroke-linecap="round" stroke-linejoin="round"/>
<path d="M21.4908 87.2743C21.4908 92.8609 19.8031 95.139 16.742 95.139C13.6809 95.139 12.056 92.9061 12.056 87.3195C12.056 81.7328 13.7617 79.5361 16.7869 79.5361C19.8121 79.5361 21.4908 81.7057 21.4908 87.2833V87.2743ZM14.5875 87.2923C14.5875 91.74 15.198 93.1773 16.742 93.1773C18.286 93.1773 18.9593 91.7128 18.9593 87.2923C18.9593 82.8718 18.3489 81.4887 16.7779 81.4887C15.2069 81.4887 14.5786 82.8357 14.5786 87.2923H14.5875Z" fill="#FAF5E7"/>
<path d="M25.3869 83.6945C25.719 80.9916 27.5413 79.5271 30.001 79.5271C32.6851 79.5271 34.4715 80.9916 34.4715 83.595C34.4715 85.2765 33.7444 86.542 31.4553 88.6935C29.3996 90.5467 28.4121 91.6586 27.8106 92.879H34.5344V94.8587H25.2522V93.105C26.1319 91.2518 27.3887 89.5885 29.5252 87.5184C31.4822 85.62 31.9221 84.8335 31.9221 83.586C31.9221 82.2662 31.159 81.4888 29.9651 81.4888C28.7712 81.4888 27.9632 82.4199 27.8465 84.2188L25.3958 83.7035L25.3869 83.6945Z" fill="#FAF5E7"/>
<path d="M51.2136 171.583L44.6514 167.768C42.856 157.409 33.888 149.535 23.0887 149.535C10.9968 149.535 1.18494 159.406 1.18494 171.592C1.18494 183.778 10.9878 193.65 23.0887 193.65C33.888 193.65 42.856 185.776 44.6514 175.416L51.2136 171.601V171.583Z" stroke="#F7931E" stroke-width="1.99" stroke-linecap="round" stroke-linejoin="round"/>
<path d="M21.4908 171.809C21.4908 177.396 19.8031 179.674 16.742 179.674C13.6809 179.674 12.056 177.441 12.056 171.854C12.056 166.268 13.7617 164.071 16.7869 164.071C19.8121 164.071 21.4908 166.241 21.4908 171.818V171.809ZM14.5875 171.827C14.5875 176.275 15.198 177.712 16.742 177.712C18.286 177.712 18.9593 176.248 18.9593 171.827C18.9593 167.407 18.3489 166.024 16.7779 166.024C15.2069 166.024 14.5786 167.371 14.5786 171.827H14.5875Z" stroke="#F7931E" stroke-width="3.31" stroke-linecap="round" stroke-linejoin="round"/>
<path d="M25.3151 167.325C25.8806 165.192 27.5683 164.062 29.8484 164.062C32.5774 164.062 34.3369 165.662 34.3369 167.859C34.3369 169.64 33.2776 170.941 31.4733 171.258V171.393C33.4931 171.827 34.6332 173.192 34.6332 175.19C34.6332 177.857 32.7121 179.674 29.8484 179.674C27.3798 179.674 25.746 178.67 25.0817 176.338L27.4965 175.624C27.8286 177.143 28.5378 177.757 29.8305 177.757C31.2399 177.757 32.1286 176.808 32.1286 175.208C32.1286 173.491 31.3207 172.478 29.229 172.478H28.0889V170.462H29.1303C31.0962 170.462 31.8772 169.613 31.8772 168.094C31.8772 166.711 31.0693 165.978 29.8215 165.978C28.7802 165.978 27.9363 166.629 27.7388 168.049L25.324 167.316L25.3151 167.325Z" stroke="#F7931E" stroke-width="3.31" stroke-linecap="round" stroke-linejoin="round"/>
<path d="M21.4908 171.809C21.4908 177.396 19.8031 179.674 16.742 179.674C13.6809 179.674 12.056 177.441 12.056 171.854C12.056 166.268 13.7617 164.071 16.7869 164.071C19.8121 164.071 21.4908 166.241 21.4908 171.818V171.809ZM14.5875 171.827C14.5875 176.275 15.198 177.712 16.742 177.712C18.286 177.712 18.9593 176.248 18.9593 171.827C18.9593 167.407 18.3489 166.024 16.7779 166.024C15.2069 166.024 14.5786 167.371 14.5786 171.827H14.5875Z" fill="#FAF5E7"/>
<path d="M25.3151 167.325C25.8806 165.192 27.5683 164.062 29.8484 164.062C32.5774 164.062 34.3369 165.662 34.3369 167.859C34.3369 169.64 33.2776 170.941 31.4733 171.258V171.393C33.4931 171.827 34.6332 173.192 34.6332 175.19C34.6332 177.857 32.7121 179.674 29.8484 179.674C27.3798 179.674 25.746 178.67 25.0817 176.338L27.4965 175.624C27.8286 177.143 28.5378 177.757 29.8305 177.757C31.2399 177.757 32.1286 176.808 32.1286 175.208C32.1286 173.491 31.3207 172.478 29.229 172.478H28.0889V170.462H29.1303C31.0962 170.462 31.8772 169.613 31.8772 168.094C31.8772 166.711 31.0693 165.978 29.8215 165.978C28.7802 165.978 27.9363 166.629 27.7388 168.049L25.324 167.316L25.3151 167.325Z" fill="#FAF5E7"/>
<path d="M51.2136 241.048L44.6514 237.233C42.856 226.874 33.888 219 23.0887 219C10.9968 219 1.18494 228.872 1.18494 241.057C1.18494 253.243 10.9878 263.115 23.0887 263.115C33.888 263.115 42.856 255.241 44.6514 244.881L51.2136 241.066V241.048Z" stroke="#F7931E" stroke-width="1.99" stroke-linecap="round" stroke-linejoin="round"/>
<path d="M21.4908 241.274C21.4908 246.861 19.8031 249.139 16.742 249.139C13.6809 249.139 12.056 246.906 12.056 241.319C12.056 235.733 13.7617 233.536 16.7869 233.536C19.8121 233.536 21.4908 235.706 21.4908 241.283V241.274ZM14.5875 241.292C14.5875 245.74 15.198 247.177 16.742 247.177C18.286 247.177 18.9593 245.713 18.9593 241.292C18.9593 236.872 18.3489 235.489 16.7779 235.489C15.2069 235.489 14.5786 236.836 14.5786 241.292H14.5875Z" stroke="#F7931E" stroke-width="3.31" stroke-linecap="round" stroke-linejoin="round"/>
<path d="M32.9993 243.579H34.8665V245.433H32.9993V248.85H30.7461V245.433H25.0367V243.697L29.9023 233.681H32.9993V243.579ZM30.7461 240.262C30.7461 238.662 30.8089 237.161 30.8628 235.642H30.5845C30.0908 236.944 29.5252 238.273 28.9148 239.593L27.0745 243.579H30.7461V240.262Z" stroke="#F7931E" stroke-width="3.31" stroke-linecap="round" stroke-linejoin="round"/>
<path d="M21.4908 241.274C21.4908 246.861 19.8031 249.139 16.742 249.139C13.6809 249.139 12.056 246.906 12.056 241.319C12.056 235.733 13.7617 233.536 16.7869 233.536C19.8121 233.536 21.4908 235.706 21.4908 241.283V241.274ZM14.5875 241.292C14.5875 245.74 15.198 247.177 16.742 247.177C18.286 247.177 18.9593 245.713 18.9593 241.292C18.9593 236.872 18.3489 235.489 16.7779 235.489C15.2069 235.489 14.5786 236.836 14.5786 241.292H14.5875Z" fill="#FAF5E7"/>
<path d="M32.9993 243.579H34.8665V245.433H32.9993V248.85H30.7461V245.433H25.0367V243.697L29.9023 233.681H32.9993V243.579ZM30.7461 240.262C30.7461 238.662 30.8089 237.161 30.8628 235.642H30.5845C30.0908 236.944 29.5252 238.273 28.9148 239.593L27.0745 243.579H30.7461V240.262Z" fill="#FAF5E7"/>
</svg>
