<?xml version="1.0" encoding="UTF-8"?><svg id="_レイヤー_2" xmlns="http://www.w3.org/2000/svg" viewBox="0 0 42.79516 45.19455"><defs><style>.cls-1{fill:#d4eef4;}.cls-2{fill:#ff8375;}.cls-3{fill:#42210b;}</style></defs><g id="_レイヤー_1-2"><path class="cls-3" d="M42.00708.1372c-10.26112,10.45658-20.52223,20.91316-30.7833,31.36972-2.9079,2.96328-5.81576,5.92653-8.72361,8.88979-.38817.39557.28511.93469.67148.54099,10.26107-10.45656,20.52218-20.91314,30.7833-31.36972,2.90786-2.96326,5.81571-5.92652,8.72363-8.88974.38813-.39555-.28518-.93473-.6715-.54105h0Z"/><path class="cls-3" d="M7.67032,43.6594c-2.0904-2.0514-4.18083-4.10274-6.27128-6.15412-.33236-.32612-.94086-.20683-1.21247.13048-.31555.39186-.20316.88511.13048,1.21247,2.0904,2.0514,4.18085,4.10278,6.27129,6.15413.33236.32611.94087.20687,1.21247-.13049.31555-.39186.20316-.88511-.13048-1.21247h0Z"/><path class="cls-1" d="M13.16485,39.47394l-.07908.07525c-1.05615,1.00502-2.8862.90274-4.34704-.22526-.44938-.37043-.89433-.7588-1.32237-1.16337-.16936-.15534-.33297-.31602-.48984-.46955-.38924-.38635-.76602-.77095-1.11198-1.15719-.1237-.12995-.24736-.25993-.36546-.39534-.20046-.22198-.38847-.44211-.56957-.65509-1.2864-1.55532-1.42331-3.59916-.31366-4.75146l15.42895-16.08622,4.98199-5.19466c.59477-.62011,1.48647-.89063,2.46166-.74681l4.7041.69381c.81911.12077,1.5601.85966,1.69483,1.69l.69875,4.30562c.15685.97911-.08816,1.88648-.68197,2.50656l-5.529,5.77067-15.16028,15.80304Z"/><path class="cls-2" d="M12.87922,37.69928c-.93823.89283-2.05408,1.43394-3.28771.49923-.37892-.30776-.75355-.63105-1.11312-.96876-.14236-.12951-.27969-.26382-.41133-.3921-.3265-.32299-.64229-.64475-.93145-.9687-.1036-.10885-.20714-.21767-.30575-.33132-.16759-.18621-.32443-.3711-.47554-.54995-1.07203-1.30735-1.13833-3.06488-.15009-4.08595l13.48204-14.00527,6.64272,6.98043-13.44977,13.82239Z"/></g></svg>