<svg width="43" height="43" viewBox="0 0 43 43" fill="none" xmlns="http://www.w3.org/2000/svg">
<rect y="43" width="43" height="43" rx="12" transform="rotate(-90 0 43)" fill="url(#paint0_linear_1646_66)"/>
<path d="M7 27.2222C7 31.5109 10.4891 35 14.7778 35L27.2222 35C31.5109 35 35 31.5109 35 27.2222L35 14.7778C35 10.4891 31.5109 7 27.2222 7L14.7778 7C10.4891 7 7 10.4891 7 14.7778L7 27.2222ZM10.1111 27.2222L10.1111 14.7778C10.1111 12.2049 12.2049 10.1111 14.7778 10.1111L27.2222 10.1111C29.7951 10.1111 31.8889 12.2049 31.8889 14.7778L31.8889 27.2222C31.8889 29.7951 29.7951 31.8889 27.2222 31.8889L14.7778 31.8889C12.2049 31.8889 10.1111 29.7951 10.1111 27.2222ZM11.6667 13.2222C11.6667 13.6348 11.8306 14.0304 12.1223 14.3222C12.414 14.6139 12.8097 14.7778 13.2222 14.7778C13.6348 14.7778 14.0304 14.6139 14.3222 14.3222C14.6139 14.0304 14.7778 13.6348 14.7778 13.2222C14.7778 12.8097 14.6139 12.414 14.3222 12.1223C14.0304 11.8306 13.6348 11.6667 13.2222 11.6667C12.8097 11.6667 12.414 11.8306 12.1223 12.1223C11.8306 12.414 11.6667 12.8097 11.6667 13.2222ZM13.2222 21C13.2222 25.2887 16.7113 28.7778 21 28.7778C25.2887 28.7778 28.7778 25.2887 28.7778 21C28.7778 16.7113 25.2887 13.2222 21 13.2222C16.7113 13.2222 13.2222 16.7113 13.2222 21ZM16.3333 21C16.3333 18.4271 18.4271 16.3333 21 16.3333C23.5729 16.3333 25.6667 18.4271 25.6667 21C25.6667 23.5729 23.5729 25.6667 21 25.6667C18.4271 25.6667 16.3333 23.5729 16.3333 21Z" fill="white"/>
<defs>
<linearGradient id="paint0_linear_1646_66" x1="0" y1="64.5" x2="43" y2="64.5" gradientUnits="userSpaceOnUse">
<stop stop-color="#D6B23B"/>
<stop offset="1" stop-color="#F900DC"/>
</linearGradient>
</defs>
</svg>
