<svg width="237" height="144" viewBox="0 0 237 144" fill="none" xmlns="http://www.w3.org/2000/svg">
<rect y="108.753" width="237" height="34.8831" fill="white" fill-opacity="0.85"/>
<path d="M14.7217 12.4369C16.2114 11.6388 17.6302 10.9117 19.0312 10.2732C19.1908 10.3087 19.315 10.486 19.3859 10.7875C19.4391 11.089 19.2263 11.2664 18.7475 11.3373C17.4706 12.029 16.1582 12.6319 14.8103 13.164C14.5443 13.2172 14.367 13.2172 14.2606 13.1463C14.1719 13.0753 14.1187 12.9689 14.1009 12.8448C14.0832 12.7029 14.296 12.561 14.7217 12.4369ZM16.8321 15.8952C16.1582 15.9838 15.4843 16.1789 14.7926 16.4627C14.1187 16.7464 13.6221 16.7642 13.3206 16.5514C13.2497 16.2499 13.3383 16.0548 13.6044 15.9661C14.2073 15.7178 15.2714 15.4163 16.7789 15.0439C16.7789 14.4764 16.7789 14.0153 16.7434 13.6606C16.7257 13.2881 16.708 13.0753 16.708 13.0044C16.7257 12.9334 16.8321 12.898 17.0627 12.898C17.2755 12.898 17.4706 12.9689 17.6302 13.0931C17.577 13.3591 17.577 13.8202 17.6656 14.4764C18.3928 14.4232 19.0667 14.3168 19.652 14.1217C20.2549 13.9443 20.6628 14.0507 20.8934 14.4764C20.9466 14.6537 20.8757 14.7247 20.6806 14.6892C20.0421 14.8133 19.0312 15.0794 17.6302 15.505C17.6656 15.7888 17.6656 16.3031 17.6302 17.0125C18.8184 17.6509 19.7406 18.2894 20.4146 18.9456C20.4678 19.1406 20.4146 19.318 20.2727 19.4599C19.8116 19.3889 19.3505 19.2116 18.9071 18.9101C18.4637 18.6086 17.9849 18.3958 17.4883 18.2716C17.5592 19.7436 17.5238 21.9073 17.4174 24.7449C17.2223 24.7803 17.0804 24.7626 16.9917 24.7094C16.9208 24.6562 16.8144 24.5498 16.6725 24.4079C16.5306 24.2838 16.5129 23.8404 16.6193 23.131C16.7257 22.4039 16.7612 21.8541 16.7257 21.4462C16.708 21.056 16.6902 20.187 16.7257 18.8569C16.1404 19.6018 15.6084 20.2402 15.0941 20.79C14.5798 21.3575 14.1009 21.9073 13.6398 22.4393C13.4447 22.4216 13.3206 22.3684 13.2319 22.2442C13.161 22.1378 13.1787 21.9605 13.3206 21.7299C13.4625 21.4816 13.5866 21.2511 13.6753 21.0383C14.2606 20.1693 15.3069 18.8214 16.8144 16.9947L16.8321 15.8952ZM25.5754 10.6279C25.5754 11.0358 25.5931 12.7561 25.6641 15.8065C25.7173 18.8392 25.735 21.0205 25.7173 22.3152C25.6995 23.6098 25.6995 24.4079 25.7173 24.7271C25.7173 25.0286 25.6109 25.1528 25.398 25.0996C25.1852 25.0464 24.7241 24.8335 24.0325 24.4434C23.3408 24.0532 22.9152 23.7872 22.7556 23.6276C22.5782 23.4502 22.5073 23.3438 22.525 23.2729C22.5427 23.2197 22.5959 23.2019 22.6669 23.2551C22.7378 23.3083 23.4472 23.6098 24.7951 24.1951C24.8837 20.0806 24.8483 15.4341 24.6709 10.2377C24.6532 10.1136 24.7951 10.0959 25.0611 10.1491C25.3448 10.22 25.5045 10.3796 25.5754 10.6279ZM21.9752 14.299C21.9752 14.2281 22.0816 14.1926 22.2767 14.2281C22.4718 14.2636 22.5959 14.3877 22.6314 14.5828C22.7201 17.0302 22.7733 18.5909 22.7733 19.2648C22.7733 19.9387 22.7201 20.2934 22.6137 20.3289C22.5073 20.3821 22.4009 20.3821 22.2767 20.3289C22.1703 20.2757 22.0994 19.9387 22.0639 19.318C22.0462 18.6973 22.0107 17.846 21.9752 16.7819C21.9397 15.7001 21.9397 14.8843 21.9752 14.299ZM38.8588 10.3264C39.9938 10.2023 40.8806 10.0959 41.5013 10.0427C42.1043 9.98945 42.5654 10.0781 42.8669 10.3087C43.2571 13.4832 43.3457 16.5514 43.1329 19.5485C43.2216 21.0737 43.2393 22.3861 43.2039 23.4857C43.1507 24.5853 42.6895 24.7981 41.8205 24.1596C40.9515 23.5212 40.5259 22.9891 40.5436 22.5635C40.7742 22.4925 41.4481 22.8118 42.5299 23.5389C42.5654 22.2265 42.5122 20.2934 42.3526 17.7219L38.3445 18.449C38.3622 19.1939 38.3268 20.0806 38.2558 21.1624C38.1849 22.2442 38.1672 22.9891 38.2026 23.397C38.2381 23.8049 38.2381 24.0177 38.2026 24.0532C38.1672 24.1064 38.1317 24.1241 38.0962 24.1419C38.0607 24.1419 38.0075 24.1596 37.9543 24.1419C37.9011 24.1419 37.8302 24.1241 37.777 24.0887C37.706 24.0709 37.6351 24.0177 37.5642 23.9645C37.4932 23.9113 37.44 23.8404 37.4046 23.7517C37.3868 23.6808 37.3514 23.5921 37.3514 23.4857C37.3336 23.397 37.3868 21.7299 37.511 18.5199C36.7838 18.6618 36.0212 18.8037 35.2232 18.9633C34.4428 19.1229 33.9817 19.1761 33.8576 19.1406C33.7512 19.1052 33.6625 19.2648 33.6093 19.6195C33.5561 19.9919 33.5029 20.4353 33.4319 20.9851C33.361 21.5349 33.1482 22.4925 32.8112 23.8936C32.6161 23.9645 32.4565 23.9468 32.2792 23.8227C32.1196 23.7162 32.1373 23.3261 32.3501 22.6876C32.5452 22.0492 32.758 20.8609 32.9708 19.1229L33.2369 14.9552L33.024 13.4478C33.0418 12.9157 33.1482 12.561 33.3255 12.4369C33.5916 12.3837 33.7512 12.6142 33.8398 13.1285C33.9463 13.6428 33.9817 14.1926 33.9817 14.7601C34.7798 14.7247 35.968 14.5118 37.5287 14.1571C37.44 13.7847 37.4223 13.4123 37.4578 13.0221C37.4932 12.6319 37.4578 12.0467 37.3336 11.3018C36.039 11.4614 34.8685 11.6565 33.8221 11.8871C33.7157 11.8516 33.5738 11.7807 33.4319 11.6743C33.2723 11.5679 33.2546 11.4082 33.3965 11.1954C34.5492 10.9471 36.3582 10.6634 38.8588 10.3264ZM41.9624 10.6634L38.3445 11.16V14.0507C38.8765 13.9621 39.4086 13.8557 39.9584 13.7492C40.4904 13.6428 40.8629 13.5719 41.0579 13.5542C41.253 13.5364 41.4304 13.5187 41.59 13.5364C41.7673 13.5364 42.0156 13.6074 42.3703 13.7315C42.2284 13.0221 42.1752 12.4901 42.193 12.1176C42.2107 11.7452 42.1398 11.2664 41.9624 10.6634ZM33.9285 16.9061C33.8931 17.314 33.8398 17.7573 33.7866 18.2539C35.7729 17.8992 37.0144 17.6687 37.511 17.5622C37.511 16.4449 37.511 15.5937 37.511 14.9907C35.9148 15.3454 34.7443 15.6114 33.9817 15.7888C33.9817 16.0016 33.964 16.374 33.9285 16.9061ZM42.3703 14.1571C42.0156 14.2636 41.6077 14.3522 41.1821 14.4232C40.7564 14.5118 40.2599 14.6005 39.7101 14.6892C39.1603 14.7601 38.7169 14.8311 38.38 14.902C38.38 15.3986 38.38 15.842 38.3622 16.2321C38.3445 16.6046 38.3445 17.0125 38.3445 17.4736C38.8411 17.3849 39.4618 17.2607 40.2067 17.1366C40.9693 16.9947 41.6964 16.9238 42.3703 16.8883C42.3881 15.9661 42.3881 15.0616 42.3703 14.1571ZM55.3877 10.3264L55.5119 12.4191C56.8597 12.1531 57.6578 12.0644 57.8706 12.1886C58.0834 12.295 58.3849 12.4191 58.7751 12.5433C59.0588 12.0112 59.3426 11.6211 59.6263 11.355C59.8924 11.0713 60.1584 11.0358 60.4067 11.2486C60.6372 11.4437 60.4422 11.9048 59.786 12.6142C59.1475 13.3236 58.2785 14.3345 57.1789 15.6469C60.1407 15.1326 61.7191 14.902 61.9319 14.9375C62.1624 14.9907 62.3043 15.1148 62.393 15.3099C62.4639 15.505 62.2688 15.6469 61.79 15.7356C61.2934 15.8242 60.5663 15.9484 59.5909 16.0902C58.5977 16.2321 57.5691 16.374 56.4873 16.4804C55.8134 17.0657 55.0862 17.8637 54.3059 18.8924C55.7779 18.4845 57.5159 18.183 59.5377 17.9524C59.8924 17.9169 60.1229 18.0411 60.2293 18.3248C60.0165 20.3111 59.8924 22.5989 59.8392 25.1705C59.8037 25.2769 59.6441 25.2769 59.3603 25.206C59.0766 25.135 58.3672 25.1705 57.2321 25.3479C56.1148 25.5075 55.299 25.6139 54.8202 25.6671C54.3414 25.7203 54.0399 25.7203 53.898 25.6316C53.7738 25.5607 53.6674 25.2237 53.5788 24.6385C53.4901 24.0355 53.4546 23.0778 53.5078 21.7477L53.561 19.6904L49.5707 23.663C49.4465 23.734 49.3401 23.7517 49.2337 23.7162C49.145 23.6808 49.0386 23.6276 48.95 23.5212C48.8613 23.4325 48.8435 23.3438 48.9322 23.2551C49.0032 23.1842 49.145 23.0423 49.3401 22.8295C49.5352 22.5989 49.8899 22.2442 50.3687 21.7654C50.8476 21.2866 51.3974 20.7368 52.0181 20.1161C52.6565 19.4953 53.6674 18.3426 55.0862 16.6755L50.7944 17.4204C49.9254 17.5268 49.4288 17.509 49.3047 17.3849C49.1805 17.2607 49.1273 17.1898 49.1628 17.1543C49.1805 17.1366 49.2514 17.0657 49.3756 16.9593C49.4997 16.8528 51.2555 16.5336 54.6606 16.0193L54.7138 13.2527C54.0753 13.3768 53.4369 13.501 52.763 13.5896C52.1068 13.6606 51.6634 13.696 51.4328 13.6606C51.2023 13.6074 51.2023 13.4832 51.4328 13.2704C51.6634 13.0576 52.1245 12.898 52.7984 12.8093C53.4901 12.7206 54.0931 12.6142 54.6074 12.4901C54.6783 10.8939 54.7138 10.0072 54.6961 9.8121C54.6783 9.59929 54.767 9.52835 54.9443 9.58155C55.1394 9.63476 55.2813 9.88304 55.3877 10.3264ZM58.7396 12.5787L55.5296 13.1817L55.5828 15.8597L56.1326 15.7533L58.7396 12.5787ZM54.4123 19.6195V21.5526L59.3249 20.5772L59.3958 18.8037L54.4123 19.6195ZM59.2184 21.6413L54.3236 22.4216L54.3414 24.8158C55.6005 24.6739 56.6824 24.5498 57.5514 24.4434C58.4381 24.3547 58.9702 24.2128 59.1298 24.0709L59.2184 21.6413ZM69.7707 15.0084C69.7175 14.6537 69.8771 14.4941 70.2495 14.5296C70.5156 14.6715 70.8525 14.7069 71.2427 14.636C71.9521 14.4586 72.6969 14.2281 73.4418 13.9443C73.0871 13.0753 72.7324 12.2773 72.36 11.5324C72.3955 11.3018 72.5196 11.1777 72.7324 11.1777C72.9452 11.1777 73.1226 11.3373 73.2822 11.6388C73.4241 11.9403 73.7256 12.6142 74.1689 13.6428C75.0379 13.3591 75.8715 13.0931 76.6518 12.8448C77.1129 12.898 77.308 13.0399 77.2548 13.2881C77.1839 13.5187 77.0065 13.6783 76.705 13.7315C75.9779 13.9798 75.1976 14.2281 74.3463 14.5118C74.6832 15.842 74.9493 17.1543 75.1089 18.449C75.1089 18.6618 75.0025 18.8214 74.8251 18.8924C74.6478 18.981 74.5059 18.9633 74.3995 18.8214C74.3108 18.6618 74.2753 18.5199 74.3463 18.3958C74.2044 17.1721 73.9916 16.0016 73.7256 14.8665C72.1117 15.3631 71.1895 15.6114 70.9412 15.5759C70.6929 15.5405 70.4801 15.505 70.3027 15.4695C70.1254 15.4163 69.948 15.2567 69.7707 15.0084ZM69.8771 19.7082C69.9835 19.4776 70.1431 19.3889 70.3559 19.4421C70.551 19.4776 70.6929 19.655 70.7638 19.9742C70.5156 21.0028 70.5333 21.8009 70.817 22.3684C71.1008 22.9536 71.5264 23.2197 72.1117 23.1665C72.6792 23.1133 73.1226 23.0246 73.4241 22.9004C73.7433 22.7763 74.1335 22.6344 74.6123 22.4393C75.0912 22.262 75.3926 22.2265 75.5168 22.3507C75.6232 22.4748 75.6587 22.6521 75.5877 22.8827C75.4991 23.131 75.1089 23.3083 74.4172 23.468C73.7078 23.6098 73.0871 23.7517 72.5373 23.8581C71.9875 23.9645 71.5619 24 71.2604 23.9645C70.9767 23.9113 70.5865 23.6098 70.1077 23.0601C69.6288 22.4925 69.5579 21.3752 69.8771 19.7082ZM93.3226 23.0601C94.1916 22.3507 94.901 21.6413 95.4685 20.9673C96.0183 20.2757 96.373 19.9742 96.4971 20.0806C96.639 20.187 96.6922 20.3644 96.6922 20.5949C96.6922 20.8255 96.3553 21.3043 95.7168 22.0137C95.0783 22.7054 94.564 23.2374 94.1739 23.5921C93.7837 23.9468 93.4113 24.0532 93.0566 23.9468C92.7019 23.8227 92.294 23.1665 91.8506 21.9782C91.4072 20.79 91.1589 19.6904 91.1057 18.715C90.822 18.5022 90.2013 18.715 89.2436 19.3712C88.2682 20.0274 87.3637 21.2688 86.5124 23.0778C86.2109 23.2197 85.9626 23.1842 85.803 22.9714C85.6257 22.7586 85.6611 22.4393 85.874 22.0137C86.0868 21.5881 86.5656 20.3821 87.3282 18.3958C88.0731 16.4095 89.1904 14.0507 90.6446 11.2841C90.7333 11.1422 90.8575 11.0713 91.0348 11.0713C91.2121 11.0713 91.3186 11.1954 91.354 11.426C91.3895 11.6565 91.0171 12.4723 90.2722 13.8557C89.5273 15.239 88.6761 17.1011 87.7361 19.4599C87.9489 19.4599 88.144 19.3357 88.3214 19.1052C88.4987 18.8569 88.747 18.6086 89.084 18.3426C89.4209 18.0943 89.9352 17.846 90.6269 17.6332C91.2654 17.5977 91.6733 17.9701 91.8329 18.7505C92.1344 20.2934 92.6309 21.7299 93.3226 23.0601ZM104.903 23.3615C104.62 23.4147 104.371 23.3793 104.141 23.2197C103.928 23.0778 103.733 22.8295 103.556 22.5103C103.077 18.8746 103.68 15.3631 105.365 11.9935C105.524 11.8871 105.684 11.8871 105.879 11.958C106.056 12.029 106.198 12.1886 106.305 12.4191C105.595 13.9089 105.028 15.6114 104.62 17.5622C104.212 19.4953 104.141 21.056 104.425 22.2088C104.531 22.5103 104.691 22.6167 104.903 22.5103C105.099 22.4039 105.24 22.3861 105.311 22.4571C105.4 22.528 105.418 22.6699 105.382 22.8827C105.365 23.1133 105.205 23.2729 104.903 23.3615ZM114.019 13.6074C114.392 13.7492 114.622 13.9621 114.658 14.2458C114.711 14.5296 114.498 14.8311 114.055 15.1326C113.611 15.4341 113.292 15.6291 113.132 15.7356C112.955 15.8242 112.831 15.8597 112.76 15.8065C112.565 15.5582 112.565 15.3276 112.795 15.1503C113.026 14.973 113.203 14.7601 113.328 14.5296C113.044 14.3345 112.565 14.2281 111.909 14.2104C111.253 14.1749 110.65 14.1749 110.118 14.2104C109.585 14.2281 109.249 14.1394 109.124 13.9443C109 13.7315 108.965 13.5719 108.982 13.4832C109.018 13.3768 109.107 13.3236 109.249 13.3236C109.408 13.3236 109.887 13.3413 110.685 13.3768C111.501 13.4123 112.618 13.501 114.019 13.6074ZM114.037 20.79C114.409 20.8077 114.64 20.8964 114.729 21.0737C114.8 21.2688 114.658 21.4639 114.321 21.6945C111.731 21.9605 109.976 21.3398 109.036 19.8146C108.61 19.318 108.468 18.7859 108.592 18.2184C108.752 18.0233 108.894 18.0056 109.018 18.1652C109.142 18.3426 109.284 18.6263 109.426 19.0165C109.585 19.4067 109.993 19.921 110.685 20.5772C111.749 20.9673 112.866 21.056 114.037 20.79Z" fill="black"/>
<path d="M21.7197 45.0882C21.8793 44.9464 22.039 44.9109 22.234 44.9641C22.4291 45.035 22.6774 45.2833 22.9612 45.7267C23.2449 46.1701 23.5464 46.507 23.8656 46.7198C24.1849 46.9327 24.2913 47.0923 24.2026 47.2164C24.1139 47.3228 23.9366 47.3583 23.706 47.3051C22.6774 46.9327 22.0212 46.1878 21.7197 45.0882ZM19.7334 47.0745C19.6093 46.8262 19.5738 46.6489 19.627 46.578C19.6979 46.4893 19.8221 46.4538 20.0172 46.4361C20.2123 46.4361 20.4251 46.5957 20.6202 46.9504C20.8152 47.2874 21.1522 47.5888 21.5956 47.8726C22.0035 48.05 22.0922 48.2982 21.8793 48.6175C21.3828 48.6352 20.9571 48.4756 20.6202 48.1564C20.2655 47.8194 19.964 47.4647 19.7334 47.0745ZM14.5903 54.8247C14.5548 51.7565 14.7677 48.7416 15.2288 45.7799C15.3706 45.5316 15.548 45.4429 15.7963 45.5316C16.0446 45.6203 16.151 45.8508 16.151 46.241C15.6899 49.2737 15.4948 52.3241 15.5835 55.4454C15.6721 55.9952 15.8495 56.3676 16.1155 56.5627C16.3815 56.74 16.7185 56.8819 17.1264 56.9706C17.5343 57.0593 18.1018 56.8287 18.8467 56.2789C19.5915 55.7292 20.3896 55.268 21.2409 54.8779C21.436 55.0375 21.5246 55.2148 21.5069 55.4454C21.4892 55.6582 21.3828 55.8533 21.1699 56.0484C20.3719 56.3321 19.627 56.74 18.9531 57.2898C18.2614 57.8219 17.5166 57.9815 16.683 57.7687C15.9914 57.5736 15.4948 57.2544 15.1933 56.8464C14.8918 56.4208 14.6967 55.7469 14.5903 54.8247ZM35.2692 57.4672C35.216 56.9706 35.3578 56.5804 35.6948 56.3144C36.0495 56.0484 36.3155 55.7646 36.5283 55.4454C37.6988 54.0443 38.4082 52.5014 38.6565 50.7811C38.6565 50.586 38.6033 50.4442 38.4969 50.32C38.3905 50.1959 38.2486 50.0895 38.1067 50.0008C35.8899 49.8412 33.8858 50.4796 32.0769 51.9162C31.7931 52.058 31.5803 52.0048 31.4562 51.7743C31.2966 51.5969 31.2433 51.4373 31.2966 51.26C31.3498 51.0826 31.4739 50.9407 31.6512 50.8521C33.6021 49.5219 35.8012 48.9899 38.2841 49.2382C38.7629 49.3978 39.0999 49.6461 39.295 49.9653C39.8625 51.2422 39.4546 52.8384 38.089 54.7715C37.7343 55.3567 37.3796 55.871 37.0249 56.2967C36.688 56.7223 36.4042 57.0947 36.1914 57.3962C35.9786 57.6977 35.8012 57.8396 35.6593 57.8396C35.5175 57.8396 35.3933 57.7155 35.2692 57.4672ZM52.5075 54.6296L49.7586 52.3595C49.6876 52.1999 49.7231 52.0758 49.8827 51.9871C50.0423 51.8807 50.2197 51.863 50.4147 51.9162C52.472 50.32 54.0327 48.3514 55.1145 45.9927C55.2209 45.8863 55.3805 45.8331 55.5756 45.8331C55.7707 45.8331 55.8593 46.0459 55.8416 46.4893C55.416 47.4115 54.8662 48.3692 54.1568 49.3623C53.2523 50.5328 52.2592 51.5615 51.1773 52.5014C52.5961 53.7251 54.2455 55.002 56.1431 56.3144C56.4091 56.1725 56.6042 56.208 56.7284 56.4208C56.8525 56.6514 56.9234 56.8642 56.9412 57.0593C56.9589 57.2721 56.9057 57.414 56.7816 57.4672C56.6574 57.5381 56.4446 57.4849 56.1254 57.3253C55.7884 57.1479 54.6002 56.2435 52.5075 54.6296ZM71.7675 56.5627C72.2286 56.0661 72.5656 55.6937 72.7429 55.4277C73.878 52.8029 74.3213 50.7102 74.0908 49.1318C73.8425 47.5711 73.5942 46.7198 73.3105 46.6134C73.0444 46.3829 72.9912 46.1701 73.1863 45.9395C74.144 46.2055 74.7115 46.8617 74.8889 47.9081C75.3322 51.4728 74.4987 54.6828 72.3882 57.5204C72.2109 57.4672 72.0513 57.414 71.8917 57.3608C71.7321 57.3076 71.6966 57.0415 71.7675 56.5627ZM67.4579 45.8863C67.7772 45.8863 68.0609 46.0104 68.2915 46.2942C68.0964 47.1632 67.99 48.245 67.99 49.5042C67.99 50.7634 68.0609 51.8097 68.2028 52.6078H68.4866C69.6039 51.5792 70.4729 50.6747 71.0936 49.8944C71.1823 49.9476 71.3064 50.0185 71.466 50.1072C71.6256 50.1959 71.7675 50.32 71.8739 50.4796C71.8739 50.6392 71.5902 50.9762 71.0227 51.455C70.4551 51.9516 69.6925 52.6788 68.7171 53.6187C68.2915 53.7606 67.9191 53.7251 67.5644 53.4946C67.2451 52.9802 67.121 52.4305 67.1919 51.863C67.2451 51.2954 67.2451 50.7457 67.1919 50.2313C67.1919 48.4224 67.2806 46.9681 67.4579 45.8863ZM86.2214 51.4196C86.2214 50.9939 86.3101 50.7811 86.4697 50.7811C86.6293 50.7811 86.7712 50.8166 86.8954 50.923C87.0018 51.0117 87.0727 51.26 87.1082 51.6856C88.6689 51.1181 89.9458 50.7634 90.9744 50.586C91.2404 50.6038 91.4532 50.8521 91.6128 51.3132C91.6838 52.2709 91.5951 53.1576 91.3113 53.9557C91.5596 54.0089 91.7015 54.1507 91.7015 54.3636C91.7015 54.5764 91.6128 54.736 91.4 54.8069C90.0522 54.7892 88.6689 55.0552 87.2678 55.6227C86.8244 55.6937 86.5407 55.4631 86.452 54.9488C86.3811 53.8493 86.3101 52.6788 86.2214 51.4196ZM87.2501 52.2709C87.1437 53.2108 87.1791 53.9734 87.3565 54.5587C88.8107 54.2926 89.8748 54.0798 90.5665 53.8847C90.7438 53.2285 90.8148 52.4659 90.8148 51.5615C90.0167 51.7211 89.3073 51.9162 88.6689 52.1644C88.0127 52.395 87.5516 52.4305 87.2501 52.2709ZM86.2746 49.5752C85.7781 49.7348 85.4234 49.7525 85.2283 49.6284C85.0332 49.5219 85.0332 49.3446 85.2283 49.0963C85.4234 48.848 86.186 48.6175 87.4984 48.4047C88.8107 48.1918 90.8148 47.8549 93.5105 47.3938C94.2908 47.2341 94.681 47.376 94.6632 47.8371C94.7519 50.657 94.7696 52.9093 94.7342 54.6119C94.6987 56.3144 94.6632 57.414 94.6632 57.9105C94.6632 58.4071 94.5214 58.7086 94.2199 58.7796C93.9184 58.8682 93.5814 58.7796 93.1735 58.5135C92.7833 58.2475 92.6592 58.017 92.7833 57.8219C92.9252 57.6268 93.2267 57.68 93.6878 57.9637C93.7942 56.1903 93.8474 54.4168 93.8652 52.6256C93.9006 50.8521 93.8297 49.3978 93.6878 48.2805C90.9744 48.6707 88.5092 49.0963 86.2746 49.5752ZM83.3129 49.4333C83.0824 49.1495 82.9582 48.9367 82.9228 48.7771C82.905 48.5997 82.976 48.5111 83.1356 48.4756C83.2775 48.4579 83.4548 48.4933 83.6499 48.582C83.845 48.6884 84.0046 48.8835 84.1287 49.1673C84.2706 49.451 84.3238 50.2136 84.3061 51.455C84.3061 52.7142 84.3061 53.8847 84.3061 54.9666C84.3061 56.0484 84.3238 56.8287 84.3238 57.3076C84.3238 57.7864 84.2706 58.0524 84.1287 58.1056C84.0046 58.1766 83.8627 58.1766 83.7031 58.0879C83.5435 57.9992 83.4548 57.8573 83.4193 57.6623C83.3839 57.4494 83.3661 56.7578 83.4016 55.605C83.4193 54.4345 83.4193 53.2285 83.4016 51.9516C83.3839 50.6924 83.3484 49.8412 83.3129 49.4333ZM88.4738 44.503C88.5624 44.5384 88.6334 44.5562 88.6689 44.6094C88.6866 44.6449 88.7043 44.6981 88.7043 44.7513C88.7043 44.8045 88.6156 44.9641 88.4206 45.2124C88.2432 45.4784 88.0836 45.6735 87.9949 45.8154C87.8885 45.9395 87.7644 46.1169 87.6048 46.2942C87.4451 46.4716 87.0905 46.8085 86.5407 47.3051C85.9909 47.7839 85.6539 48.1032 85.5298 48.2805C85.4056 48.4579 85.2992 48.5288 85.1928 48.4756C85.0864 48.4401 84.98 48.4224 84.8913 48.4224C84.8027 48.4047 84.7494 48.3869 84.7317 48.3514C84.714 48.316 84.6785 48.2628 84.6608 48.2096C84.643 48.1386 84.8736 47.8549 85.3879 47.3406C85.9022 46.8262 86.3456 46.3651 86.6825 45.975C87.0372 45.5671 87.2855 45.2656 87.4629 45.035C87.6225 44.8045 87.7644 44.6626 87.9063 44.6094C88.0304 44.5384 88.1368 44.503 88.2255 44.4852C88.2964 44.4852 88.3851 44.4852 88.4738 44.503ZM103.336 51.3664C103.087 51.3132 102.928 51.2422 102.839 51.1358C102.75 51.0471 102.75 50.8875 102.839 50.7102C102.928 50.5328 103.123 50.4087 103.46 50.3378C103.797 50.2668 104.293 50.1249 104.949 49.8944C105.606 49.6461 106.475 49.3623 107.539 49.0431C107.415 48.5288 107.202 48.0854 106.9 47.7307C105.765 47.9968 104.683 48.1564 103.619 48.2273C103.318 48.1032 103.123 47.9258 102.999 47.6953C103.052 47.4824 103.194 47.376 103.424 47.3583C104.293 47.3938 105.269 47.2874 106.351 47.0036C106.084 46.5248 105.836 46.1878 105.588 46.0104C105.322 45.8508 105.34 45.6203 105.641 45.3188C105.925 45.4075 106.191 45.6025 106.404 45.8863C106.617 46.1878 106.865 46.4893 107.149 46.7908C108.177 46.4183 109.117 46.1523 109.968 45.975C110.341 45.975 110.554 46.0636 110.589 46.2587C110.625 46.4361 110.607 46.5602 110.536 46.6134C110.465 46.6666 110.181 46.7553 109.702 46.8617C109.224 46.9681 108.532 47.1277 107.645 47.376L108.426 48.7239C108.993 48.6175 109.525 48.4933 110.004 48.3514C110.483 48.1918 110.784 48.2805 110.891 48.5997C110.891 48.8303 110.784 48.9722 110.571 49.0254C110.359 49.0963 110.11 49.1673 109.791 49.2559C109.49 49.3446 109.117 49.4687 108.656 49.6284C109.046 50.5506 109.33 51.2245 109.507 51.6501C109.685 52.0935 109.738 52.5014 109.685 52.8738C109.614 53.264 109.49 53.53 109.295 53.6719C109.099 53.8138 108.709 53.9202 108.089 53.9557C107.787 53.8847 107.61 53.7961 107.539 53.6542C107.468 53.5123 107.432 53.4059 107.432 53.2995C107.432 53.2108 107.61 53.1399 107.982 53.1044C108.337 53.0512 108.603 52.9448 108.727 52.7674C108.798 52.4305 108.727 52.0226 108.55 51.5083C108.355 50.9939 108.142 50.4619 107.893 49.9121C106.297 50.3555 104.772 50.8521 103.336 51.3664ZM104.346 57.5913C103.389 56.7755 103.034 55.8001 103.336 54.6473C103.371 54.0621 103.531 53.6719 103.797 53.4946C104.063 53.2995 104.276 53.2463 104.435 53.3172C104.595 53.3882 104.63 53.53 104.542 53.7074C103.868 54.8424 103.868 55.9774 104.559 57.0947C105.34 57.3962 106.12 57.3962 106.883 57.1125C107.113 57.0947 107.22 57.1479 107.202 57.3076C107.184 57.4494 107.131 57.5558 107.06 57.6268C106.989 57.6977 106.687 57.8041 106.173 57.9105C105.659 58.017 105.056 57.9105 104.346 57.5913ZM128.359 56.1548C128.182 56.74 127.987 57.1479 127.792 57.3962C127.579 57.6445 127.579 57.8041 127.774 57.8573C127.969 57.9283 128.076 58.0347 128.129 58.1943C128.164 58.3539 128.023 58.4249 127.721 58.3894C127.42 58.3539 127.065 58.3362 126.657 58.3362C126.249 58.3184 125.664 58.3539 124.883 58.4426C124.103 58.5313 123.607 58.6022 123.394 58.6909C123.163 58.7618 122.986 58.8682 122.826 58.9924C122.684 59.1165 122.542 59.0988 122.418 58.9392C122.294 58.7796 122.188 58.7441 122.117 58.8505C122.046 58.9569 121.869 58.8682 121.585 58.5845C121.319 58.3184 121.088 57.6977 120.911 56.7578C120.733 55.8001 120.609 55.0552 120.521 54.4877C120.45 53.9202 120.45 53.53 120.521 53.3349C120.592 53.1399 120.645 53.0157 120.698 52.9448C120.733 52.8916 120.822 52.9093 120.964 52.998C121.106 53.0867 121.195 53.1753 121.23 53.2463C121.283 53.2995 121.372 53.53 121.478 53.9379C123.199 53.53 125.238 53.1221 127.615 52.7142C127.952 52.7497 128.253 52.9093 128.519 53.2463C128.696 54.0089 128.643 54.9843 128.359 56.1548ZM127.721 53.7428C127.118 53.7074 126.285 53.7961 125.22 54.0089C124.139 54.204 123.323 54.399 122.738 54.5587C122.152 54.736 121.762 54.7005 121.585 54.4877C121.709 55.8888 121.833 56.811 121.957 57.2544C122.099 57.7155 122.223 57.9815 122.347 58.1056C123.287 57.7509 124.795 57.5381 126.887 57.4849C127.1 57.0415 127.313 56.5627 127.508 56.0306C127.721 55.5163 127.792 54.7537 127.721 53.7428ZM121.159 51.3309C121.124 51.26 121.088 51.189 121.07 51.1358C121.035 51.0826 121.035 51.0294 121.035 50.9939C121.053 50.9585 121.053 50.923 121.07 50.8698C121.088 50.8343 121.195 50.7634 121.372 50.6747C121.567 50.5683 122.418 50.391 123.961 50.1604C125.486 49.9121 126.373 49.788 126.604 49.7702C126.817 49.7702 127.012 49.7525 127.171 49.7702C127.349 49.7702 127.473 49.8057 127.579 49.8766C127.703 49.9476 127.703 50.0717 127.615 50.2313C127.526 50.4087 127.349 50.4974 127.1 50.5328C126.87 50.5683 125.912 50.7457 124.245 51.0471C122.578 51.3486 121.709 51.4905 121.62 51.4728C121.549 51.455 121.39 51.4196 121.159 51.3309ZM117.151 52.1112C119.882 49.4155 122.241 46.844 124.263 44.3966C124.422 44.237 124.617 44.237 124.813 44.3966C125.008 44.5562 125.079 44.6981 125.043 44.8045C125.008 44.9286 124.954 45.0528 124.866 45.1769C125.22 45.5671 125.877 46.1523 126.781 46.9327C127.703 47.713 128.821 48.6175 130.133 49.6461C131.463 50.6747 132.137 51.2245 132.172 51.3132C132.208 51.4018 132.155 51.5083 132.031 51.6679C131.906 51.8275 131.782 51.8984 131.623 51.863C131.481 51.8452 131.392 51.7743 131.392 51.6324C128.484 49.3446 126.072 47.4115 124.139 45.8686C123.199 46.9504 122.259 47.9968 121.283 48.9722C120.326 49.9653 119.457 50.8521 118.712 51.6679C117.967 52.4837 117.47 52.8561 117.222 52.7852C116.974 52.6965 116.938 52.4837 117.151 52.1112ZM137.227 57.7155C138.38 54.9843 139.887 52.2354 141.749 49.4865C140.845 49.8234 140.189 50.0717 139.763 50.2313C139.355 50.391 139.089 50.5151 138.965 50.6215C138.859 50.7102 138.717 50.7634 138.557 50.7634C138.291 50.6392 138.114 50.5151 138.043 50.391C137.972 50.2668 137.972 50.1604 138.043 50.0895C139.462 49.4687 141.04 48.8658 142.76 48.2805C142.867 48.2805 142.973 48.3514 143.079 48.4579C143.204 48.582 143.292 48.7239 143.363 48.8835C143.044 49.3269 142.707 49.7702 142.37 50.2491C141.466 51.5083 140.597 52.8561 139.763 54.3104C140.206 54.1507 140.632 53.9557 141.058 53.7074C141.466 53.4591 141.891 53.4414 142.335 53.6364C142.742 53.7606 142.92 54.2394 142.902 55.073C142.884 55.8888 142.991 56.6159 143.257 57.2544C144.392 56.7932 145.527 56.2435 146.662 55.6227C146.821 55.5873 146.963 55.605 147.088 55.7114C147.229 55.8178 147.283 55.9242 147.265 56.0484C147.265 56.1725 146.963 56.3676 146.378 56.6514C145.793 56.9351 144.835 57.343 143.505 57.9105C142.813 57.7687 142.423 57.2898 142.37 56.4563C142.317 55.6227 142.21 54.8779 142.069 54.2217C141.803 54.1507 141.519 54.2217 141.253 54.399C140.987 54.5941 140.703 54.7892 140.419 54.9843C139.373 55.9952 138.486 57.077 137.794 58.2298C137.617 58.2298 137.475 58.1766 137.387 58.0524C137.28 57.946 137.227 57.8219 137.227 57.7155ZM142.406 47.5534C141.714 46.8795 140.916 46.3651 140.011 45.9927C139.852 45.904 139.763 45.7976 139.763 45.6735C139.763 45.5493 139.834 45.4607 139.976 45.4075C140.1 45.3365 140.277 45.372 140.508 45.5316C140.738 45.6735 140.987 45.7976 141.253 45.9218C141.501 46.0636 141.785 46.2233 142.069 46.4361C142.37 46.6489 142.583 46.8617 142.76 47.0568C142.92 47.2519 142.955 47.3938 142.867 47.4647C142.76 47.5356 142.618 47.5711 142.406 47.5534ZM160.85 53.53C161.453 53.5832 162.144 53.7606 162.907 54.0266C163.244 53.3704 163.421 52.4837 163.457 51.3486C162.269 50.4264 161.045 50.3023 159.821 50.9585C158.136 51.7211 156.824 52.8916 155.919 54.4345C155.76 54.4345 155.583 54.399 155.405 54.3458C155.21 54.2749 155.104 54.1507 155.086 53.9379C155.068 53.7428 155.121 53.5655 155.246 53.4059C155.37 53.2463 155.813 52.6078 156.593 51.4728C157.374 50.3555 158.739 48.4401 160.69 45.7267C159.715 45.8686 158.42 46.0459 156.806 46.2765C156.505 46.0814 156.398 45.8863 156.487 45.709C156.558 45.5139 157.196 45.3365 158.402 45.1769C159.591 45.0173 160.814 44.9109 162.038 44.8931C162.322 44.9109 162.481 45.035 162.517 45.2478C162.552 45.4607 162.446 45.6025 162.215 45.6557L161.807 46.0282C160.335 47.5888 159.183 49.114 158.367 50.6215C160.176 49.4865 161.985 49.4333 163.758 50.4264C164.042 50.657 164.202 51.2422 164.237 52.1822C164.255 53.1044 164.06 53.8493 163.652 54.4345C163.936 54.7005 164.202 54.9311 164.432 55.1262C164.663 55.3213 164.751 55.5163 164.716 55.6937C164.681 55.871 164.592 55.942 164.45 55.9065C164.308 55.8888 164.184 55.8178 164.042 55.7114C163.918 55.605 163.705 55.4454 163.368 55.1971C162.552 56.7578 161.453 57.8751 160.105 58.4958C159.75 58.4958 159.449 58.4603 159.218 58.4071C158.988 58.3539 158.739 58.212 158.491 57.9992C158.225 57.7687 158.154 57.343 158.26 56.74C158.527 55.1262 159.396 54.0621 160.85 53.53ZM159.803 57.7155C161.027 57.0238 161.914 56.0306 162.464 54.736C161.683 54.5232 161.08 54.5232 160.637 54.7183C160.194 54.9133 159.839 55.2503 159.555 55.7114C159.254 56.1903 159.112 56.6159 159.112 57.0061C159.112 57.414 159.2 57.6445 159.342 57.7332C159.502 57.8396 159.662 57.8219 159.803 57.7155Z" fill="black"/>
<path d="M18.8716 88.2386L18.3396 88.6997L18.978 89.8525C19.244 89.1076 19.5455 88.416 19.847 87.813L18.8716 88.2386ZM14.7749 81.4639C14.8103 81.393 14.8635 81.322 14.9167 81.2511C14.9699 81.1802 15.0764 81.1092 15.236 81.0738C15.3956 81.0205 15.9808 80.8964 16.974 80.7013C16.9385 79.1052 16.9385 78.2894 16.974 78.2716C17.0272 78.2539 17.1159 78.2539 17.24 78.2716C17.2755 78.2539 17.3109 78.2539 17.3464 78.2716C17.3819 78.2894 17.4351 78.3426 17.5238 78.449C17.6124 78.5377 17.6834 78.6441 17.7366 78.786C17.8075 78.9278 17.8253 79.1761 17.8253 79.5308C17.8253 79.8678 17.8253 80.2225 17.843 80.5772C18.2864 80.4708 18.7475 80.4176 19.2263 80.4176C19.7052 80.4353 19.9534 80.4708 19.9889 80.5594C20.0244 80.6304 20.0599 80.7013 20.0776 80.7368C20.0953 80.79 20.1131 80.8609 20.0953 80.9496C20.0776 81.0383 19.3505 81.2334 17.8785 81.4994V83.3083C18.4992 83.2729 19.1554 83.2019 19.8825 83.1133C20.6096 83.0069 21.2658 82.9004 21.8156 82.794C21.5851 81.5703 21.39 80.5594 21.2304 79.7259C21.053 78.9101 20.9466 78.4135 20.9111 78.2362C20.8934 78.0588 20.8934 77.9347 20.9289 77.8815C20.9821 77.8105 20.9998 77.7751 21.0175 77.7751C21.0353 77.7751 21.0707 77.7751 21.1062 77.7928C21.3368 77.9347 21.4964 78.0411 21.6028 78.1298C21.6915 78.2184 21.7624 78.3248 21.8156 78.4667C21.8511 78.5909 21.922 78.9278 22.0107 79.4599C22.0816 79.9742 22.188 80.5772 22.3299 81.2334C22.4718 81.8896 22.5605 82.3684 22.6314 82.6699C23.66 82.4748 24.3517 82.3329 24.7419 82.2443C25.132 82.1556 25.469 82.1024 25.7173 82.1024C25.9833 82.0846 26.1784 82.0846 26.2848 82.1201C26.3912 82.1378 26.4799 82.2088 26.5153 82.3152C26.5508 82.4216 26.5863 82.4925 26.604 82.5457C26.6395 82.599 26.6395 82.6344 26.6572 82.6699C26.6572 82.7054 26.6395 82.7408 26.5863 82.7586C26.5331 82.794 26.3025 82.8472 25.8946 82.9359C25.4867 83.0246 24.4581 83.2019 22.8265 83.5034C22.9506 83.9291 23.1103 84.5321 23.3408 85.3301C23.5536 86.1105 23.8729 86.944 24.2985 87.7953C24.529 87.4051 24.8305 86.9617 25.2384 86.4474C25.6286 85.9331 25.8414 85.6848 25.8592 85.6671C25.8769 85.6671 25.9478 85.738 26.0897 85.8976C26.1074 85.9686 26.1429 86.075 26.1606 86.1991C26.1961 86.3233 26.1961 86.4652 26.1606 86.607C26.1252 86.7312 26.0542 86.8553 25.9656 86.944C25.8769 87.0327 25.7705 87.1568 25.6641 87.3164C25.5577 87.476 25.1852 87.9194 24.5468 88.6465C24.7064 89.1076 24.9192 89.5688 25.1852 90.0299C25.4513 90.5087 25.7173 90.9166 25.9656 91.2713C26.2139 91.626 26.4444 91.963 26.6395 92.2467C26.8523 92.5482 27.0297 92.6724 27.1715 92.6014C27.2957 92.5305 27.4198 92.4063 27.5262 92.2113C27.6149 92.0339 27.7036 92.1935 27.7923 92.7078C27.8809 93.2221 27.8277 93.5236 27.6326 93.63C27.4376 93.7364 27.2247 93.7364 27.0119 93.6478C26.7991 93.5414 26.5153 93.2931 26.1429 92.8852C25.7882 92.4595 25.5045 92.1048 25.3094 91.8033C25.1143 91.5019 24.9015 91.1472 24.6887 90.7215C24.4758 90.3136 24.2275 89.8702 23.9615 89.3737C23.3408 89.9767 22.8088 90.5087 22.3477 90.9343C21.8688 91.36 21.5851 91.5728 21.4786 91.5905C21.3722 91.6083 21.1239 91.626 20.7338 91.626C21.2658 91.963 21.7269 92.1935 22.0816 92.2999C22.2767 92.3177 22.4363 92.4418 22.5605 92.6546C22.4363 92.7965 22.259 92.8674 21.993 92.8852C21.7269 92.9029 21.4254 92.7965 21.0885 92.6014C20.7515 92.4063 20.45 92.2113 20.1663 91.9984C19.8825 91.8033 19.5278 91.4309 19.0667 90.9166C18.4637 91.8743 17.7366 92.6192 16.8853 93.1867C16.2114 93.2753 15.8744 92.832 15.9099 91.8388C15.8922 90.9521 15.9099 90.2249 15.9631 89.6574C15.2537 90.4023 14.7749 90.9166 14.5266 91.2004C14.2606 91.4841 14.0477 91.6437 13.8526 91.7147C13.6576 91.7679 13.5157 91.7856 13.427 91.7679C13.3206 91.7324 13.2674 91.6437 13.2851 91.4841C13.2851 91.3422 13.3561 91.1826 13.4625 91.023C13.5866 90.8457 13.7462 90.6861 13.9768 90.5087C14.8458 89.551 15.4665 88.6997 15.8567 87.9904C15.9454 87.7243 16.0163 87.4583 16.0518 87.21C14.9522 87.4938 14.3847 87.6179 14.296 87.6002C14.2251 87.5825 14.1364 87.5647 14.0477 87.5292C13.9591 87.5115 13.9059 87.4228 13.8704 87.2632C13.8349 87.1036 13.8881 86.9617 14.03 86.8376C15.4133 86.4119 16.4597 86.0927 17.1691 85.8799C17.0627 85.3833 17.0272 84.9045 17.0627 84.4079C16.3887 84.5321 15.8035 84.6385 15.3424 84.7271C14.8635 84.8158 14.4911 84.8867 14.2251 84.9045C13.9591 84.9222 13.7817 84.9222 13.7108 84.9045C13.6221 84.8867 13.5512 84.8513 13.498 84.8335C13.4447 84.8158 13.3915 84.7803 13.3738 84.7626C13.3561 84.7271 13.3383 84.7094 13.3383 84.7271C13.3383 84.7094 13.3561 84.6739 13.3561 84.6207C13.3738 84.5853 13.4093 84.5321 13.4625 84.4788C13.5157 84.4256 13.6221 84.3724 13.7462 84.337C13.8881 84.2838 14.03 84.2306 14.1896 84.1596C14.3315 84.1064 15.2892 83.8936 17.0272 83.5389C17.0627 83.1133 17.0804 82.4571 17.0449 81.5349C16.8144 81.6058 16.4597 81.6767 15.9631 81.7654C15.4665 81.8364 15.1828 81.8718 15.0941 81.8364C15.0232 81.7831 14.9522 81.7299 14.899 81.659C14.8458 81.5881 14.8103 81.5171 14.7749 81.4639ZM23.66 78.3603C23.7842 78.3603 24.1389 78.6795 24.7419 79.318C25.3448 79.9742 25.6641 80.3821 25.7173 80.5417C25.7882 80.7013 25.8237 80.8255 25.8237 80.8964C25.8414 80.9851 25.8414 81.0205 25.8414 81.0383C25.8237 81.0383 25.806 81.0383 25.735 81.056C25.6818 81.056 25.5931 81.0383 25.4867 81.0028C25.3803 80.9496 25.2384 80.8964 25.0788 80.8077C24.9192 80.7191 24.7596 80.5949 24.5822 80.453C24.4049 80.2934 24.2275 80.1161 24.0147 79.921C23.8019 79.7259 23.66 79.5486 23.5714 79.4244C23.5004 79.2825 23.4472 79.1407 23.4295 78.9988C23.394 78.8569 23.4117 78.7328 23.4649 78.6086C23.5182 78.5022 23.5891 78.4135 23.66 78.3603ZM17.7721 84.5675C17.9317 84.7803 17.9671 85.1705 17.843 85.738C18.0913 85.6848 18.3573 85.6493 18.6411 85.5961C18.9248 85.5607 19.3505 85.472 19.9002 85.3479C20.45 85.2237 20.7692 85.206 20.8402 85.3124C20.9289 85.4011 20.9643 85.5252 20.9643 85.6316C20.9643 85.7558 20.9111 85.8622 20.8402 85.9331C20.7515 86.0218 20.3081 86.1459 19.5101 86.2878C18.712 86.4474 18.1445 86.5893 17.8253 86.6957C17.4883 86.8021 17.24 86.8731 17.0627 86.9263C17.0272 87.0859 16.974 87.2632 16.9208 87.4938C16.8853 87.7243 16.8321 87.9904 16.7966 88.2564C16.7612 88.5224 16.7257 88.9658 16.7257 89.5688C16.708 90.154 16.6902 91.1117 16.6902 92.4063C17.2577 91.9275 17.6656 91.5196 17.9139 91.1649C18.1622 90.8279 18.3396 90.5619 18.4637 90.3491C18.2332 89.9944 18.0381 89.6929 17.8607 89.4446C17.6834 89.1786 17.5238 88.9303 17.4174 88.6643C17.3109 88.416 17.4528 88.15 17.843 87.8839C18.2332 87.6002 18.5879 87.3874 18.9248 87.2455C19.244 87.0859 19.5455 87.0327 19.8116 87.0859C20.2372 87.1568 20.4323 87.3342 20.4323 87.6357C20.3259 88.416 20.0244 89.2673 19.5455 90.2072C19.7584 90.4555 20.1308 90.8989 20.6628 91.5196C20.7338 91.3954 20.787 91.3245 20.8402 91.2713C20.8934 91.2358 21.053 91.094 21.2836 90.8811C21.5141 90.6506 21.7269 90.4732 21.9043 90.3136C22.0639 90.154 22.259 89.9412 22.4895 89.6752C22.7023 89.4091 23.0748 89.0544 23.5714 88.6111C23.3408 88.0436 23.0925 87.2987 22.8088 86.3587C22.525 85.4188 22.259 84.4966 22.0107 83.5744C20.2372 83.8759 18.7475 84.1242 17.577 84.337L17.7721 84.5675ZM30.7008 84.6739C30.7008 84.603 30.7362 84.5143 30.7894 84.4256C30.8604 84.337 31.2328 84.2306 31.9422 84.0709C32.6339 83.9291 33.361 83.7872 34.1059 83.6453C34.8507 83.4857 35.6311 83.3616 36.4469 83.2729C37.2627 83.1665 38.0253 83.0778 38.7347 82.9891C39.4441 82.9004 40.3308 82.794 41.3772 82.6344C42.4413 82.4925 43.1861 82.4393 43.6472 82.4571C44.0906 82.4748 44.4098 82.4925 44.5517 82.528C44.6936 82.5635 44.8177 82.599 44.9064 82.6522C44.9773 82.7054 45.0483 82.7586 45.0838 82.8118C45.1192 82.865 45.137 82.9182 45.137 82.9714C45.137 83.0423 45.1192 83.0778 45.066 83.0955C45.0306 83.131 44.9419 83.1487 44.8355 83.1487C44.7113 83.1665 44.5872 83.1665 44.4453 83.1665C44.3034 83.1487 43.3635 83.2551 41.6255 83.4325C39.8874 83.6276 38.3622 83.8227 37.0321 84.0177C35.702 84.2128 34.496 84.3902 33.3965 84.5321C32.2792 84.6917 31.6407 84.7803 31.4456 84.8158C31.2506 84.8513 31.1087 84.869 30.9845 84.8513C30.8781 84.8513 30.7894 84.8335 30.754 84.8158C30.7008 84.7981 30.683 84.7449 30.7008 84.6739ZM34.0704 91.5373C34.0349 91.5373 33.9995 91.5196 33.9817 91.4664C33.9817 91.4309 33.9817 91.3777 34.0349 91.3245C34.0704 91.2536 34.1413 91.2004 34.2123 91.1472C34.301 91.1117 34.4606 91.0407 34.6911 90.9343C34.9217 90.8279 35.8262 90.6328 37.4223 90.3314C37.4223 90.1008 37.4223 89.7816 37.4223 89.4091C36.8902 89.551 36.3582 89.6929 35.8616 89.8525C35.702 89.9057 35.4537 89.7816 35.099 89.4623C34.7443 89.1254 34.4251 88.6288 34.1413 87.9371C33.8576 87.2455 33.5916 86.6425 33.3433 86.1459C33.0772 85.6316 33.1127 85.3833 33.4674 85.3833C33.8044 85.3833 33.9995 85.5607 34.0349 85.8976C34.567 87.0149 34.9571 87.7598 35.1877 88.1145C35.4183 88.4692 35.6133 88.7175 35.7729 88.8771C35.9326 89.0367 36.1808 89.0367 36.5355 88.8948C36.8902 88.753 37.1917 88.6288 37.4223 88.5224L37.44 87.5292C36.305 87.8662 35.6843 87.9726 35.5779 87.8307C35.4715 87.6889 35.4005 87.547 35.365 87.4051C35.3296 87.281 35.4183 87.1923 35.6133 87.1745C35.8084 87.1391 36.1099 87.0681 36.4823 86.9263C36.8725 86.7844 37.1917 86.678 37.4223 86.6248C37.4223 86.2169 37.4046 85.9508 37.3868 85.8267C37.3691 85.7026 37.3336 85.5961 37.2804 85.5075C36.5533 85.5607 35.9503 85.6671 35.4183 85.8799C35.2941 85.9154 35.1345 85.8622 34.9571 85.6848C34.7975 85.5075 34.8507 85.3656 35.1168 85.2237C35.3828 85.0996 36.0212 84.9222 37.0499 84.7094C38.0785 84.4966 39.6569 84.2838 41.7673 84.1064C42.2994 84.1774 42.3881 84.9222 42.0156 86.3587C41.4836 87.6534 41.0225 88.4692 40.65 88.7884C40.2776 89.1254 39.7278 89.1963 39.0007 89.019L38.1849 89.2318L38.2026 90.3314C39.8342 90.1185 40.7742 90.0299 41.0047 90.0476C41.2353 90.0653 41.3949 90.1008 41.4836 90.1717C41.5722 90.2249 41.6077 90.3314 41.6077 90.4732C41.6255 90.6328 41.59 90.7215 41.519 90.7747C41.4304 90.8279 41.3594 90.8634 41.2708 90.8811C41.1821 90.9166 40.9338 90.9343 40.4904 90.9698C40.0648 90.9875 39.7101 91.0053 39.3909 91.023C39.0716 91.023 38.8411 91.0585 38.6637 91.1294C38.5041 91.1826 38.3445 91.2004 38.2026 91.1649C38.2026 91.5373 38.2026 91.963 38.2026 92.4773C39.0716 92.3177 39.7988 92.2467 40.384 92.229C40.9693 92.229 41.4481 92.2113 41.8383 92.1935C42.2107 92.1758 42.5299 92.1758 42.796 92.1935C43.062 92.2113 43.2748 92.2645 43.4521 92.3177C43.6118 92.3709 43.7359 92.4418 43.7891 92.5127C43.8246 92.5659 43.86 92.6369 43.86 92.6724C43.86 92.7078 43.8423 92.7433 43.7891 92.761C43.7359 92.7965 43.594 92.8142 43.328 92.8674C43.062 92.9206 42.6186 92.9561 42.0156 93.0093C41.4304 93.0448 40.8629 93.0803 40.3663 93.098C39.852 93.098 39.4263 93.1512 39.0894 93.2221C38.7701 93.2931 38.4154 93.3285 38.043 93.364C37.6883 93.3995 37.1031 93.4704 36.3227 93.5414C35.5247 93.63 34.8685 93.7364 34.3364 93.8606C33.8221 93.9847 33.4319 94.0557 33.1837 94.0911C32.9531 94.1266 32.7403 94.1444 32.5807 94.1444C32.4211 94.1621 32.2792 94.1266 32.1728 94.0557C32.0486 93.9847 32.0132 93.8961 32.0664 93.7897C32.1196 93.701 32.2082 93.6123 32.3501 93.5591C32.4743 93.4882 32.7225 93.4172 33.0772 93.3285C33.4142 93.2576 33.8931 93.1512 34.5138 92.9916C35.1345 92.8497 36.0922 92.7078 37.4046 92.5482C37.4046 92.4241 37.4046 92.2467 37.3868 91.9984C37.3868 91.7679 37.3868 91.5196 37.3868 91.2713C37.1917 91.3068 36.7484 91.3777 36.0744 91.4487C35.4005 91.5373 34.9749 91.5905 34.8153 91.626C34.6379 91.6437 34.496 91.6615 34.3896 91.6792C34.2655 91.6792 34.1591 91.6437 34.0704 91.5373ZM39.8697 88.1145C40.5259 87.6711 41.0402 86.6248 41.4304 84.9932C40.1357 85.0641 38.9652 85.2592 37.9011 85.5429C37.9898 85.7026 38.043 85.8267 38.0785 85.9331C38.114 86.0218 38.1317 86.1991 38.1494 86.4297C38.7701 86.2523 39.2667 86.2169 39.6214 86.3233C39.9584 86.4297 40.1712 86.5184 40.2599 86.607C40.3308 86.6957 40.2776 86.7666 40.1003 86.8376C39.9229 86.8908 39.2667 87.0681 38.1672 87.3342C38.1672 87.6179 38.1672 87.9726 38.1849 88.3983C39.0539 88.15 39.6214 88.0436 39.8697 88.1145ZM41.519 77.4381C42.0156 77.509 42.0866 78.2007 41.7496 79.5131C41.253 80.7013 40.5259 81.7122 39.5327 82.5103C39.4086 82.5635 39.2845 82.5635 39.1603 82.5103C39.0362 82.4571 39.0716 82.2265 39.2667 81.8186C37.9721 82.1024 36.6597 82.3861 35.3473 82.7054C35.2409 82.8118 35.0103 82.7231 34.6734 82.4039C34.3364 82.1024 34.0527 81.6235 33.8044 80.9851C33.5561 80.3466 33.3078 79.8146 33.0772 79.3535C32.8467 78.8924 32.8822 78.6618 33.1837 78.6618C33.4851 78.6618 33.6625 78.8037 33.698 79.0874C34.1945 80.1515 34.567 80.8432 34.7798 81.1624C35.0103 81.4817 35.1877 81.7122 35.3118 81.8364C35.4537 81.9782 35.7907 81.9605 36.2873 81.7654C36.8016 81.5881 37.44 81.4107 38.2381 81.2688C39.0184 81.1092 39.5327 81.0738 39.7633 81.127C40.3663 80.7191 40.8451 79.7436 41.2176 78.2539C38.4686 78.3071 36.3759 78.6086 34.9394 79.1584C34.8153 79.2293 34.6911 79.2116 34.5492 79.1407C34.3896 79.052 34.4428 78.8924 34.7089 78.6441C34.9571 78.3958 35.6665 78.1652 36.8193 77.9524C37.9898 77.7573 39.5505 77.58 41.519 77.4381ZM37.2272 80.524C35.9503 80.9141 35.2586 81.0383 35.1522 80.8964C35.0281 80.7545 34.9571 80.5949 34.9394 80.3998C34.9039 80.2225 34.9749 80.1338 35.1345 80.1161C35.3118 80.0983 35.702 80.0451 36.3227 79.9387C36.9434 79.85 37.5642 79.7259 38.2026 79.584C38.8233 79.4244 39.2667 79.4067 39.5682 79.4953C39.852 79.584 40.0293 79.6727 40.0825 79.7614C40.1357 79.85 40.0825 79.921 39.9229 79.9565C39.7456 79.9742 38.8588 80.1693 37.2272 80.524ZM51.4151 83.4325C51.0427 83.2729 50.9008 83.0955 51.0072 82.9359C52.0358 82.6876 53.0822 82.3507 54.1285 81.8718C54.1285 81.2511 54.0931 80.453 54.0221 79.4599C54.164 79.2648 54.3236 79.2116 54.5364 79.2825C54.7315 79.3535 54.8557 79.5308 54.9089 79.8146L54.8557 81.659C55.8311 81.2334 56.7888 80.9496 57.7642 80.8077C57.9593 80.8432 58.0302 80.9319 57.9947 81.0915C57.9593 81.2688 57.711 81.4107 57.2321 81.5349C56.771 81.6767 55.9552 81.9605 54.8025 82.4393C54.7138 83.0246 54.6783 84.0355 54.6783 85.4897C55.37 85.135 55.902 84.9045 56.2745 84.7803C56.6646 84.6562 56.8774 84.3902 56.9306 83.9291C57.1257 83.8936 57.3208 83.9291 57.5159 84.0355V84.4079C58.1544 84.4611 58.8105 84.603 59.4845 84.7803C60.1584 84.9577 60.655 85.4188 60.9387 86.1282C61.0983 86.678 61.0983 87.2455 60.9565 87.8485C60.7968 88.4515 60.655 89.0012 60.4776 89.5156C60.318 90.0121 60.0697 90.5619 59.6973 91.1117C59.3249 91.6792 58.9524 92.1048 58.5445 92.3886C58.1721 92.229 58.0834 92.0694 58.2962 91.892C59.3958 90.2959 60.052 88.5756 60.2825 86.7134C60.1939 86.075 59.9278 85.6493 59.4667 85.4188C58.8105 85.1705 58.1721 85.1528 57.5336 85.3124C57.0371 86.4474 56.4163 87.8307 55.6892 89.4801C55.7069 90.0831 55.7779 90.5974 55.9375 91.0407C56.2035 91.0407 56.3277 91.1826 56.2922 91.5019C56.239 91.8211 56.2035 92.0162 56.1326 92.0694C56.0794 92.1226 56.0084 92.1226 55.9375 92.0694C55.5651 91.8743 55.3522 91.6083 55.3168 91.2536C55.2813 90.8989 55.1749 90.5264 54.9975 90.1185C54.2349 90.7925 53.5965 91.1826 53.0822 91.289C52.5856 91.3777 52.1777 91.3777 51.8939 91.2536C51.5925 91.1294 51.3442 90.7215 51.1313 90.0121C50.9363 89.4446 51.0249 88.9303 51.3796 88.4869C51.7521 88.0258 52.16 87.547 52.6388 87.0504C53.0999 86.5538 53.5433 86.1637 53.9335 85.8799C53.898 84.3902 53.9512 83.3261 54.0576 82.7231C53.0999 83.0246 52.2132 83.2551 51.4151 83.4325ZM56.5405 85.7203C55.9375 85.7912 55.4409 85.9863 55.033 86.341C55.033 86.8199 55.1572 87.4051 55.4232 88.1145C55.8843 87.1213 56.2567 86.3233 56.5405 85.7203ZM54.5719 89.0899C54.4478 88.345 54.3236 87.6534 54.1817 87.0327C53.632 87.3696 53.0467 87.813 52.4615 88.345C51.8585 88.8948 51.7698 89.5156 52.16 90.2072C53.2241 90.2782 54.0221 89.9057 54.5719 89.0899ZM74.2399 87.6179C74.8429 87.6711 75.5345 87.8485 76.2971 88.1145C76.6341 87.4583 76.8114 86.5716 76.8469 85.4365C75.6587 84.5143 74.435 84.3902 73.2113 85.0464C71.5264 85.809 70.2141 86.9795 69.3096 88.5224C69.15 88.5224 68.9726 88.4869 68.7953 88.4337C68.6002 88.3628 68.4938 88.2386 68.476 88.0258C68.4583 87.8307 68.5115 87.6534 68.6357 87.4938C68.7598 87.3342 69.2032 86.6957 69.9835 85.5607C70.7638 84.4434 72.1294 82.528 74.0803 79.8146C73.1048 79.9565 71.8102 80.1338 70.1963 80.3644C69.8948 80.1693 69.7884 79.9742 69.8771 79.7968C69.948 79.6018 70.5865 79.4244 71.7925 79.2648C72.9807 79.1052 74.2044 78.9988 75.4281 78.981C75.7119 78.9988 75.8715 79.1229 75.907 79.3357C75.9424 79.5486 75.836 79.6904 75.6055 79.7436L75.1976 80.1161C73.7256 81.6767 72.5728 83.2019 71.757 84.7094C73.566 83.5744 75.3749 83.5212 77.1484 84.5143C77.4322 84.7449 77.5918 85.3301 77.6272 86.2701C77.645 87.1923 77.4499 87.9371 77.042 88.5224C77.3257 88.7884 77.5918 89.019 77.8223 89.2141C78.0529 89.4091 78.1415 89.6042 78.1061 89.7816C78.0706 89.9589 77.9819 90.0299 77.8401 89.9944C77.6982 89.9767 77.574 89.9057 77.4322 89.7993C77.308 89.6929 77.0952 89.5333 76.7582 89.285C75.9424 90.8457 74.8429 91.963 73.495 92.5837C73.1403 92.5837 72.8388 92.5482 72.6083 92.495C72.3777 92.4418 72.1294 92.2999 71.8811 92.0871C71.6151 91.8566 71.5442 91.4309 71.6506 90.8279C71.9166 89.2141 72.7856 88.15 74.2399 87.6179ZM73.1935 91.8033C74.4172 91.1117 75.304 90.1185 75.8538 88.8239C75.0734 88.6111 74.4704 88.6111 74.0271 88.8062C73.5837 89.0012 73.229 89.3382 72.9452 89.7993C72.6437 90.2782 72.5019 90.7038 72.5019 91.094C72.5019 91.5019 72.5905 91.7324 72.7324 91.8211C72.892 91.9275 73.0516 91.9098 73.1935 91.8033ZM97.7031 89.9412C97.9159 90.0831 98.0578 90.2427 98.1287 90.3846C98.1997 90.5442 98.182 90.7038 98.0755 90.8634C97.845 91.023 97.6322 91.0585 97.3839 90.9698C97.1533 90.8811 96.7809 90.8811 96.2489 90.9521C95.7168 91.023 95.0783 91.094 94.3335 91.1649C93.5709 91.2536 92.9856 91.3245 92.5423 91.4132C92.0989 91.4841 91.6378 91.5551 91.1589 91.6615C90.6801 91.7501 90.3609 91.7679 90.2013 91.7147C90.0239 91.6615 89.953 91.5551 89.953 91.3954C89.953 91.2181 89.9884 91.0585 90.0594 90.9343C90.1303 90.7925 91.2476 90.5796 93.4113 90.3314C93.4467 89.3914 93.429 87.7066 93.3403 85.2592C90.8575 85.7026 89.5096 85.8622 89.3145 85.7203C89.1194 85.5961 89.0308 85.4188 89.0308 85.206C89.0308 85.0109 89.1017 84.9045 89.2436 84.9045C89.3677 84.9222 90.7865 84.7094 93.4822 84.2838C93.3403 81.659 93.2694 80.2757 93.2694 80.1338C93.2694 79.9919 93.2694 79.9387 93.2694 79.9387C93.2694 79.9387 93.4467 80.0097 93.8192 80.1161C94.1739 80.2402 94.3867 81.5526 94.4399 84.0532C96.4439 83.6985 97.7918 83.5212 98.5012 83.5034C98.9091 83.7872 99.051 84.0177 98.9446 84.1951C98.8559 84.3724 98.6963 84.4434 98.5012 84.4256C98.3061 84.4256 96.9405 84.6207 94.4399 85.0286C94.4399 86.6425 94.4399 88.3628 94.4399 90.1895C95.6281 89.9944 96.71 89.9235 97.7031 89.9412ZM84.7567 86.341C84.5084 86.7844 84.2778 87.0681 84.065 87.1745C83.8522 87.281 83.6571 87.2278 83.4975 87.0149C84.7921 84.3902 86.1222 81.5171 87.541 78.3781C87.8957 78.1652 88.1972 78.2362 88.4278 78.5731C88.1263 79.318 87.8248 79.9565 87.5233 80.4885C87.2041 81.2511 86.938 82.0492 86.7075 82.865C86.9558 82.9536 87.1509 83.0778 87.2927 83.2197C87.3814 87.3164 87.3992 90.5796 87.3105 93.0625C87.0622 93.3285 86.7784 93.2576 86.4237 92.832L86.4415 92.4063C86.4769 90.0653 86.4592 87.2278 86.3883 83.8581V83.3616C85.803 84.4256 85.2532 85.4188 84.7567 86.341ZM105.737 81.4994L108.326 81.0383C108.309 80.6659 108.291 80.3289 108.291 80.0451C105.276 80.453 103.627 80.6659 103.361 80.6836C103.095 80.7013 102.935 80.6836 102.899 80.6481C102.846 80.5949 102.793 80.524 102.74 80.4176C102.704 80.3466 102.669 80.2757 102.651 80.2225C102.651 80.1515 102.651 80.1161 102.651 80.0806C102.669 80.0629 102.687 80.0451 102.74 80.0274C102.775 80.0097 104.62 79.7436 108.255 79.2471C108.22 78.9101 108.22 78.6441 108.238 78.4135C108.238 78.183 108.255 78.0056 108.255 77.8637C108.273 77.7396 108.273 77.6332 108.291 77.5445C108.309 77.4736 108.344 77.4204 108.362 77.4026C108.397 77.4026 108.468 77.4204 108.557 77.4736C108.628 77.4913 108.699 77.5445 108.805 77.6509C108.912 77.7573 108.982 77.9169 109 78.1298C109.036 78.3426 109.036 78.6441 109.036 79.0342C112.246 78.7328 113.895 78.5731 113.984 78.5731C114.072 78.5731 114.161 78.5909 114.25 78.6263C114.321 78.6618 114.392 78.7328 114.463 78.8037C114.534 78.8924 114.587 78.9633 114.622 79.0342C114.658 79.1229 114.675 79.1761 114.658 79.2293C114.64 79.2648 114.622 79.3003 114.551 79.318C114.498 79.3357 112.671 79.5308 109.089 79.9387L109.142 80.8964C111.146 80.6304 112.281 80.4885 112.529 80.524C112.778 80.5417 112.902 80.7191 112.866 81.056C112.831 81.3752 112.778 81.7122 112.707 82.0669C112.618 82.4039 112.547 82.7586 112.459 83.1133C112.388 83.468 112.086 83.6985 111.59 83.7695C111.093 83.8581 110.65 83.9291 110.224 83.9645C109.816 84.0177 109.479 84.0355 109.249 84.0532C109.249 84.2483 109.249 84.5143 109.249 84.869C109.976 84.7271 110.632 84.6207 111.217 84.5321C111.82 84.4434 112.21 84.3902 112.388 84.3724C112.583 84.337 112.778 84.3192 113.008 84.3192C113.239 84.3015 113.398 84.4079 113.487 84.6562C113.576 84.9045 113.594 85.4188 113.54 86.2169C114.924 86.004 115.651 85.8799 115.739 85.8799C115.828 85.8622 115.917 85.8799 116.023 85.8976C116.112 85.9331 116.201 86.004 116.254 86.0927C116.325 86.1814 116.378 86.2701 116.396 86.341C116.431 86.4297 116.431 86.5006 116.396 86.5361C116.378 86.5716 116.325 86.607 116.254 86.6248C116.201 86.6248 115.243 86.7844 113.416 87.1036C113.398 87.4406 113.381 87.7598 113.363 88.0258C113.345 88.2918 113.345 88.5224 113.363 88.7175C113.381 88.9303 113.363 89.0544 113.328 89.0899C113.292 89.1431 113.257 89.1786 113.239 89.1963C113.203 89.2141 113.15 89.2141 113.062 89.2141C113.062 89.3027 113.062 89.3737 113.026 89.4091C113.008 89.4446 112.955 89.4623 112.849 89.4978C112.76 89.5333 112.494 89.551 112.086 89.5865C111.66 89.6042 111.253 89.6397 110.862 89.6929C110.472 89.7461 109.922 89.8348 109.213 89.9589C109.195 90.1717 109.195 90.5796 109.213 91.1826C109.249 91.8033 109.249 92.3177 109.249 92.761C109.249 93.1867 109.231 93.4882 109.213 93.6655C109.178 93.8606 109.124 93.967 109.089 94.0379C109.053 94.1089 109 94.1444 108.929 94.1621C108.876 94.1798 108.77 94.1798 108.646 94.1621C108.521 94.1444 108.415 94.1089 108.326 94.0734C108.22 94.0379 108.131 93.967 108.025 93.8961C107.918 93.8251 107.759 93.6655 107.51 93.3995C107.28 93.1512 107.049 92.9206 106.819 92.7078C106.588 92.5127 106.446 92.3531 106.429 92.2467C106.393 92.1403 106.375 92.0694 106.375 92.0162C106.375 91.963 106.393 91.9275 106.411 91.9275C106.446 91.9275 106.517 91.9452 106.641 92.0162C106.766 92.0871 107.333 92.3709 108.344 92.8497C108.468 91.4841 108.468 90.5619 108.38 90.0653C107.954 90.154 107.369 90.2427 106.624 90.3314C105.861 90.42 105.4 90.4732 105.223 90.491C105.063 90.5087 104.939 90.5087 104.868 90.4732C104.797 90.4555 104.691 90.3668 104.567 90.2249C104.531 90.154 104.513 90.1008 104.478 90.0299C104.442 89.9767 104.425 89.9235 104.407 89.888C104.407 89.8348 104.425 89.817 104.442 89.7993C104.46 89.7816 104.655 89.7284 104.992 89.622C105.329 89.5333 106.482 89.3737 108.468 89.1609C108.468 88.8771 108.45 88.4515 108.415 87.9017C104.407 88.4692 102.332 88.7707 102.19 88.7884C102.048 88.7884 101.924 88.7884 101.818 88.753C101.729 88.7175 101.605 88.6288 101.463 88.4869C101.41 88.3273 101.374 88.2209 101.392 88.1854C101.41 88.15 101.445 88.1145 101.498 88.0968C101.552 88.0613 103.857 87.7066 108.433 87.0327C108.433 86.5893 108.433 86.2169 108.433 85.9154C105.79 86.3587 104.442 86.5893 104.371 86.5893C104.3 86.5893 104.23 86.5538 104.176 86.5006C104.105 86.4297 103.999 86.341 103.839 86.1991C103.768 86.0573 103.751 85.9686 103.768 85.9331C103.786 85.8976 103.839 85.8622 103.91 85.8267C103.981 85.7912 104.637 85.6671 105.861 85.472C107.067 85.2769 107.901 85.1528 108.362 85.0818L108.344 84.1419C107.83 84.1774 107.191 84.3015 106.429 84.4611C105.666 84.6207 105.24 84.6385 105.116 84.4966C105.01 84.3547 104.939 84.1419 104.939 83.8581C104.797 83.2729 104.726 82.8118 104.691 82.4748C104.655 82.1201 104.708 81.8896 104.833 81.7299C104.974 81.5881 105.276 81.4994 105.737 81.4994ZM111.98 81.2866C111.057 81.3575 110.135 81.4994 109.178 81.7122C109.195 82.2443 109.213 82.7408 109.231 83.1842C109.497 83.1487 109.887 83.0955 110.401 83.0246C110.916 82.9714 111.341 82.9182 111.643 82.8827C111.891 82.3329 111.997 81.8009 111.98 81.2866ZM105.524 82.3329L105.631 83.7162C107.138 83.468 108.06 83.3261 108.397 83.2906C108.38 82.7231 108.362 82.2443 108.362 81.8541L105.524 82.3329ZM112.707 85.2237C112.086 85.2592 110.933 85.4188 109.249 85.7558C109.249 86.1459 109.231 86.5361 109.231 86.8731C110.614 86.6957 111.731 86.5361 112.6 86.3587C112.636 86.2701 112.654 86.1282 112.671 85.9331C112.671 85.738 112.689 85.5075 112.707 85.2237ZM112.512 88.5401L112.565 87.2987C111.678 87.4228 110.561 87.6002 109.213 87.7775C109.231 88.1854 109.249 88.5579 109.249 88.8594C110.401 88.7707 111.483 88.6465 112.512 88.5401ZM120.883 93.1335C120.617 93.0803 120.439 92.9206 120.315 92.6369C120.209 92.3709 120.12 92.158 120.049 92.0339C119.925 90.9875 120.28 90.0831 121.078 89.3205C121.202 89.2673 121.361 89.3027 121.574 89.3914C122.337 89.1609 122.993 89.4446 123.49 90.2427C123.72 90.5796 123.862 90.9166 123.915 91.2181C123.951 91.5373 123.933 91.8388 123.827 92.1226C123.099 93.0093 122.106 93.3463 120.883 93.1335ZM121.095 90.7393C120.67 90.9521 120.563 91.5019 120.776 92.4063C121.769 92.5127 122.621 92.2645 123.312 91.6969C122.993 90.7393 122.621 90.2072 122.177 90.0831C121.734 89.9589 121.379 90.1895 121.095 90.7393Z" fill="black"/>
<path d="M22.5887 119.174C22.4646 118.801 22.3759 118.411 22.305 118.057C22.2695 117.773 22.2872 117.595 22.3759 117.542C22.4646 117.489 22.6065 117.489 22.7838 117.578C22.9612 117.649 23.0853 117.861 23.1385 118.198C23.1917 118.535 23.3691 118.908 23.6883 119.333C24.0253 119.741 24.0075 120.061 23.6528 120.291C23.3336 120.273 22.9612 119.883 22.5887 119.174ZM24.6637 116.389C24.8588 116.319 25.0184 116.354 25.178 116.478C25.3554 116.62 25.4795 116.939 25.5682 117.454C25.6569 117.986 25.8165 118.393 26.0293 118.713C26.2421 119.014 26.2776 119.209 26.1357 119.28C25.9938 119.369 25.8519 119.333 25.6923 119.192C24.8588 118.447 24.5218 117.524 24.6637 116.389ZM13.7036 118.89C13.5794 118.961 13.4198 118.943 13.2247 118.855C13.0296 118.784 12.8878 118.66 12.8168 118.5C12.7281 118.358 12.7281 118.216 12.7813 118.11C12.9055 117.95 13.0828 117.879 13.2957 117.897C13.5085 117.932 13.7568 117.915 14.0405 117.861C16.8781 117.081 19.6093 116.159 22.2163 115.095C22.5533 115.095 22.7306 115.201 22.7661 115.414C22.8016 115.627 22.7483 115.822 22.6242 115.964C22.5178 116.106 22.3936 116.212 22.2518 116.283C20.567 117.666 19.4142 119.227 18.7935 120.947C18.1905 122.668 18.0486 123.838 18.4033 124.459C18.7403 125.08 18.9708 125.47 19.0772 125.612C19.1836 125.771 19.3078 125.807 19.4851 125.736C19.6625 125.647 19.8221 125.647 19.9817 125.736C20.1591 125.807 20.0881 126.108 19.8221 126.64C19.3965 126.711 18.8467 126.463 18.1727 125.842C17.4988 125.239 17.3037 123.98 17.5698 122.065C17.7471 120.859 18.1018 119.901 18.6339 119.156C19.1482 118.411 19.5383 117.932 19.7866 117.72C20.0172 117.524 20.1413 117.258 20.1413 116.904C17.9067 117.507 15.7608 118.163 13.7036 118.89ZM36.617 114.332C36.6525 114.066 36.8121 113.942 37.0781 113.977C37.3087 114.084 37.486 114.261 37.6279 114.527C37.2909 115.095 36.883 116.017 36.3865 117.312C36.954 117.595 37.3973 117.844 37.7166 118.003C38.0358 118.181 38.2486 118.358 38.3728 118.535C38.4969 118.73 38.5501 118.908 38.5501 119.067C38.5501 119.209 38.4792 119.316 38.3728 119.369C38.0181 119.085 37.6634 118.837 37.3087 118.642C36.9717 118.429 36.5993 118.252 36.2091 118.074C35.8544 118.908 35.5529 119.777 35.3401 120.699C35.7657 120.894 36.1914 121.036 36.6347 121.125C37.0781 121.231 37.4328 121.32 37.7166 121.426C38.0003 121.533 38.1599 121.639 38.1777 121.763C38.1954 121.887 38.1422 121.976 38.0003 122.029C37.8585 122.082 37.6456 122.1 37.3264 122.065C37.0072 122.011 36.2623 121.834 35.0918 121.497L34.3647 123.412C34.0809 124.565 34.0632 125.434 34.3469 126.019C34.613 126.605 34.9499 126.924 35.3401 126.977C35.748 127.048 36.1559 126.995 36.5815 126.853C37.557 126.374 38.355 125.718 38.9758 124.902C39.0999 124.938 39.1886 125.009 39.2418 125.15C39.295 125.31 39.2595 125.505 39.1531 125.771C38.1067 126.871 37.2377 127.491 36.5638 127.651C35.8899 127.811 35.2869 127.793 34.7549 127.598C34.2228 127.403 33.7972 126.871 33.4425 126.002C33.3006 124.707 33.5311 123.129 34.1164 121.231C33.744 121.16 33.3893 121.036 33.0878 120.876C32.7863 120.717 32.6089 120.539 32.538 120.362C32.4671 120.202 32.4848 120.043 32.5557 119.901C32.8572 119.883 33.4602 120.096 34.3824 120.539C34.7371 119.582 35.0386 118.642 35.3046 117.72C34.8435 117.454 34.3647 117.276 33.8858 117.205C33.407 117.063 33.1587 116.78 33.1232 116.336C33.2474 116.177 33.4602 116.159 33.744 116.265C34.0277 116.372 34.6307 116.585 35.5529 116.904L36.617 114.332ZM50.06 128.591C49.4393 128.29 49.0314 127.988 48.8541 127.669C48.6767 127.367 48.4284 127.101 48.1092 126.906C47.9496 126.693 47.7545 126.445 47.5594 126.179C47.3643 125.931 47.3289 125.612 47.4708 125.239C47.9319 125.47 48.4107 125.824 48.9073 126.321C49.3861 126.818 49.7763 127.261 50.0778 127.651C50.3615 128.041 50.3615 128.36 50.06 128.591ZM67.4757 117.347C67.4757 117.595 67.3693 117.755 67.2097 117.826C67.05 117.915 66.8904 117.897 66.7308 117.808C66.5889 117.72 66.5003 117.613 66.5003 117.524C66.4825 117.436 66.5003 117.258 66.5357 116.975C65.8795 116.496 65.3652 116.106 64.9928 115.822C64.8509 115.627 64.9041 115.503 65.1702 115.432C66.252 115.662 67.0323 116.301 67.4757 117.347ZM65.383 120.823C64.6381 120.575 64.2302 120.327 64.1593 120.096C64.0883 119.848 64.1593 119.688 64.3898 119.635C64.6204 119.564 64.8509 119.653 65.0992 119.901C65.3652 120.131 65.6135 120.256 65.8618 120.256C66.1278 120.256 66.3229 120.327 66.4648 120.433C66.5889 120.539 66.7131 120.699 66.784 120.912C66.6776 121.213 66.1988 121.196 65.383 120.823ZM65.1524 128.059C64.8155 128.201 64.4962 128.094 64.2302 127.704C64.2302 127.35 64.3189 127.03 64.514 126.747C64.709 126.463 64.9928 126.126 65.3298 125.736C65.6845 125.346 66.1456 124.902 66.7131 124.423C66.7663 124.317 66.8372 124.317 66.9436 124.388C67.0678 124.477 67.0678 124.707 66.9614 125.08C66.2697 125.984 65.6667 126.977 65.1524 128.059ZM69.1428 117.56C69.0541 117.383 69.0009 117.294 69.0186 117.258C69.0186 117.223 69.0541 117.205 69.125 117.17C69.196 117.152 70.1182 116.939 71.8917 116.567C71.8917 116.372 71.8917 116.177 71.8739 115.982C71.8739 115.786 71.8207 115.343 71.7498 114.669C71.6788 113.977 71.6434 113.605 71.6788 113.552C71.6966 113.499 71.7321 113.463 71.803 113.445C71.8562 113.428 71.9271 113.445 71.9803 113.481C72.14 113.516 72.2464 113.552 72.335 113.605C72.4237 113.658 72.5124 113.995 72.6011 114.598C72.6897 115.201 72.7429 115.609 72.7607 115.822C72.7784 116.017 72.7961 116.23 72.7961 116.443C73.5942 116.248 74.2504 116.123 74.7824 116.052C75.2968 115.982 75.6337 115.964 75.7401 115.964C75.8643 115.964 75.9707 115.982 76.0594 116.017C76.1303 116.052 76.2012 116.106 76.2544 116.177C76.3076 116.23 76.3431 116.283 76.3609 116.336C76.4141 116.372 76.4495 116.443 76.485 116.514C76.5027 116.585 76.4141 117.063 76.2012 117.986C75.9884 118.908 75.8465 119.475 75.7933 119.67C75.7401 119.883 75.7047 120.185 75.7047 120.557C76.0239 120.504 76.5027 120.451 77.1767 120.398C77.8506 120.344 78.223 120.327 78.294 120.327C78.3649 120.344 78.4358 120.38 78.5068 120.415C78.56 120.468 78.6132 120.522 78.6664 120.593C78.7019 120.664 78.7373 120.734 78.7728 120.805C78.8083 120.894 78.826 120.947 78.826 121.018C78.826 121.089 78.826 121.125 78.8083 121.125C78.8083 121.125 78.7551 121.142 78.6841 121.16C78.5954 121.196 78.1521 121.231 77.354 121.284C76.5737 121.337 75.953 121.408 75.5273 121.462C75.0839 121.533 74.0731 121.692 72.4414 121.958C72.7252 122.153 72.9203 122.331 73.0444 122.49C73.1686 122.65 73.4169 122.898 73.7893 123.235C74.1617 123.59 74.8002 124.14 75.7047 124.867C76.6091 125.612 77.2299 126.108 77.5846 126.374C77.9393 126.64 78.2053 126.853 78.3826 126.995C78.5777 127.137 78.7196 127.261 78.8437 127.35C78.9501 127.438 79.0566 127.562 79.1452 127.687C79.2339 127.828 79.2694 127.917 79.2871 127.953C79.2871 127.97 79.2871 127.988 79.2694 128.006C79.2516 128.006 79.1984 128.006 79.1275 128.006C79.0566 127.988 78.9324 127.97 78.7551 127.935C78.5954 127.882 78.4181 127.828 78.2053 127.757C78.0102 127.687 77.6732 127.491 77.1944 127.19C76.7156 126.888 76.2899 126.587 75.953 126.285C75.616 125.984 75.0662 125.487 74.3213 124.831C73.5765 124.157 73.0976 123.732 72.8848 123.554C72.672 123.359 72.5301 123.182 72.4414 123.005C72.3705 122.845 72.2641 122.614 72.1222 122.348C71.8385 123.306 71.6079 123.98 71.4306 124.406C71.2355 124.814 70.8985 125.399 70.4019 126.144C69.8876 126.871 69.5684 127.332 69.4088 127.491C69.2492 127.669 69.0718 127.793 68.8413 127.899C68.6284 128.006 68.4334 128.094 68.256 128.183C68.0787 128.272 67.9723 128.325 67.9013 128.36C67.8304 128.378 67.7594 128.378 67.6885 128.36C67.6353 128.325 67.5998 128.307 67.5821 128.307C67.5644 128.29 67.5466 128.272 67.5466 128.254C67.5289 128.219 67.5466 128.183 67.5821 128.112C67.5998 128.059 67.6708 127.917 67.7772 127.722C67.8836 127.527 68.2738 127.084 68.9654 126.356C69.6571 125.647 70.2069 124.867 70.5793 124.033C70.9695 123.217 71.2 122.579 71.2887 122.171C69.6571 122.419 68.7703 122.561 68.6284 122.597C68.4688 122.614 68.3624 122.632 68.3092 122.614C68.2383 122.597 68.1496 122.508 68.0255 122.366C67.99 122.331 67.9545 122.277 67.9368 122.242C67.9013 122.189 67.8836 122.153 67.8836 122.118C67.8836 122.082 67.8836 122.029 67.9191 121.976C67.9368 121.923 68.0964 121.87 68.3802 121.799C68.6639 121.745 69.6925 121.55 71.4483 121.231C71.537 120.61 71.6434 120.007 71.7498 119.44C71.8739 118.872 71.9271 118.482 71.8917 118.269C71.8739 118.057 71.8739 117.773 71.8917 117.365C71.0936 117.542 70.5261 117.684 70.2069 117.773C69.8699 117.861 69.6571 117.897 69.5861 117.897C69.5152 117.879 69.462 117.861 69.4088 117.826C69.3556 117.79 69.3024 117.737 69.2314 117.666C69.1782 117.595 69.1428 117.56 69.1428 117.56ZM75.5805 116.691C74.9598 116.797 74.4278 116.904 73.9844 116.992C73.541 117.099 73.1508 117.17 72.8139 117.205C72.7961 117.471 72.7784 117.773 72.7784 118.11C72.7607 118.447 72.7075 118.837 72.6188 119.262C72.5301 119.688 72.4237 120.273 72.2996 121.018L74.9066 120.646C74.8889 120.398 74.8889 120.185 74.9066 119.99C74.9066 119.795 74.9953 119.28 75.1904 118.447C75.3854 117.631 75.5096 117.046 75.5805 116.691ZM85.5298 124.033C85.4943 120.965 85.7071 117.95 86.1682 114.988C86.3101 114.74 86.4875 114.651 86.7358 114.74C86.984 114.829 87.0905 115.059 87.0905 115.449C86.6293 118.482 86.4343 121.533 86.5229 124.654C86.6116 125.204 86.789 125.576 87.055 125.771C87.321 125.949 87.658 126.09 88.0659 126.179C88.4738 126.268 89.0413 126.037 89.7862 125.487C90.531 124.938 91.3291 124.477 92.1804 124.086C92.3754 124.246 92.4641 124.423 92.4464 124.654C92.4286 124.867 92.3222 125.062 92.1094 125.257C91.3113 125.541 90.5665 125.949 89.8926 126.498C89.2009 127.03 88.456 127.19 87.6225 126.977C86.9308 126.782 86.4343 126.463 86.1328 126.055C85.8313 125.629 85.6362 124.955 85.5298 124.033ZM102.715 118.89C102.591 118.961 102.431 118.943 102.236 118.855C102.041 118.784 101.899 118.66 101.828 118.5C101.757 118.358 101.739 118.216 101.81 118.11C101.935 117.95 102.094 117.879 102.325 117.897C102.538 117.932 102.768 117.915 103.052 117.861C105.889 117.081 108.621 116.159 111.245 115.095C111.565 115.095 111.742 115.201 111.777 115.414C111.813 115.627 111.777 115.822 111.653 115.964C111.529 116.106 111.405 116.212 111.281 116.283C109.578 117.666 108.426 119.227 107.823 120.947C107.202 122.668 107.078 123.838 107.415 124.459C107.769 125.08 107.982 125.47 108.089 125.612C108.195 125.771 108.337 125.807 108.514 125.736C108.674 125.647 108.851 125.647 109.011 125.736C109.17 125.807 109.117 126.108 108.833 126.64C108.408 126.711 107.858 126.463 107.184 125.842C106.528 125.239 106.315 123.98 106.581 122.065C106.776 120.859 107.131 119.901 107.645 119.156C108.177 118.411 108.567 117.932 108.798 117.72C109.046 117.524 109.17 117.258 109.17 116.904C106.918 117.507 104.772 118.163 102.715 118.89ZM119.315 118.518C118.942 118.464 118.712 118.287 118.623 117.986C119.244 116.797 119.918 115.645 120.627 114.545C120.751 114.35 120.875 114.261 121.035 114.332C121.177 114.385 121.354 114.669 121.549 115.201C121.407 118.482 121.354 121.816 121.407 125.186C121.407 125.824 121.39 126.321 121.407 126.658C121.407 126.995 121.266 127.155 120.982 127.155C120.574 126.888 120.397 126.481 120.467 125.966C120.538 125.452 120.556 124.636 120.538 123.572C120.538 122.49 120.521 121.32 120.485 120.061C120.467 118.819 120.485 117.666 120.556 116.62C119.918 117.684 119.492 118.305 119.315 118.518ZM135.152 114.421C135.205 114.492 135.241 114.58 135.258 114.669C135.276 114.74 135.276 114.864 135.276 114.988C135.276 115.113 135.116 115.485 134.797 116.106C134.478 116.709 133.857 117.72 132.953 119.103C132.651 119.103 132.634 119.174 132.864 119.298C133.095 119.44 133.272 119.617 133.414 119.83C133.556 120.043 133.786 120.309 134.106 120.593C134.407 120.876 135.134 121.533 136.252 122.526C137.351 123.519 138.185 124.193 138.699 124.512C139.231 124.849 139.816 125.15 140.437 125.434C141.075 125.718 141.43 125.895 141.501 125.966C141.59 126.055 141.625 126.108 141.643 126.179C141.661 126.232 141.661 126.285 141.625 126.339C141.607 126.392 141.483 126.41 141.27 126.41C141.058 126.41 140.809 126.392 140.526 126.321C140.26 126.268 139.994 126.197 139.745 126.09C139.515 126.002 139.213 125.86 138.894 125.7C138.557 125.541 137.688 124.884 136.287 123.732C134.886 122.597 134.052 121.852 133.769 121.55C133.485 121.231 133.237 120.965 133.006 120.734C132.758 120.504 132.58 120.291 132.439 120.114C130.576 123.129 129.317 125.044 128.661 125.842C128.005 126.64 127.65 127.084 127.597 127.172C127.544 127.261 127.49 127.314 127.437 127.35C127.366 127.403 127.278 127.421 127.189 127.421C127.083 127.421 127.012 127.403 126.958 127.367C126.887 127.332 126.852 127.279 126.834 127.225C126.817 127.155 126.817 127.048 126.834 126.924C126.852 126.782 126.958 126.534 127.136 126.161C127.313 125.807 127.65 125.328 128.164 124.743C128.679 124.175 129.282 123.306 130.009 122.136C130.736 120.983 131.215 120.202 131.463 119.795C131.694 119.387 132.137 118.642 132.793 117.524C133.432 116.407 133.911 115.609 134.194 115.113C134.496 114.634 134.691 114.385 134.78 114.385C134.868 114.385 134.992 114.385 135.152 114.421ZM154.731 114.297C154.891 114.155 155.05 114.119 155.246 114.173C155.441 114.244 155.689 114.492 155.973 114.935C156.256 115.379 156.558 115.716 156.877 115.928C157.196 116.141 157.303 116.301 157.214 116.425C157.125 116.531 156.948 116.567 156.718 116.514C155.689 116.141 155.033 115.396 154.731 114.297ZM152.745 116.283C152.621 116.035 152.585 115.857 152.639 115.786C152.709 115.698 152.834 115.662 153.029 115.645C153.224 115.645 153.437 115.804 153.632 116.159C153.827 116.496 154.164 116.797 154.607 117.081C155.015 117.258 155.104 117.507 154.891 117.826C154.394 117.844 153.969 117.684 153.632 117.365C153.277 117.028 152.975 116.673 152.745 116.283ZM147.602 124.033C147.566 120.965 147.779 117.95 148.24 114.988C148.382 114.74 148.56 114.651 148.808 114.74C149.056 114.829 149.162 115.059 149.162 115.449C148.701 118.482 148.506 121.533 148.595 124.654C148.684 125.204 148.861 125.576 149.127 125.771C149.393 125.949 149.73 126.09 150.138 126.179C150.546 126.268 151.113 126.037 151.858 125.487C152.603 124.938 153.401 124.477 154.252 124.086C154.447 124.246 154.536 124.423 154.518 124.654C154.501 124.867 154.394 125.062 154.181 125.257C153.383 125.541 152.639 125.949 151.965 126.498C151.273 127.03 150.528 127.19 149.695 126.977C149.003 126.782 148.506 126.463 148.205 126.055C147.903 125.629 147.708 124.955 147.602 124.033ZM169.753 118.411C171.189 117.79 172.306 117.968 173.087 118.926C173.388 119.546 173.388 120.202 173.105 120.876C172.821 121.533 172.484 122.047 172.094 122.384C171.686 122.721 171.278 122.88 170.852 122.88L170.32 122.721C170.107 122.508 170.072 122.348 170.196 122.242C170.32 122.153 170.462 122.118 170.657 122.136C170.852 122.153 171.012 122.1 171.136 121.94C172.076 121.196 172.431 120.291 172.2 119.262C171.384 118.89 170.551 118.908 169.735 119.316C169.682 119.546 169.611 119.777 169.487 119.972C169.38 120.167 169.238 120.256 169.079 120.238C168.919 120.22 168.813 120.078 168.76 119.795L167.536 120.362C167.784 122.277 168.281 124.335 169.026 126.534C169.238 126.658 169.433 126.818 169.593 127.03C169.806 127.19 169.859 127.332 169.77 127.456C169.682 127.562 169.504 127.633 169.221 127.633C168.582 127.421 168.21 127.048 168.086 126.534C167.944 126.002 167.802 125.505 167.642 125.026C167.217 123.749 166.88 122.366 166.596 120.841C165.78 121.284 165.283 121.55 165.142 121.639C164.982 121.728 164.805 121.745 164.627 121.71C164.45 121.674 164.326 121.568 164.273 121.426C164.202 121.267 164.237 121.16 164.379 121.054C164.929 120.734 165.62 120.291 166.454 119.706C166.206 119.085 166.011 118.323 165.851 117.436C166.099 117.134 166.436 117.205 166.826 117.684C166.915 118.323 167.075 118.89 167.323 119.369C167.766 119.103 168.263 118.89 168.83 118.713C168.884 118.198 168.937 117.737 168.955 117.312C169.061 117.188 169.221 117.152 169.433 117.205C169.629 117.241 169.735 117.4 169.735 117.684C169.753 117.968 169.753 118.198 169.753 118.411ZM187.825 115.627C187.629 115.503 187.47 115.361 187.363 115.219C187.239 115.095 187.257 114.971 187.417 114.864C188.853 115.059 190.236 115.503 191.602 116.212C191.779 116.336 191.868 116.531 191.868 116.797C191.584 116.904 191.123 116.797 190.52 116.478C189.899 116.159 189.013 115.875 187.825 115.627ZM185.537 116.106C185.679 116.354 185.501 116.531 185.022 116.638C184.544 116.726 183.976 116.921 183.267 117.205C182.664 119.156 182.167 121.267 181.777 123.519C181.848 123.749 181.901 124.015 181.972 124.299C181.759 124.459 181.546 124.406 181.334 124.104C181.05 123.075 181.085 122.011 181.44 120.965C181.706 119.83 181.919 118.695 182.078 117.542C181.671 117.702 181.316 117.79 180.979 117.826C180.66 117.861 180.429 117.808 180.287 117.666C180.163 117.524 180.11 117.383 180.163 117.241C180.216 117.099 180.34 117.046 180.518 117.063C180.695 117.099 180.926 117.046 181.192 116.921C181.458 116.797 181.919 116.602 182.54 116.354L183.018 114.811C183.054 114.705 183.196 114.669 183.391 114.705C183.604 114.74 183.71 115.325 183.71 116.443C184.082 116.088 184.437 115.84 184.739 115.698C185.022 115.556 185.306 115.698 185.537 116.106ZM189.19 121.178C190.024 121.178 190.751 121.249 191.389 121.426C192.028 121.621 192.471 121.87 192.719 122.206C192.95 122.543 193.039 122.739 192.932 122.827C192.843 122.898 192.719 122.916 192.542 122.88C192.365 122.863 192.205 122.792 192.063 122.668C191.921 122.543 191.62 122.384 191.159 122.206C190.715 122.029 190.059 121.976 189.208 122.047C189.013 124.051 188.161 125.683 186.654 126.924C186.264 127.119 185.856 127.101 185.395 126.888C184.934 126.658 184.703 126.232 184.721 125.576C184.579 124.477 184.898 123.501 185.661 122.65C186.317 121.87 187.186 121.444 188.25 121.391C188.569 119.954 188.605 118.589 188.357 117.276C188.445 117.17 188.569 117.17 188.729 117.223C188.871 117.294 189.048 117.365 189.208 117.471C189.474 118.66 189.474 119.883 189.19 121.178ZM186.051 126.339C187.257 125.275 187.931 123.944 188.055 122.348C187.505 122.313 186.956 122.614 186.423 123.235C185.874 123.856 185.625 124.53 185.625 125.257C185.643 125.984 185.785 126.339 186.051 126.339ZM208.45 118.996C208.982 120.114 209.372 120.805 209.603 121.107C209.833 121.408 209.887 121.692 209.763 121.958C209.638 122.224 209.426 122.224 209.124 121.94C208.645 121.249 208.273 120.557 207.989 119.883C207.617 119.245 207.351 118.748 207.173 118.429C206.641 118.127 206.411 117.879 206.535 117.684C206.553 117.524 206.606 117.436 206.712 117.4C206.819 117.365 206.96 117.4 207.12 117.489C207.617 117.72 208.06 118.216 208.45 118.996ZM200.115 118.269L200.008 118.34C199.813 118.66 199.742 118.996 199.76 119.369C199.778 119.741 199.849 120.273 199.973 121.018C200.115 121.745 200.452 122.597 201.002 123.608C201.622 123.661 202.456 122.792 203.484 121.036C203.839 120.876 203.981 120.965 203.946 121.302C203.52 122.561 202.793 123.714 201.764 124.76C201.09 124.76 200.558 124.477 200.186 123.891C199.796 123.306 199.53 122.668 199.405 121.94C198.909 120.415 198.767 118.943 198.927 117.489C199.122 117.258 199.317 117.276 199.547 117.507C199.813 117.737 200.008 118.003 200.115 118.269ZM216.36 128.254C216.094 128.201 215.917 128.041 215.792 127.757C215.686 127.491 215.597 127.279 215.526 127.155C215.402 126.108 215.757 125.204 216.555 124.441C216.679 124.388 216.839 124.423 217.052 124.512C217.814 124.281 218.47 124.565 218.967 125.363C219.197 125.7 219.339 126.037 219.393 126.339C219.428 126.658 219.41 126.959 219.304 127.243C218.577 128.13 217.584 128.467 216.36 128.254ZM216.573 125.86C216.147 126.073 216.041 126.622 216.253 127.527C217.247 127.633 218.098 127.385 218.79 126.818C218.47 125.86 218.098 125.328 217.655 125.204C217.211 125.08 216.856 125.31 216.573 125.86Z" fill="black"/>
<path d="M10.2598 32.8052H118.5" stroke="black"/>
<path d="M10.2598 67.7144H173.39" stroke="black"/>
<path d="M10.2598 104.649H127.221" stroke="black"/>
<path d="M10.2598 136.455H227.766" stroke="black"/>
</svg>
