<?xml version="1.0" encoding="UTF-8"?>
<svg id="_レイヤー_2" data-name="レイヤー 2" xmlns="http://www.w3.org/2000/svg" xmlns:xlink="http://www.w3.org/1999/xlink" viewBox="0 0 255 266.51">
  <defs>
    <style>
      .cls-1, .cls-2 {
        fill: none;
      }

      .cls-3 {
        fill: #29aac6;
      }

      .cls-2 {
        stroke: #fff;
        stroke-miterlimit: 10;
      }

      .cls-4 {
        fill: url(#_新規パターンスウォッチ_1);
      }
    </style>
    <pattern id="_新規パターンスウォッチ_1" data-name=" 新規パターンスウォッチ 1" x="0" y="0" width="60" height="60" patternTransform="translate(-19.81 -6921.06) rotate(-123.93) scale(2.32 -2.32)" patternUnits="userSpaceOnUse" viewBox="0 0 60 60">
      <g>
        <rect class="cls-1" width="60" height="60"/>
        <g>
          <rect class="cls-1" width="60" height="60"/>
          <g>
            <line class="cls-2" x1=".5" y1="60" x2=".5"/>
            <line class="cls-2" x1="15.25" y1="60" x2="15.25"/>
            <line class="cls-2" x1="30" y1="60" x2="30"/>
            <line class="cls-2" x1="44.75" y1="60" x2="44.75"/>
          </g>
          <rect class="cls-1" width="60" height="60"/>
        </g>
      </g>
    </pattern>
  </defs>
  <g id="_レイヤー_2-2" data-name=" レイヤー 2">
    <g id="_レイヤー_1-2" data-name=" レイヤー 1-2">
      <g>
        <path class="cls-3" d="M21.13,23.81c-4.14,4.38-29.18,32.37-18.5,63.21,6.59,19.01,13.16,34.08,35.65,46.58,16.63,9.24,20.92,8.11,40.13,19.97,17.87,11.03,26.95,16.79,34.23,29.2,10.31,17.58,5.68,31.64,14.75,50.68,9.3,19.53,27.16,32.1,45.11,32.98,23.7,1.17,76.76-10.81,81.94-32.75,7.65-32.42-65.2-21.12-63.21-95.04,1.42-52.76-72.88-34.18-87.49-47.82C62.18,52.02,85.72-44.51,21.13,23.81Z"/>
        <path class="cls-4" d="M21.13,23.81c-4.14,4.38-29.18,32.37-18.5,63.21,6.59,19.01,13.16,34.08,35.65,46.58,16.63,9.24,20.92,8.11,40.13,19.97,17.87,11.03,26.95,16.79,34.23,29.2,10.31,17.58,5.68,31.64,14.75,50.68,9.3,19.53,27.16,32.1,45.11,32.98,23.7,1.17,76.76-10.81,81.94-32.75,7.65-32.42-65.2-21.12-63.21-95.04,1.42-52.76-72.88-34.18-87.49-47.82C62.18,52.02,85.72-44.51,21.13,23.81Z"/>
      </g>
    </g>
  </g>
</svg>