<svg width="56" height="56" viewBox="0 0 56 56" fill="none" xmlns="http://www.w3.org/2000/svg">
<g clip-path="url(#clip0_2112_9)">
<path d="M43.3755 0L12.6245 0C5.6522 0 0 5.6522 0 12.6246L0 43.3754C0 50.3478 5.6522 56 12.6245 56L43.3755 56C50.3478 56 56 50.3478 56 43.3754L56 12.6246C56 5.6522 50.3478 0 43.3755 0Z" fill="#06C755"/>
<path d="M46.6651 25.3614C46.6651 17.007 38.2897 10.21 27.9947 10.21C17.7005 10.21 9.32422 17.007 9.32422 25.3614C9.32422 32.8511 15.9664 39.1237 24.9387 40.3095C25.5466 40.4409 26.3743 40.7105 26.5835 41.2303C26.7718 41.7021 26.7067 42.4416 26.644 42.9184C26.644 42.9184 26.4249 44.2359 26.3774 44.5168C26.296 44.9885 26.0021 46.3628 27.9947 45.5233C29.9875 44.6836 38.7468 39.192 42.6639 34.6835H42.6631C45.3688 31.7161 46.6651 28.7049 46.6651 25.3614Z" fill="white"/>
<path d="M40.4534 30.1854H35.208C35.0111 30.1854 34.8516 30.0258 34.8516 29.8289V21.6807C34.8516 21.4838 35.0111 21.3242 35.208 21.3242H40.4534C40.6495 21.3242 40.8099 21.4846 40.8099 21.6807V23.0047C40.8099 23.2016 40.6503 23.3613 40.4534 23.3613H36.8886V24.7363H40.4534C40.6495 24.7363 40.8099 24.8967 40.8099 25.0928V26.4168C40.8099 26.6137 40.6503 26.7734 40.4534 26.7734H36.8886V28.1483H40.4534C40.6495 28.1483 40.8099 28.3088 40.8099 28.5048V29.8289C40.8099 30.0258 40.6503 30.1854 40.4534 30.1854Z" fill="#06C755"/>
<path d="M21.0511 30.1854C21.248 30.1854 21.4076 30.0258 21.4076 29.8289V28.5048C21.4076 28.3088 21.2472 28.1483 21.0511 28.1483H17.4863V21.6807C17.4863 21.4846 17.3258 21.3242 17.1298 21.3242H15.8057C15.6088 21.3242 15.4492 21.4838 15.4492 21.6807L15.4492 29.8289C15.4492 30.0258 15.6088 30.1854 15.8057 30.1854L21.0511 30.1854Z" fill="#06C755"/>
<path d="M24.2079 21.3242H22.8838C22.6869 21.3242 22.5273 21.4838 22.5273 21.6807V29.829C22.5273 30.0258 22.6869 30.1854 22.8838 30.1854H24.2079C24.4048 30.1854 24.5644 30.0258 24.5644 29.829V21.6807C24.5644 21.4838 24.4048 21.3242 24.2079 21.3242Z" fill="#06C755"/>
<path d="M33.2242 21.3242H31.9001C31.7032 21.3242 31.5436 21.4838 31.5436 21.6807V26.5203L27.8156 21.4857C27.8069 21.4727 27.7972 21.4606 27.7869 21.4488C27.7862 21.448 27.7854 21.4472 27.7846 21.4462C27.7777 21.4386 27.7706 21.4311 27.7631 21.424C27.7609 21.422 27.7587 21.42 27.7565 21.418C27.7501 21.4123 27.7437 21.4068 27.7371 21.4016C27.7339 21.3991 27.7307 21.3968 27.7274 21.3944C27.7213 21.3899 27.7151 21.3856 27.7086 21.3814C27.705 21.3791 27.7013 21.377 27.6977 21.3748C27.6912 21.371 27.6847 21.3674 27.678 21.364C27.6743 21.362 27.6705 21.3603 27.6666 21.3585C27.6598 21.3553 27.6529 21.3523 27.6458 21.3495C27.642 21.348 27.6381 21.3466 27.6342 21.3452C27.6271 21.3428 27.6199 21.3404 27.6126 21.3383C27.6084 21.3371 27.6042 21.3361 27.6 21.3351C27.5929 21.3334 27.5859 21.3317 27.5788 21.3305C27.5737 21.3295 27.5687 21.3288 27.5636 21.3281C27.5572 21.3272 27.5508 21.3263 27.5443 21.3258C27.538 21.3252 27.5317 21.325 27.5253 21.3249C27.5213 21.3247 27.5172 21.3242 27.5131 21.3242H26.1963C25.9995 21.3242 25.8398 21.4838 25.8398 21.6807V29.829C25.8398 30.0258 25.9995 30.1854 26.1963 30.1854H27.5204C27.7173 30.1854 27.8769 30.0258 27.8769 29.829V24.9909L31.6096 30.0318C31.6353 30.0682 31.6667 30.0979 31.7015 30.1216C31.7029 30.1226 31.7043 30.1235 31.7057 30.1244C31.713 30.1293 31.7205 30.1338 31.7281 30.1381C31.7315 30.14 31.7349 30.1419 31.7385 30.1438C31.7441 30.1467 31.7499 30.1495 31.7557 30.1521C31.7615 30.1547 31.7673 30.1573 31.7732 30.1596C31.7769 30.1611 31.7807 30.1624 31.7845 30.1638C31.7926 30.1666 31.8007 30.1693 31.8091 30.1716C31.8108 30.1721 31.8125 30.1725 31.8142 30.173C31.844 30.1808 31.8751 30.1854 31.9073 30.1854H33.2242C33.421 30.1854 33.5807 30.0258 33.5807 29.829V21.6807C33.5807 21.4838 33.421 21.3242 33.2242 21.3242Z" fill="#06C755"/>
</g>
<defs>
<clipPath id="clip0_2112_9">
<rect width="56" height="56" fill="white"/>
</clipPath>
</defs>
</svg>
