<svg width="54" height="54" viewBox="0 0 54 54" fill="none" xmlns="http://www.w3.org/2000/svg">
<g clip-path="url(#clip0_1589_2058)">
<path d="M41.3316 0H12.0297C5.38586 0 0 5.38586 0 12.0297V41.3315C0 47.9753 5.38586 53.3612 12.0297 53.3612H41.3316C47.9754 53.3612 53.3612 47.9753 53.3612 41.3315V12.0297C53.3612 5.38586 47.9754 0 41.3316 0Z" fill="#06C755"/>
<path d="M44.4661 24.1667C44.4661 16.206 36.4854 9.72931 26.6754 9.72931C16.8663 9.72931 8.88477 16.206 8.88477 24.1667C8.88477 31.3036 15.2139 37.2806 23.7634 38.4105C24.3427 38.5357 25.1314 38.7926 25.3308 39.2879C25.5102 39.7375 25.4482 40.4422 25.3884 40.8965C25.3884 40.8965 25.1797 42.1518 25.1344 42.4195C25.0568 42.869 24.7768 44.1786 26.6754 43.3786C28.5744 42.5785 36.9209 37.3456 40.6535 33.0496H40.6527C43.2309 30.2221 44.4661 27.3527 44.4661 24.1667Z" fill="white"/>
<path d="M38.5488 28.7634H33.5506C33.363 28.7634 33.2109 28.6114 33.2109 28.4238V20.6595C33.2109 20.4719 33.363 20.3198 33.5506 20.3198H38.5488C38.7357 20.3198 38.8886 20.4726 38.8886 20.6595V21.9212C38.8886 22.1088 38.7365 22.2609 38.5488 22.2609H35.152V23.5711H38.5488C38.7357 23.5711 38.8886 23.7239 38.8886 23.9108V25.1725C38.8886 25.3601 38.7365 25.5122 38.5488 25.5122H35.152V26.8224H38.5488C38.7357 26.8224 38.8886 26.9753 38.8886 27.162V28.4238C38.8886 28.6114 38.7365 28.7634 38.5488 28.7634Z" fill="#06C755"/>
<path d="M20.0606 28.7634C20.2482 28.7634 20.4003 28.6114 20.4003 28.4238V27.162C20.4003 26.9752 20.2474 26.8224 20.0606 26.8224H16.6637V20.6595C16.6637 20.4726 16.5108 20.3198 16.324 20.3198H15.0623C14.8747 20.3198 14.7227 20.4719 14.7227 20.6595V28.4238C14.7227 28.6114 14.8747 28.7634 15.0623 28.7634L20.0606 28.7634Z" fill="#06C755"/>
<path d="M23.0682 20.3198H21.8065C21.6189 20.3198 21.4668 20.4718 21.4668 20.6594V28.4238C21.4668 28.6114 21.6189 28.7634 21.8065 28.7634H23.0682C23.2558 28.7634 23.4079 28.6114 23.4079 28.4238V20.6594C23.4079 20.4718 23.2558 20.3198 23.0682 20.3198Z" fill="#06C755"/>
<path d="M31.6575 20.3198H30.3958C30.2082 20.3198 30.0561 20.4719 30.0561 20.6594V25.271L26.5037 20.4736C26.4955 20.4613 26.4862 20.4497 26.4764 20.4385C26.4757 20.4377 26.475 20.4369 26.4742 20.436C26.4676 20.4287 26.4609 20.4216 26.4538 20.4149C26.4517 20.4129 26.4495 20.411 26.4474 20.4091C26.4414 20.4037 26.4353 20.3985 26.4289 20.3935C26.4259 20.3911 26.4229 20.3889 26.4197 20.3866C26.4139 20.3824 26.4079 20.3782 26.4018 20.3743C26.3984 20.3721 26.3949 20.37 26.3914 20.368C26.3852 20.3643 26.379 20.3609 26.3726 20.3576C26.3691 20.3558 26.3655 20.3541 26.3618 20.3524C26.3553 20.3494 26.3487 20.3465 26.342 20.3438C26.3383 20.3425 26.3346 20.3411 26.3309 20.3398C26.3241 20.3374 26.3173 20.3352 26.3103 20.3332C26.3063 20.3321 26.3023 20.3311 26.2983 20.3301C26.2916 20.3285 26.2849 20.3269 26.2781 20.3257C26.2733 20.3248 26.2684 20.3242 26.2636 20.3235C26.2575 20.3226 26.2514 20.3218 26.2453 20.3212C26.2392 20.3207 26.2332 20.3205 26.2271 20.3204C26.2233 20.3202 26.2194 20.3198 26.2155 20.3198H24.9608C24.7732 20.3198 24.6211 20.4719 24.6211 20.6594V28.4238C24.6211 28.6113 24.7732 28.7634 24.9608 28.7634H26.2225C26.4101 28.7634 26.5621 28.6113 26.5621 28.4238V23.8136L30.119 28.6171C30.1435 28.6517 30.1734 28.68 30.2066 28.7026C30.2079 28.7035 30.2092 28.7044 30.2106 28.7053C30.2175 28.7099 30.2247 28.7142 30.2319 28.7183C30.2351 28.7201 30.2384 28.722 30.2418 28.7237C30.2472 28.7265 30.2526 28.7291 30.2582 28.7317C30.2638 28.7342 30.2692 28.7366 30.2749 28.7388C30.2784 28.7402 30.2821 28.7415 30.2856 28.7428C30.2933 28.7455 30.3011 28.748 30.3091 28.7503C30.3106 28.7507 30.3123 28.7511 30.3139 28.7515C30.3423 28.759 30.372 28.7634 30.4027 28.7634H31.6575C31.8451 28.7634 31.9972 28.6113 31.9972 28.4238V20.6594C31.9972 20.4719 31.8451 20.3198 31.6575 20.3198Z" fill="#06C755"/>
</g>
<defs>
<clipPath id="clip0_1589_2058">
<rect width="53.3612" height="53.3612" fill="white"/>
</clipPath>
</defs>
</svg>
