<svg width="121" height="43" viewBox="0 0 121 43" fill="none" xmlns="http://www.w3.org/2000/svg">
<g clip-path="url(#clip0_1761_238)">
<path d="M2.24349 34.0375C2.16168 34.0027 2.02975 33.9565 1.84874 33.8989C1.66619 33.8412 1.49081 33.7864 1.32104 33.7345C1.15128 33.6826 1.01935 33.6515 0.925781 33.6402C1.01885 33.3679 1.10833 33.0246 1.19526 32.6106C1.28218 32.1965 1.35684 31.7501 1.41973 31.2709C1.48314 30.7921 1.53427 30.3339 1.57415 29.8967C1.61404 29.4595 1.63398 29.0929 1.63296 28.7976L3.0197 28.9285C3.00896 29.3302 2.97828 29.7766 2.92714 30.2669C2.87601 30.7576 2.81005 31.2512 2.72977 31.748C2.64846 32.2448 2.5646 32.6945 2.4787 33.0967C2.39178 33.4988 2.31354 33.8128 2.24349 34.0375Z" fill="white"/>
<path d="M16.6073 26.8193V27.9886L14.623 28.0038V26.8345L16.6073 26.8193Z" fill="#FFEE00"/>
<path d="M5.28369 41.6307L3.70429 41.6459L3.69922 39.7678H5.27862L5.28369 41.6307Z" fill="#FFEE00"/>
<path d="M7.69339 30.3475L6.58978 31.1321C6.43803 30.8385 6.2304 30.4842 5.97224 30.064C5.71407 29.6489 5.47617 29.2946 5.25347 29.001L5.27881 39.7678H3.69941L3.66406 25.574L5.24334 25.5639L5.24841 28.7681L6.16466 28.1252C6.33669 28.348 6.52404 28.596 6.72647 28.8744C6.92396 29.1478 7.11625 29.4161 7.28841 29.6742C7.4655 29.9324 7.60218 30.1551 7.69339 30.3475Z" fill="white"/>
<path d="M17.2855 31.0511V32.2002L6.33124 32.2863L6.32617 31.1372L6.58941 31.1321L10.9124 31.1018L10.9073 30.1096L7.79929 30.1299L7.79423 28.996L10.9022 28.9757V28.0342L6.93371 28.0646V26.8952L10.8972 26.8648V25.4829L12.4918 25.4728L12.4968 26.8547L14.6229 26.8345V28.0038L12.5019 28.024V28.9606L15.6606 28.9352L15.6657 30.0691L12.5068 30.0944V31.0866L17.2855 31.0511Z" fill="white"/>
<path d="M15.6912 33.0657L7.91602 33.1265L7.93628 41.6105L9.55103 41.6003L9.54596 38.5884L14.1068 38.553L14.1119 39.5249C14.1119 39.7527 14.0764 39.9045 14.0005 39.9804C13.9245 40.0564 13.7626 40.0969 13.5146 40.0969L12.2694 40.107C12.3503 40.3196 12.4161 40.5626 12.4566 40.8309C12.4971 41.1042 12.5225 41.3523 12.5376 41.575L13.8183 41.5648C14.4611 41.5598 14.9369 41.4282 15.2458 41.1649C15.5597 40.9017 15.7114 40.4866 15.7114 39.9197L15.6912 33.0657ZM14.0967 34.2655L14.1018 35.2728L9.53583 35.3082L9.53076 34.3009L14.0967 34.2655ZM9.5409 37.4697L9.53583 36.427L14.1018 36.3915L14.1068 37.4343L9.5409 37.4697Z" fill="white"/>
<path d="M26.9888 30.0539L23.6378 30.0792L23.6328 28.591L26.3003 28.5708V27.2597L23.6277 27.2799V26.9964H22.1343V27.2901L19.4313 27.3104L19.4364 28.6213L22.1395 28.6011L22.1444 30.0894L18.7227 30.1197V31.4814L26.9939 31.4156L26.9888 30.0539ZM23.6529 35.2374L26.8117 35.2121L26.8065 33.8453L24.878 33.8605C25.0147 33.5518 25.1514 33.2227 25.2879 32.8735C25.4197 32.5242 25.5259 32.2154 25.6069 31.942L24.2402 31.6181C24.1794 31.8864 24.0731 32.2458 23.9263 32.6912C23.7745 33.1367 23.6277 33.5315 23.491 33.8707L22.2609 33.8808C22.1748 33.577 22.0534 33.2025 21.8864 32.7621C21.7244 32.3166 21.5674 31.9522 21.4307 31.6535L20.0944 32.0584C20.2108 32.266 20.3425 32.5494 20.4842 32.8937C20.6258 33.243 20.7474 33.577 20.8537 33.8909L18.9403 33.9061L18.9453 35.2729L22.1596 35.2475V36.8218L19.2289 36.8471L19.2338 38.2088L22.1647 38.1886L22.1748 41.4839L23.6681 41.4738L23.6581 38.1784L26.5181 38.1531V36.7915L23.6529 36.8117L23.6529 35.2374ZM34.1263 31.8053L28.9073 31.8459L28.8972 27.2749L32.2836 27.2495L32.2887 28.9858C32.2887 29.2086 32.2382 29.3655 32.1318 29.4465C32.0305 29.5325 31.8585 29.573 31.6256 29.573L30.2387 29.5832C30.3095 29.7502 30.3753 29.983 30.4411 30.2817C30.5069 30.5854 30.5525 30.8537 30.5727 31.0866L31.9648 31.0764C32.5823 31.0714 33.0429 30.9144 33.3467 30.6057C33.6503 30.2969 33.8022 29.816 33.8022 29.1681L33.7921 25.8019L27.3837 25.8524L27.4242 41.4434L28.9327 41.4333V40.2437C29.0693 40.3601 29.2162 40.4968 29.373 40.6588C29.5249 40.8157 29.6413 40.9423 29.7224 41.0333C30.1323 40.7348 30.5069 40.4107 30.8561 40.0615C31.1954 39.7122 31.5142 39.3377 31.8078 38.9479C32.0305 39.2212 32.2635 39.4895 32.5114 39.7375L33.2404 38.3303C33.0228 38.1025 32.8202 37.8696 32.6278 37.6266C33.5593 35.9309 34.0604 33.9922 34.1263 31.8053ZM28.9276 39.7678L28.9124 33.243H29.3326C29.6059 34.8679 30.1323 36.351 30.9068 37.6773C30.3601 38.4872 29.7021 39.1807 28.9276 39.7678ZM31.732 36.2346C31.4839 35.7791 31.2712 35.2981 31.1043 34.797C30.9321 34.2959 30.8005 33.7745 30.7044 33.2329L32.5469 33.2177C32.4355 34.2706 32.1622 35.2779 31.732 36.2346Z" fill="white"/>
<path d="M23.6272 27.2736H22.1338L22.1289 25.3766L23.6222 25.3665L23.6272 27.2736Z" fill="#FFEE00"/>
<path d="M35.1137 39.8944C34.9972 40.0007 34.8302 40.188 34.6125 40.4462C34.3949 40.7094 34.2379 40.922 34.1317 41.0891C33.5393 40.6841 33.0028 40.2336 32.5117 39.7375L33.2407 38.3303C33.4077 38.5125 33.5849 38.6846 33.7723 38.8517C34.1974 39.2313 34.6429 39.5806 35.1137 39.8944Z" fill="#FFEE00"/>
<path d="M50.8815 34.1187L50.4006 32.6203C49.8084 32.7621 49.1554 32.9392 48.4467 33.1367C47.738 33.3391 47.0395 33.5669 46.3511 33.82C46.265 32.9797 46.017 32.3672 45.607 31.9825C45.1969 31.5927 44.6452 31.4054 43.9567 31.4105C43.6531 31.4105 43.324 31.451 42.9798 31.5319C42.6355 31.613 42.3217 31.7294 42.0433 31.8863C42.3116 31.5067 42.5748 31.1068 42.8279 30.6816C43.0861 30.2614 43.3037 29.8514 43.4759 29.4465C44.144 29.3958 44.797 29.3402 45.4348 29.2794C46.0726 29.2237 46.6548 29.1579 47.1913 29.0921C47.7228 29.0212 48.1532 28.9504 48.4771 28.8744L48.3708 27.3558C47.9607 27.4621 47.3584 27.5685 46.5687 27.6697C45.7791 27.7709 44.9337 27.8519 44.0327 27.9177C44.2757 27.1989 44.4173 26.475 44.4477 25.7562L42.833 25.6601C42.8229 26.0245 42.7722 26.4093 42.6862 26.8142C42.6002 27.2141 42.4837 27.6241 42.3319 28.0392C41.4764 28.0898 40.6816 28.1202 39.9527 28.1252C39.2186 28.1354 38.667 28.1202 38.2924 28.0898L38.3683 29.6641C38.6619 29.6742 39.1022 29.6692 39.6946 29.654C40.2817 29.6388 40.9347 29.6084 41.6484 29.5679C41.1625 30.5297 40.55 31.4459 39.8211 32.3267C39.0921 33.2075 38.3127 33.9465 37.4824 34.5439L38.6619 35.7233C38.8998 35.5209 39.158 35.2678 39.4516 34.9691C39.7451 34.6755 39.9931 34.4122 40.2058 34.1845C40.6968 33.6631 41.2385 33.2834 41.8358 33.0556C42.4331 32.8278 43.0253 32.7266 43.6227 32.757C43.9669 32.7823 44.2402 32.8936 44.4579 33.1063C44.6755 33.3188 44.7868 33.6884 44.7868 34.2199V34.4173C44.063 34.7261 43.4049 35.0753 42.8178 35.46C42.2256 35.8397 41.7598 36.2548 41.4207 36.7003C41.0866 37.1457 40.9145 37.6367 40.9195 38.1683C40.9195 38.8061 41.127 39.3173 41.5472 39.7021C41.9623 40.0918 42.5292 40.3702 43.243 40.5474C43.9567 40.7246 44.7667 40.8106 45.6678 40.8055C45.855 40.8055 46.0422 40.8005 46.2397 40.7903L47.3938 39.0744C47.1965 39.1047 46.999 39.13 46.8015 39.1553C46.346 39.2161 45.931 39.2414 45.5563 39.2465C44.5743 39.2565 43.815 39.1604 43.2834 38.963C42.747 38.7655 42.4837 38.4416 42.4787 37.9961C42.4787 37.6519 42.6912 37.2976 43.1165 36.9382C43.5416 36.5737 44.1036 36.2244 44.792 35.8853L44.797 37.7127L46.3967 37.6975L46.3865 35.2728C47.0546 35.0298 47.7684 34.8071 48.5277 34.6097C49.287 34.4072 50.0717 34.2452 50.8815 34.1187Z" fill="white"/>
<path d="M49.4596 40.2437V40.3146C48.8724 40.4715 48.2397 40.593 47.5613 40.674C47.1008 40.7297 46.6554 40.7701 46.2402 40.7904L47.3944 39.0744C47.6526 39.0339 47.9158 38.9884 48.179 38.9327C48.6447 38.8415 49.0598 38.7403 49.4344 38.634C49.4141 38.7403 49.404 38.8972 49.404 39.0997C49.404 39.3073 49.409 39.5198 49.4192 39.7324C49.4344 39.9451 49.4445 40.1121 49.4596 40.2437Z" fill="#FFEE00"/>
<path d="M68.943 31.537C68.8367 31.5472 68.5127 31.5674 67.966 31.5978C67.4244 31.6232 66.741 31.6535 65.9209 31.6839C65.1009 31.7143 64.2201 31.7447 63.2685 31.775L63.2633 28.6923C63.562 28.6315 63.8557 28.5657 64.1442 28.4948L63.557 27.0927C63.0102 27.2192 62.4383 27.3305 61.8461 27.4369C61.0108 27.5786 60.1705 27.6849 59.3354 27.7659C58.5 27.8418 57.7154 27.8823 56.9916 27.8874C57.0523 27.9836 57.1131 28.1253 57.184 28.3227C57.2548 28.515 57.3207 28.7175 57.3814 28.9251C57.4371 29.1275 57.4775 29.2946 57.4876 29.4262C58.7734 29.3553 60.1452 29.2137 61.593 28.9858L61.6031 31.8205L61.3399 31.8256C60.5451 31.8408 59.7706 31.8611 59.0214 31.8763C58.2723 31.8965 57.5889 31.9116 56.9764 31.9268C56.3639 31.9471 55.8577 31.9572 55.4578 31.9572C55.0579 31.9623 54.8149 31.9572 54.7188 31.9471L54.8453 33.5062C54.9516 33.491 55.2097 33.4809 55.6198 33.4606C56.0299 33.4505 56.5461 33.4302 57.1739 33.4151C57.7965 33.3999 58.4899 33.3797 59.2441 33.3543C59.9984 33.3341 60.783 33.3087 61.5879 33.2936C61.4766 34.6755 60.9906 35.7993 60.13 36.6598C59.2745 37.5254 58.009 38.1683 56.3335 38.5985C56.4296 38.6796 56.5361 38.8162 56.6525 39.0085C56.7689 39.206 56.8802 39.4034 56.9865 39.6008C57.0928 39.8033 57.1688 39.9653 57.2193 40.0969C59.1024 39.5249 60.5502 38.6796 61.5626 37.5609C62.58 36.4472 63.142 35.0096 63.2584 33.2632C64.1948 33.2328 65.0705 33.2075 65.8906 33.1872C66.7106 33.1721 67.394 33.1569 67.9457 33.1468C68.4924 33.1367 68.8315 33.1367 68.9633 33.1468L68.943 31.537Z" fill="white"/>
<path d="M66.7559 27.7051C66.2851 27.8975 65.7536 28.0797 65.1563 28.2416C64.8272 28.3328 64.4932 28.4138 64.1439 28.4947L63.5566 27.0926C63.7793 27.042 63.9971 26.9913 64.2147 26.9357C64.9588 26.7484 65.5916 26.5409 66.118 26.313L66.7559 27.7051Z" fill="#FFEE00"/>
<path d="M82.0178 36.5737C81.9115 36.5737 81.6534 36.5788 81.2433 36.589C80.8334 36.594 80.3171 36.6041 79.6894 36.6142C79.0668 36.6294 78.3833 36.6345 77.6443 36.6396L77.6342 32.9392C78.0392 32.9341 78.4138 32.9341 78.7579 32.9341V31.6434C78.2163 31.6535 77.6241 31.6636 76.9812 31.6686C75.9738 31.6737 75.1032 31.6737 74.3591 31.6686C73.615 31.6636 73.1492 31.6535 72.962 31.6434L72.967 33.0253C73.0581 33.0152 73.2657 33.0051 73.5897 32.9949C73.9085 32.9899 74.3084 32.9797 74.7843 32.9696C75.2551 32.9595 75.7562 32.9544 76.2827 32.9493L76.2928 36.6497C75.5183 36.6598 74.8146 36.6649 74.1667 36.67C73.5238 36.675 72.9873 36.675 72.5519 36.67C72.1216 36.67 71.8332 36.6649 71.6914 36.6497L71.6965 38.0164C71.7926 38.0012 72.0052 37.9911 72.3394 37.986C72.6683 37.9759 73.0835 37.9709 73.5745 37.9658C74.0655 37.9607 74.6021 37.9557 75.1841 37.9557C75.7613 37.9507 76.3434 37.9456 76.9305 37.9405C77.8062 37.9355 78.606 37.9253 79.3248 37.9202C80.0437 37.9152 80.641 37.9152 81.1168 37.9152C81.5927 37.9202 81.8913 37.9253 82.0229 37.9355L82.0178 36.5737Z" fill="white"/>
<path d="M80.9345 31.5826V32.9646C80.7978 32.9443 80.4283 32.9291 79.8309 32.9291C79.512 32.9291 79.1527 32.9291 78.7578 32.9342V31.6434H78.7933C79.34 31.6333 79.8057 31.6232 80.1853 31.6181C80.565 31.608 80.8181 31.5978 80.9345 31.5826Z" fill="#FFEE00"/>
<path d="M91.0241 32.5242C90.9127 32.1647 90.7913 31.8053 90.6698 31.4561C90.5483 31.1018 90.4319 30.8284 90.3256 30.6411L89.0601 31.0764C89.1816 31.2637 89.298 31.527 89.4245 31.8611C89.546 32.2002 89.6624 32.5394 89.7687 32.8887C89.875 33.2379 89.946 33.5315 89.9813 33.7795L91.262 33.4151C91.2165 33.1822 91.1354 32.8836 91.0241 32.5242ZM94.2587 30.8436C94.0613 32.2609 93.6412 33.486 92.9983 34.5085C92.3504 35.5361 91.5202 36.3814 90.5078 37.0395C90.3509 37.1407 90.1889 37.2419 90.0218 37.3331L90.7355 38.4821C90.9785 38.3404 91.2165 38.1886 91.4493 38.0316C92.5275 37.2977 93.4235 36.3611 94.1474 35.2171C94.8713 34.0782 95.3521 32.6963 95.5951 31.0612L94.2587 30.8436ZM87.9364 33.1873C87.8098 32.8279 87.6833 32.4736 87.5567 32.1243C87.425 31.7801 87.3085 31.5118 87.2023 31.3194L85.957 31.7901C86.0734 31.9826 86.2 32.2407 86.3367 32.5697C86.4734 32.8987 86.5948 33.2379 86.7062 33.5872C86.8175 33.9314 86.8936 34.2301 86.9289 34.4781L88.2096 34.0782C88.1489 33.8403 88.0577 33.5467 87.9364 33.1873Z" fill="white"/>
<path d="M90.7348 38.4822C89.849 39.0086 88.8822 39.4338 87.8394 39.7679C87.7686 39.6059 87.6572 39.3831 87.5053 39.1048C87.3484 38.8315 87.2066 38.634 87.0801 38.5176C88.1583 38.2391 89.1353 37.8443 90.0211 37.3331L90.7348 38.4822Z" fill="#FFEE00"/>
<path d="M111.529 28.1202C111.423 28.1354 111.195 28.1506 110.851 28.1708C110.507 28.1911 110.107 28.2113 109.651 28.2316C109.191 28.2518 108.73 28.272 108.254 28.2872C108.067 28.2923 107.885 28.2974 107.713 28.3075C107.444 28.3126 107.196 28.3227 106.963 28.3329C107.029 28.2214 107.09 28.1151 107.151 28.0037L105.728 27.2394C105.526 27.614 105.303 27.9936 105.05 28.3682C104.453 29.254 103.764 30.0843 102.985 30.8436C102.2 31.6079 101.375 32.2508 100.494 32.7772C100.611 32.8481 100.752 32.9544 100.919 33.1012C101.081 33.248 101.243 33.3999 101.4 33.5517C101.562 33.7036 101.674 33.825 101.744 33.9212C103.369 32.8076 104.777 31.4561 105.966 29.8666C106.128 29.8615 106.376 29.8565 106.71 29.8413C107.044 29.8261 107.424 29.8109 107.854 29.7957C108.28 29.7805 108.715 29.7602 109.15 29.735C109.55 29.7097 109.92 29.6894 110.254 29.6742C110.289 29.6742 110.32 29.6692 110.355 29.6692C110.35 29.6844 110.34 29.6996 110.335 29.7148C109.753 30.9803 108.978 32.1849 108.001 33.3239C107.019 34.473 105.895 35.5057 104.63 36.4118C103.369 37.3229 102.018 38.0721 100.58 38.6593C100.687 38.7554 100.808 38.887 100.945 39.0643C101.076 39.2414 101.208 39.4236 101.34 39.6109C101.466 39.7982 101.562 39.9552 101.623 40.0868C103.319 39.3275 104.883 38.3758 106.326 37.2267C107.768 36.0726 109.024 34.7717 110.082 33.3239C110.745 32.4178 111.312 31.4713 111.782 30.4943C112.061 29.9071 112.304 29.3098 112.511 28.6973L111.529 28.1202Z" fill="white"/>
<path d="M107.976 26.2726C107.834 26.6269 107.682 26.9761 107.515 27.3204C107.399 27.5533 107.278 27.776 107.151 28.0037L105.729 27.2394C106.007 26.7281 106.24 26.2219 106.427 25.7157L107.976 26.2726Z" fill="#FFEE00"/>
<path d="M119.004 40.3773C118.653 40.3799 118.351 40.2551 118.099 40.0033C117.847 39.7512 117.72 39.448 117.719 39.0936C117.718 38.7393 117.843 38.4371 118.095 38.187C118.345 37.937 118.646 37.8107 118.998 37.8081C119.349 37.8053 119.65 37.927 119.903 38.1729C120.155 38.4189 120.282 38.7196 120.283 39.0739C120.284 39.4283 120.159 39.733 119.908 39.9892C119.656 40.2451 119.356 40.3745 119.004 40.3773ZM118.308 36.2007C118.296 35.9885 118.278 35.6638 118.253 35.2269C118.229 34.7902 118.203 34.2942 118.179 33.7389C118.154 33.1841 118.132 32.6114 118.113 32.0208C118.094 31.4302 118.078 30.8695 118.065 30.3378C118.051 29.8065 118.038 29.3519 118.026 28.9738C118.013 28.5962 118.007 28.3423 118.007 28.2121L117.999 25.2709L119.948 25.2559L119.955 28.1971C119.956 28.3272 119.95 28.5811 119.94 28.9589C119.929 29.3373 119.919 29.7919 119.908 30.3234C119.898 30.8555 119.882 31.4164 119.86 32.0073C119.838 32.5984 119.816 33.1711 119.795 33.7264C119.772 34.2822 119.753 34.7782 119.737 35.2154C119.721 35.6526 119.701 35.9775 119.678 36.1902L118.308 36.2007Z" fill="white"/>
<path d="M32.858 8.39803C32.7537 8.3004 32.641 8.19807 32.5209 8.09081C32.4002 7.98354 32.2851 7.90073 32.1738 7.84289C32.4853 7.59128 32.7769 7.28702 33.0488 6.93109C33.3207 6.57468 33.555 6.20417 33.7522 5.81908C33.9495 5.43375 34.083 5.07708 34.1541 4.7486L35.0123 4.95819C34.9797 5.07659 34.9411 5.19819 34.8961 5.32326C34.8507 5.44808 34.8027 5.57314 34.7513 5.69796L40.4629 5.65372L40.4648 6.38163L34.4023 6.42859C34.2016 6.79094 33.9707 7.14365 33.7083 7.48647C33.4463 7.82978 33.1625 8.13332 32.858 8.39803ZM32.8338 13.8476C32.7809 13.7102 32.7156 13.5715 32.637 13.4309C32.5594 13.2907 32.4645 13.1619 32.3538 13.0445C32.8728 12.8898 33.3761 12.6812 33.863 12.4182C34.3489 12.1552 34.7997 11.8552 35.215 11.5175C34.9218 11.2706 34.6337 11.0432 34.3504 10.8356C34.0676 10.628 33.8086 10.4696 33.5748 10.3598L34.1284 9.75548C34.3751 9.87808 34.6505 10.0432 34.953 10.2506C35.2555 10.4584 35.5571 10.6853 35.8566 10.9323C36.2976 10.4829 36.6535 10.0014 36.9249 9.4878L37.7153 9.87511C37.3792 10.4483 36.9743 10.9827 36.5012 11.478C36.788 11.7252 37.0554 11.9738 37.3026 12.2244C37.5502 12.4748 37.7588 12.7109 37.9284 12.9326C37.8048 13.0188 37.6802 13.118 37.5537 13.2307C37.4276 13.3431 37.3189 13.4487 37.2284 13.5478C37.0717 13.3458 36.873 13.116 36.6318 12.8592C36.3905 12.6019 36.13 12.3431 35.8497 12.0831C34.9747 12.8243 33.9693 13.4126 32.8338 13.8476ZM40.0165 13.7129C39.7233 13.5777 39.4747 13.3303 39.2685 12.9714C39.0629 12.6122 38.9047 12.1626 38.7925 11.6226C38.6803 11.0823 38.6239 10.478 38.6219 9.80911L38.6205 9.32714L32.9188 9.37138L32.9168 8.61406L39.5152 8.5629C39.5029 8.71367 39.49 8.91066 39.4781 9.15314C39.4658 9.39585 39.4598 9.65192 39.4608 9.92059C39.4623 10.5766 39.5236 11.1334 39.6452 11.5912C39.7668 12.0494 39.9349 12.412 40.1504 12.6792C40.2147 12.528 40.2795 12.3732 40.3437 12.2153C40.4085 12.0576 40.4648 11.9145 40.5133 11.7862C40.5617 11.6579 40.5924 11.5741 40.6052 11.5348C40.6769 11.5867 40.7876 11.6498 40.9369 11.7239C41.0867 11.7983 41.2202 11.8512 41.3373 11.8831C41.3181 11.9553 41.2775 12.0705 41.2162 12.2284C41.1549 12.3863 41.0872 12.5556 41.0131 12.7363C40.9389 12.9173 40.8692 13.0819 40.8049 13.2299C40.7402 13.378 40.6883 13.4781 40.6497 13.531C40.5657 13.6496 40.4634 13.7257 40.3427 13.7596C40.2231 13.7935 40.1138 13.7776 40.0165 13.7129ZM34.6396 7.81373L34.6376 7.10559L39.4821 7.06802L39.4841 7.77616L34.6396 7.81373Z" fill="white"/>
<path d="M43.6711 13.6946L43.6667 11.934L41.9414 11.9473L41.9395 11.1996L43.6647 11.1863L43.6627 10.4683L42.2103 10.4794L42.2014 7.17451L43.6538 7.16339L43.6523 6.52396L41.9854 6.53682L41.9834 5.80891L43.6503 5.79605L43.6474 4.7928L44.4274 4.78662L44.4304 5.78987L45.9895 5.77776L45.9915 6.50567L44.4324 6.51778L44.4339 7.1572L45.8956 7.14584L45.9045 10.4507L44.4428 10.4621L44.4447 11.1801L46.1112 11.1673L46.1131 11.9149L44.4467 11.9278L44.4512 13.6884L43.6711 13.6946ZM42.897 8.52652L43.6573 8.52084L43.6558 7.82234L42.8955 7.82803L42.897 8.52652ZM42.9004 9.78559L43.6607 9.77991L43.6588 9.07153L42.8985 9.07721L42.9004 9.78559ZM44.4373 8.51466L45.1976 8.50872L45.1961 7.81023L44.4358 7.81616L44.4373 8.51466ZM44.4408 9.77373L45.2011 9.7678L45.1991 9.05942L44.4388 9.06535L44.4408 9.77373ZM45.8343 13.3332L45.8323 12.566L47.957 12.5497L47.9535 11.1628L46.3455 11.1752L46.343 10.3785L47.9511 10.3662L47.9476 9.04804L48.7662 9.04161L48.7697 10.3598L50.3585 10.3474L50.361 11.144L48.7722 11.1564L48.7756 12.5432L50.8029 12.5274L50.8049 13.2946L45.8343 13.3332ZM46.3405 9.38493C46.3208 9.33278 46.2847 9.25765 46.2328 9.15977C46.1799 9.06164 46.1265 8.96228 46.0706 8.86094C46.0157 8.7596 45.9648 8.68644 45.9194 8.64071C46.2768 8.5463 46.6139 8.419 46.9318 8.25933C47.2496 8.09941 47.5418 7.91676 47.8077 7.71136C47.5927 7.45727 47.4048 7.17699 47.2452 6.87C47.085 6.56302 46.9589 6.22959 46.867 5.86922L46.1848 5.87466L46.1828 5.14699L50.1499 5.1161L50.4623 5.4085C50.3011 5.84252 50.1039 6.25431 49.8716 6.64286C49.6387 7.03165 49.3604 7.39425 49.0356 7.73113C49.2962 7.91948 49.5809 8.08458 49.8903 8.22646C50.1993 8.36833 50.5256 8.47734 50.8701 8.55322C50.8246 8.60611 50.7732 8.6852 50.7149 8.7905C50.6571 8.89579 50.6017 8.9996 50.5503 9.10168C50.4979 9.20352 50.4598 9.28434 50.4336 9.34366C49.6343 9.0876 48.961 8.7386 48.4138 8.29691C48.128 8.5154 47.8136 8.71635 47.4701 8.89926C47.126 9.08241 46.7493 9.24405 46.3405 9.38493ZM48.4301 7.16536C48.832 6.74938 49.1231 6.31115 49.3041 5.85043L47.6856 5.86303C47.8299 6.34056 48.0781 6.77459 48.4301 7.16536Z" fill="white"/>
<path d="M52.8026 12.8955C52.7566 12.6404 52.7196 12.3243 52.6929 11.9474C52.6657 11.5707 52.6469 11.1574 52.636 10.7083C52.6251 10.2595 52.6241 9.79553 52.6325 9.31651C52.6405 8.83775 52.6592 8.36887 52.6869 7.90963C52.7151 7.45039 52.7512 7.02552 52.7962 6.63499C52.8397 6.24446 52.8945 5.91128 52.9588 5.63519L53.8363 5.81513C53.772 6.05167 53.7161 6.35569 53.6682 6.72644C53.6207 7.09744 53.5827 7.50403 53.555 7.94695C53.5268 8.38988 53.508 8.8459 53.4996 9.31478C53.4917 9.78366 53.4927 10.236 53.5031 10.672C53.5144 11.1082 53.5352 11.503 53.5654 11.8569C53.5955 12.2106 53.6331 12.499 53.6796 12.7217L52.8026 12.8955ZM56.6317 12.2855C56.1898 12.263 55.8324 12.1787 55.559 12.0334C55.2857 11.8878 55.1097 11.6678 55.0306 11.3734C54.8996 11.0333 54.9085 10.6005 55.0563 10.0748L55.8467 10.2849C55.8017 10.4298 55.781 10.5627 55.7839 10.6838C55.7879 10.8052 55.8126 10.9117 55.8581 11.0029C55.9624 11.2251 56.2748 11.3539 56.7949 11.3893C57.0875 11.4068 57.4123 11.3991 57.7697 11.3668C58.1271 11.3346 58.4781 11.2877 58.8226 11.2259C59.1662 11.1641 59.4618 11.0932 59.7085 11.0123C59.6956 11.0783 59.6847 11.175 59.6753 11.3028C59.666 11.431 59.6595 11.5588 59.6571 11.6866C59.6541 11.8146 59.6526 11.9145 59.6531 11.9867C59.3278 12.0744 58.9853 12.1429 58.6249 12.1913C58.2645 12.2403 57.9135 12.2707 57.5724 12.283C57.2314 12.2956 56.9174 12.2966 56.6317 12.2855ZM55.3519 7.51515L55.3005 6.59075C55.5412 6.61522 55.8339 6.62955 56.1784 6.63326C56.5225 6.63721 56.8833 6.62782 57.26 6.60508C57.6372 6.58259 57.9971 6.54873 58.3416 6.50325C58.6862 6.45802 58.9783 6.40487 59.2186 6.34407L59.1919 7.25884C58.9383 7.3068 58.6432 7.35005 58.3051 7.38886C57.9674 7.42766 57.6165 7.45831 57.2526 7.48055C56.8883 7.50304 56.5408 7.51714 56.2101 7.52306C55.8789 7.529 55.5921 7.52627 55.3519 7.51515Z" fill="white"/>
<path d="M61.4532 7.12337L61.4512 6.40535L65.0089 6.37766L65.0109 7.09569L61.4532 7.12337ZM61.9178 13.2576L61.9104 10.5036L64.6688 10.4821L64.6762 13.2361L61.9178 13.2576ZM61.9173 5.76222L61.9154 5.02467L64.5665 5.00415L64.5685 5.7417L61.9173 5.76222ZM61.9247 8.48674L61.9228 7.76872L64.5739 7.7482L64.5759 8.46623L61.9247 8.48674ZM61.9282 9.85408L61.9262 9.12617L64.5774 9.10565L64.5793 9.83356L61.9282 9.85408ZM62.686 12.5336L63.8947 12.5242L63.8912 11.2063L62.6826 11.2157L62.686 12.5336ZM67.1425 13.5122L67.136 11.1122L65.041 11.1282L65.0391 10.3316L67.1341 10.3155L67.1306 9.06636L65.4251 9.07946L65.4232 8.32189L67.1286 8.30879L67.1256 7.12857L65.2254 7.14315L65.2234 6.38583L66.3836 6.37693C66.2848 6.14163 66.1691 5.88853 66.0356 5.61738C65.9012 5.34624 65.7593 5.09635 65.6095 4.86797L66.3589 4.53775C66.4894 4.73994 66.6293 4.98463 66.7801 5.27209C66.9294 5.55954 67.0574 5.83069 67.1617 6.08552C67.0836 6.11246 66.9739 6.15423 66.831 6.21108C66.6881 6.26793 66.568 6.32304 66.4711 6.37619L67.7668 6.36605C67.9087 6.11592 68.0565 5.81635 68.2082 5.46735C68.3595 5.11884 68.487 4.79653 68.5908 4.50043L69.4199 4.76959C69.3165 5.02616 69.1969 5.29581 69.0615 5.57907C68.9255 5.86207 68.7896 6.12209 68.6541 6.35913L70.0575 6.34826L70.0595 7.10558L68.0125 7.12165L68.0154 8.30187L69.7506 8.28827L69.7525 9.04584L68.0174 9.05944L68.0209 10.3086L70.2825 10.2911L70.2845 11.0877L68.0229 11.1052L68.0293 13.5052L67.1425 13.5122Z" fill="white"/>
<path d="M75.3183 12.9667C74.8378 12.9704 74.4458 12.9257 74.1433 12.833C73.8407 12.7405 73.6193 12.5764 73.4794 12.3414C73.339 12.1065 73.2683 11.786 73.2673 11.3791L73.25 4.89716L74.2342 4.95845C74.2283 5.0635 74.2189 5.24714 74.2065 5.50939C74.1947 5.77188 74.1853 6.06057 74.1798 6.37522C74.1739 6.61794 74.17 6.88537 74.167 7.17703C74.165 7.46893 74.164 7.77864 74.1645 8.10638L74.1729 11.2148C74.1739 11.5361 74.2639 11.7585 74.4433 11.8816C74.6218 12.0047 74.9293 12.0648 75.3648 12.0613C75.7741 12.0581 76.1765 11.9975 76.5729 11.8799C76.9689 11.7622 77.3421 11.6068 77.6926 11.4137C78.0431 11.2209 78.3476 11.0086 78.6071 10.777C78.6135 10.8623 78.6254 10.9735 78.6422 11.1112C78.6585 11.2486 78.6783 11.3816 78.702 11.5091C78.7248 11.6367 78.7426 11.7269 78.7559 11.779C78.2888 12.1238 77.7539 12.4066 77.1498 12.6278C76.5462 12.8488 75.9357 12.9618 75.3183 12.9667Z" fill="white"/>
<path d="M86.4506 13.3327C86.3335 13.1039 86.1778 12.8443 85.986 12.5542C85.7932 12.264 85.5816 11.9607 85.3498 11.6443C85.1179 11.328 84.8821 11.0202 84.6409 10.7202C84.3992 10.4206 84.1678 10.1453 83.9463 9.89463C83.7249 9.644 83.5326 9.43713 83.3695 9.27449C83.1485 9.05327 83.0407 8.8637 83.0471 8.7065C83.0531 8.54905 83.1658 8.36763 83.3863 8.16273C83.5998 7.9645 83.848 7.71511 84.1297 7.4143C84.4115 7.11375 84.6967 6.79366 84.9849 6.45356C85.2731 6.1137 85.5371 5.77904 85.7769 5.44907C86.0166 5.11959 86.1975 4.82942 86.3206 4.57928L87.16 5.15321C87.0176 5.36404 86.8268 5.61788 86.5871 5.91498C86.3473 6.21183 86.0863 6.51708 85.805 6.83073C85.5233 7.14439 85.2489 7.44495 84.9835 7.73215C84.7175 8.01986 84.4847 8.25912 84.284 8.45092C84.1025 8.61627 84.1055 8.79324 84.2948 8.98208C84.4575 9.14472 84.6468 9.34987 84.8618 9.59728C85.0769 9.8447 85.3018 10.1136 85.5366 10.4035C85.7714 10.6937 86.0023 10.9851 86.2311 11.2783C86.4595 11.5717 86.6676 11.8472 86.857 12.1048C87.0463 12.3626 87.1961 12.5791 87.3073 12.7556C87.2356 12.7887 87.1412 12.8404 87.025 12.9098C86.9079 12.9798 86.7962 13.0544 86.6894 13.134C86.5821 13.2133 86.503 13.2796 86.4506 13.3327Z" fill="white"/>
<path d="M60.8379 18.9551H0V0H121V18.2375H119.565V1.43506H1.43456V17.52H60.8379V18.9551Z" fill="white"/>
<path d="M65.3745 24.0675L64.1406 23.3344L67.596 17.52H120.999V18.9551H68.4127L65.3745 24.0675Z" fill="white"/>
<path d="M21.2106 3.96925L19.9648 4.68109L25.9809 15.2092L27.2266 14.4974L21.2106 3.96925Z" fill="#FFEE00"/>
<path d="M98.5747 3.96926L92.5586 14.4974L93.8043 15.2092L99.8204 4.68111L98.5747 3.96926Z" fill="#FFEE00"/>
</g>
<defs>
<clipPath id="clip0_1761_238">
<rect width="121" height="42.3343" fill="white"/>
</clipPath>
</defs>
</svg>
