<svg width="403" height="29" viewBox="0 0 403 29" fill="none" xmlns="http://www.w3.org/2000/svg">
<path d="M399.953 18.1067V4.27751H398.749V0.650574H396.198V2.46633H392.802V4.3664H391.907V20.1939H388.913V5.9108H388.018L386.813 3.14489L383.238 3.09816L382.43 5.77506H381.268V22.37H378.587V12.94H376.262V14.9336H374.204V8.62986H370.421V24.7801H368.077V16.0849L360.552 13.3565V17.7557H358.208V9.26158H357.064V7.9465H355.915V9.35984H354.074V3.09348H350.632V22.1501H348.837V5.72353H346.793V4.15583H344.505V5.82191H340.814L338.323 2.5366H335.43V23.4183H333.455V6.36474H332.754V3.86562L329.257 4.6613V6.38347H327.96L326.881 4.06214H323.72L322.668 6.50972H322.151V21.8319H319.72V6.229H315.9V7.7406H312.412V6.62215H307.987V22.6742H305.773V6.50972L301.459 3.92651L297.472 6.229V18.1253H295.096V5.04965H292.605V2.97179H290.169V4.76893H288.397V20.7086H286.021V5.89206H277.287V23.5681H274.879V21.4809H273.822V16.1271L265.882 13.7823V17.8071H263.469V9.50026H262.362V8.27407H261.407V9.39732H259.247V3.68784H255.427V22.2952H254.121V6.23837H251.861V4.30093H250.25V5.92954H246.481L244.123 2.31197H241.208V23.7226H238.541V6.59405L237.992 6.23837V4.04351L234.573 4.8625V6.54252H233.166L232.211 4.2494H229.244L228.34 6.64546H227.537V21.5276H224.976V6.33663H220.902V7.86697H217.234V6.54252H213.769V22.8052H211.458V6.59405L206.83 3.89372L202.207 6.13542V18.4716H199.748V5.37254H198.189V2.97648H196.03V5.32112H193.617V20.5309H191.605V8.97605C191.605 7.8015 190.664 6.84678 189.51 6.84678H184.075C182.917 6.84678 181.981 7.8015 181.981 8.97605V23.5728H179.641V21.5229H178.756V17.4186L174.146 15.9492V19.2767H171.115V22.4823H169.311V7.3054H164.024V3.79078H159.618V18.4202H156.185V16.8899L157.375 15.8275V13.305H156.36V12.2754H157.343V9.75768H156.397V8.51286H157.131V6.13542L156.222 5.88738L156.259 4.92797L157.242 4.82034V1.80182H148.808V20.8584H146.473V6.18227L144.42 6.24305L141.859 2.08254H138.27V16.7588H135.419V1.96554H134.796V0H130.634V1.90944H129.781V18.7806H126.934V5.08713H125.85V1.44614H123.4V3.23858H119.639V5.20413H118.957V20.8022H116.336V6.58936H115.196L114.001 3.58478H110.412L109.272 6.52846L108.248 6.53966V22.941H105.401V13.6934H102.892V15.3127H101.24V9.47684H97.4242V25.6553H94.8636V16.5248L87.5138 14.1007V18.8367H85.35V9.65005H84.1504V8.1477H82.9001V9.47684H81.133V4.1043H77.6588V22.4496H76.0071V6.37411H73.7141V4.76893H71.4164V6.33663H67.8407L65.4693 2.85948H62.6088V23.7226H60.4218V6.90756H59.8959V4.46466L56.0572 5.26959V6.72041H54.8161L53.9118 4.61914H50.673L49.8471 6.72041H49.1319V22.0659H46.6082V6.98709H45.93V5.84053H43.4109V6.87009H42.3913V8.29749H39.3416V6.87009H35.2768V23.3574H32.8269V7.02925L28.4854 4.35235L24.1853 7.1603V18.5185H21.6708V5.58311H19.8853V3.25252H16.9048V5.32581H15.7098V21.2608H12.6463V6.14479H10.0488V4.76412H6.6438V6.14479H3.57566V23.7226H0V28.6505H402.726V18.1067L399.953 18.1067ZM11.4254 14.0621H4.99474V13.2876H11.4254V14.0621ZM11.4254 12.4266H4.99474V11.652H11.4254V12.4266ZM11.4254 10.791H4.99474V10.0165H11.4254V10.791ZM11.4254 9.15543H4.99474V8.38089H11.4254V9.15543ZM26.8244 18.7197H25.2973V17.1707H26.8244V18.7197ZM26.8244 16.3096H25.2973V14.7605H26.8244V16.3096ZM26.8244 13.8993H25.2973V12.3457H26.8244V13.8993ZM26.8244 11.4845H25.2973V9.93546H26.8244V11.4845ZM26.8244 9.07443H25.2973V7.52535H26.8244V9.07443ZM29.1913 18.7197H27.6595V17.1707H29.1913V18.7197ZM29.1913 16.3096H27.6595V14.7605H29.1913V16.3096ZM29.1913 13.8993H27.6595V12.3457H29.1913V13.8993ZM29.1913 11.4845H27.6595V9.93546H29.1913V11.4845ZM29.1913 9.07443H27.6595V7.52535H29.1913V9.07443ZM31.5535 18.7197H30.0264V17.1707H31.5535V18.7197ZM31.5535 16.3096H30.0264V14.7605H31.5535V16.3096ZM31.5535 13.8993H30.0264V12.3457H31.5535V13.8993ZM31.5535 11.4845H30.0264V9.93546H31.5535V11.4845ZM31.5535 9.07443H30.0264V7.52535H31.5535V9.07443ZM37.856 21.1346H36.1214V19.5855H37.856V21.1346ZM37.856 18.7221H36.1214V17.173H37.856V18.7221ZM37.856 16.3096H36.1214V14.7605H37.856V16.3096ZM37.856 13.8971H36.1214V12.348H37.856V13.8971ZM37.856 11.4845H36.1214V9.93546H37.856V11.4845ZM40.428 21.1346H38.6934V19.5855H40.428V21.1346ZM40.428 18.7221H38.6934V17.173H40.428V18.7221ZM40.428 16.3096H38.6934V14.7605H40.428V16.3096ZM40.428 13.8971H38.6934V12.348H40.428V13.8971ZM40.428 11.4845H38.6934V9.93546H40.428V11.4845ZM43 21.1346H41.2654V19.5855H43V21.1346ZM43 18.7221H41.2654V17.173H43V18.7221ZM43 16.3096H41.2654V14.7605H43V16.3096ZM43 13.8971H41.2654V12.348H43V13.8971ZM43 11.4845H41.2654V9.93546H43V11.4845ZM45.572 21.1346H43.8374V19.5855H45.572V21.1346ZM45.572 18.7221H43.8374V17.173H45.572V18.7221ZM45.572 16.3096H43.8374V14.7605H45.572V16.3096ZM45.572 13.8971H43.8374V12.348H45.572V13.8971ZM45.572 11.4845H43.8374V9.93546H45.572V11.4845ZM54.7188 16.6922H50.2307V15.9084H54.7188V16.6922ZM54.7188 15.5258H50.2307V14.742H54.7188V15.5258ZM54.7188 13.8971H50.2307V13.1133H54.7188V13.8971ZM54.7188 12.7306H50.2307V11.9468H54.7188V12.7306ZM54.7188 11.1019H50.2307V10.3181H54.7188V11.1019ZM54.7188 9.93546H50.2307V9.15166H54.7188V9.93546ZM64.7968 20.3597H63.7407V19.2884H64.7968V20.3597ZM64.7968 18.8804H63.7407V17.8092H64.7968V18.8804ZM64.7968 16.9292H63.7407V15.8579H64.7968V16.9292ZM64.7968 15.4499H63.7407V14.3786H64.7968V15.4499ZM64.7968 13.4986H63.7407V12.4275H64.7968V13.4986ZM64.7968 12.0194H63.7407V10.9481H64.7968V12.0194ZM64.7968 10.0681H63.7407V8.99696H64.7968V10.0681ZM64.7968 8.58884H63.7407V7.51758H64.7968V8.58884ZM66.3809 20.3597H65.3248V19.2884H66.3809V20.3597ZM66.3809 18.8804H65.3248V17.8092H66.3809V18.8804ZM66.3809 16.9292H65.3248V15.8579H66.3809V16.9292ZM66.3809 15.4499H65.3248V14.3786H66.3809V15.4499ZM66.3809 13.4986H65.3248V12.4275H66.3809V13.4986ZM66.3809 12.0194H65.3248V10.9481H66.3809V12.0194ZM66.3809 10.0681H65.3248V8.99696H66.3809V10.0681ZM66.3809 8.58884H65.3248V7.51758H66.3809V8.58884ZM69.0086 20.3597H67.9525V19.2884H69.0086V20.3597ZM69.0086 18.8804H67.9525V17.8092H69.0086V18.8804ZM69.0086 16.9292H67.9525V15.8579H69.0086V16.9292ZM69.0086 15.4499H67.9525V14.3786H69.0086V15.4499ZM69.0086 13.4986H67.9525V12.4275H69.0086V13.4986ZM69.0086 12.0194H67.9525V10.9481H69.0086V12.0194ZM69.0086 10.0681H67.9525V8.99696H69.0086V10.0681ZM69.0086 8.58884H67.9525V7.51758H69.0086V8.58884ZM70.5927 20.3597H69.5366V19.2884H70.5927V20.3597ZM70.5927 18.8804H69.5366V17.8092H70.5927V18.8804ZM70.5927 16.9292H69.5366V15.8579H70.5927V16.9292ZM70.5927 15.4499H69.5366V14.3786H70.5927V15.4499ZM70.5927 13.4986H69.5366V12.4275H70.5927V13.4986ZM70.5927 12.0194H69.5366V10.9481H70.5927V12.0194ZM70.5927 10.0681H69.5366V8.99696H70.5927V10.0681ZM70.5927 8.58884H69.5366V7.51758H70.5927V8.58884ZM73.2204 20.3597H72.1643V19.2884H73.2204V20.3597ZM73.2204 18.8804H72.1643V17.8092H73.2204V18.8804ZM73.2204 16.9292H72.1643V15.8579H73.2204V16.9292ZM73.2204 15.4499H72.1643V14.3786H73.2204V15.4499ZM73.2204 13.4986H72.1643V12.4275H73.2204V13.4986ZM73.2204 12.0194H72.1643V10.9481H73.2204V12.0194ZM73.2204 10.0681H72.1643V8.99696H73.2204V10.0681ZM73.2204 8.58884H72.1643V7.51758H73.2204V8.58884ZM74.8045 20.3597H73.7484V19.2884H74.8045V20.3597ZM74.8045 18.8804H73.7484V17.8092H74.8045V18.8804ZM74.8045 16.9292H73.7484V15.8579H74.8045V16.9292ZM74.8045 15.4499H73.7484V14.3786H74.8045V15.4499ZM74.8045 13.4986H73.7484V12.4275H74.8045V13.4986ZM74.8045 12.0194H73.7484V10.9481H74.8045V12.0194ZM74.8045 10.0681H73.7484V8.99696H74.8045V10.0681ZM74.8045 8.58884H73.7484V7.51758H74.8045V8.58884ZM80.4763 9.75699H78.284V8.58884H80.4763V9.75699ZM80.4763 7.89485H78.284V6.72681H80.4763V7.89485ZM80.4763 6.03282H78.284V4.86467H80.4763V6.03282ZM100.651 20.5607H98.0275V20.0705H100.651V20.5607ZM100.651 19.3003H98.0275V18.8102H100.651V19.3003ZM100.651 18.04H98.0275V17.5498H100.651V18.04ZM100.651 16.7797H98.0275V16.2896H100.651V16.7797ZM100.651 15.5194H98.0275V15.0292H100.651V15.5194ZM100.651 14.259H98.0275V13.7689H100.651V14.259ZM100.651 12.9988H98.0275V12.5086H100.651V12.9988ZM100.651 11.7384H98.0275V11.2483H100.651V11.7384ZM114.955 13.8507H109.714V13.121H114.955V13.8507ZM114.955 12.5353H109.714V11.8057H114.955V12.5353ZM114.955 11.22H109.714V10.4904H114.955V11.22ZM114.955 9.90472H109.714V9.17509H114.955V9.90472ZM114.955 8.58941H109.714V7.85977H114.955V8.58941ZM121.119 16.6609H120.281V14.9787H121.119V16.6609ZM121.119 14.4096H120.281V12.7273H121.119V14.4096ZM121.119 12.1583H120.281V10.476H121.119V12.1583ZM121.119 9.90689H120.281V8.22459H121.119V9.90689ZM121.119 7.65548H120.281V5.97329H121.119V7.65548ZM122.608 16.6609H121.769V14.9787H122.608V16.6609ZM122.608 14.4096H121.769V12.7273H122.608V14.4096ZM122.608 12.1583H121.769V10.476H122.608V12.1583ZM122.608 9.90689H121.769V8.22459H122.608V9.90689ZM122.608 7.65548H121.769V5.97329H122.608V7.65548ZM124.096 16.6609H123.258V14.9787H124.096V16.6609ZM124.096 14.4096H123.258V12.7273H124.096V14.4096ZM124.096 12.1583H123.258V10.476H124.096V12.1583ZM124.096 9.90689H123.258V8.22459H124.096V9.90689ZM124.096 7.65548H123.258V5.97329H124.096V7.65548ZM125.584 16.6609H124.746V14.9787H125.584V16.6609ZM125.584 14.4096H124.746V12.7273H125.584V14.4096ZM125.584 12.1583H124.746V10.476H125.584V12.1583ZM125.584 9.90689H124.746V8.22459H125.584V9.90689ZM125.584 7.65548H124.746V5.97329H125.584V7.65548ZM131.256 9.51751H130.576V8.8274H131.256V9.51751ZM131.256 8.62231H130.576V7.9321H131.256V8.62231ZM131.256 7.72701H130.576V7.03679H131.256V7.72701ZM131.256 6.8317H130.576V6.14159H131.256V6.8317ZM131.256 5.93639H130.576V5.24628H131.256V5.93639ZM131.256 5.04108H130.576V4.35098H131.256V5.04108ZM131.256 4.14577H130.576V3.45567H131.256V4.14577ZM131.256 3.25047H130.576V2.56036H131.256V3.25047ZM132.198 9.51751H131.518V8.8274H132.198V9.51751ZM132.198 8.62231H131.518V7.9321H132.198V8.62231ZM132.198 7.72701H131.518V7.03679H132.198V7.72701ZM132.198 6.8317H131.518V6.14159H132.198V6.8317ZM132.198 5.93639H131.518V5.24628H132.198V5.93639ZM132.198 5.04108H131.518V4.35098H132.198V5.04108ZM132.198 4.14577H131.518V3.45567H132.198V4.14577ZM132.198 3.25047H131.518V2.56036H132.198V3.25047ZM133.561 9.51751H132.942V2.56036H133.561V9.51751ZM134.696 9.51751H134.077V2.56036H134.696V9.51751ZM138.893 2.82235H141.186V3.25046H138.893V2.82235ZM138.893 3.82483H142.048V4.25306H138.893V3.82483ZM138.893 4.82742H142.732V5.25553H138.893V4.82742ZM141.997 8.79233H141.347V8.13353H141.997V8.79233ZM141.997 7.94386H141.347V7.28518H141.997V7.94386ZM142.93 8.79233H142.28V8.13353H142.93V8.79233ZM142.93 7.94386H142.28V7.28518H142.93V7.94386ZM143.349 6.25813H138.893V5.8299H143.349V6.25813ZM144.349 8.79233H143.699V8.13353H144.349V8.79233ZM144.349 7.94386H143.699V7.28518H144.349V7.94386ZM145.281 8.79233H144.632V8.13353H145.281V8.79233ZM145.281 7.94386H144.632V7.28518H145.281V7.94386ZM152.311 10.3147H149.584V9.94471H152.311V10.3147ZM152.311 9.12755H149.584V8.75771H152.311V9.12755ZM152.311 7.94044H149.584V7.57059H152.311V7.94044ZM152.311 6.75343H149.584V6.38359H152.311V6.75343ZM152.311 5.56631H149.584V5.19647H152.311V5.56631ZM152.311 4.37931H149.584V4.00935H152.311V4.37931ZM152.311 3.19219H149.584V2.82235H152.311V3.19219ZM155.629 10.3147H152.902V9.94471H155.629V10.3147ZM155.629 9.12755H152.902V8.75771H155.629V9.12755ZM155.629 7.94044H152.902V7.57059H155.629V7.94044ZM155.629 6.75343H152.902V6.38359H155.629V6.75343ZM155.629 5.56631H152.902V5.19647H155.629V5.56631ZM155.629 4.37931H152.902V4.00935H155.629V4.37931ZM155.629 3.19219H152.902V2.82235H155.629V3.19219ZM163.299 11.8091H160.381V11.2772H163.299V11.8091ZM163.299 10.499H160.381V9.96699H163.299V10.499ZM163.299 9.1888H160.381V8.65682H163.299V9.1888ZM163.299 7.87862H160.381V7.34665H163.299V7.87862ZM163.299 6.56845H160.381V6.03648H163.299V6.56845ZM163.299 5.25828H160.381V4.72631H163.299V5.25828ZM165.269 12.136H164.475V11.331H165.269V12.136ZM165.269 11.065H164.475V10.2598H165.269V11.065ZM165.269 9.99384H164.475V9.1888H165.269V9.99384ZM165.269 8.92281H164.475V8.11776H165.269V8.92281ZM166.32 12.136H165.526V11.331H166.32V12.136ZM166.32 11.065H165.526V10.2598H166.32V11.065ZM166.32 9.99384H165.526V9.1888H166.32V9.99384ZM166.32 8.92281H165.526V8.11776H166.32V8.92281ZM167.371 12.136H166.577V11.331H167.371V12.136ZM167.371 11.065H166.577V10.2598H167.371V11.065ZM167.371 9.99384H166.577V9.1888H167.371V9.99384ZM167.371 8.92281H166.577V8.11776H167.371V8.92281ZM168.422 12.136H167.628V11.331H168.422V12.136ZM168.422 11.065H167.628V10.2598H168.422V11.065ZM168.422 9.99384H167.628V9.1888H168.422V9.99384ZM168.422 8.92281H167.628V8.11776H168.422V8.92281ZM190.169 13.1664H183.494V12.5779H190.169V13.1664ZM190.169 11.7254H183.494V11.1369H190.169V11.7254ZM190.169 10.2844H183.494V9.69586H190.169V10.2844ZM190.169 8.8434H183.494V8.25487H190.169V8.8434ZM205.184 15.2232H203.547V13.7359H205.184V15.2232ZM205.184 12.9676H203.547V11.4803H205.184V12.9676ZM205.184 10.7121H203.547V9.22478H205.184V10.7121ZM205.184 8.45642H203.547V6.96915H205.184V8.45642ZM207.628 15.2232H205.991V13.7359H207.628V15.2232ZM207.628 12.9676H205.991V11.4803H207.628V12.9676ZM207.628 10.7121H205.991V9.22478H207.628V10.7121ZM207.628 8.45642H205.991V6.96915H207.628V8.45642ZM210.072 15.2232H208.434V13.7359H210.072V15.2232ZM210.072 12.9676H208.434V11.4803H210.072V12.9676ZM210.072 10.7121H208.434V9.22478H210.072V10.7121ZM210.072 8.45642H208.434V6.96915H210.072V8.45642ZM216.425 19.8708H214.788V18.3835H216.425V19.8708ZM216.425 17.64H214.788V16.1527H216.425V17.64ZM216.425 15.4091H214.788V13.922H216.425V15.4091ZM216.425 13.1783H214.788V11.6911H216.425V13.1783ZM216.425 10.9474H214.788V9.46027H216.425V10.9474ZM218.942 19.8708H217.305V18.3835H218.942V19.8708ZM218.942 17.64H217.305V16.1527H218.942V17.64ZM218.942 15.4091H217.305V13.922H218.942V15.4091ZM218.942 13.1783H217.305V11.6911H218.942V13.1783ZM218.942 10.9474H217.305V9.46027H218.942V10.9474ZM221.459 19.8708H219.822V18.3835H221.459V19.8708ZM221.459 17.64H219.822V16.1527H221.459V17.64ZM221.459 15.4091H219.822V13.922H221.459V15.4091ZM221.459 13.1783H219.822V11.6911H221.459V13.1783ZM221.459 10.9474H219.822V9.46027H221.459V10.9474ZM223.976 19.8708H222.339V18.3835H223.976V19.8708ZM223.976 17.64H222.339V16.1527H223.976V17.64ZM223.976 15.4091H222.339V13.922H223.976V15.4091ZM223.976 13.1783H222.339V11.6911H223.976V13.1783ZM223.976 10.9474H222.339V9.46027H223.976V10.9474ZM233.115 16.8963H228.497V16.1279H233.115V16.8963ZM233.115 15.6075H228.497V14.839H233.115V15.6075ZM233.115 13.7484H228.497V12.98H233.115V13.7484ZM233.115 12.4595H228.497V11.6911H233.115V12.4595ZM233.115 10.5881H228.497V9.81971H233.115V10.5881ZM233.115 9.29917H228.497V8.53068H233.115V9.29917ZM244.904 18.9999H243.267V17.5128H244.904V18.9999ZM244.904 16.7692H243.267V15.2819H244.904V16.7692ZM244.904 14.5384H243.267V13.0511H244.904V14.5384ZM244.904 12.3075H243.267V10.8204H244.904V12.3075ZM244.904 10.0767H243.267V8.58953H244.904V10.0767ZM247.421 18.9999H245.784V17.5128H247.421V18.9999ZM247.421 16.7692H245.784V15.2819H247.421V16.7692ZM247.421 14.5384H245.784V13.0511H247.421V14.5384ZM247.421 12.3075H245.784V10.8204H247.421V12.3075ZM247.421 10.0767H245.784V8.58953H247.421V10.0767ZM249.938 18.9999H248.301V17.5128H249.938V18.9999ZM249.938 16.7692H248.301V15.2819H249.938V16.7692ZM249.938 14.5384H248.301V13.0511H249.938V14.5384ZM249.938 12.3075H248.301V10.8204H249.938V12.3075ZM249.938 10.0767H248.301V8.58953H249.938V10.0767ZM252.455 18.9999H250.818V17.5128H252.455V18.9999ZM252.455 16.7692H250.818V15.2819H252.455V16.7692ZM252.455 14.5384H250.818V13.0511H252.455V14.5384ZM252.455 12.3075H250.818V10.8204H252.455V12.3075ZM252.455 10.0767H250.818V8.58953H252.455V10.0767ZM284.804 14.2495H278.532V13.5351H284.804V14.2495ZM284.804 12.3103H278.532V11.5957H284.804V12.3103ZM284.804 10.3709H278.532V9.65633H284.804V10.3709ZM284.804 8.43151H278.532V7.71695H284.804V8.43151ZM299.842 14.6726H298.586V13.3984H299.842V14.6726ZM299.842 12.518H298.586V11.2438H299.842V12.518ZM299.842 10.3633H298.586V9.08916H299.842V10.3633ZM299.842 8.20871H298.586V6.93453H299.842V8.20871ZM302.217 14.6726H300.961V13.3984H302.217V14.6726ZM302.217 12.518H300.961V11.2438H302.217V12.518ZM302.217 10.3633H300.961V9.08916H302.217V10.3633ZM302.217 8.20871H300.961V6.93453H302.217V8.20871ZM304.593 14.6726H303.336V13.3984H304.593V14.6726ZM304.593 12.518H303.336V11.2438H304.593V12.518ZM304.593 10.3633H303.336V9.08916H304.593V10.3633ZM304.593 8.20871H303.336V6.93453H304.593V8.20871ZM310.766 20.6986H309.077V19.2768H310.766V20.6986ZM310.766 18.6903H309.077V17.2685H310.766V18.6903ZM310.766 16.682H309.077V15.2604H310.766V16.682ZM310.766 14.6738H309.077V13.252H310.766V14.6738ZM310.766 12.6656H309.077V11.2438H310.766V12.6656ZM310.766 10.6573H309.077V9.23552H310.766V10.6573ZM313.426 20.6986H311.736V19.2768H313.426V20.6986ZM313.426 18.6903H311.736V17.2685H313.426V18.6903ZM313.426 16.682H311.736V15.2604H313.426V16.682ZM313.426 14.6738H311.736V13.252H313.426V14.6738ZM313.426 12.6656H311.736V11.2438H313.426V12.6656ZM313.426 10.6573H311.736V9.23552H313.426V10.6573ZM316.085 20.6986H314.396V19.2768H316.085V20.6986ZM316.085 18.6903H314.396V17.2685H316.085V18.6903ZM316.085 16.682H314.396V15.2604H316.085V16.682ZM316.085 14.6738H314.396V13.252H316.085V14.6738ZM316.085 12.6656H314.396V11.2438H316.085V12.6656ZM316.085 10.6573H314.396V9.23552H316.085V10.6573ZM318.745 20.6986H317.056V19.2768H318.745V20.6986ZM318.745 18.6903H317.056V17.2685H318.745V18.6903ZM318.745 16.682H317.056V15.2604H318.745V16.682ZM318.745 14.6738H317.056V13.252H318.745V14.6738ZM318.745 12.6656H317.056V11.2438H318.745V12.6656ZM318.745 10.6573H317.056V9.23552H318.745V10.6573ZM327.604 16.1489H322.896V15.4225H327.604V16.1489ZM327.604 14.8899H322.896V14.1635H327.604V14.8899ZM327.604 13.2293H322.896V12.5028H327.604V13.2293ZM327.604 11.9702H322.896V11.2438H327.604V11.9702ZM327.604 10.3096H322.896V9.5832H327.604V10.3096ZM327.604 9.05055H322.896V8.32411H327.604V9.05055ZM337.574 20.2546H336.468V19.1328H337.574V20.2546ZM337.574 18.7209H336.468V17.5992H337.574V18.7209ZM337.574 16.6305H336.468V15.5087H337.574V16.6305ZM337.574 15.0969H336.468V13.9751H337.574V15.0969ZM337.574 13.0064H336.468V11.8847H337.574V13.0064ZM337.574 11.4728H336.468V10.351H337.574V11.4728ZM337.574 9.38234H336.468V8.26058H337.574V9.38234ZM337.574 7.84869H336.468V6.72704H337.574V7.84869ZM339.243 20.2546H338.137V19.1328H339.243V20.2546ZM339.243 18.7209H338.137V17.5992H339.243V18.7209ZM339.243 16.6305H338.137V15.5087H339.243V16.6305ZM339.243 15.0969H338.137V13.9751H339.243V15.0969ZM339.243 13.0064H338.137V11.8847H339.243V13.0064ZM339.243 11.4728H338.137V10.351H339.243V11.4728ZM339.243 9.38234H338.137V8.26058H339.243V9.38234ZM339.243 7.84869H338.137V6.72704H339.243V7.84869ZM341.843 20.2546H340.737V19.1328H341.843V20.2546ZM341.843 18.7209H340.737V17.5992H341.843V18.7209ZM341.843 16.6305H340.737V15.5087H341.843V16.6305ZM341.843 15.0969H340.737V13.9751H341.843V15.0969ZM341.843 13.0064H340.737V11.8847H341.843V13.0064ZM341.843 11.4728H340.737V10.351H341.843V11.4728ZM341.843 9.38234H340.737V8.26058H341.843V9.38234ZM341.843 7.84869H340.737V6.72704H341.843V7.84869ZM343.511 20.2546H342.406V19.1328H343.511V20.2546ZM343.511 18.7209H342.406V17.5992H343.511V18.7209ZM343.511 16.6305H342.406V15.5087H343.511V16.6305ZM343.511 15.0969H342.406V13.9751H343.511V15.0969ZM343.511 13.0064H342.406V11.8847H343.511V13.0064ZM343.511 11.4728H342.406V10.351H343.511V11.4728ZM343.511 9.38234H342.406V8.26058H343.511V9.38234ZM343.511 7.84869H342.406V6.72704H343.511V7.84869ZM346.112 20.2546H345.006V19.1328H346.112V20.2546ZM346.112 18.7209H345.006V17.5992H346.112V18.7209ZM346.112 16.6305H345.006V15.5087H346.112V16.6305ZM346.112 15.0969H345.006V13.9751H346.112V15.0969ZM346.112 13.0064H345.006V11.8847H346.112V13.0064ZM346.112 11.4728H345.006V10.351H346.112V11.4728ZM346.112 9.38234H345.006V8.26058H346.112V9.38234ZM346.112 7.84869H345.006V6.72704H346.112V7.84869ZM347.78 20.2546H346.675V19.1328H347.78V20.2546ZM347.78 18.7209H346.675V17.5992H347.78V18.7209ZM347.78 16.6305H346.675V15.5087H347.78V16.6305ZM347.78 15.0969H346.675V13.9751H347.78V15.0969ZM347.78 13.0064H346.675V11.8847H347.78V13.0064ZM347.78 11.4728H346.675V10.351H347.78V11.4728ZM347.78 9.38234H346.675V8.26058H347.78V9.38234ZM347.78 7.84869H346.675V6.72704H347.78V7.84869ZM373.483 19.3009H370.972V18.9801H373.483V19.3009ZM373.483 18.1214H370.972V17.8006H373.483V18.1214ZM373.483 16.942H370.972V16.6211H373.483V16.942ZM373.483 15.7625H370.972V15.4417H373.483V15.7625ZM373.483 14.583H370.972V14.2622H373.483V14.583ZM373.483 13.4036H370.972V13.0827H373.483V13.4036ZM373.483 12.2241H370.972V11.9033H373.483V12.2241ZM373.483 11.0447H370.972V10.7238H373.483V11.0447ZM373.483 9.86519H370.972V9.54436H373.483V9.86519ZM383.511 8.34216H382.101V6.91259H383.511V8.34216ZM385.681 10.2591H384.272V8.82957H385.681V10.2591ZM387.852 12.1761H386.443V10.7466H387.852V12.1761ZM394.268 15.9903H393.413V14.2556H394.268V15.9903ZM394.268 13.7538H393.413V12.0189H394.268V13.7538ZM394.268 11.5172H393.413V9.78247H394.268V11.5172ZM394.268 9.28066H393.413V7.5458H394.268V9.28066ZM394.268 7.0441H393.413V5.30935H394.268V7.0441ZM395.731 15.9903H394.876V14.2556H395.731V15.9903ZM395.731 13.7538H394.876V12.0189H395.731V13.7538ZM395.731 11.5172H394.876V9.78247H395.731V11.5172ZM395.731 9.28066H394.876V7.5458H395.731V9.28066ZM395.731 7.0441H394.876V5.30935H395.731V7.0441ZM397.195 15.9903H396.34V14.2556H397.195V15.9903ZM397.195 13.7538H396.34V12.0189H397.195V13.7538ZM397.195 11.5172H396.34V9.78247H397.195V11.5172ZM397.195 9.28066H396.34V7.5458H397.195V9.28066ZM397.195 7.0441H396.34V5.30935H397.195V7.0441ZM398.659 15.9903H397.804V14.2556H398.659V15.9903ZM398.659 13.7538H397.804V12.0189H398.659V13.7538ZM398.659 11.5172H397.804V9.78247H398.659V11.5172ZM398.659 9.28066H397.804V7.5458H398.659V9.28066ZM398.659 7.0441H397.804V5.30935H398.659V7.0441Z" fill="black"/>
</svg>
