<svg width="249" height="53" viewBox="0 0 249 53" fill="none" xmlns="http://www.w3.org/2000/svg">
<path d="M173.47 51.9786C173.198 51.9242 173.017 51.7611 172.89 51.4711C172.782 51.1993 172.691 50.9818 172.618 50.855C172.492 49.7857 172.854 48.8615 173.67 48.0822C173.796 48.0278 173.96 48.0641 174.177 48.1547C174.956 47.9191 175.627 48.209 176.134 49.0246C176.37 49.3689 176.515 49.7132 176.569 50.0213C176.605 50.3475 176.587 50.6556 176.479 50.9456C175.736 51.8517 174.721 52.196 173.47 51.9786ZM173.688 49.532C173.253 49.7495 173.144 50.3113 173.362 51.2355C174.376 51.3443 175.246 51.0906 175.953 50.5106C175.627 49.532 175.246 48.9883 174.793 48.8615C174.34 48.7346 173.978 48.9702 173.688 49.532Z" fill="white"/>
<path d="M155.891 41.0866C155.583 40.9779 155.402 40.8148 155.348 40.6154C155.348 40.4161 155.456 40.3073 155.674 40.3073C157.921 40.1261 160.078 39.8724 162.144 39.5643C161.872 37.9333 161.799 37.0996 161.962 37.0271C162.107 36.9546 162.252 36.9365 162.397 36.9365C162.524 36.9365 162.76 37.7702 163.068 39.4193C164.663 39.2381 165.659 39.1112 166.076 39.0569C166.475 39.0025 166.729 39.0388 166.837 39.22C166.928 39.3831 166.982 39.5099 166.946 39.5824C166.928 39.673 166.692 39.7455 166.239 39.818C165.804 39.8905 164.753 40.0174 163.122 40.2167C163.159 43.8594 162.869 46.614 162.307 48.4807C161.727 50.3473 161.328 51.3984 161.147 51.634C160.966 51.8696 160.766 51.9783 160.585 51.9783C160.404 51.9602 160.295 51.9059 160.277 51.7971C160.259 51.6884 160.404 51.2897 160.748 50.601C161.093 49.8942 161.401 48.8431 161.709 47.4296C161.401 47.7739 161.147 48.0276 160.948 48.1726C160.748 48.3176 160.476 48.3357 160.132 48.2451C158.773 47.502 158.211 46.3784 158.447 44.8743C158.682 43.7506 159.262 42.917 160.168 42.3371C160.549 42.1921 160.875 42.1921 161.129 42.3552C161.383 42.5364 161.727 42.8808 162.126 43.4244C162.198 42.319 162.252 41.3041 162.252 40.3617C160.223 40.6517 158.102 40.8873 155.891 41.0866ZM160.186 47.4114C161.6 46.904 162.126 45.726 161.763 43.8956C161.546 43.6419 161.31 43.4244 161.074 43.2432C160.839 43.062 160.567 43.0801 160.259 43.2976C159.371 44.2037 159.063 45.273 159.335 46.5415C159.57 46.9584 159.86 47.2483 160.186 47.4114Z" fill="white"/>
<path d="M147.627 42.6995C147.5 42.3189 147.41 41.9202 147.337 41.5577C147.301 41.2678 147.319 41.0865 147.41 41.0322C147.5 40.9778 147.645 40.9778 147.827 41.0684C148.008 41.1409 148.135 41.3584 148.189 41.7027C148.243 42.047 148.425 42.4276 148.751 42.8626C149.095 43.2794 149.077 43.6056 148.715 43.8412C148.388 43.8231 148.008 43.4244 147.627 42.6995ZM149.748 39.8542C149.947 39.7817 150.11 39.818 150.273 39.9448C150.454 40.0898 150.581 40.416 150.672 40.9416C150.763 41.4852 150.926 41.9021 151.143 42.2283C151.361 42.5364 151.397 42.7357 151.252 42.8082C151.107 42.8988 150.962 42.8626 150.799 42.7176C149.947 41.9564 149.603 41.0141 149.748 39.8542ZM138.548 42.4095C138.421 42.482 138.258 42.4639 138.059 42.3733C137.859 42.3008 137.714 42.1739 137.642 42.0108C137.551 41.8658 137.551 41.7208 137.605 41.6121C137.732 41.449 137.914 41.3765 138.131 41.3946C138.348 41.4309 138.602 41.4128 138.892 41.3584C141.792 40.561 144.583 39.6186 147.247 38.5312C147.591 38.5312 147.772 38.64 147.809 38.8575C147.845 39.0749 147.79 39.2743 147.664 39.4193C147.555 39.5642 147.428 39.673 147.283 39.7455C145.561 41.159 144.383 42.7538 143.749 44.5117C143.133 46.2696 142.988 47.4657 143.35 48.1C143.695 48.7343 143.93 49.133 144.039 49.278C144.148 49.4411 144.275 49.4773 144.456 49.4049C144.637 49.3142 144.8 49.3142 144.963 49.4049C145.144 49.4773 145.072 49.7854 144.8 50.3291C144.365 50.4016 143.803 50.1479 143.115 49.5136C142.426 48.8974 142.227 47.6107 142.499 45.6535C142.68 44.4211 143.042 43.4425 143.586 42.6813C144.111 41.9202 144.51 41.4309 144.764 41.2134C145 41.0141 145.126 40.7422 145.126 40.3798C142.843 40.9959 140.65 41.6665 138.548 42.4095Z" fill="white"/>
<path d="M125.391 49.4411C125.862 48.9337 126.206 48.5531 126.387 48.2812C127.547 45.5991 128 43.4606 127.765 41.8477C127.511 40.2529 127.257 39.383 126.967 39.2743C126.696 39.0387 126.641 38.8212 126.841 38.5856C127.819 38.8575 128.399 39.528 128.58 40.5972C129.033 44.2399 128.182 47.5201 126.025 50.4197C125.844 50.3654 125.681 50.311 125.518 50.2566C125.354 50.2023 125.318 49.9304 125.391 49.4411ZM120.987 38.5312C121.313 38.5312 121.603 38.6581 121.839 38.9481C121.639 39.8361 121.531 40.9416 121.531 42.2283C121.531 43.515 121.603 44.5842 121.748 45.3997H122.038C123.18 44.3486 124.068 43.4244 124.702 42.627C124.793 42.6813 124.92 42.7538 125.083 42.8444C125.246 42.9351 125.391 43.0619 125.499 43.225C125.499 43.3881 125.21 43.7325 124.63 44.2218C124.05 44.7292 123.27 45.4722 122.274 46.4327C121.839 46.5777 121.458 46.5415 121.096 46.3059C120.769 45.7803 120.643 45.2185 120.715 44.6386C120.769 44.0587 120.769 43.4969 120.715 42.9713C120.715 41.1228 120.806 39.6367 120.987 38.5312Z" fill="white"/>
<path d="M102.34 39.8909C103.753 39.6735 105.348 39.5828 107.142 39.601C107.07 39.3473 107.015 39.0392 106.925 38.6405C106.852 38.2599 106.925 38.0062 107.142 37.8612C107.595 37.7887 107.867 38.4049 107.94 39.6916C108.501 39.6916 109.1 39.7278 109.716 39.7822C110.314 39.8366 110.803 40.0722 111.184 40.5071C111.002 40.7608 110.749 40.8696 110.422 40.7971C110.078 40.7427 109.933 40.6702 109.988 40.5977C109.824 40.4709 109.226 40.4346 108.193 40.489C108.067 41.5039 108.012 42.2469 108.048 42.7181C108.646 42.7362 109.263 42.7362 109.933 42.6818C110.151 42.8268 110.314 42.9718 110.404 43.1168C110.495 43.2436 110.477 43.4249 110.35 43.6604C109.625 43.588 108.864 43.5698 108.048 43.6423L107.958 45.4183C109.244 45.7989 110.368 46.2339 111.292 46.7051C111.546 46.8682 111.673 47.0313 111.655 47.2125C111.637 47.3756 111.51 47.4843 111.292 47.5387C110.277 47.1219 109.154 46.7594 107.903 46.4695L107.613 48.2092C107.505 49.0248 107.088 49.7134 106.381 50.2752C105.384 50.8733 104.424 50.9276 103.481 50.4383C102.811 49.8765 102.557 49.1879 102.72 48.3542C103.228 46.8863 104.261 45.962 105.801 45.5996L106.943 45.4365C107.052 44.5666 107.124 43.9867 107.124 43.6967C105.638 43.7329 104.261 43.7511 103.01 43.7511C102.865 43.6061 102.775 43.4973 102.72 43.3705C102.684 43.2618 102.702 43.1168 102.793 42.9899C103.101 42.8993 103.608 42.8631 104.351 42.8449C105.094 42.8449 106.019 42.8268 107.106 42.8087C107.197 42.2831 107.197 41.5039 107.142 40.489C105.747 40.3621 104.75 40.3621 104.134 40.4527C103.5 40.5615 102.992 40.5615 102.612 40.4709C102.213 40.3802 102.122 40.1809 102.34 39.8909ZM105.348 49.8222C106.472 49.0066 107.015 47.9193 106.979 46.5238C106.58 46.5238 106.218 46.5601 105.91 46.6326C104.768 46.9769 104.007 47.6837 103.645 48.7167C103.463 49.1335 103.554 49.5684 103.916 49.9853C104.098 50.1665 104.333 50.1846 104.587 50.0396C104.841 49.8946 105.094 49.8222 105.348 49.8222Z" fill="white"/>
<path d="M92.3712 37.7163C92.5343 37.5713 92.6974 37.5351 92.8968 37.5894C93.0961 37.6619 93.3499 37.9156 93.6398 38.3687C93.9298 38.8218 94.2379 39.1661 94.5641 39.3836C94.8903 39.601 94.999 39.7641 94.9084 39.891C94.8178 39.9997 94.6366 40.036 94.401 39.9816C93.3499 39.601 92.6793 38.8399 92.3712 37.7163ZM90.3415 39.746C90.2146 39.4923 90.1784 39.3111 90.2328 39.2386C90.3052 39.148 90.4321 39.1117 90.6315 39.0936C90.8308 39.0936 91.0483 39.2567 91.2476 39.6192C91.447 39.9635 91.7913 40.2716 92.2444 40.5615C92.6612 40.7428 92.7518 40.9965 92.5343 41.3227C92.0269 41.3408 91.592 41.1777 91.2476 40.8515C90.8852 40.5072 90.5771 40.1447 90.3415 39.746ZM85.0859 47.6656C85.0497 44.5304 85.2671 41.4496 85.7383 38.4231C85.8833 38.1694 86.0645 38.0787 86.3183 38.1694C86.572 38.26 86.6807 38.4956 86.6807 38.8943C86.2095 41.9932 86.0102 45.1103 86.1008 48.2999C86.1914 48.8617 86.3726 49.2423 86.6445 49.4417C86.9163 49.6229 87.2606 49.7679 87.6775 49.8585C88.0943 49.9491 88.6742 49.7135 89.4354 49.1517C90.1965 48.5899 91.012 48.1187 91.8819 47.72C92.0813 47.8831 92.1719 48.0643 92.1538 48.2999C92.1356 48.5174 92.0269 48.7167 91.8094 48.9161C90.9939 49.2061 90.2328 49.6229 89.5441 50.1847C88.8373 50.7284 88.0762 50.8915 87.2244 50.674C86.5176 50.4746 86.0102 50.1484 85.7021 49.7316C85.394 49.2967 85.1947 48.608 85.0859 47.6656Z" fill="white"/>
<path d="M77.0033 46.4693C77.1121 46.8136 77.1121 46.9949 77.0033 47.0311C76.8946 47.0674 76.7315 47.0492 76.514 46.9949C76.2966 46.9224 75.9703 46.7955 75.5535 46.5962C75.1548 46.3968 74.7018 46.2881 74.2306 46.27C74.0493 47.3211 73.85 48.0822 73.6144 48.6078C73.3969 49.1152 73.1795 49.6045 72.9801 50.0576C72.7808 50.5107 72.4545 50.8187 72.0015 50.9819C71.5484 50.9819 71.1678 50.8731 70.8598 50.6375C70.5517 50.42 70.2617 49.967 70.008 49.2783C69.7361 48.6078 69.8811 47.7016 70.4248 46.5962C71.0953 45.5632 72.1102 45.1101 73.4332 45.2732C73.56 43.914 73.5963 42.736 73.5238 41.7393C71.8203 41.703 70.5517 41.8299 69.7543 42.138C69.573 42.0655 69.4099 41.9568 69.2831 41.8299C69.1562 41.703 69.0656 41.5943 69.0112 41.5037C69.1925 41.3225 69.4281 41.2319 69.718 41.1956C70.008 41.1594 70.3523 41.1412 70.7691 41.1231C71.186 41.105 72.074 40.9963 73.4332 40.7969C73.3607 39.6552 73.3063 38.7672 73.3063 38.151C73.4513 38.0241 73.6325 37.9879 73.8681 38.0604C74.1037 38.1329 74.2306 38.441 74.2849 38.9665C74.3212 39.4921 74.3393 40.1082 74.3574 40.7969C75.5173 40.7063 76.2241 40.7425 76.4415 40.9056C76.6771 41.0687 76.7315 41.25 76.6228 41.4493C76.5321 41.6305 76.3328 41.703 76.0066 41.6668C75.6985 41.6305 75.1911 41.6124 74.4662 41.6487C74.3756 43.171 74.3393 44.3852 74.3393 45.3095C75.2636 45.5269 76.1516 45.9075 77.0033 46.4693ZM71.6209 50.2207C72.6177 49.0065 73.1613 47.611 73.2157 46.0525L72.3277 46.1612C71.3128 46.5962 70.7691 47.4117 70.6966 48.5715C70.7691 48.8615 70.8416 49.1696 70.9322 49.4958C71.0047 49.822 71.2403 50.0757 71.6209 50.2207ZM65.9666 50.1301L65.6585 49.7314C65.2055 46.3787 65.2598 43.0985 65.8035 39.9089C65.9666 39.7458 66.1297 39.7277 66.3291 39.8727C66.5103 40.0176 66.6372 40.217 66.6915 40.4707C66.0029 43.3522 65.9485 46.3243 66.5466 49.3871C66.6915 49.4414 66.7459 49.6045 66.7278 49.8582C66.6915 50.112 66.6009 50.2569 66.4559 50.3113C66.311 50.3657 66.1479 50.2932 65.9666 50.1301Z" fill="white"/>
<path d="M248.191 16.3226C247.557 16.0146 247.14 15.7065 246.959 15.3803C246.778 15.0722 246.524 14.8003 246.198 14.601C246.035 14.3835 245.835 14.1298 245.636 13.858C245.436 13.6042 245.4 13.278 245.545 12.8975C246.016 13.1331 246.506 13.4955 247.013 14.0029C247.502 14.5104 247.901 14.9634 248.209 15.3621C248.499 15.7608 248.499 16.0871 248.191 16.3226Z" fill="white"/>
<path d="M239.872 1.06332C239.963 1.35328 240.144 1.607 240.434 1.8426C240.706 2.07819 240.887 2.22317 240.978 2.29566C241.087 2.36815 241.105 2.44065 241.05 2.54938C241.014 2.65812 240.923 2.74873 240.815 2.82122C240.688 2.91183 240.434 2.8031 240.017 2.51314C239.619 2.22317 239.274 1.75198 239.002 1.08144C239.039 0.954585 239.147 0.882094 239.347 0.900217C239.564 0.91834 239.727 0.972707 239.872 1.06332ZM238.06 2.65812C238.078 2.53126 238.133 2.44065 238.205 2.4044C238.278 2.35003 238.386 2.35003 238.549 2.38628C238.894 2.45877 239.184 2.69436 239.419 3.05682C239.655 3.41927 239.945 3.72735 240.271 3.98107C240.289 4.1623 240.253 4.28916 240.18 4.34353C240.108 4.39789 239.909 4.37977 239.564 4.28916C239.021 3.70923 238.531 3.16555 238.06 2.65812ZM228.691 14.311C228.346 14.2566 228.111 14.0754 228.002 13.7673C229.289 10.9945 230.449 8.27615 231.482 5.57587C230.811 5.61211 230.267 5.70273 229.887 5.82958C229.506 5.95644 229.216 5.97457 229.053 5.86583C228.872 5.73897 228.781 5.61211 228.781 5.43089C228.781 5.26778 229.017 5.1228 229.488 5.01407C229.941 4.90533 230.72 4.74222 231.79 4.52475C232.061 3.38302 232.243 2.8031 232.37 2.74873C232.496 2.69436 232.641 2.71249 232.823 2.8031C232.986 2.89371 232.968 3.49176 232.732 4.59724C234.254 4.27104 235.106 4.41602 235.342 5.03219C235.559 5.63024 235.487 6.53637 235.088 7.75059C234.707 8.94669 234.218 10.1428 233.62 11.3389C233.022 12.535 232.641 13.1874 232.442 13.3142C232.243 13.4411 232.007 13.2961 231.735 12.9156C231.463 12.5169 231.355 12.2088 231.409 11.9732C231.463 11.7557 231.554 11.6651 231.717 11.7376C231.862 11.8101 232.025 11.9732 232.188 12.2088C233.547 10.0159 234.399 7.76871 234.744 5.46713C234.073 5.23154 233.348 5.21341 232.533 5.44901C232.297 5.95644 231.971 6.6451 231.554 7.49687C230.702 9.81657 229.742 12.1 228.691 14.311ZM240.96 8.05867C241.014 8.25802 240.996 8.40301 240.905 8.49362C240.815 8.56611 240.67 8.54799 240.47 8.42113C238.839 6.59074 237.317 5.06843 235.922 3.89046C235.867 3.70923 235.94 3.58237 236.103 3.52801C236.266 3.47364 236.447 3.49176 236.646 3.56425C237.1 3.83609 237.679 4.30728 238.368 4.97782C239.075 5.64836 239.945 6.68135 240.96 8.05867Z" fill="white"/>
<path d="M211.365 5.05053C211.093 4.8693 210.984 4.68808 211.02 4.50685C211.057 4.32562 211.256 4.18064 211.6 4.05378C211.963 3.9088 212.724 3.67321 213.884 3.32888C214.029 2.71271 214.21 2.11466 214.446 1.55285C214.627 1.35351 214.826 1.31726 215.044 1.44412C215.261 1.55285 215.316 1.7522 215.189 2.00592C215.08 2.27776 214.989 2.58585 214.917 2.98455C215.932 2.85769 217.055 2.64021 218.27 2.36837C218.523 2.29588 218.686 2.31401 218.777 2.44087C218.868 2.5496 218.868 2.69458 218.795 2.85769C218.723 3.00267 218.396 3.16577 217.816 3.32888C217.237 3.49198 216.204 3.70945 214.717 4.01754C214.536 4.99616 214.301 5.93854 214.029 6.84467C213.775 7.73269 213.521 8.65694 213.286 9.59932C214.645 8.43947 216.077 7.71456 217.581 7.38835C218.324 7.33399 218.958 7.64207 219.466 8.34886C219.901 9.5812 219.828 10.8317 219.23 12.1184C218.469 13.2782 217.78 14.4381 217.146 15.5979C216.983 15.6523 216.838 15.6161 216.693 15.4892C216.548 15.3623 216.439 15.2536 216.385 15.163C216.838 14.0937 217.418 13.0245 218.143 11.9734C218.849 10.9042 219.158 10.0886 219.067 9.47246C218.958 8.87441 218.777 8.51196 218.523 8.3851C218.251 8.25824 217.889 8.20388 217.454 8.24012C217.019 8.29449 216.457 8.49384 215.805 8.85629C215.152 9.21875 214.572 9.61744 214.083 10.0524C213.594 10.4873 213.268 10.8135 213.105 10.9948C212.923 11.176 212.742 11.176 212.543 10.9948C212.343 10.8317 212.253 10.5961 212.289 10.3424C212.307 10.0705 212.362 9.83492 212.416 9.61744C212.815 7.8233 213.268 6.08352 213.757 4.39811C213.032 4.63371 212.235 4.85118 211.365 5.05053Z" fill="white"/>
<path d="M190.705 6.15643C190.379 5.79398 190.288 5.55838 190.433 5.4134C191.049 5.10531 191.919 4.77911 193.043 4.4529C193.006 2.89435 192.952 1.98821 192.843 1.71637C192.753 1.4989 192.861 1.3358 193.169 1.24518C193.532 1.08208 193.786 1.24518 193.967 1.75262C193.786 2.02446 193.786 2.74937 193.985 3.92734C194.692 3.74611 195.145 3.63738 195.344 3.60113C195.562 3.54676 195.707 3.61925 195.797 3.78236C195.888 3.94546 195.96 4.10857 195.997 4.28979C195.707 4.39853 195.018 4.63412 193.949 4.97846C193.913 6.13831 193.931 7.20755 194.021 8.20429C195.29 7.55188 195.978 7.31628 196.105 7.49751C196.232 7.69686 195.507 8.34927 193.931 9.47288C193.931 11.122 193.931 12.3 193.931 13.0249C193.822 13.5324 193.822 14.0579 193.876 14.6197C193.949 15.1815 193.84 15.6527 193.568 16.0514C193.188 15.9789 192.952 15.7977 192.861 15.4896C193.133 13.7498 193.224 11.9376 193.115 10.089L190.977 11.7745C190.596 11.8288 190.379 11.6476 190.324 11.2489C190.777 10.6509 191.702 9.85345 193.115 8.85671C193.024 7.46126 193.006 6.59137 193.043 6.24704C193.079 5.90271 193.024 5.64899 192.916 5.48589C192.046 5.88459 191.303 6.10206 190.705 6.15643ZM200.4 1.11833L200.582 2.4594C201.452 2.22381 201.995 2.15132 202.213 2.20569C202.43 2.26005 202.593 2.38691 202.702 2.56814C202.793 2.76749 202.72 2.87623 202.485 2.91247C202.231 2.96684 201.615 3.12994 200.618 3.4199V5.84834C202.466 5.52214 203.554 5.35903 203.88 5.35903C204.206 5.35903 204.424 5.43152 204.514 5.5765C204.623 5.72148 204.641 5.83022 204.587 5.88459C204.514 5.93896 204.224 6.01145 203.681 6.13831C203.155 6.26517 202.756 6.35578 202.485 6.41015V8.33115C203.717 8.09556 204.424 7.98682 204.587 8.02307C204.75 8.04119 204.931 8.14992 205.094 8.33115C205.275 8.51238 205.312 8.63924 205.203 8.71173C205.094 8.78422 204.985 8.83859 204.895 8.83859C204.786 8.85671 204.641 8.87483 204.478 8.91107C204.297 8.9292 203.644 9.05606 202.521 9.25541C202.557 11.1764 202.557 12.6443 202.521 13.6955C202.485 14.7285 202.43 15.4171 202.358 15.7614C202.303 16.0877 202.213 16.2689 202.104 16.287C202.013 16.3233 201.905 16.3233 201.814 16.3233C201.705 16.3051 201.578 16.2689 201.433 16.1783C201.288 16.0877 201.089 15.9427 200.817 15.7433C200.545 15.544 200.382 15.3446 200.292 15.1453C200.201 14.964 200.183 14.8191 200.219 14.7466C200.274 14.6741 200.328 14.6741 200.419 14.7103C200.491 14.7466 200.636 14.8191 200.872 14.9278C201.107 15.0184 201.361 15.1453 201.597 15.3084C201.705 13.3149 201.723 11.3758 201.633 9.47288L197.537 10.4515C197.102 10.5421 196.776 10.4515 196.558 10.1434C196.323 9.83533 196.45 9.65411 196.921 9.56349C197.41 9.491 198.969 9.12855 201.597 8.5305C201.651 7.91433 201.651 7.26191 201.597 6.53701C200.998 6.66386 200.074 6.91758 198.824 7.26191C197.573 7.62437 196.812 7.67873 196.54 7.44314C196.25 7.20755 196.178 7.04444 196.287 6.9357L199.694 6.12018L199.676 3.78236C198.842 4.01795 198.244 4.18106 197.845 4.28979C197.465 4.38041 197.211 4.36228 197.084 4.19918C196.957 4.0542 196.903 3.92734 196.939 3.83673C196.975 3.74611 197.338 3.58301 198.044 3.34742C198.751 3.12994 199.313 2.98496 199.712 2.89435C199.639 1.69825 199.621 1.02771 199.657 0.864608C199.676 0.701504 199.802 0.665259 200.02 0.737748C200.219 0.810239 200.346 0.937099 200.4 1.11833ZM198.498 11.4845C198.715 11.5389 198.914 11.6295 199.114 11.7745C199.313 11.9194 199.512 12.0463 199.712 12.155C199.929 12.2638 200.092 12.4088 200.237 12.5719C200.382 12.735 200.455 12.8799 200.455 13.043C200.455 13.188 200.4 13.2968 200.274 13.3693C200.165 13.4417 199.911 13.3511 199.512 13.0793C199.132 12.8075 198.842 12.59 198.679 12.445C198.516 12.3 198.407 12.1369 198.316 11.9738C198.244 11.7926 198.298 11.6295 198.498 11.4845Z" fill="white"/>
<path d="M175.826 7.13508C175.699 7.02634 175.627 6.93573 175.59 6.86324C175.572 6.79075 175.554 6.73638 175.572 6.70013C175.59 6.66389 175.627 6.60952 175.681 6.51891C175.735 6.44641 175.844 6.3558 175.989 6.26519C176.152 6.17457 177.167 5.97523 179.052 5.68526C180.937 5.37718 181.952 5.2322 182.097 5.25032C182.26 5.26844 182.405 5.32281 182.531 5.3953C182.658 5.46779 182.749 5.54028 182.821 5.57653C182.894 5.6309 182.93 5.68526 182.93 5.72151C182.93 5.77588 182.912 5.81212 182.84 5.84837C182.785 5.88461 182.695 5.92086 182.586 5.9571C182.459 5.99335 181.698 6.10209 180.284 6.31956C178.871 6.51891 177.82 6.73638 177.149 6.97197C176.478 7.20757 176.098 7.3163 176.044 7.29818C175.971 7.29818 175.899 7.24381 175.826 7.13508ZM174.648 9.16482C174.938 9.03796 175.554 8.83861 176.497 8.54865C177.439 8.25868 178.581 8.00497 179.922 7.76937C181.263 7.53378 182.115 7.38879 182.477 7.35255C182.858 7.3163 183.13 7.42504 183.311 7.66063C183.474 7.91435 183.564 8.07746 183.546 8.14995C183.528 8.24056 183.51 8.42179 183.474 8.72987C183.438 9.01984 183.365 9.72662 183.256 10.8502C183.129 11.9557 183.184 12.9343 183.401 13.768C183.601 14.6197 184.217 15.0728 185.25 15.1453C186.283 15.2178 186.845 14.7647 186.972 13.8223C187.08 12.88 187.207 12.3907 187.298 12.3907C187.406 12.3907 187.479 13.0068 187.497 14.2754C187.515 15.544 186.953 16.1602 185.812 16.1239C184.67 16.0877 183.873 15.8883 183.438 15.5259C182.985 15.1815 182.695 14.656 182.55 13.9673C182.423 13.2787 182.332 12.7712 182.314 12.445C182.278 12.1188 182.314 11.3939 182.423 10.2884C182.531 9.16482 182.604 8.5124 182.64 8.31305C182.495 8.31305 181.662 8.43991 180.103 8.71175C178.544 8.96547 177.258 9.27355 176.225 9.58164C175.192 9.90785 174.612 9.96222 174.449 9.78099C174.286 9.59976 174.358 9.40041 174.648 9.16482ZM178.273 4.39855C177.33 4.57978 176.696 4.72476 176.424 4.79725C176.134 4.86974 175.79 5.01473 175.373 5.21407C174.956 5.43155 174.666 5.50404 174.521 5.43155C174.376 5.35906 174.503 4.94223 174.884 4.1992C175.264 3.43805 175.717 2.31445 176.243 0.792141C176.225 0.701528 176.352 0.683405 176.605 0.71965C176.841 0.774019 176.986 0.955245 177.004 1.28145C177.022 1.60766 176.913 1.97011 176.66 2.40506C176.406 2.82188 176.08 3.45617 175.681 4.27169C176.025 4.09047 176.66 3.90924 177.566 3.69177C178.472 3.49242 179.614 3.27495 180.973 3.02123C182.332 2.78563 183.093 2.73127 183.22 2.85813C183.347 2.96686 183.401 3.11184 183.383 3.27495C183.347 3.43805 183.075 3.54679 182.55 3.58303C182.006 3.6374 180.592 3.90924 178.273 4.39855ZM175.88 16.1602C175.301 16.2327 175.119 16.0877 175.319 15.689C176.207 14.801 176.932 13.9673 177.511 13.2062C176.424 12.4269 175.88 11.9013 175.862 11.6295C175.844 11.3577 175.917 11.2127 176.062 11.1946C176.225 11.1583 176.406 11.1946 176.642 11.3033C176.895 11.4302 177.385 11.847 178.128 12.5538C178.762 11.6114 179.378 10.7415 179.958 9.96221C180.121 9.85348 180.284 9.90785 180.465 10.1072C180.647 10.3247 180.683 10.5421 180.592 10.7415C180.049 11.4664 179.505 12.2457 178.979 13.0974C179.451 13.4418 179.904 13.8042 180.32 14.1667C180.719 14.511 180.955 14.7466 180.991 14.8372C181.027 14.9278 180.991 15.0184 180.864 15.1272C180.755 15.254 180.629 15.2722 180.502 15.2359C180.357 15.1997 180.103 15.0728 179.741 14.8372C179.36 14.6197 178.925 14.2935 178.399 13.8767C178.055 14.1304 177.656 14.511 177.203 15.0366C176.75 15.5621 176.315 15.9246 175.88 16.1602Z" fill="white"/>
<path d="M156.688 12.4624C155.982 11.3931 155.837 10.2152 156.253 8.94658C156.688 7.65987 157.504 6.44565 158.718 5.32204C159.932 4.19844 161.328 3.47353 162.904 3.16545C163.865 3.07483 164.753 3.45541 165.55 4.27093C166.33 5.46703 166.728 6.66312 166.728 7.8411C166.728 9.01907 166.638 10.0521 166.475 10.8857C166.257 12.1543 165.659 13.1692 164.662 13.9122C164.227 13.8759 164.064 13.6585 164.209 13.2779C164.699 12.7523 165.115 12.0999 165.46 11.3388C166.003 9.49026 166.003 7.6055 165.46 5.72074C165.152 5.0502 164.825 4.59714 164.535 4.41591C164.227 4.21656 163.919 4.0897 163.629 4.05346C163.339 4.03533 162.832 4.12595 162.089 4.37966C162.125 4.70587 162.125 5.08645 162.071 5.50327C162.035 5.90197 161.853 6.66312 161.527 7.73236C161.183 8.81972 160.621 9.78022 159.842 10.632C159.044 11.4838 158.446 12.0637 158.029 12.3355C157.613 12.6074 157.16 12.6617 156.688 12.4624ZM157.884 7.82297C157.015 9.00095 156.725 10.2514 157.015 11.5744C158.283 10.7226 159.352 9.63524 160.168 8.33041C160.929 7.26117 161.31 6.06507 161.31 4.76024C160.349 5.15894 159.606 5.64825 159.044 6.22818C158.501 6.78998 158.12 7.31554 157.884 7.82297Z" fill="white"/>
<path d="M147.356 5.95712C147.465 6.01149 147.573 6.12023 147.7 6.30145C147.827 6.46456 147.863 6.66391 147.791 6.8995C147.555 6.97199 146.866 7.66065 145.743 8.96549C144.619 10.2703 143.912 11.3577 143.622 12.2638C143.333 13.1518 143.224 13.7136 143.296 13.9492C143.369 14.1848 143.749 14.366 144.42 14.4567C145.09 14.5654 145.58 14.5835 145.888 14.5291C146.196 14.4567 146.45 14.4567 146.631 14.511C146.812 14.5473 146.939 14.656 147.03 14.801C147.12 14.946 147.156 15.0547 147.138 15.1272C147.102 15.1997 146.903 15.2541 146.522 15.2903C146.142 15.3265 145.435 15.3084 144.384 15.2359C143.151 15.1453 142.463 14.7285 142.354 13.9492C142.372 12.6988 142.807 11.4483 143.641 10.2341C144.474 9.00173 145.181 8.0956 145.725 7.47943C143.423 8.20433 141.81 8.87487 140.904 9.4548C139.998 10.0347 139.436 10.3247 139.237 10.3066C139.037 10.3066 138.911 10.216 138.856 10.071C138.784 9.92599 138.856 9.72664 139.019 9.4548C141.484 7.15322 143.514 4.56168 145.109 1.68017C145.272 1.60768 145.417 1.60768 145.58 1.64392C145.743 1.68017 145.833 1.78891 145.852 1.97013C145.888 2.13324 145.833 2.36883 145.725 2.64067C145.616 2.91251 145.272 3.45619 144.71 4.25359C144.148 5.05099 143.296 6.24708 142.155 7.82376C143.894 7.15322 145.634 6.51892 147.356 5.95712ZM139.944 3.80052C139.635 3.25684 139.509 2.89439 139.545 2.71316C139.581 2.53194 139.672 2.45945 139.799 2.53194C139.925 2.5863 140.143 2.89439 140.433 3.43807C140.741 3.99987 140.958 4.43482 141.103 4.77915C141.23 5.10536 141.357 5.34095 141.466 5.52218C141.557 5.68528 141.593 5.86651 141.575 6.08398C141.557 6.30145 141.412 6.35582 141.176 6.28333C140.94 6.19272 140.741 5.95712 140.578 5.55842C140.415 5.15972 140.197 4.5798 139.944 3.80052Z" fill="white"/>
<path d="M121.44 16.1237C121.259 15.9425 121.041 15.9062 120.806 16.015C120.57 16.1056 120.135 16.1418 119.501 16.1056C118.849 16.0693 118.504 15.9243 118.45 15.6888C118.377 15.4532 118.432 15.3082 118.577 15.2538C118.74 15.1813 119.175 15.1451 119.882 15.127C120.588 15.1088 121.041 15.0726 121.241 15.0001C121.241 11.9374 121.259 9.70827 121.295 8.34907C121.35 6.97175 121.368 6.17435 121.368 5.92063C121.368 5.66691 121.458 5.48569 121.621 5.37695C121.857 5.37695 122.111 5.52193 122.346 5.79377C122.147 7.82351 122.074 9.6539 122.129 11.2668C122.201 12.8979 122.201 13.9671 122.147 14.4745C122.093 15.0001 122.074 15.3807 122.074 15.6525C122.074 15.9243 122.02 16.0693 121.893 16.1056C121.766 16.1418 121.621 16.1418 121.44 16.1237Z" fill="white"/>
<path d="M111.02 6.51887C111.564 7.6606 111.963 8.36738 112.198 8.67547C112.434 8.98355 112.488 9.27352 112.361 9.54536C112.234 9.8172 112.017 9.8172 111.709 9.52724C111.22 8.82045 110.839 8.11366 110.549 7.425C110.169 6.77259 109.897 6.26515 109.715 5.93895C109.172 5.63086 108.936 5.37714 109.063 5.17779C109.081 5.01469 109.136 4.92407 109.244 4.88783C109.353 4.85158 109.498 4.88783 109.661 4.97844C110.169 5.21404 110.622 5.72147 111.02 6.51887ZM102.503 5.77584L102.394 5.84833C102.195 6.17454 102.122 6.51887 102.14 6.89945C102.158 7.28002 102.231 7.8237 102.358 8.58486C102.503 9.32789 102.847 10.1978 103.409 11.2308C104.043 11.2851 104.895 10.3971 105.946 8.60298C106.308 8.43987 106.453 8.53049 106.417 8.87482C105.982 10.1615 105.239 11.3395 104.188 12.4087C103.499 12.4087 102.956 12.1188 102.575 11.5207C102.176 10.9227 101.905 10.2703 101.778 9.52724C101.27 7.96869 101.125 6.4645 101.288 4.97844C101.488 4.74285 101.687 4.76097 101.923 4.99657C102.195 5.23216 102.394 5.504 102.503 5.77584Z" fill="white"/>
<path d="M84.5066 4.61532C84.561 4.45221 84.6697 4.3616 84.851 4.3616C85.0322 4.3616 85.4853 4.32535 86.1921 4.27099C86.627 3.65481 86.9532 3.14738 87.1344 2.74868C87.4244 2.6037 87.5875 3.0024 87.66 3.9629C88.5299 3.79979 89.0736 3.74543 89.291 3.81792C89.5266 3.90853 89.5991 4.01727 89.5266 4.16225C89.4723 4.30723 89.2367 4.43409 88.8561 4.5247C88.4574 4.63344 88.2218 4.68781 88.1131 4.72405C88.0224 4.7603 87.66 4.81466 87.0619 4.90528C86.2102 8.05862 85.6484 11.2301 85.3584 14.4378C85.2134 14.4741 85.0322 14.4197 84.8147 14.2385C84.5973 14.0572 84.4885 13.8579 84.5066 13.6223C84.7966 10.777 85.2859 7.96801 85.9927 5.17712C85.2859 5.26773 84.8691 5.24961 84.706 5.159C84.561 5.06838 84.4885 4.88716 84.5066 4.61532ZM94.1842 6.39134C93.7855 7.18874 93.4774 7.76866 93.2418 8.13111C93.0243 8.49357 92.825 8.67479 92.68 8.63855C92.5169 8.6023 92.4263 8.52981 92.39 8.38483C92.3538 8.23985 92.3719 8.09487 92.4263 7.93176C92.4625 7.76866 92.5894 7.38808 92.7887 6.77191C92.4806 6.8444 91.9732 7.06188 91.2664 7.40621C90.5415 7.73242 89.871 8.29422 89.2548 9.07349C89.0192 9.14598 88.8017 9.07349 88.6024 8.89227C88.3849 8.69292 88.3849 8.47545 88.6024 8.25797C88.8017 8.0405 89.2729 7.65992 89.9978 7.13437C90.7227 6.62693 91.8463 6.15574 93.3868 5.73892C93.713 5.73892 93.9848 5.95639 94.1842 6.39134ZM95.5434 13.1149C95.3803 13.3323 94.8728 13.5317 94.021 13.6948C93.1874 13.8579 92.4081 14.021 91.7013 14.1841C90.9946 14.3291 90.5053 14.4016 90.2334 14.4016C89.9616 14.3834 89.6897 14.2747 89.436 14.0572C89.1642 13.8579 89.0011 13.4592 88.9467 12.8793C88.8923 12.3175 88.8561 11.9188 88.8198 11.7013C88.8017 11.4838 88.8923 11.357 89.0917 11.3026C89.581 11.4113 89.8166 11.7194 89.7803 12.1906C89.7441 12.6799 89.871 13.133 90.1247 13.586C91.7014 13.4411 93.2237 13.0786 94.7278 12.4806C95.0359 12.553 95.3078 12.7524 95.5434 13.1149Z" fill="white"/>
<path d="M71.5133 13.6589C71.7489 13.3871 72.0751 12.7528 72.4375 11.7741C72.8181 10.7955 73.1262 9.96187 73.3256 9.25508C72.3469 9.1101 71.5314 8.98324 70.9334 8.83826C70.3172 8.69328 69.8641 8.65703 69.5742 8.74765C68.9942 10.3062 68.1425 11.756 67.0551 13.079C66.892 13.1877 66.5477 13.1515 66.0221 12.9521C65.116 11.9554 64.9166 10.8136 65.4603 9.52692C66.1127 8.25834 67.2001 7.66029 68.7224 7.73278C69.3023 6.50044 69.4654 5.28622 69.2298 4.09012C68.8674 3.81828 68.4324 3.61893 67.9612 3.49207C67.4901 3.34709 67.2182 3.12962 67.1639 2.80341L67.4357 2.58594C67.925 2.7128 68.4324 2.8759 68.9399 3.09337C69.4473 3.29272 69.8822 3.69142 70.2447 4.27135C70.3534 5.41308 70.2085 6.55481 69.8279 7.71466L73.6336 8.40332C74.123 6.91726 74.4673 5.55806 74.7029 4.30759C74.7573 4.14449 74.866 4.05387 75.0291 4.05387C75.1741 4.05387 75.3372 4.18073 75.464 4.39821C75.6815 4.41633 75.7359 4.57943 75.609 4.92376C75.319 6.10174 74.9566 7.31596 74.5398 8.53018C75.0472 8.60267 75.4822 8.74765 75.8627 8.92887C76.2614 9.1101 76.4245 9.32757 76.3702 9.54505C76.3339 9.78064 76.2252 9.9075 76.0802 9.94374C75.9171 9.97999 75.6996 9.94374 75.4278 9.83501C75.1378 9.72627 74.7754 9.58129 74.3223 9.41819C74.1411 10.0887 73.8874 10.8499 73.5974 11.6835C73.3256 12.5353 72.8906 13.4233 72.3107 14.3657C72.0751 14.3657 71.8939 14.2932 71.7308 14.1301C71.5858 13.9851 71.5133 13.822 71.5133 13.6589ZM66.1852 12.2997C67.2726 11.3029 67.9975 10.0706 68.3599 8.58455C67.78 8.74765 67.2907 8.98324 66.8739 9.25508C66.1127 10.1068 65.8771 11.1217 66.1852 12.2997Z" fill="white"/>
<path d="M48.279 6.4095C48.1521 6.48199 47.989 6.46387 47.7897 6.37326C47.5903 6.30077 47.4454 6.17391 47.3729 6.0108C47.3004 5.86582 47.2823 5.72084 47.3547 5.61211C47.4816 5.449 47.6447 5.37651 47.8803 5.39463C48.0978 5.43088 48.3334 5.41276 48.6233 5.35839C51.523 4.56099 54.3138 3.61861 56.996 2.53125C57.3222 2.53125 57.5034 2.63999 57.5397 2.85746C57.5759 3.07493 57.5397 3.27428 57.4128 3.41926C57.286 3.56424 57.1591 3.67298 57.0323 3.74547C55.2925 5.15904 54.1145 6.75383 53.4983 8.51173C52.864 10.2696 52.7372 11.4657 53.0815 12.1C53.444 12.7343 53.6614 13.133 53.7702 13.278C53.8789 13.4411 54.0239 13.4773 54.2051 13.4049C54.3682 13.3142 54.5494 13.3142 54.7125 13.4049C54.8757 13.4773 54.8213 13.7854 54.5313 14.3291C54.0964 14.4016 53.5346 14.1479 52.8459 13.5136C52.1754 12.8974 51.9579 11.6107 52.2297 9.65346C52.4291 8.42112 52.7915 7.4425 53.3171 6.68134C53.8608 5.92019 54.2595 5.43088 54.4951 5.21341C54.7488 5.01406 54.8756 4.74222 54.8756 4.37976C52.5741 4.99593 50.3812 5.66647 48.279 6.4095Z" fill="white"/>
<path d="M33.7264 14.3659C33.672 13.8584 33.817 13.4597 34.1613 13.1879C34.5237 12.9161 34.7956 12.6261 35.0131 12.2999C36.2092 10.8682 36.9341 9.29153 37.1878 7.53363C37.1878 7.33428 37.1334 7.1893 37.0247 7.06244C36.9159 6.93558 36.771 6.82685 36.626 6.73623C34.3606 6.57313 32.3128 7.22554 30.4643 8.69348C30.1743 8.83846 29.9568 8.7841 29.83 8.5485C29.6669 8.36727 29.6125 8.20417 29.6669 8.02294C29.7212 7.84172 29.8481 7.69673 30.0293 7.60612C32.0228 6.24692 34.27 5.70324 36.8072 5.95696C37.2965 6.12006 37.6409 6.37378 37.8402 6.69999C38.4201 8.00482 38.0033 9.63586 36.6079 11.6112C36.2454 12.2093 35.883 12.7348 35.5205 13.1698C35.1762 13.6047 34.8862 13.9853 34.6687 14.2934C34.4513 14.6015 34.27 14.7465 34.1251 14.7465C33.9801 14.7465 33.8532 14.6196 33.7264 14.3659Z" fill="white"/>
<path d="M17.1799 3.81856C19.0466 3.02116 20.442 3.18427 21.3663 4.30787C21.7106 5.0509 21.7106 5.81205 21.3663 6.62757C21.0219 7.4431 20.6232 8.04114 20.1702 8.43984C19.7171 8.82042 19.2459 9.01977 18.7385 9.01977L18.0861 8.82042C17.923 8.63919 17.8867 8.53046 17.9955 8.45797C18.0861 8.38548 18.2492 8.36735 18.5029 8.38548C18.7566 8.42172 18.956 8.33111 19.1372 8.11363C20.3333 7.15313 20.8045 5.95704 20.5326 4.54347C19.3909 4.05415 18.2854 4.07228 17.2162 4.61596C17.1074 4.94217 16.9987 5.21401 16.89 5.43148C16.7631 5.64895 16.6363 5.75769 16.4913 5.73956C16.3644 5.72144 16.2557 5.50397 16.2013 5.10527L14.4072 5.97516C14.7334 8.42172 15.3677 11.0314 16.3101 13.8404C16.5819 13.9673 16.8175 14.1847 17.0168 14.4566C17.2343 14.6016 17.3068 14.7284 17.2343 14.8371C17.1618 14.9459 16.9806 15.0003 16.6725 15.0003C15.9476 14.7828 15.5127 14.3478 15.3496 13.6954C15.2046 13.0249 15.0233 12.4087 14.824 11.8107C14.2984 10.234 13.8635 8.43984 13.501 6.4101C12.3412 7.02627 11.6888 7.37061 11.4894 7.47934C11.3082 7.58808 11.127 7.62432 10.9639 7.58808C10.8008 7.55183 10.692 7.46122 10.6195 7.31624C10.5652 7.17126 10.5833 7.06252 10.692 7.00815C11.3988 6.59133 12.2868 6.04765 13.3923 5.34086C13.048 4.45285 12.7943 3.49235 12.613 2.44124C12.8305 2.15127 13.1386 2.26001 13.5373 2.74932C13.646 3.54672 13.8816 4.28975 14.2622 4.99653C14.8784 4.63408 15.567 4.326 16.3101 4.05416C16.3825 3.36549 16.4369 2.78557 16.4732 2.29626C16.5456 2.18752 16.6906 2.15127 16.8719 2.20564C17.0712 2.26001 17.1618 2.42312 17.1618 2.74932C17.1799 3.05741 17.1799 3.41986 17.1799 3.81856Z" fill="white"/>
<path d="M1.52327 0.483372C3.40803 0.374637 4.47727 0.374637 4.74911 0.483372C5.02095 0.592109 5.1478 0.700845 5.11156 0.827703C5.09344 0.93644 4.9847 1.04518 4.8216 1.15391C4.65849 1.24452 4.09669 1.28077 3.15431 1.24452C2.19381 1.19016 1.57764 1.26265 1.26955 1.40763C1.32392 1.55261 1.37829 2.47687 1.45078 4.19852C1.52327 5.92018 1.57764 8.27612 1.61388 11.2664C1.52327 11.3751 1.39641 11.4295 1.23331 11.4476C1.08833 11.4657 0.961466 11.4295 0.907098 11.3389C0.834608 11.2482 0.78024 11.1033 0.707749 10.922C0.562767 7.64183 0.5084 4.41599 0.58089 1.20828C0.399663 0.93644 0.345296 0.718968 0.417786 0.537741C0.617135 0.356515 0.979589 0.338392 1.52327 0.483372Z" fill="white"/>
</svg>
