<?xml version="1.0" encoding="UTF-8"?><svg id="_レイヤー_2" xmlns="http://www.w3.org/2000/svg" xmlns:xlink="http://www.w3.org/1999/xlink" viewBox="0 0 102.54041 102.54041"><defs><style>.cls-1{fill:#ff8375;}.cls-2{fill:#29aac6;}.cls-3{fill:#b5c3eb;}.cls-4{fill:#ffc3b4;}.cls-5{fill:#fff;}.cls-6{fill:#bfe5ee;}.cls-7{fill:#000058;}.cls-8{clip-path:url(#clippath);}</style><clipPath id="clippath"><circle class="cls-5" cx="51.2702" cy="51.2702" r="51.2702"/></clipPath></defs><g id="_レイヤー_1-2"><circle class="cls-5" cx="51.2702" cy="51.2702" r="51.2702"/><g class="cls-8"><path class="cls-2" d="M44.91339,94.49098c5.41178,1.36942,9.7206,3.01898,8.44162,8.71445l-13.26775,64.11222c-1.27891,5.69522-4.51168-5.77591-9.92325-7.14526l-7.67725,10.14209c-5.41157-1.36935-4.65589-14.75479-3.37695-20.45005l12.96305-50.93291c1.27901-5.69544,7.42899-5.80988,12.84052-4.44053Z"/><path class="cls-6" d="M22.86699,67.60249c3.10882-5.36247,11.57846-14.55165,16.34046-12.38282,7.65995,3.48872,4.06575,15.47162,2.92251,19.76897-.51746,1.94549-2.23314,5.21437-4.38349,8.84353l-17.52166-11.84549c.94127-1.52364,1.83817-2.99733,2.64217-4.3842Z"/><path class="cls-2" d="M14.34528,81.51137c1.94938-3.25577,4.00892-6.49655,5.87953-9.52468l17.52166,11.84549c-1.98142,3.34397-4.33178,6.99368-6.4576,10.19875l-16.9436-12.51955Z"/><path class="cls-4" d="M14.34528,81.51137l16.9436,12.51955c-2.69989,4.07045-5.03612,7.42272-5.78791,8.51472-2.22157,3.22679-8.02586,7.44469-12.33446,7.06746-6.88657-.60296-8.66919-4.97337-8.42759-8.68183.32436-4.97612,5.5816-12.69791,9.60637-19.4199Z"/><path class="cls-6" d="M81.33718,63.02088c-1.94938-4.66433-6.25477-7.61116-10.78169-6.10187-4.76325,1.58795-10.52834,9.2432-8.29826,14.76337,1.94923,4.82492,5.01194,11.77099,7.53347,18.33691l18.8584-7.03438c-2.19066-7.26167-5.47979-15.58044-7.31191-19.96403Z"/><path class="cls-4" d="M87.88963,80.40093l-18.80374,7.31661c1.8443,3.88981,4.1572,10.28389,5.01877,16.06867l15.72608,9.63446c2.50326-6.73929,1.38662-25.62436-1.94111-33.01974Z"/><path class="cls-2" d="M68.66956,87.19684l19.07354-7.21709c.33237-.13232.71017.01631.86062.34084.54794,1.18177,1.78365,4.04717,2.49475,7.26135.15632.70661-.229,1.42106-.90961,1.667l-17.9704,6.82016-3.5489-8.87227Z"/><path class="cls-5" d="M47.74279,51.01601c-.01086.02806-.00167.01186.00623-.00449l-.00623.00449Z"/><ellipse class="cls-4" cx="52.01995" cy="54.38502" rx="6.72381" ry="3.12331"/><path class="cls-4" d="M46.25857,54.44598c0,1.72494.4169,3.68396,4.13035,3.68396s9.31726-1.95903,9.31726-3.68396-3.01036-3.12334-6.72377-3.12334-6.72384,1.39837-6.72384,3.12334Z"/><path class="cls-6" d="M25.14951,122.7546c.79666-16.00753,5.33366-61.83606,5.33366-61.83606,2.23848-6.91203,14.45974-9.86043,14.45974-9.86043l.26603-.06274c5.02493-.89363,9.48726-.45543,14.66677-.29747,6.62115.61513,17.2932,5.44928,19.2242,9.06327-.06228.00377-4.8006,23.55609-4.8006,23.55609,0,0-2.82904,36.18717-3.53569,42.05705l-43.45667.77056c-1.79544,0-2.2467-1.59703-2.15743-3.39026Z"/><path class="cls-3" d="M44.77965,125.89614c-.00662,0-.01353-.00028-.02012-.00064-.13955-.01122-.24381-.13296-.23295-.27251l.02642-.33486c.0109-.13955.13196-.24146.27247-.23288.13958.01122.24381.13328.23295.27247l-.02642.33486c-.01054.13296-.12139.23355-.25236.23355ZM44.93931,123.87747c-.00659,0-.01353-.00032-.02012-.00064-.13955-.01122-.24381-.13328-.23291-.27251l.13296-1.68381c.01086-.13955.13392-.24413.27247-.23291.13955.01122.24381.13328.23295.27251l-.13296,1.68381c-.01058.13296-.12142.23355-.25239.23355ZM45.20556,120.50985c-.00659,0-.01353-.00036-.02015-.00068-.13951-.01122-.24377-.13328-.23288-.27251l.13293-1.68381c.01122-.13987.13592-.24018.27251-.23291.13955.01122.24381.13328.23291.27251l-.13296,1.68381c-.01058.13293-.12139.23359-.25236.23359ZM45.47177,117.14216c-.00659,0-.0135-.00028-.02012-.00064-.13955-.01122-.24381-.13325-.23291-.27251l.13296-1.68413c.0109-.13955.13097-.24249.27251-.23295.13955.01122.24377.13332.23288.27255l-.13293,1.68413c-.01058.13296-.12142.23355-.25239.23355ZM45.73801,113.77419c-.00659,0-.01353-.00032-.02012-.00064-.13955-.01122-.24381-.13328-.23291-.27251l.13293-1.68381c.0109-.13987.13328-.2385.27255-.23291.13951.01122.24377.13328.23288.27247l-.13293,1.68384c-.01058.13296-.12142.23355-.25239.23355ZM46.00425,110.40657c-.00662,0-.01357-.00032-.02012-.00068-.13958-.01122-.24381-.13325-.23295-.27247l.13296-1.68384c.01122-.13955.13528-.24117.27251-.23291.13955.01122.24377.13328.23291.27251l-.13296,1.68384c-.01054.13293-.12139.23355-.25236.23355ZM46.27049,107.03892c-.00662,0-.01357-.00036-.02015-.00064-.13955-.01122-.24381-.13332-.23291-.27251l.13296-1.68384c.0109-.13987.13029-.24409.27247-.23288.13958.01118.24381.13325.23295.27247l-.13296,1.68381c-.01054.133-.12139.23359-.25236.23359ZM46.5367,103.6713c-.00659,0-.01353-.00036-.02044-.00068-.13923-.01122-.24349-.13328-.23259-.27283l.13325-1.68384c.01093-.13955.12509-.23982.27287-.23259.13923.01122.24349.13332.23256.27287l-.13328,1.68381c-.01054.13261-.12139.23327-.25236.23327ZM46.80291,100.30361c-.00659,0-.0135-.00032-.02044-.00064-.13919-.01122-.24345-.13328-.23256-.27287l.13325-1.68377c.01122-.13955.13759-.23786.27287-.23259.13923.01122.24345.13328.23256.27283l-.13328,1.68381c-.01058.13264-.12139.23323-.25239.23323ZM47.06915,96.93599c-.00659,0-.0135-.00036-.02044-.00068-.13919-.01122-.24345-.13328-.23259-.27283l.13328-1.68384c.0109-.13919.13196-.24014.27283-.23256.13919.01122.24345.13328.23259.27283l-.13328,1.68381c-.01058.13264-.12174.23327-.25239.23327ZM47.3354,93.56834c-.00659,0-.0135-.00036-.02044-.00064-.13926-.01122-.24349-.13332-.23259-.27287l.13328-1.68413c.01122-.13955.1356-.23655.27283-.23259.13919.01122.24345.13325.23259.27283l-.13328,1.68416c-.01058.13261-.12142.23323-.25239.23323ZM47.60164,90.20036c-.00659,0-.01357-.00036-.02047-.00068-.13923-.01122-.24345-.13328-.23256-.27283l.13328-1.68384c.01086-.13919.12634-.24377.2728-.23256.13923.01122.24349.13328.23259.27283l-.13325,1.68384c-.01058.13261-.12142.23323-.25239.23323ZM47.86788,86.83268c-.00662,0-.01357-.00028-.02047-.00064-.13923-.01122-.24349-.13325-.23259-.2728l.13328-1.68384c.0109-.13955.13396-.23555.27283-.23259.13923.01122.24349.13328.23259.27283l-.13328,1.68384c-.01054.13261-.12139.2332-.25236.2332ZM48.13409,83.46506c-.00662,0-.01353-.00032-.02044-.00068-.13923-.01122-.24349-.13325-.23259-.27283l.13328-1.68381c.01122-.13923.13065-.23918.27283-.23256.13923.01122.24345.13325.23259.27283l-.13332,1.68381c-.01054.13261-.12171.23323-.25236.23323ZM48.4003,80.0974c-.00691,0-.0135-.00032-.02044-.00064-.13919-.01122-.24345-.13328-.23259-.27283l.13332-1.68384c.0109-.13955.12566-.2385.27283-.23256.13923.01118.24345.13325.23256.2728l-.13328,1.68384c-.01054.13264-.12171.23323-.25239.23323ZM48.66654,76.72979c-.00659,0-.0135-.00036-.02044-.00068-.13923-.01122-.24345-.13328-.23259-.27283l.13328-1.68384c.01122-.13987.13428-.2405.27287-.23256.13919.01122.24345.13328.23256.27283l-.13328,1.68384c-.01058.13257-.12142.23323-.25239.23323ZM48.93278,73.3621c-.00659,0-.01353-.00028-.02044-.00064-.13923-.01122-.24345-.13325-.23259-.27283l.13328-1.68381c.01122-.1399.13656-.24018.27283-.23259.13919.01122.24345.13328.23256.27283l-.13325,1.68381c-.01058.13264-.12142.23323-.25239.23323ZM49.19903,69.99448c-.00659,0-.01353-.00036-.02044-.00068-.13926-.01122-.24349-.13328-.23259-.27283l.13328-1.68413c.01086-.13955.12466-.2395.2728-.23259.13923.01122.24349.13328.23259.27283l-.13325,1.68416c-.01058.13261-.12142.23323-.25239.23323ZM49.46527,66.62651c-.00694,0-.01357-.00032-.02047-.00068-.13923-.01122-.24349-.13328-.23256-.27283l.13325-1.68381c.0109-.13923.12669-.24249.27283-.23259.13923.01122.24349.13328.23259.27287l-.13328,1.68377c-.01058.13264-.12139.23327-.25236.23327ZM49.73148,63.25885c-.00662,0-.01353-.00036-.02047-.00064-.13919-.01122-.24345-.13332-.23256-.27287l.13328-1.68381c.01122-.13955.13723-.23854.27283-.23259.13923.01122.24345.13328.23259.27283l-.13332,1.68384c-.01054.13264-.12139.23323-.25236.23323ZM49.99772,59.8912c-.00691,0-.01353-.00032-.02047-.00068-.13919-.01118-.24345-.13325-.23259-.2728l.13332-1.68384c.01086-.13923.12669-.23619.27283-.23259.13919.01122.24345.13332.23259.27287l-.13332,1.68381c-.01054.13261-.12171.23323-.25236.23323Z"/><path class="cls-3" d="M61.31471,87.79634c-.97289,0-1.96625-.27579-2.89424-.82771-1.8986-1.12857-2.97771-3.10405-2.81608-5.15508l.613-7.77742c.01054-.132.12039-.23355.25268-.23355h11.32853c.07061,0,.13791.02934.18573.08112.04818.05181.07228.12142.06701.19168-.10661,1.38855-.18442,2.59203-.25239,3.64312-.38204,5.9056-.46155,7.13483-3.72,9.25445-.84388.54894-1.7937.82341-2.76424.82341ZM56.70429,74.30928l-.59448,7.54386c-.14649,1.8574.83829,3.6507,2.56964,4.68,1.68381,1.00095,3.59921,1.00622,5.12303.01488,3.04565-1.9811,3.10504-2.89791,3.49072-8.86219.06367-.98347.13592-2.10018.23188-3.37656h-10.82079Z"/><path class="cls-5" d="M56.52493,36.87892c0,.55962.45361,1.01323,1.0132,1.01323s1.01323-.45361,1.01323-1.01323c0-.55958-.45365-1.01323-1.01323-1.01323s-1.0132.45365-1.0132,1.01323Z"/><path class="cls-5" d="M56.17245,39.25463c.25503.1502.58426.06506.73342-.18815l.95444-1.61996c.1492-.25325.06409-.58252-.18912-.73171-.25503-.15027-.5843-.06516-.7335.18805l-.95448,1.62c-.14923.25328-.06409.58259.18922.73179Z"/><path class="cls-7" d="M59.91983,24.71862c-.09828-.0459-.20439-.08339-.28131-.15999-.11459-.11416-.13948-.28771-.16782-.44717-.2771-1.55751-1.53019-2.8946-3.06181-3.26713-.89412-.21746-1.98851-.05437-2.77495-.53359-.21037-.12823-.61033-.4738-.68777-.54912-.74578-.72488-1.44253-1.67505-2.544-1.82101-1.00786-.13364-2.00824.32129-3.02179.29074-.97015-.02931-1.69406-.59291-2.60581-.80699-1.14894-.26984-2.36076.13538-2.95556,1.2006-.5718,1.02402.15561,1.59358.46558,2.50127.25414.74425-.04415,1.40215-.45251,2.02903-.22836.35063-.4503.68977-.6548,1.03385-.11605.36726-.33507.71918-.51547,1.06576-.06584.12652-.12456.25617-.17993.38713-.05501.15807-.10608.31926-.14891.48762-.16807.66014-.25157,1.33517-.29786,2.01354.03009.82152.22138,1.63812.56731,2.37931.18146.38909.44931.73068.61827,1.12333.10939.25399.1163.76455.29875.96612.64002.70718.9469-.39554.93863-.9966-.02656-1.93517,1.05479-3.79111,2.60485-4.94222,1.5501-1.15111,3.51575-1.64667,5.44351-1.65272,1.83796-.00588,3.69575.42317,5.27138,1.37284,1.57552.94971,2.41175,2.89132,2.96866,4.64959.50475-1.1092.96495-2.13867,1.45941-2.96076.29704-.49385.5264-1.18074.59932-1.75289.08279-.65074-.29291-1.33421-.88536-1.61056Z"/><path class="cls-7" d="M59.2647,25.63924c.29893.6344.46269,1.32619.43552,2.0478l-.78164,8.03579-7.11293-7.74605-10.72792.42833-.35573-2.76587h18.54269Z"/><path class="cls-4" d="M52.78239,57.16506l-3.20521.47708c-2.63316.02468-1.97669-4.19847-2.01144-7.89621-.02339-2.49304-.05117-4.80925-.08678-4.8089-2.55714.024-5.5227-3.25488-5.5654-7.80188l-.25439-8.7355c.09874-.34793,2.17025.3731,2.3165.05623.611-.32336,3.10504-1.40624,5.66382-1.18447,2.10178.18221,4.25309,1.30565,4.87577,1.78736,1.48746,1.15072.9151,9.83326.4424,10.10243l1.88307-.00288.25606,10.36197c.06466,2.65962-1.65418,7.61978-4.31441,7.64478Z"/><path class="cls-7" d="M43.71742,32.91995c.05793-.01079.109-.05099.13107-.10989.03304-.08955-.01164-.18869-.10102-.22269-.03201-.01189-.80144-.29302-1.68431.28732-.08008.05252-.10241.16006-.04996.23982.05259.08044.16059.10163.24018.04989.72972-.47769,1.34667-.26144,1.37252-.25214.03034.01118.06192.01325.09151.00769Z"/><path class="cls-7" d="M49.61856,32.72603c.0543.02208.11854.01599.16882-.02136.07695-.05719.09294-.16583.03579-.24281-.02055-.02735-.51643-.67955-1.57289-.66787-.09579.00093-.17263.07937-.17153.17487.00078.09611.08008.17217.17516.17163.88131-.00855,1.28717.52262,1.29094.52853.01969.02628.04536.04547.07371.05701Z"/><path class="cls-1" d="M47.83879,45.34671c6.02677-.21137,9.42313-5.14775,9.41081-6.45966-.00132-.14361-.11893-.25901-.26254-.25766-.14357.00135-.25898.11893-.25763.2625.00858.91471-3.06075,5.7298-8.89417,5.93458-.29929-.00666-.61086-.04099-.91122-.10255-.14065-.0298-.27796.06189-.30694.20272-.02884.14083.06207.27817.20272.30698.33098.06769.67396.10579,1.01897.11309Z"/><path class="cls-1" d="M46.16958,38.24083c.13107-.00125.24292-.10116.25606-.23437.0141-.14307-.09023-.27044-.23334-.28465-.57931-.05726-.79492-.16935-1.00323-.27746l-.12353-.06288c-.05088-.02457-.07289-.06434-.08233-.09336-.01499-.04561-.01008-.09511.01374-.14001.06723-.1273.01869-.28465-.10825-.35156-.12645-.06755-.28437-.01901-.3516.10793-.08902.16853-.10665.36716-.04839.54541.05772.17626.18182.31837.34971.39977l.1106.05619c.24046.12509.5129.26649,1.19231.3339.00944.00096.01894.00118.02824.0011Z"/><path class="cls-7" d="M48.59059,34.3602c.00356.37958.1816.6856.39767.68357s.38831-.31136.38475-.69091c-.00356-.37958-.1816-.6856-.39767-.68357s-.38831.31136-.38475.69091Z"/><path class="cls-7" d="M42.42138,34.28425c.00356.37955.16772.68574.36666.68389.19887-.00185.35722-.31111.3537-.69062-.0036-.37955-.16775-.68574-.36662-.68386-.19894.00185-.35729.31107-.35373.69059Z"/><path class="cls-4" d="M53.91826,36.55666c-.32927,2.23787.52252,3.92546,1.90255,3.76939,1.38003-.15614,2.76573-2.09686,3.095-4.33467.32927-2.23787-.52252-3.92546-1.90255-3.76939-1.38003.15611-2.7657,2.09683-3.095,4.33467Z"/><path class="cls-1" d="M56.26282,37.09752c.08379-.00078.1659-.0422.21529-.11747.07862-.12036.04512-.28159-.07499-.36004-.07261-.04775-.12385-.13567-.13716-.23576-.01332-.09949.01154-.19317.06819-.25706.09536-.10722.08567-.27173-.02176-.36691-.10743-.09486-.2719-.08582-.36723.02172-.15707.17694-.22825.42146-.19492.67072.03336.25168.1675.47088.36773.60214.04462.02938.09504.04316.14485.04266Z"/><path class="cls-7" d="M41.29808,27.7303c1.29041-1.2173,1.13298-4.17354,2.61593-4.55223,2.16883-.55382,11.62479-.40148,13.73832.28533.86916.28227-3.502,4.56388-2.72165,4.99866.39903.2222.78285.46529,1.14758.72709l.03191,3.40109c-.37228.34134-.71957.70647-1.03289,1.09787-.01268-1.01455.03002-2.03256-.35291-2.98234-.37004-.91809-1.30558-1.60394-2.34748-1.96739-1.08438-.3783-2.28028-.44767-3.44845-.44756-.52971-.00011-1.06145.02183-1.58151.1185-1.64062.30498-3.00961.92898-4.64788,1.24764-.01001.00192-.02005.00392-.03005.0057-1.03147.19257-2.11948-1.22628-1.37092-1.93235Z"/><path class="cls-2" d="M57.10702,49.32117l2.6322,1.50413s.035,4.46453-5.91981,10.50345l-3.56856-3.7785s6.43623-2.69996,6.85616-8.22907Z"/><path class="cls-2" d="M47.70629,50.14845s.52647,4.81314,2.63167,7.35592l-3.28999,2.99537s-2.80946-4.04065-1.42401-9.62442l2.08234-.72687Z"/><path class="cls-4" d="M45.5584,94.33288l-.0052,5.77766c-.00192,2.14138-1.44214,3.32809-3.59537,3.24662l-10.5528-.43232-.06267-9.12986,14.21604.5379Z"/><path class="cls-4" d="M47.07955,102.16485c1.08538-.63383.6872-1.06789,1.14559-1.97541.35487-.70287,1.7667-1.75033,1.69257-2.45544-.19115-1.81367-.67253-3.58533-1.43249-5.27451-.69771-1.54896-1.9508-3.20264-4.31612-3.38154-2.28684-.17299-4.51118.77316-6.12441,2.10812-3.05736,2.53097-4.12629,3.46084-5.06236,6.56546-1.17226,3.8881.33198,6.69179,5.95719,6.04354,2.89517-.33422,5.77926-.25036,8.14002-1.63022Z"/><path class="cls-4" d="M44.3073,91.83332l11.08749-.94793c.75123-.06427,1.31548-.71484,1.25298-1.44484-.0616-.73033-.72701-1.27577-1.47824-1.21129l-11.08675.94811c-.75133.06438-1.31526.71409-1.25359,1.44431.06192.7305.72712,1.27567,1.4781,1.21164Z"/><path class="cls-4" d="M46.34427,94.94513l10.80113.33657c.74866.08493,1.42942-.44165,1.51228-1.17027.08354-.72865-.46145-1.39471-1.21025-1.4796l-11.05075-1.25633c-.74895-.08542-1.42939.4414-1.51243,1.16977-.08322.72879.7112,2.31465,1.46001,2.39986Z"/><path class="cls-4" d="M45.35664,98.66267l10.92192-.24043c.75016.01204,1.37224-.58031,1.38356-1.31704.01033-.7367-.59501-1.34909-1.34517-1.36095l-11.07211-.17776c-.75002-.01228-1.37273.58059-1.38295,1.31722-.01043.7362.74503,1.7671,1.49476,1.77895Z"/><path class="cls-4" d="M42.7858,103.34862l10.83653-1.91366c.73435-.1294,1.22852-.83263,1.09901-1.56249-.13001-.72993-.83651-1.22058-1.57075-1.09107l-11.02867.56247c-.73389.12965-1.03684,2.18428-.90684,2.91393.12929.73004.83615,1.2209,1.57072,1.09082Z"/><path class="cls-4" d="M49.91557,95.63925c-.13439-.02215-.47156-.54139.12584-.58625l-.79225-.17316-.18538.75012.41915.6845.43264-.6752Z"/><path class="cls-4" d="M4.73892,101.64504c.52925-4.92491,4.19191-6.25534,8.24645-7.0482,4.27356-.83562,18.72426-1.63253,23.67495-2.23057l-.47423,10.22324c-4.72447,1.64122-17.80948,8.32949-20.02225,8.78239-7.70958,1.57802-11.90168-5.29064-11.42492-9.72687Z"/><path class="cls-4" d="M49.75893,101.64458l.0052,5.77766c.00192,2.14138,1.44214,3.32809,3.59537,3.24662l10.5528-.43232.06267-9.12982-14.21604.53786Z"/><path class="cls-4" d="M48.23778,109.47655c-1.08538-.63383-.6872-1.06789-1.14559-1.97541-.35487-.70287-1.7667-1.75033-1.69257-2.45544.19115-1.81367.67253-3.58533,1.43249-5.27451.69771-1.54896,1.9508-3.20264,4.31612-3.38154,2.28684-.17299,4.51118.77316,6.12441,2.10812,3.05736,2.53097,4.12629,3.46084,5.06239,6.56546,1.17222,3.8881-.33201,6.69179-5.95723,6.04354-2.89517-.33422-5.77926-.25036-8.14002-1.63022Z"/><path class="cls-4" d="M51.01003,99.14502l-11.08749-.94793c-.75123-.06427-1.31548-.71484-1.25298-1.44484.0616-.73033.72701-1.27577,1.47824-1.21129l11.08675.94811c.75133.06438,1.31526.71409,1.25359,1.44431-.06192.7305-.72712,1.27567-1.4781,1.21164Z"/><path class="cls-4" d="M48.97306,102.25683l-10.80113.33657c-.74866.08493-1.42942-.44165-1.51228-1.17027-.08354-.72865.46145-1.39471,1.21025-1.4796l11.05075-1.25633c.74895-.08542,1.42939.4414,1.51243,1.16977.08322.72879-.71117,2.31465-1.46001,2.39986Z"/><path class="cls-4" d="M45.40176,102.95094c.13439-.02215.47156-.54139-.12584-.58625l.79225-.17313.18538.75009-.41915.68453-.43264-.67524Z"/><path class="cls-4" d="M90.57842,108.95674c-.52921-4.92491-4.19191-6.25534-8.24645-7.0482-4.27356-.83562-18.72426-1.63253-23.67495-2.23057l.47423,10.22324c4.72447,1.64122,17.80948,8.32949,20.02225,8.78239,7.70962,1.57802,11.90168-5.29064,11.42492-9.72687Z"/><path class="cls-1" d="M16.86987,111.53713c-.11779,0-.22337-.08247-.24776-.20258-.02802-.13688.06004-.27084.19731-.29886,1.03093-.21112,4.103-1.67395,7.65998-3.36733,3.20304-1.52482,6.83327-3.25317,9.94226-4.53454.06997-.02899.14881-.02471.21515.01026,1.0263.54335,2.49635.70964,4.36821.49385.62781-.07257,1.26057-.12602,1.87253-.17811,1.63367-.13827,3.17661-.26923,4.6008-.73043.01122-.00363.02279-.00627.03401-.00823l8.16049-1.44103c.28996-.05113.54267-.21247.71192-.45461.16793-.23982.23224-.52917.18178-.81418-.1059-.5938-.67731-.99005-1.27706-.88579l-3.96712.20421c-.1039.01218-.19695-.05117-.24114-.14318-.04419-.09205-.02902-.20158.03892-.27814.11811-.13325.2306-.26589.32995-.39717.04679-.06135.11907-.09831.19627-.09995l6.7211-.14781c.30417.00459.59249-.10658.80695-.31474.20781-.20122.32461-.46843.32888-.75283.00826-.59879-.48328-1.09428-1.09556-1.10386l-6.4028-.10259c-.04091-.00064-.07983-.01122-.1148-.0297-.18933-.08279-.35234-.33913-.34839-.57173.00167-.09863.04423-.42523.51764-.48591.01353-.00167.02706-.00199.04024-.00199l7.14836.22269c.3167.03693.60865-.0459.84288-.227.23192-.17943.37741-.43446.40974-.7185.03201-.27846-.04914-.5556-.22796-.78021-.18773-.2359-.45725-.38468-.7591-.419l-9.43523-1.07252c-.07752-.0089-.14681-.05309-.18769-.11975-.04554-.07488-.06203-.18837-.02247-.26688.0396-.07816.10426-.15077.19168-.15803l7.4083-.63344c.2969-.02539.56745-.16262.76141-.38628.19236-.22138.28472-.50015.2603-.7842-.02343-.2791-.15703-.53441-.37642-.7195-.2306-.19399-.52355-.28569-.82739-.26129l-10.55358.9026c-.02012.00199-.04191.00135-.06235-.00228-.13791-.02279-.27942-.04024-.42591-.05145-2.0144-.15276-4.18415.59512-5.9432,2.051-.52551.43481-.9887.82045-1.40571,1.1797-.03792.03265-.08514.05345-.13492.05972-1.91245.22996-4.94955.46814-8.1648.7205-4.49558.3527-9.59056.75255-13.01461,1.23486-.1356.02339-.26624-.07656-.28604-.21543-.0198-.13859.07684-.26656.21543-.28604,3.43923-.48495,8.54285-.88512,13.04534-1.23846,3.16739-.24872,6.16159-.48363,8.06777-.7096.4038-.34675.85047-.71886,1.35425-1.13587,1.85964-1.53835,4.15509-2.32679,6.30509-2.1658.15077.01157.2959.02938.4378.05177l10.52221-.89996c.43417-.03824.86304.097,1.19754.37873.32265.27251.5196.65024.55428,1.06394.03628.42128-.09963.83331-.3824,1.1593-.28074.32396-.672.52223-1.10119.55884l-5.06172.43282,7.1213.80959c.43645.0495.82672.26493,1.09855.60701.26329.33059.38204.7403.33486,1.15303-.04782.42096-.26193.79802-.60306,1.06195-.33913.26261-.76041.38072-1.1896.33123l-.52754-.01649c.76205.13852,1.33709.80396,1.32619,1.59212-.00627.41961-.17779.81354-.48299,1.10913-.31139.30185-.72182.45621-1.15795.45757l-2.07835.04586c.39155.22861.68849.62314.77459,1.10649.07453.41861-.0198.84224-.26525,1.19323-.24712.35334-.61595.58889-1.03919.6631l-8.14301,1.43804c-1.47497.47477-3.04038.60737-4.69777.74792-.60801.05149-1.23685.1049-1.85704.17651-1.91476.22102-3.44549.05409-4.55594-.49453-3.07271,1.27143-6.64988,2.9744-9.81001,4.47909-3.73485,1.77817-6.68449,3.18256-7.77617,3.4059-.01713.00363-.03426.00527-.0511.00527ZM50.08941,95.48406l5.13625.08215-5.11972-.15867c-.02375.00395-.04091.00855-.05245.01253.00723.02012.02144.04522.03593.06399Z"/><path class="cls-5" d="M47.68471,40.3947h-.82362c-.16989,0-.30887-.13898-.30887-.30887s.13898-.30887.30887-.30887h.82362c.16985,0,.30883.13898.30883.30887s-.13898.30887-.30883.30887Z"/></g></g></svg>