<?xml version="1.0" encoding="UTF-8"?><svg id="_レイヤー_2" xmlns="http://www.w3.org/2000/svg" xmlns:xlink="http://www.w3.org/1999/xlink" viewBox="0 0 102.54041 102.54041"><defs><style>.cls-1{fill:#ff8375;}.cls-2{fill:#ffdeda;}.cls-3{fill:#ffc3b4;}.cls-4{fill:#fff;}.cls-5{fill:#4cb4e7;}.cls-6{fill:#f9c5d4;}.cls-7{fill:#000058;}.cls-8{clip-path:url(#clippath);}</style><clipPath id="clippath"><circle class="cls-4" cx="51.2702" cy="51.2702" r="51.2702"/></clipPath></defs><g id="_レイヤー_1-2"><circle class="cls-4" cx="51.2702" cy="51.2702" r="51.2702"/><g class="cls-8"><path class="cls-3" d="M81.65265,48.29301c.16159-.36766.33425-.74998.64971-1.00006.32115-.25453.74852-.33685,1.16111-.36167.32596-.01962.67545-.00189.94608.18317.28825.19716.43727.551.72605.74738.32959.22412.76088.19567,1.15107.27486.4617.09369.88914.35405,1.1838.72103.21351.26589.36004.58547.61018.81796.22679.21077.52009.33265.8009.46376.52828.24659,1.05543.5598,1.3665,1.05034.12951.20421.2176.43364.36491.62578.26169.34138.67613.52519,1.01904.78641.73727.56161,1.13473,1.53297.99739,2.43732-.55488-.94041-1.41137-1.70525-2.41182-2.15359-.68528-.30716-1.42807-.467-2.11705-.76568-.63696-.27611-1.22275-.67036-1.71771-1.15606-.46871-.45988-.86204-1.00508-1.40724-1.37231s-1.32228-.51155-1.83422-.11238c-.57212.4461-1.54722,4.38626-2.79094,3.37178-.75436-.61524,1.04076-3.9631,1.30223-4.55804Z"/><path class="cls-3" d="M91.69746,54.75616c-.60271-.88095-1.29721-1.71831-2.17581-2.48589-.99312-.86752-2.2878-1.91797-3.6569-2.74177-1.5355-.92393-5.15725.33151-6.83882,3.08418-1.21894,1.99535-1.29749,3.0032-1.58443,5.60823l-1.20121,7.5126,11.69244,4.75819s.6203-8.831,2.71089-11.97211c.38485-.57828.80393-1.11287,1.15011-1.62014.42495-.62279.37542-1.45389-.09628-2.1433Z"/><path class="cls-3" d="M83.04465,47.65894c.83487-.40401,9.14136,6.238,9.3444,6.51877.37243.515.27721,1.16973.04401,1.69161-.75105,1.68082-2.75654,2.62419-4.79879,2.54517-2.04228-.07894-4.07266-1.06736-5.65374-2.43482-1.41529-1.22403-2.49336-3.12473-1.74851-4.76065.24737-.54335.6846-1.00451.98329-1.52183.45995-.79663.93703-1.60643,1.82934-2.03825Z"/><path class="cls-1" d="M77.96139,59.2108c-.05993-.02482-.10843-.07634-.1257-.14147-.63429-2.45038-.15294-5.0568,1.28774-6.97182.35021-.46497.91435-1.10076,1.76881-1.24736.68332-.11669,1.39734.10245,2.06767.35583.83569.31627,1.66494.69027,2.46267,1.11329.41338.21956.88088.48723,1.19063.89676.31282.4148.43788,1.03869.07296,1.42985-.36142.38457-1.01078.35017-1.49868.1884-.20453-.06616-.40209-.1544-.59398-.23954-.24851-.11174-.48128-.21539-.72587-.27397-.37795-.09369-.83455-.0386-.97417.24684-.13246.27151.05071.62453.24466.99814.05555.10764.11113.21525.15903.32047.28558.62514.28932,1.29871.00983,1.8026-.31154.56318-.99475.88618-1.65981.78484-.11619-.01752-.19228-.11669-.18167-.22191.01061-.10515.10964-.17697.22113-.16059.50436.0767,1.0231-.17021,1.26153-.60089.22326-.40309.21568-.95177-.01987-1.46831-.04462-.09824-.09739-.19987-.15016-.3015-.21831-.42078-.46522-.89772-.25186-1.33471.23662-.48463.90149-.56788,1.41931-.44044.28074.06951.54367.18402.7978.29897.18256.08044.36609.16284.55353.22433.35117.11562.84381.16091,1.08167-.09194.2254-.24103.12281-.66709-.0872-.94583-.25592-.33885-.6746-.5775-1.04699-.77441-.7816-.41391-1.59404-.78018-2.41221-1.09079-.61328-.23217-1.2611-.4336-1.84511-.33297-.54844.09361-1.03499.44407-1.53123,1.104-1.37541,1.82841-1.835,4.31896-1.22849,6.66113.02713.10551-.03863.20639-.14639.22626-.04077.00726-.08261.00203-.11957-.01328Z"/><path class="cls-1" d="M83.55944,56.40262c-.24263-.10052-.45764-.2556-.61428-.44941-.45764-.5666-.44585-1.39488.02749-1.9273.07147-.07841.19837-.08144.28455-.01193.08649.07289.10002.19535.03002.27433-.35021.39322-.36303,1.02609-.02916,1.43996.18117.22326.48737.38069.803.40985.25577.02375.47501-.03856.61809-.17594.13065-.12559.20685-.30516.28764-.4941.09169-.21422.18637-.43606.36979-.61232.07677-.07218.20233-.07179.28583.00876.08112.07788.08485.20112.00855.27429-.13139.12527-.2076.30484-.28868.49446-.09141.21354-.18509.43503-.36823.61058-.22401.21586-.55335.31478-.9271.28009-.1685-.01585-.33365-.05761-.48751-.12132Z"/><path class="cls-1" d="M86.106,53.20678c-.10284-.04255-.15675-.15433-.12089-.2515.33329-.90303.73364-1.79281,1.19024-2.64402.05071-.0934.17316-.13296.27105-.07147.09995.05427.14087.17277.09141.2651-.44934.83726-.84363,1.7118-1.17066,2.59894-.03668.09924-.15158.14592-.25674.10483-.00146-.00064-.00296-.00125-.00442-.00189Z"/><path class="cls-1" d="M83.56731,51.82496c-.00516-.00214-.01107-.00456-.01674-.00773-.10074-.0522-.14372-.16989-.09547-.26354.40145-.78377.74425-1.60636,1.01975-2.4439.03344-.09974.14649-.15044.253-.11281.09689.04017.1664.14952.13342.25029-.28163.85513-.63173,1.69403-1.04151,2.4945-.04529.08842-.15557.12335-.25246.08318Z"/><path class="cls-1" d="M85.67411,57.48379c-.18716-.07752-.36171-.18687-.51055-.32428-.38745-.36107-.50724-.82846-.40426-1.29105.02282-.10334.13022-.16366.23879-.1356.11865.02656.17893.13535.15639.23801-.0731.32831.00185.65868.28127.91862.28088.26058.71177.39226,1.07113.3219.18833-.03643.38051-.12609.58747-.27482.76273-.54798,1.14744-1.38944,1.55537-2.28092.30677-.67072.62357-1.36462,1.11963-1.93275.06926-.0793.19364-.08902.28362-.01389.08706.0715.10163.19357.03208.27354-.46098.5295-.76747,1.19947-1.06415,1.84693-.40907.89427-.83185,1.81905-1.67227,2.42186-.25189.18178-.49382.29266-.73909.3402-.30388.05868-.63507.01659-.93543-.10775Z"/><path class="cls-1" d="M87.68281,58.4324c-.06734-.02785-.13125-.05996-.19253-.09664-.40383-.24135-.71145-.75632-.52857-1.2011.04009-.09703.16654-.15101.26094-.09582.10451.04487.15632.15981.11619.25681-.09062.22031.06944.54687.34928.71434.25827.1545.62261.1998.99044.12328.61599-.12926,1.17536-.53982,1.71005-1.25555.1429-.19143.27657-.38988.41021-.58836.28519-.4226.57995-.86055.96459-1.22984.07556-.0735.20279-.07075.28583.00876.08112.07788.0851.2004.00855.27429-.35672.3422-.62895.74514-.91656,1.17155-.13631.20304-.27336.40576-.41968.60139-.59028.791-1.22307,1.24771-1.93374,1.39659-.39557.08357-.78025.0548-1.105-.07969Z"/><circle class="cls-7" cx="39.75029" cy="21.34196" r="6.68313"/><path class="cls-2" d="M43.99493,57.06422c3.74143-3.22116,16.66396-1.38972,19.18275,1.64671,2.5237,3.04262,6.00534,6.69265,9.53668,10.59998l-13.36386,12.99521c-5.0516-5.122-10.46613-10.65478-11.47356-11.67681-2.64441-2.68241-7.43839-10.50359-3.88202-13.56508Z"/><path class="cls-3" d="M83.21447,82.20987c1.6566,2.64833,3.96381,7.65777-1.58115,11.1893-3.46928,2.20942-10.48942.2567-13.05863-1.89457-.27675-.2317-1.10973-1.04186-2.29225-2.21701l12.33172-13.19358c1.90437,2.29431,3.52878,4.403,4.60031,6.11587Z"/><path class="cls-6" d="M59.35051,82.30612l13.36386-12.99521c.76326.84452,1.52877,1.70051,2.28751,2.56561,1.26474,1.44199,2.4872,2.86205,3.61228,4.21748l-12.33172,13.19358c-1.7604-1.74958-4.29635-4.30924-6.93194-6.98147Z"/><path class="cls-3" d="M79.03744,64.09896c-2.39872,7.07216-5.59855,16.33462-6.31801,18.8757-.82964,2.92956.63233,9.66209,4.03022,10.61116,4.17443,1.16582,7.96653-2.26344,9.1143-6.86841.9543-3.82889,1.89984-13.13194,2.39615-20.08033l-9.22265-2.53812Z"/><path class="cls-7" d="M36.78201,39.47394c1.06604,2.50184,2.98088,4.6972,5.63006,5.54677,2.68718.86179,5.74874.17452,7.61953-1.99492.98382-1.14078,1.57531-2.64228,1.64995-4.14313.07474-1.50327-.02047-2.8435.83476-4.15606.79211-1.21556,1.6111-2.17837,1.98851-3.62535.25528-.97834.35971-2.00599.24591-3.00765-.65167-.95046-.81543-2.02166-1.62146-3.14079-1.22802-1.70503-3.66926-3.1132-6.37292-3.29996-7.71845-.53302-12.20264,4.88225-11.52142,10.19052.16818,1.31031.92428,6.16881,1.54707,7.63057Z"/><path class="cls-4" d="M50.97893,50.52384c.01086.02799.00171.01179-.0062-.00449l.0062.00449Z"/><path class="cls-3" d="M49.95316,56.0866c1.19266-.34547,2.66945-1.69869,2.47592-3.73018-6.53964-3.12075-12.43502-2.61183-17.01631-.85211,4.30251,3.31652,9.29729,6.82048,14.54039,4.58229Z"/><path class="cls-2" d="M27.8422,92.5821c.56898-15.85231-4.04859-33.70755-4.10991-33.71207.68888-1.62847,6.29586-5.43219,11.9652-7.50555,4.51858,3.31652,7.9885,6.15425,13.23823,4.58229,1.25256-.34547,2.88833-1.96953,2.68508-4.00105,2.93127,1.33189,7.93256,3.59213,11.05587,6.43363l4.52528,34.20275,2.23221,26.15432c.19471,1.07943-.63344,2.07262-1.73028,2.07507l-41.6092.09379c-.66385.0015-1.10564-.68493-.82654-1.2872,1.33948-2.89043,2.50469-25.10117,2.57405-27.03598Z"/><path class="cls-7" d="M52.68332,30.65894c.07595.2531.10038.52049.08072.7951-.12185-.3444-.28155-.67008-.46155-.98389.16081.06883.28732.13403.38083.1888Z"/><path class="cls-3" d="M40.58444,51.35782c-.02407.96523.348,1.49719,1.31352,1.50538l6.13114.31449c.23566-.25499-.11174-.51931-.10348-.73471,0,0,.23594-7.21516.30595-7.21299,2.17132.06766,5.12962-2.29353,5.73454-7.65696l.31307-8.80554c-.09799-.34412-2.14686.37111-2.29186.05758-.60481-.31926-3.07332-1.3884-5.60467-1.16681-2.07935.18199-4.2068,1.29546-4.8225,1.77262-1.47066,1.13968-.89679,9.72957-.42883,9.99542l-.24976.01264-.29712,11.91888Z"/><path class="cls-4" d="M48.26558,39.76251c.08272.49759.50699.88633,1.04592.89067.53915.00431.96936-.37755,1.05999-.87376l-2.10591-.01691Z"/><path class="cls-7" d="M52.34789,32.65873c-.05829-.0005-.11501-.0308-.14671-.08436-.04772-.08147-.0214-.1858.05982-.23437.02909-.01752.72972-.42406,1.6904-.01211.08713.03725.12751.13816.09027.22497-.03728.08745-.1388.1268-.22529.0902-.79342-.33846-1.35692-.0209-1.38068-.00773-.02756.0162-.05797.02364-.08781.02339Z"/><path class="cls-7" d="M46.2493,32.60721c-.05797-.0005-.11434-.03045-.14607-.08368-.04853-.08147-.02183-.1868.05968-.23537.02909-.01752.72986-.42406,1.69057-.01211.08713.03725.12751.13816.09023.22494-.03742.08749-.13862.12684-.22526.09023-.80165-.34291-1.37423-.01132-1.38018-.00805-.02792.01652-.05865.02428-.08899.02404Z"/><path class="cls-1" d="M48.32768,45.45126c-5.81736-.19926-8.52939-5.45971-8.51857-6.73427.00082-.09479.0782-.17088.17302-.17007s.17092.0782.1701.17299c-.01029,1.20822,2.59645,6.1967,8.18253,6.38827.09482.00317.16885.08286.16572.17736-.00331.09312-.08015.1665-.17281.16572Z"/><path class="cls-1" d="M49.82526,38.50796c-.12969-.0011-.24043-.09992-.25357-.2317-.01403-.14151.08906-.26763.23063-.28184.57347-.05712.78652-.16821.99269-.27568l.12164-.06199c.05046-.02436.07225-.0637.08154-.09244.01478-.04515.00986-.09411-.01374-.13855-.06662-.12588-.01869-.28159.10682-.34789.12491-.06662.28131-.01905.34793.1065.08824.16661.10583.3631.04836.53957-.05694.17444-.17961.3151-.34565.39582l-.10907.05534c-.23776.12399-.5072.26443-1.17963.33176-.00936.00093-.01877.00121-.02795.0011Z"/><path class="cls-7" d="M47.31427,34.66989c-.00317.37552-.18164.67844-.39853.67659s-.39012-.30776-.38696-.68329c.0032-.37552.18164-.67844.39853-.67659.21689.00182.39016.30773.38696.68329Z"/><path class="cls-7" d="M53.29254,34.58827c-.00317.37552-.16665.67859-.36513.67691-.19841-.00167-.35669-.30751-.35348-.68304.00317-.37549.16665-.67859.36506-.67688.19848.00167.35676.30748.35355.683Z"/><path class="cls-3" d="M42.1574,36.84862c.32774,2.2138-.51354,3.88422-1.87905,3.731-1.36551-.15326-2.73817-2.07215-3.06594-4.28596-.32774-2.2138.51354-3.88419,1.87905-3.73096,1.36551.15326,2.73817,2.07212,3.06594,4.28592Z"/><path class="cls-1" d="M39.8382,37.38598c-.08293-.00071-.16415-.04163-.21312-.11612-.07791-.11893-.0449-.27849.07389-.35623.07196-.04732.1226-.13467.13567-.23341.01307-.09871-.01175-.19139-.06787-.25456-.09443-.10604-.085-.26877.02136-.36338.10586-.09326.26877-.0845.3632.02154.15568.17487.22618.41708.1936.66374-.03297.24904-.16551.46604-.36345.59608-.04415.02906-.09401.04273-.14329.04234Z"/><path class="cls-7" d="M41.74421,34.43512c.11284-.3146.20325-.63571.35669-.93856.43239-.85335,1.3493-1.50363,2.38689-1.87296,1.03752-.36933,2.18995-.47982,3.32343-.47128,1.08392.00812,3.43161-1.05999,4.46307-1.32869,1.29023-.33607,1.7911.31374,2.51964-.61681.05751-.07346-.65484-.51308-.68774-.59623-.03294-.08332-.14336-.1262-.24331-.15807-1.90348-.60719-4.45506-2.51341-6.48936-2.37995-2.48713.16319-4.62217,2.47303-6.54612,3.76429-.69753.46818-1.28571,1.03666-1.80562,1.6393-.23551.27294-1.1374-.13624-1.31669.1639-.62557,1.04724-1.14947,2.93341-1.19822,4.09908-.03536.84548.01289,1.71012.10259,2.555.10081.95006,2.09779.04928,2.53353-.30409,1.21189-.98282,2.12076-2.2153,2.60122-3.55495Z"/><path class="cls-1" d="M46.06762,36.4117c-.00203.24114-.43652.43293-.97047.42837-.53395-.00452-.96513-.20368-.96306-.44482.00207-.2411.43656-.43293.97047-.42837.53395.00452.96513.20368.96306.44482Z"/><path class="cls-1" d="M54.02205,35.97123c-.53412-.00456-.96858.18723-.97065.4283-.00203.23915.42239.43642.94996.44418l.03223-.87187c-.00406-.00004-.00769-.00057-.01154-.00061Z"/><path class="cls-7" d="M38.53825,40.86772c-.12691,0-.24983-.0678-.31399-.18776-.55499-1.03349-1.42903-1.8371-2.35435-2.68768-1.01523-.93333-2.06503-1.89831-2.6494-3.19467-.73862-1.63784-.60872-3.73225.33867-5.46502,1.05799-1.93552,2.79913-3.06078,4.07341-3.66413.17786-.08414.39016-.00833.47412.16971.08418.17769.00837.39016-.1695.4743-1.66636.78869-2.99925,1.98246-3.75315,3.3616-.84256,1.54116-.96306,3.39215-.31435,4.83076.52458,1.1635,1.47546,2.03772,2.48215,2.96304.92813.85335,1.88788,1.73558,2.4997,2.87544.09304.1732.02799.38913-.14517.48199-.05355.02884-.11128.04241-.16814.04241Z"/><path class="cls-5" d="M79.61814,69.72005l3.88739-20.25438c.15685-.81725-.2917-1.52282-.96808-1.52282h-11.77705c-.59323,0-1.15218.54815-1.28973,1.26495l-3.88739,20.25438c-.15685.81725.2917,1.52286.96808,1.52286h11.77705c.59323,0,1.15218-.54819,1.28973-1.26498Z"/><path class="cls-3" d="M81.84309,47.84723l2.71321-6.22461c.3088-.74329,1.17984-1.07298,1.90344-.72046.66182.32243.96021,1.10279.6824,1.78454l-2.13525,5.23947-3.1638-.07894Z"/><rect class="cls-4" x="33.00649" y="69.38269" width="13.65508" height="6.82757" rx="1.10122" ry="1.10122" transform="translate(79.68209 145.58528) rotate(179.98896)"/><path class="cls-7" d="M38.8922,69.37237l1.16521-.00021-.00036-1.89981c-.00007-.32176-.26094-.58255-.58269-.58248s-.58259.26094-.58252.58269l.00036,1.89981Z"/><path class="cls-1" d="M71.63031,86.19212c-.02831,0-.05701-.00452-.08535-.01389-.1398-.04729-.2149-.19855-.16761-.33835l2.48788-7.37761c.04693-.1398.19837-.2149.33835-.16796.1398.04732.2149.19859.16761.33835l-2.48788,7.37761c-.03757.11163-.14154.18185-.253.18185Z"/><path class="cls-2" d="M19.98829,77.59898c-3.01755-7.14049,1.94229-18.9889,6.35059-21.21214,4.18971-2.11317,8.62568,6.91182,10.09128,10.38159.8119,1.92206,3.57493,7.54226,6.11355,13.02206l-16.85899,8.8958c-2.58545-4.77037-4.91544-9.23928-5.69644-11.08732Z"/><path class="cls-3" d="M41.34479,80.66899c.73043,1.57663,1.44235,3.14172,2.0838,4.60365,2.76267,6.29611,2.30168,6.01769,2.87932,7.85757,1.00366,3.19709,3.45764,9.50909.08827,11.86799-5.3854,3.77042-10.66155.6887-12.47387-1.85562-1.08641-1.52546-4.62779-7.79569-8.23758-14.45629l15.66006-8.01731Z"/><path class="cls-3" d="M64.3179,72.31771c-.44938.50998-25.49019,17.79495-28.23071,20.00042l11.03063,12.06152c3.0892-3.91819,25.0224-26.02638,25.02215-26.02716l-7.82207-6.03479Z"/><path class="cls-3" d="M75.10607,75.46327c.45992-1.0106.80233-1.92445.67036-2.81281-.10227-.68799-.46875-1.35967-.88163-1.83052-1.06255-1.211-2.31304-2.24371-3.72238-3.07485-1.29301-.76177-3.04002-1.3159-4.83763-.23922-1.73793,1.04111-2.86027,2.8576-3.34351,4.64311-.91538,3.3845-.71192,3.7237.19549,6.44065,1.13647,3.40262,3.15044,5.53488,6.8781,2.19945,1.91825-1.717,4.04161-3.12683,5.04121-5.32582Z"/><path class="cls-3" d="M68.11299,69.18653l8.68347-4.60732c.58832-.31218.8218-1.0362.51839-1.60789-.30285-.57233-1.03239-.78531-1.62068-.47291l-8.68272,4.60721c-.58839.31232-.82195,1.03549-.51906,1.60768.30313.5723,1.03239.7852,1.6206.47323Z"/><path class="cls-3" d="M71.28544,71.2042l8.27825-5.36777c.58348-.32037.8061-1.04731.49442-1.61516-.31118-.56827-1.04389-.77095-1.62737-.45044l-8.61272,4.72732c-.58383.32015-.80614,1.04713-.49467,1.61484.31147.56824,1.37843,1.41148,1.96209,1.09122Z"/><path class="cls-3" d="M72.42249,74.42084l7.53681-6.14104c.53882-.38596.66897-1.13352.28964-1.66237-.38005-.52836-1.13174-.64479-1.67042-.25884l-7.95304,5.69547c-.53882.38564-.66915,1.13387-.28903,1.66212.37966.52804,1.54761,1.09043,2.08604.70465Z"/><path class="cls-3" d="M72.61203,78.50621l6.84206-6.90502c.4638-.46771.4618-1.22688-.00374-1.68744-.46586-.46031-1.22571-.45408-1.68936.01364l-6.84217,6.90559c-.46333.46764-.4618,1.22692.00392,1.68708.46551.4607,1.22564.45454,1.68929-.01385Z"/><path class="cls-3" d="M74.18129,69.46969s-1.01704.31873-.43919-.44888l-.84004.12548.24869.63564.65135.28009.37919-.59234Z"/><path class="cls-1" d="M78.75396,63.91209c-.00894.08418-.05875.16223-.1398.20386l-7.91148,4.06714c-.12755.06577-.28419.01542-.34999-.11231-.06538-.12758-.01542-.28419.11249-.35007l7.91145-4.06714c.12755-.06577.28426-.01538.34999.11227.02393.04682.03255.09742.02735.14624Z"/><path class="cls-1" d="M79.21772,66.2142c-.00776.07303-.04608.14218-.11142.18694l-4.94232,3.35081c-.11826.08136-.28024.05124-.36128-.06698-.08097-.11897-.0512-.28042.06705-.3616l4.94232-3.35078c.11829-.0814.2802-.05128.36132.06694.0365.05327.05067.11523.04433.17466Z"/><path class="cls-1" d="M78.78889,69.49418c-.01207.05576-.04245.10804-.09034.14685l-3.44329,2.78895c-.11174.09027-.27536.07314-.3658-.03842-.09116-.11174-.07407-.27518.03842-.3658l3.44329-2.78895c.1117-.09027.27532-.07318.3658.03846.05163.06385.06805.14446.05192.21892Z"/><path class="cls-1" d="M67.72835,82.57635c-.10864,0-.21091-.06677-.25072-.17491-.05074-.13837.02019-.29174.15856-.34287.65986-.24271,1.3873-.71736,2.16242-1.41076.41608-.37243.84516-.73371,1.26021-1.0832,1.10631-.93123,2.15127-1.811,2.94082-2.86604.00744-.01008.01545-.01912.02414-.02817l5.15241-5.1997c.17423-.17562.26988-.40932.26916-.65758-.00053-.24794-.09685-.47954-.27105-.65202-.22725-.22462-.55378-.31261-.87422-.23227-.12085.02955-.24723-.02817-.30288-.14015-.0558-.11195-.0266-.24723.07026-.32617l1.63488-1.33218c.21906-.15753.35505-.37556.39607-.62418.03981-.241-.01513-.48093-.15475-.67531-.181-.25211-.48093-.39052-.80307-.37068-.13093.00798-.25214-.08347-.27839-.2149-.0558-.12068-.01652-.26115.09511-.33383l.37296-.24171c.23751-.13107.39952-.32963.47274-.56852.0725-.23647.0485-.48303-.06712-.69376-.20482-.37382-.54385-.51048-.95452-.38389-.73164.35676-1.61334.80639-1.61334.80639-.11302.05808-.25036.02817-.32948-.07058-.07926-.09842-.07841-.23925.00192-.33696.23854-.28999.31731-.95384.15023-1.26819-.11042-.20863-.29836-.36235-.52978-.43328-.24324-.07478-.50268-.04974-.72958.07093l-8.68297,4.60718c-.06085.03233-.12121.07581-.19004.1377-.02001.01809-.04262.03269-.06694.04383-.15596.07161-.28551.13909-.40771.21212-1.52396.91278-2.69861,2.54717-3.22283,4.48372-.19909.73581-.32792,1.26331-.41797,1.71016-.02923.14432-.17024.23644-.31471.20899-.1445-.0292-.23804-.17003-.20899-.31471.09247-.45831.22394-.99625.42595-1.74388.56023-2.0687,1.82268-3.8192,3.46419-4.80263.12969-.07752.26514-.14881.4237-.22287.09041-.07755.17562-.13666.26532-.18431l8.68247-4.60682c.35295-.1878.75685-.22707,1.13694-.11024.36773.11302.66783.35957.84498.69408.15842.29836.18986.72573.11217,1.12148.29957-.15023.66103-.33073.99034-.49104.0115-.00555.02332-.0104.03529-.01424.67065-.21561,1.26944.02015,1.60362.63009.1857.33803.22462.73132.10971,1.10685-.0965.31506-.29124.58455-.55638.77441.24584.09981.46091.26639.62001.48755.22305.31086.31104.69198.24794,1.0738-.06434.38948-.27714.73093-.599.96149l-1.07085.87283c.22063.06677.42442.18602.5943.35398.27625.27333.42876.63913.42961,1.03036.00103.39084-.14952.75842-.42388,1.0352l-5.13956,5.18649c-.82483,1.09748-1.88788,1.99253-3.01314,2.93978-.41209.34668-.83804.70554-1.24821,1.07241-.82554.73894-1.61071,1.24839-2.33419,1.51438-.03041.01115-.06153.01634-.09215.01634Z"/><path class="cls-1" d="M27.01181,88.22222c-.09596,0-.1888-.05181-.23662-.14293-.06851-.1304-.01827-.29209.11231-.36061l14.34173-7.53578c.52804-.27924.73962-.94098.47117-1.47511l-6.67655-13.27904c-.06623-.13179-.01321-.29245.11858-.35854.13129-.06677.29245-.01285.35854.11861l6.67655,13.27901c.39831.79182.0845,1.77347-.69931,2.18763l-14.34241,7.53617c-.03967.02087-.08208.03059-.12399.03059Z"/></g></g></svg>