<svg width="276" height="38" viewBox="0 0 276 38" fill="none" xmlns="http://www.w3.org/2000/svg">
<circle cx="5.1733" cy="5.1733" r="5.1733" transform="matrix(4.37114e-08 -1 -1 -4.37114e-08 43.2676 37.3467)" fill="#F6F2E1"/>
<circle cx="5.1733" cy="5.1733" r="5.1733" transform="matrix(4.37114e-08 -1 -1 -4.37114e-08 10.3466 37.3467)" fill="#F6F2E1"/>
<circle cx="5.1733" cy="5.1733" r="5.1733" transform="matrix(4.37114e-08 -1 -1 -4.37114e-08 76.1886 37.3467)" fill="#F6F2E1"/>
<circle cx="5.1733" cy="5.1733" r="5.1733" transform="matrix(4.37114e-08 -1 -1 -4.37114e-08 242.268 37.3467)" fill="#F6F2E1"/>
<circle cx="5.1733" cy="5.1733" r="5.1733" transform="matrix(4.37114e-08 -1 -1 -4.37114e-08 209.347 37.3467)" fill="#F6F2E1"/>
<circle cx="5.1733" cy="5.1733" r="5.1733" transform="matrix(4.37114e-08 -1 -1 -4.37114e-08 275.189 37.3467)" fill="#F6F2E1"/>
<path d="M128 27L138.8 16.2" stroke="#D9D9D9" stroke-width="2" stroke-linejoin="round"/>
<circle cx="145.619" cy="9.38136" r="9.38136" fill="#FF8278"/>
<circle cx="148.257" cy="5.57015" r="2.63851" fill="white"/>
</svg>
