<?xml version="1.0" encoding="UTF-8"?>
<svg id="_レイヤー_2" data-name="レイヤー 2" xmlns="http://www.w3.org/2000/svg" viewBox="0 0 930.71 270.6">
  <defs>
    <style>
      .cls-1 {
        fill: #aa5a00;
      }

      .cls-2 {
        fill: #f9be56;
      }

      .cls-3 {
        fill: #fff;
      }
    </style>
  </defs>
  <g id="_レイヤー_1-2" data-name="レイヤー 1">
    <g>
      <rect class="cls-3" x="0" y="11.29" width="270.37" height="246.11"/>
      <polygon class="cls-3" points="279.87 266.9 8.5 266.9 8.5 264.9 277.87 264.9 277.87 19.79 279.87 19.79 279.87 266.9"/>
      <polygon class="cls-3" points="604.79 266.9 333.43 266.9 333.43 264.9 602.79 264.9 602.79 19.79 604.79 19.79 604.79 266.9"/>
      <polygon class="cls-3" points="930.71 266.9 659.35 266.9 659.35 264.9 928.71 264.9 928.71 19.79 930.71 19.79 930.71 266.9"/>
      <rect class="cls-3" x="325.92" y="11.29" width="270.37" height="246.11"/>
      <rect class="cls-3" x="651.84" y="11.29" width="270.37" height="246.11"/>
      <g>
        <path class="cls-1" d="M65.37,105.58c-.24,0-.26-.02-.26-.26,0-.17.05-1.78.05-9.22v-4.78c0-4.75-.05-6.43-.05-6.58,0-.24.02-.26.26-.26.17,0,.96.05,3.19.05h13.03c2.23,0,3.02-.05,3.19-.05.24,0,.26.02.26.26,0,.14-.05,1.82-.05,5.76v5.57c0,7.44.05,9.07.05,9.22,0,.24-.02.26-.26.26h-2.06c-.24,0-.26-.02-.26-.26v-1.13h-14.79v1.15c0,.24-.02.26-.26.26h-2.04ZM67.67,101.93h14.79v-15.14h-14.79v15.14ZM77.37,92.97c1.92,0,2.59-.05,2.74-.05.24,0,.26.02.26.26v1.58c0,.24-.02.26-.26.26-.14,0-.82-.05-2.74-.05h-1.25v3.19h1.97c2.23,0,2.95-.05,3.1-.05.26,0,.29.02.29.26v1.66c0,.24-.02.26-.29.26-.14,0-.86-.05-3.1-.05h-6.05c-2.23,0-2.95.05-3.1.05-.26,0-.29-.02-.29-.26v-1.66c0-.24.02-.26.29-.26.14,0,.86.05,3.1.05h1.66v-3.19h-.94c-1.97,0-2.64.05-2.78.05-.24,0-.26-.02-.26-.26v-1.58c0-.24.02-.26.26-.26.14,0,.82.05,2.78.05h.94v-2.52h-1.39c-2.16,0-2.9.05-3.05.05-.22,0-.24-.03-.24-.27v-1.61c0-.24.02-.26.24-.26.14,0,.89.05,3.05.05h5.57c2.18,0,2.93-.05,3.07-.05.22,0,.24.02.24.26v1.61c0,.24-.02.27-.24.27-.14,0-.89-.05-3.07-.05h-1.75v2.52h1.25ZM78.81,95.18c.24-.12.29-.07.48.14.43.5.77.98,1.18,1.73.1.19.1.24-.19.38l-1.03.55c-.31.17-.36.1-.48-.17-.24-.55-.7-1.32-1.1-1.78-.17-.19-.07-.21.19-.36l.96-.5Z"/>
        <path class="cls-1" d="M100.14,91.34c-.55.41-1.1.77-1.63,1.08,2.14,2.62,3.14,5.54,3.14,8.5,0,3.36-.82,4.49-3.62,4.49-.41,0-.82,0-1.25-.05q-.65-.05-.77-.65c-.17-.7-.38-1.3-.7-1.73,1.06.12,1.99.14,2.5.14,1.01,0,1.46-.29,1.46-2.3,0-.43-.02-.89-.07-1.3-2.83,2.16-5.62,3.62-8.95,4.87-.29.1-.46.17-.58.17-.19,0-.29-.14-.48-.53-.36-.67-.62-.96-1.13-1.39,4.3-1.25,7.58-2.88,10.66-5.3-.14-.38-.29-.77-.48-1.15-2.33,1.54-4.78,2.64-7.58,3.62-.29.1-.46.17-.58.17-.17,0-.26-.14-.46-.5-.31-.55-.67-.98-1.06-1.34,3.67-.82,6.14-1.95,8.74-3.6-.22-.34-.43-.67-.7-1.01-1.66.86-3.29,1.51-5.16,2.09-.7.19-.72.17-.98-.29-.38-.72-.62-.98-1.1-1.42,3.17-.67,5.5-1.49,7.51-2.57h-1.25c-2.28,0-3.07.05-3.22.05-.26,0-.29-.02-.29-.29v-1.51c0-.27.02-.29.29-.29.14,0,.94.05,3.22.05h6.82c2.3,0,3.1-.05,3.24-.05.24,0,.26.02.26.29v1.51c0,.26-.02.29-.26.29-.14,0-.94-.05-3.17-.05.31,1.29.7,2.47,1.18,3.53.46-.43.91-.89,1.49-1.56.41-.46.77-1.01,1.03-1.44.74.5,1.27.91,1.75,1.34.26.19.36.34.36.48,0,.19-.17.31-.31.36-.31.12-.55.46-1.06.96-.72.7-1.46,1.37-2.16,1.92,1.3,1.99,3.05,3.6,5.4,4.97-.5.5-.94.98-1.3,1.66-.22.38-.31.55-.48.55-.1,0-.24-.12-.5-.29-4.06-2.98-6.26-7.03-7.66-12.48h-.12ZM105.74,85.54c2.21,0,3-.05,3.17-.05.24,0,.26.03.26.26,0,.14-.05.55-.05,1.15v.98c0,2.04.05,2.42.05,2.57,0,.24-.02.26-.26.26h-1.97c-.24,0-.26-.02-.26-.26v-2.83h-15.27v2.83c0,.24-.02.26-.26.26h-1.97c-.24,0-.26-.02-.26-.26,0-.14.05-.53.05-2.57v-.79c0-.79-.05-1.18-.05-1.35,0-.24.02-.26.26-.26.17,0,.96.05,3.17.05h5.26v-.05c0-.79-.02-1.44-.17-2.04.86.02,1.75.07,2.59.14.24.03.36.12.36.22,0,.17-.07.29-.14.48-.07.19-.12.5-.12,1.2v.05h5.62Z"/>
        <path class="cls-1" d="M117.47,87.77c1.82,0,2.42-.05,2.54-.05.24,0,.26.02.26.26v1.71c0,.26-.02.29-.26.29-.12,0-.72-.05-2.54-.05h-2.45c-1.85,0-2.42.05-2.57.05-.24,0-.26-.02-.26-.29v-1.71c0-.24.02-.26.26-.26.14,0,.72.05,2.57.05h2.45ZM119.82,101.4c0,2.78.05,3.31.05,3.46,0,.24-.02.27-.26.27h-1.75c-.24,0-.26-.03-.26-.27v-.65h-2.18v1.08c0,.24-.02.26-.26.26h-1.73c-.26,0-.29-.02-.29-.26,0-.14.05-.7.05-3.6v-1.54c0-1.51-.05-2.09-.05-2.26,0-.24.02-.27.29-.27.14,0,.65.05,2.18.05h1.8c1.54,0,2.04-.05,2.21-.05.24,0,.26.03.26.27,0,.14-.05.72-.05,1.85v1.66ZM117.47,84.48c1.54,0,2.02-.05,2.16-.05.26,0,.26.02.26.26v1.58c0,.24,0,.26-.26.26-.14,0-.62-.05-2.16-.05h-1.85c-1.56,0-2.04.05-2.18.05-.24,0-.26-.02-.26-.26v-1.58c0-.24.02-.26.26-.26.14,0,.62.05,2.18.05h1.85ZM117.35,91.18c1.44,0,1.87-.05,2.02-.05.26,0,.29.02.29.26v1.56c0,.24-.02.26-.29.26-.14,0-.58-.05-2.02-.05h-1.7c-1.46,0-1.9.05-2.04.05-.24,0-.26-.02-.26-.26v-1.56c0-.24.02-.26.26-.26.14,0,.58.05,2.04.05h1.7ZM117.35,94.42c1.44,0,1.87-.05,2.02-.05.26,0,.29.02.29.26v1.54c0,.24-.02.26-.29.26-.14,0-.58-.05-2.02-.05h-1.7c-1.46,0-1.9.05-2.04.05-.24,0-.26-.02-.26-.26v-1.54c0-.24.02-.26.26-.26.14,0,.58.05,2.04.05h1.7ZM115.41,99.67v2.57h2.18v-2.57h-2.18ZM124.58,92.81c1.34,0,1.73-.05,1.87-.05.26,0,.29.02.29.29v1.66c0,.26-.02.29-.29.29-.14,0-.48-.03-1.49-.05v4.8c.86-.26,1.75-.55,2.66-.89-.05.36-.07.89-.1,1.39q0,.77-.7,1.03c-1.68.65-3.24,1.15-4.73,1.59-.48.1-.62.19-.77.29-.12.1-.24.14-.34.14-.14,0-.24-.1-.31-.31-.14-.48-.36-1.39-.5-2.21.77-.07,1.44-.19,2.11-.34l.38-.07v-5.42c-1.22,0-1.58.05-1.73.05-.24,0-.26-.03-.26-.29v-1.66c0-.26.02-.29.26-.29.14,0,.53.05,1.87.05h1.75ZM124.36,90.21c-2.26,0-3.02.05-3.17.05-.24,0-.26-.03-.26-.29v-1.82c0-.24.02-.26.26-.26.14,0,.91.05,3.17.05h2.98v-.89c-.02-1.61-.02-2.35-.17-3.43.96.02,1.61.07,2.45.17.24.05.41.14.41.26,0,.17-.07.31-.14.48-.14.29-.17.53-.17,1.85v1.56h.74c2.23,0,3-.05,3.14-.05.24,0,.26.02.26.26v1.82c0,.26-.02.29-.26.29-.14,0-.91-.05-3.14-.05h-.67c.12,3.43.43,6.36.96,8.93.36,1.75.84,2.78,1.25,2.78.36,0,.6-.84.7-3.19.46.34.94.6,1.34.77.7.29.65.38.58,1.13-.34,3.21-1.1,4.34-2.47,4.34s-2.74-1.18-3.67-5.02c-.62-2.57-.96-6.03-1.08-9.75h-3.02ZM131.75,84.21c.29-.14.34-.12.5.1.55.74.94,1.44,1.34,2.35.1.22.02.31-.29.46l-1.13.53c-.34.17-.36.12-.43-.12-.36-.94-.77-1.68-1.3-2.42-.14-.22-.1-.29.19-.41l1.1-.48Z"/>
        <path class="cls-1" d="M137.94,97.87c.31.1.34.12.34.38-.1,2.09-.26,3.84-.86,5.5-.05.14-.07.19-.14.19-.05,0-.14-.03-.26-.12l-.72-.48c-.29-.19-.31-.26-.24-.53.5-1.37.7-3.02.82-4.97q.02-.29.36-.19l.72.21ZM152.68,91.08v1.58h1.08c2.02,0,2.71-.05,2.88-.05.24,0,.26.02.26.26,0,.17-.05.62-.05,1.82v2.11c0,1.2.05,1.68.05,1.82,0,.24-.02.26-.26.26-.17,0-.86-.05-2.88-.05h-.72c1.15,1.9,3.12,3.34,5.52,4.2-.38.38-.84,1.03-1.15,1.66-.22.41-.29.55-.46.55-.12,0-.26-.1-.55-.24-2.09-1.25-3.7-2.88-4.73-4.68-.91,2.04-2.78,3.67-4.9,4.82-.29.17-.46.26-.58.26-.17,0-.29-.17-.53-.5-.29-.43-.62-.79-.94-1.05-.38,1.01-1.22,1.42-2.21,1.42-.34,0-.72,0-1.08-.05q-.38-.05-.5-.77c-.12-.6-.29-1.1-.48-1.56.7.1,1.22.17,1.63.17.58,0,.86-.14,1.08-.58.29-.6.43-2.18.53-5.81h-4.03c-1.61,0-2.21.05-2.45.05s-.26-.02-.26-.26c0-.17.05-1.03.05-2.95v-6c0-1.9-.05-2.81-.05-2.95,0-.24.02-.26.26-.26s.84.05,2.45.05h3.55c1.46,0,2.14-.05,2.28-.05.26,0,.29.02.29.26v1.54c0,.21-.02.24-.29.24-.14,0-.82-.05-2.28-.05h-.34v1.68c1.22,0,1.68-.05,1.8-.05.24,0,.26.02.26.26v1.06c2.04-.98,3.82-2.62,4.97-4.44.31-.5.53-.91.7-1.46.77.12,1.44.27,2.14.41.19.07.31.14.31.31,0,.14-.05.24-.22.34l-.17.12c1.42,1.94,3.38,3.46,6.05,4.46-.29.34-.58,1.03-.77,1.73-.12.41-.19.6-.36.6-.12,0-.31-.1-.58-.24-.65-.34-1.27-.72-1.85-1.15v.96c0,.22-.02.24-.26.24-.17,0-.6-.05-2.14-.05h-.1ZM139.38,97.8c.31-.07.34-.05.36.17.22,1.44.36,2.88.43,4.34,0,.21-.02.31-.29.41l-.65.19c-.29.1-.34.12-.34-.12,0-1.61-.07-3.07-.26-4.54-.05-.24-.05-.29.22-.34l.53-.12ZM140.9,87.98v-1.68h-1.85v1.68h1.85ZM140.9,91.37v-1.63h-1.85v1.63h1.85ZM140.9,94.85v-1.71h-1.85v1.71h1.85ZM140.92,97.68c.24-.05.29-.07.34.14.24,1.08.46,2.38.58,3.55.02.21,0,.29-.24.38l-.48.19c-.26.1-.31.12-.34-.14-.12-1.32-.31-2.57-.55-3.7-.05-.21-.05-.24.22-.31l.48-.12ZM142.29,97.37c.22-.1.26-.07.31.1.29.79.55,1.68.7,2.57.02.19,0,.24-.19.34l-.46.22c-.22.12-.29.1-.31-.1-.14-.91-.36-1.87-.62-2.66q-.05-.17.14-.26l.43-.19ZM143.3,94.85c1.44,0,1.87-.05,2.02-.05.24,0,.29.05.29.31-.05.58-.07,1.2-.07,1.68-.12,3.51-.34,5.45-.67,6.72,2.18-.94,3.94-2.33,4.87-4.22l.19-.43h-.43c-2.02,0-2.71.05-2.88.05-.24,0-.26-.02-.26-.26,0-.17.05-.62.05-1.82v-2.11c0-1.2-.05-1.66-.05-1.82,0-.24.02-.26.26-.26.17,0,.86.05,2.88.05h.98v-1.58c-1.46,0-1.9.05-2.02.05-.24,0-.26-.02-.26-.24v-.86c-.58.46-1.15.86-1.75,1.2-.26.14-.43.24-.55.24-.14,0-.24-.17-.41-.58-.17-.36-.41-.77-.62-1.1h-.17c-.12,0-.58-.02-1.8-.05v1.63c1.22,0,1.68-.05,1.8-.05.24,0,.26.03.26.29v1.32c0,.24-.02.26-.26.26-.12,0-.58-.02-1.8-.05v1.71h.41ZM148.53,94.44v2.66h1.78c.1-.72.12-1.61.14-2.66h-1.92ZM154.31,89.28c-1.08-.89-2.02-1.9-2.74-2.93-.7,1.05-1.56,2.04-2.5,2.93h5.23ZM154.72,97.1v-2.66h-2.09c-.02,1.03-.05,1.9-.14,2.66h2.23Z"/>
        <path class="cls-1" d="M162.62,98.76c0-.74.02-1.78.05-2.66-.43.43-.86.84-1.3,1.2-.26.19-.43.31-.55.31s-.22-.14-.31-.48c-.19-.67-.53-1.37-.82-1.73,1.87-1.49,3.65-3.46,4.85-5.33.24-.36.48-.81.62-1.27.65.34,1.25.72,1.78,1.1.22.17.31.27.31.43,0,.12-.05.19-.17.26-.19.12-.34.29-.53.58-.48.77-1.01,1.54-1.56,2.26v8.86c0,1.92.05,2.83.05,2.95,0,.24-.02.26-.26.26h-1.97c-.22,0-.24-.02-.24-.26,0-.14.05-1.03.05-2.95v-3.53ZM166.79,84.65c.22.14.34.26.34.43s-.14.26-.38.41c-.17.1-.38.29-.65.65-1.1,1.37-2.42,2.74-4.13,3.98-.26.19-.43.29-.55.29-.17,0-.29-.17-.46-.57-.26-.58-.67-1.11-1.03-1.42,1.68-1.01,3.14-2.35,4.3-3.79.34-.43.53-.74.7-1.1.7.29,1.27.7,1.87,1.13ZM178.17,89.54c.26-.17.31-.14.46.02,1.34,1.49,2.33,3.05,3.14,4.61.12.24.07.31-.17.46l-1.44.79c-.29.17-.34.17-.46-.1-.24-.5-.48-1.01-.74-1.51-2.4.29-5.16.53-7.51.72.5.1.91.19,1.32.29.26.07.41.17.41.34,0,.14-.1.26-.29.36-.1.05-.24.19-.38.38h4.18c.24,0,.38-.03.5-.07.1-.05.22-.1.34-.1.19,0,.36.12.96.7.53.55.62.74.62.96,0,.19-.07.31-.26.43-.19.1-.38.31-.72.79-.7.98-1.46,1.85-2.3,2.62,1.75.82,3.89,1.34,6.48,1.73-.34.41-.62,1.01-.82,1.61q-.24.72-.98.58c-2.54-.58-4.73-1.34-6.58-2.45-1.82,1.18-3.96,2.04-6.58,2.59-.72.14-.74.14-1.03-.55-.22-.53-.48-.96-.84-1.39,2.57-.41,4.7-1.08,6.48-2.04-.77-.62-1.46-1.34-2.11-2.16-.77.7-1.63,1.32-2.52,1.85-.29.17-.43.26-.55.26-.17,0-.26-.17-.48-.55-.26-.43-.6-.81-.96-1.15,2.16-1.13,3.5-2.21,4.56-3.6.24-.29.55-.82.77-1.37-.7.07-1.34.12-1.92.14-.6.05-1.08.12-1.3.21-.17.07-.31.17-.46.17-.22,0-.31-.19-.36-.43-.12-.7-.22-1.44-.29-2.18.62.05,1.32.07,1.9.05.67,0,1.34-.02,2.04-.05l.91-.94c-1.3-1.25-2.47-2.23-3.82-3.24-.1-.07-.14-.14-.14-.21s.05-.14.17-.29l.96-1.13c.19-.24.24-.22.43-.07.29.24.6.46.91.67.55-.72,1.15-1.54,1.82-2.59.24-.38.43-.79.62-1.3.7.24,1.51.58,2.09.89.22.12.31.24.31.41,0,.14-.12.29-.29.38-.19.1-.38.26-.7.7-.74.98-1.46,1.94-2.23,2.86.5.41.98.82,1.42,1.25.98-1.13,1.87-2.21,2.69-3.29.29-.36.62-.87.82-1.35.79.31,1.51.62,2.06.89.26.14.36.24.36.41s-.12.31-.31.38c-.22.1-.41.31-.84.84-1.13,1.44-2.62,3-4.2,4.58,1.54-.1,3.05-.19,4.54-.34-.34-.46-.7-.91-1.06-1.37-.17-.19-.12-.29.14-.43l1.22-.67ZM171.42,97.82c.67.89,1.46,1.63,2.38,2.28.82-.67,1.54-1.42,2.16-2.28h-4.54Z"/>
        <path class="cls-1" d="M189.54,86.23c.41.22.55.36.55.58,0,.17-.05.24-.36.72-.24.43-.36.77-.58,1.7-.67,2.98-1.01,5.93-1.01,7.75,0,1.18.05,1.97.14,2.81.5-1.11.94-1.9,1.63-3.58.19.6.5.98.84,1.51.07.12.17.26.17.36,0,.17-.05.26-.12.38-.55,1.25-1.01,2.28-1.37,3.62-.05.14-.07.41-.07.74,0,.29.05.48.05.67,0,.17-.1.26-.31.31-.6.17-1.27.31-1.97.38-.17.02-.26-.1-.31-.26-.67-1.68-1.1-4.73-1.1-7.15,0-2.16.26-4.78.82-7.87.31-1.78.43-2.57.43-3.58,1.08.27,1.85.51,2.57.89ZM194.68,97.54c.19-.02.24.1.24.36.14,1.66,1.3,2.26,3.91,2.26,1.8,0,2.98-.12,4.58-.31.24-.02.29,0,.34.31.07.5.14,1.44.14,2.06,0,.29,0,.31-.41.36-1.63.19-2.78.26-3.91.26-3.55,0-5.21-.58-6.24-1.99-.6-.77-.84-1.99-.84-3.12l2.18-.19ZM193.34,88.56c.02-.29.1-.36.34-.41,1.42-.26,4.1-.43,5.21-.43,1.44,0,2.54.05,3.55.14.5.02.55.07.55.31,0,.72,0,1.37-.05,2.04-.02.22-.1.31-.31.29-1.44-.1-2.69-.14-3.91-.14-1.61,0-3.17.14-5.45.55.02-1.35.02-1.95.07-2.35Z"/>
        <path class="cls-1" d="M58.79,125.13c.41.1.58.21.58.46,0,.27-.14.55-.24.79-.12.34-.22,1.08-.34,2.93-.26,4.18-.36,6.38-.36,9.22,0,2.59.29,3.05,2.21,3.05,2.14,0,5.47-1.3,8.4-4.42.1.91.31,1.7.55,2.28.12.26.19.43.19.58,0,.22-.1.41-.48.74-2.59,2.38-5.98,3.6-9.1,3.6s-4.51-1.22-4.51-4.9c0-4.03.22-7.49.34-10.37.05-1.42.12-2.95-.24-4.39,1.1.12,2.26.24,3,.43ZM66.06,126.71c.12-.1.22-.07.36.05.74.57,1.61,1.54,2.28,2.57.1.14.1.27-.07.38l-1.01.74c-.17.12-.29.1-.41-.07-.72-1.1-1.49-2.02-2.42-2.78l1.27-.89ZM68.2,125.15c.14-.1.22-.07.36.05.89.67,1.75,1.63,2.28,2.47.1.14.12.29-.07.43l-.96.74c-.19.14-.31.07-.41-.07-.65-1.03-1.42-1.95-2.4-2.76l1.2-.87Z"/>
        <path class="cls-1" d="M76.72,133.36c2.95-.98,5.28-1.46,7.01-1.46,3.26,0,5.47,2.14,5.47,5.14,0,2.45-1.15,4.15-3.43,5.38-1.25.7-2.93,1.37-4.97,1.58-.43.07-.62-.02-.79-.34-.26-.48-.7-1.01-1.46-1.58,2.81-.43,4.13-.84,5.78-1.66,1.37-.72,2.16-1.85,2.16-3.58s-1.06-2.64-2.98-2.64c-1.66,0-4.18.82-6.79,1.87-.6.26-1.08.55-1.34.74-.19.17-.34.24-.48.24-.22,0-.38-.14-.62-.43-.55-.7-.91-1.54-1.3-2.33,1.2-.19,2.38-.5,3.74-.94Z"/>
        <path class="cls-1" d="M105.11,125.97c.12.1.19.29.19.38,0,.21-.12.36-.34.46-.29.14-.65.36-1.15.84-2.06,1.85-4.7,4.32-6.55,6.24-.22.27-.31.41-.31.53,0,.14.1.26.31.43,3.12,2.26,6.36,4.87,8.93,7.56.1.12.17.22.17.31s-.05.17-.17.29c-.55.6-1.25,1.3-1.66,1.66-.14.12-.24.19-.34.19s-.17-.07-.29-.21c-2.78-3.12-5.47-5.62-8.74-8.11-.91-.7-1.27-1.22-1.27-2.02s.43-1.32,1.18-2.11c2.04-2.21,4.03-4.2,6.1-6.46.65-.7,1.01-1.2,1.3-1.8,1.06.62,1.97,1.25,2.64,1.82Z"/>
        <path class="cls-1" d="M115.17,125.17c.31.12.46.27.46.48,0,.14-.05.24-.17.38-.17.19-.29.53-.43,1.13-.34,1.63-.53,3.34-.67,4.59-.05.86-.12,1.78-.07,2.64.53-.94,1.03-1.85,1.68-3.07.22.72.46,1.15.74,1.56.12.14.14.26.14.38,0,.19-.1.38-.24.6-.53,1.01-1.08,2.02-1.42,3.07-.07.22-.1.43-.12.72,0,.24-.1.34-.31.38-.29.07-1.32.22-1.92.29-.17.02-.29-.14-.34-.31-.38-1.03-.72-2.88-.72-4.87,0-1.61.26-3.58.58-5.98.1-.84.19-1.65.19-2.73,1.08.21,1.99.46,2.62.74ZM122.97,124.77c.48.12.53.24.48.65-.05.34-.05.77-.05,1.11.17,2.28.34,4.46.34,6.19,0,3.41-.55,6.36-1.82,8.33-.94,1.49-2.45,2.9-3.96,3.86-.17.12-.34.17-.48.17-.17,0-.31-.07-.5-.26-.53-.46-1.27-.89-2.04-1.1,1.94-1.08,3.12-1.95,4.08-3.22,1.39-1.9,2.02-3.87,2.02-7.66,0-1.71-.12-4.2-.29-5.74-.12-1.18-.24-1.78-.5-2.62,1.06.05,2.04.1,2.74.29Z"/>
        <path class="cls-1" d="M135.54,124.89c.29.07.43.19.43.38,0,.34-.17.67-.17,1.01,0,.48.07,1.05.12,1.61.22,1.68.46,2.88.77,4.13,1.2-.65,2.06-1.1,3.41-1.82.7-.41,1.27-.82,1.66-1.3.77.79,1.39,1.63,1.75,2.26.1.14.17.34.17.51,0,.24-.14.43-.48.48-.72.12-1.54.41-2.3.72-2.06.84-3.98,1.73-5.64,2.81-2.09,1.37-2.83,2.5-2.83,3.62,0,1.42,1.06,2.02,3.82,2.02,3.02,0,5.47-.22,7.32-.55.26-.05.38,0,.43.29.12.65.19,1.51.24,2.23.02.27-.14.38-.43.41-2.18.29-4.1.36-7.15.36-4.54,0-6.94-1.49-6.94-4.61,0-2.66,1.75-4.42,4.56-6.19-.58-1.85-1.01-4.01-1.25-5.86-.17-1.27-.34-2.11-.62-2.78,1.15,0,2.26.07,3.14.29Z"/>
        <path class="cls-1" d="M148.82,138.83c.1-.36.17-.91.19-1.32.84.14,1.46.31,1.97.5.26.1.36.12.36.29,0,.12-.07.24-.17.36-.12.14-.22.5-.31.86-.29,1.15-.74,2.47-1.44,3.77-.22.38-.31.53-.46.53-.1,0-.22-.07-.41-.22-.55-.41-.94-.62-1.44-.79.91-1.37,1.37-2.57,1.7-3.98ZM150.66,128.61c-2.14,0-2.86.05-3,.05-.22,0-.24-.02-.24-.24v-1.78c0-.24.02-.26.24-.26.14,0,.86.05,3,.05h1.42v-.6c0-.94-.02-1.61-.14-2.21.86.02,1.61.07,2.4.17.24.02.38.12.38.24,0,.19-.07.31-.14.48-.1.24-.14.6-.14,1.35v.57h1.3c2.14,0,2.88-.05,3.02-.05.24,0,.26.02.26.26v1.78c0,.22-.02.24-.26.24-.14,0-.89-.05-3.02-.05h-5.06ZM154.91,130.12c1.82,0,2.42-.05,2.57-.05.24,0,.26.03.26.27,0,.14-.05.62-.05,1.85v2.14c0,1.22.05,1.7.05,1.85,0,.24-.02.26-.26.26-.14,0-.74-.05-2.57-.05h-.46v2.3c0,2.02.07,3.19.07,4.15s-.14,1.58-.79,2.04c-.5.36-.94.41-2.23.43q-.74,0-.86-.77c-.1-.6-.26-1.11-.53-1.61.55.07.98.1,1.25.1.7,0,.89-.19.89-.74v-5.91h-.62c-1.82,0-2.42.05-2.59.05-.24,0-.26-.02-.26-.26,0-.17.05-.62.05-1.85v-2.14c0-1.22-.05-1.71-.05-1.85,0-.24.02-.27.26-.27.17,0,.77.05,2.59.05h3.29ZM155.49,132.06h-4.51v2.4h4.51v-2.4ZM156.57,137.44c.29-.14.34-.14.48.1.53.84,1.03,1.78,1.34,2.62.07.19.05.26-.19.41l-1.15.67c-.31.17-.38.17-.48-.07-.34-.96-.72-1.94-1.25-2.83-.14-.24-.12-.24.19-.38l1.06-.5ZM163.77,131.7l-.22,1.68,1.87.14c.26.05.38.17.38.31,0,.19-.05.29-.12.48-.1.26-.12.48-.12,1.94v5.66c0,.48.05.7.19.82.17.12.26.17.62.17.43,0,.58-.1.77-.36.22-.34.26-.89.34-2.74.55.31.96.46,1.34.58.6.19.67.24.62.86-.12,2.06-.41,2.74-.89,3.22-.53.53-1.34.77-2.33.77-1.06,0-1.75-.14-2.16-.41-.53-.29-.72-.86-.72-1.85v-6.67c0-.58,0-1.08-.02-1.51-.19,1.11-.46,2.11-.72,3.05-.86,2.88-2.28,5.23-4.37,7.15-.24.22-.41.34-.55.34s-.26-.12-.43-.38c-.36-.55-.84-1.03-1.32-1.3,2.33-1.66,3.77-3.96,4.73-7.08.38-1.25.7-2.9.86-4.87-1.85,0-2.47.05-2.59.05-.24,0-.26-.03-.26-.27v-1.8c0-.24.02-.26.26-.26.14,0,.77.05,2.71.05.05-.84.07-1.73.07-2.64,0-1.39-.05-2.16-.17-3.1.84.02,1.54.07,2.35.14.24.05.36.14.36.31,0,.21-.07.43-.14.62-.1.31-.12.77-.12,1.8,0,.96-.02,1.92-.07,2.86h2.02c2.02,0,2.69-.05,2.83-.05.22,0,.24.02.24.26v1.8c0,.24-.02.27-.24.27-.14,0-.82-.05-2.83-.05h-2.18ZM166.15,124.46c.12-.07.19-.12.26-.12s.12.05.22.14c.79.77,1.56,1.71,2.18,2.71.12.21.12.29-.19.5l-1.3.86c-.24.14-.34.14-.46-.05-.5-1.13-1.27-2.09-1.97-2.86-.17-.19-.14-.24.12-.43l1.13-.77Z"/>
        <path class="cls-1" d="M172.58,130.12c.19-.24.26-.24.48-.12,1.18.65,2.33,1.46,3.41,2.45.1.1.14.14.14.19,0,.07-.05.14-.14.29l-1.08,1.54c-.07.12-.12.17-.19.17-.05,0-.12-.05-.22-.14-1.03-1.01-2.18-1.9-3.38-2.62-.12-.07-.17-.12-.17-.17,0-.07.05-.17.14-.29l1.01-1.3ZM172.82,141.88c.67-1.32,1.51-3.19,2.4-5.52.34.38.84.87,1.3,1.22.38.29.53.41.53.6,0,.14-.07.31-.17.58-.72,1.85-1.54,3.7-2.33,5.28-.19.36-.36.67-.41.91-.05.19-.14.31-.31.31-.12,0-.26-.07-.43-.17-.55-.34-1.18-.74-1.85-1.32.5-.62.84-1.1,1.27-1.89ZM173.54,124.02c.19-.22.26-.22.46-.1,1.2.67,2.3,1.54,3.34,2.47.1.07.14.14.14.22s-.05.14-.14.29l-1.08,1.51c-.1.14-.17.19-.22.19-.07,0-.12-.05-.22-.12-1.06-1.03-2.23-2.02-3.38-2.71-.12-.07-.17-.12-.17-.17,0-.07.05-.14.17-.29l1.1-1.29ZM181,133.21c-2.38,0-3.19.05-3.34.05-.24,0-.26-.02-.26-.26v-1.9c0-.22.02-.24.26-.24.14,0,.96.05,3.34.05h2.81v-3.14c-1.37.21-2.76.38-4.15.53-.77.07-.79.05-.98-.6-.19-.67-.43-1.22-.67-1.58,3.91-.24,8.14-.94,10.58-1.71.65-.21,1.08-.38,1.56-.67.6.48,1.15,1.06,1.58,1.54.14.17.22.29.22.48,0,.14-.1.29-.34.31-.29.02-.65.05-1.3.26-1.15.38-2.47.7-3.91.98v3.6h3.14c2.35,0,3.17-.05,3.31-.05.22,0,.24.02.24.24v1.9c0,.24-.02.26-.24.26-.14,0-.96-.05-3.31-.05h-3.14v3.1h1.73c2.21,0,2.95-.05,3.12-.05.24,0,.26.02.26.26,0,.14-.05.82-.05,2.4v2.16c0,3.31.05,3.94.05,4.08,0,.22-.02.24-.26.24h-2.04c-.24,0-.26-.02-.26-.24v-.82h-7.49v.94c0,.21-.02.24-.26.24h-1.97c-.26,0-.29-.03-.29-.24,0-.17.05-.79.05-4.13v-1.9c0-1.9-.05-2.57-.05-2.74,0-.24.02-.26.29-.26.14,0,.94.05,3.12.05h1.46v-3.1h-2.81ZM181.46,142.19h7.49v-3.72h-7.49v3.72Z"/>
        <path class="cls-1" d="M207.69,140.18c0,.26-.14.38-.46.43-.31.05-1.03.12-1.7.12-.22,0-.31-.14-.31-.38,0-.86,0-2.06.02-2.93-2.14,1.1-2.9,2.04-2.9,3.19,0,1.01.82,1.66,3.34,1.66,2.21,0,4.13-.21,5.98-.48.22-.02.31.05.34.27.12.55.22,1.39.22,1.97.02.29-.07.46-.26.46-2.06.26-3.62.31-5.95.31-3.94,0-6.02-1.18-6.02-3.96,0-2.3,1.44-3.98,5.06-5.86-.07-1.22-.36-1.7-1.44-1.66-1.13.05-2.21.77-3.31,1.73-1.03,1.01-1.63,1.71-2.4,2.62-.12.14-.19.21-.29.21-.07,0-.17-.07-.26-.17-.34-.34-1.06-1.08-1.37-1.58-.07-.1-.1-.17-.1-.21,0-.1.05-.17.17-.27,1.85-1.65,3.62-3.55,5.02-5.95-1.13.05-2.42.07-3.84.07-.22,0-.29-.12-.34-.38-.07-.38-.17-1.27-.24-1.99,1.82.1,3.7.07,5.52-.02.26-.65.48-1.22.72-2.06.1-.41.17-.82.17-1.46,1.06.17,2.11.43,2.74.67.19.07.29.24.29.41,0,.12-.05.26-.17.36-.14.12-.29.34-.41.58-.14.34-.26.65-.55,1.29,1.46-.17,2.93-.41,4.37-.74.26-.05.34.02.38.24.12.48.22,1.03.24,1.73.02.24-.07.34-.41.38-1.8.26-3.86.53-5.62.72-.55.89-1.08,1.78-1.8,2.66l.02.05c.77-.5,1.75-.74,2.4-.74,1.58,0,2.69.72,2.93,2.59.94-.43,2.3-1.06,3.53-1.68.46-.24,1.22-.67,1.82-1.3.79.84,1.42,1.68,1.68,2.11.14.21.19.38.19.53,0,.19-.12.29-.36.34-.5.07-.98.19-1.46.36-1.56.55-3.12,1.08-5.16,1.92v3.86Z"/>
        <path class="cls-1" d="M96.18,165.13c.41.1.58.21.58.46,0,.27-.14.55-.24.79-.12.34-.22,1.08-.34,2.93-.24,3.7-.36,6.14-.36,9.29,0,2.42.29,2.98,2.21,2.98,2.14,0,5.47-1.3,8.4-4.42.1.91.31,1.7.55,2.28.12.26.19.43.19.58,0,.22-.1.41-.48.74-2.59,2.38-5.98,3.6-9.1,3.6s-4.51-1.22-4.51-4.9c0-4.03.22-7.49.34-10.37.05-1.42.12-2.95-.24-4.39,1.1.12,2.26.24,3,.43Z"/>
        <path class="cls-1" d="M121.67,167.81c.26-.07.36.05.38.24.07.53.14,1.22.17,1.73.02.31-.05.38-.36.46-1.49.41-2.71.67-4.18.91-1.63,5.33-2.86,9-4.39,12.99-.12.34-.26.31-.53.24-.24-.1-1.42-.6-1.92-.89-.19-.12-.26-.31-.19-.48,1.82-4.2,2.98-7.37,4.15-11.38-1.39.14-3.07.26-4.2.26-.36,0-.46-.07-.5-.38-.1-.5-.22-1.32-.34-2.19.5.07.79.07,1.78.07,1.2,0,2.5-.07,3.89-.24.24-.96.43-2.02.6-3,.1-.72.14-1.44.14-2.21,1.27.19,2.26.36,3.02.67.19.07.26.24.26.38,0,.1,0,.22-.12.38-.19.34-.38.58-.5.96-.24.86-.41,1.68-.58,2.28.94-.17,2.23-.48,3.41-.82ZM120.74,179.29c.24,0,.34.1.36.34.19,1.75,1.37,2.26,3.67,2.26,1.34,0,3.07-.22,4.03-.34.19-.03.26.02.29.21.1.62.19,1.44.19,2.09.02.29,0,.36-.38.38-.82.12-2.38.26-3.26.26-3.14,0-4.78-.43-5.86-1.56-.77-.77-1.03-1.89-1.08-3.29.74-.19,1.73-.36,2.04-.36ZM120.47,172.93c0-.34.07-.41.43-.48,1.51-.31,3.29-.55,4.68-.55.94,0,1.97.1,2.81.24.34.05.41.07.41.36.05.6.05,1.27.02,1.92,0,.41-.12.5-.46.43-.84-.17-1.94-.29-2.98-.29-1.44,0-3.26.24-4.82.55-.05-.84-.1-1.7-.1-2.18Z"/>
        <path class="cls-1" d="M136.77,167.74c.22.1.38.27.38.43,0,.14-.07.38-.19.67-.1.29-.22,1.32-.22,2.35,0,1.54.05,3.26.43,5.47.34,1.9.96,3.53,1.97,3.53.77,0,1.37-.84,2.3-3.34.53.84,1.06,1.39,1.54,1.85.29.27.29.55.17.89-.91,2.45-2.4,3.74-4.08,3.74-1.87,0-3.84-2.21-4.49-6.26-.38-2.28-.58-4.78-.58-6.98,0-1.32-.05-2.04-.29-3.14,1.15.14,2.33.43,3.05.79ZM147.91,169.26c.1-.05.19-.1.26-.1.1,0,.17.05.26.14,2.18,1.9,4.1,5.21,4.7,8.21.07.31-.07.41-.26.53-.62.41-1.22.74-1.87.96-.29.1-.46.02-.5-.26-.82-3.43-2.04-5.93-4.49-8.38.91-.58,1.51-.91,1.9-1.1Z"/>
        <path class="cls-1" d="M159.47,169.97c-2.14,0-2.86.05-3.02.05-.24,0-.26-.02-.26-.29v-1.94c0-.26.02-.29.26-.29.17,0,.89.05,3.02.05h5.88v-1.56c0-1.03-.05-1.78-.17-2.35.86,0,1.8.05,2.62.12.24.03.38.12.38.27,0,.17-.07.31-.14.5-.1.19-.14.5-.14,1.39v1.63h6.31c2.16,0,2.88-.05,3.02-.05.22,0,.24.02.24.29v1.94c0,.27-.02.29-.24.29-.14,0-.86-.05-3.02-.05h-8.3c-.02,1.06-.1,2.04-.19,2.95h5.88c2.02,0,2.69-.05,2.83-.05.24,0,.29.07.29.34-.05.62-.07,1.27-.1,1.87-.19,3.58-.48,5.81-.79,7.13-.53,2.28-1.46,2.98-3.86,2.98-.43,0-1.1,0-1.9-.05-.67-.05-.67-.1-.77-.86-.1-.74-.29-1.44-.53-1.85,1.25.17,2.33.22,2.95.22.79,0,1.2-.38,1.42-1.2.36-1.2.62-3.41.74-6.1h-6.53c-.91,4.44-2.95,7.25-7.03,9.67-.31.17-.46.26-.58.26-.17,0-.26-.17-.48-.53-.38-.6-.89-1.08-1.44-1.46,5.52-2.71,7.32-6.03,7.37-13.32h-3.72Z"/>
      </g>
      <g>
        <path class="cls-1" d="M382.83,84.65c2.64,3.6,6.24,5.76,10.25,7.15-.43.53-.82,1.34-.98,2.02-.12.46-.19.62-.41.62-.12,0-.31-.07-.58-.22-1.82-.81-3.53-1.82-5.04-2.97v1.85c0,.24-.02.26-.26.26-.14,0-.72-.05-2.59-.05h-3.34c-1.85,0-2.42.05-2.57.05-.26,0-.29-.02-.29-.26v-1.92c-1.49,1.18-3.1,2.21-4.82,3.12-.26.14-.43.22-.55.22-.17,0-.26-.17-.43-.58-.26-.65-.62-1.25-1.1-1.66,4.37-1.87,7.27-4.42,9.26-7.3.41-.6.72-1.13.89-1.7.94.14,1.85.31,2.57.53.29.05.43.14.43.34,0,.14-.07.26-.24.36l-.19.14ZM377.45,97.58c-2.33,0-3.12.05-3.26.05-.24,0-.26-.02-.26-.29v-1.87c0-.24.02-.26.26-.26.14,0,.94.05,3.26.05h8.64c.41,0,.67-.03.84-.1.14-.05.26-.1.36-.1.24,0,.46.07,1.08.67.79.77.84.96.84,1.1,0,.24-.07.34-.31.53-.26.22-.46.53-.79,1.15-.89,1.71-2.83,4.63-4.68,6.98-.1.12-.17.19-.29.19-.19,0-.5-.14-1.2-.43-.91-.36-1.22-.48-1.22-.65,0-.05.05-.12.14-.22,1.85-1.97,3.62-4.66,4.66-6.82h-8.06ZM377.31,90.98c.14,0,.72.03,2.57.03h3.34c1.63,0,2.26-.03,2.5-.03-1.66-1.29-3.1-2.76-4.27-4.37-1.2,1.66-2.62,3.1-4.18,4.37h.05Z"/>
        <path class="cls-1" d="M398.02,100.22c-2.11,0-2.86.05-3,.05-.24,0-.26-.02-.26-.26v-1.9c0-.21.02-.24.26-.24.14,0,.89.05,3,.05h.58v-3.36c0-1.37-.05-2.02-.05-2.16,0-.24.02-.26.29-.26.14,0,.96.05,3.29.05h3.07v-3.19h-4.92c-.79,1.2-1.73,2.35-2.81,3.43-.24.26-.38.38-.5.38s-.24-.14-.48-.46c-.46-.62-.89-1.01-1.34-1.3,1.99-1.73,3.46-3.72,4.44-5.81.29-.6.5-1.18.62-1.75.86.17,1.66.34,2.3.53.29.1.43.21.43.41s-.12.29-.29.46c-.19.17-.36.36-.6.86l-.48,1.03h9.91c2.33,0,3.14-.05,3.29-.05.24,0,.26.02.26.26v1.78c0,.24-.02.26-.26.26-.14,0-.96-.05-3.29-.05h-3.7v3.19h2.57c2.35,0,3.14-.05,3.29-.05.22,0,.24.02.24.26v1.8c0,.24-.02.26-.24.26-.14,0-.94-.05-3.29-.05h-2.57v3.5h5.09c2.11,0,2.86-.05,3-.05.24,0,.26.03.26.24v1.9c0,.24-.02.26-.26.26-.14,0-.89-.05-3-.05h-5.09v1.18c0,2.52.05,3.79.05,3.91,0,.24-.02.26-.26.26h-2.14c-.26,0-.29-.02-.29-.26,0-.14.05-1.39.05-3.91v-1.18h-7.18ZM405.2,97.92v-3.5h-4.06v3.5h4.06Z"/>
        <path class="cls-1" d="M428.38,84.96c1.73,0,2.26-.05,2.4-.05.22,0,.31.05.31.29-.05.86,0,1.51.14,2.66.74,6.48,3.7,11.42,9.34,14.83-.43.41-.98,1.01-1.42,1.82-.19.38-.29.55-.43.55-.12,0-.29-.12-.55-.31-4.37-3.21-7.03-7.13-8.23-11.9-1.3,4.92-4.49,9.26-8.83,11.95-.29.17-.43.29-.55.29-.17,0-.26-.19-.5-.58-.38-.65-.94-1.22-1.42-1.58,5.95-2.93,9.34-8.66,9.65-15.53h-2.98c-1.73,0-2.26.05-2.4.05-.26,0-.29-.02-.29-.26v-2.02c0-.24.02-.26.29-.26.14,0,.67.05,2.4.05h3.07Z"/>
        <path class="cls-1" d="M443.48,86.73c-.46,0-.65.02-.72.02-.24,0-.26-.02-.26-.26v-1.68c0-.24.02-.26.26-.26.14,0,.65.05,2.35.05h2.59c1.68,0,2.21-.05,2.35-.05.22,0,.24.02.24.26v1.68c0,.24-.02.26-.24.26-.07,0-.24,0-.55-.02v16.03c0,1.63.05,2.38.05,2.52,0,.24-.02.26-.29.26h-1.61c-.24,0-.26-.02-.26-.26,0-.14.05-.89.05-2.52v-1.39c-1.15.38-2.3.74-3.26,1.03-.46.12-.67.22-.79.29-.14.1-.26.17-.38.17s-.22-.05-.29-.31c-.17-.65-.34-1.51-.46-2.3.48-.02.84-.1,1.22-.14v-13.37ZM447.44,89.4v-2.69h-1.92v2.69h1.92ZM447.44,94.18v-2.71h-1.92v2.71h1.92ZM447.44,96.24h-1.92v3.38c.62-.17,1.25-.36,1.92-.58v-2.81ZM460.69,93.1c.07,1.73.19,3.22.36,4.46.29-.55.55-1.13.79-1.73.22-.6.36-1.13.48-1.82.58.26,1.3.67,1.78,1.05.19.17.29.27.29.43s-.1.29-.26.46c-.14.14-.31.48-.5.96-.53,1.25-1.2,2.47-1.97,3.58.36,1.51.65,1.92,1.06,1.92.31,0,.48-.65.74-2.83.31.41.74.67,1.27.96.36.19.41.27.29.96-.38,2.74-1.22,3.6-2.26,3.6-.91,0-1.87-.77-2.64-2.66-1.03,1.13-2.18,2.11-3.38,2.9-.24.17-.41.26-.53.26-.19,0-.34-.19-.55-.62-.26-.5-.62-.89-.89-1.1.77-.43,1.46-.91,2.14-1.44h-1.27c-.24,0-.26-.02-.26-.26v-.29h-2.54v1.34c0,.24-.02.26-.26.26h-1.46c-.24,0-.26-.02-.26-.26,0-.17.05-.77.05-3.98v-2.11c0-2.02-.05-2.69-.05-2.86,0-.24.02-.26.26-.26.17,0,.6.05,2.02.05h1.99c1.42,0,1.85-.05,2.02-.05.22,0,.24.02.24.26,0,.14-.05.79-.05,2.28v2.19c0,2.38.02,3.12.05,3.36.74-.62,1.42-1.32,2.04-2.06-.07-.26-.12-.55-.17-.84-.31-1.63-.5-3.67-.6-6.1h-5.62c-1.85,0-2.66.05-2.83.05-.22,0-.24-.02-.24-.29v-1.56c0-.24.02-.24.24-.24.12,0,.62.02,1.58.02-.17-.7-.43-1.39-.65-1.97-.12-.26-.07-.36.24-.43l1.15-.29c.31-.07.34-.02.43.19.26.7.55,1.71.72,2.5h.86c.19-.55.34-1.08.46-1.7.05-.29.1-.6.12-1.03.62.07,1.44.26,1.94.36.19.05.24.12.24.26,0,.17-.05.22-.12.29-.14.12-.19.21-.24.38-.12.43-.29.94-.48,1.44h2.11c-.05-1.27-.05-2.62-.07-4.05-.02-1.61-.05-2.35-.19-3.36.89.02,1.34.07,2.18.17.24.02.41.12.41.26,0,.19-.07.34-.14.5-.12.29-.14.72-.14,2.35,0,1.49.02,2.88.05,4.13h.36c2.33,0,3.14-.02,3.29-.02.24,0,.26,0,.26.24v1.56c0,.26-.02.29-.26.29-.14,0-.96-.05-3.29-.05h-.31ZM452.86,88.03c-1.46,0-1.97.05-2.11.05-.24,0-.26-.02-.26-.26v-1.49c0-.24.02-.26.26-.26.14,0,.65.05,2.11.05h.12v-.77c0-.65-.02-1.25-.14-1.82.89.03,1.39.05,2.18.12.24.02.38.14.38.29,0,.1-.07.22-.14.36-.1.21-.1.58-.1,1.08v.74h.14c1.61,0,2.09-.05,2.23-.05.24,0,.26.02.26.26v1.49c0,.24-.02.26-.26.26-.14,0-.62-.05-2.23-.05h-2.45ZM452.81,95.81v1.27h2.54v-1.27h-2.54ZM455.36,100.15v-1.39h-2.54v1.39h2.54ZM462.51,85.2c.26-.14.36-.05.48.17.65.98,1.13,1.97,1.44,3,.07.21.05.31-.17.43l-1.18.62c-.34.17-.38.1-.48-.17-.43-1.27-.86-2.28-1.34-3.07-.12-.24-.1-.29.22-.46l1.03-.53Z"/>
        <path class="cls-1" d="M479,100.22c0,.26-.14.38-.46.43-.31.05-1.03.12-1.7.12-.22,0-.31-.14-.31-.38,0-.87,0-2.06.02-2.93-2.14,1.11-2.9,2.04-2.9,3.19,0,1.01.82,1.66,3.34,1.66,2.21,0,4.13-.22,5.98-.48.22-.02.31.05.34.26.12.55.22,1.39.22,1.97.02.29-.07.46-.26.46-2.06.27-3.62.31-5.95.31-3.94,0-6.02-1.18-6.02-3.96,0-2.3,1.44-3.98,5.06-5.86-.07-1.22-.36-1.71-1.44-1.66-1.13.05-2.21.77-3.31,1.73-1.03,1.01-1.63,1.7-2.4,2.62-.12.14-.19.22-.29.22-.07,0-.17-.07-.26-.17-.34-.34-1.06-1.08-1.37-1.58-.07-.1-.1-.17-.1-.22,0-.1.05-.17.17-.26,1.85-1.66,3.62-3.55,5.02-5.95-1.13.05-2.42.07-3.84.07-.22,0-.29-.12-.34-.38-.07-.38-.17-1.27-.24-1.99,1.82.1,3.7.07,5.52-.03.26-.65.48-1.22.72-2.06.1-.41.17-.81.17-1.46,1.06.17,2.11.43,2.74.67.19.07.29.24.29.41,0,.12-.05.26-.17.36-.14.12-.29.34-.41.58-.14.34-.26.65-.55,1.3,1.46-.17,2.93-.41,4.37-.74.26-.05.34.02.38.24.12.48.22,1.03.24,1.73.02.24-.07.34-.41.38-1.8.26-3.86.53-5.62.72-.55.89-1.08,1.78-1.8,2.66l.02.05c.77-.5,1.75-.74,2.4-.74,1.58,0,2.69.72,2.93,2.59.94-.43,2.3-1.06,3.53-1.68.46-.24,1.22-.67,1.82-1.29.79.84,1.42,1.68,1.68,2.11.14.22.19.38.19.53,0,.19-.12.29-.36.34-.5.07-.98.19-1.46.36-1.56.55-3.12,1.08-5.16,1.92v3.87Z"/>
        <path class="cls-1" d="M493.9,85.17c.41.1.58.22.58.46,0,.26-.14.55-.24.79-.12.34-.22,1.08-.34,2.93-.24,3.7-.36,6.14-.36,9.29,0,2.42.29,2.97,2.21,2.97,2.14,0,5.47-1.29,8.4-4.42.1.91.31,1.71.55,2.28.12.26.19.43.19.58,0,.21-.1.41-.48.74-2.59,2.38-5.98,3.6-9.1,3.6s-4.51-1.22-4.51-4.9c0-4.03.22-7.49.34-10.37.05-1.42.12-2.95-.24-4.39,1.1.12,2.26.24,3,.43Z"/>
        <path class="cls-1" d="M519.39,87.86c.26-.07.36.05.38.24.07.53.14,1.22.17,1.73.02.31-.05.38-.36.46-1.49.41-2.71.67-4.18.91-1.63,5.33-2.86,9-4.39,12.98-.12.34-.26.31-.53.24-.24-.1-1.42-.6-1.92-.89-.19-.12-.26-.31-.19-.48,1.82-4.2,2.98-7.37,4.15-11.38-1.39.14-3.07.26-4.2.26-.36,0-.46-.07-.5-.38-.1-.5-.22-1.32-.34-2.18.5.07.79.07,1.78.07,1.2,0,2.5-.07,3.89-.24.24-.96.43-2.02.6-3,.1-.72.14-1.44.14-2.21,1.27.19,2.26.36,3.02.67.19.07.26.24.26.38,0,.1,0,.22-.12.38-.19.34-.38.57-.5.96-.24.87-.41,1.68-.58,2.28.94-.17,2.23-.48,3.41-.82ZM518.45,99.34c.24,0,.34.1.36.34.19,1.75,1.37,2.26,3.67,2.26,1.34,0,3.07-.21,4.03-.34.19-.02.26.02.29.22.1.62.19,1.44.19,2.09.02.29,0,.36-.38.38-.82.12-2.38.27-3.26.27-3.14,0-4.78-.43-5.86-1.56-.77-.77-1.03-1.9-1.08-3.29.74-.19,1.73-.36,2.04-.36ZM518.19,92.97c0-.34.07-.41.43-.48,1.51-.31,3.29-.55,4.68-.55.94,0,1.97.1,2.81.24.34.05.41.07.41.36.05.6.05,1.27.02,1.92,0,.41-.12.5-.46.43-.84-.17-1.94-.29-2.98-.29-1.44,0-3.26.24-4.82.55-.05-.84-.1-1.71-.1-2.19Z"/>
        <path class="cls-1" d="M537.1,87.24c.12-.72.24-1.66.24-2.66,1.25.26,1.92.43,2.88.79.24.07.38.26.38.48,0,.12-.05.24-.17.36-.24.31-.36.58-.48.91-.31.98-.55,1.87-.86,2.88.65-.07,1.37-.1,1.92-.1,2.23,0,3.43,1.56,3.43,4.63,0,2.59-.48,5.79-1.3,7.51-.7,1.54-1.85,2.26-3.24,2.26-1.15,0-1.97-.12-2.5-.36-.29-.12-.43-.31-.43-.67-.07-.77-.12-1.44-.46-2.23,1.08.51,2.02.62,2.76.62.79,0,1.15-.29,1.54-1.27.5-1.35.94-3.62.94-5.98,0-1.68-.31-2.21-1.37-2.21-.58,0-1.32.07-2.02.17-1.58,4.61-2.95,7.92-4.82,11.28-.14.31-.34.36-.62.22-.43-.22-1.37-.79-1.66-1.06-.12-.12-.19-.22-.19-.36,0-.07.02-.17.1-.27,1.92-3.34,3.17-5.88,4.39-9.41-.94.14-1.7.29-2.35.41-.62.12-1.01.26-1.32.38-.34.12-.62.07-.77-.31-.22-.55-.48-1.42-.74-2.47,1.06,0,2.11-.07,3.17-.17,1.01-.1,1.9-.22,2.83-.36.38-1.37.55-2.21.72-3.03ZM546.61,88.85c.17-.1.29-.05.46.12,1.63,1.54,3.1,3.53,3.98,5.83.1.22.07.34-.1.48-.41.38-1.32.96-1.8,1.2-.24.12-.48.1-.55-.19-.96-2.52-2.21-4.58-3.94-6.22.6-.41,1.3-.89,1.94-1.22ZM547.25,85.49c.12-.1.22-.07.36.05.74.58,1.61,1.54,2.28,2.57.1.14.1.26-.07.38l-1.01.74c-.17.12-.29.1-.41-.07-.72-1.1-1.49-2.02-2.42-2.78l1.27-.89ZM549.39,83.93c.14-.1.22-.07.36.05.89.67,1.75,1.63,2.28,2.47.1.14.12.29-.07.43l-.96.74c-.19.14-.31.07-.41-.07-.65-1.03-1.42-1.94-2.4-2.76l1.2-.87Z"/>
        <path class="cls-1" d="M402.75,127.36v4.25c1.44,0,1.92-.05,2.06-.05.24,0,.26.03.26.26v1.78c0,.24-.02.26-.26.26-.14,0-.62-.05-2.06-.05v3.98c.91-.41,1.82-.84,2.66-1.32-.05.53-.02,1.08,0,1.58q.05.77-.58,1.1c-1.68.89-3.7,1.8-5.52,2.47-.38.14-.62.26-.74.34-.17.12-.24.17-.38.17-.12,0-.24-.07-.31-.29-.22-.62-.41-1.39-.6-2.26.72-.14,1.42-.34,2.26-.6.26-.07.53-.17.79-.26v-4.92c-1.56,0-2.06.05-2.21.05-.24,0-.26-.02-.26-.26v-1.78c0-.24.02-.26.26-.26.14,0,.65.05,2.21.05v-4.25h-.14c-1.68,0-2.21.05-2.35.05-.22,0-.24-.02-.24-.29v-1.75c0-.24.02-.26.24-.26.14,0,.67.05,2.35.05h2.66c1.68,0,2.18-.05,2.33-.05.24,0,.26.02.26.26v1.75c0,.26-.02.29-.26.29-.14,0-.65-.05-2.33-.05h-.1ZM414.51,142.05c0,.48.02.65.26.74.17.07.46.07.86.07.6,0,.96-.05,1.25-.29.34-.29.41-1.06.48-2.76.55.43,1.1.62,1.56.77.55.17.6.24.55.84-.12,1.66-.43,2.54-.98,3.02-.55.48-1.49.72-2.98.72-1.22,0-2.04-.1-2.64-.36-.48-.22-.74-.77-.74-1.58v-5.45h-1.37c-.26,4.34-2.38,6.43-6.65,7.61-.24.07-.43.12-.53.12-.24,0-.34-.12-.62-.58-.36-.58-.72-1.03-1.1-1.34,4.13-.96,6.26-2.02,6.48-5.81-1.34.02-1.85.05-1.97.05-.24,0-.26-.03-.26-.26,0-.17.05-1.03.05-2.93v-6.89c0-1.9-.05-2.78-.05-2.93,0-.26.02-.29.26-.29.14,0,.86.05,3,.05h4.99c2.14,0,2.83-.05,3-.05.24,0,.26.02.26.29,0,.14-.05,1.03-.05,2.93v6.89c0,1.9.05,2.79.05,2.93,0,.24-.02.26-.26.26-.17,0-.86-.05-2.86-.05v4.27ZM408.53,126.73v1.68h6.65v-1.68h-6.65ZM415.18,132.04v-1.66h-6.65v1.66h6.65ZM415.18,134.03h-6.65v1.71h6.65v-1.71Z"/>
        <path class="cls-1" d="M424.95,136.72c-.55.48-1.15.96-1.75,1.39-.29.22-.46.34-.6.34-.17,0-.29-.14-.5-.48-.36-.6-.79-1.03-1.2-1.37,1.54-.94,2.88-1.99,4.01-3.17-.02-.48-.07-.91-.14-1.46.48.02.94.02,1.39.07.67-.86,1.25-1.78,1.73-2.76h-2.81c-2.16,0-2.9.05-3.05.05-.24,0-.26-.02-.26-.26v-1.82c0-.24.02-.26.26-.26.14,0,.89.05,3.05.05h3.77c.17-.5.31-1.01.46-1.54.19-.72.26-1.29.26-1.94,1.01.12,1.78.24,2.52.38.29.07.41.22.41.38s-.1.31-.22.46c-.17.19-.29.43-.43.94-.12.46-.26.89-.41,1.32h8.09c2.16,0,2.88-.05,3.02-.05.24,0,.26.02.26.26v1.82c0,.24-.02.26-.26.26-.14,0-.86-.05-3.02-.05h-8.98c-.82,1.82-1.87,3.48-3.14,4.97-.02.36,0,.77,0,1.29v6.55c0,2.02.05,3.03.05,3.14,0,.24-.02.26-.26.26h-2.02c-.24,0-.26-.02-.26-.26,0-.14.05-1.13.05-3.14v-5.38ZM431.84,144.59c-2.33,0-3.12.05-3.26.05-.24,0-.26-.02-.26-.26v-1.82c0-.24.02-.27.26-.27.14,0,.94.05,3.26.05h2.21v-5.16h-1.34c-2.18,0-2.93.05-3.07.05-.24,0-.26-.02-.26-.26v-1.78c0-.24.02-.26.26-.26.14,0,.89.05,3.07.05h1.34v-.7c0-1.71-.02-2.45-.17-3.62.91.03,1.73.07,2.54.17.24.03.38.14.38.24,0,.19-.07.31-.14.5-.12.29-.14.89-.14,2.66v.74h1.7c2.18,0,2.93-.05,3.07-.05.24,0,.26.02.26.26v1.78c0,.24-.02.26-.26.26-.14,0-.89-.05-3.07-.05h-1.7v5.16h2.74c2.3,0,3.1-.05,3.26-.05.22,0,.24.03.24.27v1.82c0,.24-.02.26-.24.26-.17,0-.96-.05-3.26-.05h-7.42Z"/>
        <path class="cls-1" d="M446.67,139.5c.17-.17.29-.19.36-.19s.17.02.31.14c1.78,1.11,3.36,2.54,4.78,4.39.14.19.17.26.17.36,0,.12-.05.21-.24.38l-1.46,1.25c-.17.14-.26.22-.34.22-.12,0-.22-.05-.34-.24-1.27-1.85-2.9-3.48-4.54-4.58-.14-.1-.22-.17-.22-.24s.05-.14.17-.29l1.34-1.2Z"/>
        <path class="cls-1" d="M460.54,141.71c-2.09,0-2.81.05-2.93.05-.24,0-.26-.02-.26-.26v-1.54c0-.24.02-.26.26-.26.12,0,.84.05,2.93.05h1.27v-1.58h-.53c-1.82,0-2.47.05-2.62.05-.24,0-.26-.02-.26-.24,0-.17.05-.79.05-2.26v-3.72c0-1.44-.05-2.09-.05-2.23,0-.24.02-.27.26-.27.14,0,.79.05,2.62.05h.55v-1.54h-1.2c-2.02,0-2.71.05-2.86.05-.22,0-.24-.02-.24-.26v-1.56c0-.22.02-.24.24-.24.14,0,.84.05,2.86.05h1.2c0-1.03-.05-1.71-.17-2.47.86.02,1.63.07,2.33.17.26.05.38.12.38.24,0,.14-.05.26-.12.43-.1.22-.17.53-.17,1.56v.07h1.01c2.04,0,2.71-.05,2.86-.05.24,0,.26.02.26.24v1.56c0,.24-.02.26-.26.26-.14,0-.82-.05-2.86-.05h-1.01v1.54h.6c1.82,0,2.45-.05,2.59-.05.24,0,.26.03.26.27,0,.14-.05.79-.05,2.23v3.72c0,1.46.05,2.11.05,2.26,0,.22-.02.24-.26.24-.14,0-.77-.05-2.59-.05h-.62v1.58h.79c2.09,0,2.78-.05,2.93-.05.24,0,.26.03.26.26v1.54c0,.24-.02.26-.26.26-.14,0-.84-.05-2.93-.05h-.79c0,2.26.05,3.48.05,3.58,0,.24-.02.26-.26.26h-1.82c-.24,0-.26-.02-.26-.26,0-.12.02-1.35.05-3.58h-1.27ZM461.93,133v-1.73h-1.46v1.73h1.46ZM461.93,136.43v-1.8h-1.46v1.8h1.46ZM464,131.27v1.73h1.51v-1.73h-1.51ZM465.51,134.63h-1.51v1.8h1.51v-1.8ZM476.02,131.97c2.06,0,2.76-.05,2.9-.05.24,0,.26.02.26.26v1.78c0,.26-.02.29-.26.29-.14,0-.84-.05-2.9-.05h-2.3c-.7,2.83-1.42,5.33-2.21,7.66,1.49-.19,2.98-.41,4.39-.65-.5-1.32-1.06-2.57-1.66-3.74-.12-.24-.07-.31.22-.43l1.42-.5c.31-.1.34-.12.46.1,1.34,2.42,2.18,4.63,3.1,7.44.07.24.05.29-.26.41l-1.58.53c-.34.12-.41.12-.48-.14-.14-.53-.31-1.08-.48-1.58-2.45.46-4.8.84-7.23,1.15-.5.07-.77.14-.89.22-.17.1-.26.14-.38.14-.17,0-.29-.1-.36-.31-.24-.74-.43-1.56-.58-2.3.67.02,1.22,0,1.78-.05.89-2.66,1.63-5.33,2.21-7.92-1.82,0-2.5.05-2.62.05-.26,0-.29-.03-.29-.29v-1.78c0-.24.02-.26.29-.26.14,0,.84.05,2.9.05h4.56ZM475.52,125.61c1.85,0,2.47-.05,2.62-.05.26,0,.29.02.29.29v1.8c0,.24-.02.26-.29.26-.14,0-.77-.05-2.62-.05h-3.5c-1.87,0-2.47.05-2.62.05-.26,0-.29-.02-.29-.26v-1.8c0-.26.02-.29.29-.29.14,0,.74.05,2.62.05h3.5Z"/>
        <path class="cls-1" d="M482.21,126.73c-.46,0-.65.02-.72.02-.24,0-.26-.02-.26-.26v-1.68c0-.24.02-.26.26-.26.14,0,.65.05,2.35.05h2.59c1.68,0,2.21-.05,2.35-.05.22,0,.24.02.24.26v1.68c0,.24-.02.26-.24.26-.07,0-.24,0-.55-.02v16.03c0,1.63.05,2.38.05,2.52,0,.24-.02.26-.29.26h-1.61c-.24,0-.26-.02-.26-.26,0-.14.05-.89.05-2.52v-1.39c-1.15.38-2.3.74-3.26,1.03-.46.12-.67.22-.79.29-.14.1-.26.17-.38.17s-.22-.05-.29-.31c-.17-.65-.34-1.51-.46-2.3.48-.02.84-.1,1.22-.14v-13.37ZM486.17,129.4v-2.69h-1.92v2.69h1.92ZM486.17,134.18v-2.71h-1.92v2.71h1.92ZM486.17,136.24h-1.92v3.38c.62-.17,1.25-.36,1.92-.58v-2.81ZM499.42,133.1c.07,1.73.19,3.22.36,4.46.29-.55.55-1.13.79-1.73.22-.6.36-1.13.48-1.82.58.26,1.3.67,1.78,1.05.19.17.29.27.29.43s-.1.29-.26.46c-.14.14-.31.48-.5.96-.53,1.25-1.2,2.47-1.97,3.58.36,1.51.65,1.92,1.06,1.92.31,0,.48-.65.74-2.83.31.41.74.67,1.27.96.36.19.41.27.29.96-.38,2.74-1.22,3.6-2.26,3.6-.91,0-1.87-.77-2.64-2.66-1.03,1.13-2.18,2.11-3.38,2.9-.24.17-.41.26-.53.26-.19,0-.34-.19-.55-.62-.26-.5-.62-.89-.89-1.1.77-.43,1.46-.91,2.14-1.44h-1.27c-.24,0-.26-.02-.26-.26v-.29h-2.54v1.34c0,.24-.02.26-.26.26h-1.46c-.24,0-.26-.02-.26-.26,0-.17.05-.77.05-3.98v-2.11c0-2.02-.05-2.69-.05-2.86,0-.24.02-.26.26-.26.17,0,.6.05,2.02.05h1.99c1.42,0,1.85-.05,2.02-.05.22,0,.24.02.24.26,0,.14-.05.79-.05,2.28v2.19c0,2.38.02,3.12.05,3.36.74-.62,1.42-1.32,2.04-2.06-.07-.26-.12-.55-.17-.84-.31-1.63-.5-3.67-.6-6.1h-5.62c-1.85,0-2.66.05-2.83.05-.22,0-.24-.02-.24-.29v-1.56c0-.24.02-.24.24-.24.12,0,.62.02,1.58.02-.17-.7-.43-1.39-.65-1.97-.12-.26-.07-.36.24-.43l1.15-.29c.31-.07.34-.02.43.19.26.7.55,1.71.72,2.5h.86c.19-.55.34-1.08.46-1.7.05-.29.1-.6.12-1.03.62.07,1.44.26,1.94.36.19.05.24.12.24.26,0,.17-.05.22-.12.29-.14.12-.19.21-.24.38-.12.43-.29.94-.48,1.44h2.11c-.05-1.27-.05-2.62-.07-4.05-.02-1.61-.05-2.35-.19-3.36.89.02,1.34.07,2.18.17.24.02.41.12.41.26,0,.19-.07.34-.14.5-.12.29-.14.72-.14,2.35,0,1.49.02,2.88.05,4.13h.36c2.33,0,3.14-.02,3.29-.02.24,0,.26,0,.26.24v1.56c0,.26-.02.29-.26.29-.14,0-.96-.05-3.29-.05h-.31ZM491.6,128.03c-1.46,0-1.97.05-2.11.05-.24,0-.26-.02-.26-.26v-1.49c0-.24.02-.26.26-.26.14,0,.65.05,2.11.05h.12v-.77c0-.65-.02-1.25-.14-1.82.89.03,1.39.05,2.18.12.24.02.38.14.38.29,0,.1-.07.22-.14.36-.1.21-.1.58-.1,1.08v.74h.14c1.61,0,2.09-.05,2.23-.05.24,0,.26.02.26.26v1.49c0,.24-.02.26-.26.26-.14,0-.62-.05-2.23-.05h-2.45ZM491.55,135.81v1.27h2.54v-1.27h-2.54ZM494.09,140.15v-1.39h-2.54v1.39h2.54ZM501.25,125.2c.26-.14.36-.05.48.17.65.98,1.13,1.97,1.44,3,.07.21.05.31-.17.43l-1.18.62c-.34.17-.38.1-.48-.17-.43-1.27-.86-2.28-1.34-3.07-.12-.24-.1-.29.22-.46l1.03-.53Z"/>
        <path class="cls-1" d="M517.73,140.22c0,.26-.14.38-.46.43-.31.05-1.03.12-1.7.12-.22,0-.31-.14-.31-.38,0-.87,0-2.06.02-2.93-2.14,1.11-2.9,2.04-2.9,3.19,0,1.01.82,1.66,3.34,1.66,2.21,0,4.13-.22,5.98-.48.22-.02.31.05.34.26.12.55.22,1.39.22,1.97.02.29-.07.46-.26.46-2.06.27-3.62.31-5.95.31-3.94,0-6.02-1.18-6.02-3.96,0-2.3,1.44-3.98,5.06-5.86-.07-1.22-.36-1.71-1.44-1.66-1.13.05-2.21.77-3.31,1.73-1.03,1.01-1.63,1.7-2.4,2.62-.12.14-.19.22-.29.22-.07,0-.17-.07-.26-.17-.34-.34-1.06-1.08-1.37-1.58-.07-.1-.1-.17-.1-.22,0-.1.05-.17.17-.26,1.85-1.66,3.62-3.55,5.02-5.95-1.13.05-2.42.07-3.84.07-.22,0-.29-.12-.34-.38-.07-.38-.17-1.27-.24-1.99,1.82.1,3.7.07,5.52-.03.26-.65.48-1.22.72-2.06.1-.41.17-.81.17-1.46,1.06.17,2.11.43,2.74.67.19.07.29.24.29.41,0,.12-.05.26-.17.36-.14.12-.29.34-.41.58-.14.34-.26.65-.55,1.3,1.46-.17,2.93-.41,4.37-.74.26-.05.34.02.38.24.12.48.22,1.03.24,1.73.02.24-.07.34-.41.38-1.8.26-3.86.53-5.62.72-.55.89-1.08,1.78-1.8,2.66l.02.05c.77-.5,1.75-.74,2.4-.74,1.58,0,2.69.72,2.93,2.59.94-.43,2.3-1.06,3.53-1.68.46-.24,1.22-.67,1.82-1.29.79.84,1.42,1.68,1.68,2.11.14.22.19.38.19.53,0,.19-.12.29-.36.34-.5.07-.98.19-1.46.36-1.56.55-3.12,1.08-5.16,1.92v3.87Z"/>
        <path class="cls-1" d="M398.13,172.45c-2.11,0-2.83.05-2.98.05-.24,0-.26-.03-.26-.27v-1.7c0-.24.02-.26.26-.26.14,0,.86.05,2.98.05h5.14v-1.87h-2.21c-2.18,0-2.93.05-3.07.05-.24,0-.26-.02-.26-.26v-1.7c0-.24.02-.27.26-.27.14,0,.89.05,3.07.05h2.21v-.17c0-.98-.02-1.73-.17-2.5.91.02,1.66.07,2.5.17.24.02.38.12.38.24,0,.17-.07.31-.14.5-.12.29-.14.77-.14,1.63v.12h.77c2.18,0,2.9-.05,3.05-.05.24,0,.26.03.26.27v1.58c.48-.53.96-1.08,1.44-1.68.5-.65.77-1.08,1.08-1.78.89.43,1.61.84,2.11,1.2.22.14.31.31.31.46s-.12.24-.26.31c-.38.17-.62.41-1.01.89-.86,1.01-1.75,1.95-2.69,2.81h2.33c2.11,0,2.86-.05,3-.05.22,0,.24.02.24.26v1.7c0,.24-.02.27-.24.27-.14,0-.89-.05-3-.05h-4.78c-1.18.91-2.42,1.7-3.7,2.45,0,.05-.02.1-.05.14,1.92-.21,3.41-.46,4.73-.77,1.1-.26,1.61-.41,2.4-.72.67.43,1.27.94,1.73,1.37.19.17.26.31.26.46s-.12.29-.41.29c-.38,0-.91.05-1.34.14-2.42.53-5.02.94-8.02,1.2-.07.24-.17.48-.26.72h6.38c2.02,0,2.66-.05,2.81-.05.24,0,.34.07.31.31-.05.65-.1,1.44-.17,2.06-.26,2.23-.6,3.55-1.06,4.27-.48.72-1.42,1.08-2.66,1.08-.58,0-1.13,0-1.85-.07-.77-.02-.74-.05-.91-.79-.17-.7-.43-1.3-.74-1.75,1.06.12,1.94.24,2.81.24.72,0,1.13-.1,1.3-.46.31-.55.5-1.61.58-2.79h-7.61c-.24.53-.46,1.03-.7,1.49-.1.22-.14.24-.43.19l-1.92-.34c-.31-.07-.34-.14-.22-.36.82-1.42,1.51-2.86,2.04-4.29-1.61.77-3.29,1.49-5.06,2.16-.26.12-.43.19-.55.19-.19,0-.26-.17-.5-.6-.31-.55-.7-1.11-1.06-1.46,3.98-1.18,7.34-2.54,10.2-4.32h-6.5ZM407.42,170.31c.7-.58,1.34-1.18,1.97-1.82-.26,0-1.03-.05-2.93-.05h-.77v1.87h1.73Z"/>
        <path class="cls-1" d="M425.58,170.94c1.85-.29,3.19-.55,4.18-.77.41-.12.65-.19.96-.38.22-.12.31-.17.53-.17.14,0,.22.05.41.17.43.26.98.72,1.42,1.27.17.17.26.41.26.55,0,.21-.14.41-.43.55-.34.17-.5.34-.77.55-1.78,1.68-2.76,2.69-4.37,4.42.31-.1.62-.12.86-.12,1.13,0,2.21.72,2.62,2.42.48,1.97.86,2.35,2.64,2.35,1.42,0,2.54-.17,3.72-.43.26-.05.38.1.43.36.1.5.17,1.32.17,2.11,0,.24-.12.34-.43.38-1.06.19-2.38.31-3.53.31-3.53,0-4.68-.94-5.18-3.31-.38-1.63-.67-2.3-1.51-2.3-.62,0-1.37.34-2.26,1.2-1.08,1.1-2.83,3.22-3.65,4.22-.07.1-.19.17-.34.17-.07,0-.17-.02-.26-.1-.62-.43-1.25-1.03-1.68-1.46-.07-.07-.12-.17-.12-.24,0-.12.07-.26.19-.38,1.54-1.56,3-3.05,4.54-4.61.94-.96,2.18-2.35,4.75-5.11-1.8.48-3.41.86-4.99,1.27-.74.22-1.1.34-1.3.43-.19.1-.34.14-.5.14s-.29-.12-.41-.41c-.31-.6-.6-1.49-.96-2.69,2.06,0,3.02-.1,5.02-.41ZM432.28,165.8c.24.05.34.19.26.53-.14.58-.43,1.49-.65,1.97-.07.19-.22.31-.41.26-2.11-.41-4.92-1.25-6.7-2.02-.14-.05-.29-.17-.22-.43.14-.55.46-1.35.82-2.23,2.4.89,4.58,1.46,6.89,1.92Z"/>
        <path class="cls-1" d="M451.67,169.16c-2.93.55-5.5,1.06-8.06,1.58-.91.22-1.15.27-1.51.38-.17.07-.34.19-.53.19-.17,0-.36-.14-.46-.36-.31-.65-.58-1.49-.89-2.59,1.22-.05,1.94-.14,3.82-.41,2.95-.43,8.23-1.22,14.42-2.04.36-.05.48.1.5.27.12.55.24,1.44.26,2.11,0,.29-.14.36-.46.36-1.13.07-1.9.19-2.93.53-4.08,1.39-6.12,4.2-6.12,7.08,0,3.1,2.21,4.78,6.38,5.04.38,0,.53.1.53.36,0,.62-.1,1.46-.26,2.06-.07.36-.17.5-.46.5-4.22,0-8.86-2.42-8.86-7.42,0-3.41,1.7-5.71,4.61-7.61v-.05Z"/>
        <path class="cls-1" d="M466.31,167.79c.22.1.38.26.38.43,0,.14-.07.38-.19.67-.1.29-.22,1.32-.22,2.35,0,1.54.05,3.26.43,5.47.34,1.9.96,3.53,1.97,3.53.77,0,1.37-.84,2.3-3.34.53.84,1.06,1.39,1.54,1.85.29.26.29.55.17.89-.91,2.45-2.4,3.74-4.08,3.74-1.87,0-3.84-2.21-4.49-6.27-.38-2.28-.58-4.78-.58-6.98,0-1.32-.05-2.04-.29-3.14,1.15.14,2.33.43,3.05.79ZM477.45,169.3c.1-.05.19-.1.26-.1.1,0,.17.05.26.14,2.18,1.9,4.1,5.21,4.7,8.21.07.31-.07.41-.26.53-.62.41-1.22.74-1.87.96-.29.1-.46.03-.5-.26-.82-3.43-2.04-5.93-4.49-8.38.91-.58,1.51-.91,1.9-1.1Z"/>
        <path class="cls-1" d="M493.17,173.62c1.34-.77,2.47-1.08,3.82-1.08,3.5,0,5.95,2.3,5.95,5.76,0,4.01-3.24,6.58-8.38,6.58-3.02,0-4.85-1.3-4.85-3.53,0-1.61,1.51-2.93,3.38-2.93,2.26,0,3.91,1.2,4.51,3.5,1.68-.77,2.45-1.82,2.45-3.65,0-2.18-1.54-3.62-3.77-3.62-1.99,0-4.2.89-6.14,2.54-.7.62-1.37,1.32-2.09,2.04-.17.17-.29.26-.41.26-.1,0-.22-.07-.36-.22-.5-.43-1.03-1.05-1.42-1.56-.14-.19-.07-.36.12-.55,1.87-1.51,3.53-3.05,5.69-5.3,1.49-1.54,2.62-2.74,3.72-4.1-1.44.26-3.14.6-4.63.91-.31.07-.62.14-1.01.29-.12.05-.36.12-.48.12-.24,0-.41-.12-.53-.41-.29-.55-.5-1.22-.84-2.59.72.1,1.51.1,2.23.05,1.46-.14,3.58-.46,5.45-.82.6-.12,1.08-.24,1.32-.36.12-.07.34-.19.46-.19.24,0,.38.07.55.19.72.55,1.2,1.03,1.61,1.54.19.22.26.38.26.58,0,.24-.14.46-.41.58-.41.19-.6.36-1.06.77-1.75,1.71-3.36,3.38-5.18,5.14l.02.07ZM493.19,180.46c-.7,0-1.15.41-1.15.91,0,.74.65,1.25,2.09,1.25.43,0,.74-.03,1.1-.1-.31-1.32-1.03-2.06-2.04-2.06Z"/>
        <path class="cls-1" d="M509.58,170.02c-2.14,0-2.86.05-3.02.05-.24,0-.26-.02-.26-.29v-1.95c0-.26.02-.29.26-.29.17,0,.89.05,3.02.05h5.88v-1.56c0-1.03-.05-1.78-.17-2.35.86,0,1.8.05,2.62.12.24.02.38.12.38.26,0,.17-.07.31-.14.5-.1.19-.14.5-.14,1.39v1.63h6.31c2.16,0,2.88-.05,3.02-.05.22,0,.24.02.24.29v1.95c0,.26-.02.29-.24.29-.14,0-.86-.05-3.02-.05h-8.3c-.02,1.05-.1,2.04-.19,2.95h5.88c2.02,0,2.69-.05,2.83-.05.24,0,.29.07.29.34-.05.62-.07,1.27-.1,1.87-.19,3.58-.48,5.81-.79,7.13-.53,2.28-1.46,2.98-3.86,2.98-.43,0-1.1,0-1.9-.05-.67-.05-.67-.1-.77-.86-.1-.74-.29-1.44-.53-1.85,1.25.17,2.33.21,2.95.21.79,0,1.2-.38,1.42-1.2.36-1.2.62-3.41.74-6.1h-6.53c-.91,4.44-2.95,7.25-7.03,9.67-.31.17-.46.26-.58.26-.17,0-.26-.17-.48-.53-.38-.6-.89-1.08-1.44-1.46,5.52-2.71,7.32-6.02,7.37-13.32h-3.72Z"/>
      </g>
      <g>
        <path class="cls-1" d="M719.21,119.04c0,2.21.96,3.07,3.19,3.07,2.81,0,4.37-1.08,4.37-3.24,0-1.34-.34-2.45-2.16-4.37.96.12,1.49,0,2.45-.14.17-.05.36-.02.5.1,1.32,1.25,2.04,2.88,2.04,4.51,0,3.41-2.78,5.62-6.91,5.62s-6.05-1.92-6.05-5.42c0-.5.07-1.18.17-2.26-1.44-.22-2.4-.43-3.26-.72-.17-.05-.24-.17-.26-.46-.07-.74-.1-1.49-.05-2.23,1.44.53,2.52.79,3.89.94.12-.89.31-2.45.41-3.43-1.68-.22-2.54-.36-3.46-.67-.29-.07-.38-.19-.38-.41-.02-.58-.07-1.37-.07-2.23,1.63.53,2.78.74,4.34.91.19-1.39.26-2.04.31-2.76.05-.67.05-1.37-.02-2.02,1.1.14,2.35.46,2.88.67.34.12.53.34.53.55,0,.17-.07.31-.19.46-.17.17-.29.48-.43,1.03-.12.55-.26,1.37-.38,2.26.96.07,1.94,0,2.95-.14.17,0,.24.12.24.29.02.58.02,1.25-.05,1.8,0,.26-.1.34-.38.36-1.06.12-2.14.14-3.19.12-.14.84-.38,2.47-.53,3.43,1.27.02,2.26,0,3.41-.07.31-.05.38.05.38.26,0,.43-.05,1.3-.12,1.8-.02.29-.1.38-.34.38-1.2.1-2.45.1-3.67.07-.12.94-.14,1.51-.14,1.94Z"/>
        <path class="cls-1" d="M736.2,110.68c2.02-.67,3.67-1.2,5.5-1.2,3.22,0,5.06,2.18,5.06,5.71,0,2.35-.84,4.27-1.94,5.74-1.13,1.54-2.74,2.81-4.63,3.82-.17.07-.29.12-.41.12-.22,0-.36-.1-.58-.31-.53-.5-1.18-.96-1.99-1.27,2.64-1.25,4.27-2.59,5.28-4.01.7-.98,1.32-2.3,1.32-4.25s-.84-3.02-2.23-3.02-2.4.36-3.77,1.03c-1.42.7-1.75.94-2.04,1.15-.19.14-.34.24-.53.24-.31,0-.53-.31-.67-.53-.34-.5-.84-1.56-1.22-2.52.98-.1,1.56-.29,2.86-.7ZM744.97,105.16c.26.05.36.24.31.43-.1.5-.36,1.66-.53,2.11-.07.24-.14.36-.34.34-2.62-.43-4.49-.89-6.96-1.85-.12-.05-.24-.17-.17-.48.17-.89.43-1.54.72-2.26,2.23.89,4.49,1.34,6.96,1.7Z"/>
        <path class="cls-1" d="M757.97,107.88c.22.1.31.24.31.38,0,.17-.1.26-.24.41-.19.19-.34.46-.53.91-.91,2.28-1.99,4.34-3.84,6.26-.26.29-.38.41-.53.41-.12,0-.26-.12-.55-.38-.46-.41-1.06-.79-1.56-1.06,2.06-1.92,3.22-3.94,4.1-6.12.22-.55.36-1.15.46-1.7.74.24,1.75.58,2.38.89ZM765.63,115.58c.26-.43.55-.98.74-1.61.77.43,1.68.98,2.16,1.37.26.19.34.31.34.43,0,.19-.12.29-.31.43-.24.19-.6.62-.96,1.15-2.71,4.03-7.03,6.53-12.87,7.83-.26.07-.46.1-.58.1-.19,0-.31-.17-.53-.6-.34-.67-.82-1.34-1.18-1.68,6.65-1.1,10.87-3.62,13.18-7.42ZM763.11,111.67c0,1.54.05,2.62.05,3.43,0,1.06-.19,1.61-.91,2.04-.67.41-1.42.58-3.26.6-.74,0-.74.02-.89-.74-.14-.67-.38-1.42-.7-1.87.79.1,1.37.12,2.18.12.7,0,.96-.19.96-.84v-8.33c0-1.03-.02-1.8-.17-2.66.86.02,1.8.1,2.64.17.22.02.41.12.41.29,0,.19-.07.34-.17.5-.1.19-.14.6-.14,1.63v5.66ZM767.14,106.89c.34-.17.36-.14.48.12,1.34,2.71,2.98,4.87,4.92,6.7-.46.29-1.01.77-1.49,1.3-.26.29-.38.43-.5.43s-.26-.14-.5-.41c-1.9-1.94-3.41-4.3-4.66-6.96-.07-.26-.05-.31.24-.46l1.51-.72Z"/>
        <path class="cls-1" d="M780.1,104.83c.41.1.58.22.58.46,0,.26-.14.55-.24.79-.12.34-.22,1.08-.34,2.93-.24,3.7-.36,6.14-.36,9.29,0,2.42.29,2.98,2.21,2.98,2.14,0,5.47-1.3,8.4-4.42.1.91.31,1.7.55,2.28.12.26.19.43.19.58,0,.22-.1.41-.48.74-2.59,2.38-5.98,3.6-9.1,3.6s-4.51-1.22-4.51-4.9c0-4.03.22-7.49.34-10.37.05-1.42.12-2.95-.24-4.39,1.1.12,2.26.24,3,.43Z"/>
        <path class="cls-1" d="M794.69,118.53c.1-.36.17-.91.19-1.32.84.14,1.46.31,1.97.5.26.1.36.12.36.29,0,.12-.07.24-.17.36-.12.14-.22.5-.31.86-.29,1.15-.74,2.47-1.44,3.77-.22.38-.31.53-.46.53-.1,0-.22-.07-.41-.22-.55-.41-.94-.62-1.44-.79.91-1.37,1.37-2.57,1.7-3.98ZM796.54,108.31c-2.14,0-2.86.05-3,.05-.22,0-.24-.02-.24-.24v-1.78c0-.24.02-.26.24-.26.14,0,.86.05,3,.05h1.42v-.6c0-.94-.02-1.61-.14-2.21.86.02,1.61.07,2.4.17.24.02.38.12.38.24,0,.19-.07.31-.14.48-.1.24-.14.6-.14,1.34v.58h1.3c2.14,0,2.88-.05,3.02-.05.24,0,.26.02.26.26v1.78c0,.22-.02.24-.26.24-.14,0-.89-.05-3.02-.05h-5.06ZM800.79,109.82c1.82,0,2.42-.05,2.57-.05.24,0,.26.02.26.26,0,.14-.05.62-.05,1.85v2.14c0,1.22.05,1.7.05,1.85,0,.24-.02.26-.26.26-.14,0-.74-.05-2.57-.05h-.46v2.3c0,2.02.07,3.19.07,4.15s-.14,1.58-.79,2.04c-.5.36-.94.41-2.23.43q-.74,0-.86-.77c-.1-.6-.26-1.1-.53-1.61.55.07.98.1,1.25.1.7,0,.89-.19.89-.74v-5.91h-.62c-1.82,0-2.42.05-2.59.05-.24,0-.26-.02-.26-.26,0-.17.05-.62.05-1.85v-2.14c0-1.22-.05-1.7-.05-1.85,0-.24.02-.26.26-.26.17,0,.77.05,2.59.05h3.29ZM801.36,111.76h-4.51v2.4h4.51v-2.4ZM802.44,117.14c.29-.14.34-.14.48.1.53.84,1.03,1.78,1.34,2.62.07.19.05.26-.19.41l-1.15.67c-.31.17-.38.17-.48-.07-.34-.96-.72-1.94-1.25-2.83-.14-.24-.12-.24.19-.38l1.06-.5ZM809.64,111.4l-.22,1.68,1.87.14c.26.05.38.17.38.31,0,.19-.05.29-.12.48-.1.26-.12.48-.12,1.94v5.66c0,.48.05.7.19.82.17.12.26.17.62.17.43,0,.58-.1.77-.36.22-.34.26-.89.34-2.74.55.31.96.46,1.34.58.6.19.67.24.62.86-.12,2.06-.41,2.74-.89,3.22-.53.53-1.34.77-2.33.77-1.06,0-1.75-.14-2.16-.41-.53-.29-.72-.86-.72-1.85v-6.67c0-.58,0-1.08-.02-1.51-.19,1.1-.46,2.11-.72,3.05-.86,2.88-2.28,5.23-4.37,7.15-.24.22-.41.34-.55.34s-.26-.12-.43-.38c-.36-.55-.84-1.03-1.32-1.3,2.33-1.66,3.77-3.96,4.73-7.08.38-1.25.7-2.9.86-4.87-1.85,0-2.47.05-2.59.05-.24,0-.26-.02-.26-.26v-1.8c0-.24.02-.26.26-.26.14,0,.77.05,2.71.05.05-.84.07-1.73.07-2.64,0-1.39-.05-2.16-.17-3.1.84.02,1.54.07,2.35.14.24.05.36.14.36.31,0,.22-.07.43-.14.62-.1.31-.12.77-.12,1.8,0,.96-.02,1.92-.07,2.86h2.02c2.02,0,2.69-.05,2.83-.05.22,0,.24.02.24.26v1.8c0,.24-.02.26-.24.26-.14,0-.82-.05-2.83-.05h-2.18ZM812.02,104.15c.12-.07.19-.12.26-.12s.12.05.22.14c.79.77,1.56,1.7,2.18,2.71.12.22.12.29-.19.5l-1.3.86c-.24.14-.34.14-.46-.05-.5-1.13-1.27-2.09-1.97-2.86-.17-.19-.14-.24.12-.43l1.13-.77Z"/>
        <path class="cls-1" d="M818.45,109.82c.19-.24.26-.24.48-.12,1.18.65,2.33,1.46,3.41,2.45.1.1.14.14.14.19,0,.07-.05.14-.14.29l-1.08,1.54c-.07.12-.12.17-.19.17-.05,0-.12-.05-.22-.14-1.03-1.01-2.18-1.9-3.38-2.62-.12-.07-.17-.12-.17-.17,0-.07.05-.17.14-.29l1.01-1.3ZM818.69,121.58c.67-1.32,1.51-3.19,2.4-5.52.34.38.84.86,1.3,1.22.38.29.53.41.53.6,0,.14-.07.31-.17.58-.72,1.85-1.54,3.7-2.33,5.28-.19.36-.36.67-.41.91-.05.19-.14.31-.31.31-.12,0-.26-.07-.43-.17-.55-.34-1.18-.74-1.85-1.32.5-.62.84-1.1,1.27-1.9ZM819.41,103.72c.19-.22.26-.22.46-.1,1.2.67,2.3,1.54,3.34,2.47.1.07.14.14.14.22s-.05.14-.14.29l-1.08,1.51c-.1.14-.17.19-.22.19-.07,0-.12-.05-.22-.12-1.06-1.03-2.23-2.02-3.38-2.71-.12-.07-.17-.12-.17-.17,0-.07.05-.14.17-.29l1.1-1.3ZM826.88,112.92c-2.38,0-3.19.05-3.34.05-.24,0-.26-.02-.26-.26v-1.9c0-.22.02-.24.26-.24.14,0,.96.05,3.34.05h2.81v-3.14c-1.37.22-2.76.38-4.15.53-.77.07-.79.05-.98-.6-.19-.67-.43-1.22-.67-1.58,3.91-.24,8.14-.94,10.58-1.7.65-.22,1.08-.38,1.56-.67.6.48,1.15,1.06,1.58,1.54.14.17.22.29.22.48,0,.14-.1.29-.34.31-.29.02-.65.05-1.3.26-1.15.38-2.47.7-3.91.98v3.6h3.14c2.35,0,3.17-.05,3.31-.05.22,0,.24.02.24.24v1.9c0,.24-.02.26-.24.26-.14,0-.96-.05-3.31-.05h-3.14v3.1h1.73c2.21,0,2.95-.05,3.12-.05.24,0,.26.02.26.26,0,.14-.05.82-.05,2.4v2.16c0,3.31.05,3.94.05,4.08,0,.22-.02.24-.26.24h-2.04c-.24,0-.26-.02-.26-.24v-.82h-7.49v.94c0,.22-.02.24-.26.24h-1.97c-.26,0-.29-.02-.29-.24,0-.17.05-.79.05-4.13v-1.9c0-1.9-.05-2.57-.05-2.74,0-.24.02-.26.29-.26.14,0,.94.05,3.12.05h1.46v-3.1h-2.81ZM827.33,121.89h7.49v-3.72h-7.49v3.72Z"/>
        <path class="cls-1" d="M853.56,119.88c0,.26-.14.38-.46.43s-1.03.12-1.7.12c-.22,0-.31-.14-.31-.38,0-.86,0-2.06.02-2.93-2.14,1.1-2.9,2.04-2.9,3.19,0,1.01.82,1.66,3.34,1.66,2.21,0,4.13-.22,5.98-.48.22-.02.31.05.34.26.12.55.22,1.39.22,1.97.02.29-.07.46-.26.46-2.06.26-3.62.31-5.95.31-3.94,0-6.02-1.18-6.02-3.96,0-2.3,1.44-3.98,5.06-5.86-.07-1.22-.36-1.7-1.44-1.66-1.13.05-2.21.77-3.31,1.73-1.03,1.01-1.63,1.7-2.4,2.62-.12.14-.19.22-.29.22-.07,0-.17-.07-.26-.17-.34-.34-1.06-1.08-1.37-1.58-.07-.1-.1-.17-.1-.22,0-.1.05-.17.17-.26,1.85-1.66,3.62-3.55,5.02-5.95-1.13.05-2.42.07-3.84.07-.22,0-.29-.12-.34-.38-.07-.38-.17-1.27-.24-1.99,1.82.1,3.7.07,5.52-.02.26-.65.48-1.22.72-2.06.1-.41.17-.82.17-1.46,1.06.17,2.11.43,2.74.67.19.07.29.24.29.41,0,.12-.05.26-.17.36-.14.12-.29.34-.41.58-.14.34-.26.65-.55,1.3,1.46-.17,2.93-.41,4.37-.74.26-.05.34.02.38.24.12.48.22,1.03.24,1.73.02.24-.07.34-.41.38-1.8.26-3.86.53-5.62.72-.55.89-1.08,1.78-1.8,2.66l.02.05c.77-.5,1.75-.74,2.4-.74,1.58,0,2.69.72,2.93,2.59.94-.43,2.3-1.06,3.53-1.68.46-.24,1.22-.67,1.82-1.3.79.84,1.42,1.68,1.68,2.11.14.22.19.38.19.53,0,.19-.12.29-.36.34-.5.07-.98.19-1.46.36-1.56.55-3.12,1.08-5.16,1.92v3.86Z"/>
        <path class="cls-1" d="M723.76,151.96c-.02,6.96-.79,8.88-2.69,11.38-.22.29-.36.43-.48.43-.14,0-.26-.17-.53-.46-.43-.48-.86-.84-1.27-1.1,1.99-2.23,2.64-3.67,2.66-10.25-1.27.02-1.75.05-1.87.05-.22,0-.24-.02-.24-.26v-1.87c0-.24.02-.26.24-.26.14,0,.79.05,2.74.05h3.82c1.94,0,2.57-.05,2.71-.05.24,0,.26.02.26.26v1.87c0,.24-.02.26-.26.26-.12,0-.5-.02-1.46-.05v6.55c.62-.26,1.25-.58,1.97-.98-.05.38-.07.91-.1,1.39,0,.82-.02.82-.6,1.15-.98.55-1.82.94-3.22,1.49-.34.14-.48.26-.6.38-.1.1-.22.22-.38.22-.12,0-.19-.07-.26-.29-.24-.65-.41-1.3-.58-2.09.5-.12.94-.24,1.46-.41v-7.42h-1.32ZM722.85,146.84c-1.7,0-2.26.05-2.4.05-.24,0-.26-.02-.26-.26v-1.82c0-.24.02-.26.26-.26.19,0,.74.05,2.4.05h2.83c1.7,0,2.26-.05,2.4-.05.24,0,.26.02.26.26v1.82c0,.24-.02.26-.26.26-.14,0-.7-.05-2.4-.05h-2.83ZM733.65,161.63c.19.14.24.26.24.38,0,.14-.12.22-.26.29-.19.1-.38.24-.65.46-1.03.86-2.42,1.78-3.86,2.4-.26.12-.43.22-.55.22-.19,0-.29-.17-.55-.6-.29-.48-.7-.94-1.01-1.2,1.8-.6,3.02-1.22,4.2-2.14.26-.22.53-.5.79-.82.62.29,1.18.65,1.66,1.01ZM732.62,146.36c-2.14,0-2.86.05-3,.05-.24,0-.26-.02-.26-.26v-1.78c0-.24.02-.26.26-.26.14,0,.86.05,3,.05h5.18c2.16,0,2.88-.05,3.02-.05.22,0,.24.02.24.26v1.78c0,.24-.02.26-.24.26-.14,0-.86-.05-3.02-.05h-1.82c-.24.65-.5,1.22-.77,1.75h1.61c1.92,0,2.59-.05,2.76-.05.24,0,.26.02.26.26,0,.14-.05.96-.05,2.81v6.36c0,1.82.05,2.64.05,2.78,0,.26-.02.29-.26.29-.17,0-.77-.02-2.38-.05l.17.12c1.25,1.08,2.83,2.04,4.22,2.54-.34.31-.7.82-.98,1.34-.22.41-.31.58-.48.58-.14,0-.31-.1-.6-.24-1.46-.77-2.76-1.78-3.79-2.83-.19-.19-.12-.24.12-.46l1.01-.91c.07-.07.14-.12.19-.14h-3.98c-1.94,0-2.62.05-2.76.05-.26,0-.29-.02-.29-.29,0-.14.05-.96.05-2.78v-6.29c0-1.92-.05-2.71-.05-2.88,0-.24.02-.26.29-.26.12,0,.77.05,2.54.05.26-.6.46-1.13.67-1.75h-.91ZM732.38,151.62h5.09v-1.51h-5.09v1.51ZM737.46,155v-1.56h-5.09v1.56h5.09ZM737.46,156.8h-5.09v1.7h5.09v-1.7Z"/>
        <path class="cls-1" d="M748.84,154.36c1.13,0,1.44-.05,1.58-.05.24,0,.31.05.29.29-.07.58-.1,1.2-.12,1.7-.19,4.2-.62,6.14-1.03,7.06-.43,1.08-1.27,1.61-3.02,1.61-.31,0-.72,0-1.15-.02q-.5-.05-.65-.82c-.14-.67-.34-1.3-.53-1.7.94.12,1.51.17,2.11.17.43,0,.91-.14,1.13-.48.38-.62.62-1.87.84-5.62h-2.26c-.05.31-.12.6-.19.91-.07.31-.12.31-1.18.14-1.15-.19-1.2-.24-1.13-.58.43-2.02.74-3.79.89-5.5.07-.58.1-1.1.1-1.7,0-.24.07-.31.31-.31.14,0,.7.05,1.63.05h2.18v-3.02h-2.38c-1.51,0-1.97.05-2.14.05-.24,0-.24-.02-.24-.24v-1.75c0-.26,0-.29.24-.29.17,0,.62.05,2.14.05h2.64c1.15,0,1.61-.05,1.75-.05.24,0,.26.02.26.29,0,.14-.05.77-.05,2.16v2.47c0,1.39.05,2.02.05,2.16,0,.24-.02.26-.26.26-.14,0-.6-.05-1.75-.05h-2.18c-.1,1.01-.22,1.92-.34,2.81h2.45ZM755.3,147.68h4.39c2.16,0,2.9-.05,3.05-.05.22,0,.24.02.24.26v1.42c0,.24-.02.26-.24.26-.14,0-.89-.05-3.05-.05h-4.39v1.25h4.39c2.14,0,2.88-.05,3.02-.05.22,0,.24.02.24.26v1.39c0,.26-.02.29-.24.29-.14,0-.89-.05-3.02-.05h-4.39v1.25h6.43c2.3,0,3.1-.05,3.24-.05.26,0,.29.02.29.26v1.75c0,.24-.02.26-.29.26-.14,0-.94-.05-3.24-.05h-2.76c.34,1.03.79,1.94,1.34,2.76.67-.58,1.22-1.13,1.73-1.7.24-.29.46-.58.65-.94.58.36,1.15.79,1.68,1.22.14.12.22.19.22.31,0,.17-.07.24-.26.31s-.34.12-.7.46c-.58.58-1.18,1.13-2.09,1.78,1.13,1.08,2.52,1.9,4.18,2.5-.41.38-.77.96-1.01,1.58-.17.43-.26.6-.43.6-.12,0-.29-.07-.58-.22-1.94-1.01-3.5-2.33-4.7-3.96-.07.38-.12.96-.12,1.44-.02.77-.05.77-.74.98-2.02.6-3.7,1.03-5.28,1.37-.41.1-.74.22-.89.29-.14.1-.24.14-.38.14s-.29-.1-.36-.31c-.19-.7-.36-1.56-.5-2.23.67-.05,1.39-.14,2.14-.24v-6.12c-.96,0-1.37.02-1.46.02-.26,0-.29-.02-.29-.26v-1.75c0-.24.02-.26.29-.26.1,0,.55.05,1.61.05v-6.65c0-1.73-.05-2.57-.05-2.71,0-.24.02-.26.26-.26.14,0,.86.05,2.9.05h4.56c2.09,0,2.76-.05,2.9-.05.24,0,.26.02.26.26v1.75c0,.22-.02.24-.26.24-.14,0-.82-.05-2.9-.05h-5.38v1.22ZM755.15,161.77c1.2-.26,2.5-.6,3.84-1.03-.98-1.34-1.7-2.9-2.23-4.68h-1.61v5.71Z"/>
        <path class="cls-1" d="M772.77,144.87c.31.12.46.26.46.48,0,.14-.05.24-.17.38-.17.19-.29.53-.43,1.13-.34,1.63-.53,3.34-.67,4.58-.05.86-.12,1.78-.07,2.64.53-.94,1.03-1.85,1.68-3.07.22.72.46,1.15.74,1.56.12.14.14.26.14.38,0,.19-.1.38-.24.6-.53,1.01-1.08,2.02-1.42,3.07-.07.22-.1.43-.12.72,0,.24-.1.34-.31.38-.29.07-1.32.22-1.92.29-.17.02-.29-.14-.34-.31-.38-1.03-.72-2.88-.72-4.87,0-1.61.26-3.58.58-5.98.1-.84.19-1.66.19-2.74,1.08.22,1.99.46,2.62.74ZM780.57,144.47c.48.12.53.24.48.65-.05.34-.05.77-.05,1.1.17,2.28.34,4.46.34,6.19,0,3.41-.55,6.36-1.82,8.33-.94,1.49-2.45,2.9-3.96,3.86-.17.12-.34.17-.48.17-.17,0-.31-.07-.5-.26-.53-.46-1.27-.89-2.04-1.1,1.94-1.08,3.12-1.94,4.08-3.22,1.39-1.9,2.02-3.86,2.02-7.66,0-1.7-.12-4.2-.29-5.74-.12-1.18-.24-1.78-.5-2.62,1.06.05,2.04.1,2.74.29Z"/>
        <path class="cls-1" d="M798.16,147.51c.26-.07.36.05.38.24.07.53.14,1.22.17,1.73.02.31-.05.38-.36.46-1.49.41-2.71.67-4.18.91-1.63,5.33-2.86,9-4.39,12.99-.12.34-.26.31-.53.24-.24-.1-1.42-.6-1.92-.89-.19-.12-.26-.31-.19-.48,1.82-4.2,2.98-7.37,4.15-11.38-1.39.14-3.07.26-4.2.26-.36,0-.46-.07-.5-.38-.1-.5-.22-1.32-.34-2.18.5.07.79.07,1.78.07,1.2,0,2.5-.07,3.89-.24.24-.96.43-2.02.6-3,.1-.72.14-1.44.14-2.21,1.27.19,2.26.36,3.02.67.19.07.26.24.26.38,0,.1,0,.22-.12.38-.19.34-.38.58-.5.96-.24.86-.41,1.68-.58,2.28.94-.17,2.23-.48,3.41-.82ZM797.22,158.99c.24,0,.34.1.36.34.19,1.75,1.37,2.26,3.67,2.26,1.34,0,3.07-.22,4.03-.34.19-.02.26.02.29.22.1.62.19,1.44.19,2.09.02.29,0,.36-.38.38-.82.12-2.38.26-3.26.26-3.14,0-4.78-.43-5.86-1.56-.77-.77-1.03-1.9-1.08-3.29.74-.19,1.73-.36,2.04-.36ZM796.96,152.63c0-.34.07-.41.43-.48,1.51-.31,3.29-.55,4.68-.55.94,0,1.97.1,2.81.24.34.05.41.07.41.36.05.6.05,1.27.02,1.92,0,.41-.12.5-.46.43-.84-.17-1.94-.29-2.98-.29-1.44,0-3.26.24-4.82.55-.05-.84-.1-1.7-.1-2.18Z"/>
        <path class="cls-1" d="M813.26,147.44c.22.1.38.26.38.43,0,.14-.07.38-.19.67-.1.29-.22,1.32-.22,2.35,0,1.54.05,3.26.43,5.47.34,1.9.96,3.53,1.97,3.53.77,0,1.37-.84,2.3-3.34.53.84,1.06,1.39,1.54,1.85.29.26.29.55.17.89-.91,2.45-2.4,3.74-4.08,3.74-1.87,0-3.84-2.21-4.49-6.26-.38-2.28-.58-4.78-.58-6.98,0-1.32-.05-2.04-.29-3.14,1.15.14,2.33.43,3.05.79ZM824.39,148.96c.1-.05.19-.1.26-.1.1,0,.17.05.26.14,2.18,1.9,4.1,5.21,4.7,8.21.07.31-.07.41-.26.53-.62.41-1.22.74-1.87.96-.29.1-.46.02-.5-.26-.82-3.43-2.04-5.93-4.49-8.38.91-.58,1.51-.91,1.9-1.1Z"/>
        <path class="cls-1" d="M835.96,149.67c-2.14,0-2.86.05-3.02.05-.24,0-.26-.02-.26-.29v-1.94c0-.26.02-.29.26-.29.17,0,.89.05,3.02.05h5.88v-1.56c0-1.03-.05-1.78-.17-2.35.86,0,1.8.05,2.62.12.24.02.38.12.38.26,0,.17-.07.31-.14.5-.1.19-.14.5-.14,1.39v1.63h6.31c2.16,0,2.88-.05,3.02-.05.22,0,.24.02.24.29v1.94c0,.26-.02.29-.24.29-.14,0-.86-.05-3.02-.05h-8.3c-.02,1.06-.1,2.04-.19,2.95h5.88c2.02,0,2.69-.05,2.83-.05.24,0,.29.07.29.34-.05.62-.07,1.27-.1,1.87-.19,3.58-.48,5.81-.79,7.13-.53,2.28-1.46,2.98-3.86,2.98-.43,0-1.1,0-1.9-.05-.67-.05-.67-.1-.77-.86-.1-.74-.29-1.44-.53-1.85,1.25.17,2.33.22,2.95.22.79,0,1.2-.38,1.42-1.2.36-1.2.62-3.41.74-6.1h-6.53c-.91,4.44-2.95,7.25-7.03,9.67-.31.17-.46.26-.58.26-.17,0-.26-.17-.48-.53-.38-.6-.89-1.08-1.44-1.46,5.52-2.71,7.32-6.02,7.37-13.32h-3.72Z"/>
      </g>
      <g>
        <path class="cls-2" d="M17.75,15.13h6.89v13.1h-13.68v-13.1L18.04,0h6.11l-6.4,15.13ZM36.86,15.13h6.89v13.1h-13.68v-13.1L37.15,0h6.11l-6.4,15.13Z"/>
        <path class="cls-2" d="M252.62,255.47h-6.89v-13.1h13.68v13.1l-7.08,15.13h-6.11l6.4-15.13ZM233.51,255.47h-6.89v-13.1h13.68v13.1l-7.08,15.13h-6.11l6.4-15.13Z"/>
      </g>
      <g>
        <path class="cls-2" d="M343.67,15.13h6.89v13.1h-13.68v-13.1l7.08-15.13h6.11l-6.4,15.13ZM362.78,15.13h6.89v13.1h-13.68v-13.1l7.08-15.13h6.11l-6.4,15.13Z"/>
        <path class="cls-2" d="M578.54,255.47h-6.89v-13.1h13.68v13.1l-7.08,15.13h-6.11l6.4-15.13ZM559.43,255.47h-6.89v-13.1h13.68v13.1l-7.08,15.13h-6.11l6.4-15.13Z"/>
      </g>
      <g>
        <path class="cls-2" d="M669.59,15.13h6.89v13.1h-13.68v-13.1l7.08-15.13h6.11l-6.4,15.13ZM688.7,15.13h6.89v13.1h-13.68v-13.1l7.08-15.13h6.11l-6.4,15.13Z"/>
        <path class="cls-2" d="M904.46,255.47h-6.89v-13.1h13.68v13.1l-7.08,15.13h-6.11l6.4-15.13ZM885.35,255.47h-6.89v-13.1h13.68v13.1l-7.08,15.13h-6.11l6.4-15.13Z"/>
      </g>
    </g>
  </g>
</svg>