<?xml version="1.0" encoding="UTF-8"?>
<svg id="_レイヤー_2" data-name="レイヤー 2" xmlns="http://www.w3.org/2000/svg" viewBox="0 0 325.79 490.29">
  <defs>
    <style>
      .cls-1 {
        fill: #aa5a00;
      }

      .cls-2 {
        fill: #f9be56;
      }

      .cls-3 {
        fill: #fff;
      }
    </style>
  </defs>
  <g id="_レイヤー_1-2" data-name="レイヤー 1">
    <g>
      <g>
        <g>
          <rect class="cls-3" y="181.12" width="315.09" height="127.59"/>
          <polygon class="cls-3" points="325.79 319.26 9.91 319.26 9.91 317.67 324.21 317.67 324.21 185.53 325.79 185.53 325.79 319.26"/>
          <g>
            <path class="cls-2" d="M20.33,175.76h5.61v10.68h-11.15v-10.68l5.77-12.33h4.98l-5.22,12.33ZM35.9,175.76h5.61v10.68h-11.15v-10.68l5.77-12.33h4.98l-5.22,12.33Z"/>
            <path class="cls-2" d="M304.67,314.52h-5.61v-10.68h11.15v10.68l-5.77,12.33h-4.98l5.22-12.33ZM289.1,314.52h-5.61v-10.68h11.15v10.68l-5.77,12.33h-4.98l5.22-12.33Z"/>
          </g>
        </g>
        <g>
          <path class="cls-1" d="M66.99,216.79c2.2,3,5.2,4.8,8.54,5.96-.36.44-.68,1.12-.82,1.68-.1.38-.16.52-.34.52-.1,0-.26-.06-.48-.18-1.52-.68-2.94-1.52-4.2-2.48v1.54c0,.2-.02.22-.22.22-.12,0-.6-.04-2.16-.04h-2.78c-1.54,0-2.02.04-2.14.04-.22,0-.24-.02-.24-.22v-1.6c-1.24.98-2.58,1.84-4.02,2.6-.22.12-.36.18-.46.18-.14,0-.22-.14-.36-.48-.22-.54-.52-1.04-.92-1.38,3.64-1.56,6.06-3.68,7.72-6.08.34-.5.6-.94.74-1.42.78.12,1.54.26,2.14.44.24.04.36.12.36.28,0,.12-.06.22-.2.3l-.16.12ZM62.51,227.57c-1.94,0-2.6.04-2.72.04-.2,0-.22-.02-.22-.24v-1.56c0-.2.02-.22.22-.22.12,0,.78.04,2.72.04h7.2c.34,0,.56-.02.7-.08.12-.04.22-.08.3-.08.2,0,.38.06.9.56.66.64.7.8.7.92,0,.2-.06.28-.26.44-.22.18-.38.44-.66.96-.74,1.42-2.36,3.86-3.9,5.82-.08.1-.14.16-.24.16-.16,0-.42-.12-1-.36-.76-.3-1.02-.4-1.02-.54,0-.04.04-.1.12-.18,1.54-1.64,3.02-3.88,3.88-5.68h-6.72ZM62.39,222.07c.12,0,.6.02,2.14.02h2.78c1.36,0,1.88-.02,2.08-.02-1.38-1.08-2.58-2.3-3.56-3.64-1,1.38-2.18,2.58-3.48,3.64h.04Z"/>
          <path class="cls-1" d="M79.65,229.77c-1.76,0-2.38.04-2.5.04-.2,0-.22-.02-.22-.22v-1.58c0-.18.02-.2.22-.2.12,0,.74.04,2.5.04h.48v-2.8c0-1.14-.04-1.68-.04-1.8,0-.2.02-.22.24-.22.12,0,.8.04,2.74.04h2.56v-2.66h-4.1c-.66,1-1.44,1.96-2.34,2.86-.2.22-.32.32-.42.32s-.2-.12-.4-.38c-.38-.52-.74-.84-1.12-1.08,1.66-1.44,2.88-3.1,3.7-4.84.24-.5.42-.98.52-1.46.72.14,1.38.28,1.92.44.24.08.36.18.36.34s-.1.24-.24.38c-.16.14-.3.3-.5.72l-.4.86h8.26c1.94,0,2.62-.04,2.74-.04.2,0,.22.02.22.22v1.48c0,.2-.02.22-.22.22-.12,0-.8-.04-2.74-.04h-3.08v2.66h2.14c1.96,0,2.62-.04,2.74-.04.18,0,.2.02.2.22v1.5c0,.2-.02.22-.2.22-.12,0-.78-.04-2.74-.04h-2.14v2.92h4.24c1.76,0,2.38-.04,2.5-.04.2,0,.22.02.22.2v1.58c0,.2-.02.22-.22.22-.12,0-.74-.04-2.5-.04h-4.24v.98c0,2.1.04,3.16.04,3.26,0,.2-.02.22-.22.22h-1.78c-.22,0-.24-.02-.24-.22,0-.12.04-1.16.04-3.26v-.98h-5.98ZM85.63,227.85v-2.92h-3.38v2.92h3.38Z"/>
          <path class="cls-1" d="M104.95,217.05c1.44,0,1.88-.04,2-.04.18,0,.26.04.26.24-.04.72,0,1.26.12,2.22.62,5.4,3.08,9.52,7.78,12.36-.36.34-.82.84-1.18,1.52-.16.32-.24.46-.36.46-.1,0-.24-.1-.46-.26-3.64-2.68-5.86-5.94-6.86-9.92-1.08,4.1-3.74,7.72-7.36,9.96-.24.14-.36.24-.46.24-.14,0-.22-.16-.42-.48-.32-.54-.78-1.02-1.18-1.32,4.96-2.44,7.78-7.22,8.04-12.94h-2.48c-1.44,0-1.88.04-2,.04-.22,0-.24-.02-.24-.22v-1.68c0-.2.02-.22.24-.22.12,0,.56.04,2,.04h2.56Z"/>
          <path class="cls-1" d="M117.52,218.53c-.38,0-.54.02-.6.02-.2,0-.22-.02-.22-.22v-1.4c0-.2.02-.22.22-.22.12,0,.54.04,1.96.04h2.16c1.4,0,1.84-.04,1.96-.04.18,0,.2.02.2.22v1.4c0,.2-.02.22-.2.22-.06,0-.2,0-.46-.02v13.36c0,1.36.04,1.98.04,2.1,0,.2-.02.22-.24.22h-1.34c-.2,0-.22-.02-.22-.22,0-.12.04-.74.04-2.1v-1.16c-.96.32-1.92.62-2.72.86-.38.1-.56.18-.66.24-.12.08-.22.14-.32.14s-.18-.04-.24-.26c-.14-.54-.28-1.26-.38-1.92.4-.02.7-.08,1.02-.12v-11.14ZM120.83,220.75v-2.24h-1.6v2.24h1.6ZM120.83,224.73v-2.26h-1.6v2.26h1.6ZM120.83,226.45h-1.6v2.82c.52-.14,1.04-.3,1.6-.48v-2.34ZM131.87,223.83c.06,1.44.16,2.68.3,3.72.24-.46.46-.94.66-1.44.18-.5.3-.94.4-1.52.48.22,1.08.56,1.48.88.16.14.24.22.24.36s-.08.24-.22.38c-.12.12-.26.4-.42.8-.44,1.04-1,2.06-1.64,2.98.3,1.26.54,1.6.88,1.6.26,0,.4-.54.62-2.36.26.34.62.56,1.06.8.3.16.34.22.24.8-.32,2.28-1.02,3-1.88,3-.76,0-1.56-.64-2.2-2.22-.86.94-1.82,1.76-2.82,2.42-.2.14-.34.22-.44.22-.16,0-.28-.16-.46-.52-.22-.42-.52-.74-.74-.92.64-.36,1.22-.76,1.78-1.2h-1.06c-.2,0-.22-.02-.22-.22v-.24h-2.12v1.12c0,.2-.02.22-.22.22h-1.22c-.2,0-.22-.02-.22-.22,0-.14.04-.64.04-3.32v-1.76c0-1.68-.04-2.24-.04-2.38,0-.2.02-.22.22-.22.14,0,.5.04,1.68.04h1.66c1.18,0,1.54-.04,1.68-.04.18,0,.2.02.2.22,0,.12-.04.66-.04,1.9v1.82c0,1.98.02,2.6.04,2.8.62-.52,1.18-1.1,1.7-1.72-.06-.22-.1-.46-.14-.7-.26-1.36-.42-3.06-.5-5.08h-4.68c-1.54,0-2.22.04-2.36.04-.18,0-.2-.02-.2-.24v-1.3c0-.2.02-.2.2-.2.1,0,.52.02,1.32.02-.14-.58-.36-1.16-.54-1.64-.1-.22-.06-.3.2-.36l.96-.24c.26-.06.28-.02.36.16.22.58.46,1.42.6,2.08h.72c.16-.46.28-.9.38-1.42.04-.24.08-.5.1-.86.52.06,1.2.22,1.62.3.16.04.2.1.2.22,0,.14-.04.18-.1.24-.12.1-.16.18-.2.32-.1.36-.24.78-.4,1.2h1.76c-.04-1.06-.04-2.18-.06-3.38-.02-1.34-.04-1.96-.16-2.8.74.02,1.12.06,1.82.14.2.02.34.1.34.22,0,.16-.06.28-.12.42-.1.24-.12.6-.12,1.96,0,1.24.02,2.4.04,3.44h.3c1.94,0,2.62-.02,2.74-.02.2,0,.22,0,.22.2v1.3c0,.22-.02.24-.22.24-.12,0-.8-.04-2.74-.04h-.26ZM125.35,219.61c-1.22,0-1.64.04-1.76.04-.2,0-.22-.02-.22-.22v-1.24c0-.2.02-.22.22-.22.12,0,.54.04,1.76.04h.1v-.64c0-.54-.02-1.04-.12-1.52.74.02,1.16.04,1.82.1.2.02.32.12.32.24,0,.08-.06.18-.12.3-.08.18-.08.48-.08.9v.62h.12c1.34,0,1.74-.04,1.86-.04.2,0,.22.02.22.22v1.24c0,.2-.02.22-.22.22-.12,0-.52-.04-1.86-.04h-2.04ZM125.31,226.09v1.06h2.12v-1.06h-2.12ZM127.43,229.71v-1.16h-2.12v1.16h2.12ZM133.39,217.25c.22-.12.3-.04.4.14.54.82.94,1.64,1.2,2.5.06.18.04.26-.14.36l-.98.52c-.28.14-.32.08-.4-.14-.36-1.06-.72-1.9-1.12-2.56-.1-.2-.08-.24.18-.38l.86-.44Z"/>
          <path class="cls-1" d="M147.13,229.77c0,.22-.12.32-.38.36-.26.04-.86.1-1.42.1-.18,0-.26-.12-.26-.32,0-.72,0-1.72.02-2.44-1.78.92-2.42,1.7-2.42,2.66,0,.84.68,1.38,2.78,1.38,1.84,0,3.44-.18,4.98-.4.18-.02.26.04.28.22.1.46.18,1.16.18,1.64.02.24-.06.38-.22.38-1.72.22-3.02.26-4.96.26-3.28,0-5.02-.98-5.02-3.3,0-1.92,1.2-3.32,4.22-4.88-.06-1.02-.3-1.42-1.2-1.38-.94.04-1.84.64-2.76,1.44-.86.84-1.36,1.42-2,2.18-.1.12-.16.18-.24.18-.06,0-.14-.06-.22-.14-.28-.28-.88-.9-1.14-1.32-.06-.08-.08-.14-.08-.18,0-.08.04-.14.14-.22,1.54-1.38,3.02-2.96,4.18-4.96-.94.04-2.02.06-3.2.06-.18,0-.24-.1-.28-.32-.06-.32-.14-1.06-.2-1.66,1.52.08,3.08.06,4.6-.02.22-.54.4-1.02.6-1.72.08-.34.14-.68.14-1.22.88.14,1.76.36,2.28.56.16.06.24.2.24.34,0,.1-.04.22-.14.3-.12.1-.24.28-.34.48-.12.28-.22.54-.46,1.08,1.22-.14,2.44-.34,3.64-.62.22-.04.28.02.32.2.1.4.18.86.2,1.44.02.2-.06.28-.34.32-1.5.22-3.22.44-4.68.6-.46.74-.9,1.48-1.5,2.22l.02.04c.64-.42,1.46-.62,2-.62,1.32,0,2.24.6,2.44,2.16.78-.36,1.92-.88,2.94-1.4.38-.2,1.02-.56,1.52-1.08.66.7,1.18,1.4,1.4,1.76.12.18.16.32.16.44,0,.16-.1.24-.3.28-.42.06-.82.16-1.22.3-1.3.46-2.6.9-4.3,1.6v3.22Z"/>
          <path class="cls-1" d="M159.55,217.23c.34.08.48.18.48.38,0,.22-.12.46-.2.66-.1.28-.18.9-.28,2.44-.2,3.08-.3,5.12-.3,7.74,0,2.02.24,2.48,1.84,2.48,1.78,0,4.56-1.08,7-3.68.08.76.26,1.42.46,1.9.1.22.16.36.16.48,0,.18-.08.34-.4.62-2.16,1.98-4.98,3-7.58,3s-3.76-1.02-3.76-4.08c0-3.36.18-6.24.28-8.64.04-1.18.1-2.46-.2-3.66.92.1,1.88.2,2.5.36Z"/>
          <path class="cls-1" d="M180.79,219.47c.22-.06.3.04.32.2.06.44.12,1.02.14,1.44.02.26-.04.32-.3.38-1.24.34-2.26.56-3.48.76-1.36,4.44-2.38,7.5-3.66,10.82-.1.28-.22.26-.44.2-.2-.08-1.18-.5-1.6-.74-.16-.1-.22-.26-.16-.4,1.52-3.5,2.48-6.14,3.46-9.48-1.16.12-2.56.22-3.5.22-.3,0-.38-.06-.42-.32-.08-.42-.18-1.1-.28-1.82.42.06.66.06,1.48.06,1,0,2.08-.06,3.24-.2.2-.8.36-1.68.5-2.5.08-.6.12-1.2.12-1.84,1.06.16,1.88.3,2.52.56.16.06.22.2.22.32,0,.08,0,.18-.1.32-.16.28-.32.48-.42.8-.2.72-.34,1.4-.48,1.9.78-.14,1.86-.4,2.84-.68ZM180.01,229.03c.2,0,.28.08.3.28.16,1.46,1.14,1.88,3.06,1.88,1.12,0,2.56-.18,3.36-.28.16-.02.22.02.24.18.08.52.16,1.2.16,1.74.02.24,0,.3-.32.32-.68.1-1.98.22-2.72.22-2.62,0-3.98-.36-4.88-1.3-.64-.64-.86-1.58-.9-2.74.62-.16,1.44-.3,1.7-.3ZM179.79,223.73c0-.28.06-.34.36-.4,1.26-.26,2.74-.46,3.9-.46.78,0,1.64.08,2.34.2.28.04.34.06.34.3.04.5.04,1.06.02,1.6,0,.34-.1.42-.38.36-.7-.14-1.62-.24-2.48-.24-1.2,0-2.72.2-4.02.46-.04-.7-.08-1.42-.08-1.82Z"/>
          <path class="cls-1" d="M195.55,218.95c.1-.6.2-1.38.2-2.22,1.04.22,1.6.36,2.4.66.2.06.32.22.32.4,0,.1-.04.2-.14.3-.2.26-.3.48-.4.76-.26.82-.46,1.56-.72,2.4.54-.06,1.14-.08,1.6-.08,1.86,0,2.86,1.3,2.86,3.86,0,2.16-.4,4.82-1.08,6.26-.58,1.28-1.54,1.88-2.7,1.88-.96,0-1.64-.1-2.08-.3-.24-.1-.36-.26-.36-.56-.06-.64-.1-1.2-.38-1.86.9.42,1.68.52,2.3.52.66,0,.96-.24,1.28-1.06.42-1.12.78-3.02.78-4.98,0-1.4-.26-1.84-1.14-1.84-.48,0-1.1.06-1.68.14-1.32,3.84-2.46,6.6-4.02,9.4-.12.26-.28.3-.52.18-.36-.18-1.14-.66-1.38-.88-.1-.1-.16-.18-.16-.3,0-.06.02-.14.08-.22,1.6-2.78,2.64-4.9,3.66-7.84-.78.12-1.42.24-1.96.34-.52.1-.84.22-1.1.32-.28.1-.52.06-.64-.26-.18-.46-.4-1.18-.62-2.06.88,0,1.76-.06,2.64-.14.84-.08,1.58-.18,2.36-.3.32-1.14.46-1.84.6-2.52ZM203.47,220.29c.14-.08.24-.04.38.1,1.36,1.28,2.58,2.94,3.32,4.86.08.18.06.28-.08.4-.34.32-1.1.8-1.5,1-.2.1-.4.08-.46-.16-.8-2.1-1.84-3.82-3.28-5.18.5-.34,1.08-.74,1.62-1.02ZM204.01,217.49c.1-.08.18-.06.3.04.62.48,1.34,1.28,1.9,2.14.08.12.08.22-.06.32l-.84.62c-.14.1-.24.08-.34-.06-.6-.92-1.24-1.68-2.02-2.32l1.06-.74ZM205.79,216.19c.12-.08.18-.06.3.04.74.56,1.46,1.36,1.9,2.06.08.12.1.24-.06.36l-.8.62c-.16.12-.26.06-.34-.06-.54-.86-1.18-1.62-2-2.3l1-.72Z"/>
          <path class="cls-1" d="M214.17,219.05v3.54c1.2,0,1.6-.04,1.72-.04.2,0,.22.02.22.22v1.48c0,.2-.02.22-.22.22-.12,0-.52-.04-1.72-.04v3.32c.76-.34,1.52-.7,2.22-1.1-.04.44-.02.9,0,1.32q.04.64-.48.92c-1.4.74-3.08,1.5-4.6,2.06-.32.12-.52.22-.62.28-.14.1-.2.14-.32.14-.1,0-.2-.06-.26-.24-.18-.52-.34-1.16-.5-1.88.6-.12,1.18-.28,1.88-.5.22-.06.44-.14.66-.22v-4.1c-1.3,0-1.72.04-1.84.04-.2,0-.22-.02-.22-.22v-1.48c0-.2.02-.22.22-.22.12,0,.54.04,1.84.04v-3.54h-.12c-1.4,0-1.84.04-1.96.04-.18,0-.2-.02-.2-.24v-1.46c0-.2.02-.22.2-.22.12,0,.56.04,1.96.04h2.22c1.4,0,1.82-.04,1.94-.04.2,0,.22.02.22.22v1.46c0,.22-.02.24-.22.24-.12,0-.54-.04-1.94-.04h-.08ZM223.97,231.29c0,.4.02.54.22.62.14.06.38.06.72.06.5,0,.8-.04,1.04-.24.28-.24.34-.88.4-2.3.46.36.92.52,1.3.64.46.14.5.2.46.7-.1,1.38-.36,2.12-.82,2.52-.46.4-1.24.6-2.48.6-1.02,0-1.7-.08-2.2-.3-.4-.18-.62-.64-.62-1.32v-4.54h-1.14c-.22,3.62-1.98,5.36-5.54,6.34-.2.06-.36.1-.44.1-.2,0-.28-.1-.52-.48-.3-.48-.6-.86-.92-1.12,3.44-.8,5.22-1.68,5.4-4.84-1.12.02-1.54.04-1.64.04-.2,0-.22-.02-.22-.22,0-.14.04-.86.04-2.44v-5.74c0-1.58-.04-2.32-.04-2.44,0-.22.02-.24.22-.24.12,0,.72.04,2.5.04h4.16c1.78,0,2.36-.04,2.5-.04.2,0,.22.02.22.24,0,.12-.04.86-.04,2.44v5.74c0,1.58.04,2.32.04,2.44,0,.2-.02.22-.22.22-.14,0-.72-.04-2.38-.04v3.56ZM218.99,218.53v1.4h5.54v-1.4h-5.54ZM224.53,222.95v-1.38h-5.54v1.38h5.54ZM224.53,224.61h-5.54v1.42h5.54v-1.42Z"/>
          <path class="cls-1" d="M232.67,226.85c-.46.4-.96.8-1.46,1.16-.24.18-.38.28-.5.28-.14,0-.24-.12-.42-.4-.3-.5-.66-.86-1-1.14,1.28-.78,2.4-1.66,3.34-2.64-.02-.4-.06-.76-.12-1.22.4.02.78.02,1.16.06.56-.72,1.04-1.48,1.44-2.3h-2.34c-1.8,0-2.42.04-2.54.04-.2,0-.22-.02-.22-.22v-1.52c0-.2.02-.22.22-.22.12,0,.74.04,2.54.04h3.14c.14-.42.26-.84.38-1.28.16-.6.22-1.08.22-1.62.84.1,1.48.2,2.1.32.24.06.34.18.34.32s-.08.26-.18.38c-.14.16-.24.36-.36.78-.1.38-.22.74-.34,1.1h6.74c1.8,0,2.4-.04,2.52-.04.2,0,.22.02.22.22v1.52c0,.2-.02.22-.22.22-.12,0-.72-.04-2.52-.04h-7.48c-.68,1.52-1.56,2.9-2.62,4.14-.02.3,0,.64,0,1.08v5.46c0,1.68.04,2.52.04,2.62,0,.2-.02.22-.22.22h-1.68c-.2,0-.22-.02-.22-.22,0-.12.04-.94.04-2.62v-4.48ZM238.41,233.41c-1.94,0-2.6.04-2.72.04-.2,0-.22-.02-.22-.22v-1.52c0-.2.02-.22.22-.22.12,0,.78.04,2.72.04h1.84v-4.3h-1.12c-1.82,0-2.44.04-2.56.04-.2,0-.22-.02-.22-.22v-1.48c0-.2.02-.22.22-.22.12,0,.74.04,2.56.04h1.12v-.58c0-1.42-.02-2.04-.14-3.02.76.02,1.44.06,2.12.14.2.02.32.12.32.2,0,.16-.06.26-.12.42-.1.24-.12.74-.12,2.22v.62h1.42c1.82,0,2.44-.04,2.56-.04.2,0,.22.02.22.22v1.48c0,.2-.02.22-.22.22-.12,0-.74-.04-2.56-.04h-1.42v4.3h2.28c1.92,0,2.58-.04,2.72-.04.18,0,.2.02.2.22v1.52c0,.2-.02.22-.2.22-.14,0-.8-.04-2.72-.04h-6.18Z"/>
          <path class="cls-1" d="M250.77,229.17c.14-.14.24-.16.3-.16s.14.02.26.12c1.48.92,2.8,2.12,3.98,3.66.12.16.14.22.14.3,0,.1-.04.18-.2.32l-1.22,1.04c-.14.12-.22.18-.28.18-.1,0-.18-.04-.28-.2-1.06-1.54-2.42-2.9-3.78-3.82-.12-.08-.18-.14-.18-.2s.04-.12.14-.24l1.12-1Z"/>
          <path class="cls-1" d="M75.36,271.01c-1.74,0-2.34.04-2.44.04-.2,0-.22-.02-.22-.22v-1.28c0-.2.02-.22.22-.22.1,0,.7.04,2.44.04h1.06v-1.32h-.44c-1.52,0-2.06.04-2.18.04-.2,0-.22-.02-.22-.2,0-.14.04-.66.04-1.88v-3.1c0-1.2-.04-1.74-.04-1.86,0-.2.02-.22.22-.22.12,0,.66.04,2.18.04h.46v-1.28h-1c-1.68,0-2.26.04-2.38.04-.18,0-.2-.02-.2-.22v-1.3c0-.18.02-.2.2-.2.12,0,.7.04,2.38.04h1c0-.86-.04-1.42-.14-2.06.72.02,1.36.06,1.94.14.22.04.32.1.32.2,0,.12-.04.22-.1.36-.08.18-.14.44-.14,1.3v.06h.84c1.7,0,2.26-.04,2.38-.04.2,0,.22.02.22.2v1.3c0,.2-.02.22-.22.22-.12,0-.68-.04-2.38-.04h-.84v1.28h.5c1.52,0,2.04-.04,2.16-.04.2,0,.22.02.22.22,0,.12-.04.66-.04,1.86v3.1c0,1.22.04,1.76.04,1.88,0,.18-.02.2-.22.2-.12,0-.64-.04-2.16-.04h-.52v1.32h.66c1.74,0,2.32-.04,2.44-.04.2,0,.22.02.22.22v1.28c0,.2-.02.22-.22.22-.12,0-.7-.04-2.44-.04h-.66c0,1.88.04,2.9.04,2.98,0,.2-.02.22-.22.22h-1.52c-.2,0-.22-.02-.22-.22,0-.1.02-1.12.04-2.98h-1.06ZM76.53,263.75v-1.44h-1.22v1.44h1.22ZM76.53,266.61v-1.5h-1.22v1.5h1.22ZM78.25,262.31v1.44h1.26v-1.44h-1.26ZM79.51,265.11h-1.26v1.5h1.26v-1.5ZM88.27,262.89c1.72,0,2.3-.04,2.42-.04.2,0,.22.02.22.22v1.48c0,.22-.02.24-.22.24-.12,0-.7-.04-2.42-.04h-1.92c-.58,2.36-1.18,4.44-1.84,6.38,1.24-.16,2.48-.34,3.66-.54-.42-1.1-.88-2.14-1.38-3.12-.1-.2-.06-.26.18-.36l1.18-.42c.26-.08.28-.1.38.08,1.12,2.02,1.82,3.86,2.58,6.2.06.2.04.24-.22.34l-1.32.44c-.28.1-.34.1-.4-.12-.12-.44-.26-.9-.4-1.32-2.04.38-4,.7-6.02.96-.42.06-.64.12-.74.18-.14.08-.22.12-.32.12-.14,0-.24-.08-.3-.26-.2-.62-.36-1.3-.48-1.92.56.02,1.02,0,1.48-.04.74-2.22,1.36-4.44,1.84-6.6-1.52,0-2.08.04-2.18.04-.22,0-.24-.02-.24-.24v-1.48c0-.2.02-.22.24-.22.12,0,.7.04,2.42.04h3.8ZM87.85,257.59c1.54,0,2.06-.04,2.18-.04.22,0,.24.02.24.24v1.5c0,.2-.02.22-.24.22-.12,0-.64-.04-2.18-.04h-2.92c-1.56,0-2.06.04-2.18.04-.22,0-.24-.02-.24-.22v-1.5c0-.22.02-.24.24-.24.12,0,.62.04,2.18.04h2.92Z"/>
          <path class="cls-1" d="M93.42,258.53c-.38,0-.54.02-.6.02-.2,0-.22-.02-.22-.22v-1.4c0-.2.02-.22.22-.22.12,0,.54.04,1.96.04h2.16c1.4,0,1.84-.04,1.96-.04.18,0,.2.02.2.22v1.4c0,.2-.02.22-.2.22-.06,0-.2,0-.46-.02v13.36c0,1.36.04,1.98.04,2.1,0,.2-.02.22-.24.22h-1.34c-.2,0-.22-.02-.22-.22,0-.12.04-.74.04-2.1v-1.16c-.96.32-1.92.62-2.72.86-.38.1-.56.18-.66.24-.12.08-.22.14-.32.14s-.18-.04-.24-.26c-.14-.54-.28-1.26-.38-1.92.4-.02.7-.08,1.02-.12v-11.14ZM96.73,260.75v-2.24h-1.6v2.24h1.6ZM96.73,264.73v-2.26h-1.6v2.26h1.6ZM96.73,266.45h-1.6v2.82c.52-.14,1.04-.3,1.6-.48v-2.34ZM107.77,263.83c.06,1.44.16,2.68.3,3.72.24-.46.46-.94.66-1.44.18-.5.3-.94.4-1.52.48.22,1.08.56,1.48.88.16.14.24.22.24.36s-.08.24-.22.38c-.12.12-.26.4-.42.8-.44,1.04-1,2.06-1.64,2.98.3,1.26.54,1.6.88,1.6.26,0,.4-.54.62-2.36.26.34.62.56,1.06.8.3.16.34.22.24.8-.32,2.28-1.02,3-1.88,3-.76,0-1.56-.64-2.2-2.22-.86.94-1.82,1.76-2.82,2.42-.2.14-.34.22-.44.22-.16,0-.28-.16-.46-.52-.22-.42-.52-.74-.74-.92.64-.36,1.22-.76,1.78-1.2h-1.06c-.2,0-.22-.02-.22-.22v-.24h-2.12v1.12c0,.2-.02.22-.22.22h-1.22c-.2,0-.22-.02-.22-.22,0-.14.04-.64.04-3.32v-1.76c0-1.68-.04-2.24-.04-2.38,0-.2.02-.22.22-.22.14,0,.5.04,1.68.04h1.66c1.18,0,1.54-.04,1.68-.04.18,0,.2.02.2.22,0,.12-.04.66-.04,1.9v1.82c0,1.98.02,2.6.04,2.8.62-.52,1.18-1.1,1.7-1.72-.06-.22-.1-.46-.14-.7-.26-1.36-.42-3.06-.5-5.08h-4.68c-1.54,0-2.22.04-2.36.04-.18,0-.2-.02-.2-.24v-1.3c0-.2.02-.2.2-.2.1,0,.52.02,1.32.02-.14-.58-.36-1.16-.54-1.64-.1-.22-.06-.3.2-.36l.96-.24c.26-.06.28-.02.36.16.22.58.46,1.42.6,2.08h.72c.16-.46.28-.9.38-1.42.04-.24.08-.5.1-.86.52.06,1.2.22,1.62.3.16.04.2.1.2.22,0,.14-.04.18-.1.24-.12.1-.16.18-.2.32-.1.36-.24.78-.4,1.2h1.76c-.04-1.06-.04-2.18-.06-3.38-.02-1.34-.04-1.96-.16-2.8.74.02,1.12.06,1.82.14.2.02.34.1.34.22,0,.16-.06.28-.12.42-.1.24-.12.6-.12,1.96,0,1.24.02,2.4.04,3.44h.3c1.94,0,2.62-.02,2.74-.02.2,0,.22,0,.22.2v1.3c0,.22-.02.24-.22.24-.12,0-.8-.04-2.74-.04h-.26ZM101.25,259.61c-1.22,0-1.64.04-1.76.04-.2,0-.22-.02-.22-.22v-1.24c0-.2.02-.22.22-.22.12,0,.54.04,1.76.04h.1v-.64c0-.54-.02-1.04-.12-1.52.74.02,1.16.04,1.82.1.2.02.32.12.32.24,0,.08-.06.18-.12.3-.08.18-.08.48-.08.9v.62h.12c1.34,0,1.74-.04,1.86-.04.2,0,.22.02.22.22v1.24c0,.2-.02.22-.22.22-.12,0-.52-.04-1.86-.04h-2.04ZM101.21,266.09v1.06h2.12v-1.06h-2.12ZM103.33,269.71v-1.16h-2.12v1.16h2.12ZM109.29,257.25c.22-.12.3-.04.4.14.54.82.94,1.64,1.2,2.5.06.18.04.26-.14.36l-.98.52c-.28.14-.32.08-.4-.14-.36-1.06-.72-1.9-1.12-2.56-.1-.2-.08-.24.18-.38l.86-.44Z"/>
          <path class="cls-1" d="M123.03,269.77c0,.22-.12.32-.38.36-.26.04-.86.1-1.42.1-.18,0-.26-.12-.26-.32,0-.72,0-1.72.02-2.44-1.78.92-2.42,1.7-2.42,2.66,0,.84.68,1.38,2.78,1.38,1.84,0,3.44-.18,4.98-.4.18-.02.26.04.28.22.1.46.18,1.16.18,1.64.02.24-.06.38-.22.38-1.72.22-3.02.26-4.96.26-3.28,0-5.02-.98-5.02-3.3,0-1.92,1.2-3.32,4.22-4.88-.06-1.02-.3-1.42-1.2-1.38-.94.04-1.84.64-2.76,1.44-.86.84-1.36,1.42-2,2.18-.1.12-.16.18-.24.18-.06,0-.14-.06-.22-.14-.28-.28-.88-.9-1.14-1.32-.06-.08-.08-.14-.08-.18,0-.08.04-.14.14-.22,1.54-1.38,3.02-2.96,4.18-4.96-.94.04-2.02.06-3.2.06-.18,0-.24-.1-.28-.32-.06-.32-.14-1.06-.2-1.66,1.52.08,3.08.06,4.6-.02.22-.54.4-1.02.6-1.72.08-.34.14-.68.14-1.22.88.14,1.76.36,2.28.56.16.06.24.2.24.34,0,.1-.04.22-.14.3-.12.1-.24.28-.34.48-.12.28-.22.54-.46,1.08,1.22-.14,2.44-.34,3.64-.62.22-.04.28.02.32.2.1.4.18.86.2,1.44.02.2-.06.28-.34.32-1.5.22-3.22.44-4.68.6-.46.74-.9,1.48-1.5,2.22l.02.04c.64-.42,1.46-.62,2-.62,1.32,0,2.24.6,2.44,2.16.78-.36,1.92-.88,2.94-1.4.38-.2,1.02-.56,1.52-1.08.66.7,1.18,1.4,1.4,1.76.12.18.16.32.16.44,0,.16-.1.24-.3.28-.42.06-.82.16-1.22.3-1.3.46-2.6.9-4.3,1.6v3.22Z"/>
          <path class="cls-1" d="M133.89,263.29c-1.76,0-2.36.04-2.48.04-.2,0-.22-.02-.22-.22v-1.42c0-.2.02-.22.22-.22.12,0,.72.04,2.48.04h4.28v-1.56h-1.84c-1.82,0-2.44.04-2.56.04-.2,0-.22-.02-.22-.22v-1.42c0-.2.02-.22.22-.22.12,0,.74.04,2.56.04h1.84v-.14c0-.82-.02-1.44-.14-2.08.76.02,1.38.06,2.08.14.2.02.32.1.32.2,0,.14-.06.26-.12.42-.1.24-.12.64-.12,1.36v.1h.64c1.82,0,2.42-.04,2.54-.04.2,0,.22.02.22.22v1.32c.4-.44.8-.9,1.2-1.4.42-.54.64-.9.9-1.48.74.36,1.34.7,1.76,1,.18.12.26.26.26.38s-.1.2-.22.26c-.32.14-.52.34-.84.74-.72.84-1.46,1.62-2.24,2.34h1.94c1.76,0,2.38-.04,2.5-.04.18,0,.2.02.2.22v1.42c0,.2-.02.22-.2.22-.12,0-.74-.04-2.5-.04h-3.98c-.98.76-2.02,1.42-3.08,2.04,0,.04-.02.08-.04.12,1.6-.18,2.84-.38,3.94-.64.92-.22,1.34-.34,2-.6.56.36,1.06.78,1.44,1.14.16.14.22.26.22.38s-.1.24-.34.24c-.32,0-.76.04-1.12.12-2.02.44-4.18.78-6.68,1-.06.2-.14.4-.22.6h5.32c1.68,0,2.22-.04,2.34-.04.2,0,.28.06.26.26-.04.54-.08,1.2-.14,1.72-.22,1.86-.5,2.96-.88,3.56-.4.6-1.18.9-2.22.9-.48,0-.94,0-1.54-.06-.64-.02-.62-.04-.76-.66-.14-.58-.36-1.08-.62-1.46.88.1,1.62.2,2.34.2.6,0,.94-.08,1.08-.38.26-.46.42-1.34.48-2.32h-6.34c-.2.44-.38.86-.58,1.24-.08.18-.12.2-.36.16l-1.6-.28c-.26-.06-.28-.12-.18-.3.68-1.18,1.26-2.38,1.7-3.58-1.34.64-2.74,1.24-4.22,1.8-.22.1-.36.16-.46.16-.16,0-.22-.14-.42-.5-.26-.46-.58-.92-.88-1.22,3.32-.98,6.12-2.12,8.5-3.6h-5.42ZM141.63,261.51c.58-.48,1.12-.98,1.64-1.52-.22,0-.86-.04-2.44-.04h-.64v1.56h1.44Z"/>
          <path class="cls-1" d="M156.77,262.03c1.54-.24,2.66-.46,3.48-.64.34-.1.54-.16.8-.32.18-.1.26-.14.44-.14.12,0,.18.04.34.14.36.22.82.6,1.18,1.06.14.14.22.34.22.46,0,.18-.12.34-.36.46-.28.14-.42.28-.64.46-1.48,1.4-2.3,2.24-3.64,3.68.26-.08.52-.1.72-.1.94,0,1.84.6,2.18,2.02.4,1.64.72,1.96,2.2,1.96,1.18,0,2.12-.14,3.1-.36.22-.04.32.08.36.3.08.42.14,1.1.14,1.76,0,.2-.1.28-.36.32-.88.16-1.98.26-2.94.26-2.94,0-3.9-.78-4.32-2.76-.32-1.36-.56-1.92-1.26-1.92-.52,0-1.14.28-1.88,1-.9.92-2.36,2.68-3.04,3.52-.06.08-.16.14-.28.14-.06,0-.14-.02-.22-.08-.52-.36-1.04-.86-1.4-1.22-.06-.06-.1-.14-.1-.2,0-.1.06-.22.16-.32,1.28-1.3,2.5-2.54,3.78-3.84.78-.8,1.82-1.96,3.96-4.26-1.5.4-2.84.72-4.16,1.06-.62.18-.92.28-1.08.36-.16.08-.28.12-.42.12s-.24-.1-.34-.34c-.26-.5-.5-1.24-.8-2.24,1.72,0,2.52-.08,4.18-.34ZM162.35,257.75c.2.04.28.16.22.44-.12.48-.36,1.24-.54,1.64-.06.16-.18.26-.34.22-1.76-.34-4.1-1.04-5.58-1.68-.12-.04-.24-.14-.18-.36.12-.46.38-1.12.68-1.86,2,.74,3.82,1.22,5.74,1.6Z"/>
          <path class="cls-1" d="M178.51,260.55c-2.44.46-4.58.88-6.72,1.32-.76.18-.96.22-1.26.32-.14.06-.28.16-.44.16-.14,0-.3-.12-.38-.3-.26-.54-.48-1.24-.74-2.16,1.02-.04,1.62-.12,3.18-.34,2.46-.36,6.86-1.02,12.02-1.7.3-.04.4.08.42.22.1.46.2,1.2.22,1.76,0,.24-.12.3-.38.3-.94.06-1.58.16-2.44.44-3.4,1.16-5.1,3.5-5.1,5.9,0,2.58,1.84,3.98,5.32,4.2.32,0,.44.08.44.3,0,.52-.08,1.22-.22,1.72-.06.3-.14.42-.38.42-3.52,0-7.38-2.02-7.38-6.18,0-2.84,1.42-4.76,3.84-6.34v-.04Z"/>
          <path class="cls-1" d="M190.71,259.41c.18.08.32.22.32.36,0,.12-.06.32-.16.56-.08.24-.18,1.1-.18,1.96,0,1.28.04,2.72.36,4.56.28,1.58.8,2.94,1.64,2.94.64,0,1.14-.7,1.92-2.78.44.7.88,1.16,1.28,1.54.24.22.24.46.14.74-.76,2.04-2,3.12-3.4,3.12-1.56,0-3.2-1.84-3.74-5.22-.32-1.9-.48-3.98-.48-5.82,0-1.1-.04-1.7-.24-2.62.96.12,1.94.36,2.54.66ZM199.99,260.67c.08-.04.16-.08.22-.08.08,0,.14.04.22.12,1.82,1.58,3.42,4.34,3.92,6.84.06.26-.06.34-.22.44-.52.34-1.02.62-1.56.8-.24.08-.38.02-.42-.22-.68-2.86-1.7-4.94-3.74-6.98.76-.48,1.26-.76,1.58-.92Z"/>
          <path class="cls-1" d="M213.09,264.27c1.12-.64,2.06-.9,3.18-.9,2.92,0,4.96,1.92,4.96,4.8,0,3.34-2.7,5.48-6.98,5.48-2.52,0-4.04-1.08-4.04-2.94,0-1.34,1.26-2.44,2.82-2.44,1.88,0,3.26,1,3.76,2.92,1.4-.64,2.04-1.52,2.04-3.04,0-1.82-1.28-3.02-3.14-3.02-1.66,0-3.5.74-5.12,2.12-.58.52-1.14,1.1-1.74,1.7-.14.14-.24.22-.34.22-.08,0-.18-.06-.3-.18-.42-.36-.86-.88-1.18-1.3-.12-.16-.06-.3.1-.46,1.56-1.26,2.94-2.54,4.74-4.42,1.24-1.28,2.18-2.28,3.1-3.42-1.2.22-2.62.5-3.86.76-.26.06-.52.12-.84.24-.1.04-.3.1-.4.1-.2,0-.34-.1-.44-.34-.24-.46-.42-1.02-.7-2.16.6.08,1.26.08,1.86.04,1.22-.12,2.98-.38,4.54-.68.5-.1.9-.2,1.1-.3.1-.06.28-.16.38-.16.2,0,.32.06.46.16.6.46,1,.86,1.34,1.28.16.18.22.32.22.48,0,.2-.12.38-.34.48-.34.16-.5.3-.88.64-1.46,1.42-2.8,2.82-4.32,4.28l.02.06ZM213.11,269.97c-.58,0-.96.34-.96.76,0,.62.54,1.04,1.74,1.04.36,0,.62-.02.92-.08-.26-1.1-.86-1.72-1.7-1.72Z"/>
          <path class="cls-1" d="M226.77,261.27c-1.78,0-2.38.04-2.52.04-.2,0-.22-.02-.22-.24v-1.62c0-.22.02-.24.22-.24.14,0,.74.04,2.52.04h4.9v-1.3c0-.86-.04-1.48-.14-1.96.72,0,1.5.04,2.18.1.2.02.32.1.32.22,0,.14-.06.26-.12.42-.08.16-.12.42-.12,1.16v1.36h5.26c1.8,0,2.4-.04,2.52-.04.18,0,.2.02.2.24v1.62c0,.22-.02.24-.2.24-.12,0-.72-.04-2.52-.04h-6.92c-.02.88-.08,1.7-.16,2.46h4.9c1.68,0,2.24-.04,2.36-.04.2,0,.24.06.24.28-.04.52-.06,1.06-.08,1.56-.16,2.98-.4,4.84-.66,5.94-.44,1.9-1.22,2.48-3.22,2.48-.36,0-.92,0-1.58-.04-.56-.04-.56-.08-.64-.72-.08-.62-.24-1.2-.44-1.54,1.04.14,1.94.18,2.46.18.66,0,1-.32,1.18-1,.3-1,.52-2.84.62-5.08h-5.44c-.76,3.7-2.46,6.04-5.86,8.06-.26.14-.38.22-.48.22-.14,0-.22-.14-.4-.44-.32-.5-.74-.9-1.2-1.22,4.6-2.26,6.1-5.02,6.14-11.1h-3.1Z"/>
        </g>
      </g>
      <g>
        <g>
          <rect class="cls-3" y="17.69" width="315.09" height="127.59"/>
          <polygon class="cls-3" points="325.79 155.83 9.91 155.83 9.91 154.24 324.21 154.24 324.21 22.1 325.79 22.1 325.79 155.83"/>
          <g>
            <path class="cls-2" d="M20.33,12.33h5.61v10.68h-11.15v-10.68L20.56,0h4.98l-5.22,12.33ZM35.9,12.33h5.61v10.68h-11.15v-10.68L36.14,0h4.98l-5.22,12.33Z"/>
            <path class="cls-2" d="M304.67,151.09h-5.61v-10.68h11.15v10.68l-5.77,12.33h-4.98l5.22-12.33ZM289.1,151.09h-5.61v-10.68h11.15v10.68l-5.77,12.33h-4.98l5.22-12.33Z"/>
          </g>
        </g>
        <g>
          <path class="cls-1" d="M60.8,69.47c-.2,0-.22-.02-.22-.22,0-.14.04-1.48.04-7.68v-3.98c0-3.96-.04-5.36-.04-5.48,0-.2.02-.22.22-.22.14,0,.8.04,2.66.04h10.86c1.86,0,2.52-.04,2.66-.04.2,0,.22.02.22.22,0,.12-.04,1.52-.04,4.8v4.64c0,6.2.04,7.56.04,7.68,0,.2-.02.22-.22.22h-1.72c-.2,0-.22-.02-.22-.22v-.94h-12.32v.96c0,.2-.02.22-.22.22h-1.7ZM62.72,66.43h12.32v-12.62h-12.32v12.62ZM70.81,58.97c1.6,0,2.16-.04,2.28-.04.2,0,.22.02.22.22v1.32c0,.2-.02.22-.22.22-.12,0-.68-.04-2.28-.04h-1.04v2.66h1.64c1.86,0,2.46-.04,2.58-.04.22,0,.24.02.24.22v1.38c0,.2-.02.22-.24.22-.12,0-.72-.04-2.58-.04h-5.04c-1.86,0-2.46.04-2.58.04-.22,0-.24-.02-.24-.22v-1.38c0-.2.02-.22.24-.22.12,0,.72.04,2.58.04h1.38v-2.66h-.78c-1.64,0-2.2.04-2.32.04-.2,0-.22-.02-.22-.22v-1.32c0-.2.02-.22.22-.22.12,0,.68.04,2.32.04h.78v-2.1h-1.16c-1.8,0-2.42.04-2.54.04-.18,0-.2-.02-.2-.22v-1.34c0-.2.02-.22.2-.22.12,0,.74.04,2.54.04h4.64c1.82,0,2.44-.04,2.56-.04.18,0,.2.02.2.22v1.34c0,.2-.02.22-.2.22-.12,0-.74-.04-2.56-.04h-1.46v2.1h1.04ZM72.01,60.81c.2-.1.24-.06.4.12.36.42.64.82.98,1.44.08.16.08.2-.16.32l-.86.46c-.26.14-.3.08-.4-.14-.2-.46-.58-1.1-.92-1.48-.14-.16-.06-.18.16-.3l.8-.42Z"/>
          <path class="cls-1" d="M89.79,57.61c-.46.34-.92.64-1.36.9,1.78,2.18,2.62,4.62,2.62,7.08,0,2.8-.68,3.74-3.02,3.74-.34,0-.68,0-1.04-.04q-.54-.04-.64-.54c-.14-.58-.32-1.08-.58-1.44.88.1,1.66.12,2.08.12.84,0,1.22-.24,1.22-1.92,0-.36-.02-.74-.06-1.08-2.36,1.8-4.68,3.02-7.46,4.06-.24.08-.38.14-.48.14-.16,0-.24-.12-.4-.44-.3-.56-.52-.8-.94-1.16,3.58-1.04,6.32-2.4,8.88-4.42-.12-.32-.24-.64-.4-.96-1.94,1.28-3.98,2.2-6.32,3.02-.24.08-.38.14-.48.14-.14,0-.22-.12-.38-.42-.26-.46-.56-.82-.88-1.12,3.06-.68,5.12-1.62,7.28-3-.18-.28-.36-.56-.58-.84-1.38.72-2.74,1.26-4.3,1.74-.58.16-.6.14-.82-.24-.32-.6-.52-.82-.92-1.18,2.64-.56,4.58-1.24,6.26-2.14h-1.04c-1.9,0-2.56.04-2.68.04-.22,0-.24-.02-.24-.24v-1.26c0-.22.02-.24.24-.24.12,0,.78.04,2.68.04h5.68c1.92,0,2.58-.04,2.7-.04.2,0,.22.02.22.24v1.26c0,.22-.02.24-.22.24-.12,0-.78-.04-2.64-.04.26,1.08.58,2.06.98,2.94.38-.36.76-.74,1.24-1.3.34-.38.64-.84.86-1.2.62.42,1.06.76,1.46,1.12.22.16.3.28.3.4,0,.16-.14.26-.26.3-.26.1-.46.38-.88.8-.6.58-1.22,1.14-1.8,1.6,1.08,1.66,2.54,3,4.5,4.14-.42.42-.78.82-1.08,1.38-.18.32-.26.46-.4.46-.08,0-.2-.1-.42-.24-3.38-2.48-5.22-5.86-6.38-10.4h-.1ZM94.45,52.77c1.84,0,2.5-.04,2.64-.04.2,0,.22.02.22.22,0,.12-.04.46-.04.96v.82c0,1.7.04,2.02.04,2.14,0,.2-.02.22-.22.22h-1.64c-.2,0-.22-.02-.22-.22v-2.36h-12.72v2.36c0,.2-.02.22-.22.22h-1.64c-.2,0-.22-.02-.22-.22,0-.12.04-.44.04-2.14v-.66c0-.66-.04-.98-.04-1.12,0-.2.02-.22.22-.22.14,0,.8.04,2.64.04h4.38v-.04c0-.66-.02-1.2-.14-1.7.72.02,1.46.06,2.16.12.2.02.3.1.3.18,0,.14-.06.24-.12.4-.06.16-.1.42-.1,1v.04h4.68Z"/>
          <path class="cls-1" d="M104.23,54.63c1.52,0,2.02-.04,2.12-.04.2,0,.22.02.22.22v1.42c0,.22-.02.24-.22.24-.1,0-.6-.04-2.12-.04h-2.04c-1.54,0-2.02.04-2.14.04-.2,0-.22-.02-.22-.24v-1.42c0-.2.02-.22.22-.22.12,0,.6.04,2.14.04h2.04ZM106.19,65.99c0,2.32.04,2.76.04,2.88,0,.2-.02.22-.22.22h-1.46c-.2,0-.22-.02-.22-.22v-.54h-1.82v.9c0,.2-.02.22-.22.22h-1.44c-.22,0-.24-.02-.24-.22,0-.12.04-.58.04-3v-1.28c0-1.26-.04-1.74-.04-1.88,0-.2.02-.22.24-.22.12,0,.54.04,1.82.04h1.5c1.28,0,1.7-.04,1.84-.04.2,0,.22.02.22.22,0,.12-.04.6-.04,1.54v1.38ZM104.23,51.89c1.28,0,1.68-.04,1.8-.04.22,0,.22.02.22.22v1.32c0,.2,0,.22-.22.22-.12,0-.52-.04-1.8-.04h-1.54c-1.3,0-1.7.04-1.82.04-.2,0-.22-.02-.22-.22v-1.32c0-.2.02-.22.22-.22.12,0,.52.04,1.82.04h1.54ZM104.13,57.47c1.2,0,1.56-.04,1.68-.04.22,0,.24.02.24.22v1.3c0,.2-.02.22-.24.22-.12,0-.48-.04-1.68-.04h-1.42c-1.22,0-1.58.04-1.7.04-.2,0-.22-.02-.22-.22v-1.3c0-.2.02-.22.22-.22.12,0,.48.04,1.7.04h1.42ZM104.13,60.17c1.2,0,1.56-.04,1.68-.04.22,0,.24.02.24.22v1.28c0,.2-.02.22-.24.22-.12,0-.48-.04-1.68-.04h-1.42c-1.22,0-1.58.04-1.7.04-.2,0-.22-.02-.22-.22v-1.28c0-.2.02-.22.22-.22.12,0,.48.04,1.7.04h1.42ZM102.5,64.55v2.14h1.82v-2.14h-1.82ZM110.15,58.83c1.12,0,1.44-.04,1.56-.04.22,0,.24.02.24.24v1.38c0,.22-.02.24-.24.24-.12,0-.4-.02-1.24-.04v4c.72-.22,1.46-.46,2.22-.74-.04.3-.06.74-.08,1.16q0,.64-.58.86c-1.4.54-2.7.96-3.94,1.32-.4.08-.52.16-.64.24-.1.08-.2.12-.28.12-.12,0-.2-.08-.26-.26-.12-.4-.3-1.16-.42-1.84.64-.06,1.2-.16,1.76-.28l.32-.06v-4.52c-1.02,0-1.32.04-1.44.04-.2,0-.22-.02-.22-.24v-1.38c0-.22.02-.24.22-.24.12,0,.44.04,1.56.04h1.46ZM109.97,56.67c-1.88,0-2.52.04-2.64.04-.2,0-.22-.02-.22-.24v-1.52c0-.2.02-.22.22-.22.12,0,.76.04,2.64.04h2.48v-.74c-.02-1.34-.02-1.96-.14-2.86.8.02,1.34.06,2.04.14.2.04.34.12.34.22,0,.14-.06.26-.12.4-.12.24-.14.44-.14,1.54v1.3h.62c1.86,0,2.5-.04,2.62-.04.2,0,.22.02.22.22v1.52c0,.22-.02.24-.22.24-.12,0-.76-.04-2.62-.04h-.56c.1,2.86.36,5.3.8,7.44.3,1.46.7,2.32,1.04,2.32.3,0,.5-.7.58-2.66.38.28.78.5,1.12.64.58.24.54.32.48.94-.28,2.68-.92,3.62-2.06,3.62s-2.28-.98-3.06-4.18c-.52-2.14-.8-5.02-.9-8.12h-2.52ZM116.13,51.67c.24-.12.28-.1.42.08.46.62.78,1.2,1.12,1.96.08.18.02.26-.24.38l-.94.44c-.28.14-.3.1-.36-.1-.3-.78-.64-1.4-1.08-2.02-.12-.18-.08-.24.16-.34l.92-.4Z"/>
          <path class="cls-1" d="M121.28,63.05c.26.08.28.1.28.32-.08,1.74-.22,3.2-.72,4.58-.04.12-.06.16-.12.16-.04,0-.12-.02-.22-.1l-.6-.4c-.24-.16-.26-.22-.2-.44.42-1.14.58-2.52.68-4.14q.02-.24.3-.16l.6.18ZM133.57,57.39v1.32h.9c1.68,0,2.26-.04,2.4-.04.2,0,.22.02.22.22,0,.14-.04.52-.04,1.52v1.76c0,1,.04,1.4.04,1.52,0,.2-.02.22-.22.22-.14,0-.72-.04-2.4-.04h-.6c.96,1.58,2.6,2.78,4.6,3.5-.32.32-.7.86-.96,1.38-.18.34-.24.46-.38.46-.1,0-.22-.08-.46-.2-1.74-1.04-3.08-2.4-3.94-3.9-.76,1.7-2.32,3.06-4.08,4.02-.24.14-.38.22-.48.22-.14,0-.24-.14-.44-.42-.24-.36-.52-.66-.78-.88-.32.84-1.02,1.18-1.84,1.18-.28,0-.6,0-.9-.04q-.32-.04-.42-.64c-.1-.5-.24-.92-.4-1.3.58.08,1.02.14,1.36.14.48,0,.72-.12.9-.48.24-.5.36-1.82.44-4.84h-3.36c-1.34,0-1.84.04-2.04.04s-.22-.02-.22-.22c0-.14.04-.86.04-2.46v-5c0-1.58-.04-2.34-.04-2.46,0-.2.02-.22.22-.22s.7.04,2.04.04h2.96c1.22,0,1.78-.04,1.9-.04.22,0,.24.02.24.22v1.28c0,.18-.02.2-.24.2-.12,0-.68-.04-1.9-.04h-.28v1.4c1.02,0,1.4-.04,1.5-.04.2,0,.22.02.22.22v.88c1.7-.82,3.18-2.18,4.14-3.7.26-.42.44-.76.58-1.22.64.1,1.2.22,1.78.34.16.06.26.12.26.26,0,.12-.04.2-.18.28l-.14.1c1.18,1.62,2.82,2.88,5.04,3.72-.24.28-.48.86-.64,1.44-.1.34-.16.5-.3.5-.1,0-.26-.08-.48-.2-.54-.28-1.06-.6-1.54-.96v.8c0,.18-.02.2-.22.2-.14,0-.5-.04-1.78-.04h-.08ZM122.48,62.99c.26-.06.28-.04.3.14.18,1.2.3,2.4.36,3.62,0,.18-.02.26-.24.34l-.54.16c-.24.08-.28.1-.28-.1,0-1.34-.06-2.56-.22-3.78-.04-.2-.04-.24.18-.28l.44-.1ZM123.74,54.81v-1.4h-1.54v1.4h1.54ZM123.74,57.63v-1.36h-1.54v1.36h1.54ZM123.74,60.53v-1.42h-1.54v1.42h1.54ZM123.76,62.89c.2-.04.24-.06.28.12.2.9.38,1.98.48,2.96.02.18,0,.24-.2.32l-.4.16c-.22.08-.26.1-.28-.12-.1-1.1-.26-2.14-.46-3.08-.04-.18-.04-.2.18-.26l.4-.1ZM124.91,62.63c.18-.08.22-.06.26.08.24.66.46,1.4.58,2.14.02.16,0,.2-.16.28l-.38.18c-.18.1-.24.08-.26-.08-.12-.76-.3-1.56-.52-2.22q-.04-.14.12-.22l.36-.16ZM125.75,60.53c1.2,0,1.56-.04,1.68-.04.2,0,.24.04.24.26-.04.48-.06,1-.06,1.4-.1,2.92-.28,4.54-.56,5.6,1.82-.78,3.28-1.94,4.06-3.52l.16-.36h-.36c-1.68,0-2.26.04-2.4.04-.2,0-.22-.02-.22-.22,0-.14.04-.52.04-1.52v-1.76c0-1-.04-1.38-.04-1.52,0-.2.02-.22.22-.22.14,0,.72.04,2.4.04h.82v-1.32c-1.22,0-1.58.04-1.68.04-.2,0-.22-.02-.22-.2v-.72c-.48.38-.96.72-1.46,1-.22.12-.36.2-.46.2-.12,0-.2-.14-.34-.48-.14-.3-.34-.64-.52-.92h-.14c-.1,0-.48-.02-1.5-.04v1.36c1.02,0,1.4-.04,1.5-.04.2,0,.22.02.22.24v1.1c0,.2-.02.22-.22.22-.1,0-.48-.02-1.5-.04v1.42h.34ZM130.11,60.19v2.22h1.48c.08-.6.1-1.34.12-2.22h-1.6ZM134.93,55.89c-.9-.74-1.68-1.58-2.28-2.44-.58.88-1.3,1.7-2.08,2.44h4.36ZM135.27,62.41v-2.22h-1.74c-.02.86-.04,1.58-.12,2.22h1.86Z"/>
          <path class="cls-1" d="M141.84,63.79c0-.62.02-1.48.04-2.22-.36.36-.72.7-1.08,1-.22.16-.36.26-.46.26s-.18-.12-.26-.4c-.16-.56-.44-1.14-.68-1.44,1.56-1.24,3.04-2.88,4.04-4.44.2-.3.4-.68.52-1.06.54.28,1.04.6,1.48.92.18.14.26.22.26.36,0,.1-.04.16-.14.22-.16.1-.28.24-.44.48-.4.64-.84,1.28-1.3,1.88v7.38c0,1.6.04,2.36.04,2.46,0,.2-.02.22-.22.22h-1.64c-.18,0-.2-.02-.2-.22,0-.12.04-.86.04-2.46v-2.94ZM145.33,52.03c.18.12.28.22.28.36s-.12.22-.32.34c-.14.08-.32.24-.54.54-.92,1.14-2.02,2.28-3.44,3.32-.22.16-.36.24-.46.24-.14,0-.24-.14-.38-.48-.22-.48-.56-.92-.86-1.18,1.4-.84,2.62-1.96,3.58-3.16.28-.36.44-.62.58-.92.58.24,1.06.58,1.56.94ZM154.81,56.11c.22-.14.26-.12.38.02,1.12,1.24,1.94,2.54,2.62,3.84.1.2.06.26-.14.38l-1.2.66c-.24.14-.28.14-.38-.08-.2-.42-.4-.84-.62-1.26-2,.24-4.3.44-6.26.6.42.08.76.16,1.1.24.22.06.34.14.34.28,0,.12-.08.22-.24.3-.08.04-.2.16-.32.32h3.48c.2,0,.32-.02.42-.06.08-.04.18-.08.28-.08.16,0,.3.1.8.58.44.46.52.62.52.8,0,.16-.06.26-.22.36-.16.08-.32.26-.6.66-.58.82-1.22,1.54-1.92,2.18,1.46.68,3.24,1.12,5.4,1.44-.28.34-.52.84-.68,1.34q-.2.6-.82.48c-2.12-.48-3.94-1.12-5.48-2.04-1.52.98-3.3,1.7-5.48,2.16-.6.12-.62.12-.86-.46-.18-.44-.4-.8-.7-1.16,2.14-.34,3.92-.9,5.4-1.7-.64-.52-1.22-1.12-1.76-1.8-.64.58-1.36,1.1-2.1,1.54-.24.14-.36.22-.46.22-.14,0-.22-.14-.4-.46-.22-.36-.5-.68-.8-.96,1.8-.94,2.92-1.84,3.8-3,.2-.24.46-.68.64-1.14-.58.06-1.12.1-1.6.12-.5.04-.9.1-1.08.18-.14.06-.26.14-.38.14-.18,0-.26-.16-.3-.36-.1-.58-.18-1.2-.24-1.82.52.04,1.1.06,1.58.04.56,0,1.12-.02,1.7-.04l.76-.78c-1.08-1.04-2.06-1.86-3.18-2.7-.08-.06-.12-.12-.12-.18s.04-.12.14-.24l.8-.94c.16-.2.2-.18.36-.06.24.2.5.38.76.56.46-.6.96-1.28,1.52-2.16.2-.32.36-.66.52-1.08.58.2,1.26.48,1.74.74.18.1.26.2.26.34,0,.12-.1.24-.24.32-.16.08-.32.22-.58.58-.62.82-1.22,1.62-1.86,2.38.42.34.82.68,1.18,1.04.82-.94,1.56-1.84,2.24-2.74.24-.3.52-.72.68-1.12.66.26,1.26.52,1.72.74.22.12.3.2.3.34s-.1.26-.26.32c-.18.08-.34.26-.7.7-.94,1.2-2.18,2.5-3.5,3.82,1.28-.08,2.54-.16,3.78-.28-.28-.38-.58-.76-.88-1.14-.14-.16-.1-.24.12-.36l1.02-.56ZM149.19,63.01c.56.74,1.22,1.36,1.98,1.9.68-.56,1.28-1.18,1.8-1.9h-3.78Z"/>
          <path class="cls-1" d="M164.29,53.35c.34.18.46.3.46.48,0,.14-.04.2-.3.6-.2.36-.3.64-.48,1.42-.56,2.48-.84,4.94-.84,6.46,0,.98.04,1.64.12,2.34.42-.92.78-1.58,1.36-2.98.16.5.42.82.7,1.26.06.1.14.22.14.3,0,.14-.04.22-.1.32-.46,1.04-.84,1.9-1.14,3.02-.04.12-.06.34-.06.62,0,.24.04.4.04.56,0,.14-.08.22-.26.26-.5.14-1.06.26-1.64.32-.14.02-.22-.08-.26-.22-.56-1.4-.92-3.94-.92-5.96,0-1.8.22-3.98.68-6.56.26-1.48.36-2.14.36-2.98.9.22,1.54.42,2.14.74ZM168.57,62.77c.16-.02.2.08.2.3.12,1.38,1.08,1.88,3.26,1.88,1.5,0,2.48-.1,3.82-.26.2-.02.24,0,.28.26.06.42.12,1.2.12,1.72,0,.24,0,.26-.34.3-1.36.16-2.32.22-3.26.22-2.96,0-4.34-.48-5.2-1.66-.5-.64-.7-1.66-.7-2.6l1.82-.16ZM167.45,55.29c.02-.24.08-.3.28-.34,1.18-.22,3.42-.36,4.34-.36,1.2,0,2.12.04,2.96.12.42.02.46.06.46.26,0,.6,0,1.14-.04,1.7-.02.18-.08.26-.26.24-1.2-.08-2.24-.12-3.26-.12-1.34,0-2.64.12-4.54.46.02-1.12.02-1.62.06-1.96Z"/>
          <path class="cls-1" d="M182.91,52.43c.34.08.48.18.48.38,0,.22-.12.46-.2.66-.1.28-.18.9-.28,2.44-.22,3.48-.3,5.32-.3,7.68,0,2.16.24,2.54,1.84,2.54,1.78,0,4.56-1.08,7-3.68.08.76.26,1.42.46,1.9.1.22.16.36.16.48,0,.18-.08.34-.4.62-2.16,1.98-4.98,3-7.58,3s-3.76-1.02-3.76-4.08c0-3.36.18-6.24.28-8.64.04-1.18.1-2.46-.2-3.66.92.1,1.88.2,2.5.36ZM188.97,53.75c.1-.08.18-.06.3.04.62.48,1.34,1.28,1.9,2.14.08.12.08.22-.06.32l-.84.62c-.14.1-.24.08-.34-.06-.6-.92-1.24-1.68-2.02-2.32l1.06-.74ZM190.75,52.45c.12-.08.18-.06.3.04.74.56,1.46,1.36,1.9,2.06.08.12.1.24-.06.36l-.8.62c-.16.12-.26.06-.34-.06-.54-.86-1.18-1.62-2-2.3l1-.72Z"/>
          <path class="cls-1" d="M197.85,59.29c2.46-.82,4.4-1.22,5.84-1.22,2.72,0,4.56,1.78,4.56,4.28,0,2.04-.96,3.46-2.86,4.48-1.04.58-2.44,1.14-4.14,1.32-.36.06-.52-.02-.66-.28-.22-.4-.58-.84-1.22-1.32,2.34-.36,3.44-.7,4.82-1.38,1.14-.6,1.8-1.54,1.8-2.98s-.88-2.2-2.48-2.2c-1.38,0-3.48.68-5.66,1.56-.5.22-.9.46-1.12.62-.16.14-.28.2-.4.2-.18,0-.32-.12-.52-.36-.46-.58-.76-1.28-1.08-1.94,1-.16,1.98-.42,3.12-.78Z"/>
          <path class="cls-1" d="M221.51,53.13c.1.08.16.24.16.32,0,.18-.1.3-.28.38-.24.12-.54.3-.96.7-1.72,1.54-3.92,3.6-5.46,5.2-.18.22-.26.34-.26.44,0,.12.08.22.26.36,2.6,1.88,5.3,4.06,7.44,6.3.08.1.14.18.14.26s-.04.14-.14.24c-.46.5-1.04,1.08-1.38,1.38-.12.1-.2.16-.28.16s-.14-.06-.24-.18c-2.32-2.6-4.56-4.68-7.28-6.76-.76-.58-1.06-1.02-1.06-1.68s.36-1.1.98-1.76c1.7-1.84,3.36-3.5,5.08-5.38.54-.58.84-1,1.08-1.5.88.52,1.64,1.04,2.2,1.52Z"/>
          <path class="cls-1" d="M229.89,52.47c.26.1.38.22.38.4,0,.12-.04.2-.14.32-.14.16-.24.44-.36.94-.28,1.36-.44,2.78-.56,3.82-.04.72-.1,1.48-.06,2.2.44-.78.86-1.54,1.4-2.56.18.6.38.96.62,1.3.1.12.12.22.12.32,0,.16-.08.32-.2.5-.44.84-.9,1.68-1.18,2.56-.06.18-.08.36-.1.6,0,.2-.08.28-.26.32-.24.06-1.1.18-1.6.24-.14.02-.24-.12-.28-.26-.32-.86-.6-2.4-.6-4.06,0-1.34.22-2.98.48-4.98.08-.7.16-1.38.16-2.28.9.18,1.66.38,2.18.62ZM236.39,52.13c.4.1.44.2.4.54-.04.28-.04.64-.04.92.14,1.9.28,3.72.28,5.16,0,2.84-.46,5.3-1.52,6.94-.78,1.24-2.04,2.42-3.3,3.22-.14.1-.28.14-.4.14-.14,0-.26-.06-.42-.22-.44-.38-1.06-.74-1.7-.92,1.62-.9,2.6-1.62,3.4-2.68,1.16-1.58,1.68-3.22,1.68-6.38,0-1.42-.1-3.5-.24-4.78-.1-.98-.2-1.48-.42-2.18.88.04,1.7.08,2.28.24Z"/>
          <path class="cls-1" d="M246.87,52.23c.24.06.36.16.36.32,0,.28-.14.56-.14.84,0,.4.06.88.1,1.34.18,1.4.38,2.4.64,3.44,1-.54,1.72-.92,2.84-1.52.58-.34,1.06-.68,1.38-1.08.64.66,1.16,1.36,1.46,1.88.08.12.14.28.14.42,0,.2-.12.36-.4.4-.6.1-1.28.34-1.92.6-1.72.7-3.32,1.44-4.7,2.34-1.74,1.14-2.36,2.08-2.36,3.02,0,1.18.88,1.68,3.18,1.68,2.52,0,4.56-.18,6.1-.46.22-.04.32,0,.36.24.1.54.16,1.26.2,1.86.02.22-.12.32-.36.34-1.82.24-3.42.3-5.96.3-3.78,0-5.78-1.24-5.78-3.84,0-2.22,1.46-3.68,3.8-5.16-.48-1.54-.84-3.34-1.04-4.88-.14-1.06-.28-1.76-.52-2.32.96,0,1.88.06,2.62.24Z"/>
          <path class="cls-1" d="M93.26,103.85c.08-.3.14-.76.16-1.1.7.12,1.22.26,1.64.42.22.08.3.1.3.24,0,.1-.06.2-.14.3-.1.12-.18.42-.26.72-.24.96-.62,2.06-1.2,3.14-.18.32-.26.44-.38.44-.08,0-.18-.06-.34-.18-.46-.34-.78-.52-1.2-.66.76-1.14,1.14-2.14,1.42-3.32ZM94.8,95.33c-1.78,0-2.38.04-2.5.04-.18,0-.2-.02-.2-.2v-1.48c0-.2.02-.22.2-.22.12,0,.72.04,2.5.04h1.18v-.5c0-.78-.02-1.34-.12-1.84.72.02,1.34.06,2,.14.2.02.32.1.32.2,0,.16-.06.26-.12.4-.08.2-.12.5-.12,1.12v.48h1.08c1.78,0,2.4-.04,2.52-.04.2,0,.22.02.22.22v1.48c0,.18-.02.2-.22.2-.12,0-.74-.04-2.52-.04h-4.22ZM98.34,96.59c1.52,0,2.02-.04,2.14-.04.2,0,.22.02.22.22,0,.12-.04.52-.04,1.54v1.78c0,1.02.04,1.42.04,1.54,0,.2-.02.22-.22.22-.12,0-.62-.04-2.14-.04h-.38v1.92c0,1.68.06,2.66.06,3.46s-.12,1.32-.66,1.7c-.42.3-.78.34-1.86.36q-.62,0-.72-.64c-.08-.5-.22-.92-.44-1.34.46.06.82.08,1.04.08.58,0,.74-.16.74-.62v-4.92h-.52c-1.52,0-2.02.04-2.16.04-.2,0-.22-.02-.22-.22,0-.14.04-.52.04-1.54v-1.78c0-1.02-.04-1.42-.04-1.54,0-.2.02-.22.22-.22.14,0,.64.04,2.16.04h2.74ZM98.82,98.21h-3.76v2h3.76v-2ZM99.72,102.69c.24-.12.28-.12.4.08.44.7.86,1.48,1.12,2.18.06.16.04.22-.16.34l-.96.56c-.26.14-.32.14-.4-.06-.28-.8-.6-1.62-1.04-2.36-.12-.2-.1-.2.16-.32l.88-.42ZM105.72,97.91l-.18,1.4,1.56.12c.22.04.32.14.32.26,0,.16-.04.24-.1.4-.08.22-.1.4-.1,1.62v4.72c0,.4.04.58.16.68.14.1.22.14.52.14.36,0,.48-.08.64-.3.18-.28.22-.74.28-2.28.46.26.8.38,1.12.48.5.16.56.2.52.72-.1,1.72-.34,2.28-.74,2.68-.44.44-1.12.64-1.94.64-.88,0-1.46-.12-1.8-.34-.44-.24-.6-.72-.6-1.54v-5.56c0-.48,0-.9-.02-1.26-.16.92-.38,1.76-.6,2.54-.72,2.4-1.9,4.36-3.64,5.96-.2.18-.34.28-.46.28s-.22-.1-.36-.32c-.3-.46-.7-.86-1.1-1.08,1.94-1.38,3.14-3.3,3.94-5.9.32-1.04.58-2.42.72-4.06-1.54,0-2.06.04-2.16.04-.2,0-.22-.02-.22-.22v-1.5c0-.2.02-.22.22-.22.12,0,.64.04,2.26.04.04-.7.06-1.44.06-2.2,0-1.16-.04-1.8-.14-2.58.7.02,1.28.06,1.96.12.2.04.3.12.3.26,0,.18-.06.36-.12.52-.08.26-.1.64-.1,1.5,0,.8-.02,1.6-.06,2.38h1.68c1.68,0,2.24-.04,2.36-.04.18,0,.2.02.2.22v1.5c0,.2-.02.22-.2.22-.12,0-.68-.04-2.36-.04h-1.82ZM107.7,91.87c.1-.06.16-.1.22-.1s.1.04.18.12c.66.64,1.3,1.42,1.82,2.26.1.18.1.24-.16.42l-1.08.72c-.2.12-.28.12-.38-.04-.42-.94-1.06-1.74-1.64-2.38-.14-.16-.12-.2.1-.36l.94-.64Z"/>
          <path class="cls-1" d="M113.05,96.59c.16-.2.22-.2.4-.1.98.54,1.94,1.22,2.84,2.04.08.08.12.12.12.16,0,.06-.04.12-.12.24l-.9,1.28c-.06.1-.1.14-.16.14-.04,0-.1-.04-.18-.12-.86-.84-1.82-1.58-2.82-2.18-.1-.06-.14-.1-.14-.14,0-.06.04-.14.12-.24l.84-1.08ZM113.26,106.39c.56-1.1,1.26-2.66,2-4.6.28.32.7.72,1.08,1.02.32.24.44.34.44.5,0,.12-.06.26-.14.48-.6,1.54-1.28,3.08-1.94,4.4-.16.3-.3.56-.34.76-.04.16-.12.26-.26.26-.1,0-.22-.06-.36-.14-.46-.28-.98-.62-1.54-1.1.42-.52.7-.92,1.06-1.58ZM113.86,91.51c.16-.18.22-.18.38-.08,1,.56,1.92,1.28,2.78,2.06.08.06.12.12.12.18s-.04.12-.12.24l-.9,1.26c-.08.12-.14.16-.18.16-.06,0-.1-.04-.18-.1-.88-.86-1.86-1.68-2.82-2.26-.1-.06-.14-.1-.14-.14,0-.06.04-.12.14-.24l.92-1.08ZM120.08,99.17c-1.98,0-2.66.04-2.78.04-.2,0-.22-.02-.22-.22v-1.58c0-.18.02-.2.22-.2.12,0,.8.04,2.78.04h2.34v-2.62c-1.14.18-2.3.32-3.46.44-.64.06-.66.04-.82-.5-.16-.56-.36-1.02-.56-1.32,3.26-.2,6.78-.78,8.82-1.42.54-.18.9-.32,1.3-.56.5.4.96.88,1.32,1.28.12.14.18.24.18.4,0,.12-.08.24-.28.26-.24.02-.54.04-1.08.22-.96.32-2.06.58-3.26.82v3h2.62c1.96,0,2.64-.04,2.76-.04.18,0,.2.02.2.2v1.58c0,.2-.02.22-.2.22-.12,0-.8-.04-2.76-.04h-2.62v2.58h1.44c1.84,0,2.46-.04,2.6-.04.2,0,.22.02.22.22,0,.12-.04.68-.04,2v1.8c0,2.76.04,3.28.04,3.4,0,.18-.02.2-.22.2h-1.7c-.2,0-.22-.02-.22-.2v-.68h-6.24v.78c0,.18-.02.2-.22.2h-1.64c-.22,0-.24-.02-.24-.2,0-.14.04-.66.04-3.44v-1.58c0-1.58-.04-2.14-.04-2.28,0-.2.02-.22.24-.22.12,0,.78.04,2.6.04h1.22v-2.58h-2.34ZM120.46,106.65h6.24v-3.1h-6.24v3.1Z"/>
          <path class="cls-1" d="M142.32,104.97c0,.22-.12.32-.38.36-.26.04-.86.1-1.42.1-.18,0-.26-.12-.26-.32,0-.72,0-1.72.02-2.44-1.78.92-2.42,1.7-2.42,2.66,0,.84.68,1.38,2.78,1.38,1.84,0,3.44-.18,4.98-.4.18-.02.26.04.28.22.1.46.18,1.16.18,1.64.02.24-.06.38-.22.38-1.72.22-3.02.26-4.96.26-3.28,0-5.02-.98-5.02-3.3,0-1.92,1.2-3.32,4.22-4.88-.06-1.02-.3-1.42-1.2-1.38-.94.04-1.84.64-2.76,1.44-.86.84-1.36,1.42-2,2.18-.1.12-.16.18-.24.18-.06,0-.14-.06-.22-.14-.28-.28-.88-.9-1.14-1.32-.06-.08-.08-.14-.08-.18,0-.08.04-.14.14-.22,1.54-1.38,3.02-2.96,4.18-4.96-.94.04-2.02.06-3.2.06-.18,0-.24-.1-.28-.32-.06-.32-.14-1.06-.2-1.66,1.52.08,3.08.06,4.6-.02.22-.54.4-1.02.6-1.72.08-.34.14-.68.14-1.22.88.14,1.76.36,2.28.56.16.06.24.2.24.34,0,.1-.04.22-.14.3-.12.1-.24.28-.34.48-.12.28-.22.54-.46,1.08,1.22-.14,2.44-.34,3.64-.62.22-.04.28.02.32.2.1.4.18.86.2,1.44.02.2-.06.28-.34.32-1.5.22-3.22.44-4.68.6-.46.74-.9,1.48-1.5,2.22l.02.04c.64-.42,1.46-.62,2-.62,1.32,0,2.24.6,2.44,2.16.78-.36,1.92-.88,2.94-1.4.38-.2,1.02-.56,1.52-1.08.66.7,1.18,1.4,1.4,1.76.12.18.16.32.16.44,0,.16-.1.24-.3.28-.42.06-.82.16-1.22.3-1.3.46-2.6.9-4.3,1.6v3.22Z"/>
          <path class="cls-1" d="M154.74,92.43c.34.08.48.18.48.38,0,.22-.12.46-.2.66-.1.28-.18.9-.28,2.44-.2,3.08-.3,5.12-.3,7.74,0,2.02.24,2.48,1.84,2.48,1.78,0,4.56-1.08,7-3.68.08.76.26,1.42.46,1.9.1.22.16.36.16.48,0,.18-.08.34-.4.62-2.16,1.98-4.98,3-7.58,3s-3.76-1.02-3.76-4.08c0-3.36.18-6.24.28-8.64.04-1.18.1-2.46-.2-3.66.92.1,1.88.2,2.5.36Z"/>
          <path class="cls-1" d="M175.98,94.67c.22-.06.3.04.32.2.06.44.12,1.02.14,1.44.02.26-.04.32-.3.38-1.24.34-2.26.56-3.48.76-1.36,4.44-2.38,7.5-3.66,10.82-.1.28-.22.26-.44.2-.2-.08-1.18-.5-1.6-.74-.16-.1-.22-.26-.16-.4,1.52-3.5,2.48-6.14,3.46-9.48-1.16.12-2.56.22-3.5.22-.3,0-.38-.06-.42-.32-.08-.42-.18-1.1-.28-1.82.42.06.66.06,1.48.06,1,0,2.08-.06,3.24-.2.2-.8.36-1.68.5-2.5.08-.6.12-1.2.12-1.84,1.06.16,1.88.3,2.52.56.16.06.22.2.22.32,0,.08,0,.18-.1.32-.16.28-.32.48-.42.8-.2.72-.34,1.4-.48,1.9.78-.14,1.86-.4,2.84-.68ZM175.2,104.23c.2,0,.28.08.3.28.16,1.46,1.14,1.88,3.06,1.88,1.12,0,2.56-.18,3.36-.28.16-.02.22.02.24.18.08.52.16,1.2.16,1.74.02.24,0,.3-.32.32-.68.1-1.98.22-2.72.22-2.62,0-3.98-.36-4.88-1.3-.64-.64-.86-1.58-.9-2.74.62-.16,1.44-.3,1.7-.3ZM174.98,98.93c0-.28.06-.34.36-.4,1.26-.26,2.74-.46,3.9-.46.78,0,1.64.08,2.34.2.28.04.34.06.34.3.04.5.04,1.06.02,1.6,0,.34-.1.42-.38.36-.7-.14-1.62-.24-2.48-.24-1.2,0-2.72.2-4.02.46-.04-.7-.08-1.42-.08-1.82Z"/>
          <path class="cls-1" d="M188.56,94.61c.18.08.32.22.32.36,0,.12-.06.32-.16.56-.08.24-.18,1.1-.18,1.96,0,1.28.04,2.72.36,4.56.28,1.58.8,2.94,1.64,2.94.64,0,1.14-.7,1.92-2.78.44.7.88,1.16,1.28,1.54.24.22.24.46.14.74-.76,2.04-2,3.12-3.4,3.12-1.56,0-3.2-1.84-3.74-5.22-.32-1.9-.48-3.98-.48-5.82,0-1.1-.04-1.7-.24-2.62.96.12,1.94.36,2.54.66ZM197.84,95.87c.08-.04.16-.08.22-.08.08,0,.14.04.22.12,1.82,1.58,3.42,4.34,3.92,6.84.06.26-.06.34-.22.44-.52.34-1.02.62-1.56.8-.24.08-.38.02-.42-.22-.68-2.86-1.7-4.94-3.74-6.98.76-.48,1.26-.76,1.58-.92Z"/>
          <path class="cls-1" d="M207.48,96.47c-1.78,0-2.38.04-2.52.04-.2,0-.22-.02-.22-.24v-1.62c0-.22.02-.24.22-.24.14,0,.74.04,2.52.04h4.9v-1.3c0-.86-.04-1.48-.14-1.96.72,0,1.5.04,2.18.1.2.02.32.1.32.22,0,.14-.06.26-.12.42-.08.16-.12.42-.12,1.16v1.36h5.26c1.8,0,2.4-.04,2.52-.04.18,0,.2.02.2.24v1.62c0,.22-.02.24-.2.24-.12,0-.72-.04-2.52-.04h-6.92c-.02.88-.08,1.7-.16,2.46h4.9c1.68,0,2.24-.04,2.36-.04.2,0,.24.06.24.28-.04.52-.06,1.06-.08,1.56-.16,2.98-.4,4.84-.66,5.94-.44,1.9-1.22,2.48-3.22,2.48-.36,0-.92,0-1.58-.04-.56-.04-.56-.08-.64-.72-.08-.62-.24-1.2-.44-1.54,1.04.14,1.94.18,2.46.18.66,0,1-.32,1.18-1,.3-1,.52-2.84.62-5.08h-5.44c-.76,3.7-2.46,6.04-5.86,8.06-.26.14-.38.22-.48.22-.14,0-.22-.14-.4-.44-.32-.5-.74-.9-1.2-1.22,4.6-2.26,6.1-5.02,6.14-11.1h-3.1Z"/>
        </g>
      </g>
      <g>
        <g>
          <rect class="cls-3" y="344.55" width="315.09" height="127.59"/>
          <polygon class="cls-3" points="325.79 482.68 9.91 482.68 9.91 481.1 324.21 481.1 324.21 348.96 325.79 348.96 325.79 482.68"/>
          <g>
            <path class="cls-2" d="M20.33,339.19h5.61v10.68h-11.15v-10.68l5.77-12.33h4.98l-5.22,12.33ZM35.9,339.19h5.61v10.68h-11.15v-10.68l5.77-12.33h4.98l-5.22,12.33Z"/>
            <path class="cls-2" d="M304.67,477.95h-5.61v-10.68h11.15v10.68l-5.77,12.33h-4.98l5.22-12.33ZM289.1,477.95h-5.61v-10.68h11.15v10.68l-5.77,12.33h-4.98l5.22-12.33Z"/>
          </g>
        </g>
        <g>
          <path class="cls-1" d="M101.07,391.38c0,1.84.8,2.56,2.66,2.56,2.34,0,3.64-.9,3.64-2.7,0-1.12-.28-2.04-1.8-3.64.8.1,1.24,0,2.04-.12.14-.04.3-.02.42.08,1.1,1.04,1.7,2.4,1.7,3.76,0,2.84-2.32,4.68-5.76,4.68s-5.04-1.6-5.04-4.52c0-.42.06-.98.14-1.88-1.2-.18-2-.36-2.72-.6-.14-.04-.2-.14-.22-.38-.06-.62-.08-1.24-.04-1.86,1.2.44,2.1.66,3.24.78.1-.74.26-2.04.34-2.86-1.4-.18-2.12-.3-2.88-.56-.24-.06-.32-.16-.32-.34-.02-.48-.06-1.14-.06-1.86,1.36.44,2.32.62,3.62.76.16-1.16.22-1.7.26-2.3.04-.56.04-1.14-.02-1.68.92.12,1.96.38,2.4.56.28.1.44.28.44.46,0,.14-.06.26-.16.38-.14.14-.24.4-.36.86-.1.46-.22,1.14-.32,1.88.8.06,1.62,0,2.46-.12.14,0,.2.1.2.24.02.48.02,1.04-.04,1.5,0,.22-.08.28-.32.3-.88.1-1.78.12-2.66.1-.12.7-.32,2.06-.44,2.86,1.06.02,1.88,0,2.84-.06.26-.04.32.04.32.22,0,.36-.04,1.08-.1,1.5-.02.24-.08.32-.28.32-1,.08-2.04.08-3.06.06-.1.78-.12,1.26-.12,1.62Z"/>
          <path class="cls-1" d="M115.23,384.42c1.68-.56,3.06-1,4.58-1,2.68,0,4.22,1.82,4.22,4.76,0,1.96-.7,3.56-1.62,4.78-.94,1.28-2.28,2.34-3.86,3.18-.14.06-.24.1-.34.1-.18,0-.3-.08-.48-.26-.44-.42-.98-.8-1.66-1.06,2.2-1.04,3.56-2.16,4.4-3.34.58-.82,1.1-1.92,1.1-3.54s-.7-2.52-1.86-2.52-2,.3-3.14.86c-1.18.58-1.46.78-1.7.96-.16.12-.28.2-.44.2-.26,0-.44-.26-.56-.44-.28-.42-.7-1.3-1.02-2.1.82-.08,1.3-.24,2.38-.58ZM122.53,379.82c.22.04.3.2.26.36-.08.42-.3,1.38-.44,1.76-.06.2-.12.3-.28.28-2.18-.36-3.74-.74-5.8-1.54-.1-.04-.2-.14-.14-.4.14-.74.36-1.28.6-1.88,1.86.74,3.74,1.12,5.8,1.42Z"/>
          <path class="cls-1" d="M133.37,382.08c.18.08.26.2.26.32,0,.14-.08.22-.2.34-.16.16-.28.38-.44.76-.76,1.9-1.66,3.62-3.2,5.22-.22.24-.32.34-.44.34-.1,0-.22-.1-.46-.32-.38-.34-.88-.66-1.3-.88,1.72-1.6,2.68-3.28,3.42-5.1.18-.46.3-.96.38-1.42.62.2,1.46.48,1.98.74ZM139.75,388.5c.22-.36.46-.82.62-1.34.64.36,1.4.82,1.8,1.14.22.16.28.26.28.36,0,.16-.1.24-.26.36-.2.16-.5.52-.8.96-2.26,3.36-5.86,5.44-10.72,6.52-.22.06-.38.08-.48.08-.16,0-.26-.14-.44-.5-.28-.56-.68-1.12-.98-1.4,5.54-.92,9.06-3.02,10.98-6.18ZM137.65,385.24c0,1.28.04,2.18.04,2.86,0,.88-.16,1.34-.76,1.7-.56.34-1.18.48-2.72.5-.62,0-.62.02-.74-.62-.12-.56-.32-1.18-.58-1.56.66.08,1.14.1,1.82.1.58,0,.8-.16.8-.7v-6.94c0-.86-.02-1.5-.14-2.22.72.02,1.5.08,2.2.14.18.02.34.1.34.24,0,.16-.06.28-.14.42-.08.16-.12.5-.12,1.36v4.72ZM141.01,381.26c.28-.14.3-.12.4.1,1.12,2.26,2.48,4.06,4.1,5.58-.38.24-.84.64-1.24,1.08-.22.24-.32.36-.42.36s-.22-.12-.42-.34c-1.58-1.62-2.84-3.58-3.88-5.8-.06-.22-.04-.26.2-.38l1.26-.6Z"/>
          <path class="cls-1" d="M151.81,379.54c.34.08.48.18.48.38,0,.22-.12.46-.2.66-.1.28-.18.9-.28,2.44-.2,3.08-.3,5.12-.3,7.74,0,2.02.24,2.48,1.84,2.48,1.78,0,4.56-1.08,7-3.68.08.76.26,1.42.46,1.9.1.22.16.36.16.48,0,.18-.08.34-.4.62-2.16,1.98-4.98,3-7.58,3s-3.76-1.02-3.76-4.08c0-3.36.18-6.24.28-8.64.04-1.18.1-2.46-.2-3.66.92.1,1.88.2,2.5.36Z"/>
          <path class="cls-1" d="M163.97,390.96c.08-.3.14-.76.16-1.1.7.12,1.22.26,1.64.42.22.08.3.1.3.24,0,.1-.06.2-.14.3-.1.12-.18.42-.26.72-.24.96-.62,2.06-1.2,3.14-.18.32-.26.44-.38.44-.08,0-.18-.06-.34-.18-.46-.34-.78-.52-1.2-.66.76-1.14,1.14-2.14,1.42-3.32ZM165.51,382.44c-1.78,0-2.38.04-2.5.04-.18,0-.2-.02-.2-.2v-1.48c0-.2.02-.22.2-.22.12,0,.72.04,2.5.04h1.18v-.5c0-.78-.02-1.34-.12-1.84.72.02,1.34.06,2,.14.2.02.32.1.32.2,0,.16-.06.26-.12.4-.08.2-.12.5-.12,1.12v.48h1.08c1.78,0,2.4-.04,2.52-.04.2,0,.22.02.22.22v1.48c0,.18-.02.2-.22.2-.12,0-.74-.04-2.52-.04h-4.22ZM169.05,383.7c1.52,0,2.02-.04,2.14-.04.2,0,.22.02.22.22,0,.12-.04.52-.04,1.54v1.78c0,1.02.04,1.42.04,1.54,0,.2-.02.22-.22.22-.12,0-.62-.04-2.14-.04h-.38v1.92c0,1.68.06,2.66.06,3.46s-.12,1.32-.66,1.7c-.42.3-.78.34-1.86.36q-.62,0-.72-.64c-.08-.5-.22-.92-.44-1.34.46.06.82.08,1.04.08.58,0,.74-.16.74-.62v-4.92h-.52c-1.52,0-2.02.04-2.16.04-.2,0-.22-.02-.22-.22,0-.14.04-.52.04-1.54v-1.78c0-1.02-.04-1.42-.04-1.54,0-.2.02-.22.22-.22.14,0,.64.04,2.16.04h2.74ZM169.53,385.32h-3.76v2h3.76v-2ZM170.43,389.8c.24-.12.28-.12.4.08.44.7.86,1.48,1.12,2.18.06.16.04.22-.16.34l-.96.56c-.26.14-.32.14-.4-.06-.28-.8-.6-1.62-1.04-2.36-.12-.2-.1-.2.16-.32l.88-.42ZM176.43,385.02l-.18,1.4,1.56.12c.22.04.32.14.32.26,0,.16-.04.24-.1.4-.08.22-.1.4-.1,1.62v4.72c0,.4.04.58.16.68.14.1.22.14.52.14.36,0,.48-.08.64-.3.18-.28.22-.74.28-2.28.46.26.8.38,1.12.48.5.16.56.2.52.72-.1,1.72-.34,2.28-.74,2.68-.44.44-1.12.64-1.94.64-.88,0-1.46-.12-1.8-.34-.44-.24-.6-.72-.6-1.54v-5.56c0-.48,0-.9-.02-1.26-.16.92-.38,1.76-.6,2.54-.72,2.4-1.9,4.36-3.64,5.96-.2.18-.34.28-.46.28s-.22-.1-.36-.32c-.3-.46-.7-.86-1.1-1.08,1.94-1.38,3.14-3.3,3.94-5.9.32-1.04.58-2.42.72-4.06-1.54,0-2.06.04-2.16.04-.2,0-.22-.02-.22-.22v-1.5c0-.2.02-.22.22-.22.12,0,.64.04,2.26.04.04-.7.06-1.44.06-2.2,0-1.16-.04-1.8-.14-2.58.7.02,1.28.06,1.96.12.2.04.3.12.3.26,0,.18-.06.36-.12.52-.08.26-.1.64-.1,1.5,0,.8-.02,1.6-.06,2.38h1.68c1.68,0,2.24-.04,2.36-.04.18,0,.2.02.2.22v1.5c0,.2-.02.22-.2.22-.12,0-.68-.04-2.36-.04h-1.82ZM178.41,378.98c.1-.06.16-.1.22-.1s.1.04.18.12c.66.64,1.3,1.42,1.82,2.26.1.18.1.24-.16.42l-1.08.72c-.2.12-.28.12-.38-.04-.42-.94-1.06-1.74-1.64-2.38-.14-.16-.12-.2.1-.36l.94-.64Z"/>
          <path class="cls-1" d="M183.77,383.7c.16-.2.22-.2.4-.1.98.54,1.94,1.22,2.84,2.04.08.08.12.12.12.16,0,.06-.04.12-.12.24l-.9,1.28c-.06.1-.1.14-.16.14-.04,0-.1-.04-.18-.12-.86-.84-1.82-1.58-2.82-2.18-.1-.06-.14-.1-.14-.14,0-.06.04-.14.12-.24l.84-1.08ZM183.97,393.5c.56-1.1,1.26-2.66,2-4.6.28.32.7.72,1.08,1.02.32.24.44.34.44.5,0,.12-.06.26-.14.48-.6,1.54-1.28,3.08-1.94,4.4-.16.3-.3.56-.34.76-.04.16-.12.26-.26.26-.1,0-.22-.06-.36-.14-.46-.28-.98-.62-1.54-1.1.42-.52.7-.92,1.06-1.58ZM184.57,378.62c.16-.18.22-.18.38-.08,1,.56,1.92,1.28,2.78,2.06.08.06.12.12.12.18s-.04.12-.12.24l-.9,1.26c-.08.12-.14.16-.18.16-.06,0-.1-.04-.18-.1-.88-.86-1.86-1.68-2.82-2.26-.1-.06-.14-.1-.14-.14,0-.06.04-.12.14-.24l.92-1.08ZM190.79,386.28c-1.98,0-2.66.04-2.78.04-.2,0-.22-.02-.22-.22v-1.58c0-.18.02-.2.22-.2.12,0,.8.04,2.78.04h2.34v-2.62c-1.14.18-2.3.32-3.46.44-.64.06-.66.04-.82-.5-.16-.56-.36-1.02-.56-1.32,3.26-.2,6.78-.78,8.82-1.42.54-.18.9-.32,1.3-.56.5.4.96.88,1.32,1.28.12.14.18.24.18.4,0,.12-.08.24-.28.26-.24.02-.54.04-1.08.22-.96.32-2.06.58-3.26.82v3h2.62c1.96,0,2.64-.04,2.76-.04.18,0,.2.02.2.2v1.58c0,.2-.02.22-.2.22-.12,0-.8-.04-2.76-.04h-2.62v2.58h1.44c1.84,0,2.46-.04,2.6-.04.2,0,.22.02.22.22,0,.12-.04.68-.04,2v1.8c0,2.76.04,3.28.04,3.4,0,.18-.02.2-.22.2h-1.7c-.2,0-.22-.02-.22-.2v-.68h-6.24v.78c0,.18-.02.2-.22.2h-1.64c-.22,0-.24-.02-.24-.2,0-.14.04-.66.04-3.44v-1.58c0-1.58-.04-2.14-.04-2.28,0-.2.02-.22.24-.22.12,0,.78.04,2.6.04h1.22v-2.58h-2.34ZM191.17,393.76h6.24v-3.1h-6.24v3.1Z"/>
          <path class="cls-1" d="M213.03,392.08c0,.22-.12.32-.38.36-.26.04-.86.1-1.42.1-.18,0-.26-.12-.26-.32,0-.72,0-1.72.02-2.44-1.78.92-2.42,1.7-2.42,2.66,0,.84.68,1.38,2.78,1.38,1.84,0,3.44-.18,4.98-.4.18-.02.26.04.28.22.1.46.18,1.16.18,1.64.02.24-.06.38-.22.38-1.72.22-3.02.26-4.96.26-3.28,0-5.02-.98-5.02-3.3,0-1.92,1.2-3.32,4.22-4.88-.06-1.02-.3-1.42-1.2-1.38-.94.04-1.84.64-2.76,1.44-.86.84-1.36,1.42-2,2.18-.1.12-.16.18-.24.18-.06,0-.14-.06-.22-.14-.28-.28-.88-.9-1.14-1.32-.06-.08-.08-.14-.08-.18,0-.08.04-.14.14-.22,1.54-1.38,3.02-2.96,4.18-4.96-.94.04-2.02.06-3.2.06-.18,0-.24-.1-.28-.32-.06-.32-.14-1.06-.2-1.66,1.52.08,3.08.06,4.6-.02.22-.54.4-1.02.6-1.72.08-.34.14-.68.14-1.22.88.14,1.76.36,2.28.56.16.06.24.2.24.34,0,.1-.04.22-.14.3-.12.1-.24.28-.34.48-.12.28-.22.54-.46,1.08,1.22-.14,2.44-.34,3.64-.62.22-.04.28.02.32.2.1.4.18.86.2,1.44.02.2-.06.28-.34.32-1.5.22-3.22.44-4.68.6-.46.74-.9,1.48-1.5,2.22l.02.04c.64-.42,1.46-.62,2-.62,1.32,0,2.24.6,2.44,2.16.78-.36,1.92-.88,2.94-1.4.38-.2,1.02-.56,1.52-1.08.66.7,1.18,1.4,1.4,1.76.12.18.16.32.16.44,0,.16-.1.24-.3.28-.42.06-.82.16-1.22.3-1.3.46-2.6.9-4.3,1.6v3.22Z"/>
          <path class="cls-1" d="M104.86,425.48c-.02,5.8-.66,7.4-2.24,9.48-.18.24-.3.36-.4.36-.12,0-.22-.14-.44-.38-.36-.4-.72-.7-1.06-.92,1.66-1.86,2.2-3.06,2.22-8.54-1.06.02-1.46.04-1.56.04-.18,0-.2-.02-.2-.22v-1.56c0-.2.02-.22.2-.22.12,0,.66.04,2.28.04h3.18c1.62,0,2.14-.04,2.26-.04.2,0,.22.02.22.22v1.56c0,.2-.02.22-.22.22-.1,0-.42-.02-1.22-.04v5.46c.52-.22,1.04-.48,1.64-.82-.04.32-.06.76-.08,1.16,0,.68-.02.68-.5.96-.82.46-1.52.78-2.68,1.24-.28.12-.4.22-.5.32-.08.08-.18.18-.32.18-.1,0-.16-.06-.22-.24-.2-.54-.34-1.08-.48-1.74.42-.1.78-.2,1.22-.34v-6.18h-1.1ZM104.1,421.22c-1.42,0-1.88.04-2,.04-.2,0-.22-.02-.22-.22v-1.52c0-.2.02-.22.22-.22.16,0,.62.04,2,.04h2.36c1.42,0,1.88-.04,2-.04.2,0,.22.02.22.22v1.52c0,.2-.02.22-.22.22-.12,0-.58-.04-2-.04h-2.36ZM113.1,433.54c.16.12.2.22.2.32,0,.12-.1.18-.22.24-.16.08-.32.2-.54.38-.86.72-2.02,1.48-3.22,2-.22.1-.36.18-.46.18-.16,0-.24-.14-.46-.5-.24-.4-.58-.78-.84-1,1.5-.5,2.52-1.02,3.5-1.78.22-.18.44-.42.66-.68.52.24.98.54,1.38.84ZM112.24,420.82c-1.78,0-2.38.04-2.5.04-.2,0-.22-.02-.22-.22v-1.48c0-.2.02-.22.22-.22.12,0,.72.04,2.5.04h4.32c1.8,0,2.4-.04,2.52-.04.18,0,.2.02.2.22v1.48c0,.2-.02.22-.2.22-.12,0-.72-.04-2.52-.04h-1.52c-.2.54-.42,1.02-.64,1.46h1.34c1.6,0,2.16-.04,2.3-.04.2,0,.22.02.22.22,0,.12-.04.8-.04,2.34v5.3c0,1.52.04,2.2.04,2.32,0,.22-.02.24-.22.24-.14,0-.64-.02-1.98-.04l.14.1c1.04.9,2.36,1.7,3.52,2.12-.28.26-.58.68-.82,1.12-.18.34-.26.48-.4.48-.12,0-.26-.08-.5-.2-1.22-.64-2.3-1.48-3.16-2.36-.16-.16-.1-.2.1-.38l.84-.76c.06-.06.12-.1.16-.12h-3.32c-1.62,0-2.18.04-2.3.04-.22,0-.24-.02-.24-.24,0-.12.04-.8.04-2.32v-5.24c0-1.6-.04-2.26-.04-2.4,0-.2.02-.22.24-.22.1,0,.64.04,2.12.04.22-.5.38-.94.56-1.46h-.76ZM112.04,425.2h4.24v-1.26h-4.24v1.26ZM116.28,428.02v-1.3h-4.24v1.3h4.24ZM116.28,429.52h-4.24v1.42h4.24v-1.42Z"/>
          <path class="cls-1" d="M125.76,427.48c.94,0,1.2-.04,1.32-.04.2,0,.26.04.24.24-.06.48-.08,1-.1,1.42-.16,3.5-.52,5.12-.86,5.88-.36.9-1.06,1.34-2.52,1.34-.26,0-.6,0-.96-.02q-.42-.04-.54-.68c-.12-.56-.28-1.08-.44-1.42.78.1,1.26.14,1.76.14.36,0,.76-.12.94-.4.32-.52.52-1.56.7-4.68h-1.88c-.04.26-.1.5-.16.76-.06.26-.1.26-.98.12-.96-.16-1-.2-.94-.48.36-1.68.62-3.16.74-4.58.06-.48.08-.92.08-1.42,0-.2.06-.26.26-.26.12,0,.58.04,1.36.04h1.82v-2.52h-1.98c-1.26,0-1.64.04-1.78.04-.2,0-.2-.02-.2-.2v-1.46c0-.22,0-.24.2-.24.14,0,.52.04,1.78.04h2.2c.96,0,1.34-.04,1.46-.04.2,0,.22.02.22.24,0,.12-.04.64-.04,1.8v2.06c0,1.16.04,1.68.04,1.8,0,.2-.02.22-.22.22-.12,0-.5-.04-1.46-.04h-1.82c-.08.84-.18,1.6-.28,2.34h2.04ZM131.14,421.92h3.66c1.8,0,2.42-.04,2.54-.04.18,0,.2.02.2.22v1.18c0,.2-.02.22-.2.22-.12,0-.74-.04-2.54-.04h-3.66v1.04h3.66c1.78,0,2.4-.04,2.52-.04.18,0,.2.02.2.22v1.16c0,.22-.02.24-.2.24-.12,0-.74-.04-2.52-.04h-3.66v1.04h5.36c1.92,0,2.58-.04,2.7-.04.22,0,.24.02.24.22v1.46c0,.2-.02.22-.24.22-.12,0-.78-.04-2.7-.04h-2.3c.28.86.66,1.62,1.12,2.3.56-.48,1.02-.94,1.44-1.42.2-.24.38-.48.54-.78.48.3.96.66,1.4,1.02.12.1.18.16.18.26,0,.14-.06.2-.22.26s-.28.1-.58.38c-.48.48-.98.94-1.74,1.48.94.9,2.1,1.58,3.48,2.08-.34.32-.64.8-.84,1.32-.14.36-.22.5-.36.5-.1,0-.24-.06-.48-.18-1.62-.84-2.92-1.94-3.92-3.3-.06.32-.1.8-.1,1.2-.02.64-.04.64-.62.82-1.68.5-3.08.86-4.4,1.14-.34.08-.62.18-.74.24-.12.08-.2.12-.32.12s-.24-.08-.3-.26c-.16-.58-.3-1.3-.42-1.86.56-.04,1.16-.12,1.78-.2v-5.1c-.8,0-1.14.02-1.22.02-.22,0-.24-.02-.24-.22v-1.46c0-.2.02-.22.24-.22.08,0,.46.04,1.34.04v-5.54c0-1.44-.04-2.14-.04-2.26,0-.2.02-.22.22-.22.12,0,.72.04,2.42.04h3.8c1.74,0,2.3-.04,2.42-.04.2,0,.22.02.22.22v1.46c0,.18-.02.2-.22.2-.12,0-.68-.04-2.42-.04h-4.48v1.02ZM131.02,433.66c1-.22,2.08-.5,3.2-.86-.82-1.12-1.42-2.42-1.86-3.9h-1.34v4.76Z"/>
          <path class="cls-1" d="M145.7,419.58c.26.1.38.22.38.4,0,.12-.04.2-.14.32-.14.16-.24.44-.36.94-.28,1.36-.44,2.78-.56,3.82-.04.72-.1,1.48-.06,2.2.44-.78.86-1.54,1.4-2.56.18.6.38.96.62,1.3.1.12.12.22.12.32,0,.16-.08.32-.2.5-.44.84-.9,1.68-1.18,2.56-.06.18-.08.36-.1.6,0,.2-.08.28-.26.32-.24.06-1.1.18-1.6.24-.14.02-.24-.12-.28-.26-.32-.86-.6-2.4-.6-4.06,0-1.34.22-2.98.48-4.98.08-.7.16-1.38.16-2.28.9.18,1.66.38,2.18.62ZM152.2,419.24c.4.1.44.2.4.54-.04.28-.04.64-.04.92.14,1.9.28,3.72.28,5.16,0,2.84-.46,5.3-1.52,6.94-.78,1.24-2.04,2.42-3.3,3.22-.14.1-.28.14-.4.14-.14,0-.26-.06-.42-.22-.44-.38-1.06-.74-1.7-.92,1.62-.9,2.6-1.62,3.4-2.68,1.16-1.58,1.68-3.22,1.68-6.38,0-1.42-.1-3.5-.24-4.78-.1-.98-.2-1.48-.42-2.18.88.04,1.7.08,2.28.24Z"/>
          <path class="cls-1" d="M166.86,421.78c.22-.06.3.04.32.2.06.44.12,1.02.14,1.44.02.26-.04.32-.3.38-1.24.34-2.26.56-3.48.76-1.36,4.44-2.38,7.5-3.66,10.82-.1.28-.22.26-.44.2-.2-.08-1.18-.5-1.6-.74-.16-.1-.22-.26-.16-.4,1.52-3.5,2.48-6.14,3.46-9.48-1.16.12-2.56.22-3.5.22-.3,0-.38-.06-.42-.32-.08-.42-.18-1.1-.28-1.82.42.06.66.06,1.48.06,1,0,2.08-.06,3.24-.2.2-.8.36-1.68.5-2.5.08-.6.12-1.2.12-1.84,1.06.16,1.88.3,2.52.56.16.06.22.2.22.32,0,.08,0,.18-.1.32-.16.28-.32.48-.42.8-.2.72-.34,1.4-.48,1.9.78-.14,1.86-.4,2.84-.68ZM166.08,431.34c.2,0,.28.08.3.28.16,1.46,1.14,1.88,3.06,1.88,1.12,0,2.56-.18,3.36-.28.16-.02.22.02.24.18.08.52.16,1.2.16,1.74.02.24,0,.3-.32.32-.68.1-1.98.22-2.72.22-2.62,0-3.98-.36-4.88-1.3-.64-.64-.86-1.58-.9-2.74.62-.16,1.44-.3,1.7-.3ZM165.86,426.04c0-.28.06-.34.36-.4,1.26-.26,2.74-.46,3.9-.46.78,0,1.64.08,2.34.2.28.04.34.06.34.3.04.5.04,1.06.02,1.6,0,.34-.1.42-.38.36-.7-.14-1.62-.24-2.48-.24-1.2,0-2.72.2-4.02.46-.04-.7-.08-1.42-.08-1.82Z"/>
          <path class="cls-1" d="M179.44,421.72c.18.08.32.22.32.36,0,.12-.06.32-.16.56-.08.24-.18,1.1-.18,1.96,0,1.28.04,2.72.36,4.56.28,1.58.8,2.94,1.64,2.94.64,0,1.14-.7,1.92-2.78.44.7.88,1.16,1.28,1.54.24.22.24.46.14.74-.76,2.04-2,3.12-3.4,3.12-1.56,0-3.2-1.84-3.74-5.22-.32-1.9-.48-3.98-.48-5.82,0-1.1-.04-1.7-.24-2.62.96.12,1.94.36,2.54.66ZM188.72,422.98c.08-.04.16-.08.22-.08.08,0,.14.04.22.12,1.82,1.58,3.42,4.34,3.92,6.84.06.26-.06.34-.22.44-.52.34-1.02.62-1.56.8-.24.08-.38.02-.42-.22-.68-2.86-1.7-4.94-3.74-6.98.76-.48,1.26-.76,1.58-.92Z"/>
          <path class="cls-1" d="M198.36,423.58c-1.78,0-2.38.04-2.52.04-.2,0-.22-.02-.22-.24v-1.62c0-.22.02-.24.22-.24.14,0,.74.04,2.52.04h4.9v-1.3c0-.86-.04-1.48-.14-1.96.72,0,1.5.04,2.18.1.2.02.32.1.32.22,0,.14-.06.26-.12.42-.08.16-.12.42-.12,1.16v1.36h5.26c1.8,0,2.4-.04,2.52-.04.18,0,.2.02.2.24v1.62c0,.22-.02.24-.2.24-.12,0-.72-.04-2.52-.04h-6.92c-.02.88-.08,1.7-.16,2.46h4.9c1.68,0,2.24-.04,2.36-.04.2,0,.24.06.24.28-.04.52-.06,1.06-.08,1.56-.16,2.98-.4,4.84-.66,5.94-.44,1.9-1.22,2.48-3.22,2.48-.36,0-.92,0-1.58-.04-.56-.04-.56-.08-.64-.72-.08-.62-.24-1.2-.44-1.54,1.04.14,1.94.18,2.46.18.66,0,1-.32,1.18-1,.3-1,.52-2.84.62-5.08h-5.44c-.76,3.7-2.46,6.04-5.86,8.06-.26.14-.38.22-.48.22-.14,0-.22-.14-.4-.44-.32-.5-.74-.9-1.2-1.22,4.6-2.26,6.1-5.02,6.14-11.1h-3.1Z"/>
        </g>
      </g>
    </g>
  </g>
</svg>