<svg width="1464" height="69" viewBox="0 0 1464 69" fill="none" xmlns="http://www.w3.org/2000/svg">
<path fill-rule="evenodd" clip-rule="evenodd" d="M1464 57.2814C1452.9 52.2568 1440.65 47.5196 1419.17 47.5196C1394.63 47.5196 1382.36 52.8048 1370.09 58.0902C1357.82 63.3762 1345.55 68.6625 1321 68.6625C1296.46 68.6625 1284.19 63.3773 1271.92 58.0918C1259.65 52.8058 1247.38 47.5196 1222.83 47.5196C1198.29 47.5196 1186.02 52.8048 1173.75 58.0902C1161.48 63.3762 1149.21 68.6625 1124.66 68.6625C1100.12 68.6625 1087.85 63.3773 1075.58 58.0918C1063.31 52.8058 1051.04 47.5196 1026.49 47.5196C1001.95 47.5196 989.681 52.8048 977.411 58.0902C965.139 63.3762 952.866 68.6625 928.32 68.6625C903.781 68.6625 891.511 63.3773 879.241 58.0918C866.969 52.8058 854.696 47.5196 830.15 47.5196C805.611 47.5196 793.341 52.8048 781.071 58.0902C768.799 63.3762 756.526 68.6625 731.98 68.6625C707.44 68.6625 695.17 63.3768 682.9 58.091C670.63 52.8053 658.36 47.5196 633.82 47.5196C609.281 47.5196 597.011 52.8048 584.741 58.0902C572.469 63.3762 560.196 68.6625 535.65 68.6625C511.111 68.6625 498.841 63.3773 486.571 58.0918C474.299 52.8058 462.026 47.5196 437.48 47.5196C412.941 47.5196 400.671 52.8048 388.401 58.0902C376.129 63.3762 363.856 68.6625 339.31 68.6625C314.771 68.6625 302.501 63.3773 290.231 58.0918C277.959 52.8058 265.686 47.5196 241.14 47.5196C216.594 47.5196 204.321 52.8058 192.049 58.0918C179.779 63.3773 167.509 68.6625 142.97 68.6625C118.424 68.6625 106.151 63.3762 93.8794 58.0902C81.6088 52.8048 69.3388 47.5196 44.8 47.5196C23.3423 47.5196 11.0882 52.248 0 57.2675V0H1464V57.2814Z" fill="#FA961E"/>
</svg>
