<svg width="351" height="84" viewBox="0 0 351 84" fill="none" xmlns="http://www.w3.org/2000/svg">
<circle cx="38.4444" cy="45.4444" r="38.4444" fill="#004E88" fill-opacity="0.4"/>
<path d="M26.534 52.819C26.4213 52.7497 26.274 52.676 26.092 52.598C25.91 52.5287 25.7323 52.4593 25.559 52.39C25.3943 52.3293 25.26 52.2903 25.156 52.273C25.5373 51.623 25.8233 50.843 26.014 49.933C26.2133 49.023 26.313 47.9743 26.313 46.787V42.562H30.915V41.093H32.579V42.562H37.103V43.966H27.834V46.813C27.834 48.1303 27.7213 49.2917 27.496 50.297C27.2707 51.3023 26.95 52.143 26.534 52.819ZM31.955 52.858C31.4437 52.858 31.0797 52.78 30.863 52.624C30.655 52.468 30.551 52.2037 30.551 51.831V46.319H32.085V51.038C32.085 51.272 32.2237 51.389 32.501 51.389H33.242C33.4413 51.389 33.593 51.35 33.697 51.272C33.801 51.1853 33.879 51.038 33.931 50.83C33.983 50.6133 34.0263 50.3143 34.061 49.933C34.1737 49.9937 34.321 50.0587 34.503 50.128C34.685 50.1887 34.8713 50.2493 35.062 50.31C35.2527 50.3707 35.4173 50.4183 35.556 50.453C35.4607 51.1117 35.3393 51.6143 35.192 51.961C35.0447 52.3077 34.8453 52.5417 34.594 52.663C34.3513 52.793 34.0177 52.858 33.593 52.858H31.955ZM36.206 51.636C36.0587 51.1853 35.881 50.713 35.673 50.219C35.465 49.725 35.244 49.257 35.01 48.815C34.7847 48.373 34.568 48.0047 34.36 47.71L35.751 47.047C35.9157 47.281 36.089 47.5627 36.271 47.892C36.453 48.2127 36.6307 48.555 36.804 48.919C36.9773 49.2743 37.1377 49.6253 37.285 49.972C37.4323 50.3187 37.5537 50.635 37.649 50.921C37.4583 50.9817 37.22 51.0857 36.934 51.233C36.648 51.3803 36.4053 51.5147 36.206 51.636ZM28.757 51.818C28.5923 51.6793 28.38 51.545 28.12 51.415C27.8687 51.2763 27.6563 51.181 27.483 51.129C27.6823 50.7997 27.873 50.3967 28.055 49.92C28.237 49.4433 28.3973 48.9537 28.536 48.451C28.6747 47.9483 28.77 47.4977 28.822 47.099L30.265 47.476C30.1957 47.9353 30.083 48.4293 29.927 48.958C29.7797 49.478 29.602 49.9893 29.394 50.492C29.1947 50.986 28.9823 51.428 28.757 51.818ZM33.593 47.515C33.4283 47.281 33.216 47.0253 32.956 46.748C32.696 46.4707 32.4187 46.202 32.124 45.942C31.838 45.682 31.565 45.4653 31.305 45.292L32.332 44.213C32.5747 44.3863 32.839 44.5943 33.125 44.837C33.4197 45.0797 33.71 45.3353 33.996 45.604C34.282 45.8727 34.5333 46.1327 34.75 46.384C34.6287 46.4707 34.49 46.5877 34.334 46.735C34.178 46.8737 34.0307 47.0123 33.892 47.151C33.762 47.2897 33.6623 47.411 33.593 47.515ZM40.184 53.092C40.1407 52.9187 40.067 52.715 39.963 52.481C39.859 52.247 39.7507 52.0433 39.638 51.87C40.4787 51.8007 41.1547 51.662 41.666 51.454C42.1773 51.246 42.5803 50.9687 42.875 50.622H41.302V50.024C40.9553 50.2493 40.5957 50.4573 40.223 50.648C39.8503 50.8387 39.4733 50.9947 39.092 51.116C39.0487 51.012 38.9793 50.8863 38.884 50.739C38.7887 50.5917 38.689 50.4487 38.585 50.31C38.481 50.1713 38.3943 50.0673 38.325 49.998C38.7583 49.8767 39.196 49.7077 39.638 49.491C40.08 49.2743 40.5003 49.0187 40.899 48.724H38.65V47.619H42.147C42.2163 47.541 42.277 47.463 42.329 47.385C42.3897 47.307 42.4503 47.229 42.511 47.151H40.509V43.433H42.03V42.939H38.793V41.808H42.03V41.015H43.473V41.808H45.54V41.015H46.983V41.808H50.129V42.939H46.983V43.433H48.569V47.151H44.071C44.0363 47.229 43.993 47.307 43.941 47.385C43.889 47.463 43.8413 47.541 43.798 47.619H50.389V48.724H48.062C48.4867 49.0013 48.9373 49.257 49.414 49.491C49.8993 49.7163 50.3587 49.8897 50.792 50.011C50.6533 50.1497 50.493 50.3403 50.311 50.583C50.1377 50.8257 50.0163 51.0337 49.947 51.207C49.661 51.103 49.349 50.9687 49.011 50.804C48.6817 50.6393 48.3523 50.4573 48.023 50.258C47.9363 51.0293 47.815 51.6143 47.659 52.013C47.5117 52.4117 47.2993 52.6803 47.022 52.819C46.7447 52.9663 46.372 53.04 45.904 53.04H44.903C44.8943 52.9273 44.877 52.7843 44.851 52.611C44.825 52.4377 44.7947 52.2643 44.76 52.091C44.7253 51.9177 44.6863 51.7877 44.643 51.701H45.54C45.748 51.701 45.904 51.675 46.008 51.623C46.1207 51.571 46.2073 51.467 46.268 51.311C46.3287 51.155 46.3763 50.9253 46.411 50.622H44.604C44.2487 51.3153 43.7113 51.8743 42.992 52.299C42.2813 52.7323 41.3453 52.9967 40.184 53.092ZM42.043 46.163H47.035V45.747H42.043V46.163ZM42.043 44.85H47.035V44.434H42.043V44.85ZM45.02 49.53H46.983C46.6537 49.27 46.372 49.0013 46.138 48.724H45.163C45.1457 48.8627 45.124 49.0013 45.098 49.14C45.0807 49.27 45.0547 49.4 45.02 49.53ZM43.473 43.433H45.54V42.939H43.473V43.433ZM41.991 49.53H43.473C43.5163 49.4087 43.5553 49.2787 43.59 49.14C43.6247 49.0013 43.655 48.8627 43.681 48.724H42.888C42.7493 48.8627 42.6063 49.0013 42.459 49.14C42.3117 49.27 42.1557 49.4 41.991 49.53Z" fill="white"/>
<path d="M88 47L71.5 56.5263L71.5 37.4737L88 47Z" fill="#99B8CF"/>
<circle cx="38.5" cy="13.5" r="13.5" fill="white"/>
<path d="M38.6091 12.714C38.6091 13.622 38.5131 14.414 38.3211 15.09C38.1331 15.762 37.8771 16.322 37.5531 16.77C37.2291 17.214 36.8511 17.546 36.4191 17.766C35.9871 17.986 35.5291 18.096 35.0451 18.096C34.6811 18.096 34.3471 18.024 34.0431 17.88C33.7431 17.736 33.4851 17.52 33.2691 17.232C33.0531 16.94 32.8851 16.576 32.7651 16.14C32.6451 15.704 32.5851 15.196 32.5851 14.616C32.5851 13.708 32.6791 12.918 32.8671 12.246C33.0551 11.57 33.3091 11.01 33.6291 10.566C33.9491 10.118 34.3231 9.784 34.7511 9.564C35.1831 9.344 35.6431 9.234 36.1311 9.234C36.4951 9.234 36.8271 9.306 37.1271 9.45C37.4311 9.594 37.6931 9.812 37.9131 10.104C38.1331 10.392 38.3031 10.754 38.4231 11.19C38.5471 11.626 38.6091 12.134 38.6091 12.714ZM37.1391 12.642C37.1391 12.226 37.1071 11.878 37.0431 11.598C36.9831 11.314 36.8991 11.086 36.7911 10.914C36.6871 10.738 36.5651 10.612 36.4251 10.536C36.2891 10.46 36.1431 10.422 35.9871 10.422C35.8271 10.422 35.6671 10.454 35.5071 10.518C35.3511 10.578 35.2011 10.676 35.0571 10.812C34.9131 10.948 34.7791 11.126 34.6551 11.346C34.5311 11.566 34.4231 11.836 34.3311 12.156C34.2431 12.472 34.1731 12.84 34.1211 13.26C34.0731 13.68 34.0491 14.16 34.0491 14.7C34.0491 15.112 34.0791 15.46 34.1391 15.744C34.2031 16.024 34.2871 16.25 34.3911 16.422C34.4951 16.594 34.6151 16.718 34.7511 16.794C34.8911 16.87 35.0371 16.908 35.1891 16.908C35.4291 16.908 35.6651 16.838 35.8971 16.698C36.1291 16.558 36.3371 16.322 36.5211 15.99C36.7051 15.658 36.8531 15.22 36.9651 14.676C37.0811 14.132 37.1391 13.454 37.1391 12.642ZM44.718 16.932L44.58 18H40.134L40.266 16.932H41.868L42.504 11.76C42.516 11.668 42.528 11.574 42.54 11.478C42.556 11.378 42.574 11.278 42.594 11.178L41.358 12.234C41.286 12.29 41.214 12.326 41.142 12.342C41.074 12.354 41.01 12.354 40.95 12.342C40.894 12.33 40.844 12.31 40.8 12.282C40.76 12.25 40.73 12.216 40.71 12.18L40.338 11.562L43.056 9.318H44.232L43.302 16.932H44.718Z" fill="#FFB300"/>
<circle cx="131.444" cy="45.4444" r="38.4444" fill="#004E88" fill-opacity="0.6"/>
<path d="M120.553 45.079C120.492 44.871 120.388 44.624 120.241 44.338C120.102 44.0607 119.968 43.8397 119.838 43.675C120.575 43.623 121.233 43.4627 121.814 43.194C122.395 42.9253 122.867 42.583 123.231 42.167C123.604 41.7423 123.829 41.27 123.907 40.75H121.957V33.405H129.952V40.75H128.067V42.96C128.067 43.0987 128.097 43.194 128.158 43.246C128.227 43.298 128.357 43.324 128.548 43.324H129.757C129.991 43.324 130.169 43.2807 130.29 43.194C130.42 43.1073 130.515 42.9557 130.576 42.739C130.645 42.5223 130.697 42.2147 130.732 41.816C130.905 41.9113 131.144 42.011 131.447 42.115C131.759 42.219 132.023 42.3013 132.24 42.362C132.136 43.0467 132.006 43.5667 131.85 43.922C131.703 44.2773 131.499 44.5157 131.239 44.637C130.979 44.7583 130.628 44.819 130.186 44.819H127.924C127.378 44.819 126.992 44.7367 126.767 44.572C126.55 44.4073 126.442 44.1343 126.442 43.753V40.75H125.493C125.406 41.8247 124.96 42.7477 124.154 43.519C123.348 44.2817 122.148 44.8017 120.553 45.079ZM123.595 39.398H128.314V38.553H123.595V39.398ZM123.595 37.5H128.314V36.655H123.595V37.5ZM123.595 35.589H128.314V34.744H123.595V35.589ZM136.868 45.027C136.851 44.819 136.807 44.5633 136.738 44.26C136.669 43.9653 136.599 43.7313 136.53 43.558H137.83C138.003 43.558 138.129 43.532 138.207 43.48C138.285 43.4193 138.324 43.3023 138.324 43.129V41.79H133.254V40.464H138.324V39.697H138.909C139.039 39.6017 139.208 39.4717 139.416 39.307C139.633 39.1337 139.828 38.969 140.001 38.813H135.568V37.539H142.133L142.718 38.137C142.553 38.3017 142.35 38.4923 142.107 38.709C141.864 38.9257 141.609 39.1467 141.34 39.372C141.071 39.5973 140.811 39.8053 140.56 39.996C140.317 40.1867 140.109 40.3427 139.936 40.464H144.733V41.79H139.871V43.675C139.871 44.5763 139.325 45.027 138.233 45.027H136.868ZM133.358 38.566V35.498H135.36C135.239 35.2207 135.083 34.9217 134.892 34.601C134.71 34.2717 134.537 34.0117 134.372 33.821L135.711 33.21C135.841 33.3573 135.98 33.5523 136.127 33.795C136.283 34.029 136.43 34.2717 136.569 34.523C136.708 34.7657 136.812 34.978 136.881 35.16L136.088 35.498H138.35C138.281 35.2987 138.185 35.0777 138.064 34.835C137.951 34.5837 137.83 34.341 137.7 34.107C137.57 33.873 137.44 33.6737 137.31 33.509L138.701 33.002C138.831 33.1493 138.97 33.353 139.117 33.613C139.273 33.8643 139.416 34.1243 139.546 34.393C139.685 34.6617 139.784 34.8913 139.845 35.082L138.805 35.498H140.508C140.655 35.264 140.807 34.9997 140.963 34.705C141.128 34.4017 141.279 34.1027 141.418 33.808C141.565 33.5133 141.682 33.2663 141.769 33.067L143.329 33.47C143.182 33.782 143.004 34.1243 142.796 34.497C142.588 34.8697 142.393 35.2033 142.211 35.498H144.642V38.566H143.147V36.746H134.827V38.566H133.358ZM118.746 61.962C118.651 61.8407 118.529 61.715 118.382 61.585C118.243 61.455 118.1 61.3337 117.953 61.221V61.624H113.923V57.893H117.953V60.779C118.62 60.3717 119.101 59.8733 119.396 59.284C119.691 58.6947 119.855 57.9537 119.89 57.061H118.668V52.784H120.033C119.946 52.5587 119.834 52.3203 119.695 52.069C119.565 51.809 119.422 51.562 119.266 51.328C119.119 51.094 118.98 50.9033 118.85 50.756L120.124 50.093C120.28 50.2837 120.44 50.5003 120.605 50.743C120.778 50.9857 120.939 51.2283 121.086 51.471C121.233 51.7137 121.35 51.9303 121.437 52.121C121.35 52.1557 121.229 52.2163 121.073 52.303C120.917 52.381 120.761 52.4633 120.605 52.55C120.449 52.6367 120.315 52.7147 120.202 52.784H121.736C121.883 52.5153 122.035 52.212 122.191 51.874C122.347 51.536 122.49 51.2023 122.62 50.873C122.759 50.535 122.858 50.249 122.919 50.015L124.427 50.366C124.366 50.5047 124.275 50.7127 124.154 50.99C124.033 51.2673 123.898 51.5663 123.751 51.887C123.604 52.2077 123.456 52.5067 123.309 52.784H124.804V57.061H123.413V59.999C123.413 60.103 123.43 60.1723 123.465 60.207C123.5 60.2417 123.586 60.259 123.725 60.259H123.985C124.106 60.259 124.197 60.233 124.258 60.181C124.319 60.1203 124.371 60.0033 124.414 59.83C124.457 59.6567 124.501 59.3967 124.544 59.05C124.691 59.1367 124.908 59.2277 125.194 59.323C125.48 59.4097 125.727 59.479 125.935 59.531C125.883 60.129 125.788 60.5883 125.649 60.909C125.519 61.221 125.328 61.4333 125.077 61.546C124.834 61.6673 124.509 61.728 124.102 61.728H123.166C122.724 61.728 122.408 61.6543 122.217 61.507C122.026 61.3597 121.931 61.1343 121.931 60.831V57.061H121.32C121.277 58.2397 121.047 59.232 120.631 60.038C120.224 60.8353 119.595 61.4767 118.746 61.962ZM113.39 53.564V52.368H118.278V53.564H113.39ZM120.176 55.722H123.309V54.123H120.176V55.722ZM114.014 51.744V50.509H117.706V51.744H114.014ZM114.014 57.23V56.021H117.706V57.23H114.014ZM114.014 55.397V54.201H117.706V55.397H114.014ZM115.314 60.441H116.562V59.076H115.314V60.441ZM130.082 62.001C129.995 61.8017 129.857 61.5807 129.666 61.338C129.475 61.0953 129.289 60.9003 129.107 60.753C129.904 60.4843 130.559 60.1463 131.07 59.739C131.581 59.3317 131.963 58.8073 132.214 58.166C132.465 57.516 132.591 56.7013 132.591 55.722V50.522H137.895V60.545C137.895 61.0217 137.756 61.3683 137.479 61.585C137.202 61.8103 136.781 61.923 136.218 61.923H135.217C135.208 61.7757 135.182 61.6023 135.139 61.403C135.104 61.2037 135.061 61.0087 135.009 60.818C134.966 60.6273 134.918 60.4757 134.866 60.363H135.88C136.062 60.363 136.192 60.3327 136.27 60.272C136.348 60.2113 136.387 60.0943 136.387 59.921V57.308H133.969C133.778 58.5387 133.358 59.518 132.708 60.246C132.058 60.9653 131.183 61.5503 130.082 62.001ZM126.819 58.452V50.808H131.551V58.452H126.819ZM134.086 56.021H136.387V54.604H134.086V56.021ZM134.086 53.317H136.387V51.939H134.086V53.317ZM128.327 57.048H130.082V55.254H128.327V57.048ZM128.327 53.941H130.082V52.173H128.327V53.941ZM149.439 62.105C149.335 61.9057 149.196 61.6847 149.023 61.442C148.858 61.1993 148.672 60.9523 148.464 60.701C148.065 60.7703 147.606 60.844 147.086 60.922C146.566 61 146.016 61.078 145.435 61.156C144.854 61.234 144.278 61.3033 143.706 61.364C143.143 61.4333 142.614 61.4897 142.12 61.533C141.635 61.585 141.219 61.624 140.872 61.65L140.573 60.103C140.764 60.103 140.998 60.0987 141.275 60.09C141.561 60.0727 141.869 60.051 142.198 60.025C142.397 59.7217 142.601 59.362 142.809 58.946C143.026 58.53 143.216 58.1357 143.381 57.763H140.183V56.372H150.83V57.763H147.697C147.931 57.945 148.191 58.1747 148.477 58.452C148.763 58.7293 149.053 59.0283 149.348 59.349C149.643 59.661 149.911 59.9687 150.154 60.272C150.405 60.5753 150.605 60.8397 150.752 61.065C150.639 61.1343 150.496 61.234 150.323 61.364C150.15 61.494 149.981 61.624 149.816 61.754C149.651 61.8927 149.526 62.0097 149.439 62.105ZM140.105 55.579C140.044 55.4577 139.958 55.3147 139.845 55.15C139.732 54.9853 139.611 54.825 139.481 54.669C139.351 54.513 139.23 54.3873 139.117 54.292C139.654 54.084 140.205 53.8153 140.768 53.486C141.34 53.148 141.89 52.7797 142.419 52.381C142.948 51.9737 143.42 51.562 143.836 51.146C144.252 50.7213 144.573 50.3227 144.798 49.95L146.267 50.158C146.544 50.5307 146.9 50.912 147.333 51.302C147.766 51.692 148.239 52.0647 148.75 52.42C149.27 52.7667 149.799 53.083 150.336 53.369C150.873 53.655 151.389 53.889 151.883 54.071C151.753 54.175 151.614 54.318 151.467 54.5C151.32 54.6733 151.181 54.851 151.051 55.033C150.93 55.215 150.839 55.371 150.778 55.501C150.44 55.3537 150.089 55.1803 149.725 54.981C149.37 54.7817 149.01 54.565 148.646 54.331V55.436H142.367V54.292C141.968 54.5607 141.574 54.8077 141.184 55.033C140.794 55.2497 140.434 55.4317 140.105 55.579ZM142.731 54.032H148.217C147.688 53.668 147.186 53.278 146.709 52.862C146.232 52.4373 145.829 52.0127 145.5 51.588C145.205 51.978 144.811 52.3897 144.317 52.823C143.823 53.2477 143.294 53.6507 142.731 54.032ZM144.109 59.869C144.69 59.817 145.266 59.7607 145.838 59.7C146.41 59.6307 146.93 59.5657 147.398 59.505C147.025 59.1237 146.696 58.829 146.41 58.621L147.424 57.763H145.201C145.054 58.101 144.88 58.4563 144.681 58.829C144.49 59.193 144.3 59.5397 144.109 59.869Z" fill="white"/>
<path d="M180 47L163.5 56.5263L163.5 37.4737L180 47Z" fill="#6695B8"/>
<circle cx="132.5" cy="13.5" r="13.5" fill="white"/>
<path d="M132.609 13.714C132.609 14.622 132.513 15.414 132.321 16.09C132.133 16.762 131.877 17.322 131.553 17.77C131.229 18.214 130.851 18.546 130.419 18.766C129.987 18.986 129.529 19.096 129.045 19.096C128.681 19.096 128.347 19.024 128.043 18.88C127.743 18.736 127.485 18.52 127.269 18.232C127.053 17.94 126.885 17.576 126.765 17.14C126.645 16.704 126.585 16.196 126.585 15.616C126.585 14.708 126.679 13.918 126.867 13.246C127.055 12.57 127.309 12.01 127.629 11.566C127.949 11.118 128.323 10.784 128.751 10.564C129.183 10.344 129.643 10.234 130.131 10.234C130.495 10.234 130.827 10.306 131.127 10.45C131.431 10.594 131.693 10.812 131.913 11.104C132.133 11.392 132.303 11.754 132.423 12.19C132.547 12.626 132.609 13.134 132.609 13.714ZM131.139 13.642C131.139 13.226 131.107 12.878 131.043 12.598C130.983 12.314 130.899 12.086 130.791 11.914C130.687 11.738 130.565 11.612 130.425 11.536C130.289 11.46 130.143 11.422 129.987 11.422C129.827 11.422 129.667 11.454 129.507 11.518C129.351 11.578 129.201 11.676 129.057 11.812C128.913 11.948 128.779 12.126 128.655 12.346C128.531 12.566 128.423 12.836 128.331 13.156C128.243 13.472 128.173 13.84 128.121 14.26C128.073 14.68 128.049 15.16 128.049 15.7C128.049 16.112 128.079 16.46 128.139 16.744C128.203 17.024 128.287 17.25 128.391 17.422C128.495 17.594 128.615 17.718 128.751 17.794C128.891 17.87 129.037 17.908 129.189 17.908C129.429 17.908 129.665 17.838 129.897 17.698C130.129 17.558 130.337 17.322 130.521 16.99C130.705 16.658 130.853 16.22 130.965 15.676C131.081 15.132 131.139 14.454 131.139 13.642ZM138.412 17.668C138.564 17.668 138.68 17.712 138.76 17.8C138.84 17.888 138.872 18.004 138.856 18.148L138.748 19H133.24L133.3 18.526C133.312 18.43 133.342 18.33 133.39 18.226C133.442 18.118 133.52 18.02 133.624 17.932L136.348 15.274C136.616 15.018 136.848 14.778 137.044 14.554C137.244 14.326 137.41 14.104 137.542 13.888C137.674 13.668 137.772 13.446 137.836 13.222C137.904 12.998 137.938 12.758 137.938 12.502C137.938 12.154 137.852 11.89 137.68 11.71C137.508 11.53 137.268 11.44 136.96 11.44C136.804 11.44 136.656 11.466 136.516 11.518C136.38 11.57 136.254 11.642 136.138 11.734C136.026 11.826 135.926 11.936 135.838 12.064C135.754 12.188 135.686 12.324 135.634 12.472C135.546 12.652 135.446 12.772 135.334 12.832C135.222 12.888 135.07 12.9 134.878 12.868L134.14 12.736C134.248 12.324 134.4 11.962 134.596 11.65C134.796 11.334 135.028 11.072 135.292 10.864C135.56 10.656 135.854 10.5 136.174 10.396C136.498 10.288 136.838 10.234 137.194 10.234C137.534 10.234 137.84 10.286 138.112 10.39C138.388 10.49 138.622 10.634 138.814 10.822C139.006 11.01 139.154 11.236 139.258 11.5C139.362 11.764 139.414 12.056 139.414 12.376C139.414 12.74 139.36 13.074 139.252 13.378C139.148 13.678 139.004 13.964 138.82 14.236C138.64 14.504 138.428 14.766 138.184 15.022C137.944 15.274 137.688 15.532 137.416 15.796L135.316 17.86C135.516 17.804 135.714 17.758 135.91 17.722C136.11 17.686 136.294 17.668 136.462 17.668H138.412Z" fill="#FFB300"/>
<circle cx="220.851" cy="45.5557" r="38.4444" fill="#004E88" fill-opacity="0.8"/>
<path d="M209.506 54.3262V45.9282H213.536C213.605 45.7375 213.683 45.5295 213.77 45.3042C213.857 45.0702 213.93 44.8492 213.991 44.6412H208.947V43.3412H220.816V44.6412H215.798C215.737 44.8319 215.659 45.0442 215.564 45.2782C215.469 45.5122 215.378 45.7289 215.291 45.9282H220.231V54.3262H209.506ZM211.04 52.9352H212.431V47.2802H211.04V52.9352ZM217.306 52.9352H218.697V47.2802H217.306V52.9352ZM213.952 52.9352H215.785V51.8172H213.952V52.9352ZM213.952 48.3852H215.785V47.2802H213.952V48.3852ZM213.952 50.6472H215.785V49.5552H213.952V50.6472ZM232.854 54.7682C232.499 54.5342 232.113 54.3045 231.697 54.0792C231.281 53.8539 230.856 53.6415 230.423 53.4422C229.894 53.8149 229.27 54.1052 228.551 54.3132C227.832 54.5212 226.995 54.6599 226.042 54.7292C226.007 54.5732 225.951 54.3609 225.873 54.0922C225.795 53.8235 225.708 53.6155 225.613 53.4682C226.254 53.4509 226.848 53.3859 227.394 53.2732C227.94 53.1519 228.434 52.9829 228.876 52.7662C228.486 52.6189 228.105 52.4845 227.732 52.3632C227.359 52.2332 227 52.1249 226.653 52.0382C226.766 51.8909 226.891 51.7089 227.03 51.4922C227.177 51.2669 227.329 51.0329 227.485 50.7902H225.886V49.7372C225.756 49.7979 225.604 49.8672 225.431 49.9452C225.258 50.0145 225.071 50.0882 224.872 50.1662V53.4032C224.872 53.8539 224.751 54.1789 224.508 54.3782C224.265 54.5862 223.884 54.6902 223.364 54.6902H222.415C222.406 54.5602 222.385 54.3955 222.35 54.1962C222.315 54.0055 222.276 53.8192 222.233 53.6372C222.19 53.4465 222.142 53.2949 222.09 53.1822H222.948C223.121 53.1822 223.243 53.1562 223.312 53.1042C223.39 53.0522 223.429 52.9439 223.429 52.7792V50.7382C223.143 50.8509 222.887 50.9462 222.662 51.0242C222.437 51.1022 222.268 51.1585 222.155 51.1932L221.778 49.5942C221.969 49.5509 222.207 49.4859 222.493 49.3992C222.788 49.3125 223.1 49.2172 223.429 49.1132V46.7992H221.986V45.3952H223.429V42.8992H224.872V45.3952H226.146V46.7992H224.872V48.6322C225.167 48.5195 225.431 48.4199 225.665 48.3332C225.899 48.2465 226.077 48.1729 226.198 48.1122V49.4772H228.226C228.347 49.2779 228.451 49.0872 228.538 48.9052C228.625 48.7145 228.698 48.5499 228.759 48.4112H226.289V47.1372H227.875C227.788 46.9032 227.684 46.6562 227.563 46.3962C227.45 46.1275 227.351 45.9152 227.264 45.7592L228.395 45.3562H226.549V44.1342H229.032V42.8472H230.605V44.1342H233.335V45.3562H231.268L232.425 45.7072C232.356 45.8805 232.26 46.1015 232.139 46.3702C232.018 46.6302 231.896 46.8859 231.775 47.1372H233.621V48.4112H229.318L230.254 48.7102C230.202 48.8229 230.141 48.9442 230.072 49.0742C230.011 49.2042 229.942 49.3385 229.864 49.4772H233.816V50.7902H232.412C232.282 51.1022 232.139 51.3925 231.983 51.6612C231.836 51.9299 231.671 52.1769 231.489 52.4022C231.896 52.5755 232.291 52.7619 232.672 52.9612C233.053 53.1605 233.417 53.3599 233.764 53.5592C233.617 53.6979 233.452 53.8885 233.27 54.1312C233.088 54.3825 232.949 54.5949 232.854 54.7682ZM229.344 47.1372H230.28C230.393 46.8772 230.514 46.5739 230.644 46.2272C230.783 45.8805 230.891 45.5902 230.969 45.3562H228.642C228.703 45.4862 228.776 45.6639 228.863 45.8892C228.958 46.1145 229.049 46.3442 229.136 46.5782C229.223 46.8035 229.292 46.9899 229.344 47.1372ZM230.137 51.8432C230.406 51.5572 230.631 51.2062 230.813 50.7902H229.11C229.049 50.8942 228.984 50.9982 228.915 51.1022C228.854 51.1975 228.794 51.2885 228.733 51.3752C228.941 51.4359 229.162 51.5052 229.396 51.5832C229.639 51.6612 229.886 51.7479 230.137 51.8432Z" fill="white"/>
<path d="M270 47L253.5 56.5263L253.5 37.4737L270 47Z" fill="#3371A0"/>
<circle cx="221.5" cy="13.5" r="13.5" fill="white"/>
<path d="M221.609 13.714C221.609 14.622 221.513 15.414 221.321 16.09C221.133 16.762 220.877 17.322 220.553 17.77C220.229 18.214 219.851 18.546 219.419 18.766C218.987 18.986 218.529 19.096 218.045 19.096C217.681 19.096 217.347 19.024 217.043 18.88C216.743 18.736 216.485 18.52 216.269 18.232C216.053 17.94 215.885 17.576 215.765 17.14C215.645 16.704 215.585 16.196 215.585 15.616C215.585 14.708 215.679 13.918 215.867 13.246C216.055 12.57 216.309 12.01 216.629 11.566C216.949 11.118 217.323 10.784 217.751 10.564C218.183 10.344 218.643 10.234 219.131 10.234C219.495 10.234 219.827 10.306 220.127 10.45C220.431 10.594 220.693 10.812 220.913 11.104C221.133 11.392 221.303 11.754 221.423 12.19C221.547 12.626 221.609 13.134 221.609 13.714ZM220.139 13.642C220.139 13.226 220.107 12.878 220.043 12.598C219.983 12.314 219.899 12.086 219.791 11.914C219.687 11.738 219.565 11.612 219.425 11.536C219.289 11.46 219.143 11.422 218.987 11.422C218.827 11.422 218.667 11.454 218.507 11.518C218.351 11.578 218.201 11.676 218.057 11.812C217.913 11.948 217.779 12.126 217.655 12.346C217.531 12.566 217.423 12.836 217.331 13.156C217.243 13.472 217.173 13.84 217.121 14.26C217.073 14.68 217.049 15.16 217.049 15.7C217.049 16.112 217.079 16.46 217.139 16.744C217.203 17.024 217.287 17.25 217.391 17.422C217.495 17.594 217.615 17.718 217.751 17.794C217.891 17.87 218.037 17.908 218.189 17.908C218.429 17.908 218.665 17.838 218.897 17.698C219.129 17.558 219.337 17.322 219.521 16.99C219.705 16.658 219.853 16.22 219.965 15.676C220.081 15.132 220.139 14.454 220.139 13.642ZM223.17 12.736C223.278 12.324 223.43 11.962 223.626 11.65C223.826 11.334 224.058 11.072 224.322 10.864C224.59 10.656 224.884 10.5 225.204 10.396C225.528 10.288 225.868 10.234 226.224 10.234C226.568 10.234 226.874 10.284 227.142 10.384C227.41 10.484 227.636 10.624 227.82 10.804C228.008 10.98 228.15 11.188 228.246 11.428C228.342 11.668 228.39 11.928 228.39 12.208C228.39 12.528 228.356 12.81 228.288 13.054C228.22 13.294 228.12 13.504 227.988 13.684C227.856 13.864 227.692 14.014 227.496 14.134C227.304 14.254 227.084 14.352 226.836 14.428C227.248 14.58 227.554 14.8 227.754 15.088C227.958 15.376 228.06 15.73 228.06 16.15C228.06 16.618 227.974 17.036 227.802 17.404C227.63 17.768 227.4 18.076 227.112 18.328C226.824 18.58 226.494 18.772 226.122 18.904C225.75 19.032 225.364 19.096 224.964 19.096C224.568 19.096 224.226 19.046 223.938 18.946C223.654 18.842 223.412 18.694 223.212 18.502C223.016 18.306 222.856 18.066 222.732 17.782C222.608 17.498 222.512 17.174 222.444 16.81L223.104 16.546C223.28 16.478 223.438 16.46 223.578 16.492C223.718 16.52 223.812 16.598 223.86 16.726C223.912 16.862 223.97 17 224.034 17.14C224.098 17.28 224.176 17.406 224.268 17.518C224.36 17.63 224.472 17.722 224.604 17.794C224.74 17.862 224.904 17.896 225.096 17.896C225.34 17.896 225.556 17.848 225.744 17.752C225.936 17.652 226.098 17.522 226.23 17.362C226.362 17.198 226.462 17.012 226.53 16.804C226.598 16.596 226.632 16.38 226.632 16.156C226.632 16 226.608 15.856 226.56 15.724C226.512 15.592 226.426 15.478 226.302 15.382C226.178 15.286 226.008 15.21 225.792 15.154C225.58 15.098 225.306 15.07 224.97 15.07L225.096 14.05C225.44 14.046 225.73 14.01 225.966 13.942C226.206 13.87 226.4 13.768 226.548 13.636C226.696 13.5 226.802 13.336 226.866 13.144C226.934 12.952 226.968 12.732 226.968 12.484C226.968 12.144 226.882 11.886 226.71 11.71C226.538 11.53 226.298 11.44 225.99 11.44C225.834 11.44 225.686 11.466 225.546 11.518C225.41 11.57 225.284 11.642 225.168 11.734C225.056 11.826 224.956 11.936 224.868 12.064C224.78 12.188 224.71 12.324 224.658 12.472C224.57 12.652 224.47 12.772 224.358 12.832C224.246 12.888 224.094 12.9 223.902 12.868L223.17 12.736Z" fill="#FFB300"/>
<circle cx="312.556" cy="45.5557" r="38.4444" fill="#004E88"/>
<path d="M301.222 53.6382V44.0312H305.759V41.8602H307.371V44.0312H311.921V52.2082C311.921 53.1355 311.362 53.5992 310.244 53.5992H309.139C309.13 53.4519 309.109 53.2785 309.074 53.0792C309.039 52.8799 308.996 52.6849 308.944 52.4942C308.901 52.2949 308.853 52.1389 308.801 52.0262H309.815C309.997 52.0262 310.127 51.9959 310.205 51.9352C310.292 51.8745 310.335 51.7575 310.335 51.5842V45.5392H307.345C307.319 45.8079 307.284 46.0635 307.241 46.3062C307.206 46.5402 307.159 46.7699 307.098 46.9952C307.462 47.2465 307.843 47.5369 308.242 47.8662C308.641 48.1869 309.022 48.5205 309.386 48.8672C309.75 49.2052 310.058 49.5259 310.309 49.8292C310.188 49.9072 310.045 50.0155 309.88 50.1542C309.724 50.2929 309.572 50.4402 309.425 50.5962C309.286 50.7435 309.178 50.8822 309.1 51.0122C308.788 50.5789 308.398 50.1239 307.93 49.6472C307.471 49.1705 307.011 48.7459 306.552 48.3732C306.249 48.9365 305.859 49.4435 305.382 49.8942C304.914 50.3449 304.364 50.7695 303.731 51.1682C303.662 51.0209 303.532 50.8432 303.341 50.6352C303.159 50.4185 302.986 50.2409 302.821 50.1022V53.6382H301.222ZM302.821 49.8552C303.627 49.4132 304.281 48.8499 304.784 48.1652C305.295 47.4719 305.607 46.5965 305.72 45.5392H302.821V49.8552ZM314.547 53.6122C314.46 53.4995 314.339 53.3739 314.183 53.2352C314.036 53.0965 313.88 52.9665 313.715 52.8452C313.55 52.7325 313.399 52.6459 313.26 52.5852C313.737 52.2299 314.183 51.7922 314.599 51.2722C315.024 50.7435 315.392 50.1802 315.704 49.5822C316.016 48.9755 316.241 48.3862 316.38 47.8142L317.953 48.3212C317.788 48.8585 317.572 49.4002 317.303 49.9462C317.65 50.6309 318.152 51.1422 318.811 51.4802V47.0472H315.834V45.6692H323.322V47.0472H320.436V48.5552H323.933V49.9462H320.436V51.9482C320.687 51.9829 320.952 52.0089 321.229 52.0262C321.506 52.0435 321.801 52.0522 322.113 52.0522C322.494 52.0522 322.897 52.0479 323.322 52.0392C323.755 52.0305 324.176 52.0132 324.583 51.9872C324.999 51.9525 325.363 51.9135 325.675 51.8702C325.64 51.9655 325.597 52.1172 325.545 52.3252C325.493 52.5332 325.445 52.7455 325.402 52.9622C325.367 53.1875 325.346 53.3652 325.337 53.4952C325.008 53.4952 324.648 53.4952 324.258 53.4952C323.877 53.5039 323.5 53.5082 323.127 53.5082C322.754 53.5169 322.416 53.5212 322.113 53.5212C321.108 53.5212 320.254 53.4432 319.552 53.2872C318.85 53.1399 318.256 52.9015 317.771 52.5722C317.294 52.2429 316.878 51.8182 316.523 51.2982C315.942 52.1735 315.284 52.9449 314.547 53.6122ZM313.858 46.3322V43.3422H318.694V41.8082H320.384V43.3422H325.285V46.2672H323.738V44.6292H315.405V46.3322H313.858Z" fill="white"/>
<circle cx="313.5" cy="13.5" r="13.5" fill="white"/>
<path d="M313.609 12.714C313.609 13.622 313.513 14.414 313.321 15.09C313.133 15.762 312.877 16.322 312.553 16.77C312.229 17.214 311.851 17.546 311.419 17.766C310.987 17.986 310.529 18.096 310.045 18.096C309.681 18.096 309.347 18.024 309.043 17.88C308.743 17.736 308.485 17.52 308.269 17.232C308.053 16.94 307.885 16.576 307.765 16.14C307.645 15.704 307.585 15.196 307.585 14.616C307.585 13.708 307.679 12.918 307.867 12.246C308.055 11.57 308.309 11.01 308.629 10.566C308.949 10.118 309.323 9.784 309.751 9.564C310.183 9.344 310.643 9.234 311.131 9.234C311.495 9.234 311.827 9.306 312.127 9.45C312.431 9.594 312.693 9.812 312.913 10.104C313.133 10.392 313.303 10.754 313.423 11.19C313.547 11.626 313.609 12.134 313.609 12.714ZM312.139 12.642C312.139 12.226 312.107 11.878 312.043 11.598C311.983 11.314 311.899 11.086 311.791 10.914C311.687 10.738 311.565 10.612 311.425 10.536C311.289 10.46 311.143 10.422 310.987 10.422C310.827 10.422 310.667 10.454 310.507 10.518C310.351 10.578 310.201 10.676 310.057 10.812C309.913 10.948 309.779 11.126 309.655 11.346C309.531 11.566 309.423 11.836 309.331 12.156C309.243 12.472 309.173 12.84 309.121 13.26C309.073 13.68 309.049 14.16 309.049 14.7C309.049 15.112 309.079 15.46 309.139 15.744C309.203 16.024 309.287 16.25 309.391 16.422C309.495 16.594 309.615 16.718 309.751 16.794C309.891 16.87 310.037 16.908 310.189 16.908C310.429 16.908 310.665 16.838 310.897 16.698C311.129 16.558 311.337 16.322 311.521 15.99C311.705 15.658 311.853 15.22 311.965 14.676C312.081 14.132 312.139 13.454 312.139 12.642ZM318.14 14.754L318.5 11.814C318.512 11.706 318.528 11.59 318.548 11.466C318.572 11.342 318.6 11.214 318.632 11.082L315.746 14.754H318.14ZM320.36 14.754L320.258 15.576C320.25 15.656 320.216 15.724 320.156 15.78C320.1 15.836 320.026 15.864 319.934 15.864H319.25L318.986 18H317.744L318.008 15.864H314.66C314.568 15.864 314.488 15.836 314.42 15.78C314.356 15.72 314.32 15.644 314.312 15.552L314.252 14.826L318.698 9.324H320.054L319.388 14.754H320.36Z" fill="#FFB300"/>
</svg>
