<?xml version="1.0" encoding="UTF-8"?>
<svg id="_レイヤー_2" data-name="レイヤー 2" xmlns="http://www.w3.org/2000/svg" xmlns:xlink="http://www.w3.org/1999/xlink" viewBox="0 0 256.01 264.49">
  <defs>
    <style>
      .cls-1, .cls-2 {
        fill: none;
      }

      .cls-2 {
        stroke: #fff;
        stroke-miterlimit: 10;
      }

      .cls-3 {
        fill: url(#_新規パターンスウォッチ_1);
      }

      .cls-4 {
        fill: #f7931e;
      }
    </style>
    <pattern id="_新規パターンスウォッチ_1" data-name=" 新規パターンスウォッチ 1" x="0" y="0" width="60" height="60" patternTransform="translate(-46.17 15017.57) rotate(-156.75) scale(2.48 -2.48)" patternUnits="userSpaceOnUse" viewBox="0 0 60 60">
      <g>
        <rect class="cls-1" width="60" height="60"/>
        <g>
          <rect class="cls-1" width="60" height="60"/>
          <g>
            <line class="cls-2" x1=".5" y1="60" x2=".5"/>
            <line class="cls-2" x1="15.25" y1="60" x2="15.25"/>
            <line class="cls-2" x1="30" y1="60" x2="30"/>
            <line class="cls-2" x1="44.75" y1="60" x2="44.75"/>
          </g>
          <rect class="cls-1" width="60" height="60"/>
        </g>
      </g>
    </pattern>
  </defs>
  <g id="_レイヤー_2-2" data-name=" レイヤー 2">
    <g id="_レイヤー_1-2" data-name=" レイヤー 1-2">
      <g>
        <path class="cls-4" d="M229.9,17.69c-4.64-3.79-34.2-26.64-64.04-13.83-18.39,7.9-32.87,15.49-43.66,38.71-7.97,17.16-6.55,21.34-16.94,41.25-9.66,18.52-14.73,27.95-26.52,36.05-16.71,11.49-30.99,7.9-49.23,18.26C10.8,148.76-.4,167.38.01,185.26c.54,23.6,16.22,75.39,38.37,78.95,32.72,5.27,16.29-66.21,89.78-69.53,52.45-2.37,28.7-74.76,41.18-90.23,35.51-44,132.97-27.56,60.56-86.76h0Z"/>
        <path class="cls-3" d="M229.9,17.69c-4.64-3.79-34.2-26.64-64.04-13.83-18.39,7.9-32.87,15.49-43.66,38.71-7.97,17.16-6.55,21.34-16.94,41.25-9.66,18.52-14.73,27.95-26.52,36.05-16.71,11.49-30.99,7.9-49.23,18.26C10.8,148.76-.4,167.38.01,185.26c.54,23.6,16.22,75.39,38.37,78.95,32.72,5.27,16.29-66.21,89.78-69.53,52.45-2.37,28.7-74.76,41.18-90.23,35.51-44,132.97-27.56,60.56-86.76h0Z"/>
      </g>
    </g>
  </g>
</svg>