<svg width="356" height="60" viewBox="0 0 356 60" fill="none" xmlns="http://www.w3.org/2000/svg">
<path d="M223.017 13H355V59H1V13H139.633" stroke="white"/>
<path d="M62.3371 44.176V36.9752H75.7881V42.5167C75.7881 43.0752 75.627 43.4833 75.3048 43.741C74.9827 43.9988 74.4886 44.1276 73.8228 44.1276H72.518C72.4965 43.9021 72.4482 43.6283 72.373 43.3061C72.3086 42.9839 72.2334 42.7154 72.1475 42.5006L65.575 42.5006V39.0855H72.5019V42.3879H73.3395C73.5543 42.3879 73.7047 42.3556 73.7906 42.2912C73.8872 42.216 73.9356 42.0764 73.9356 41.8724V38.4089H64.1896V44.176H62.3371ZM64.8662 36.3147V32.8835H73.2268V36.3147H64.8662ZM61.8377 32.2069V30.6766H68.0397V29.4201H70.0533V30.6766L76.2553 30.6766V32.2069H61.8377ZM66.6382 35.026H71.4387V34.1078H66.6382V35.026ZM67.2986 41.2119H70.7621V40.3098H67.2986V41.2119ZM77.7534 43.8699V34.9133H79.2838V35.6704L80.1859 35.2999C80.304 35.5254 80.4275 35.7831 80.5564 36.0731C80.696 36.3523 80.8088 36.6154 80.8947 36.8625V35.0099H82.1512V36.8141C82.2693 36.5779 82.3767 36.3201 82.4734 36.0409C82.5808 35.7617 82.672 35.5039 82.7472 35.2677L83.6654 35.5737V34.9455H84.8897C84.7823 34.8596 84.6696 34.7951 84.5514 34.7522L84.7447 34.5589H77.3346V32.9641H78.575V30.1611H80.1698V32.9641H80.943V29.5328H82.6022V30.6121H84.8253V32.1264H82.6022V32.9641H85.4213V33.7856C85.765 33.3453 86.0872 32.8674 86.3879 32.3519C86.6886 31.8257 86.9463 31.3048 87.1611 30.7893C87.3866 30.2739 87.5477 29.8121 87.6444 29.404L89.2875 29.6617C89.4486 30.2094 89.7009 30.7947 90.0446 31.4176C90.3883 32.0297 90.7803 32.6204 91.2206 33.1896C91.6609 33.748 92.0958 34.2152 92.5254 34.5911C92.3858 34.6663 92.2247 34.779 92.0421 34.9294C91.8703 35.069 91.7038 35.2193 91.5428 35.3804C91.3817 35.5308 91.2528 35.665 91.1561 35.7831C91.0487 35.665 90.9306 35.5361 90.8017 35.3965C90.6836 35.2462 90.5655 35.0958 90.4473 34.9455V35.9926L86.5489 35.9926V35.0099C86.4416 35.1495 86.3288 35.2891 86.2107 35.4287C86.0925 35.5684 85.9744 35.7026 85.8563 35.8315C85.7596 35.7241 85.6522 35.6167 85.5341 35.5093C85.4267 35.3912 85.3139 35.2784 85.1958 35.171V43.8699H77.7534ZM86.7584 44.2082V38.5539H85.6468V36.9269L91.5589 36.9269V41.373C91.5589 41.91 91.4192 42.3127 91.14 42.5812C90.8608 42.8389 90.399 42.9678 89.7546 42.9678H89.0297C89.019 42.8067 88.9922 42.6134 88.9492 42.3879C88.9062 42.1623 88.8579 41.9422 88.8042 41.7274C88.7613 41.5019 88.7076 41.3247 88.6431 41.1958H89.2714C89.4754 41.1958 89.6097 41.1636 89.6741 41.0991C89.7493 41.0347 89.7869 40.9166 89.7869 40.7447V38.5539L88.5465 38.5539V44.2082H86.7584ZM79.2838 42.3234H83.6654V40.9542C83.558 41.0293 83.4453 41.1152 83.3271 41.2119C83.2197 41.2978 83.1285 41.3837 83.0533 41.4696C82.9029 41.2978 82.7526 41.1099 82.6022 40.9058C82.4519 40.691 82.3015 40.4762 82.1512 40.2615V42.0335H80.8947V40.197C80.7443 40.4333 80.5832 40.6696 80.4114 40.9058C80.2503 41.1421 80.0838 41.3515 79.912 41.5341C79.8368 41.4482 79.7402 41.3622 79.6221 41.2763C79.5147 41.1797 79.4019 41.0938 79.2838 41.0186V42.3234ZM86.9517 34.4461L90.0607 34.4461C89.7385 34.0058 89.4325 33.544 89.1425 33.0607C88.8633 32.5774 88.6378 32.1264 88.4659 31.7076C88.3048 32.1371 88.09 32.5882 87.8216 33.0607C87.5531 33.5333 87.2631 33.995 86.9517 34.4461ZM79.2838 40.4064C79.4986 40.1594 79.7133 39.8802 79.9281 39.5688C80.1429 39.2573 80.3201 38.9781 80.4597 38.7311H79.2838V40.4064ZM83.6654 40.3259V38.7311H82.5539C82.6935 38.9674 82.86 39.2305 83.0533 39.5204C83.2573 39.8104 83.4614 40.0789 83.6654 40.3259ZM79.2838 37.4907H80.8947V36.9269C80.7765 36.9698 80.6101 37.0397 80.3953 37.1363C80.1912 37.233 80.0302 37.3135 79.912 37.3779C79.8583 37.1954 79.767 36.9645 79.6382 36.6853C79.52 36.3953 79.4019 36.1429 79.2838 35.9281V37.4907ZM82.1512 37.4907H83.6654V36.0248C83.5795 36.2288 83.4775 36.449 83.3594 36.6853C83.252 36.9215 83.1392 37.1417 83.0211 37.3457C82.9137 37.292 82.7687 37.233 82.5861 37.1685C82.4143 37.0933 82.2693 37.0343 82.1512 36.9913V37.4907ZM96.311 44.176V39.3755C95.3982 39.7836 94.4048 40.1917 93.3309 40.5998C93.2879 40.4494 93.2127 40.2615 93.1053 40.0359C92.9979 39.8104 92.8798 39.5956 92.7509 39.3916C92.6328 39.1768 92.5254 39.0103 92.4287 38.8922C93.696 38.5271 94.8988 38.0975 96.0372 37.6035C97.1755 37.1095 98.2334 36.5456 99.2107 35.912H92.9281V34.2528H98.6629V32.8996H94.6035V31.2404H98.6629V29.4845H100.596V31.2404H102.916V32.6258C103.614 31.7881 104.21 30.8699 104.704 29.8711L106.411 30.7571C105.552 32.1103 104.677 33.2755 103.786 34.2528H107.652V35.912H102.062C101.729 36.1912 101.385 36.4597 101.031 36.7175C100.687 36.9752 100.328 37.2222 99.9517 37.4585H105.203V44.176H96.311ZM98.2119 42.6295H103.335V41.518H98.2119V42.6295ZM98.2119 40.1165H103.335V39.0211H98.2119V40.1165ZM100.596 34.2528H101.369C101.606 34.038 101.831 33.8178 102.046 33.5923C102.271 33.3668 102.486 33.1359 102.69 32.8996H100.596V34.2528ZM115.561 43.8699C115.411 43.247 115.191 42.5382 114.901 41.7435C114.622 40.938 114.294 40.1004 113.918 39.2305C113.542 38.3606 113.14 37.5122 112.71 36.6853C112.033 36.9967 111.416 37.292 110.857 37.5713C110.31 37.8397 109.896 38.0492 109.617 38.1995L108.586 36.4758C108.941 36.3362 109.408 36.1483 109.988 35.912C110.568 35.6758 111.19 35.4126 111.856 35.1227C111.523 34.5535 111.19 34.038 110.857 33.5762C110.525 33.1037 110.197 32.701 109.875 32.368L111.454 31.4981C111.797 31.874 112.141 32.309 112.485 32.803C112.839 33.297 113.188 33.8286 113.532 34.3978C113.94 34.2152 114.342 34.038 114.74 33.8662C115.137 33.6836 115.508 33.5171 115.851 33.3668C115.765 33.1198 115.647 32.8513 115.497 32.5613C115.357 32.2606 115.196 31.9707 115.014 31.6915C114.842 31.4122 114.665 31.1813 114.482 30.9988L116.093 30.1933C116.265 30.3651 116.447 30.596 116.641 30.886C116.834 31.176 117.017 31.4767 117.188 31.7881C117.36 32.0888 117.494 32.3627 117.591 32.6097C118.257 32.3304 118.912 32.1908 119.556 32.1908C120.211 32.1908 120.802 32.309 121.328 32.5452C121.855 32.7815 122.273 33.1252 122.585 33.5762C122.896 34.0273 123.052 34.5696 123.052 35.2032C123.052 36.0194 122.869 36.6853 122.504 37.2007C122.139 37.7162 121.645 38.0921 121.022 38.3284C120.41 38.5539 119.717 38.6506 118.944 38.6183C118.182 38.5861 117.398 38.4304 116.592 38.1512C116.603 37.9901 116.603 37.786 116.592 37.539C116.582 37.2813 116.565 37.0289 116.544 36.7819C116.523 36.5349 116.49 36.3309 116.447 36.1698C116.941 36.3953 117.457 36.5564 117.994 36.653C118.531 36.7497 119.03 36.7658 119.492 36.7014C119.964 36.6369 120.346 36.4812 120.636 36.2342C120.926 35.9765 121.071 35.6167 121.071 35.1549C121.071 34.7575 120.936 34.4568 120.668 34.2528C120.41 34.038 120.066 33.9306 119.637 33.9306C119.207 33.9199 118.74 34.0165 118.235 34.2206C117.774 34.4031 117.199 34.6448 116.512 34.9455C115.835 35.2354 115.132 35.5523 114.401 35.8959C114.853 36.7228 115.277 37.5659 115.674 38.425C116.082 39.2842 116.447 40.1165 116.77 40.9219C117.092 41.7274 117.355 42.4577 117.559 43.1128C117.376 43.145 117.156 43.1987 116.898 43.2739C116.651 43.3598 116.404 43.4511 116.157 43.5477C115.921 43.6551 115.722 43.7625 115.561 43.8699ZM131.123 39.3916C131.069 39.2412 130.983 39.0748 130.865 38.8922C130.758 38.6989 130.639 38.5163 130.511 38.3445C130.392 38.1619 130.285 38.0277 130.188 37.9418C130.843 37.6733 131.45 37.3511 132.009 36.9752C132.578 36.5993 133.099 36.1859 133.571 35.7348C133.185 35.273 132.836 34.7468 132.524 34.1561C132.223 34.6072 131.907 35.0207 131.574 35.3965C131.391 35.2462 131.155 35.0851 130.865 34.9133C130.586 34.7307 130.355 34.5964 130.172 34.5105C130.419 34.2635 130.677 33.9413 130.945 33.544C131.225 33.1359 131.493 32.6956 131.751 32.223C132.019 31.7398 132.261 31.2619 132.476 30.7893C132.691 30.3168 132.852 29.8926 132.959 29.5167L134.634 29.9195C134.57 30.0913 134.506 30.2685 134.441 30.4511C134.377 30.6336 134.302 30.8162 134.216 30.9988L137.647 30.9988L138.13 31.4015C137.872 32.1962 137.55 32.948 137.164 33.6568C136.788 34.3656 136.353 35.0314 135.859 35.6543C136.385 36.0838 136.954 36.4544 137.566 36.7658C138.178 37.0772 138.823 37.3404 139.499 37.5551C139.371 37.6733 139.231 37.8344 139.081 38.0384C138.941 38.2317 138.812 38.4304 138.694 38.6344C138.587 38.8385 138.501 39.005 138.436 39.1338C137.749 38.8546 137.088 38.5324 136.455 38.1673C135.821 37.8021 135.236 37.3833 134.699 36.9108C134.183 37.4048 133.625 37.8612 133.024 38.28C132.433 38.6989 131.799 39.0694 131.123 39.3916ZM126.612 44.176V37.5551C126.183 37.6088 125.769 37.6572 125.372 37.7001C124.985 37.7431 124.641 37.7753 124.341 37.7968L124.115 36.1537C124.276 36.1537 124.454 36.1537 124.647 36.1537C124.851 36.1429 125.06 36.1322 125.275 36.1214C125.458 35.9067 125.651 35.6543 125.855 35.3643C126.07 35.0743 126.279 34.7683 126.483 34.4461C126.118 34.1776 125.705 33.893 125.243 33.5923C124.781 33.2809 124.352 33.0231 123.954 32.8191L124.792 31.4659C124.888 31.5196 124.99 31.5787 125.098 31.6431C125.216 31.7076 125.334 31.7774 125.452 31.8525C125.603 31.6055 125.758 31.3317 125.919 31.031C126.081 30.7195 126.231 30.4188 126.371 30.1289C126.51 29.8282 126.612 29.5812 126.677 29.3879L128.239 29.9678C128.024 30.3974 127.772 30.8591 127.482 31.3532C127.203 31.8364 126.94 32.2714 126.693 32.658C126.811 32.7332 126.924 32.8083 127.031 32.8835C127.149 32.9587 127.257 33.0339 127.353 33.109C127.611 32.6795 127.847 32.2767 128.062 31.9009C128.277 31.5143 128.443 31.1921 128.561 30.9343L130.059 31.6431C129.855 32.0297 129.592 32.4754 129.27 32.9802C128.959 33.4849 128.626 34.0004 128.271 34.5266C127.928 35.0421 127.589 35.5254 127.257 35.9765C127.525 35.955 127.788 35.9335 128.046 35.912C128.304 35.8905 128.551 35.8691 128.787 35.8476C128.712 35.665 128.631 35.4932 128.545 35.3321C128.47 35.171 128.395 35.026 128.32 34.8972L129.689 34.2528C129.85 34.5213 130.017 34.8381 130.188 35.2032C130.36 35.5684 130.521 35.9335 130.672 36.2986C130.833 36.6638 130.956 36.9806 131.042 37.2491C130.838 37.3242 130.586 37.4263 130.285 37.5551C129.995 37.684 129.748 37.8021 129.544 37.9095C129.49 37.6948 129.415 37.4531 129.318 37.1846C129.168 37.2061 129.002 37.233 128.819 37.2652C128.647 37.2867 128.47 37.3135 128.287 37.3457V44.176H126.612ZM136.986 44.3048C136.482 44.0149 135.891 43.7195 135.214 43.4188C134.549 43.1181 133.872 42.8443 133.185 42.5973C132.497 42.3503 131.864 42.157 131.284 42.0173L132.089 40.4548C132.669 40.6051 133.308 40.8092 134.006 41.0669C134.704 41.3247 135.397 41.6039 136.084 41.9046C136.782 42.2053 137.4 42.506 137.937 42.8067C137.851 42.9033 137.743 43.043 137.615 43.2255C137.486 43.4188 137.362 43.6121 137.244 43.8055C137.137 43.9988 137.051 44.1652 136.986 44.3048ZM136.261 41.0508C136.014 40.879 135.692 40.691 135.295 40.487C134.908 40.2722 134.506 40.0735 134.087 39.891C133.668 39.6976 133.297 39.5527 132.975 39.456L133.781 38.0545C134.081 38.1404 134.441 38.28 134.86 38.4734C135.279 38.6667 135.692 38.8707 136.1 39.0855C136.519 39.2895 136.857 39.4775 137.115 39.6493C137.04 39.7567 136.943 39.9017 136.825 40.0843C136.707 40.2561 136.594 40.4333 136.487 40.6159C136.39 40.7984 136.315 40.9434 136.261 41.0508ZM125.307 42.5489C125.114 42.463 124.872 42.3825 124.582 42.3073C124.292 42.2214 124.051 42.1623 123.857 42.1301C124.019 41.8401 124.174 41.4804 124.325 41.0508C124.486 40.6105 124.625 40.1594 124.743 39.6976C124.872 39.2251 124.964 38.7955 125.017 38.4089L126.435 38.6828C126.381 39.0694 126.29 39.5097 126.161 40.0037C126.043 40.487 125.909 40.9595 125.758 41.4213C125.608 41.8724 125.458 42.2482 125.307 42.5489ZM129.544 41.969C129.458 41.7328 129.351 41.4159 129.222 41.0186C129.104 40.6212 128.986 40.2131 128.867 39.7943C128.76 39.3647 128.674 38.9942 128.61 38.6828L130.043 38.3284C130.108 38.5754 130.199 38.8976 130.317 39.2949C130.435 39.6815 130.559 40.0682 130.688 40.4548C130.817 40.8306 130.929 41.1367 131.026 41.373C130.822 41.4267 130.57 41.5126 130.269 41.6307C129.979 41.7489 129.737 41.8616 129.544 41.969ZM134.667 34.5105C135.171 33.8447 135.569 33.1627 135.859 32.4647H133.523L133.442 32.5936C133.614 32.948 133.802 33.2862 134.006 33.6084C134.21 33.9306 134.43 34.2313 134.667 34.5105ZM146.233 44.1599V38.6828C145.513 39.5956 144.681 40.4548 143.736 41.2602C142.802 42.0657 141.781 42.7798 140.675 43.4027C140.589 43.2524 140.471 43.0805 140.321 42.8872C140.171 42.6832 140.015 42.4899 139.854 42.3073C139.693 42.1247 139.558 41.9959 139.451 41.9207C139.967 41.6844 140.509 41.3837 141.078 41.0186C141.647 40.6427 142.211 40.2292 142.77 39.7782C143.328 39.3164 143.849 38.8439 144.332 38.3606C144.815 37.8666 145.229 37.3887 145.572 36.9269H141.159V35.1871H146.233V33.2862H140.16V31.5304H146.233V29.5006H148.134V31.5304H154.239V33.2862H148.134V35.1871H153.257V36.9269H148.827C149.321 37.5498 149.911 38.178 150.599 38.8116C151.286 39.4345 152.005 40.0037 152.757 40.5192C153.52 41.0347 154.245 41.4535 154.932 41.7757C154.781 41.8724 154.615 42.0173 154.432 42.2107C154.261 42.3932 154.094 42.5919 153.933 42.8067C153.783 43.0107 153.659 43.1987 153.563 43.3705C152.961 43.0483 152.333 42.6456 151.678 42.1623C151.033 41.6683 150.405 41.1206 149.793 40.5192C149.181 39.9071 148.628 39.2681 148.134 38.6022V44.1599H146.233ZM163.164 44.3371C163.002 44.1545 162.777 43.9504 162.487 43.7249C162.208 43.5101 161.945 43.3329 161.698 43.1933C162.278 42.7852 162.745 42.3181 163.099 41.7918C163.454 41.2549 163.706 40.5998 163.856 39.8265C164.017 39.0425 164.098 38.0867 164.098 36.9591V30.1128H169.527V42.5167C169.527 43.1074 169.371 43.5423 169.059 43.8216C168.759 44.1008 168.259 44.2404 167.561 44.2404H166.401C166.38 43.9719 166.326 43.6497 166.24 43.2739C166.154 42.9087 166.063 42.6188 165.967 42.404H167.03C167.266 42.404 167.432 42.361 167.529 42.2751C167.626 42.1784 167.674 42.0388 167.674 41.8563V38.7472H165.838C165.72 40.0467 165.446 41.1475 165.016 42.0496C164.597 42.9409 163.98 43.7034 163.164 44.3371ZM161.472 42.9356C161.322 42.6993 161.134 42.4416 160.908 42.1623C160.694 41.8831 160.468 41.62 160.232 41.373C159.995 41.1152 159.775 40.9005 159.571 40.7286L160.667 39.7943H155.399V38.2962H156.736V32.7708H155.512V31.2243H156.736V29.6617H158.589V31.2243H160.425V29.6617H162.278V31.2243L163.373 31.2243V32.7708H162.278V38.2962H163.518V39.7943H160.908C161.112 39.9554 161.332 40.1594 161.569 40.4064C161.816 40.6427 162.052 40.8897 162.278 41.1475C162.503 41.3945 162.68 41.6146 162.809 41.8079C162.713 41.8724 162.573 41.9744 162.39 42.114C162.218 42.2429 162.047 42.3825 161.875 42.5328C161.703 42.6832 161.569 42.8174 161.472 42.9356ZM156.237 44.0793C156.065 43.8753 155.845 43.6551 155.576 43.4188C155.318 43.1933 155.093 43.0268 154.9 42.9195C155.082 42.8013 155.297 42.6295 155.544 42.404C155.802 42.1677 156.065 41.91 156.333 41.6307C156.602 41.3408 156.849 41.0508 157.074 40.7608C157.311 40.4709 157.493 40.2078 157.622 39.9715L159.136 40.8736C158.9 41.2602 158.61 41.6629 158.266 42.0818C157.923 42.4899 157.568 42.8711 157.203 43.2255C156.849 43.5799 156.527 43.8645 156.237 44.0793ZM165.902 37.2007H167.674V35.2354H165.902V37.2007ZM165.902 33.6729H167.674V31.7076H165.902V33.6729ZM158.589 38.2962H160.425V37.2974H158.589V38.2962ZM158.589 33.7695H160.425V32.7708H158.589V33.7695ZM158.589 36.0087H160.425V35.0421H158.589V36.0087ZM172.797 43.1128C172.722 42.6724 172.663 42.1355 172.62 41.5019C172.577 40.8575 172.544 40.1594 172.523 39.4077C172.512 38.6452 172.512 37.8612 172.523 37.0558C172.544 36.2503 172.577 35.4663 172.62 34.7038C172.673 33.9306 172.738 33.2164 172.813 32.5613C172.899 31.9062 172.995 31.3478 173.103 30.886L174.988 31.2726C174.869 31.6592 174.767 32.164 174.682 32.7869C174.596 33.399 174.526 34.0756 174.472 34.8166C174.418 35.5469 174.381 36.2986 174.359 37.0719C174.349 37.8451 174.354 38.5969 174.375 39.3271C174.397 40.0574 174.435 40.7179 174.488 41.3086C174.542 41.8992 174.612 42.3771 174.698 42.7423L172.797 43.1128ZM179.643 42.2429C177.785 42.1892 176.733 41.5824 176.486 40.4226C176.421 40.1326 176.4 39.8104 176.421 39.456C176.443 39.1016 176.523 38.7096 176.663 38.28L178.354 38.6989C178.279 38.9029 178.236 39.0855 178.226 39.2466C178.226 39.4077 178.247 39.5527 178.29 39.6815C178.43 40.0682 178.999 40.2776 179.998 40.3098C180.481 40.3205 180.996 40.3044 181.544 40.2615C182.102 40.2078 182.645 40.1326 183.171 40.0359C183.708 39.9393 184.175 39.8319 184.572 39.7138C184.551 39.8641 184.524 40.0682 184.492 40.3259C184.47 40.5836 184.454 40.8468 184.444 41.1152C184.433 41.373 184.433 41.5878 184.444 41.7596C183.939 41.8885 183.397 41.9905 182.817 42.0657C182.247 42.1409 181.684 42.1945 181.125 42.2268C180.577 42.2482 180.083 42.2536 179.643 42.2429ZM177.227 34.3817L177.114 32.4002C177.522 32.4539 178.021 32.4862 178.612 32.4969C179.203 32.5076 179.815 32.5023 180.449 32.4808C181.093 32.4486 181.705 32.4002 182.285 32.3358C182.876 32.2606 183.364 32.1694 183.751 32.062L183.67 34.0112C183.241 34.0863 182.741 34.1561 182.172 34.2206C181.603 34.2743 181.012 34.3172 180.4 34.3494C179.799 34.3817 179.219 34.4031 178.66 34.4139C178.113 34.4139 177.635 34.4031 177.227 34.3817ZM191.725 43.4994C190.93 43.596 190.227 43.5584 189.615 43.3866C189.002 43.2255 188.525 42.9517 188.181 42.5651C187.837 42.1784 187.665 41.6952 187.665 41.1152C187.665 40.3527 187.971 39.6064 188.584 38.8761C189.207 38.1351 190.06 37.5337 191.145 37.0719V34.6394C190.554 34.6824 189.98 34.7146 189.421 34.7361C188.874 34.7575 188.363 34.7575 187.891 34.7361L187.794 32.8835C188.202 32.9265 188.702 32.9426 189.292 32.9318C189.883 32.9104 190.501 32.8674 191.145 32.803V30.2094L192.933 30.2255V32.5936C193.47 32.5076 193.969 32.4164 194.431 32.3197C194.904 32.2123 195.29 32.0995 195.591 31.9814L195.784 33.7534C195.409 33.893 194.974 34.0165 194.48 34.1239C193.986 34.2313 193.47 34.328 192.933 34.4139V36.5242C193.309 36.4382 193.701 36.3738 194.109 36.3309C194.517 36.2879 194.941 36.2664 195.382 36.2664C196.413 36.2664 197.288 36.4275 198.007 36.7497C198.738 37.0611 199.291 37.4853 199.667 38.0223C200.043 38.5485 200.23 39.1446 200.23 39.8104C200.23 40.8414 199.919 41.6522 199.296 42.2429C198.673 42.8335 197.83 43.1235 196.767 43.1128C195.94 43.1128 195.242 42.9087 194.673 42.5006C194.114 42.0818 193.712 41.4643 193.465 40.6481C193.712 40.5729 194.012 40.4601 194.367 40.3098C194.721 40.1487 195 39.9983 195.204 39.8587C195.473 40.7501 195.988 41.1958 196.751 41.1958C197.223 41.1958 197.583 41.0615 197.83 40.7931C198.077 40.5138 198.201 40.1702 198.201 39.7621C198.201 39.2359 197.964 38.8009 197.492 38.4572C197.019 38.1028 196.311 37.9257 195.366 37.9257C194.506 37.9257 193.696 38.033 192.933 38.2478V42.259C192.933 42.6563 192.842 42.9463 192.659 43.1289C192.477 43.3222 192.165 43.4457 191.725 43.4994ZM199.924 36.0409C199.667 35.7831 199.318 35.5039 198.877 35.2032C198.437 34.8918 197.986 34.6018 197.524 34.3333C197.062 34.0541 196.649 33.8447 196.284 33.7051L197.299 32.2553C197.685 32.4056 198.109 32.6097 198.571 32.8674C199.033 33.1252 199.484 33.399 199.924 33.689C200.365 33.9789 200.735 34.2582 201.036 34.5266C200.929 34.6448 200.794 34.8059 200.633 35.0099C200.483 35.214 200.338 35.4126 200.198 35.6059C200.069 35.7993 199.978 35.9442 199.924 36.0409ZM190.565 41.7918C190.769 41.8026 190.914 41.7811 191 41.7274C191.097 41.6737 191.145 41.577 191.145 41.4374V38.9727C190.651 39.2734 190.259 39.601 189.969 39.9554C189.679 40.3098 189.534 40.6642 189.534 41.0186C189.534 41.2656 189.625 41.4535 189.808 41.5824C189.99 41.7113 190.243 41.7811 190.565 41.7918ZM209.3 43.9988C209.107 43.7195 208.892 43.4403 208.656 43.1611C208.43 42.8926 208.178 42.6671 207.898 42.4845C208.715 42.1194 209.386 41.6844 209.912 41.1797C210.438 40.6749 210.83 40.0467 211.088 39.2949C211.346 38.5324 211.475 37.6035 211.475 36.5081V35.2677C210.766 35.3214 210.1 35.3697 209.477 35.4126C208.865 35.4449 208.403 35.461 208.092 35.461L207.834 33.5279C208.221 33.5494 208.741 33.5547 209.397 33.544C210.062 33.5225 210.755 33.4903 211.475 33.4473V30.145H213.375V33.2862C213.912 33.2325 214.401 33.1681 214.841 33.0929C215.292 33.0178 215.652 32.9426 215.921 32.8674V34.8166C215.674 34.8596 215.325 34.9079 214.874 34.9616C214.423 35.0153 213.923 35.069 213.375 35.1227V36.5081C213.375 38.366 213.053 39.891 212.409 41.083C211.775 42.2644 210.739 43.2363 209.3 43.9988ZM204.274 41.6307C204.209 41.2549 204.15 40.7877 204.097 40.2292C204.043 39.6601 204 39.0372 203.968 38.3606C203.936 37.684 203.914 36.986 203.903 36.2664C203.893 35.5469 203.887 34.8488 203.887 34.1722C203.898 33.4957 203.919 32.8781 203.952 32.3197C203.984 31.7613 204.027 31.2995 204.081 30.9343L206.03 31.1921C205.944 31.6002 205.879 32.1425 205.836 32.8191C205.793 33.4849 205.767 34.2152 205.756 35.0099C205.756 35.8046 205.767 36.5993 205.788 37.3941C205.82 38.178 205.863 38.9029 205.917 39.5688C205.981 40.2239 206.062 40.7501 206.159 41.1475L204.274 41.6307ZM225.747 43.5155C224.458 43.5155 223.508 43.2739 222.896 42.7906C222.284 42.2966 221.978 41.6952 221.978 40.9864C221.978 40.5246 222.09 40.1326 222.316 39.8104C222.542 39.4882 222.837 39.2412 223.202 39.0694C223.567 38.8868 223.959 38.7955 224.378 38.7955C225.173 38.7955 225.812 39.0425 226.295 39.5366C226.789 40.0306 227.106 40.6427 227.245 41.373C227.643 41.1904 227.965 40.9112 228.212 40.5353C228.47 40.1594 228.599 39.7084 228.599 39.1822C228.599 38.7311 228.491 38.3284 228.276 37.974C228.062 37.6196 227.755 37.3404 227.358 37.1363C226.971 36.9215 226.52 36.8141 226.005 36.8141C225.285 36.8141 224.657 36.9 224.12 37.0719C223.594 37.2437 223.116 37.5176 222.686 37.8934C222.493 38.0653 222.235 38.2854 221.913 38.5539C221.602 38.8224 221.306 39.064 221.027 39.2788L219.706 37.8612C220.19 37.582 220.705 37.2276 221.253 36.798C221.8 36.3684 222.354 35.8905 222.912 35.3643C223.47 34.8381 224.002 34.2957 224.507 33.7373C225.012 33.1681 225.463 32.6097 225.86 32.062C225.398 32.1694 224.893 32.2714 224.346 32.368C223.809 32.4647 223.288 32.5452 222.783 32.6097C222.289 32.6741 221.87 32.7171 221.527 32.7385L221.172 30.9021C221.462 30.9236 221.822 30.9236 222.252 30.9021C222.692 30.8699 223.164 30.8323 223.669 30.7893C224.174 30.7356 224.663 30.6712 225.135 30.596C225.618 30.5209 226.048 30.4457 226.424 30.3705C226.81 30.2846 227.095 30.1987 227.278 30.1128L228.727 31.0793C228.362 31.7988 227.857 32.556 227.213 33.3507C226.58 34.1347 225.898 34.8918 225.167 35.6221C225.35 35.5361 225.554 35.4717 225.779 35.4287C226.005 35.3751 226.225 35.3482 226.44 35.3482C227.288 35.3482 228.024 35.5093 228.647 35.8315C229.27 36.1537 229.753 36.6047 230.097 37.1846C230.451 37.7538 230.628 38.4197 230.628 39.1822C230.628 39.9876 230.424 40.7179 230.016 41.373C229.619 42.0281 229.055 42.5489 228.325 42.9356C227.594 43.3222 226.735 43.5155 225.747 43.5155ZM225.538 41.7435C225.484 41.3354 225.355 41.0078 225.151 40.7608C224.958 40.5138 224.7 40.3903 224.378 40.3903C224.206 40.3903 224.061 40.4333 223.943 40.5192C223.825 40.6051 223.766 40.734 223.766 40.9058C223.766 41.1314 223.884 41.3193 224.12 41.4696C224.367 41.62 224.775 41.7059 225.344 41.7274C225.377 41.7381 225.409 41.7435 225.441 41.7435C225.473 41.7435 225.506 41.7435 225.538 41.7435ZM240.503 44.2243C240.331 44.0739 240.133 43.9075 239.907 43.7249C239.682 43.5531 239.456 43.4027 239.23 43.2739V43.7249H234.366V39.0855H239.23V42.9356C239.896 42.3019 240.423 41.6093 240.809 40.8575C241.207 40.095 241.486 39.2036 241.647 38.1834C241.819 37.1632 241.905 35.955 241.905 34.5589V34.0917H240.133V32.3841H242.871V29.5006H244.788V32.3841H248.268V34.0917H243.789V34.5589C243.789 34.7307 243.784 34.9079 243.773 35.0905C243.773 35.2623 243.773 35.4287 243.773 35.5898H247.301C247.301 37.1148 247.269 38.4197 247.204 39.5043C247.14 40.5783 247.022 41.475 246.85 42.1945C246.678 42.9033 246.394 43.3974 245.996 43.6766C245.599 43.9665 245.051 44.1115 244.353 44.1115H243.113C243.102 43.9504 243.075 43.7518 243.032 43.5155C242.989 43.2792 242.941 43.0483 242.887 42.8228C242.844 42.5865 242.796 42.4093 242.742 42.2912H244.031C244.407 42.2912 244.665 42.2268 244.804 42.0979C244.944 41.969 245.051 41.765 245.126 41.4857C245.245 41.0562 245.336 40.4977 245.4 39.8104C245.475 39.1124 245.513 38.2747 245.513 37.2974H243.628C243.446 38.8439 243.091 40.1863 242.565 41.3247C242.05 42.463 241.362 43.4296 240.503 44.2243ZM233.657 33.7373V32.2553H239.73V33.7373H233.657ZM234.446 31.482V29.9517H239.069V31.482H234.446ZM234.43 38.28V36.7819H239.069V38.28H234.43ZM234.43 36.0087V34.5105H239.069V36.0087H234.43ZM236.009 42.2429H237.587V40.5675H236.009V42.2429ZM260.301 44.1115C260.29 43.9397 260.264 43.7356 260.221 43.4994C260.178 43.2739 260.129 43.0537 260.076 42.8389C260.022 42.6134 259.963 42.4308 259.898 42.2912H260.978C261.192 42.2912 261.348 42.2536 261.445 42.1784C261.541 42.1033 261.59 41.9744 261.59 41.7918V35.3804H257.128V29.9033H263.458V42.4845C263.458 43.043 263.308 43.4511 263.007 43.7088C262.717 43.9773 262.24 44.1115 261.574 44.1115H260.301ZM249.701 44.1276V29.9033L256 29.9033V35.3804H251.554V44.1276H249.701ZM253.455 41.4535V36.6691H259.528V41.4535H253.455ZM255.291 40.0198H257.691V38.119H255.291V40.0198ZM258.932 34.0756H261.59V33.1896H258.932V34.0756ZM251.554 34.0756H254.196V33.1896H251.554V34.0756ZM258.932 32.0781H261.59V31.2243H258.932V32.0781ZM251.554 32.0781H254.196V31.2243H251.554V32.0781ZM268.597 44.1599V39.1177C268.146 39.5043 267.663 39.8695 267.147 40.2131C266.632 40.5461 266.09 40.8575 265.52 41.1475C265.413 40.9434 265.241 40.6964 265.005 40.4064C264.769 40.1165 264.554 39.9017 264.361 39.7621C265.477 39.2895 266.417 38.758 267.18 38.1673C267.953 37.5659 268.592 36.9 269.097 36.1698L264.908 36.1698V34.6555L269.95 34.6555C270.004 34.5159 270.058 34.3763 270.112 34.2367C270.176 34.0971 270.23 33.9575 270.273 33.8178H266.036V32.3036H270.675C270.697 32.1747 270.718 32.0458 270.74 31.917C270.772 31.7774 270.799 31.6431 270.82 31.5142C269.993 31.5572 269.199 31.5948 268.436 31.627C267.684 31.6592 267.024 31.67 266.455 31.6592C266.412 31.423 266.337 31.1599 266.229 30.8699C266.133 30.5692 266.052 30.349 265.988 30.2094C266.75 30.2202 267.566 30.2148 268.436 30.1933C269.306 30.1611 270.176 30.1181 271.046 30.0644C271.916 30 272.748 29.9248 273.543 29.8389C274.337 29.7423 275.052 29.6456 275.685 29.5489C276.319 29.4416 276.818 29.3288 277.183 29.2107L278.134 30.6121C277.543 30.7625 276.759 30.9021 275.782 31.031C274.815 31.1599 273.79 31.2726 272.705 31.3693C272.694 31.5304 272.673 31.6915 272.641 31.8525C272.619 32.0029 272.598 32.1532 272.576 32.3036H278.279V33.8178H272.206C272.163 33.9575 272.114 34.0971 272.061 34.2367C272.007 34.3763 271.953 34.5159 271.9 34.6555H279.439V36.1698H271.159C271.083 36.3094 270.998 36.4436 270.901 36.5725C270.815 36.7014 270.729 36.8249 270.643 36.943H277.57V44.1599L268.597 44.1599ZM270.546 42.8389L275.637 42.8389V42.0335L270.546 42.0335V42.8389ZM270.546 39.0533H275.637V38.2639H270.546V39.0533ZM270.546 40.9219L275.637 40.9219V40.1809L270.546 40.1809V40.9219ZM286.849 38.4572V35.9603C286.752 36.0785 286.656 36.1912 286.559 36.2986C286.462 36.406 286.371 36.5027 286.285 36.5886C286.167 36.4705 286.027 36.3523 285.866 36.2342C285.705 36.1053 285.544 35.9872 285.383 35.8798V35.9765H280.985V34.5266H285.383V35.2838C285.651 34.9831 285.92 34.634 286.188 34.2367C286.457 33.8393 286.698 33.4366 286.913 33.0285C287.128 32.6204 287.289 32.2499 287.397 31.917L288.089 32.1425V31.5626H286.043V30.3222H288.089V29.4845H289.732V30.3222H291.359V29.4845H293.002V30.3222H295.081V31.5626H293.002V32.4325H292.181C292.138 32.5076 292.095 32.5989 292.052 32.7063C292.009 32.803 291.961 32.8943 291.907 32.9802H294.823V33.995H291.988V34.575H294.388V35.4287H291.988V36.0087H294.388V36.8625H291.988V37.4585H294.968V38.4572H286.849ZM286.333 44.2565C286.258 44.0095 286.167 43.7464 286.059 43.4672C285.963 43.1987 285.85 42.9678 285.721 42.7745C286.387 42.7208 287.01 42.6241 287.59 42.4845C288.17 42.3342 288.707 42.157 289.201 41.9529C288.642 41.4589 288.154 40.8736 287.735 40.197H286.301V38.9727H294.066L294.597 39.4721C294.286 39.9339 293.926 40.3796 293.518 40.8092C293.121 41.2387 292.675 41.6361 292.181 42.0012C292.686 42.2053 293.223 42.3717 293.792 42.5006C294.361 42.6295 294.952 42.7154 295.564 42.7584C295.499 42.855 295.424 42.9946 295.338 43.1772C295.263 43.3598 295.188 43.5477 295.113 43.741C295.048 43.9343 295 44.1008 294.968 44.2404C294.152 44.1545 293.378 44.0041 292.648 43.7893C291.918 43.5853 291.247 43.3114 290.634 42.9678C290.012 43.2792 289.34 43.5423 288.621 43.7571C287.912 43.9827 287.15 44.1491 286.333 44.2565ZM280.921 43.8216V39.0211H285.528V43.8216H280.921ZM280.325 33.7534V32.3036H285.947V33.7534H280.325ZM281.001 31.5304V30.0483H285.383V31.5304H281.001ZM280.985 38.2156V36.7658H285.383V38.2156H280.985ZM282.451 42.3717H283.998V40.4709H282.451V42.3717ZM288.701 32.9802H290.248C290.334 32.7976 290.414 32.6043 290.489 32.4002C290.565 32.1855 290.624 32.0083 290.667 31.8686L291.359 32.0136V31.5626H289.732V32.4325H288.927C288.862 32.6043 288.787 32.7869 288.701 32.9802ZM290.651 41.228C291.188 40.9058 291.628 40.5622 291.971 40.197H289.458C289.609 40.3796 289.786 40.5568 289.99 40.7286C290.194 40.9005 290.414 41.0669 290.651 41.228ZM288.508 37.4585H290.264V36.8625H288.508V37.4585ZM288.508 36.0087H290.264V35.4287H288.508V36.0087ZM288.508 34.575H290.264V33.995H288.508V34.575Z" fill="white"/>
<path d="M157.772 17V10.232L156.308 11.192L155.624 10.1L158.072 8.588H159.056V17H157.772ZM163.174 17.12C162.534 17.12 162.034 16.96 161.674 16.64C161.314 16.32 161.058 15.84 160.906 15.2C160.762 14.56 160.69 13.76 160.69 12.8C160.69 11.84 160.762 11.04 160.906 10.4C161.058 9.752 161.314 9.268 161.674 8.948C162.034 8.628 162.534 8.468 163.174 8.468C163.814 8.468 164.31 8.628 164.662 8.948C165.022 9.268 165.274 9.752 165.418 10.4C165.57 11.04 165.646 11.84 165.646 12.8C165.646 13.76 165.57 14.56 165.418 15.2C165.274 15.84 165.022 16.32 164.662 16.64C164.31 16.96 163.814 17.12 163.174 17.12ZM163.174 15.896C163.47 15.896 163.702 15.804 163.87 15.62C164.046 15.428 164.174 15.108 164.254 14.66C164.334 14.212 164.374 13.592 164.374 12.8C164.374 12 164.334 11.376 164.254 10.928C164.174 10.48 164.046 10.164 163.87 9.98C163.702 9.788 163.47 9.692 163.174 9.692C162.878 9.692 162.642 9.788 162.466 9.98C162.29 10.164 162.162 10.48 162.082 10.928C162.01 11.376 161.974 12 161.974 12.8C161.974 13.592 162.01 14.212 162.082 14.66C162.162 15.108 162.29 15.428 162.466 15.62C162.642 15.804 162.878 15.896 163.174 15.896ZM168.837 17.12C168.197 17.12 167.697 16.96 167.337 16.64C166.977 16.32 166.721 15.84 166.569 15.2C166.425 14.56 166.353 13.76 166.353 12.8C166.353 11.84 166.425 11.04 166.569 10.4C166.721 9.752 166.977 9.268 167.337 8.948C167.697 8.628 168.197 8.468 168.837 8.468C169.477 8.468 169.973 8.628 170.325 8.948C170.685 9.268 170.937 9.752 171.081 10.4C171.233 11.04 171.309 11.84 171.309 12.8C171.309 13.76 171.233 14.56 171.081 15.2C170.937 15.84 170.685 16.32 170.325 16.64C169.973 16.96 169.477 17.12 168.837 17.12ZM168.837 15.896C169.133 15.896 169.365 15.804 169.533 15.62C169.709 15.428 169.837 15.108 169.917 14.66C169.997 14.212 170.037 13.592 170.037 12.8C170.037 12 169.997 11.376 169.917 10.928C169.837 10.48 169.709 10.164 169.533 9.98C169.365 9.788 169.133 9.692 168.837 9.692C168.541 9.692 168.305 9.788 168.129 9.98C167.953 10.164 167.825 10.48 167.745 10.928C167.673 11.376 167.637 12 167.637 12.8C167.637 13.592 167.673 14.212 167.745 14.66C167.825 15.108 167.953 15.428 168.129 15.62C168.305 15.804 168.541 15.896 168.837 15.896ZM177.453 17.96C177.349 17.792 177.205 17.6 177.021 17.384C176.837 17.168 176.677 17.016 176.541 16.928C177.045 16.736 177.513 16.496 177.945 16.208C178.377 15.92 178.769 15.592 179.121 15.224C178.897 14.744 178.701 14.224 178.533 13.664C178.373 13.104 178.249 12.52 178.161 11.912H174.033V12.896C174.033 13.328 174.013 13.74 173.973 14.132C173.941 14.516 173.893 14.892 173.829 15.26C174.013 15.028 174.193 14.768 174.369 14.48C174.553 14.184 174.685 13.924 174.765 13.7L175.677 14.132C175.621 14.3 175.533 14.496 175.413 14.72C175.293 14.944 175.165 15.16 175.029 15.368C174.893 15.576 174.765 15.748 174.645 15.884C174.557 15.804 174.425 15.716 174.249 15.62C174.073 15.516 173.925 15.44 173.805 15.392C173.709 15.84 173.581 16.268 173.421 16.676C173.269 17.084 173.081 17.484 172.857 17.876C172.777 17.82 172.661 17.752 172.509 17.672C172.357 17.6 172.205 17.528 172.053 17.456C171.901 17.392 171.781 17.352 171.693 17.336C172.093 16.696 172.373 16.032 172.533 15.344C172.701 14.648 172.785 13.852 172.785 12.956V10.868H178.041C178.033 10.756 178.025 10.64 178.017 10.52C178.017 10.4 178.013 10.28 178.005 10.16L172.101 10.16V9.08L174.081 9.08V7.292L175.473 7.292V9.08H176.805V6.848H178.173V7.544L181.377 7.544V8.504H178.173V9.08H182.853V10.16H181.125C181.213 10.24 181.301 10.32 181.389 10.4C181.485 10.48 181.577 10.564 181.665 10.652L181.449 10.868H182.529V11.912H179.457C179.577 12.72 179.753 13.452 179.985 14.108C180.193 13.796 180.369 13.472 180.513 13.136C180.665 12.792 180.789 12.444 180.885 12.092L182.109 12.596C181.941 13.108 181.733 13.6 181.485 14.072C181.237 14.536 180.949 14.98 180.621 15.404C180.917 15.86 181.249 16.2 181.617 16.424C181.665 16.344 181.717 16.22 181.773 16.052C181.837 15.876 181.897 15.692 181.953 15.5C182.009 15.3 182.049 15.128 182.073 14.984C182.209 15.064 182.393 15.148 182.625 15.236C182.865 15.324 183.061 15.384 183.213 15.416C183.125 15.872 183.013 16.292 182.877 16.676C182.749 17.052 182.625 17.344 182.505 17.552C182.385 17.752 182.217 17.872 182.001 17.912C181.793 17.96 181.565 17.928 181.317 17.816C181.029 17.68 180.753 17.488 180.489 17.24C180.233 16.992 179.989 16.7 179.757 16.364C179.429 16.676 179.073 16.964 178.689 17.228C178.313 17.5 177.901 17.744 177.453 17.96ZM175.017 17.156C175.009 16.996 174.985 16.804 174.945 16.58C174.913 16.356 174.873 16.18 174.825 16.052H175.341C175.477 16.052 175.569 16.028 175.617 15.98C175.665 15.932 175.689 15.848 175.689 15.728V13.436H174.429V12.416H178.017V13.436H176.817V16.136C176.817 16.48 176.725 16.736 176.541 16.904C176.357 17.072 176.057 17.156 175.641 17.156H175.017ZM177.693 15.872C177.653 15.712 177.581 15.52 177.477 15.296C177.373 15.064 177.261 14.836 177.141 14.612C177.029 14.388 176.925 14.212 176.829 14.084L177.717 13.676C177.821 13.796 177.933 13.96 178.053 14.168C178.181 14.376 178.301 14.588 178.413 14.804C178.525 15.02 178.609 15.204 178.665 15.356C178.537 15.396 178.377 15.468 178.185 15.572C177.993 15.668 177.829 15.768 177.693 15.872ZM179.337 10.868H180.237C180.149 10.78 180.061 10.7 179.973 10.628C179.885 10.548 179.801 10.48 179.721 10.424L180.021 10.16H179.313C179.313 10.28 179.313 10.4 179.313 10.52C179.321 10.64 179.329 10.756 179.337 10.868ZM187.449 17.648C186.769 17.624 186.241 17.436 185.865 17.084C185.489 16.732 185.305 16.296 185.313 15.776C185.321 15.432 185.433 15.124 185.649 14.852C185.865 14.58 186.165 14.368 186.549 14.216C186.933 14.064 187.377 14 187.881 14.024C188.017 14.024 188.145 14.032 188.265 14.048C188.393 14.056 188.521 14.068 188.649 14.084L188.613 12.704C188.477 12.712 188.337 12.716 188.193 12.716C188.057 12.716 187.921 12.716 187.785 12.716C187.305 12.716 186.925 12.68 186.645 12.608C186.373 12.528 186.153 12.4 185.985 12.224C185.825 12.04 185.665 11.788 185.505 11.468L186.633 10.904C186.745 11.12 186.877 11.26 187.029 11.324C187.181 11.38 187.441 11.408 187.809 11.408C187.929 11.408 188.053 11.408 188.181 11.408C188.317 11.4 188.453 11.392 188.589 11.384C188.581 11.168 188.573 10.948 188.565 10.724C188.565 10.5 188.561 10.28 188.553 10.064C187.969 10.096 187.417 10.12 186.897 10.136C186.377 10.144 185.973 10.144 185.685 10.136L185.625 8.792C185.905 8.816 186.309 8.828 186.837 8.828C187.365 8.82 187.929 8.804 188.529 8.78C188.521 8.492 188.517 8.216 188.517 7.952C188.517 7.688 188.517 7.444 188.517 7.22H189.909C189.909 7.436 189.909 7.668 189.909 7.916C189.909 8.164 189.913 8.424 189.921 8.696C190.465 8.656 190.965 8.612 191.421 8.564C191.877 8.508 192.213 8.452 192.429 8.396V9.716C192.213 9.764 191.877 9.812 191.421 9.86C190.973 9.9 190.477 9.94 189.933 9.98C189.941 10.196 189.945 10.416 189.945 10.64C189.953 10.856 189.961 11.072 189.969 11.288C190.441 11.24 190.889 11.184 191.313 11.12C191.737 11.048 192.073 10.972 192.321 10.892V12.296C192.025 12.36 191.673 12.42 191.265 12.476C190.865 12.532 190.441 12.58 189.993 12.62C190.009 12.94 190.017 13.248 190.017 13.544C190.025 13.84 190.033 14.116 190.041 14.372C190.633 14.532 191.193 14.74 191.721 14.996C192.249 15.252 192.745 15.532 193.209 15.836C193.105 15.916 192.989 16.036 192.861 16.196C192.741 16.348 192.629 16.504 192.525 16.664C192.421 16.824 192.341 16.96 192.285 17.072C191.613 16.504 190.877 16.056 190.077 15.728C190.069 16.328 189.857 16.804 189.441 17.156C189.033 17.516 188.369 17.68 187.449 17.648ZM187.497 16.364C187.913 16.38 188.213 16.32 188.397 16.184C188.581 16.048 188.673 15.868 188.673 15.644V15.308C188.505 15.276 188.337 15.252 188.169 15.236C188.009 15.22 187.849 15.212 187.689 15.212C187.353 15.212 187.097 15.268 186.921 15.38C186.745 15.492 186.657 15.628 186.657 15.788C186.657 16.148 186.937 16.34 187.497 16.364ZM203.505 17.468C202.673 17.372 201.937 17.128 201.297 16.736C200.657 16.344 200.157 15.836 199.797 15.212C199.445 14.588 199.269 13.876 199.269 13.076C199.269 12.5 199.405 11.912 199.677 11.312C199.957 10.712 200.373 10.18 200.925 9.716C200.285 9.82 199.645 9.932 199.005 10.052C198.373 10.172 197.797 10.284 197.277 10.388C196.765 10.492 196.369 10.58 196.089 10.652L195.765 9.104C196.029 9.088 196.393 9.052 196.857 8.996C197.329 8.94 197.857 8.872 198.441 8.792C199.033 8.704 199.641 8.612 200.265 8.516C200.897 8.412 201.505 8.308 202.089 8.204C202.681 8.1 203.209 8 203.673 7.904C204.145 7.8 204.513 7.708 204.777 7.628L205.161 9.092C205.033 9.1 204.877 9.116 204.693 9.14C204.517 9.164 204.317 9.192 204.093 9.224C203.653 9.28 203.233 9.416 202.833 9.632C202.433 9.848 202.073 10.128 201.753 10.472C201.441 10.816 201.193 11.208 201.009 11.648C200.825 12.088 200.733 12.564 200.733 13.076C200.733 13.692 200.889 14.204 201.201 14.612C201.513 15.02 201.937 15.34 202.473 15.572C203.017 15.796 203.625 15.948 204.297 16.028C204.177 16.148 204.061 16.3 203.949 16.484C203.837 16.66 203.741 16.836 203.661 17.012C203.581 17.196 203.529 17.348 203.505 17.468ZM205.593 11.96C205.441 11.712 205.237 11.448 204.981 11.168C204.733 10.888 204.505 10.664 204.297 10.496L204.945 9.956C205.065 10.052 205.209 10.192 205.377 10.376C205.553 10.56 205.725 10.748 205.893 10.94C206.061 11.124 206.189 11.284 206.277 11.42L205.593 11.96ZM204.513 12.872C204.361 12.616 204.161 12.348 203.913 12.068C203.665 11.788 203.437 11.56 203.229 11.384L203.889 10.856C204.009 10.952 204.153 11.092 204.321 11.276C204.489 11.46 204.653 11.648 204.813 11.84C204.981 12.032 205.109 12.192 205.197 12.32L204.513 12.872Z" fill="#FFB300"/>
<path d="M144.625 4.90723L149.575 19.5956" stroke="#FFB300"/>
<path d="M214.574 4.90723L209.624 19.5956" stroke="#FFB300"/>
</svg>
