<?xml version="1.0" encoding="UTF-8"?><svg id="_レイヤー_2" xmlns="http://www.w3.org/2000/svg" viewBox="0 0 124 140.89431"><defs><style>.cls-1{fill:#e4e8fa;}.cls-2{fill:#000544;}.cls-3{fill:#ff8375;}.cls-4{fill:#29aac6;}.cls-5{fill:#c0caf2;}.cls-6{fill:#3685bf;}.cls-7{fill:#89d0e0;}.cls-8{fill:#b5c3eb;}.cls-9{fill:#ffc3b4;}.cls-10{fill:#fff;}.cls-11{fill:#f4bd8c;}.cls-12{fill:#f4d6ae;}.cls-13{fill:#bfe5ee;}.cls-14{fill:#000058;}.cls-15{fill:#f9eddc;}</style></defs><g id="_レイヤー_1-2"><path class="cls-7" d="M43.1487,139.86467l7.68069-.01803c.02394-.5574-.19186-.91984-.56533-1.21041-.85569-.62941-1.36739-1.17775-3.19042-1.74044l-3.28226-1.66078c-.1946-.10523-.29601-.34807-.25214-.58723.08381-.45698-.28745-.83963-.67467-.75942-.12838.02658-.24077.11396-.32478.22714-.19193.2587-.47568.40696-.77397.40436l-1.18359-.00651c-.06545-.33365-.39708-.57254-.74515-.50805-.14237.02639-.26707.11307-.36021.22534-.09639.11624-.21481.20748-.34511.27473l-1.90004-.01043c.02512.01166.04759.02449.07237.03632l-1.27248-.00714c-.01567-.00822-.03081-.01781-.04656-.02589l-2.72575-.02048.00918-.81663-.23238-.09901c-.29673-.12633-.60319.15559-.60646.55793l-.01098,1.35725-.04473,4.44037.82427-.00305,7.01097-.02553c-.00139-.00399-.003-.00791-.00442-.0119l2.94467-.00993c-.00022-.00084-.00053-.00175-.00075-.0026Z"/><polygon class="cls-12" points="33.02036 139.85458 33.02036 140.89431 40.67641 140.88381 40.67641 139.84306 33.02036 139.85458"/><path class="cls-4" d="M50.68989,139.80206l-11.8245.0331v.48616c0,.31331.35965.56699.80216.56576l10.58032-.02961c.36256-.00099.65523-.21005.65347-.46681l-.00245-.36225c-.00089-.12552-.09425-.22666-.20899-.22635Z"/><path class="cls-4" d="M39.66807,140.89424h-6.74349c-.30283,0-.55062-.25699-.55062-1.03007v-1.94438h6.36947c.97503,0,1.59653,2.17338,1.59653,2.94648l-.67188.02798Z"/><path class="cls-4" d="M51.05992,139.41964c0-.23726-.20056-.42957-.44796-.42957h-6.09711c-1.6759,0-2.74423,1.35682-2.74423,1.83944l1.15484.01747h7.38747c.56713,0,.747-.44087.747-.98476v-.44258Z"/><path class="cls-13" d="M44.76533,137.21319h2.71001c.12857,0,.2071-.14496.136-.25346-.83831-.77983-2.48188-3.58113-2.91105-3.78916-.81814-.39655-2.24101-.36049-3.66384.03605-.3323.09264-.65999,1.36127-.27935,1.70376.79536.71561,2.57264,1.71585,3.16107,2.06925.25094.15732.54735.23356.84716.23356Z"/><path class="cls-13" d="M17.22792,36.22914c1.74512-2.92217,1.09122-8.05638-1.81704-9.84613-2.76404-1.70104-8.95973,1.69419-10.38904,4.12999-1.3959,2.37864-3.03207,10.07948-4.02962,15.26699l12.77223,1.96066c.91958-4.27486,1.80267-8.73047,3.46347-11.5115Z"/><path class="cls-9" d="M.99222,45.77999c-.43222,2.2476-.74474,4.02407-.86559,4.69028-.44715,2.46489.27346,7.66105,2.42383,9.50398,3.43703,2.94566,5.91473-.0063,7.49032-1.76082,1.83353-2.04185,2.79714-6.16554,3.72366-10.47278l-12.77223-1.96066Z"/><rect class="cls-2" x="23.38673" y="65.17873" width="9.00364" height="9.84921"/><path class="cls-7" d="M23.69077,139.86455l7.61921-.01774c.02394-.55295-.19183-.91249-.56531-1.20075-.85566-.62436-1.36739-1.16833-3.19042-1.72652l-3.28226-1.64751c-.1946-.10437-.29603-.34528-.25216-.58254.08381-.4533-.28742-.83288-.67462-.75332-.1284.02637-.24082.11304-.32482.22534-.1919.25661-.47568.40369-.77394.40112l-3.19886-.01745c-.00548-.00228-.0105-.005-.01598-.00728l-.84857-.00476c-.36653-.7613-.97505-.98111-1.2495-.98111h-3.4347c-.00433,0-.00834.002-.01264.00219-.28685-.09523-.57276.17731-.57591.56584l-.01091,1.34987-.0448,4.44775.82427-.00305,7.01097-.02553c-.00139-.00392-.00296-.00776-.00435-.01171l3.00609-.01012c-.00022-.00089-.00053-.00183-.00077-.00272Z"/><polygon class="cls-12" points="13.50096 139.85458 13.50096 140.89431 21.15699 140.88381 21.15699 139.84306 13.50096 139.85458"/><path class="cls-4" d="M31.17049,139.80206l-11.8245.0331v.48616c0,.31331.35965.56699.80216.56576l10.58032-.02961c.36256-.00099.65523-.21005.65345-.46681l-.00245-.36225c-.00087-.12552-.09422-.22666-.20897-.22635Z"/><path class="cls-4" d="M20.14867,140.89424h-6.74349c-.30283,0-.55062-.25699-.55062-1.03007v-1.94438h6.36944c.97505,0,1.59656,2.17338,1.59656,2.94648l-.67188.02798Z"/><path class="cls-4" d="M31.5405,139.41964c0-.23726-.20053-.42957-.44794-.42957h-6.09711c-1.67592,0-2.74423,1.35682-2.74423,1.83944l1.15484.01747h7.38747c.56713,0,.74697-.44087.74697-.98476v-.44258Z"/><path class="cls-13" d="M25.24593,137.21319h2.71001c.12855,0,.2071-.14496.13597-.25346-.83831-.77983-2.48188-3.58113-2.91102-3.78916-.81814-.39655-2.24101-.36049-3.66386.03605-.3323.09264-.65996,1.36127-.27932,1.70376.79536.71561,2.57262,1.71585,3.16107,2.06925.25094.15732.54735.23356.84716.23356Z"/><path class="cls-4" d="M30.17183,52.81211c-3.68071.9314-6.61127,2.05329-5.7414,5.92696l8.27453,35.77101c.86982,3.87348,3.81776,3.90518,7.49833,2.97383l5.22155,6.89795c3.68052-.93135,3.16657-10.03518,2.29673-13.90866l-8.81654-34.64092c-.86987-3.87367-5.05265-3.9515-8.73319-3.02017Z"/><path class="cls-4" d="M45.48783,134.51804c.89516,0,1.76351-.84814,1.78858-1.74294l1.02449-36.58312c.16352-4.39175-5.33774-11.53455-8.94144-11.72057-3.60386-.1859-6.68612,3.25529-6.84959,7.6468l-.66724,42.39982h13.6452Z"/><path class="cls-4" d="M20.07279,51.40258c-4.2752.05468-7.76823.46935-7.71689,4.45119l.4426,34.32785c.05134,3.98164,3.59115,7.19482,7.8662,7.14016,4.27522-.05471,7.73102-3.35735,7.67968-7.33902l-.4426-34.32783c-.05134-3.98181-3.55392-4.30704-7.82899-4.25236Z"/><path class="cls-4" d="M26.40666,134.68552c1.11348,0,2.01589-1.2064,2.015-2.31988l-.03149-40.81505c-.00373-4.43725-3.49404-8.06493-7.75602-8.06125-4.26236.00356-7.74655,3.63703-7.74282,8.07416l-.00397,43.12201h13.51929Z"/><path class="cls-10" d="M28.24745,23.24355c.0074.01911.00118.00808-.00421-.00303l.00421.00303Z"/><path class="cls-9" d="M53.53113,49.76572c-.30375-.45138-2.28868-3.4989-4.61819-7.10721l-11.10568,7.29075c1.80509,2.68974,3.52517,5.10142,4.90848,6.64483,1.57389,1.75604,4.98049,4.12903,8.42036,1.18669,2.15215-1.84088,3.7937-5.93674,2.39504-8.01506Z"/><path class="cls-13" d="M40.90387,30.02257c-1.42698-2.43715-5.5645-5.70422-8.33012-4.0058-2.90999,1.78695-4.91552,8.62445-3.21811,11.05974,2.30896,3.31276,5.49453,8.46641,8.45163,12.87275l11.10568-7.29075c-3.12278-4.83704-6.86505-10.68223-8.00907-12.63594Z"/><ellipse class="cls-9" cx="25.33845" cy="25.53492" rx="4.57305" ry="2.12426"/><path class="cls-9" d="M29.25694,25.57638c0,1.17318-.28355,2.50558-2.80918,2.50558s-6.33695-1.3324-6.33695-2.50558,2.04743-2.12427,4.57305-2.12427,4.57308.95106,4.57308,2.12427Z"/><path class="cls-9" d="M25.98617,28.35631c3.04248-.30425,4.73662-2.2456,6.11918-4.48275-1.15119-.40758-1.95361-.60136-1.95361-.60136l-.18092-.04269c-3.41761-.60778-6.45254-.30973-9.97528-.20231-.9739.09045-2.07685.31562-3.22046.63708,2.16737,3.04755,5.37064,5.14386,9.2111,4.69203Z"/><path class="cls-13" d="M39.98624,29.97853c-1.04961-3.24097-5.3256-5.2003-7.88089-6.10497-1.38256,2.23714-3.0767,4.1785-6.11918,4.48275-3.84045.45183-7.04373-1.64448-9.2111-4.69203-4.14441,1.16501-8.82517,3.60069-9.85445,5.5271.07466.00457,3.93951,32.46221,5.04998,41.68657l28.49374-.29798c1.22113,0,2.19354-1.02055,2.13285-2.24017-.54185-10.88719-2.61095-38.36126-2.61095-38.36126Z"/><path class="cls-6" d="M28.18556,78.55741c-.09951,0-.18027-.08074-.18027-.18027v-3.39593c0-.03428.00976-.06783.02817-.09682l2.26267-3.55428c.05374-.08415.16489-.10867.24892-.05526.08393.0535.10869.16489.05528.24892l-2.2345,3.50991v3.34346c0,.09953-.08074.18027-.18027.18027Z"/><path class="cls-14" d="M20.35433,9.2312c.13136.91955.5324,1.78101.70001,2.69462.04427.2413.0743.49207.19477.70575.18707.33177.5766.51993.95746.52219.17789.00106.35927-.03545.51089-.12852.21907-.13448.35369-.37013.4614-.60355.3017-.65364.46522-1.37069.47671-2.09052.00966-.60494-.08454-1.22678.09598-1.80425.07163-.22911.18453-.44299.2694-.66753.1952-.51632.22205-1.14417-.11763-1.57927-.16063-.20575-.39037-.35057-.63588-.43926-1.91088-.69022-3.1323,1.85603-2.91309,3.39035Z"/><path class="cls-14" d="M19.6747,5.80564c.06382-.0249.13222-.04413.18388-.08925.07689-.06723.09973-.17554.12417-.27485.23882-.97005,1.08362-1.76099,2.06416-1.93261.5724-.10016,1.19354-.01154,1.7089-.2811.56487-.2955.84901-.94073,1.32514-1.36562.45955-.41015,1.10732-.59836,1.71397-.49805.45486.07528.91136.30247,1.35598.18001.47402-.13052.75233-.60583,1.11131-.94296.51649-.48491,1.27202-.69967,1.96498-.55853.5604.11417,1.13773.60965.99827,1.16643-.04425.17652-.15705.33711-.15953.51913-.00476.35076.37095.55776.6267.79678.55052.51452.58144,1.4876.06473,2.03644-.42109.44724-1.15417.67313-1.26901,1.27764-.07218.37958.14446.74498.3,1.09841.46349,1.05341.37054,2.31942-.17974,3.32194-.1304.23765-.31326.44188-.43592.68236-.07942.15556-.1048.477-.2281.59653-.43246.41924-.58038-.28831-.55038-.66674.09651-1.21837-.50844-2.43251-1.43777-3.22181-.92933-.78928-2.14761-1.18263-3.36216-1.26589-1.15799-.07946-1.97065.68518-3.00272,1.21866-1.03199.53353-1.66588,3.76219-2.08932,4.84726-.00945-.60624-.76822-4.12355-1.04591-4.66199-.16684-.32345-.38357-.64023-.40592-1.0038-.02536-.41349.23957-.82867.62432-.97839Z"/><path class="cls-14" d="M30.39458,9.15928c.05685.17282.07848.35641.06992.54577-.09011-.23483-.20589-.45609-.33545-.66883.11191.04447.20017.08706.26553.12307Z"/><path class="cls-9" d="M25.08566,27.8697l1.22782-.08566c1.79346-.03182,1.58586-1.47289,1.54115-3.99147-.03014-1.69804-.07744-4.59504-.05319-4.59548,1.74169-.03091,3.70049-2.31841,3.64552-5.41542l.0118-5.95302c-.07367-.23507-1.47089.29415-1.57634.08107-.42205-.20887-2.14033-.90018-3.8786-.70188-1.4278.16292-2.87196.96765-3.28707,1.30718-.99161.81105-.44142,6.71273-.11456,6.8873l-1.28231.03281.04509,8.63685c.00512,1.81221,1.90876,3.82988,3.72068,3.79772Z"/><path class="cls-10" d="M27.51853,15.50472c.06588.341.36492.60088.73594.59413.37114-.00678.66037-.27738.71378-.62052l-1.44972.02639Z"/><path class="cls-14" d="M30.19986,10.5416c-.04014.0007-.07973-.01913-.10249-.0554-.03432-.05524-.0181-.12751.0369-.16241.01973-.01233.49469-.30526,1.16326-.03887.06062.02408.09023.09278.06617.15321-.02408.06086-.09324.08978-.15345.06615-.5523-.21885-.93438.0099-.95037.01966-.0187.01161-.03949.01731-.06002.01767Z"/><path class="cls-14" d="M26.00151,10.61636c-.0399.0007-.07925-.01892-.10206-.05497-.03488-.05521-.01841-.12818.03682-.16309.01971-.01235.49478-.30528,1.16335-.03889.06062.02411.09023.09278.06615.15321-.02406.06088-.09312.0898-.15342.06615-.558-.22152-.94616.01658-.95003.01942-.01894.01185-.03995.01779-.06081.01817Z"/><path class="cls-3" d="M27.564,19.48268c-4.10774-.03254-6.51169-3.33115-6.52753-4.22472-.00175-.09778.07619-.17856.174-.1803s.17856.07622.1803.17402c.01106.62299,2.19006,3.84504,6.16603,3.8767.20368-.01007.4152-.0392.61857-.08665.09523-.02291.19041.03699.21277.13237.02223.09535-.03711.19053-.13237.21277-.22414.05221-.45695.08449-.69176.09581Z"/><path class="cls-3" d="M28.56932,14.61319c-.08929.00159-.16729-.06439-.17871-.15487-.01221-.09715.05646-.18582.15364-.19815.39342-.04966.53817-.12999.67801-.20746l.08295-.04509c.03418-.01769.04846-.04516.05435-.06509.00935-.03134.00507-.06495-.01197-.09509-.04812-.08545-.01796-.19349.06725-.24137.08485-.04836.19325-.01822.2414.06699.06372.11309.07937.24801.04302.37047-.03605.12109-.11792.22015-.23075.27868l-.07427.04031c-.16143.08963-.34434.19094-.80569.24942-.00644.00082-.01291.00115-.01923.00125Z"/><path class="cls-14" d="M26.84905,12.01548c.00459.25853-.11098.4702-.25815.47282-.14715.00262-.27017-.20484-.27476-.46335-.00459-.25853.11098-.4702.25815-.47282s.27017.20484.27476.46335Z"/><path class="cls-14" d="M31.04848,11.84975c.00459.25853-.10153.47008-.23702.47248-.13547.0024-.24901-.20524-.25361-.46375s.10153-.47003.237-.47243c.13549-.00243.24904.20522.25363.46371Z"/><path class="cls-9" d="M23.26182,13.60958c.2656,1.51776-.28324,2.68263-1.22585,2.60184s-1.92203-1.3767-2.18758-2.89444c-.2656-1.51774.28324-2.68263,1.22585-2.60184.9426.08081,1.92201,1.3767,2.18758,2.89444Z"/><path class="cls-3" d="M21.67533,14.0212c-.05709.00101-.11374-.02567-.14876-.07603-.05576-.0805-.03593-.1909.04442-.24654.04855-.03387.08182-.09465.08903-.16309.00721-.06797-.01142-.13133-.05117-.17376-.06692-.07127-.06338-.18347.00803-.25026.07139-.06658.18354-.06346.25046.00803.11021.11756.16321.28274.14511.45311-.01805.172-.10535.32374-.23926.41681-.02985.02082-.06394.03113-.09785.03173Z"/><path class="cls-14" d="M31.69227,7.36618c-.90119-.80507-.8486-2.82101-1.8654-3.05147-1.48707-.33701-4.59069.61355-6.01719,1.12028-.58663.20827-.86345,2.37088-1.38682,2.68138-.26762.15866-.52447.33131-.76798.51627l.0411,2.31654c.25983.22556.50305.46777.72363.72851-.01012-.69109-.058-1.3835.18517-2.03733.23503-.63198.85939-1.11629,1.56214-1.38304.7314-.27762,1.54447-.34696,2.33992-.36847.36071-.00985.72315-.00474,1.0791.05146,1.12275.17734,2.06651.57696,3.18794.76368.00685.00115.0137.00228.02057.00334.70592.11206,1.42056-.8742.8978-1.34115Z"/><path class="cls-3" d="M25.50759,13.1409c.00752.19241-.26017.3591-.59804.37237-.33785.01329-.61783-.13191-.62537-.32432-.00755-.19236.26014-.35905.59802-.37234.33783-.01327.61783.13193.6254.3243Z"/><path class="cls-3" d="M30.94053,13.06927c.00661.16933.22445.30185.50683.32221l.00324-.68602c-.29478.03615-.51697.18868-.51007.36381Z"/><rect class="cls-10" x="12.5367" y="38.32858" width="9.21742" height="4.60872" rx=".91337" ry=".91337"/><path class="cls-14" d="M17.78116,38.32161l-.78654-.00014.00024-1.2824c.00005-.21719.17614-.39323.39333-.39318s.39326.17614.39321.39333l-.00024,1.2824Z"/><path class="cls-10" d="M25.33104,26.51831c.00733.01894.00115.00798-.00421-.003l.00421.003Z"/><path class="cls-10" d="M15.23534,35.65081c.00687.01774.00108.00748-.00392-.00281l.00392.00281Z"/><path class="cls-9" d="M24.07869,34.04757c-4.47996,3.64768-17.93553,14.29208-19.35881,15.57273-3.39134,3.05139-3.79389,8.12098-1.41083,10.58505,2.37619,2.45688,6.93915.28555,8.82601-1.44893,1.82831-1.68085,11.37108-12.26586,15.96159-17.3466l-4.01796-7.36226Z"/><path class="cls-9" d="M24.70836,33.25395l4.70729-4.04887c.41784-.35941,1.07956-.15547,1.20152.38201.13895.61232-.03947,1.47592-1.35362,2.44441l-4.55519,1.22246Z"/><path class="cls-9" d="M39.09046,32.40989c.49233-.16174.76692-.68609.60968-1.16453-.15662-.4788-.68801-.73846-1.18022-.57656l-5.17372,1.69943c-.09158.03007-.19017-.00639-.24454-.08595-.08403-.12258-.03315-.28524.1035-.33014l3.93386-1.29204c.49231-.16174.76692-.68609.60965-1.16453-.15662-.4788-.68787-.73846-1.1802-.57656l-6.40824,2.10487c-.92073-.1066-1.87982-.07687-2.5793.14439-1.50286.47548-3.7246,2.8005-4.41155,4.06524-1.3017,2.39749-.61304,1.46493-.41489,3.68491.24834,2.78022,3.29969,3.57069,6.40692,2.49431,1.8928-.65568,2.84903-1.12516,4.59379-2.11002.11256-.06353.21198-.13667.30113-.21637l3.74126-1.22878c.49231-.16174.76692-.68611.60968-1.16455-.15662-.4788-.68801-.73849-1.18022-.57656l-2.17484.71433c-.1801.05915-.37064-.05326-.40381-.23991-.02851-.15965.06011-.31096.20791-.35951l3.66932-1.20517c.49231-.16174.76692-.68611.60968-1.16455-.15662-.4788-.68801-.73846-1.18022-.57656l-3.61949,1.1889c-.12268.04028-.25361-.02613-.2956-.14826-.04447-.12915.02134-.26404.1466-.30519l4.90389-1.61066Z"/><path class="cls-3" d="M6.52225,48.51231c-.05317,0-.10574-.02336-.14131-.06819-.06197-.07805-.04882-.19142.02911-.25327l8.48929-6.73705c.07817-.06209.19154-.04872.25329.02911.06185.07805.04882.19142-.02911.25327l-8.48931,6.73705c-.03322.0263-.07276.03908-.11196.03908Z"/><path class="cls-9" d="M62.01268,29.44637c-3.92624,4.23796-15.69781,16.81292-16.92815,18.2799-2.93162,3.49541-2.62177,8.57149.08228,10.67836,2.69626,2.10069,6.91098-.687,8.53693-2.66816,1.57545-1.91984,9.54532-13.73461,13.38075-19.40701l-5.0718-6.8831Z"/><path class="cls-3" d="M46.68897,46.37897c-.04461,0-.08932-.01644-.12417-.04951-.07218-.06867-.07511-.18275-.00659-.25493l7.4646-7.85728c.06865-.0723.18263-.07523.2549-.00659.07218.06867.07511.18275.00659.25493l-7.4646,7.85728c-.03543.03733-.08309.0561-.13073.0561Z"/><path class="cls-9" d="M72.95756,29.83559l-3.78154,1.21534c-.13597.0437-.28584-.00976-.35872-.13258-.10143-.17054-.03057-.38458.14693-.45856l4.65184-1.93869c.46558-.19419.70351-.73399.52841-1.19962-.17469-.46573-.69914-.68799-1.16479-.4937l-5.64108,2.35112c-.11597.04834-.24815.03358-.35057-.03923-.23281-.16534-.20421-.50865.04473-.62934l3.68321-1.78574c.45397-.22012.66104-.77284.45972-1.22741-.20077-.45508-.73685-.64751-1.19078-.42727l-6.3686,3.08778c-.23188.06305-.46794.15544-.70758.28757-1.34636.74236-2.91657,2.24635-3.358,3.61273-.83631,2.59016-.46356,3.38456.09326,5.52522.69739,2.68083,2.52159,3.74844,5.45886,1.30127,1.17032-.97544,2.23628-1.68571,3.05072-2.73063.23692-.30399.55439-.53526.9241-.64422l3.50121-1.03195c.48404-.14241.77851-.6533.65499-1.13525-.12379-.48188-.62066-.75909-1.10463-.6167l-2.48212.73164c-.20344.05995-.40506-.09929-.39386-.3111.00721-.13876.08865-.25.21003-.28901l3.98628-1.28122c.48032-.15438.76243-.672.62754-1.15092-.13552-.47875-.63934-.74404-1.11956-.58954Z"/><path class="cls-9" d="M60.61904,33.30625l-.92986-.36588c-.26997-.10622-.40393-.41402-.29769-.68397l2.56187-6.51085c.20686-.52567.8062-.78654,1.33187-.5797.52567.20686.78654.8062.57968,1.33187l-2.56187,6.51082c-.10622.26997-.41405.40395-.684.29771Z"/><path class="cls-3" d="M64.13515,35.5418c-.04177,0-.08381-.01445-.11807-.04401-.07511-.06514-.08333-.17897-.01832-.25421.38097-.44013.56735-1.10006.51101-1.81081-.05305-.67272-.29927-1.32423-.55725-1.92794-.0392-.09155.00329-.19753.09482-.23661.09203-.03966.19765.00317.23661.09482.27017.63201.52815,1.31673.58543,2.04132.0636.80629-.15422,1.56259-.59785,2.07512-.03569.0412-.08593.06233-.13638.06233Z"/><path class="cls-9" d="M75.22475,64.52124c.04182,1.87021,1.16703,16.10963,1.16703,16.10963l5.16163.09771c1.28433.12213,1.88155.73356,1.95671-.56252l1.58579-16.4556-.0392-.00394c.13655-1.66484.32523-3.85826.37535-4.54555.29074-3.9883-2.76212-8.91052-5.55269-9.47626-4.78632-.97024-4.70489,12.59068-4.65461,14.83655Z"/><path class="cls-9" d="M84.61263,79.48581l1.60737,5.60269c.14268.49733-.29074.98173-.79699.87499-.57675-.12162-1.24334-.61244-1.55404-2.11309l.74366-4.36459Z"/><path class="cls-9" d="M79.69259,92.08351c-.05511.48332.28444.92316.75418.97666.46979.05418.89965-.29721.95457-.78053l.57942-5.07918c.01024-.0899.08002-.15967.16919-.17486.13751-.02358.2563.08357.24099.21774l-.44066,3.86189c-.05511.48334.28442.92318.75418.97669.46979.05418.89958-.29714.95455-.78053l.7177-6.29109c.452-.74351.80276-1.57319.88833-2.25656.1838-1.46827-.92799-4.27496-1.73731-5.35685-1.53437-2.05041-1.00904-1.09735-2.9802-1.79889-2.46868-.87845-4.33947,1.41412-4.63992,4.48643-.18299,1.87151-.15758,2.87119-.00178,4.74554.01005.12093.03343.23438.06648.34167l-.41909,3.67285c-.05511.48332.28444.92318.75416.97666.46981.05418.89967-.29721.9546-.78053l.24358-2.13506c.02019-.17681.19078-.29526.36297-.25036.14734.03829.24166.17323.2251.31834l-.41102,3.60221c-.05509.48332.28444.92318.75421.97669.46979.05418.89963-.29723.95455-.78053l.40537-3.55334c.01375-.12045.12172-.20606.24236-.194.12761.01274.21683.12177.20282.24471l-.54932,4.81423Z"/><path class="cls-14" d="M88.71044,15.41674c.12667-1.19943.75736-2.31923,1.48183-3.26702.57519-.75233,1.07004-1.34843,1.37247-2.2601.04985-.15039.09595-.30093.14114-.4514.5274-.72957.54586-1.53416,1.09648-2.41114.762-1.21376,2.36261-2.27796,4.1947-2.52226,5.23042-.69727,8.51724,2.7943,8.28361,6.43687-.11489,1.79-.18902,2.59033,1.74111,3.68208.90268.51058,2.12576.69602,3.00782,1.22392,2.42318,1.45034,1.22669,4.68946,3.70907,6.09002,1.39809.7887,3.94804,2.21907,4.88776,5.68186.34333,3.70984.22356,4.18239,3.13127,7.01133,1.32225,1.28634,2.24032,2.59473,2.0856,5.60468-.035.68152-.152,1.33968-.36244,1.95859-.31819.93573-1.22061,1.52736-2.20893,1.53425-.09098.00065-.18193.00322-.27286.00812-3.59399.19366-5.69855,3.76758-9.29179,3.81952-1.95912.02846-3.64352-1.05879-5.60216-.93496-1.28911.08158-2.41504.67087-3.58346,1.09845-.50538.18493-1.023.33689-1.54848.46606-.86708-.42272-1.67715-.94448-2.38711-1.53346-1.33701-1.10905-2.51957-2.59165-2.93162-4.29762-.50594-2.09492.87439-3.57279,1.82016-5.28197.78858-1.42525,1.04459-2.90629.26848-4.39744-.91729-1.76245-2.76568-2.43405-4.27873-3.57776-.43599-.32956-.83153-.71354-1.15371-1.15503-1.20537-1.65174-.87499-3.04817-.61129-4.60639.30151-1.78156-.18645-2.9227-1.391-4.23231-.98101-1.06668-1.7595-2.15715-1.59793-3.68689Z"/><path class="cls-14" d="M93.35315,10.89162c-.04074.17556-.04576.35862-.02048.54466.06802-.23969.1626-.46827.27151-.68967-.10648.05382-.18974.10369-.25103.14501Z"/><path class="cls-9" d="M102.48514,24.45593c.05822.65595.1042,1.19359-.55262,1.24101l-4.43571.32028c-.17145-.16335.05355-.35831.0386-.50457,0,0-.47325-4.90074-.52079-4.89622-1.47498.14013-3.59086-1.33882-4.23498-4.96318l-.59468-5.97991c.0518-.23846,1.47734.15958,1.56245-.06011.39782-.24351,2.03168-1.07819,3.76423-1.03704,1.42318.03377,2.91948.69948,3.35922.99755,1.05038.712,1.03202,6.58353.72503,6.78476l.17054-.00221.71871,8.09964Z"/><path class="cls-10" d="M96.75456,16.89648c-.03476.34228-.30668.62525-.6733.65157-.36679.0263-.67616-.21498-.75935-.54879l1.43265-.10278Z"/><path class="cls-14" d="M93.66812,12.23825c.03964-.00286.07694-.02596.09619-.06377.02896-.05754.00651-.12742-.05086-.15696-.02057-.01067-.51505-.25702-1.15109.06502-.05769.02913-.08081.09956-.05168.15703.02916.05793.09997.0803.15724.05163.52538-.26476.92268-.07302.93941-.06509.01947.00983.0405.0136.06079.01214Z"/><path class="cls-14" d="M97.81686,11.93888c.03944-.00284.07651-.02567.09581-.06326.02949-.05757.00678-.12811-.05081-.15763-.02057-.01067-.51517-.25699-1.15124.06502-.05769.02913-.08079.09956-.05165.15703.02928.05793.09987.0803.15724.05163.53077-.26812.93486-.06725.93905-.06526.01973.01002.04098.01397.0616.01247Z"/><path class="cls-3" d="M96.95879,20.77121c3.95095-.3877,5.56892-4.08574,5.5063-4.9528-.00464-.06449-.06062-.1129-.12513-.10826-.06451.00466-.11292.06062-.10826.12511.05935.82194-1.49878,4.33029-5.2926,4.70275-.06442.00625-.11136.0637-.10511.12787.0063.06324.06177.10987.1248.10533Z"/><path class="cls-3" d="M95.6386,16.11019c.08821-.00637.15931-.07843.16253-.16869.00344-.09694-.0722-.17832-.16917-.18186-.3928-.01404-.54264-.08043-.68763-.14465l-.0855-.0369c-.03538-.0144-.05192-.04024-.05949-.05939-.01202-.03009-.01079-.06362.00334-.09489.0399-.08857.00053-.19248-.08778-.23217-.0879-.03995-.19229-.00079-.23221.08756-.05281.11722-.05627.25173-.00952.36936.04632.11626.1359.20669.25243.25442l.07663.03295c.16722.07408.3567.15799.81728.17469.00644.00022.01284,0,.01908-.00046Z"/><path class="cls-14" d="M97.18137,13.38898c.01846.25548.15304.45392.3006.44325.14753-.01065.25221-.22637.23375-.48183-.01844-.25546-.15301-.45392-.30055-.44325-.14756.01065-.25224.22637-.2338.48183Z"/><path class="cls-14" d="M93.10875,13.59249c.01844.25546.14285.45467.27786.44491.13499-.00973.22945-.22474.21101-.48022-.01844-.25543-.14285-.45464-.27781-.44489-.13501.00973-.2295.22476-.21106.48019Z"/><path class="cls-9" d="M100.78578,14.64847c-.12713,1.52103.51786,2.62153,1.44066,2.45806.92277-.16347,1.77392-1.52904,1.90109-3.05005.12715-1.52103-.51786-2.62153-1.44063-2.45806-.9228.16347-1.77394,1.52904-1.90112,3.05005Z"/><path class="cls-3" d="M102.38763,14.91374c.05641-.00409.10994-.03545.14003-.08828.04786-.08432.01848-.1915-.06574-.23923-.05103-.02911-.08927-.08636-.10247-.15301-.01317-.06663-.00026-.13078.03516-.17619.05968-.07627.04622-.18664-.03026-.24642-.0761-.05891-.18662-.04589-.2463.03038-.09838.12578-.13588.2937-.103.46017.03322.16809.13282.31004.27322.38996.0313.01788.06584.02502.09934.02262Z"/><path class="cls-14" d="M100.96245,12.98784c-.09045-.20923-.16587-.4239-.28346-.62335-.33129-.56211-.98354-.965-1.70578-1.17143-.72219-.2064-1.51137-.23166-2.2825-.17674-.73741.0525-2.38163-.57278-3.09536-.71097-.89275-.17284-1.20549.29115-1.74171-.31064-.0423-.0475.42349-.37761.44227-.43563.01882-.05814.09211-.09211.15876-.11814,1.2693-.49575,2.92342-1.90379,4.31385-1.90109,1.69991.00329,3.25323,1.48296,4.6187,2.27851.49507.28841.92003.64987,1.30002,1.0375.17215.17561.76827-.14201.9033.05454.47116.68568.90948,1.94679.99318,2.73811.06072.57394.06535,1.16453.04091,1.74349-.02745.65102-1.42573.12444-1.73762-.0972-.86747-.61643-1.53947-1.41595-1.92455-2.30694Z"/><path class="cls-3" d="M98.10536,14.52053c.01185.16405.31591.27574.67912.24952.36323-.02622.64809-.18044.63624-.34451-.01185-.16402-.31588-.27574-.67912-.24952-.36323.02625-.64806.18049-.63624.34451Z"/><path class="cls-3" d="M92.67215,14.56541c.36335-.02622.66736.08547.67921.24947.01175.16268-.26858.31535-.62734.3435l-.05971-.59206c.00276-.00019.00522-.00072.00784-.00091Z"/><path class="cls-15" d="M107.40037,36.78142c.20986-2.67109-1.99426-10.63808.24341-10.25605,3.19621.54569,11.05585,5.58199,11.35337,11.38524.18972,3.69936.03644,8.43353-.64124,12.43038l-11.72009-1.172c.24548-4.64655.54055-9.53436.76454-12.38757Z"/><path class="cls-15" d="M82.33304,34.65477c1.23815-3.42347,5.44749-5.84024,8.48581-4.94016,2.88802.85526,3.43898,5.56899,2.59769,7.83555-.62299,1.67823-2.4509,7.70687-5.38023,14.13921l-10.00703-3.4508c1.70986-5.37269,3.62035-11.69406,4.30377-13.58381Z"/><path class="cls-9" d="M76.29142,53.56353c.58132-1.50611.82216-2.44777,1.73784-5.32495l10.00703,3.4508c-.7569,1.66201-1.58617,3.35057-2.48849,4.99847-1.03298,1.88648-3.0967,4.25116-5.70927,3.87158-4.17585-.60667-4.26899-5.12533-3.54712-6.9959Z"/><path class="cls-3" d="M98.0877,78.75768c-.16361-5.51308-2.9464-6.74304-7.15033-6.74751-.20015.20015-.47637.30447-.75901.28964-4.04007-.21219-7.8582-2.98443-7.70054,2.32879l4.15237,53.28862c.04403.56516.5068,1.00637,1.07343,1.02339l11.72285.35242-1.33877-50.53535Z"/><polygon class="cls-9" points="88.21823 128.91069 88.91309 136.24333 98.19613 137.92798 98.23223 129.29303 88.21823 128.91069"/><path class="cls-3" d="M112.79118,74.22576c-.09038-1.43265-1.31137-6.36752-2.74693-6.36752l-14.38142,2.14583,3.38771,22.26092c.02108.1385.0473.27569.07658.4122.00305.4968.03562,1.00522.09958,1.52245l5.40708,35.16404,10.86411-.57187c.65782-.03464,1.15914-.60239,1.11208-1.25945l-3.8188-53.3066Z"/><polygon class="cls-9" points="105.73923 129.36367 107.3098 137.84383 116.3182 135.75581 115.81736 128.72873 105.73923 129.36367"/><path class="cls-8" d="M91.3313,57.80352c.08723,0,.16248-.06562.17246-.15434l3.48066-30.80732c.01086-.09528-.05783-.18152-.15323-.19215-.09458-.00998-.1815.05795-.19215.15321l-3.48066,30.80729c-.01084.0953.05783.18152.15323.19215.00656.0007.01312.00115.01969.00115Z"/><path class="cls-9" d="M95.90581,28.39991c-.79728-.23094-1.78449-1.13554-1.65513-2.49359,4.3717-2.08617,8.3127-1.74599,11.37524-.56961-2.87619,2.21705-6.21516,4.55942-9.72011,3.06319Z"/><path class="cls-15" d="M101.02687,48.29821c-2.0212,1.79661-5.16528,1.12287-6.73732-.8983-4.84959-5.65785-3.15472-13.13356-2.76611-20.13739,1.18736-.62143,2.33341-1.14109,3.20527-1.53728-.13597,1.35812.95765,2.44371,1.79497,2.6747,3.50935,1.05084,5.82892-.84617,8.84964-3.06322,1.55911.57016,3.11064,1.33617,4.42958,2.11612-1.37444,7.59904-2.53305,15.5779-8.77604,20.84538Z"/><path class="cls-3" d="M110.75616,74.24102c1.0787,0,1.88148-.99741,1.65198-2.05142-1.31579-6.04325-2.37804-10.81561-2.724-12.09941-3.14155-11.65849.52396-32.49192.56024-32.49463-.96532-.75077-1.29447-.71755-3.01063-1.4147-.96537,6.65009-.99712,14.46841-7.24013,19.73596-2.02118,1.79661-4.27363,2.39658-5.84567.37545-4.84961-5.6579-3.01315-12.02595-2.62451-19.02978-1.48113.77531-3.02652,1.70928-4.18549,2.76356l-3.7912,26.57419c-.71599,5.01837-1.07079,10.08183-1.06156,15.15113l.00445,2.48964h28.26653Z"/><path class="cls-10" d="M97.24143,27.51197c-.00704.01812-.00111.00764.00399-.00288l-.00399.00288Z"/><path class="cls-10" d="M106.89866,36.24784c-.00656.01697-.00103.00716.00375-.00269l-.00375.00269Z"/><path class="cls-9" d="M118.35592,50.341c-.45094,2.6598-.55064,4.6817-.89785,7.24237-.30057,2.21683-1.91388,7.41757-6.20826,7.43023-2.68681.00796-4.78808-1.65006-5.06841-4.01008-.07891-.66455.14948-6.06337.45443-11.83453l11.72009,1.172Z"/><path class="cls-9" d="M96.57556,37.86175c3.8094,3.86011,15.28256,15.16344,16.48041,16.50346,2.85418,3.19285,2.71373,7.9648.23897,10.02169-2.46763,2.05086-6.50477-.43998-8.08902-2.25072-1.53507-1.75469-9.36284-12.60424-13.12948-17.81297l4.49912-6.46145Z"/><path class="cls-3" d="M111.5052,53.1597c-.04576,0-.09155-.01738-.12674-.05201l-7.23645-7.15122c-.07088-.07007-.07136-.18414-.00139-.25502.0697-.07091.18378-.07124.2549-.00154l7.23645,7.15124c.07088.07007.07134.18414.00139.25502-.03521.03567-.08167.05353-.12816.05353Z"/><path class="cls-5" d="M89.19092,135.48057c-.10456-.21217-.36619-.31427-.6009-.28488-.23469.02937-.44308.16708-.61444.33014-.17133.16306-.31415.35364-.47974.52252-.54766.55858-1.44691.98435-1.50358,1.34434-.00808.05117-.00034.11823.04336.14607.03091.01966.06324-.04834.09987-.04783.47344.00644.94037-.13427,1.36321-.34725.35042-.17655.65624-.41027.97825-.63102.21407-.14674.42071-.26875.59631-.46469.14302-.1596.21899-.36182.11766-.5674Z"/><path class="cls-5" d="M98.62032,139.97933l-2.82682.02029c-.04728-.40926-.05269-.81947.01562-1.22693.12025-.71743.4608-1.37547.88655-1.97061.01538-.00668.02762-.01199.04298-.01865l1.4683.1913c.19813.02581.3478.19231.35247.39205l.06091,2.61254Z"/><path class="cls-1" d="M87.67371,136.23019s-1.77659,1.92042-5.45631,2.93934c-.38357.10622-1.10879.50332-1.08329.93527l5.04418-.0362,2.74332-.01969,2.66179-.01906,4.21008-.03021c-.04733-.40926-.05269-.81949.01565-1.227.11992-.71549.51084-1.4551.93496-2.04901-.19407.08002-.45861-.06192-.6747-.05968,0,0-5.68446-1.04675-7.34389-1.01687l-.17969-.01863-.8721.60175ZM89.01159,139.86015c.07011-.14025.14597-.27745.22712-.41162.08122-.13415.1677-.26531.25911-.3934-.09141.12809-.17789.25925-.25911.3934-.08115.13417-.157.27137-.22712.41162Z"/><path class="cls-5" d="M86.48978,140.29033l-.49668-2.83459c-.01608-.34615.268-.36924.5611-.58937l1.69143,3.40581-1.75584.01815Z"/><path class="cls-5" d="M88.34201,135.47391c.17121-.13246.88338.90828,1.00281,1.07937l2.59004,3.6374-2.99536.16498-1.95914-3.70162,1.36165-1.18013Z"/><polygon class="cls-12" points="96.41516 139.95286 96.42355 140.76548 89.87699 140.82499 89.86857 140.01156 96.41516 139.95286"/><path class="cls-11" d="M81.25192,140.0686l10.16514-.07925.00394.37999c.00252.2449-.30461.44638-.68501.44931l-9.09558.07095c-.3117.0024-.56497-.15837-.56552-.35908l-.00079-.28317c-.00026-.09809.07918-.17796.17782-.17876Z"/><path class="cls-12" d="M91.38939,140.81751l6.68696-.06915c.30031-.0031.54456-.1464.54019-.56985l-.01101-1.06495-6.31606.06533c-.96688.01-1.57091,1.20674-1.56651,1.63016l.66643.00846Z"/><path class="cls-11" d="M91.89172,140.80574c-.00058-.01043-.00183-.02072-.00192-.03125-.00423-.4072.26288-1.18282.67008-1.18703l4.5015.0231c.4072-.00421.74704.69546.75127,1.10266.0001.01055-.00094.02084-.0013.0313l-5.91963.06122Z"/><path class="cls-5" d="M115.88315,135.47295c.10458-.21217.36622-.31427.60093-.28488.23469.02937.44308.16708.61444.33014.17133.16306.31415.35364.47974.52252.54766.55858,1.44691.98435,1.50358,1.34434.00805.05117.00034.11823-.04339.14607-.03089.01966-.06322-.04834-.09987-.04783-.47342.00644-.94034-.13427-1.36321-.34725-.3504-.17655-.65621-.41027-.97825-.63102-.21404-.14674-.42068-.26875-.59631-.46469-.14299-.1596-.21897-.36182-.11766-.5674Z"/><path class="cls-5" d="M106.45378,139.97171l2.8268.02029c.0473-.40926.05271-.81947-.0156-1.22693-.12025-.71743-.46082-1.37547-.88655-1.97061-.01538-.00668-.02762-.01199-.04298-.01865l-1.4683.1913c-.19813.02581-.3478.19231-.35247.39205l-.06091,2.61254Z"/><path class="cls-1" d="M116.52828,135.62082l-.17969.01863c-1.65946-.02988-7.34389,1.01687-7.34389,1.01687-.21609-.00224-.48063.1397-.67472.05968.42414.59391.81507,1.33353.93498,2.04901.06833.40751.06295.81773.01565,1.227l4.21008.03021,2.66179.01906,2.74332.01969,5.04418.0362c.02548-.43193-.69972-.82906-1.08329-.93527-3.67972-1.01892-5.45631-2.93934-5.45631-2.93934l-.8721-.60175ZM115.83537,139.44091c-.08119-.13415-.1677-.26531-.25909-.3934.09139.12809.17789.25925.25909.3934.08117.13417.15703.27137.22714.41162-.07011-.14025-.14597-.27745-.22714-.41162Z"/><path class="cls-5" d="M118.58431,140.28271l.49668-2.83459c.01608-.34612-.268-.36924-.5611-.58934l-1.69143,3.40578,1.75584.01815Z"/><path class="cls-5" d="M116.73208,135.46629c-.17123-.13246-.88338.90828-1.00284,1.07937l-2.59002,3.6374,2.99536.16498,1.95914-3.70162-1.36165-1.18013Z"/><polygon class="cls-12" points="108.65893 139.94524 108.65054 140.75786 115.19711 140.81737 115.20552 140.00394 108.65893 139.94524"/><path class="cls-11" d="M123.82218,140.061l-10.16517-.07927-.00392.37999c-.00252.2449.30459.44638.68501.44931l9.09558.07095c.31168.0024.56497-.15837.56552-.35908l.00079-.28317c.00026-.09809-.07918-.17796-.17782-.17873Z"/><path class="cls-12" d="M113.6847,140.8099l-6.68696-.06915c-.30031-.0031-.54459-.1464-.54019-.56985l.01101-1.06495,6.31606.06533c.96688.01,1.57088,1.20674,1.56651,1.63016l-.66643.00846Z"/><path class="cls-11" d="M113.18237,140.79812c.00058-.01043.00183-.02072.00192-.03125.00421-.4072-.26288-1.18282-.67008-1.18703l-4.5015.0231c-.4072-.00421-.74707.69546-.75127,1.10266-.0001.01055.00094.02084.0013.0313l5.91963.06122Z"/><path class="cls-9" d="M96.06875,37.05702l-3.9807-4.2577c-.35333-.37792-.99161-.25498-1.16015.23418-.192.55728-.11343,1.38136,1.01437,2.41895l4.12648,1.60456Z"/><path class="cls-9" d="M82.73317,34.80514c-.44296-.20106-.64585-.71835-.45037-1.14883.19489-.43087.71722-.6191,1.16008-.41789l4.65514,2.11266c.0824.03738.17811.01339.23697-.05533.09088-.10583.05997-.26281-.06297-.3186l-3.53957-1.60624c-.44299-.20106-.64585-.71835-.45039-1.14883.19491-.43087.71712-.6191,1.16008-.41789l5.76592,2.6167c.87009-.00574,1.76209.11963,2.39232.39734,1.35408.59672,3.19071,2.99265,3.70301,4.24284.9707,2.36985.42296,1.42948.01204,3.48102-.51481,2.56923-3.44282,2.99628-6.23294,1.67544-1.6996-.80459-2.54418-1.34004-4.07214-2.43676-.0986-.07074-.1839-.14912-.25899-.2326l-3.36627-1.52757c-.44296-.20106-.64585-.71837-.45039-1.14883.19491-.43087.71724-.61912,1.16008-.41792l1.95686.88804c.16205.07355.35131-.01195.40126-.18275.04286-.14609-.02444-.29632-.15741-.35667l-3.30154-1.49825c-.44299-.20106-.64585-.71837-.45039-1.14883.19489-.43087.71722-.6191,1.16008-.41789l3.25669,1.47796c.1104.05012.23933.00147.29096-.10823.05463-.116.00695-.24858-.10574-.29973l-4.41239-2.00233Z"/></g></svg>