<svg width="31" height="31" viewBox="0 0 31 31" fill="none" xmlns="http://www.w3.org/2000/svg">
<path fill-rule="evenodd" clip-rule="evenodd" d="M6.21524 19.543C5.38959 22.0576 5.63588 23.8449 6.56683 24.7344C7.49779 25.6239 9.29448 25.7885 11.7689 24.8492C14.1796 23.934 16.9542 22.0578 19.4831 19.411C22.012 16.7641 23.7599 13.9069 24.5643 11.457C25.3899 8.94241 25.1436 7.15508 24.2127 6.26561C23.2817 5.37613 21.485 5.21152 19.0106 6.15086C16.5999 7.06603 13.8253 8.94225 11.2964 11.5891C8.76753 14.2359 7.01965 17.0931 6.21524 19.543ZM4.63292 19.0235C5.53058 16.2896 7.43067 13.2243 10.0923 10.4386C12.7538 7.65286 15.7294 5.6151 18.4196 4.59385C21.0461 3.59676 23.7009 3.47327 25.3632 5.06145C27.0254 6.64963 27.023 9.30737 26.1466 11.9766C25.2489 14.7104 23.3488 17.7757 20.6872 20.5615C18.0257 23.3472 15.0501 25.3849 12.3599 26.4062C9.73345 27.4033 7.07858 27.5268 5.41633 25.9386C3.75408 24.3504 3.75651 21.6927 4.63292 19.0235Z" fill="url(#paint0_linear_1161_204)"/>
<path fill-rule="evenodd" clip-rule="evenodd" d="M11.5565 6.23575C9.06138 5.35302 7.26891 5.55853 6.35846 6.46898C5.44801 7.37943 5.2425 9.17191 6.12522 11.667C6.98524 14.098 8.79776 16.9146 11.3863 19.5032C13.9748 22.0917 16.7915 23.9042 19.2224 24.7642C21.7175 25.647 23.51 25.4414 24.4205 24.531C25.3309 23.6205 25.5364 21.8281 24.6537 19.3329C23.7937 16.902 21.9812 14.0853 19.3926 11.4968C16.8041 8.90829 13.9875 7.09576 11.5565 6.23575ZM12.112 4.66568C14.8247 5.62538 17.8459 7.59482 20.5703 10.3192C23.2946 13.0435 25.2641 16.0647 26.2238 18.7775C27.1608 21.426 27.2237 24.083 25.5981 25.7086C23.9725 27.3343 21.3155 27.2713 18.6669 26.3343C15.9542 25.3746 12.933 23.4052 10.2087 20.6808C7.48429 17.9564 5.51486 14.9352 4.55516 12.2225C3.61816 9.57398 3.55518 6.91698 5.18082 5.29135C6.80646 3.66571 9.46345 3.72869 12.112 4.66568Z" fill="url(#paint1_linear_1161_204)"/>
<defs>
<linearGradient id="paint0_linear_1161_204" x1="15.3898" y1="4.55005" x2="15.3898" y2="26.45" gradientUnits="userSpaceOnUse">
<stop stop-color="#61D381"/>
<stop offset="0.205" stop-color="white"/>
<stop offset="0.41" stop-color="#AFE48D"/>
<stop offset="0.635" stop-color="white"/>
<stop offset="0.965" stop-color="#61D384"/>
</linearGradient>
<linearGradient id="paint1_linear_1161_204" x1="26.3366" y1="15.7495" x2="4.44235" y2="15.2505" gradientUnits="userSpaceOnUse">
<stop stop-color="#61D381"/>
<stop offset="0.205" stop-color="white"/>
<stop offset="0.41" stop-color="#AFE48D"/>
<stop offset="0.635" stop-color="white"/>
<stop offset="0.965" stop-color="#61D384"/>
</linearGradient>
</defs>
</svg>
