<?xml version="1.0" encoding="UTF-8"?><svg id="_レイヤー_2" xmlns="http://www.w3.org/2000/svg" viewBox="0 0 1726.92046 176.35531"><defs><style>.cls-1,.cls-2{stroke-width:0px;}.cls-2{fill:red;}</style></defs><g id="_レイヤー_1-2"><path class="cls-2" d="m101,.88655c0,1.1,20.3,37.1,26.9,47.7l2.6,4.3h9.5c12.4,0,22.1,1.5,27.1,4.1,6.5,3.3,12.9,9.9,16,16.4,2.5,5.1,2.9,7.2,2.9,14.5s-.4,9.4-2.9,14.5c-3.3,7-10.9,14.6-17.8,17.7-4.2,2-6.6,2.2-19.7,2.3h-14.9l-3-5c-1.6-2.8-7.1-12.2-12.2-21-5-8.8-14.8-25.7-21.7-37.5-6.8-11.8-17.1-29.7-22.9-39.7L60.5.88655H0l2.1,4.2c2.3,4.4,66.5,117.1,74.9,131.3,2.6,4.4,8.7,14.9,13.6,23.4,5.5,9.5,9.7,15.6,11,16.1,1.1.5,15.5.6,32,.3,27.1-.5,30.8-.7,39.3-2.9,47.3-11.9,76-59.8,64.1-107-6.4-25.3-24.3-46.8-48.4-57.9C173,1.18655,169.1.58655,133.3.08655c-24.2-.2-32.3-.1-32.3.8Zm-53.4,21.8c1,.6,12.5,20.4,56.7,97.2,7.1,12.4,13.4,23,13.9,23.7,1.2,1.5,37.5.8,45.3-.9,19.7-4.1,37.9-22,42.5-41.8,4.3-18.2-1.3-38.2-14.5-51.6-10.5-10.6-22.7-16-38.9-17.1l-9.4-.6-2.1-3.7c-3.5-6.3-3.5-6.4,10.7-5.7,22.2,1,37.4,8.2,50.9,24.1,29.2,34.4,14,88.4-29.5,104.3-7.7,2.9-28.2,4.6-48.7,4.1l-12-.3-16.3-28c-16.5-28.5-19-32.8-44.6-77.4-8-13.9-14.3-25.7-14-26.2.6-1.1,8.5-1.2,10-.1Z"/><path class="cls-1" d="m395.50001,34.38655c-.7.5-6.5,14.3-13,30.5-15.9,40.5-20,50.1-21.1,50.2-.5,0-6.4-14.3-13.1-31.8-6.7-17.6-13.7-35.7-15.6-40.4l-3.3-8.5-11.9-.3c-6.5-.1-12.2.1-12.6.5-.7.7,25.6,65.7,39.5,97.8l4.3,10,11.5.3c8.4.2,11.8-.1,12.5-1,.6-.7,4.6-9.2,8.8-18.8,8.2-18.3,15.2-33.9,30.4-67.9,5.1-11.2,8.9-20.6,8.6-20.9-1-1.1-23.6-.8-25,.3Z"/><path class="cls-1" d="m427.80001,43.58655c-.2,6-.3,30.6-.3,54.8v44h23l.3-54.8.2-54.7h-22.9l-.3,10.7Z"/><path class="cls-1" d="m468.00001,33.08655c0,.2-.3,24.6-.7,54.4-.4,42.6-.3,54.3.7,54.9,2.2,1.3,62.9,1.1,68.4-.3,22.1-5.7,33.9-24.3,33.8-53.7,0-12.8-2-23.1-6.4-32.4-4-8.3-8.8-13.6-16.1-17.2-9.5-4.9-18.5-5.9-50.9-5.9-15.9,0-28.8.1-28.8.2Zm62.5,22c4.9,2.6,8.3,6.6,10.7,12.7,2,5,2.3,7.3,2.3,21.1v15.5l-3.3,6.7c-5.5,11.2-9.4,12.8-32.3,12.8-13.7,0-15.8-.2-16.3-1.7-.7-1.6-.5-42.7.2-60.1l.3-9.4,17.7.4c14.1.2,18.3.6,20.7,2Z"/><path class="cls-1" d="m618.50001,33.48655c-1.1.2-4.5.9-7.5,1.5-21.6,4.4-33.5,23.6-33.3,53.4.2,23.5,7.3,40.7,20.1,48.2,9.2,5.4,15.5,6.5,42.9,7l25.2.6.3-9.2c.2-5,.2-9.6,0-10.1-.2-.6-8.3-1-20.6-1-23.3,0-28.5-1-34-6.4-3.5-3.6-6.6-10.9-6.6-15.8,0-2.2.5-2.8,2.3-2.9,1.2-.1,14.4-.3,29.2-.4,14.9-.1,27.8-.3,28.8-.4,1.5-.1,1.7-1.3,1.7-9.6v-9.5l-23.7-.1c-13.1-.1-25.4-.2-27.3-.4-1.9-.1-5.2-.3-7.2-.4-3.7-.1-3.8-.2-3.8-3.9,0-4,3-11.5,5.8-14.5.9-1.1,3.5-2.9,5.7-4.1,3.7-1.9,5.9-2.1,27-2.6l23-.5v-19l-23-.1c-12.6-.1-23.9,0-25,.2Z"/><path class="cls-1" d="m711.50001,35.28655c-18.9,5.2-29.1,15.3-34.3,33.9-2.1,7.8-2.3,32.4-.3,40.7,3.2,13,11.1,23.3,21.9,28.8,10.1,5,19.2,6.5,35.1,5.9,16.5-.6,24.3-2.8,32.8-9,9.2-6.8,14.2-14.9,17.8-28.5,2-7.9,2-29.4,0-38.1-3.3-13.8-11.7-25-22.8-30.1-12.9-6.1-35.6-7.7-50.2-3.6Zm35.2,20c9.9,5.4,13.5,13.9,13.6,31.6.1,18.5-4.2,30.5-12.6,35.4-12.3,7.1-32.9,4.8-40-4.5-5.3-7-6.2-11.1-6.2-27.9,0-17.6,1.3-23.1,7.3-30,5-5.9,11.5-8.1,23.2-7.7,8.2.2,10.2.7,14.7,3.1Z"/><path class="cls-1" d="m787.40001,35.18655c-.3.8-.4,4.9-.2,9.3l.3,7.9,17.5.5,17.5.5.5,45.5.5,45.5,11.2.3,11.1.3.4-7.8c.2-4.3.5-24.7.6-45.3.2-28,.6-37.6,1.5-38.2.7-.4,9-.8,18.5-.8h17.3l-.3-9.3-.3-9.2-47.8-.3c-39.3-.2-47.8,0-48.3,1.1Z"/><path class="cls-1" d="m893.20001,88.98655l.3,55.4h23l.5-44.7c.4-32.1.8-45,1.7-45.9.8-.8,6.3-1,19-.7,20.3.4,22.9,1.2,26.3,7.8,3.7,7.2,2,15.8-3.9,20-2.6,1.8-5.3,2.4-13.8,3.1-5.8.4-10.8,1.1-11.1,1.4-.7.6-.6.7,18.6,33.5l14.9,25.5,13.6.3c7.6.1,13.7,0,13.7-.3,0-.4-4.9-8.6-10.9-18.3-10.2-16.7-14.1-23.5-14.1-24.6,0-.2,2.4-1.6,5.3-2.9,11.6-5.5,17.7-15.7,17.7-30.2,0-10.6-3-18.7-9.5-25.2-8.4-8.3-9.4-8.5-53.8-9l-37.7-.5.2,55.3Z"/><path class="cls-1" d="m1045.60002,34.98655c-9.3,1-13.1,2.1-20.8,6.2-15.2,7.9-23.9,25.8-23.8,49,.2,31.4,13.2,50.4,37.6,54.5,28.5,4.9,52.6-1.4,63.9-16.7,11.8-16.2,13.8-49,4.1-68.5-7.3-14.7-18.6-22-37.9-24.6-8.7-1.1-11.7-1.1-23.1.1Zm22.3,19.5c6.3,1.8,12.7,7.3,15.2,13,1,2.2,2.4,8.5,3,14,2.5,22.6-3.1,39-15.2,43.8-9.8,4-23.9,2.9-32.2-2.4-3.5-2.2-5.2-4.3-7.7-9.4-2.9-5.8-3.3-7.7-3.8-17.4-1.1-24.4,5-38.1,18.6-41.8,6.5-1.8,15.9-1.7,22.1.2Z"/><path class="cls-1" d="m1121.60002,36.48655c-.3.9-.6,25.8-.6,55.5v53.9h24l.2-45.3.3-45.2,20-.3c19.1-.2,20.2-.1,24.5,2,2.6,1.4,5.3,3.7,6.5,5.8,1.9,3.4,2,4.9,1.7,42.6-.2,32.9,0,39.3,1.2,40.3.9.8,4.8,1.1,11.7.9l10.4-.3V61.38655l-2.8-5.7c-3.5-7.2-11.9-15-19-17.6-4.8-1.8-8.7-2.1-41.4-2.6-32-.5-36.2-.4-36.7,1Z"/><path class="cls-1" d="m1329.90002,38.18655c-13.3,4.6-21.7,13.4-26.6,28-2.4,7.4-2.7,9.7-2.7,23.2-.1,12.8.3,16.2,2.2,23,5.5,18.9,15.8,29.2,32.7,32.5,3.3.6,16.9,1.4,30.2,1.7l24.2.6.6-2.4c.3-1.3.5-6,.3-10.4l-.3-8-23.5-.5q-23.5-.5-28.2-3.3c-3-1.7-5.7-4.3-7.2-7-8.3-14.6-5.9-48.5,4-55.4,5.1-3.5,6.6-3.7,30.9-4.3l24-.5v-19l-27-.2c-25.8-.3-27.3-.2-33.6,2Z"/><path class="cls-1" d="m1437.00002,37.38655c-13.4,2.9-19.6,6.1-26.9,14-4.8,5.2-7.2,9.7-10.2,19.5-2.1,6.5-2.4,9.5-2.4,22,0,12.3.4,15.6,2.4,21.9,7.2,23.4,22.6,33.1,52.6,33.3,19.3.2,31.9-3.9,41.6-13.3,9.5-9.2,14.1-22.9,14.2-41.9.1-30.8-10.7-47.7-34.7-54.3-9.4-2.5-27.8-3.1-36.6-1.2Zm30.6,20.3c5.1,2.6,9.8,7.7,11.9,12.7,2,4.9,3.7,22.1,3,29.5-1.5,14.7-7,24.1-16.3,27.7-5.7,2.2-19.9,2.4-25.6.4-4.8-1.7-11.2-7.3-13.6-12.1-5.6-11-5.2-37,.8-48.6,4.7-9.1,12.7-12.7,26.8-12,6.5.3,10.3,1,13,2.4Z"/><path class="cls-1" d="m1517.80002,36.48655c-.9.9-1.1,106.5-.2,108.8.5,1.3,2.5,1.6,12,1.6h11.4v-43.9c0-24.2.3-44.6.6-45.5.5-1.4,3.1-1.6,18.8-1.6,19.8,0,22.9.7,26.9,6.2,3,4,3.4,11.6.9,16.5-3,5.7-7.4,7.6-19.4,8.1-5.4.2-9.8.9-9.8,1.4,0,.8,26.3,46,32.6,55.9l2.4,3.9h13c8.1,0,13-.4,13-1s-3.3-6.3-7.3-12.8c-13.4-21.4-17.9-29.3-17.2-30,.3-.4,3.2-2,6.3-3.7,11-5.9,17.1-18.3,15.9-32.5-1.3-16.1-10.6-27.4-24.5-29.9-6.2-1.2-74.5-2.5-75.4-1.5Z"/><path class="cls-1" d="m1628.00002,91.08655c0,29.8.4,54.9.8,55.6.6.9,3.8,1.2,12.3,1l11.4-.3.5-19,.5-19,25.5-.5c29-.6,30.9-1,38.8-9.1,5.5-5.7,8.3-13,8.9-24.1.5-7.9.3-9.6-2.2-16.4-3.5-9.5-9.6-16.1-18.2-19.5-5.6-2.2-7.2-2.3-42-2.7l-36.3-.4v54.4Zm64-32.6c8,4.7,10.6,15.4,5.7,23.8-3.9,6.8-6.7,7.6-26.2,7.6-12,0-17.5-.4-18.3-1.2-1.6-1.6-1.7-28.1-.1-30.9,1-2,1.9-2,18.2-1.7,15.2.3,17.6.5,20.7,2.4Z"/><path class="cls-1" d="m1707.70003,129.58655c-.4.3-.7,4.6-.7,9.5v8.8l3.3.1c1.7,0,5.2.1,7.7.3,7.3.3,8.1-.5,7.9-7.7-.3-12.2.1-11.7-9.4-11.7-4.5,0-8.5.3-8.8.7Z"/></g></svg>