<svg width="93" height="226" viewBox="0 0 93 226" fill="none" xmlns="http://www.w3.org/2000/svg">
<path d="M14.2313 214.16C15.1273 214.896 15.842 215.733 16.3753 216.672C16.9086 217.621 17.1753 218.683 17.1753 219.856C17.1753 220.731 17.0366 221.499 16.7593 222.16C16.482 222.832 16.082 223.387 15.5593 223.824C15.0366 224.261 14.4073 224.592 13.6713 224.816C12.9353 225.04 12.1033 225.152 11.1753 225.152L0.999298 225.152L0.999298 223.616L11.1753 223.616C12.6686 223.616 13.8366 223.275 14.6793 222.592C15.5326 221.909 15.9593 220.869 15.9593 219.472C15.9593 218.437 15.6926 217.467 15.1593 216.56C14.6366 215.664 13.906 214.864 12.9673 214.16L0.999298 214.16L0.999298 212.624L24.2793 212.624L24.2793 214.16L14.2313 214.16Z" fill="white" fill-opacity="0.7"/>
<path d="M14.7918 208.234C14.7384 208.181 14.6904 208.128 14.6478 208.074C14.6158 208.032 14.5998 207.968 14.5998 207.882C14.5998 207.776 14.6691 207.632 14.8078 207.45C14.9571 207.269 15.1171 207.024 15.2878 206.714C15.4584 206.405 15.6131 206.016 15.7518 205.546C15.9011 205.088 15.9758 204.528 15.9758 203.866C15.9758 202.949 15.8104 202.133 15.4798 201.418C15.1598 200.714 14.6958 200.117 14.0878 199.626C13.4798 199.136 12.7438 198.762 11.8798 198.506C11.0158 198.261 10.0451 198.138 8.96778 198.138C7.84778 198.138 6.85578 198.266 5.99178 198.522C5.12778 198.789 4.39711 199.162 3.79978 199.642C3.21311 200.122 2.76511 200.704 2.45578 201.386C2.14645 202.069 1.99178 202.826 1.99178 203.658C1.99178 204.426 2.08244 205.066 2.26378 205.578C2.44511 206.101 2.64245 206.528 2.85578 206.858C3.06911 207.2 3.26644 207.466 3.44778 207.658C3.62911 207.85 3.71978 208.01 3.71978 208.138C3.71978 208.266 3.66644 208.373 3.55978 208.458L3.04777 208.858C2.72777 208.613 2.42911 208.304 2.15178 207.93C1.87445 207.557 1.63444 207.136 1.43178 206.666C1.22911 206.197 1.07445 205.685 0.967781 205.13C0.850447 204.586 0.791778 204.016 0.791778 203.418C0.791778 202.405 0.97311 201.477 1.33578 200.634C1.70911 199.802 2.24244 199.082 2.93578 198.474C3.63978 197.877 4.49845 197.408 5.51178 197.066C6.52511 196.736 7.67711 196.57 8.96778 196.57C10.1838 196.57 11.2931 196.73 12.2958 197.05C13.2984 197.37 14.1624 197.84 14.8878 198.458C15.6131 199.077 16.1731 199.829 16.5678 200.714C16.9731 201.61 17.1758 202.634 17.1758 203.786C17.1758 204.821 17.0104 205.738 16.6798 206.538C16.3491 207.338 15.9011 208.037 15.3358 208.634L14.7918 208.234Z" fill="white" fill-opacity="0.7"/>
<path d="M16.9199 192.289L0.999923 192.289L0.999923 191.441C0.999923 191.174 1.13859 191.019 1.41592 190.977L3.78392 190.833C2.86659 190.097 2.13059 189.243 1.57592 188.273C1.02125 187.313 0.743927 186.241 0.743927 185.057C0.743927 184.171 0.882594 183.398 1.15993 182.737C1.43726 182.075 1.83726 181.526 2.35992 181.089C2.88259 180.651 3.51192 180.321 4.24792 180.097C4.98392 179.873 5.81593 179.761 6.74393 179.761L16.9199 179.761L16.9199 181.297L6.74393 181.297C5.25059 181.297 4.07726 181.638 3.22392 182.321C2.38126 183.003 1.95992 184.043 1.95992 185.441C1.95992 186.475 2.22126 187.441 2.74393 188.337C3.27726 189.243 4.01326 190.049 4.95193 190.753L16.9199 190.753L16.9199 192.289Z" fill="white" fill-opacity="0.7"/>
<path d="M17.1758 168.397C17.1758 169.538 16.9784 170.557 16.5838 171.453C16.1998 172.359 15.6504 173.122 14.9358 173.741C14.2211 174.359 13.3571 174.829 12.3438 175.149C11.3411 175.479 10.2158 175.645 8.96778 175.645C7.71978 175.645 6.59445 175.479 5.59178 175.149C4.58911 174.829 3.73044 174.359 3.01578 173.741C2.30111 173.122 1.75177 172.359 1.36777 171.453C0.983775 170.557 0.791778 169.538 0.791778 168.397C0.791778 167.255 0.983775 166.231 1.36777 165.325C1.75177 164.429 2.30111 163.666 3.01578 163.037C3.73044 162.418 4.58911 161.943 5.59178 161.613C6.59445 161.293 7.71978 161.133 8.96778 161.133C10.2158 161.133 11.3411 161.293 12.3438 161.613C13.3571 161.943 14.2211 162.418 14.9358 163.037C15.6504 163.666 16.1998 164.429 16.5838 165.325C16.9784 166.231 17.1758 167.255 17.1758 168.397ZM1.99178 168.397C1.99178 169.346 2.15178 170.173 2.47178 170.877C2.80245 171.591 3.27178 172.183 3.87978 172.653C4.48778 173.133 5.21844 173.49 6.07178 173.725C6.93578 173.959 7.90111 174.077 8.96778 174.077C10.0238 174.077 10.9838 173.959 11.8478 173.725C12.7118 173.49 13.4478 173.133 14.0558 172.653C14.6744 172.183 15.1491 171.591 15.4798 170.877C15.8104 170.173 15.9758 169.346 15.9758 168.397C15.9758 167.447 15.8104 166.615 15.4798 165.901C15.1491 165.197 14.6744 164.605 14.0558 164.125C13.4478 163.655 12.7118 163.298 11.8478 163.053C10.9838 162.818 10.0238 162.701 8.96778 162.701C7.90111 162.701 6.93578 162.818 6.07178 163.053C5.21844 163.298 4.48778 163.655 3.87978 164.125C3.27178 164.605 2.80245 165.197 2.47178 165.901C2.15178 166.615 1.99178 167.447 1.99178 168.397Z" fill="white" fill-opacity="0.7"/>
<path d="M0.743911 155.539C0.743912 154.461 1.04257 153.619 1.63991 153.011C2.23724 152.413 3.15991 152.115 4.40791 152.115L15.2879 152.115L15.2879 149.827C15.2879 149.709 15.3199 149.613 15.3839 149.539C15.4479 149.464 15.5386 149.427 15.6559 149.427L16.2479 149.427L16.4399 152.147L22.1359 152.531C22.2319 152.552 22.3172 152.595 22.3919 152.659C22.4666 152.723 22.5039 152.813 22.5039 152.931L22.5039 153.651L16.4239 153.651L16.4239 158.675L15.2879 158.675L15.2879 153.651L4.48791 153.651C4.05057 153.651 3.67191 153.704 3.35191 153.811C3.04257 153.928 2.78657 154.083 2.58391 154.275C2.38124 154.477 2.23191 154.712 2.13591 154.979C2.03991 155.245 1.9919 155.533 1.9919 155.843C1.9919 156.227 2.04524 156.557 2.15191 156.835C2.26924 157.112 2.3919 157.352 2.5199 157.555C2.65857 157.757 2.78124 157.923 2.88791 158.051C3.00524 158.179 3.06391 158.28 3.06391 158.355C3.06391 158.44 3.01057 158.525 2.90391 158.611L2.23191 159.027C1.78391 158.621 1.42124 158.104 1.14391 157.475C0.877239 156.856 0.743911 156.211 0.743911 155.539Z" fill="white" fill-opacity="0.7"/>
<path d="M10.5678 136.98C11.4211 136.98 12.1838 136.857 12.8558 136.612C13.5384 136.377 14.1144 136.041 14.5838 135.604C15.0531 135.166 15.4104 134.644 15.6558 134.036C15.9118 133.438 16.0398 132.777 16.0398 132.052C16.0398 131.23 15.9118 130.494 15.6558 129.844C15.3998 129.193 15.0318 128.628 14.5518 128.148C14.0718 127.678 13.4958 127.3 12.8238 127.012C12.1518 126.724 11.3998 126.532 10.5678 126.436L10.5678 136.98ZM9.59178 126.356L9.28778 126.356C8.09311 126.356 7.04245 126.494 6.13578 126.772C5.22911 127.049 4.46645 127.444 3.84778 127.956C3.23978 128.468 2.78111 129.086 2.47178 129.812C2.16245 130.537 2.00778 131.348 2.00778 132.244C2.00778 133.044 2.09311 133.737 2.26378 134.324C2.44511 134.91 2.64245 135.401 2.85578 135.796C3.07978 136.201 3.27711 136.521 3.44778 136.756C3.62911 136.99 3.71978 137.161 3.71978 137.268C3.71978 137.406 3.66644 137.513 3.55978 137.588L3.04777 138.004C2.72777 137.748 2.42911 137.406 2.15178 136.98C1.87445 136.564 1.63444 136.094 1.43178 135.572C1.23978 135.06 1.08511 134.505 0.967781 133.908C0.850447 133.321 0.791778 132.729 0.791778 132.132C0.791778 131.044 0.978443 130.052 1.35178 129.156C1.73578 128.26 2.29044 127.492 3.01578 126.852C3.74111 126.212 4.62644 125.716 5.67178 125.364C6.72778 125.022 7.93311 124.852 9.28778 124.852C10.4291 124.852 11.4798 125.012 12.4398 125.332C13.4104 125.662 14.2425 126.132 14.9358 126.74C15.6398 127.358 16.1891 128.11 16.5838 128.996C16.9784 129.892 17.1758 130.905 17.1758 132.036C17.1758 132.932 17.0211 133.764 16.7118 134.532C16.4024 135.3 15.9491 135.966 15.3518 136.532C14.7651 137.097 14.0398 137.54 13.1758 137.86C12.3118 138.19 11.3198 138.356 10.1998 138.356C9.96511 138.356 9.80511 138.324 9.71978 138.26C9.63445 138.196 9.59178 138.089 9.59178 137.94L9.59178 126.356Z" fill="white" fill-opacity="0.7"/>
<path d="M23.6406 124.057L1.00062 116.937L1.00062 115.465L20.6486 108.777C20.9153 108.692 21.1926 108.617 21.4806 108.553C21.1926 108.489 20.9153 108.415 20.6486 108.329L1.00063 101.625L1.00063 100.169L23.6406 93.0332L23.6406 94.3932C23.6406 94.7025 23.4966 94.8999 23.2086 94.9852L4.60062 100.697C4.17396 100.815 3.68862 100.921 3.14462 101.017C3.42196 101.071 3.67796 101.124 3.91263 101.177C4.15796 101.231 4.38729 101.295 4.60062 101.369L23.2086 107.769C23.326 107.812 23.4273 107.887 23.5126 107.993C23.598 108.1 23.6406 108.228 23.6406 108.377L23.6406 108.825C23.6406 108.975 23.598 109.097 23.5126 109.193C23.438 109.289 23.3366 109.364 23.2086 109.417L4.60062 115.817C4.39796 115.892 4.17396 115.956 3.92863 116.009C3.68329 116.073 3.4273 116.132 3.16063 116.185C3.42729 116.239 3.67796 116.287 3.91263 116.329C4.15796 116.383 4.38729 116.436 4.60062 116.489L23.2086 122.201C23.326 122.233 23.4273 122.303 23.5126 122.409C23.598 122.527 23.6406 122.66 23.6406 122.809L23.6406 124.057Z" fill="white" fill-opacity="0.7"/>
<path d="M44.5678 191.448C45.4211 191.448 46.1838 191.326 46.8558 191.08C47.5384 190.846 48.1144 190.51 48.5838 190.072C49.0531 189.635 49.4104 189.112 49.6558 188.504C49.9118 187.907 50.0398 187.246 50.0398 186.52C50.0398 185.699 49.9118 184.963 49.6558 184.312C49.3998 183.662 49.0318 183.096 48.5518 182.616C48.0718 182.147 47.4958 181.768 46.8238 181.48C46.1518 181.192 45.3998 181 44.5678 180.904L44.5678 191.448ZM43.5918 180.824L43.2878 180.824C42.0931 180.824 41.0424 180.963 40.1358 181.24C39.2291 181.518 38.4664 181.912 37.8478 182.424C37.2398 182.936 36.7811 183.555 36.4718 184.28C36.1624 185.006 36.0078 185.816 36.0078 186.712C36.0078 187.512 36.0931 188.206 36.2638 188.792C36.4451 189.379 36.6424 189.87 36.8558 190.264C37.0798 190.67 37.2771 190.99 37.4478 191.224C37.6291 191.459 37.7198 191.63 37.7198 191.736C37.7198 191.875 37.6664 191.982 37.5598 192.056L37.0478 192.472C36.7278 192.216 36.4291 191.875 36.1518 191.448C35.8744 191.032 35.6344 190.563 35.4318 190.04C35.2398 189.528 35.0851 188.974 34.9678 188.376C34.8504 187.79 34.7918 187.198 34.7918 186.6C34.7918 185.512 34.9784 184.52 35.3518 183.624C35.7358 182.728 36.2904 181.96 37.0158 181.32C37.7411 180.68 38.6264 180.184 39.6718 179.832C40.7278 179.491 41.9331 179.32 43.2878 179.32C44.4291 179.32 45.4798 179.48 46.4398 179.8C47.4104 180.131 48.2424 180.6 48.9358 181.208C49.6398 181.827 50.1891 182.579 50.5838 183.464C50.9784 184.36 51.1758 185.374 51.1758 186.504C51.1758 187.4 51.0211 188.232 50.7118 189C50.4024 189.768 49.9491 190.435 49.3518 191C48.7651 191.566 48.0398 192.008 47.1758 192.328C46.3118 192.659 45.3198 192.824 44.1998 192.824C43.9651 192.824 43.8051 192.792 43.7198 192.728C43.6344 192.664 43.5918 192.558 43.5918 192.408L43.5918 180.824Z" fill="white" fill-opacity="0.7"/>
<path d="M48.1358 164.143C49.0531 164.879 49.7891 165.727 50.3438 166.687C50.8984 167.657 51.1758 168.735 51.1758 169.919C51.1758 170.793 51.0371 171.561 50.7598 172.223C50.4824 172.895 50.0824 173.449 49.5598 173.887C49.0371 174.324 48.4078 174.655 47.6718 174.879C46.9358 175.103 46.1038 175.215 45.1758 175.215L34.9998 175.215L34.9998 173.679L45.1758 173.679C46.6691 173.679 47.8371 173.337 48.6798 172.655C49.5331 171.972 49.9598 170.932 49.9598 169.535C49.9598 168.5 49.6931 167.529 49.1598 166.623C48.6371 165.727 47.9064 164.927 46.9678 164.223L34.9998 164.223L34.9998 162.687L50.9198 162.687L50.9198 163.535C50.9198 163.801 50.7864 163.956 50.5198 163.999L48.1358 164.143Z" fill="white" fill-opacity="0.7"/>
<path d="M51.1758 151.147C51.1758 152.288 50.9784 153.307 50.5838 154.203C50.1998 155.109 49.6504 155.872 48.9358 156.491C48.2211 157.109 47.3571 157.579 46.3438 157.899C45.3411 158.229 44.2158 158.395 42.9678 158.395C41.7198 158.395 40.5944 158.229 39.5918 157.899C38.5891 157.579 37.7304 157.109 37.0158 156.491C36.3011 155.872 35.7518 155.109 35.3678 154.203C34.9838 153.307 34.7918 152.288 34.7918 151.147C34.7918 150.005 34.9838 148.981 35.3678 148.075C35.7518 147.179 36.3011 146.416 37.0158 145.787C37.7304 145.168 38.5891 144.693 39.5918 144.363C40.5944 144.043 41.7198 143.883 42.9678 143.883C44.2158 143.883 45.3411 144.043 46.3438 144.363C47.3571 144.693 48.2211 145.168 48.9358 145.787C49.6504 146.416 50.1998 147.179 50.5838 148.075C50.9784 148.981 51.1758 150.005 51.1758 151.147ZM35.9918 151.147C35.9918 152.096 36.1518 152.923 36.4718 153.627C36.8024 154.341 37.2718 154.933 37.8798 155.403C38.4878 155.883 39.2184 156.24 40.0718 156.475C40.9358 156.709 41.9011 156.827 42.9678 156.827C44.0238 156.827 44.9838 156.709 45.8478 156.475C46.7118 156.24 47.4478 155.883 48.0558 155.403C48.6744 154.933 49.1491 154.341 49.4798 153.627C49.8104 152.923 49.9758 152.096 49.9758 151.147C49.9758 150.197 49.8104 149.365 49.4798 148.651C49.1491 147.947 48.6744 147.355 48.0558 146.875C47.4478 146.405 46.7118 146.048 45.8478 145.803C44.9838 145.568 44.0238 145.451 42.9678 145.451C41.9011 145.451 40.9358 145.568 40.0718 145.803C39.2184 146.048 38.4878 146.405 37.8798 146.875C37.2718 147.355 36.8024 147.947 36.4718 148.651C36.1518 149.365 35.9918 150.197 35.9918 151.147Z" fill="white" fill-opacity="0.7"/>
<path d="M50.9199 142.019L29.8799 132.867C29.7306 132.803 29.6079 132.718 29.5119 132.611C29.4159 132.515 29.3679 132.371 29.3679 132.179L29.3679 131.091L35.5919 133.891L50.9199 127.155L50.9199 128.419C50.9199 128.579 50.8773 128.707 50.7919 128.803C50.7173 128.899 50.6319 128.963 50.5359 128.995L38.1519 134.355C37.9919 134.419 37.8266 134.473 37.6559 134.515C37.4959 134.569 37.3306 134.617 37.1599 134.659C37.3306 134.713 37.4959 134.766 37.6559 134.819C37.8266 134.883 37.9919 134.947 38.1519 135.011L50.5359 140.307C50.6533 140.361 50.7439 140.435 50.8079 140.531C50.8826 140.627 50.9199 140.734 50.9199 140.851L50.9199 142.019Z" fill="white" fill-opacity="0.7"/>
<path d="M47.0794 119.299C47.7301 119.544 48.3061 119.821 48.8074 120.131C49.3194 120.451 49.7514 120.813 50.1034 121.219C50.4554 121.635 50.7221 122.093 50.9034 122.595C51.0954 123.107 51.1914 123.672 51.1914 124.291C51.1914 124.621 51.1594 124.947 51.0954 125.267C51.0421 125.587 50.9407 125.869 50.7914 126.115L49.7354 125.987C49.5647 125.933 49.4794 125.832 49.4794 125.683C49.4794 125.555 49.5167 125.357 49.5914 125.091C49.6661 124.835 49.7034 124.493 49.7034 124.067C49.7034 123.448 49.6074 122.899 49.4154 122.419C49.2341 121.949 48.9567 121.523 48.5834 121.139C48.2101 120.765 47.7461 120.435 47.1914 120.147C46.6474 119.869 46.0181 119.613 45.3034 119.379L34.9994 119.379L34.9994 117.843L50.9194 117.843L50.9194 118.659C50.9194 118.84 50.8821 118.968 50.8074 119.043C50.7327 119.117 50.6047 119.165 50.4234 119.187L47.0794 119.299Z" fill="white" fill-opacity="0.7"/>
<path d="M44.5678 112.323C45.4211 112.323 46.1838 112.201 46.8558 111.955C47.5384 111.721 48.1144 111.385 48.5838 110.947C49.0531 110.51 49.4104 109.987 49.6558 109.379C49.9118 108.782 50.0398 108.121 50.0398 107.395C50.0398 106.574 49.9118 105.838 49.6558 105.187C49.3998 104.537 49.0318 103.971 48.5518 103.491C48.0718 103.022 47.4958 102.643 46.8238 102.355C46.1518 102.067 45.3998 101.875 44.5678 101.779L44.5678 112.323ZM43.5918 101.699L43.2878 101.699C42.0931 101.699 41.0424 101.838 40.1358 102.115C39.2291 102.393 38.4664 102.787 37.8478 103.299C37.2398 103.811 36.7811 104.43 36.4718 105.155C36.1624 105.881 36.0078 106.691 36.0078 107.587C36.0078 108.387 36.0931 109.081 36.2638 109.667C36.4451 110.254 36.6424 110.745 36.8558 111.139C37.0798 111.545 37.2771 111.865 37.4478 112.099C37.6291 112.334 37.7198 112.505 37.7198 112.611C37.7198 112.75 37.6664 112.857 37.5598 112.931L37.0478 113.347C36.7278 113.091 36.4291 112.75 36.1518 112.323C35.8744 111.907 35.6344 111.438 35.4318 110.915C35.2398 110.403 35.0851 109.849 34.9678 109.251C34.8504 108.665 34.7918 108.073 34.7918 107.475C34.7918 106.387 34.9784 105.395 35.3518 104.499C35.7358 103.603 36.2904 102.835 37.0158 102.195C37.7411 101.555 38.6264 101.059 39.6718 100.707C40.7278 100.366 41.9331 100.195 43.2878 100.195C44.4291 100.195 45.4798 100.355 46.4398 100.675C47.4104 101.006 48.2424 101.475 48.9358 102.083C49.6398 102.702 50.1891 103.454 50.5838 104.339C50.9784 105.235 51.1758 106.249 51.1758 107.379C51.1758 108.275 51.0211 109.107 50.7118 109.875C50.4024 110.643 49.9491 111.31 49.3518 111.875C48.7651 112.441 48.0398 112.883 47.1758 113.203C46.3118 113.534 45.3198 113.699 44.1998 113.699C43.9651 113.699 43.8051 113.667 43.7198 113.603C43.6344 113.539 43.5918 113.433 43.5918 113.283L43.5918 101.699Z" fill="white" fill-opacity="0.7"/>
<path d="M50.9199 98.2518L34.9999 91.5318L34.9999 90.1878L50.9199 83.4678L50.9199 84.6678C50.9199 84.8171 50.8773 84.9398 50.7919 85.0358C50.7173 85.1318 50.6319 85.1958 50.5359 85.2278L37.9759 90.4918C37.5066 90.6518 37.0426 90.7798 36.5839 90.8758C37.0426 90.9718 37.5066 91.1051 37.9759 91.2758L50.5359 96.5558C50.6533 96.6091 50.7439 96.6784 50.8079 96.7638C50.8826 96.8598 50.9199 96.9718 50.9199 97.0998L50.9199 98.2518Z" fill="white" fill-opacity="0.7"/>
<path d="M44.5678 80.2296C45.4211 80.2296 46.1838 80.1069 46.8558 79.8616C47.5384 79.6269 48.1144 79.2909 48.5838 78.8536C49.0531 78.4162 49.4104 77.8936 49.6558 77.2856C49.9118 76.6882 50.0398 76.0269 50.0398 75.3016C50.0398 74.4802 49.9118 73.7442 49.6558 73.0936C49.3998 72.4429 49.0318 71.8776 48.5518 71.3976C48.0718 70.9282 47.4958 70.5496 46.8238 70.2616C46.1518 69.9736 45.3998 69.7816 44.5678 69.6856L44.5678 80.2296ZM43.5918 69.6056L43.2878 69.6056C42.0931 69.6056 41.0424 69.7442 40.1358 70.0216C39.2291 70.2989 38.4664 70.6936 37.8478 71.2056C37.2398 71.7176 36.7811 72.3362 36.4718 73.0616C36.1624 73.7869 36.0078 74.5976 36.0078 75.4936C36.0078 76.2936 36.0931 76.9869 36.2638 77.5736C36.4451 78.1602 36.6424 78.6509 36.8558 79.0456C37.0798 79.4509 37.2771 79.7709 37.4478 80.0056C37.6291 80.2402 37.7198 80.4109 37.7198 80.5176C37.7198 80.6562 37.6664 80.7629 37.5598 80.8376L37.0478 81.2536C36.7278 80.9976 36.4291 80.6562 36.1518 80.2296C35.8744 79.8136 35.6344 79.3442 35.4318 78.8216C35.2398 78.3096 35.0851 77.7549 34.9678 77.1576C34.8504 76.5709 34.7918 75.9789 34.7918 75.3816C34.7918 74.2936 34.9784 73.3016 35.3518 72.4056C35.7358 71.5096 36.2904 70.7416 37.0158 70.1016C37.7411 69.4616 38.6264 68.9656 39.6718 68.6136C40.7278 68.2722 41.9331 68.1016 43.2878 68.1016C44.4291 68.1016 45.4798 68.2616 46.4398 68.5816C47.4104 68.9122 48.2424 69.3816 48.9358 69.9896C49.6398 70.6082 50.1891 71.3602 50.5838 72.2456C50.9784 73.1416 51.1758 74.1549 51.1758 75.2856C51.1758 76.1816 51.0211 77.0136 50.7118 77.7816C50.4024 78.5496 49.9491 79.2162 49.3518 79.7816C48.7651 80.3469 48.0398 80.7896 47.1758 81.1096C46.3118 81.4402 45.3198 81.6056 44.1998 81.6056C43.9651 81.6056 43.8051 81.5736 43.7198 81.5096C43.6344 81.4456 43.5918 81.3389 43.5918 81.1896L43.5918 69.6056Z" fill="white" fill-opacity="0.7"/>
<path d="M51.1758 48.8343C51.1758 49.9756 50.9784 50.9943 50.5838 51.8903C50.1998 52.797 49.6504 53.5596 48.9358 54.1783C48.2211 54.797 47.3571 55.2663 46.3438 55.5863C45.3411 55.917 44.2158 56.0823 42.9678 56.0823C41.7198 56.0823 40.5944 55.917 39.5918 55.5863C38.5891 55.2663 37.7304 54.797 37.0158 54.1783C36.3011 53.5596 35.7518 52.797 35.3678 51.8903C34.9838 50.9943 34.7918 49.9756 34.7918 48.8343C34.7918 47.693 34.9838 46.669 35.3678 45.7623C35.7518 44.8663 36.3011 44.1036 37.0158 43.4743C37.7304 42.8556 38.5891 42.381 39.5918 42.0503C40.5944 41.7303 41.7198 41.5703 42.9678 41.5703C44.2158 41.5703 45.3411 41.7303 46.3438 42.0503C47.3571 42.381 48.2211 42.8556 48.9358 43.4743C49.6504 44.1036 50.1998 44.8663 50.5838 45.7623C50.9784 46.669 51.1758 47.693 51.1758 48.8343ZM35.9918 48.8343C35.9918 49.7836 36.1518 50.6103 36.4718 51.3143C36.8024 52.029 37.2718 52.621 37.8798 53.0903C38.4878 53.5703 39.2184 53.9276 40.0718 54.1623C40.9358 54.397 41.9011 54.5143 42.9678 54.5143C44.0238 54.5143 44.9838 54.397 45.8478 54.1623C46.7118 53.9276 47.4478 53.5703 48.0558 53.0903C48.6744 52.621 49.1491 52.029 49.4798 51.3143C49.8104 50.6103 49.9758 49.7836 49.9758 48.8343C49.9758 47.885 49.8104 47.053 49.4798 46.3383C49.1491 45.6343 48.6744 45.0423 48.0558 44.5623C47.4478 44.093 46.7118 43.7356 45.8478 43.4903C44.9838 43.2556 44.0238 43.1383 42.9678 43.1383C41.9011 43.1383 40.9358 43.2556 40.0718 43.4903C39.2184 43.7356 38.4878 44.093 37.8798 44.5623C37.2718 45.0423 36.8024 45.6343 36.4718 46.3383C36.1518 47.053 35.9918 47.885 35.9918 48.8343Z" fill="white" fill-opacity="0.7"/>
<path d="M34.7439 35.9763C34.7439 34.8989 35.0426 34.0563 35.6399 33.4483C36.2372 32.8509 37.1599 32.5523 38.4079 32.5523L49.2879 32.5523L49.2879 30.2643C49.2879 30.1469 49.3199 30.0509 49.3839 29.9763C49.4479 29.9016 49.5386 29.8643 49.6559 29.8643L50.2479 29.8643L50.4399 32.5843L56.1359 32.9683C56.2319 32.9896 56.3172 33.0323 56.3919 33.0963C56.4666 33.1603 56.5039 33.2509 56.5039 33.3683L56.5039 34.0883L50.4239 34.0883L50.4239 39.1123L49.2879 39.1123L49.2879 34.0883L38.4879 34.0883C38.0506 34.0883 37.6719 34.1416 37.3519 34.2483C37.0426 34.3656 36.7866 34.5203 36.5839 34.7123C36.3812 34.9149 36.2319 35.1496 36.1359 35.4163C36.0399 35.6829 35.9919 35.9709 35.9919 36.2803C35.9919 36.6643 36.0452 36.9949 36.1519 37.2723C36.2692 37.5496 36.3919 37.7896 36.5199 37.9923C36.6586 38.1949 36.7812 38.3603 36.8879 38.4883C37.0052 38.6163 37.0639 38.7176 37.0639 38.7923C37.0639 38.8776 37.0106 38.9629 36.9039 39.0483L36.2319 39.4643C35.7839 39.0589 35.4212 38.5416 35.1439 37.9123C34.8772 37.2936 34.7439 36.6483 34.7439 35.9763Z" fill="white" fill-opacity="0.7"/>
<path d="M78.5678 169.386C79.4211 169.386 80.1838 169.263 80.8558 169.018C81.5384 168.783 82.1144 168.447 82.5838 168.01C83.0531 167.572 83.4104 167.05 83.6558 166.442C83.9118 165.844 84.0398 165.183 84.0398 164.458C84.0398 163.636 83.9118 162.9 83.6558 162.25C83.3998 161.599 83.0318 161.034 82.5518 160.554C82.0718 160.084 81.4958 159.706 80.8238 159.418C80.1518 159.13 79.3998 158.938 78.5678 158.842L78.5678 169.386ZM77.5918 158.762L77.2878 158.762C76.0931 158.762 75.0424 158.9 74.1358 159.178C73.2291 159.455 72.4664 159.85 71.8478 160.362C71.2398 160.874 70.7811 161.492 70.4718 162.218C70.1624 162.943 70.0078 163.754 70.0078 164.65C70.0078 165.45 70.0931 166.143 70.2638 166.73C70.4451 167.316 70.6424 167.807 70.8558 168.202C71.0798 168.607 71.2771 168.927 71.4478 169.162C71.6291 169.396 71.7198 169.567 71.7198 169.674C71.7198 169.812 71.6664 169.919 71.5598 169.994L71.0478 170.41C70.7278 170.154 70.4291 169.812 70.1518 169.386C69.8744 168.97 69.6344 168.5 69.4318 167.978C69.2398 167.466 69.0851 166.911 68.9678 166.314C68.8504 165.727 68.7918 165.135 68.7918 164.538C68.7918 163.45 68.9784 162.458 69.3518 161.562C69.7358 160.666 70.2904 159.898 71.0158 159.258C71.7411 158.618 72.6264 158.122 73.6718 157.77C74.7278 157.428 75.9331 157.258 77.2878 157.258C78.4291 157.258 79.4798 157.418 80.4398 157.738C81.4104 158.068 82.2424 158.538 82.9358 159.146C83.6398 159.764 84.1891 160.516 84.5838 161.402C84.9784 162.298 85.1758 163.311 85.1758 164.442C85.1758 165.338 85.0211 166.17 84.7118 166.938C84.4024 167.706 83.9491 168.372 83.3518 168.938C82.7651 169.503 82.0398 169.946 81.1758 170.266C80.3118 170.596 79.3198 170.762 78.1998 170.762C77.9651 170.762 77.8051 170.73 77.7198 170.666C77.6344 170.602 77.5918 170.495 77.5918 170.346L77.5918 158.762Z" fill="white" fill-opacity="0.7"/>
<path d="M92.2793 152.835L68.9993 152.835L68.9993 151.299L92.2793 151.299L92.2793 152.835Z" fill="white" fill-opacity="0.7"/>
<path d="M84.92 145.726L69 145.726L69 144.206L84.92 144.206L84.92 145.726ZM90.408 146.382C90.216 146.382 90.0347 146.339 89.864 146.254C89.704 146.179 89.56 146.078 89.432 145.95C89.304 145.822 89.2027 145.672 89.128 145.502C89.0534 145.331 89.016 145.15 89.016 144.958C89.016 144.766 89.0534 144.584 89.128 144.414C89.2027 144.243 89.304 144.094 89.432 143.966C89.56 143.838 89.704 143.736 89.864 143.662C90.0347 143.587 90.216 143.55 90.408 143.55C90.6 143.55 90.7814 143.587 90.952 143.662C91.1334 143.736 91.288 143.838 91.416 143.966C91.544 144.094 91.6454 144.243 91.72 144.414C91.7947 144.584 91.832 144.766 91.832 144.958C91.832 145.15 91.7947 145.331 91.72 145.502C91.6454 145.672 91.544 145.822 91.416 145.95C91.288 146.078 91.1334 146.179 90.952 146.254C90.7814 146.339 90.6 146.382 90.408 146.382Z" fill="white" fill-opacity="0.7"/>
<path d="M68.9998 118.28L84.9198 118.28L84.9198 119.128C84.9198 119.395 84.7864 119.55 84.5198 119.592L82.2158 119.736C83.1011 120.355 83.8158 121.064 84.3598 121.864C84.9038 122.664 85.1758 123.566 85.1758 124.568C85.1758 125.731 84.8398 126.659 84.1678 127.352C83.4958 128.056 82.5624 128.531 81.3678 128.776C82.0184 128.968 82.5838 129.235 83.0638 129.576C83.5438 129.928 83.9384 130.328 84.2478 130.776C84.5678 131.224 84.8024 131.71 84.9518 132.232C85.1011 132.766 85.1758 133.31 85.1758 133.864C85.1758 134.654 85.0424 135.363 84.7758 135.992C84.5198 136.622 84.1358 137.155 83.6238 137.592C83.1118 138.03 82.4824 138.366 81.7358 138.6C80.9891 138.835 80.1358 138.952 79.1758 138.952L68.9998 138.952L68.9998 137.432L79.1758 137.432C80.7331 137.432 81.9171 137.096 82.7278 136.424C83.5491 135.752 83.9598 134.792 83.9598 133.544C83.9598 132.99 83.8584 132.456 83.6558 131.944C83.4531 131.443 83.1491 130.995 82.7438 130.6C82.3491 130.216 81.8531 129.907 81.2558 129.672C80.6584 129.448 79.9651 129.336 79.1758 129.336L68.9998 129.336L68.9998 127.8L79.1758 127.8C80.7224 127.8 81.9064 127.491 82.7278 126.872C83.5491 126.264 83.9598 125.368 83.9598 124.184C83.9598 123.32 83.7038 122.52 83.1918 121.784C82.6798 121.048 81.9704 120.392 81.0638 119.816L68.9998 119.816L68.9998 118.28Z" fill="white" fill-opacity="0.7"/>
<path d="M82.9518 113.438C82.8024 113.353 82.7278 113.23 82.7278 113.07C82.7278 112.953 82.7918 112.804 82.9198 112.622C83.0584 112.441 83.2078 112.196 83.3678 111.886C83.5384 111.588 83.6878 111.214 83.8158 110.766C83.9544 110.318 84.0238 109.774 84.0238 109.134C84.0238 108.558 83.9384 108.03 83.7678 107.55C83.6078 107.081 83.3891 106.676 83.1118 106.334C82.8344 106.004 82.5091 105.748 82.1358 105.566C81.7731 105.385 81.3891 105.294 80.9838 105.294C80.4824 105.294 80.0664 105.422 79.7358 105.678C79.4051 105.934 79.1224 106.265 78.8878 106.67C78.6531 107.086 78.4504 107.561 78.2798 108.094C78.1091 108.628 77.9384 109.166 77.7678 109.71C77.5971 110.265 77.4051 110.809 77.1918 111.342C76.9891 111.876 76.7331 112.345 76.4238 112.75C76.1144 113.166 75.7358 113.502 75.2878 113.758C74.8398 114.014 74.2958 114.142 73.6558 114.142C72.9624 114.142 72.3171 114.02 71.7198 113.774C71.1224 113.529 70.6051 113.166 70.1678 112.686C69.7304 112.217 69.3838 111.636 69.1278 110.942C68.8718 110.249 68.7438 109.454 68.7438 108.558C68.7438 107.438 68.9198 106.473 69.2718 105.662C69.6344 104.852 70.1038 104.126 70.6798 103.486L71.2238 103.838C71.3091 103.892 71.3731 103.95 71.4158 104.014C71.4584 104.089 71.4798 104.185 71.4798 104.302C71.4798 104.441 71.3944 104.606 71.2238 104.798C71.0531 105.001 70.8664 105.268 70.6638 105.598C70.4718 105.929 70.2904 106.334 70.1198 106.814C69.9491 107.305 69.8638 107.908 69.8638 108.622C69.8638 109.294 69.9544 109.886 70.1358 110.398C70.3278 110.91 70.5838 111.337 70.9038 111.678C71.2238 112.02 71.5971 112.276 72.0238 112.446C72.4611 112.628 72.9198 112.718 73.3998 112.718C73.9331 112.718 74.3758 112.59 74.7278 112.334C75.0798 112.078 75.3784 111.742 75.6238 111.326C75.8691 110.91 76.0771 110.436 76.2478 109.902C76.4184 109.38 76.5891 108.841 76.7598 108.286C76.9304 107.732 77.1171 107.188 77.3198 106.654C77.5224 106.132 77.7784 105.662 78.0878 105.246C78.3971 104.83 78.7704 104.494 79.2078 104.238C79.6558 103.982 80.2104 103.854 80.8718 103.854C81.4371 103.854 81.9811 103.977 82.5038 104.222C83.0264 104.468 83.4851 104.814 83.8798 105.262C84.2744 105.721 84.5891 106.276 84.8238 106.926C85.0584 107.577 85.1758 108.308 85.1758 109.118C85.1758 110.089 85.0371 110.948 84.7598 111.694C84.4824 112.452 84.0558 113.14 83.4798 113.758L82.9518 113.438Z" fill="white" fill-opacity="0.7"/>
<path d="M76.6954 89.4114C76.6421 87.8967 76.5194 86.59 76.3274 85.4913C76.1461 84.4033 75.8954 83.502 75.5754 82.7874C75.2554 82.0834 74.8714 81.5607 74.4234 81.2194C73.9861 80.878 73.4847 80.7074 72.9194 80.7074C72.3861 80.7074 71.9221 80.7927 71.5274 80.9633C71.1434 81.1447 70.8234 81.3794 70.5674 81.6674C70.3221 81.966 70.1407 82.3074 70.0234 82.6914C69.9061 83.0754 69.8474 83.4753 69.8474 83.8913C69.8474 84.51 69.9114 85.0753 70.0394 85.5873C70.1781 86.11 70.3647 86.59 70.5994 87.0274C70.8447 87.4754 71.1327 87.8914 71.4634 88.2754C71.7941 88.6594 72.1514 89.038 72.5354 89.4114L76.6954 89.4114ZM82.6634 80.0514C83.4954 80.8834 84.1247 81.758 84.5514 82.6754C84.9781 83.5927 85.1914 84.6327 85.1914 85.7953C85.1914 86.6487 85.0527 87.3954 84.7754 88.0354C84.5087 88.6754 84.1194 89.2034 83.6074 89.6194C83.1061 90.046 82.4927 90.366 81.7674 90.5794C81.0527 90.7927 80.2527 90.8994 79.3674 90.8994L68.9994 90.8994L68.9994 90.2914C68.9994 89.9714 69.1487 89.774 69.4474 89.6993L71.4954 89.4753C71.0687 89.038 70.6847 88.6007 70.3434 88.1634C70.0021 87.7367 69.7141 87.2887 69.4794 86.8194C69.2447 86.35 69.0634 85.8434 68.9354 85.2994C68.8074 84.7554 68.7434 84.158 68.7434 83.5074C68.7434 82.9634 68.8234 82.4354 68.9834 81.9234C69.1434 81.4114 69.3887 80.9527 69.7194 80.5473C70.0501 80.1527 70.4714 79.8327 70.9834 79.5873C71.5061 79.3527 72.1301 79.2354 72.8554 79.2354C73.5274 79.2354 74.1514 79.4273 74.7274 79.8113C75.3034 80.1953 75.8047 80.798 76.2314 81.6194C76.6581 82.4407 76.9994 83.4914 77.2554 84.7714C77.5114 86.062 77.6607 87.6087 77.7034 89.4114L79.3674 89.4114C80.8394 89.4114 81.9701 89.0914 82.7594 88.4514C83.5594 87.822 83.9594 86.8834 83.9594 85.6354C83.9594 84.8674 83.8527 84.2114 83.6394 83.6674C83.4261 83.134 83.1914 82.6807 82.9354 82.3074C82.6794 81.934 82.4447 81.63 82.2314 81.3953C82.0181 81.1607 81.9114 80.9634 81.9114 80.8034C81.9114 80.686 81.9381 80.59 81.9914 80.5154C82.0447 80.4407 82.1141 80.3767 82.1994 80.3233L82.6634 80.0514Z" fill="white" fill-opacity="0.7"/>
<path d="M76.0394 60.6682C76.0394 61.3508 76.1354 61.9588 76.3274 62.4922C76.5301 63.0255 76.8074 63.4735 77.1594 63.8362C77.5114 64.1988 77.9327 64.4762 78.4234 64.6682C78.9141 64.8602 79.4581 64.9562 80.0554 64.9562C80.6527 64.9562 81.1967 64.8548 81.6874 64.6522C82.1887 64.4602 82.6154 64.1775 82.9674 63.8042C83.3194 63.4415 83.5914 62.9935 83.7834 62.4602C83.9754 61.9375 84.0714 61.3402 84.0714 60.6682C84.0714 59.9962 83.9754 59.3935 83.7834 58.8602C83.5914 58.3375 83.3194 57.8895 82.9674 57.5162C82.6154 57.1535 82.1887 56.8762 81.6874 56.6842C81.1967 56.4922 80.6527 56.3962 80.0554 56.3962C79.4581 56.3962 78.9141 56.4922 78.4234 56.6842C77.9327 56.8762 77.5114 57.1535 77.1594 57.5162C76.8074 57.8895 76.5301 58.3375 76.3274 58.8602C76.1354 59.3935 76.0394 59.9962 76.0394 60.6682ZM67.9274 66.6202C68.4287 66.6202 68.8287 66.4868 69.1274 66.2202C69.4367 65.9642 69.6767 65.6175 69.8474 65.1802C70.0181 64.7428 70.1354 64.2362 70.1994 63.6602C70.2741 63.0948 70.3274 62.4975 70.3594 61.8682C70.3914 61.2495 70.4234 60.6255 70.4554 59.9962C70.4874 59.3668 70.5514 58.7748 70.6474 58.2202C70.4874 57.8148 70.3007 57.4415 70.0874 57.1002C69.8847 56.7588 69.6501 56.4655 69.3834 56.2202C69.1167 55.9748 68.8287 55.7828 68.5194 55.6442C68.1994 55.5055 67.8581 55.4362 67.4954 55.4362C67.0261 55.4362 66.5941 55.5535 66.1994 55.7882C65.7941 56.0335 65.4474 56.3855 65.1594 56.8442C64.8607 57.3135 64.6261 57.8842 64.4554 58.5562C64.2847 59.2282 64.1994 60.0015 64.1994 60.8762C64.1994 61.6868 64.2901 62.4388 64.4714 63.1322C64.6527 63.8362 64.9087 64.4442 65.2394 64.9562C65.5701 65.4788 65.9647 65.8842 66.4234 66.1722C66.8821 66.4708 67.3834 66.6202 67.9274 66.6202ZM84.2154 68.2842L83.6874 68.2842C83.4527 68.2842 83.3087 68.1348 83.2554 67.8362L83.0794 65.4042C82.6741 65.7028 82.2207 65.9322 81.7194 66.0922C81.2181 66.2522 80.6741 66.3322 80.0874 66.3322C79.3194 66.3322 78.6207 66.1935 77.9914 65.9162C77.3727 65.6495 76.8394 65.2655 76.3914 64.7642C75.9541 64.2735 75.6127 63.6762 75.3674 62.9722C75.1221 62.2788 74.9994 61.5108 74.9994 60.6682C74.9994 59.7615 75.1381 58.9348 75.4154 58.1882C75.1594 57.7402 74.8554 57.3828 74.5034 57.1162C74.1621 56.8602 73.8207 56.7322 73.4794 56.7322C73.0207 56.7322 72.6687 56.8922 72.4234 57.2122C72.1781 57.5428 71.9967 57.9695 71.8794 58.4922C71.7727 59.0255 71.7034 59.6282 71.6714 60.3002C71.6394 60.9828 71.6021 61.6762 71.5594 62.3802C71.5274 63.0842 71.4634 63.7722 71.3674 64.4442C71.2714 65.1268 71.1007 65.7295 70.8554 66.2522C70.6207 66.7855 70.2847 67.2122 69.8474 67.5322C69.4207 67.8628 68.8501 68.0282 68.1354 68.0282C67.4741 68.0282 66.8394 67.8628 66.2314 67.5322C65.6234 67.2015 65.0847 66.7215 64.6154 66.0922C64.1461 65.4735 63.7727 64.7215 63.4954 63.8362C63.2074 62.9508 63.0634 61.9588 63.0634 60.8602C63.0634 59.7402 63.1807 58.7588 63.4154 57.9162C63.6394 57.0735 63.9487 56.3642 64.3434 55.7882C64.7274 55.2228 65.1754 54.7962 65.6874 54.5082C66.1994 54.2202 66.7434 54.0762 67.3194 54.0762C68.1621 54.0762 68.8821 54.3535 69.4794 54.9082C70.0874 55.4628 70.5621 56.2202 70.9034 57.1802C71.0847 56.6468 71.3461 56.2148 71.6874 55.8842C72.0394 55.5642 72.5141 55.4042 73.1114 55.4042C73.3354 55.4042 73.5701 55.4468 73.8154 55.5322C74.0607 55.6175 74.3007 55.7455 74.5354 55.9162C74.7807 56.0868 75.0101 56.2948 75.2234 56.5402C75.4367 56.7855 75.6287 57.0628 75.7994 57.3722C76.2367 56.6148 76.8181 56.0228 77.5434 55.5962C78.2687 55.1802 79.1167 54.9722 80.0874 54.9722C80.8554 54.9722 81.5487 55.1055 82.1674 55.3722C82.7967 55.6495 83.3354 56.0388 83.7834 56.5402C84.2314 57.0415 84.5781 57.6388 84.8234 58.3322C85.0687 59.0362 85.1914 59.8148 85.1914 60.6682C85.1914 61.3722 85.1061 62.0175 84.9354 62.6042C84.7647 63.2015 84.5247 63.7348 84.2154 64.2042L84.2154 68.2842Z" fill="white" fill-opacity="0.7"/>
<path d="M82.1358 39.33C83.0531 40.066 83.7891 40.914 84.3438 41.874C84.8984 42.8447 85.1758 43.922 85.1758 45.106C85.1758 45.9807 85.0371 46.7487 84.7598 47.41C84.4824 48.082 84.0824 48.6367 83.5598 49.074C83.0371 49.5114 82.4078 49.842 81.6718 50.066C80.9358 50.29 80.1038 50.402 79.1758 50.402L68.9998 50.402L68.9998 48.866L79.1758 48.866C80.6691 48.866 81.8371 48.5247 82.6798 47.842C83.5331 47.1594 83.9598 46.1194 83.9598 44.722C83.9598 43.6874 83.6931 42.7167 83.1598 41.81C82.6371 40.914 81.9064 40.114 80.9678 39.41L68.9998 39.41L68.9998 37.874L84.9198 37.874L84.9198 38.722C84.9198 38.9887 84.7864 39.1434 84.5198 39.186L82.1358 39.33Z" fill="white" fill-opacity="0.7"/>
<path d="M84.92 32.4446L69 32.4446L69 30.9246L84.92 30.9246L84.92 32.4446ZM90.408 33.1006C90.216 33.1006 90.0347 33.0579 89.864 32.9726C89.704 32.8979 89.56 32.7966 89.432 32.6686C89.304 32.5406 89.2027 32.3912 89.128 32.2206C89.0534 32.0499 89.016 31.8686 89.016 31.6766C89.016 31.4846 89.0534 31.3032 89.128 31.1326C89.2027 30.9619 89.304 30.8126 89.432 30.6846C89.56 30.5566 89.704 30.4552 89.864 30.3806C90.0347 30.3059 90.216 30.2686 90.408 30.2686C90.6 30.2686 90.7814 30.3059 90.952 30.3806C91.1334 30.4552 91.288 30.5566 91.416 30.6846C91.544 30.8126 91.6454 30.9619 91.72 31.1326C91.7947 31.3032 91.832 31.4846 91.832 31.6766C91.832 31.8686 91.7947 32.0499 91.72 32.2206C91.6454 32.3912 91.544 32.5406 91.416 32.6686C91.288 32.7966 91.1334 32.8979 90.952 32.9726C90.7814 33.0579 90.6 33.1006 90.408 33.1006Z" fill="white" fill-opacity="0.7"/>
<path d="M81.0794 20.8925C81.7301 21.1379 82.3061 21.4152 82.8074 21.7245C83.3194 22.0445 83.7514 22.4072 84.1034 22.8125C84.4554 23.2285 84.7221 23.6872 84.9034 24.1885C85.0954 24.7005 85.1914 25.2659 85.1914 25.8845C85.1914 26.2152 85.1594 26.5405 85.0954 26.8605C85.0421 27.1805 84.9407 27.4632 84.7914 27.7085L83.7354 27.5805C83.5647 27.5272 83.4794 27.4259 83.4794 27.2765C83.4794 27.1485 83.5167 26.9512 83.5914 26.6845C83.6661 26.4285 83.7034 26.0872 83.7034 25.6605C83.7034 25.0419 83.6074 24.4925 83.4154 24.0125C83.2341 23.5432 82.9567 23.1165 82.5834 22.7325C82.2101 22.3592 81.7461 22.0285 81.1914 21.7405C80.6474 21.4632 80.0181 21.2072 79.3034 20.9725L68.9994 20.9725L68.9994 19.4365L84.9194 19.4365L84.9194 20.2525C84.9194 20.4339 84.8821 20.5619 84.8074 20.6365C84.7327 20.7112 84.6047 20.7592 84.4234 20.7805L81.0794 20.8925Z" fill="white" fill-opacity="0.7"/>
<path d="M70.3126 7.67175C70.3126 9.65575 70.7393 11.1544 71.5926 12.1678C72.4566 13.1918 73.6673 13.7037 75.2246 13.7037C75.9393 13.7037 76.5793 13.5651 77.1446 13.2877C77.7206 13.0211 78.206 12.6318 78.6006 12.1198C79.006 11.6078 79.3153 10.9784 79.5286 10.2317C79.742 9.48508 79.8486 8.63708 79.8486 7.68775L79.8486 1.99175L70.3126 1.99175L70.3126 7.67175ZM90.3446 1.99175L81.0486 1.99175L81.0486 6.88775C81.0486 7.93308 81.182 8.82375 81.4486 9.55975C81.7153 10.3064 82.0673 10.9144 82.5046 11.3838C82.942 11.8638 83.438 12.2158 83.9926 12.4398C84.5473 12.6638 85.118 12.7758 85.7046 12.7758C87.23 12.7758 88.382 12.2904 89.1606 11.3198C89.95 10.3598 90.3446 8.87175 90.3446 6.85575L90.3446 1.99175ZM91.6406 6.85575C91.6406 8.14642 91.5126 9.26642 91.2566 10.2158C91.0006 11.1651 90.622 11.9491 90.1206 12.5678C89.63 13.1864 89.0273 13.6451 88.3126 13.9438C87.598 14.2424 86.7873 14.3918 85.8806 14.3918C85.2833 14.3918 84.7073 14.2851 84.1526 14.0718C83.598 13.8691 83.086 13.5704 82.6166 13.1758C82.1473 12.7918 81.7366 12.3118 81.3846 11.7358C81.0433 11.1704 80.782 10.5198 80.6006 9.78375C80.3446 11.5651 79.7526 12.9304 78.8246 13.8798C77.9073 14.8398 76.6966 15.3198 75.1926 15.3198C74.2326 15.3198 73.3686 15.1491 72.6006 14.8077C71.8326 14.4664 71.182 13.9704 70.6486 13.3198C70.1153 12.6691 69.7046 11.8691 69.4166 10.9198C69.1393 9.97042 69.0006 8.89308 69.0006 7.68775L69.0006 0.343749L91.6406 0.34375L91.6406 6.85575Z" fill="white" fill-opacity="0.7"/>
</svg>
